<?xml version="1.0" encoding="utf-8"?>
<!-- Generator: Adobe Illustrator 19.0.0, SVG Export Plug-In . SVG Version: 6.00 Build 0)  -->
<svg version="1.1" id="Layer_1" xmlns="http://www.w3.org/2000/svg" xmlns:xlink="http://www.w3.org/1999/xlink" x="0px" y="0px"
	 viewBox="-205 297 200 200" style="enable-background:new -205 297 200 200;" xml:space="preserve">
<style type="text/css">
	.st0{opacity:0.81;}
	.st1{fill:#E1F2F4;}
</style>
<g id="XMLID_8927_">
	<g>
		<g class="st0">
			<g>
				<path class="st1" d="M-42.8,390c0.5-1,0.9-2.1,1.4-3.1c0.2-0.6-0.5-0.8-0.8-0.4c-1.1,1.4-1.4,2.9-1.3,4.1
					c0.1,0.6,0.2,1.2,0.5,1.7c0.3,0.5,0.6,1,1,1.4c0.7,0.8,1.7,1.2,2.9,1.6c1.1,0.4,2.4,0.6,3.6,0.9l1,0.2c0.2,0,0.3,0.1,0.5,0.1
					l0.1,0c0,0,0,0,0.1,0l0.1,0l0.3,0.1c0.7,0.2,1.3,0.3,2,0.6c1.2,0.5,2.5,1.1,3.3,2.2c0.2,0.2,0.4,0.3,0.7,0.2
					c1.9-0.9,3.7-1.8,5.6-2.6c0.2-0.1,0.3-0.5,0.1-0.7c-1.8-2.7-4.1-5.1-6.3-7.4c-2.2-2.3-4.6-4.5-7.1-6.4c-5-3.8-10.7-6.7-16.8-8.1
					c-6.1-1.4-12.5-1.2-18.6,0.4c-6.2,1.6-12,4.4-17.3,8.1c-5.8,4.1-11.1,9-16.4,14c-5.4,5-10.8,10.2-16.9,14.9
					c-6.1,4.7-13,9.1-21.2,11.6c-4.1,1.2-8.5,1.9-13,1.7c-1.1,0-2.2-0.2-3.4-0.3c-1.1-0.2-2.3-0.4-3.4-0.7c-1.1-0.4-2.2-0.7-3.3-1.1
					c-1-0.5-2.1-0.8-3.1-1.4c-7.8-4.1-13.5-10.9-16.6-18.4c-2.2-5.4-3.3-11.5-1.6-16.8c0.2-0.7-0.9-1.1-1.2-0.4
					c-0.4,0.8-0.8,1.6-1.1,2.5c-0.2,0.4-0.3,0.9-0.5,1.3c-0.1,0.4-0.2,0.9-0.3,1.3c-0.2,0.9-0.4,1.8-0.5,2.8
					c-0.1,0.9-0.1,1.9-0.2,2.9c0,3.9,0.7,8,2.2,11.9c2.1,5.6,5.7,11,10.8,15.5c2.6,2.2,5.4,4.3,8.8,5.8c0.4,0.2,0.8,0.4,1.2,0.6
					l1.3,0.5c0.9,0.3,1.7,0.7,2.7,1c0.9,0.3,1.9,0.5,2.8,0.8c0.9,0.2,1.8,0.3,2.7,0.5c5.1,0.8,10.2,0.6,14.9-0.2
					c4.8-0.8,9.1-2.3,13.1-4c8-3.4,14.6-7.9,20.6-12.5c5.9-4.5,11.1-9.1,16.1-13.2c4.9-4.2,9.6-7.9,14.1-10.7
					c3.1-1.9,6.2-3.4,9.2-4.6c3.1-1.2,6.1-1.9,9.1-2.2c0.4-0.1,0.7,0,1.1-0.1c0.4,0,0.7,0,1.1,0c0.7,0,1.5,0,2.2,0
					c1.5,0.1,2.9,0.3,4.3,0.6c2.8,0.7,5.8,1.9,8.6,3.6c0.4,0.3,1.1-0.6,0.6-0.9c-2.4-1.5-4.8-2.6-7.3-3.4c-2.5-0.8-4.9-1.1-7.4-1.2
					c-2.5,0-5.1,0.2-7.7,0.8c-2.6,0.6-5.2,1.5-7.8,2.7c-2.6,1.2-5.2,2.6-7.8,4.3c-2.6,1.7-5.3,3.7-8.1,5.9
					c-5.5,4.4-11.2,9.4-17.6,14.5c-4.7,3.8-10,7.7-15.9,11.2c-6,3.4-12.8,6.5-20.8,8c-4,0.7-8.2,0.9-12.5,0.4
					c-4.1-0.4-8.8-1.7-12.5-3.6c-3.8-1.9-7.1-4.3-9.8-7.1c-2.7-2.8-5-5.7-6.7-8.9c-2.4-4.4-3.9-9.1-4.3-13.8
					c-0.3-4.6,0.4-9.1,2.5-12.8l-1.2-0.4c-1.8,5.6-1.1,12.4,1.6,18.6c1.4,3.1,3.3,6,5.5,8.7c2.2,2.7,4.9,4.9,7.6,6.9l1.6,1.1
					c0.5,0.4,1.2,0.7,1.7,1c1.1,0.7,2.4,1.2,3.7,1.7c0.6,0.3,1.3,0.5,1.9,0.7c0.7,0.2,1.3,0.4,2,0.6c1.4,0.3,2.8,0.6,4.1,0.8
					c2.7,0.4,5.4,0.3,8,0.1c2.6-0.3,5.2-0.8,7.6-1.5c4.9-1.4,9.3-3.6,13.3-6c4-2.4,7.7-5.2,11.2-8c6.1-5,11.5-10.2,16.8-15.2
					c5.4-5,10.8-9.7,16.7-13.4c4.8-3.1,10.2-5.3,15.6-6.4c5.5-1.1,11-1.1,16.4,0c4.9,1,9.6,3.2,14,6c2.2,1.4,4.2,3,6.2,4.8
					c1,0.8,1.9,1.8,2.9,2.7l1.4,1.4c0.2,0.2,0.5,0.5,0.7,0.7c0.2,0.2,0.5,0.5,0.7,0.7c0.7,0.8,1.4,1.6,2.1,2.4
					c1.2,1.4,1.6,1.6,0.3,2.5c-0.9,0.6-2.7,1.7-3.9,1.3c-0.7-0.2-1.9-1.3-2.7-1.7c-0.7-0.3-1.4-0.5-2.1-0.7
					c-0.7-0.2-1.4-0.3-2.1-0.5c-1.3-0.3-2.7-0.5-3.9-0.9c-1.3-0.4-2.6-1.5-3.3-2.7c-0.6-1.3-0.7-2.9,0.7-4.7l-0.8-0.4
					c-0.4,1.1-0.9,2.1-1.3,3.2C-44,390.4-43.1,390.6-42.8,390z"/>
			</g>
		</g>
		<g class="st0">
			<g>
				<path class="st1" d="M-42.8,390c0.5-1,0.9-2.1,1.4-3.1c0.2-0.6-0.5-0.8-0.8-0.4c-1.1,1.4-1.4,2.9-1.3,4.1
					c0.1,0.6,0.2,1.2,0.5,1.7c0.3,0.5,0.6,1,1,1.4c0.7,0.8,1.7,1.2,2.9,1.6c1.1,0.4,2.4,0.6,3.6,0.9l1,0.2c0.2,0,0.3,0.1,0.5,0.1
					l0.1,0c0,0,0,0,0.1,0l0.1,0l0.3,0.1c0.7,0.2,1.3,0.3,2,0.6c1.2,0.5,2.5,1.1,3.3,2.2c0.2,0.2,0.4,0.3,0.7,0.2
					c1.9-0.9,3.7-1.8,5.6-2.6c0.2-0.1,0.3-0.5,0.1-0.7c-1.8-2.7-4.1-5.1-6.3-7.4c-2.2-2.3-4.6-4.5-7.1-6.4c-5-3.8-10.7-6.7-16.8-8.1
					c-6.1-1.4-12.5-1.2-18.6,0.4c-6.2,1.6-12,4.4-17.3,8.1c-5.8,4.1-11.1,9-16.4,14c-5.4,5-10.8,10.2-16.9,14.9
					c-6.1,4.7-13,9.1-21.2,11.6c-4.1,1.2-8.5,1.9-13,1.7c-1.1,0-2.2-0.2-3.4-0.3c-1.1-0.2-2.3-0.4-3.4-0.7c-1.1-0.4-2.2-0.7-3.3-1.1
					c-1-0.5-2.1-0.8-3.1-1.4c-7.8-4.1-13.5-10.9-16.6-18.4c-2.2-5.4-3.3-11.5-1.6-16.8c0.2-0.7-0.9-1.1-1.2-0.4
					c-0.4,0.8-0.8,1.6-1.1,2.5c-0.2,0.4-0.3,0.9-0.5,1.3c-0.1,0.4-0.2,0.9-0.3,1.3c-0.2,0.9-0.4,1.8-0.5,2.8
					c-0.1,0.9-0.1,1.9-0.2,2.9c0,3.9,0.7,8,2.2,11.9c2.1,5.6,5.7,11,10.8,15.5c2.6,2.2,5.4,4.3,8.8,5.8c0.4,0.2,0.8,0.4,1.2,0.6
					l1.3,0.5c0.9,0.3,1.7,0.7,2.7,1c0.9,0.3,1.9,0.5,2.8,0.8c0.9,0.2,1.8,0.3,2.7,0.5c5.1,0.8,10.2,0.6,14.9-0.2
					c4.8-0.8,9.1-2.3,13.1-4c8-3.4,14.6-7.9,20.6-12.5c5.9-4.5,11.1-9.1,16.1-13.2c4.9-4.2,9.6-7.9,14.1-10.7
					c3.1-1.9,6.2-3.4,9.2-4.6c3.1-1.2,6.1-1.9,9.1-2.2c0.4-0.1,0.7,0,1.1-0.1c0.4,0,0.7,0,1.1,0c0.7,0,1.5,0,2.2,0
					c1.5,0.1,2.9,0.3,4.3,0.6c2.8,0.7,5.8,1.9,8.6,3.6c0.4,0.3,1.1-0.6,0.6-0.9c-2.4-1.5-4.8-2.6-7.3-3.4c-2.5-0.8-4.9-1.1-7.4-1.2
					c-2.5,0-5.1,0.2-7.7,0.8c-2.6,0.6-5.2,1.5-7.8,2.7c-2.6,1.2-5.2,2.6-7.8,4.3c-2.6,1.7-5.3,3.7-8.1,5.9
					c-5.5,4.4-11.2,9.4-17.6,14.5c-4.7,3.8-10,7.7-15.9,11.2c-6,3.4-12.8,6.5-20.8,8c-4,0.7-8.2,0.9-12.5,0.4
					c-4.1-0.4-8.8-1.7-12.5-3.6c-3.8-1.9-7.1-4.3-9.8-7.1c-2.7-2.8-5-5.7-6.7-8.9c-2.4-4.4-3.9-9.1-4.3-13.8
					c-0.3-4.6,0.4-9.1,2.5-12.8l-1.2-0.4c-1.8,5.6-1.1,12.4,1.6,18.6c1.4,3.1,3.3,6,5.5,8.7c2.2,2.7,4.9,4.9,7.6,6.9l1.6,1.1
					c0.5,0.4,1.2,0.7,1.7,1c1.1,0.7,2.4,1.2,3.7,1.7c0.6,0.3,1.3,0.5,1.9,0.7c0.7,0.2,1.3,0.4,2,0.6c1.4,0.3,2.8,0.6,4.1,0.8
					c2.7,0.4,5.4,0.3,8,0.1c2.6-0.3,5.2-0.8,7.6-1.5c4.9-1.4,9.3-3.6,13.3-6c4-2.4,7.7-5.2,11.2-8c6.1-5,11.5-10.2,16.8-15.2
					c5.4-5,10.8-9.7,16.7-13.4c4.8-3.1,10.2-5.3,15.6-6.4c5.5-1.1,11-1.1,16.4,0c4.9,1,9.6,3.2,14,6c2.2,1.4,4.2,3,6.2,4.8
					c1,0.8,1.9,1.8,2.9,2.7l1.4,1.4c0.2,0.2,0.5,0.5,0.7,0.7c0.2,0.2,0.5,0.5,0.7,0.7c0.7,0.8,1.4,1.6,2.1,2.4
					c1.2,1.4,1.6,1.6,0.3,2.5c-0.9,0.6-2.7,1.7-3.9,1.3c-0.7-0.2-1.9-1.3-2.7-1.7c-0.7-0.3-1.4-0.5-2.1-0.7
					c-0.7-0.2-1.4-0.3-2.1-0.5c-1.3-0.3-2.7-0.5-3.9-0.9c-1.3-0.4-2.6-1.5-3.3-2.7c-0.6-1.3-0.7-2.9,0.7-4.7l-0.8-0.4
					c-0.4,1.1-0.9,2.1-1.3,3.2C-44,390.4-43.1,390.6-42.8,390z"/>
			</g>
		</g>
		<g class="st0">
			<g>
				<path class="st1" d="M-33.6,387.6c-0.7-0.9-1.5-1.6-2.4-2.2c-0.6-0.3-1.2,0.5-0.7,0.8c0.8,0.6,1.6,1.2,2.2,2
					C-34.1,388.6-33.2,388.1-33.6,387.6z"/>
			</g>
		</g>
		<g class="st0">
			<g>
				<path class="st1" d="M-43.1,377.8c-4.1,0.2-7.9,1.4-10.9,3.6c-1,0.7-2.2,2.3-3.1,2.2c-0.6-0.1-1.3-0.9-2-1.9
					c-0.8-1-1.6-2.1-2.1-2.6c-0.7-0.7-1.6-1.9-2.7-2.8c-1.1-1-2.4-1.6-3.5-1.4c-0.6,0.1-1.1,0.5-1.5,1c-0.4,0.5-0.8,1.1-1.1,1.5
					c-1.3,1.7-2.4,3.6-3.4,5.4c-0.3,0.6,0.5,1.4,0.8,0.8c0.8-1.5,1.6-2.9,2.6-4.3c1.6-2.4,3.2-3.1,5.8-1.6c3,1.8,5.3,5.1,6.9,7.7
					c0.1,0.2,0.3,0.2,0.5,0c0.9-1,1.8-1.8,2.8-2.6c1-0.7,2.1-1.5,3.3-2c2.3-1.1,5-1.8,7.8-1.9C-42.4,378.9-42.4,377.8-43.1,377.8z"
					/>
			</g>
		</g>
		<g class="st0">
			<g>
				<path class="st1" d="M-68.8,381.2c-3-1.2-6.2-2.3-9.7-3.2c-0.2-0.1-0.5,0.1-0.6,0.4c-0.7,2-1.1,4.1-1.4,6.2
					c-0.2,1.5,0.3,4.6-0.1,5.9c-0.5,1.7-3.3-0.2-5.1-0.7c-2.5-0.7-5-1.3-7.6-1.8c-0.2,0-0.5,0.1-0.6,0.3c-0.7,3.2-0.9,6.4-0.5,9.8
					c0.1,0.8,1.2,1,1.2,0.2c-0.2-1.7-0.2-3.3-0.2-4.9c0-0.8,0.1-1.6,0.2-2.4c0.4-1.6,1.3-2,2.6-1.3c3.3-0.1,7.6,2,10.6,3.3
					c0.3,0.1,0.6-0.1,0.5-0.5c-0.4-3.4-0.9-8.9,0.8-11.8c0.3-0.5,1-0.8,1.8-0.8c0.8,0,1.8,0.2,2.8,0.5c2,0.6,3.9,1.7,5,2.1
					C-68.4,382.6-68.2,381.5-68.8,381.2z"/>
			</g>
		</g>
		<g class="st0">
			<g>
				<path class="st1" d="M-92.2,395.4c-3.4-0.1-9.4-0.9-11.8,2c-2.4,3.1-2.9,8.9-3.6,12.9c-0.3,1.4,0,2.8-1.5,3.5
					c-0.9,0.4-3.6-0.4-4.5-0.5c-1.2-0.1-2.5-0.4-3.9-0.6c-1.3-0.2-2.7-0.3-3.9-0.2c-1.1,0.1-1.8,0.7-2.3,1.5c-0.5,0.8-0.7,1.9-1.1,3
					c-0.6,2.2-1.5,4.5-4.3,4.9c-0.8,0.1-0.6,1.4,0.3,1.3c1.6-0.2,2.6-0.9,3.3-1.8c0.8-0.9,1.3-2,1.9-3.3c0.8-1.5,1.9-3.6,3.6-4.1
					c0.8-0.3,2.9,0.3,3.8,0.4c2.8,0.3,5.6,0.6,8.4,1c0.4,0,0.6-0.2,0.7-0.6c0.6-4.5,1.4-8.8,2.6-12.9c1.7-5.8,7.5-5.5,12.4-5.3
					C-91.2,396.6-91.4,395.4-92.2,395.4z"/>
			</g>
		</g>
		<g class="st0">
			<g>
				<path class="st1" d="M-122.9,419.4c-0.7,0.1-1.5,0.1-2.4,0.1c-0.9,0-1.9,0-2.8,0c-1.9,0-3.7,0.2-4.9,1.1
					c-0.8,0.6-1.4,1.4-1.9,2.3c-0.5,0.9-0.9,1.9-1.4,2.9c-1,2-2.3,3.8-4.8,4.4c-1,0.2-1.8,0.2-2.5,0c-0.7-0.2-1.3-0.6-1.9-1
					c-1.1-0.9-2.1-2-3.4-2.9c-0.7-0.5-0.9-1-1.9-0.9c-1.1,0-2.3,1.1-3.6,2.2c-0.7,0.6-1.4,1.1-2,1.6c-0.6,0.5-1.2,0.9-1.7,1.2
					c-0.8,0.5,0.2,1.5,1.1,1c0.6-0.3,1.6-1.2,2.6-2c1-0.8,1.9-1.5,2.5-1.7c1.3-0.3,2.2,0.1,3,0.7c0.8,0.6,1.5,1.4,2.3,1.9
					c1.3,0.9,4,2.8,6.1,2.1c1.3-0.4,2.6-1.7,3.7-3c1-1.4,1.9-2.9,2.4-3.9c0.8-1.4,1.4-2.3,2.2-3c0.8-0.7,1.9-1.1,3.5-1.4
					c1-0.1,1.9-0.2,2.9-0.2c1,0,2-0.1,3-0.2C-122,420.6-122,419.3-122.9,419.4z"/>
			</g>
		</g>
		<g class="st0">
			<g>
				<path class="st1" d="M-152.5,430.8c-0.8-0.8-1.8-1.8-2.8-2.7c-1-0.9-2.1-1.8-3.3-2.2c-1.1-0.4-2.3-0.4-3.5-0.1
					c-1.2,0.2-2.4,0.6-3.6,0.8c-1.6,0.2-2.8,0-3.6-0.5c-0.9-0.5-1.4-1.5-1.7-2.9c-0.2-0.8-0.1-1.6-0.8-2.3c-0.7-0.7-2.2-0.8-3.6-0.9
					c-1.5-0.1-3.1,0-4-0.2c-0.9-0.2-1.1,1.2-0.1,1.4c1.1,0.2,3.6,0.1,4.6,0.4c3.9,1.3,1.9,2.7,3.1,4.9c0.4,0.6,0.3,1,1,1.4
					c0.8,0.5,2.1,0.5,3.3,0.4c1.2-0.1,2.5-0.5,3.2-0.6c1.3-0.2,2.4-0.3,3.4-0.3c0.5,0,1,0.1,1.4,0.2c0.4,0.1,0.8,0.2,1.2,0.3
					c0.8,0.3,1.5,0.8,2.2,1.4c0.7,0.6,1.5,1.3,2.3,2.2C-153.2,432.2-151.8,431.4-152.5,430.8z"/>
			</g>
		</g>
		<g class="st0">
			<g>
				<path class="st1" d="M-177.2,420.7c-0.1-2,0-4.5-2.1-5.6c-1.1-0.7-2.4-0.5-3.5-1.1c-0.8-0.4-1-1.5-1-2.6c0-1.1,0.4-2.3,0.5-3
					c0.1-0.8-1.2-1-1.3-0.2c-0.1,0.8-0.5,2-0.7,3.2c-0.2,1.2,0,2.4,0.6,3.2c0.6,0.6,1.4,0.8,2.2,1c0.5,0.1,1.3,0.2,1.8,0.5
					c0.8,0.6,1.3,1.2,1.6,2c0.3,0.8,0.4,1.7,0.4,2.5C-178.6,421.3-177.2,421.6-177.2,420.7z"/>
			</g>
		</g>
		<g class="st0">
			<g>
				<path class="st1" d="M-44.5,381.1c-1.6,0.3-3.1,0.8-4.5,1.3c-0.3,0.1-0.6,0.7-0.4,0.9c0.4,0.5,0.8,1.1,1.3,1.6
					c0.3,0.3,0.5,1,0.9,1.1c0.2,0.1,0.4,0,0.7-0.1c0.7-0.3,1.5-0.9,2.3-1.3c0.2-0.1,0.5-0.4,0.4-0.7c-0.2-0.8-0.2-1.6-0.1-2.4
					c0.1-0.7-1-0.5-1,0.2c-0.1,1,0,1.8,0.2,2.7l0.4-0.7c-0.5,0.3-1,0.5-1.5,0.8c-0.6,0.3-0.7,0.6-1.1,0.1c-0.5-0.7-1.1-1.4-1.6-2
					l-0.4,0.9c0.7-0.2,1.4-0.5,2.2-0.7c0.7-0.2,1.5-0.4,2.3-0.5C-43.8,382.1-43.8,381-44.5,381.1z"/>
			</g>
		</g>
		<g class="st0">
			<g>
				<path class="st1" d="M-59.2,375.5c0.5,0.5,1,1.1,1.5,1.7c0.5,0.5,0.9,1.1,1.4,1.7c0.2,0.2,0.4,0.3,0.6,0.1
					c1.2-1.5,2.7-2.6,4.5-3.4c0.6-0.3,0.4-1.4-0.3-1.1c-0.9,0.4-1.8,0.9-2.6,1.5c-0.8,0.6-1.5,1.3-2.2,2.1l0.7,0.1
					c-0.4-0.6-0.9-1.2-1.4-1.8c-0.5-0.6-1-1.1-1.5-1.7C-58.9,374.1-59.7,375-59.2,375.5z"/>
			</g>
		</g>
		<g class="st0">
			<g>
				<path class="st1" d="M-88.6,385.6c1.6,0.2,3.2,0.6,4.7,1.1c0.3,0.1,0.7-0.1,0.6-0.5c-0.2-1.2-0.1-2.4,0.2-3.5
					c0.2-0.7-0.9-1.1-1.1-0.4c-0.3,1.2-0.4,2.5-0.2,3.8l0.6-0.5c-1.5-0.5-3.1-0.9-4.7-1.1C-89.2,384.4-89.4,385.5-88.6,385.6z"/>
			</g>
		</g>
		<g class="st0">
			<g>
				<path class="st1" d="M-115.1,408.3c1.7,0.4,3.4,0.5,5.1,0.3c0.3,0,0.6-0.4,0.5-0.7c-0.4-1.6-0.2-3.1,0.7-4.4
					c0.4-0.6-0.6-1.4-1-0.7c-1,1.5-1.4,3.4-0.9,5.3l0.5-0.7c-1.6,0.1-3.2,0-4.8-0.3C-115.8,406.9-115.9,408.2-115.1,408.3z"/>
			</g>
		</g>
		<g class="st0">
			<g>
				<path class="st1" d="M-143.5,425.9c1,0.8,2.2,1.5,3.5,1.8c0.4,0.1,0.7-0.2,0.9-0.5c0.6-1.3,1-2.7,1.4-4.1c0.2-0.8-1.1-1-1.3-0.2
					c-0.4,1.4-0.9,2.7-1.5,4l0.8-0.5c-1.1-0.3-2-0.8-2.9-1.5C-143.2,424.4-144.2,425.3-143.5,425.9z"/>
			</g>
		</g>
		<g class="st0">
			<g>
				<path class="st1" d="M-99.9,408.5c0.1-1.4-0.1-4.4,0.8-5.3c0.9-0.8,3.6-0.4,4.9-0.4c0.7,0,0.5-1.2-0.3-1.2
					c-1.3,0-2.6,0.1-3.9,0.1c-0.6,0-1.4,0-1.9,0.5c-0.4,0.5-0.4,1.3-0.5,1.9c-0.1,1.4-0.3,2.9-0.4,4.3
					C-101.2,409.1-100,409.2-99.9,408.5z"/>
			</g>
		</g>
		<g class="st0">
			<g>
				<path class="st1" d="M-84,394.1c-1-0.3-2-0.5-3-0.7c-0.5-0.1-1.3-0.4-1.7-0.1c-0.4,0.3-0.3,1-0.2,1.5c0.1,1,0.3,2.1,0.4,3.1
					c0.1,0.8,1.2,0.7,1.1,0l-0.2-1.8l-0.1-0.9l-0.1-0.4c-0.2-0.4-0.2-0.5,0.1-0.3c0.3-0.1,1.3,0.3,1.7,0.4c0.6,0.1,1.3,0.3,1.9,0.5
					C-83.4,395.4-83.3,394.3-84,394.1z"/>
			</g>
		</g>
		<g class="st0">
			<g>
				<path class="st1" d="M-61.3,384.9c-0.8-0.8-1.6-1.6-2.5-2.4c-0.4-0.3-1-1-1.5-0.8c-0.4,0.2-0.4,0.6-0.5,1.1
					c-0.2,1.5-0.5,2.5-1.2,3.3c-0.4,0.5,0.3,1.4,0.6,0.9c0.4-0.5,0.7-1,1-1.7c0.2-0.6,0.2-1.3,0.4-1.9c0.1-0.1-0.1-0.5,0.1-0.6
					c0.1,0,1.1,0.9,1.2,1c0.8,0.7,1.5,1.3,2.1,2C-61.2,386.4-60.9,385.3-61.3,384.9z"/>
			</g>
		</g>
		<g class="st0">
			<g>
				<path class="st1" d="M-76.1,390.5c0-0.7,0-1.5,0.1-2.2c0.2-1.1,0.3-1.5,1.2-1.3c0.6,0.1,1.2,0.3,1.9,0.4
					c0.6,0.2,1.2,0.3,1.8,0.5c0.6,0.2,0.6-1,0-1.2c-0.9-0.3-1.9-0.6-2.9-0.8c-0.6-0.2-1.7-0.6-2.3-0.3c-1.1,0.5-0.8,3.4-0.8,4.6
					C-77,391-76.1,391.2-76.1,390.5z"/>
			</g>
		</g>
		<g class="st0">
			<g>
				<path class="st1" d="M-114.1,417.5c-1.7-0.2-3.3-0.5-5-0.8c-0.4-0.1-0.8,0.3-0.7,0.7c0.2,1.8,0.1,3.6-0.6,5.4
					c-0.3,0.8,1,1,1.3,0.2c0.6-1.9,0.8-3.8,0.5-5.7l-0.7,0.7c1.7,0.3,3.3,0.6,5,0.8C-113.5,418.9-113.3,417.6-114.1,417.5z"/>
			</g>
		</g>
		<g class="st0">
			<g>
				<path class="st1" d="M-132.5,429.5c0.4-0.7,0.7-1.5,1.1-2.1c0.5-0.6,0.4-0.7,1.3-0.8c0.6-0.1,1.3,0,2,0c0.6,0,1.3,0,1.9,0
					c0.9,0,1-1.3,0.1-1.3c-1,0-2,0-3,0c-0.7,0-1.7-0.2-2.3,0.1c-1.2,0.6-1.8,2.6-2.4,3.7C-134.3,429.9-132.9,430.3-132.5,429.5z"/>
			</g>
		</g>
		<g class="st0">
			<g>
				<path class="st1" d="M-62.9,373.6c-3-0.4-5.4-2-7.7-4.2c-2.3-2.1-4.7-4.6-7.5-6.3c-4.1-2.5-9.3-3.1-14.4-2
					c-4.6,0.9-10.1,3.3-13.7,6.6c-3.7,3.3-5.5,7.5-3.8,12.3c1.6,4.4,5.4,6,9.2,6c3.8-0.1,7.7-1.8,9.9-4.5c1-1.2,1.7-2.8,1.9-4.4
					c0.2-1.6-0.1-3.3-1.2-4.8c-1.6-2.2-4.8-3-7.1-1.1c-1.9,1.6-2.6,5.7,0.4,6.6c2.1,0.6,3.3-1.9,1.6-3.2c-0.7-0.5-1.5,0.5-0.8,0.9
					c1-2.4,2-3.6,3-3.8c1-0.1,1.9,0.8,2.8,2.9c0.4,2.4-0.1,4.4-1.5,6c-1.3,1.6-3.4,2.6-5.3,3.3c-4.2,1.4-9.4,1.3-11.5-3.8
					c-1.7-4.2-0.2-7.9,2.8-10.9c3-3,7.7-5.2,11.6-6.3c4.3-1.2,8.1-1.1,11.5-0.1c3.4,1,6.3,3,9.1,5.5c3.5,3.2,6.6,6,10.6,6.5
					C-62.4,374.9-62.2,373.7-62.9,373.6z"/>
			</g>
		</g>
		<g class="st0">
			<g>
				<path class="st1" d="M-103.3,395.2c-7.3,3.2-13-2.7-20.2-4c-2.5-0.5-5-0.5-7.3-0.2c-2.3,0.3-4.4,0.9-6.2,1.9
					c-3,1.6-4.9,4.9-5.4,8.7c-0.3,1.9-0.2,3.9,0.6,5.9c0.7,2,2.1,4,4.6,5.4c4.2,2.5,9.6,0.7,12.1-3.2c2-3.1,1.6-7.8-2.4-9.4
					c-1.5-0.6-3.3-0.4-4.5,0.5c-1.2,0.9-1.9,2.3-1.2,4.2c0.8,2.3,3.6,2.8,4.3,0.6c0.1-0.3,0-0.5-0.2-0.7l-0.9-0.9
					c-0.6-0.6-1.2,0.3-0.7,0.9c-0.1-2.8,0.2-4,1.1-3.8c0.9,0.2,2.5,1.9,4.5,5.1c-0.2,1.5-0.8,2.7-1.8,3.8c-1.2,1.4-2.9,2.4-4.8,2.7
					c-2.4,0.4-4.8-0.4-6.7-2c-1.8-1.6-3-4-3.3-6.7c-0.4-3.4,0.6-5.8,2.3-7.6c1.7-1.8,4.1-3.1,6.5-3.7c5.6-1.4,11.4-0.1,17.4,2.9
					c4.4,2.2,8.5,2.7,12.7,0.8C-102.1,396-102.6,394.9-103.3,395.2z"/>
			</g>
		</g>
		<g class="st0">
			<g>
				<path class="st1" d="M-140.3,422.4c-3.3,0.8-6.2-0.8-8.4-3c-1.1-1.2-2.1-2.4-3-3.7c-0.9-1.3-1.7-2.5-2.4-3.5
					c-0.5-0.6-0.9-1.2-1.4-1.8c-0.4-0.6-0.9-1.1-1.3-1.6c-0.4-0.5-0.7-1-1.1-1.3c-0.4-0.4-0.7-0.7-1.1-1c-1.3-0.8-3.5-0.9-6.1-0.4
					c-1.3,0.3-2.7,0.8-3.9,1.6c-1.2,0.8-2.4,2.1-3,4c-0.4,1.2-0.3,2.5,0.2,3.9c0.2,0.7,0.6,1.3,1.1,1.9c0.5,0.6,1,1.2,1.6,1.6
					c0.6,0.4,1.3,0.8,1.9,1.1c0.7,0.2,1.4,0.3,2.1,0.3c1.3,0,2.6-0.7,3.4-1.9c0.7-1.1,0.9-2.1,0.8-3c-0.1-0.9-0.5-1.5-1-1.9
					c-0.5-0.4-1.1-0.6-1.8-0.4c-0.7,0.2-1.4,0.7-1.9,1.8c-0.2,0.4,0,0.8,0.4,0.9c0.8,0.2,1.7,0.3,2.5,0.5c0.7,0.1,0.8-1.2,0.2-1.3
					c-1.2-0.2-1.9,0.5-2.5,1.4c-0.6,0.9-1.2,1.9-2.4,1.9c-0.6,0-1.1-0.2-1.5-0.6c-0.4-0.4-0.7-0.9-1-1.5c-0.5-1.1-0.6-2.5-0.6-3.2
					c0.1-2.3,1.4-3.7,2.9-4.7c0.7-0.5,1.6-0.8,2.3-1c0.8-0.3,1.6-0.4,2.3-0.5c0.5,0,1-0.1,1.4,0c0.4,0,0.8,0.2,1.2,0.3
					c0.4,0.1,0.7,0.3,1,0.5c0.3,0.2,0.6,0.4,0.9,0.7c0.3,0.3,0.6,0.6,0.9,0.9c0.3,0.3,0.6,0.7,0.9,1.1c0.7,0.8,1.4,1.7,2.1,2.6
					c0.4,0.6,0.8,1.2,1.3,1.8c0.4,0.6,0.9,1.3,1.3,1.9c0.9,1.4,1.9,2.6,3.1,3.8c2.3,2.3,5.4,3.9,9.2,3
					C-139,423.4-139.5,422.2-140.3,422.4z"/>
			</g>
		</g>
	</g>
</g>
</svg>
