<?xml version="1.0" encoding="utf-8"?>
<!-- Generator: Adobe Illustrator 19.0.0, SVG Export Plug-In . SVG Version: 6.00 Build 0)  -->
<svg version="1.1" id="Layer_1" xmlns="http://www.w3.org/2000/svg" xmlns:xlink="http://www.w3.org/1999/xlink" x="0px" y="0px"
	 viewBox="0 0 200 200" style="enable-background:new 0 0 200 200;" xml:space="preserve">
<style type="text/css">
	.st0{fill:#E1F2F3;}
</style>
<g id="XMLID_8561_">
	<g id="XMLID_8560_">
		<g id="XMLID_184_">
			<path id="XMLID_188_" class="st0" d="M107.7,70.3c-3.2-0.6-6.3-0.8-9.5-0.4c-3.1,0.4-4.6,1.5-6.9-0.9c-1.7-1.7-3-3.3-5.3-4.4
				c-4.3-2.1-9.4-1.7-12-6.5c-0.2-0.3-0.7-0.3-0.8,0.1c-0.7,3.6,0.6,6.6,2.9,9.5c1.7,2.1,4.3,3.9,5.5,6.3c1.1,2.2,0.5,2.4-0.9,4.1
				c-1.1,1.2-2.3,2.3-3.3,3.6c-0.9,1.1-2.4,5.1-3.5,5.6c-1.6,0.8-4.2-1.2-5.9-1.5c-5.7-1-10.6,2.9-16.2,2.8c-0.4,0-0.6,0.5-0.3,0.7
				c3.2,3.2,7.4,3.4,11.7,4.2c2.5,0.5,6.3,1.2,8.1,3.1c2.1,2.2,1.8,5.7,2.9,8.3c0.5,1.3,2.4,3.4,1.8,4.7c-0.2,0.5-3.4,2.5-4,3.3
				c-3.3,4.5-3.6,11.2-9.5,13.4c-0.4,0.1-0.4,0.7,0,0.8c4,1.3,7.5-0.1,10.9-2.3c2.3-1.5,5.4-4.6,8.3-4.8c2.3-0.1,4.4,2,6.4,2.9
				c1.9,0.8,3.9,1,5.9,1.5c2.6,0.7,1.5,0.4,2,2.6c1.3,6.2,5,10.9,4.7,17.5c0,0.4,0.5,0.6,0.7,0.3c2.1-2.4,3-5.1,3.1-8.3
				c0-1.6-0.6-3.5-0.4-5c0.9-1.9,1.7-3.8,2.6-5.7c1.1-0.3,2.1-0.4,3.2-0.4c1.1-0.1,2.2,0,3.4-0.1c1.8-0.3,3.3-1.8,4.9-1.3
				c1,0.3,4,3.3,5,4c3,2.1,5.8,4.2,6.7,8c0.1,0.4,0.7,0.4,0.8,0c1.3-3.6,1.2-7.5-0.9-10.8c-1.1-1.7-2.9-2.5-4.1-4
				c-3.4-4.2,0.2-8.2,2.4-11.9c1-1.7,1.4-3.1,1.9-4.9c0.7-2.6,0-1.6,2.5-2.8c5.7-2.7,11.8-11.8,18.7-7.9c0.4,0.2,0.9-0.3,0.5-0.7
				c-2.8-2.2-5.9-3.7-9.5-4c-1.8-0.1-3.4,0.1-5.1,0.5c-5,1.1-8.2-2-11.2-5.6c-1.4-1.7-5.3-4.7-4.6-7.2c0.4-1.5,2.5-3.1,3.1-4.8
				c1.2-3.4-1.4-12,1.6-14c0.4-0.3,0.2-0.9-0.3-0.8c-2.3,0.6-3,2.3-4.2,4.3C118.2,67,115.1,72.1,107.7,70.3
				c-0.5-0.1-0.7,0.7-0.2,0.8c8.2,2,11.3-3.6,15.1-9.8c0.5-0.8,2.1-3.4,2.1-3.5c0.1,0.2-0.6,2.4-0.7,2.8c-0.7,6.4,1.4,11.6-4.5,16.4
				c-0.2,0.2-0.1,0.4,0,0.6c2.1,2.6,4.2,5.1,6.3,7.7c1.4,1.6,2.8,4.3,4.9,5.2c3.8,1.8,8.6-1.1,12.7-0.4c2.1,0.4,3.2,1.1,5.3,1.9
				c0.4,0.2,2.6,0.3,0.8,0.1c-1.5-0.2-2.9-0.3-4.4,0.1c-6.3,1.8-9,8.8-16.2,9c-0.3,0-0.5,0.3-0.4,0.5c1.8,5.8-4.2,9.4-5.2,14.6
				c-0.7,3.8,1.5,5,3.9,7.4c2.4,2.3,4.2,6.2,3.3,9.6c-0.7,2.4-0.4,0.3-1.5-1.2c-2.9-4.1-8.1-5.8-11.2-9.8c-0.2-0.3-0.5-0.3-0.7,0
				c-3.6,5.1-14.3-0.6-14,8.2c0.1,2.3,0.7,4.5,0.5,6.8c0,0.2-0.5,5.2-1.6,5.3c-0.9,0-0.2-0.5-0.5-1.5c-0.4-1.8-0.7-3.5-1.4-5.3
				c-1.5-3.9-4.3-7.1-2.8-11.5c0.1-0.3-0.1-0.5-0.4-0.5c-3.5,0-6.8-0.6-9.9-2.2c-1.3-0.7-2.6-2.4-3.9-2.6c-4.1-0.6-8.4,4.2-11.5,6
				c-1.6,0.9-4,2.1-5.9,2c-3.5-0.3-1.2,0-0.6-0.9c0.5-0.9,1.7-1.6,2.3-2.5c3.3-4.6,3.7-11.8,10.1-13.4c0.2-0.1,0.4-0.4,0.3-0.6
				c-1.9-2.6-3.3-5.5-3.9-8.7c-0.2-1.2-0.1-2.6-0.7-3.7c-1.5-2.4-5.9-3.6-8.3-4.1c-1-0.2-12.4-2.2-11.2-3.6c0.2-0.2,3.4-0.7,4-0.9
				c1.3-0.4,2.6-1,4-1.4c4.3-1.2,8.3-0.6,11.9,2.1c0.2,0.1,0.5,0,0.6-0.2c2.2-5,5.5-9.1,9.8-12.5c0.2-0.1,0.1-0.4,0.1-0.5
				c-1.3-2.6-3.1-4.6-5.1-6.7c-1.8-1.9-4-4.1-4.6-6.8c-0.1-0.9-0.1-1.9-0.2-2.8c0.3,0.4,0.6,0.8,1,1.1c1.9,0.7,3.6,2.1,5.6,2.8
				c5,1.7,8.8,3.1,11.4,8.2c0.1,0.2,0.3,0.2,0.5,0.2c5-1.6,9.8-1.9,15-1C108,71.2,108.2,70.3,107.7,70.3L107.7,70.3z"/>
		</g>
	</g>
	<g id="XMLID_8536_">
		<g id="XMLID_178_">
			<path id="XMLID_182_" class="st0" d="M79.7,89.8c3.3-4.1,12.1-6.6,16.9-3c6.3,4.6,2.1,12.4,0.8,18.3c-0.1,0.3,0.1,0.5,0.4,0.5
				c1.3-0.1,2.7-0.2,4-0.2c0.2,0,0.4-0.2,0.4-0.4c0.1-5.8-1.6-16.6,5.5-19c5.7-1.9,12.3-1.1,16.5,3.4c0.4,0.4,1-0.2,0.6-0.6
				c-4.7-5.1-13.2-6.1-19.4-2.9c-2.4,1.2-3.4,3.2-3.7,5.8c-0.3,2.6-0.2,5.3-0.2,7.9c0,1.2,0.4,3.4-0.5,4.4c-0.7,0.9-1.8,1.4-2.4-0.1
				c-0.5-1.2,1.7-5.7,1.9-6.9c0.3-1.7,0.5-3.4,0.2-5c-0.4-2.4-1.6-4.5-3.7-5.8c-5.6-3.2-13.9-1.7-17.9,3.2
				C78.8,89.6,79.4,90.2,79.7,89.8L79.7,89.8z"/>
		</g>
	</g>
	<g id="XMLID_8529_">
		<g id="XMLID_172_">
			<path id="XMLID_176_" class="st0" d="M97.5,93.2c-1.7-3.4-5-5.7-8.9-5.5c-1.7,0.1-3.7,0.6-5.1,1.8c-0.5,0.4-0.7,0.8-1,1.3
				c-0.5,0.7-1.8,1.7-2,2.5c-1.1,3.1,4,3.7,6.1,4.2c4,0.9,8.1,0.6,11-2.5c0.4-0.4-0.2-1-0.6-0.6c-2.6,2.7-6.1,3.1-9.6,2.4
				c-1.3-0.3-2.6-0.7-3.9-1.1c-0.6-0.2-1.2-0.4-1.8-0.7c-0.4-1.1-0.2-1.9,0.7-2.5c3.3-6.3,11.7-4.5,14.5,1.1
				C97,94.1,97.8,93.7,97.5,93.2L97.5,93.2z"/>
		</g>
	</g>
	<g id="XMLID_6920_">
		<g id="XMLID_166_">
			<path id="XMLID_170_" class="st0" d="M106.7,93.7c1.6-2.9,4.5-4.8,7.8-4.8c2.2,0,8,2.1,8.2,4.7c0.2,1.8-6,2.6-7.3,2.7
				c-3.3,0.1-6.4-1-9-3c-0.4-0.3-1,0.3-0.6,0.6c5.3,4.2,12.6,4.3,18.1,0.3c0.2-0.2,0.3-0.5,0.1-0.7c-2.8-2.8-6.2-5.7-10.5-5.3
				c-3.3,0.3-6,2.3-7.6,5.2C105.7,93.8,106.5,94.2,106.7,93.7L106.7,93.7z"/>
		</g>
	</g>
	<g id="XMLID_6905_">
		<g id="XMLID_160_">
			<path id="XMLID_164_" class="st0" d="M111.9,89.3c-0.2,2.3,1.5,4.5,3.8,4.8c2.5,0.2,4.6-2.1,4.5-4.5c0-0.5-0.8-0.5-0.8,0
				c0,2-1.7,4-3.8,3.6c-1.8-0.3-3-2.1-2.8-3.9C112.8,88.8,112,88.8,111.9,89.3L111.9,89.3z"/>
		</g>
	</g>
	<g id="XMLID_16_">
		<g id="XMLID_154_">
			<path id="XMLID_158_" class="st0" d="M86,89.3c-0.1,0-0.1-0.1-0.2-0.1c-0.1-0.1-0.3-0.1-0.4,0c-1.2,0.6-0.7,2.1-0.1,3
				c0.7,1.2,2.1,2.1,3.5,2.3c3,0.3,5.2-2.7,4.7-5.5c-0.1-0.5-0.9-0.3-0.8,0.2c0.3,2-1,4.1-3,4.4c-1,0.1-2.1-0.2-2.9-0.9
				c-0.3-0.3-0.6-0.6-0.8-0.9c0.1,0.2-0.7-1.9-0.4-1.7C86,90.4,86.5,89.6,86,89.3L86,89.3z"/>
		</g>
	</g>
	<g id="XMLID_15_">
		<g id="XMLID_148_">
			<path id="XMLID_152_" class="st0" d="M104.2,112.8c-2.1,0-4.2,0-6.3,0c-1.1,0-2.4-0.1-3.3,0.5c-1.9,1.3-0.8,3.1,1,3.4
				c1.6,0.2,3.3,0.1,5,0.1c1.1,0,2.7,0.3,3.7-0.4c1.2-0.7,1.3-2.7-0.3-3c-0.5-0.1-0.8,0.8-0.2,0.9c0.3,1.3-0.1,1.8-1.3,1.8
				c-0.2,0-0.4,0-0.5,0c-0.7,0-1.5-0.1-2.2-0.1c-0.7,0-1.5-0.1-2.2-0.1c-0.3,0-2.1,0.1-2.3-0.1c0.1-0.7,0.1-1.4,0.2-2
				c0.5-0.1,1.1-0.2,1.6-0.1c0.8,0,1.6,0,2.4,0c1.6,0,3.2,0,4.8,0C104.8,113.6,104.8,112.8,104.2,112.8L104.2,112.8z"/>
		</g>
	</g>
	<g id="XMLID_14_">
		<g id="XMLID_142_">
			<path id="XMLID_146_" class="st0" d="M79.9,89c-0.7-1.8,4.1-5.5,5.7-5.8c1.7-0.4,3.5-0.6,5.3-0.6c3.6,0,6.8,1.1,9.7,3.2
				c0.1,0.1,0.3,0.1,0.4,0c3.5-1.8,7.1-2.9,11-3c1.1,0,2.2,0,3.3,0.1c-0.4,0,12.2,1.7,7.9,4.8c-0.4,0.3,0,1,0.4,0.7
				c2.5-1.9,0.4-3.9-1.7-4.9c-5.9-2.9-12.3-1.3-18.3,0.1c-4,0.9-5.7-0.9-9.6-1.6c-2.6-0.5-5.3-0.3-7.9,0.2c-3.6,0.7-8.9,2.4-7.1,7
				C79.3,89.8,80.1,89.6,79.9,89L79.9,89z"/>
		</g>
	</g>
	<g id="XMLID_13_">
		<g id="XMLID_136_">
			<path id="XMLID_140_" class="st0" d="M96.6,70.4c-6.1-9.7-17.9-11.8-26.9-17.8c-0.3-0.2-0.7,0.1-0.6,0.4
				c0.6,9.6,4.9,18.2,12.1,24.6c0.4,0.4,1-0.2,0.6-0.6c-3.5-3.1-6.4-6.6-8.5-10.8c-1.1-2.3-2-4.7-2.6-7.2c-0.7-3.2-1.8-5.7,2-3.5
				c8.2,4.6,17.9,6.9,23.2,15.3C96.2,71.3,96.9,70.9,96.6,70.4L96.6,70.4z"/>
		</g>
	</g>
	<g id="XMLID_6896_">
		<g id="XMLID_130_">
			<path id="XMLID_134_" class="st0" d="M74.8,85.3c-4.3-1.9-9-3.7-13.9-3c-5.3,0.8-10.1,3.9-15.4,5c-0.4,0.1-0.4,0.6-0.1,0.8
				c4.3,2.5,7.5,6.8,12.1,8.9c4.6,2.1,9.9,1.2,14.7,2.9c0.5,0.2,0.7-0.6,0.2-0.8c-4.1-1.4-8.3-1-12.4-2.1c-3.9-1.1-9-4.8-11.7-8
				c-0.4-0.5-1.2-0.5-1-1c0.2-0.4,2.3-0.7,2.7-0.8c2-0.6,3.8-1.3,5.7-2.1c6.8-2.8,12-1.9,18.7,1C74.8,86.2,75.2,85.5,74.8,85.3
				L74.8,85.3z"/>
		</g>
	</g>
	<g id="XMLID_11622_">
		<g id="XMLID_124_">
			<path id="XMLID_128_" class="st0" d="M75,106.1c-9.6,3.5-9.9,18-20.5,19.4c-0.4,0.1-0.6,0.5-0.2,0.8c4.2,3,8.9,6.2,14.3,5.5
				c2.7-0.4,5.2-1.7,7.5-3.1c1.2-0.7,10.1-6,9.9-7c-0.2-0.5-1-0.3-0.8,0.2c0.1,0.4,0.1,0.5,0.5,0.7c0.3,0.1,0.7-0.1,0.6-0.5
				c0-0.1,0-0.2-0.1-0.3c0-0.2-0.2-0.3-0.4-0.3c-3.2,0.1-7.5,4.7-10.2,6.4c-3.5,2.1-7.5,3.8-11.7,2.7c-1.2-0.3-8-2.7-8.1-4.3
				c0,0.6,6.6-4.5,7-5c4.1-5.1,5.6-11.9,12.3-14.3C75.7,106.7,75.5,105.9,75,106.1L75,106.1z"/>
		</g>
	</g>
	<g id="XMLID_11629_">
		<g id="XMLID_118_">
			<path id="XMLID_122_" class="st0" d="M91.6,124.1c-0.3,9.6,7.5,17.2,6.4,26.8c0,0.2,0.2,0.4,0.4,0.4c4.4-0.4,6.8-5.1,8.6-8.7
				c2.9-6,1.2-11.4,1.3-17.7c0-0.5-0.8-0.5-0.8,0c-0.1,4.6,1.4,9.2,0.2,13.8c-0.6,2.2-6.2,14.1-8.6,9.6c-0.4-0.8-0.4-3.3-0.6-4.4
				c-0.4-1.7-1.1-3.4-1.8-5c-2-4.9-4.3-9.3-4.2-14.8C92.5,123.5,91.7,123.5,91.6,124.1L91.6,124.1z"/>
		</g>
	</g>
	<g id="XMLID_11636_">
		<g id="XMLID_112_">
			<path id="XMLID_116_" class="st0" d="M114.5,124.8c5.7,6,13.9,9.9,16.8,18.2c0.1,0.3,0.6,0.4,0.8,0.1c2.3-4.5,3.9-9.5,3-14.6
				c-1.2-6.5-7.3-9.5-9.5-15.5c-0.2-0.5-1-0.3-0.8,0.2c1.3,3.6,3.5,5.7,5.9,8.5c2.4,2.8,3.8,6.1,3.8,9.8c0,1.1-1.1,9.8-2.6,9.6
				c-0.7-0.1-1.7-2.6-2.2-3.4c-1.1-1.5-2.4-2.9-3.8-4.2c-3.5-3.3-7.5-5.9-10.8-9.4C114.7,123.8,114.1,124.4,114.5,124.8L114.5,124.8
				z"/>
		</g>
	</g>
	<g id="XMLID_11643_">
		<g id="XMLID_106_">
			<path id="XMLID_110_" class="st0" d="M129.6,105c3.5-1.1,6.3-3.2,9.5-5c5.5-3.1,11.1-3.9,17.1-2c0.3,0.1,0.6-0.2,0.5-0.5
				c-1.6-4.8-4.8-8.8-9.5-10.8c-6.5-2.8-14-0.8-20.8-1.9c-0.5-0.1-0.8,0.7-0.2,0.8c4.7,0.8,9.5,0.2,14.2,0.5c4.1,0.3,8,1.5,11.1,4.4
				c1,0.9,2.1,2.1,2.7,3.3c0.2,0.4,0.5,0.8,0.7,1.3c0.4,1.5,0.1,1.9-0.9,1.4c-1.4,0.5-4.4-0.5-6-0.4c-2,0.2-4,0.6-5.8,1.4
				c-4.5,1.8-8.1,5.2-12.8,6.7C128.9,104.4,129.1,105.2,129.6,105L129.6,105z"/>
		</g>
	</g>
	<g id="XMLID_11650_">
		<g id="XMLID_94_">
			<path id="XMLID_98_" class="st0" d="M122.1,78.6c3.7-2.7,5.7-6.5,6.6-10.9c1-4.8-2.4-13.6,3.8-16.4c0.4-0.2,0.2-0.8-0.2-0.8
				c-4,0.3-9.2,1.2-12,4.3c-1.6,1.8-2.8,4.3-4.1,6.4c-1.4,2.2-2.8,4.1-4.9,5.8c-0.4,0.3-4.8,3.6-4.7,3.6c0.5,0.2,0.9-0.5,0.4-0.7
				c-0.1,0-0.1-0.1-0.2-0.1c-0.2-0.1-0.5-0.1-0.6,0.2c0,0.1-0.1,0.2-0.1,0.3c-0.1,0.2,0,0.5,0.3,0.6c2.2,0.5,6.9-4,8.2-5.5
				c2-2.3,3.2-5.2,5-7.7c2.4-3.5,5.9-4.8,9.9-5.8c2.5-0.6,1.1-0.4,0.1,1.4c-0.9,1.7-1.6,3.8-1.7,5.8c-0.1,2.5,0.6,4.9,0.3,7.4
				c-0.5,4.5-2.7,8.9-6.4,11.6C121.3,78.2,121.7,78.9,122.1,78.6L122.1,78.6z"/>
		</g>
	</g>
	<g id="XMLID_11657_">
		<g id="XMLID_100_">
			<path id="XMLID_104_" class="st0" d="M98.2,70.3c-0.2-2.8-0.3-5.6-0.3-8.4c0-1.4,0-2.8,0.1-4.2c0-1.1,0.1-2.1,0.2-3.2
				c0-1.8,0.5-2.1,1.4-1.1c1.9,0.9,2.8,5.9,3.3,7.8c0.8,2.9,1.5,5.8,1.9,8.8c0.1,0.5,0.9,0.3,0.8-0.2c-1.1-6.5-2.9-12.6-5.6-18.6
				c-0.1-0.2-0.4-0.3-0.6-0.2c-1.8,1.3-2.1,3.1-2.3,5.3c-0.3,4.6-0.1,9.3,0.1,13.9C97.4,70.8,98.2,70.8,98.2,70.3L98.2,70.3z"/>
		</g>
	</g>
	<g id="XMLID_11664_">
		<g id="XMLID_88_">
			<path id="XMLID_92_" class="st0" d="M78.9,79.3c-2.6-1.6-5.3-3-8-4.3c-1.5-0.7-3.1-1.7-4.7-0.8c-0.2,0.1-0.3,0.5-0.1,0.7
				c3.1,3.3,6.6,6.1,10.5,8.4c0.5,0.3,0.9-0.4,0.4-0.7c-3.8-2.3-7.3-5-10.3-8.3c0,0.2-0.1,0.4-0.1,0.7c1.7-1,5.2,1.4,6.8,2.2
				c1.8,0.9,3.5,1.9,5.2,2.9C78.9,80.3,79.4,79.5,78.9,79.3L78.9,79.3z"/>
		</g>
	</g>
	<g id="XMLID_11671_">
		<g id="XMLID_82_">
			<path id="XMLID_86_" class="st0" d="M73,101.2c-4.4,1.7-10.1,3.6-12.9,7.5c-0.1,0.1-0.1,0.4,0.1,0.5c1.4,1.1,3,0,4.5-0.6
				c3.1-1.1,6.1-2.2,9.2-3.3c0.5-0.2,0.3-1-0.2-0.8c-2.1,0.8-4.2,1.5-6.3,2.3c-1.1,0.4-2.2,0.8-3.4,1.2c-0.5,0.2-2.5,1.4-2.2,0
				c0.3-1.1,3.9-2.6,4.8-3c2.2-1.1,4.4-2.1,6.7-3C73.7,101.8,73.5,101,73,101.2L73,101.2z"/>
		</g>
	</g>
	<g id="XMLID_11678_">
		<g id="XMLID_76_">
			<path id="XMLID_80_" class="st0" d="M86.8,122.3c-1.5,4.7-3,9.4-4.5,14.1c-0.1,0.3,0.1,0.5,0.4,0.5c2.3,0.2,3.1-3.2,3.8-4.9
				c1.4-3.1,2.6-6.2,3.6-9.4c0.2-0.5-0.6-0.7-0.8-0.2c-0.7,2.2-1.5,4.4-2.4,6.6c-0.6,1.4-1.8,5.8-3.2,6.4c-0.5,0.4-0.5,0.1,0-0.8
				c0.2-0.7,0.4-1.3,0.6-2c0.3-1,0.6-2,1-3c0.7-2.4,1.5-4.7,2.2-7.1C87.8,122,87,121.8,86.8,122.3L86.8,122.3z"/>
		</g>
	</g>
	<g id="XMLID_11685_">
		<g id="XMLID_70_">
			<path id="XMLID_74_" class="st0" d="M109,125.1c1.2,4.7,3.1,9,5.8,13c0.2,0.3,0.7,0.3,0.8-0.1c0.7-4.7-0.5-9.2-1.7-13.7
				c-0.1-0.5-1-0.3-0.8,0.2c1.2,4.3,2.4,8.7,1.7,13.2c0.3,0,0.5-0.1,0.8-0.1c-2.7-3.9-4.6-8.2-5.8-12.8
				C109.7,124.3,108.8,124.5,109,125.1L109,125.1z"/>
		</g>
	</g>
	<g id="XMLID_11692_">
		<g id="XMLID_64_">
			<path id="XMLID_68_" class="st0" d="M126.9,111.5c3.8,2.1,8,3.3,12.3,3.6c0.2,0,0.4-0.1,0.4-0.3c0.3-1.8-0.6-3-2.1-4
				c-2.7-1.7-5.9-2.9-8.8-4.3c-0.5-0.2-0.9,0.5-0.4,0.7c1.6,0.8,10.9,4.4,10.1,6.3c0.1,0.8-0.2,1-0.9,0.6c-0.7-0.1-1.3-0.2-2-0.3
				c-0.8-0.2-1.7-0.4-2.5-0.6c-2-0.6-3.9-1.4-5.8-2.4C126.8,110.5,126.4,111.2,126.9,111.5L126.9,111.5z"/>
		</g>
	</g>
	<g id="XMLID_11699_">
		<g id="XMLID_58_">
			<path id="XMLID_62_" class="st0" d="M122.8,81.6c2.1-1.7,4.2-3.4,6.4-5c1.1-0.8,2.2-1.6,3.3-2.3c0.7-0.5,1.5-0.9,2.4-1.3
				c1.3,0,1.6,0.3,1,1.1c-0.3,1.9-3.2,4.3-4.5,5.5c-1.8,1.7-3.9,3-6.1,4.1c-0.5,0.2-0.1,1,0.4,0.7c3-1.6,5.8-3.6,8.1-6.1
				c1.5-1.6,3.7-3.8,3.2-6.2c0-0.2-0.2-0.3-0.4-0.3c-2.7,0.3-4.8,1.9-7,3.4c-2.5,1.8-5,3.8-7.4,5.7
				C121.8,81.3,122.4,81.9,122.8,81.6L122.8,81.6z"/>
		</g>
	</g>
	<g id="XMLID_11710_">
		<g id="XMLID_52_">
			<path id="XMLID_56_" class="st0" d="M117.4,75.4c1.9-1.8,3.3-4.1,4.1-6.6c0.1-0.4-0.6-0.7-0.8-0.3c-0.6,1.1-1.3,2.2-2.2,3
				c-0.8,0.7-2,1.2-2.5,2.1C115.3,74.5,116.2,75.8,117.4,75.4c0.4-0.3,0-1-0.5-0.8c-0.3-0.4-0.2-0.7,0.1-0.9
				c0.1-0.1,0.2-0.2,0.4-0.3c0.3-0.2,0.5-0.3,0.8-0.5c0.4-0.3,0.9-0.7,1.3-1.1c0.9-0.9,1.5-1.9,2.1-2.9c-0.3-0.1-0.5-0.2-0.8-0.3
				c-0.8,2.4-2.1,4.5-3.9,6.2C116.4,75.1,117,75.7,117.4,75.4L117.4,75.4z"/>
		</g>
	</g>
	<g id="XMLID_11717_">
		<g id="XMLID_46_">
			<path id="XMLID_50_" class="st0" d="M88.5,72c-1.7-2.9-4.4-4.9-7.6-5.7c-0.4-0.1-0.7,0.4-0.4,0.7c2.1,2,3.9,4.2,5.5,6.6
				c0.1,0.1,0.3,0.3,0.5,0.2c1-0.3,1.5-1,1.5-2.1c0-0.5-0.8-0.5-0.8,0c-0.3,0.4-0.6,0.8-0.9,1.3c0.2,0.1,0.3,0.1,0.5,0.2
				c-1.6-2.5-3.5-4.7-5.7-6.8c-0.1,0.2-0.3,0.5-0.4,0.7c3,0.8,5.5,2.6,7.1,5.3C88.1,72.8,88.8,72.4,88.5,72L88.5,72z"/>
		</g>
	</g>
	<g id="XMLID_11724_">
		<g id="XMLID_40_">
			<path id="XMLID_44_" class="st0" d="M72.3,91.1c-3.1-2.1-6.9-2.7-10.5-1.5c-0.5,0.1-0.4,0.8,0.1,0.8c3.4,0.1,6.5,1.1,9.3,2.9
				c0.2,0.2,0.5,0,0.6-0.3c0.3-0.8,0.2-1.2-0.1-1.9c-0.2-0.5-1-0.1-0.7,0.4c0,0.4,0,0.8,0.1,1.2c0.2-0.1,0.4-0.2,0.6-0.3
				c-2.9-1.9-6.2-2.9-9.7-3c0,0.3,0.1,0.6,0.1,0.8c3.4-1.1,6.9-0.5,9.8,1.5C72.4,92.1,72.8,91.4,72.3,91.1L72.3,91.1z"/>
		</g>
	</g>
	<g id="XMLID_11748_">
		<g id="XMLID_34_">
			<path id="XMLID_38_" class="st0" d="M78.4,113.7c-3.6,1.4-6.5,3.9-8.4,7.3c-0.2,0.4,0.3,0.9,0.7,0.5c1.2-1.3,2.6-2.4,4.1-3.2
				c1.5-0.8,3.1-0.9,4.6-1.5c2.1-0.8-0.5-2.8-1.3-3.6c-0.4-0.4-1,0.2-0.6,0.6c0.3,0.3,1,0.8,1.2,1.2c0.7,1.3-0.1,1-0.9,1.2
				c-0.9,0.2-1.8,0.5-2.6,0.9c-2,0.9-3.7,2.2-5.1,3.7c0.2,0.2,0.4,0.3,0.7,0.5c1.8-3.2,4.5-5.6,7.9-6.9
				C79.1,114.3,78.9,113.5,78.4,113.7L78.4,113.7z"/>
		</g>
	</g>
	<g id="XMLID_11755_">
		<g id="XMLID_28_">
			<path id="XMLID_32_" class="st0" d="M99.2,125.2c-0.3,2.7,0.5,5.2,2.3,7.2c0.3,0.3,0.8,0,0.7-0.4c-0.7-2.2-0.7-4.4,0.1-6.6
				c0.1-0.2-0.1-0.5-0.4-0.5c-1,0.1-1.9,0.1-2.9,0.2c-0.5,0-0.5,0.9,0,0.8c1-0.1,1.9-0.1,2.9-0.2c-0.1-0.2-0.3-0.4-0.4-0.5
				c-0.8,2.3-0.8,4.7-0.1,7.1c0.2-0.1,0.5-0.3,0.7-0.4c-1.6-1.9-2.3-4.2-2-6.6C100.1,124.6,99.2,124.6,99.2,125.2L99.2,125.2z"/>
		</g>
	</g>
	<g id="XMLID_11762_">
		<g id="XMLID_22_">
			<path id="XMLID_26_" class="st0" d="M118.8,119.9c1.8,2.8,4.3,4.8,7.4,5.9c0.5,0.2,0.7-0.5,0.3-0.8c-2.4-1.7-4.1-4.2-5-7
				c-0.1-0.3-0.4-0.4-0.6-0.3c-0.7,0.4-1.4,0.7-2.1,1.1c-0.5,0.3-0.1,1,0.4,0.7c0.7-0.4,1.4-0.7,2.1-1.1c-0.2-0.1-0.4-0.2-0.6-0.3
				c0.9,3.1,2.7,5.7,5.3,7.5c0.1-0.3,0.2-0.5,0.3-0.8c-2.9-1.1-5.2-3-6.9-5.5C119.2,119.1,118.5,119.5,118.8,119.9L118.8,119.9z"/>
		</g>
	</g>
	<g id="XMLID_11769_">
		<g id="XMLID_12_">
			<path id="XMLID_20_" class="st0" d="M129.9,97.8c3.5-0.7,6.6-2.6,8.9-5.3c0.3-0.3-0.1-0.9-0.5-0.7c-2.6,1.6-5.6,1.9-8.4,0.8
				c-0.2-0.1-0.5,0.2-0.5,0.4c0.1,1.4,0.3,2.7,0.6,4c0.1,0.5,0.9,0.3,0.8-0.2c-0.3-1.2-0.5-2.5-0.5-3.8c-0.2,0.1-0.4,0.3-0.5,0.4
				c3,1.2,6.3,0.9,9.1-0.9c-0.2-0.2-0.3-0.4-0.5-0.7c-2.2,2.6-5.1,4.4-8.5,5.1C129.1,97.1,129.3,97.9,129.9,97.8L129.9,97.8z"/>
		</g>
	</g>
</g>
</svg>
