<?xml version="1.0" encoding="utf-8"?>
<!-- Generator: Adobe Illustrator 19.0.0, SVG Export Plug-In . SVG Version: 6.00 Build 0)  -->
<svg version="1.1" id="Layer_1" xmlns="http://www.w3.org/2000/svg" xmlns:xlink="http://www.w3.org/1999/xlink" x="0px" y="0px"
	 viewBox="-205 297 200 200" style="enable-background:new -205 297 200 200;" xml:space="preserve">
<style type="text/css">
	.st0{fill:#E1F2F4;}
</style>
<g id="XMLID_200_">
	<g>
		<g>
			<path class="st0" d="M-87.1,361.9c-12.9-2-18.5-8.4-26.4-6.2c0.1,0.2,0.1,0.4,0.1,0.5c-0.2,1.1-0.3,2-0.2,2.8
				c0,0.4,0.2,0.8,0.3,1.1c0,0.1,0.1,0.1,0.2,0.1c0.1,0,0.2,0,0.3,0.1c0.1,0,0.2,0,0.3,0c0,0,0.1,0,0,0l0,0.1l-0.1,0.3l-0.3,1.1l0,0
				l0,0c-0.4,0.5,0.5-0.7,0.4-0.6l0,0l0,0l0,0l0,0l0.1,0.1l0.1,0.2c0.2,0.2,0.4,0.4,0.5,0.6c0.3,0.4,0.6,0.9,0.9,1.4
				c0.1,0.2-0.8,0.1-0.9-0.1c-0.3-0.5-0.7-1-1.2-1.4c0.2,0.5,0.1,1.1,0,1.9c-0.1,0.3-0.9,0.2-1-0.1c0-0.2-0.1-0.4-0.1-0.6l0,1.5
				c0,0.3-0.9,0.3-1,0c-0.4-2.2-1.4-3.9-2.6-6.1c-0.7,1.1-1.3,2.8-1.5,4.7c-0.3,1.9-0.3,4.1,0,6.2c0.1,0,0.2,0,0.3,0.1
				c0.8,0.6,1.4,1.2,2.2,1.8c0.7,0.5,1.5,1.1,2.2,1.6c1.5,1,2.9,2,4.4,2.9c2.9,1.8,5.7,3.5,8.5,5.3l0,0l0,0l0.1,0.1
				c0.4,0.2-0.2,0.9-0.6,0.7c-0.4-0.2-0.8-0.4-1.1-0.6c-0.4-0.2-0.7-0.4-1.1-0.5c-0.7-0.3-1.6-0.7-2.3-0.9c1.5,1,2.9,2.1,4.4,3.2
				c0.4,0.3-0.2,0.9-0.6,0.7c-0.8-0.4-1.7-0.7-2.6-1.1c1,0.7,1.9,1.4,2.8,2.1c0.4,0.3-0.1,1-0.6,0.8c-4.1-2.1-8.2-3.8-12.8-5.5
				c1.2,2.5,2.7,4.9,4.3,7.3c1.6,2.4,3.6,4.6,5.5,6.9c0.2,0,0.3,0.1,0.4,0.3c0,0.1,0.1,0.1,0.1,0.2c3.2,3.5,6.6,6.8,10.2,10.1
				c2.5,2.3,5.3,4.8,8,7.7c0.1,0,0.1,0,0.2,0c3.3,0.1,6.7,0.9,10.3,2.6c3.6,1.7,7.4,4.4,11,9.1c0.7,0.9,0.5,2.3-0.2,1.5
				c-0.4-0.4-0.7-0.8-1.1-1.1c-0.4-0.4-0.8-0.6-1.1-1c-0.7-0.6-1.5-1.2-2.2-1.7c2.6,2.4,5.2,5.8,7.1,10.4l0,0l0,0l0.1,0.3
				c0.5,1.3-0.2,2-0.7,1.1c-0.4-0.7-0.8-1.4-1.2-2c0.6,1.1,1.2,2.4,1.7,3.7l0.4,1c0.1,0.1,0.1,0.4,0.2,0.6l0.2,0.7
				c0.2,0.9,0.4,1.9,0.6,2.9c0.3,1.5-0.4,2.8-0.7,1.6c-0.4-1.6-0.9-3.1-1.5-4.5c-0.3-0.8-0.6-1.2-0.9-1.8c-0.3-0.5-0.6-1-0.9-1.5
				c-0.3-0.5-0.6-1-0.9-1.4c-0.3-0.4-0.7-0.9-1-1.3c-0.7-0.8-1.3-1.7-2.1-2.4c-1.4-1.4-2.9-2.6-4.3-3.6c-1.5-1-2.9-1.8-4.4-2.4
				l1.2,2c0,0,0.1,0,0.1,0.1c0.4,0.4,0.6,1,0.7,1.5c0.3,0.5,0.5,1,0.8,1.6l0.7,1.7c0.5,1.1,0.8,2.4,1.2,3.6c0.4,1.2,0.6,2.5,0.9,3.8
				l0.1,0.5l0.1,0.6l0.1,1.2c0.1,0.8,0.1,1.6,0.2,2.5c0.1,0,0.1,0.1,0.2,0.2c0.5,0.5,1.1,1.1,1.6,1.6l0.4,0.4l0.1,0.1l0,0l0,0l0,0
				c-0.1,1.8,0,0.5,0,0.9l0,0l0,0.1l0.2,0.4c0.2,0.6,0.4,1.1,0.6,1.7c0.4,1.2,0.6,2.4,0.8,3.7c0.2,1.3,0.3,2.6,0.3,3.9
				c0.1,5.4-1.1,11.2-3.8,16.7c-0.5,1.1-1.8,1.6-1.5,0.6c0.4-1.2,0.8-2.4,1-3.6c0.3-1.2,0.5-2.3,0.7-3.5c-1,3.4-2.5,6.7-4.7,9.8
				c-0.5,0.8-1.4,1.1-1.5,0.8c-0.7,1-1.4,2-2.3,2.9c-0.9,1-1.7,0.6-1.2-0.2c2.4-3.6,4.1-7.4,5.3-11.3c1.1-3.8,1.6-7.8,1.4-11.5
				c-1.3,3.3-3.1,6.2-5.2,8.9c-2.1,2.6-4.4,4.9-7,6.8c-2.6,2-5.3,3.6-8.3,4.9c-2.9,1.3-6.2,2.2-9.2,2.8c-0.1,0-0.3,0.1-0.4,0.1
				c-6.4,1.1-12.7,0.6-18.4-0.7c-5.7-1.3-11-3.6-15.7-6.4c-0.7-0.4-0.5-1.2,0.3-0.9c7.2,2.5,14.8,4.2,22.8,4.2c4,0,8.1-0.5,12-1.7
				c2-0.6,4-1.4,5.9-2.3c1.9-1,3.6-2,5.3-3.2c4.9-3.7,8.9-8.6,11.1-14.6c0.5-1.5,1-3,1.3-4.6c0.1-0.8,0.3-1.6,0.3-2.4l0.1-1.2l0-0.6
				l0-0.3l0-0.1l0-0.4l0,0l0-0.1l-0.1-1.7c0-0.2-0.1-0.7-0.1-1.1l-0.2-1.3c-0.1-0.4-0.1-0.9-0.2-1.2l-0.3-1.1
				c-0.2-0.7-0.4-1.5-0.6-2.1c-0.9-2.8-2.3-5.3-3.8-7.5c-1.5-2.2-3.1-4.2-4.9-6.1c-3.4-3.7-7.1-6.7-10.6-9.7
				c1.1,5.2,3.7,11.9,6.2,17.4c1.2,2.8,2.4,5.3,3.6,7.6c0.3,0.6,0.7,1.1,1,1.7c0.3,0.6,0.7,1.1,1.1,1.7c0.3,0.5,0.8,1.1,1.2,1.7
				c0.4,0.6,0.8,1.2,1.3,1.7c0.3,0.5-0.1,1.2-0.6,1c-0.4-0.2-0.8-0.4-1.1-0.6l-0.6-0.3l-0.1-0.1l0,0l0,0l0,0l0,0c0-0.1,0,0.1,0,0.1
				l0,0l0,0l-0.1,0l-0.3-0.1c-0.8-0.3-1.6-0.6-2.5-0.8c-1.7-0.4-2.1-0.8-3.5,0.8l-0.1,0.1l0,0l0,0c0,0.4,0-0.5,0-0.4l0,0l0,0l0,0
				l0,0l-0.1,0.1c-0.1,0-0.1,0.1-0.2,0.1c-0.1,0.1-0.2,0.1-0.3,0.2c-0.2,0.1-0.3,0.2-0.3,0.3c-0.1,0.2-0.1,0.4,0.1,0.9
				c0.2,1.1,0.7,2.4,1,3.9c0.4,1.5,0.7,3.2,0.9,4.9c0.1,0.6-0.9,0.7-1,0.1c-0.1-0.6-0.2-1.2-0.3-1.8c-0.2-0.6-0.3-1.2-0.6-1.7
				c-0.5-1.1-1.2-2-2.1-2.8c-1.2-1-2.6-1.5-3.7-1.8c-0.3-0.1-0.5-0.1-0.8-0.2c-0.3-0.1-0.5-0.1-0.7-0.1c-0.4,0-0.9-0.1-1.2,0
				c-1,0.2-1.7,0.6-2.3,1.3c-0.6,0.7-1,1.7-1.7,2.9c-0.2,0.4-0.6-0.4-0.5-0.7c0.7-1.5,1.1-2.6,1.7-3.4c0.6-0.8,1.1-1.4,1.7-1.8
				c0.6-0.4,1.1-0.5,1.9-0.7c0.2-0.1,0.3-0.1,0.6-0.2l0,0l0,0l0,0c-0.1,1.7,0,0.5,0,0.9l0,0l0-0.1l0.1-0.3l0.1-0.5l0.3-1.1l0-0.1
				l0-0.1l0,0l0,0c0,0,0.1,0,0.1,0.1c0.1,0,0.2,0.1,0.3,0.1c0,0,0.1,0,0.1,0l0.1-0.1l0.1-0.2l0.3-0.4c1.3-2.3,1.8-7,1.9-12.1
				c0.2-5.8-0.4-12.1-2.8-18c-0.1-0.2,0-0.4,0.1-0.5c-7-6-13.7-12.5-19-20.3c-2.3-3.3-4.2-6.8-5.6-10.5c-0.3,4.4-1.1,8.6-1.7,13.1
				c-0.8,6.6,0.1,13.7,2.7,20.5c1.9,5,4.5,9.8,7.6,14c1.5,2,2.8,3.8,4.2,5.4c1.3,1.6,2.5,3,3.7,4.2c-1-1.6-2-3.5-2.3-5.7
				c-0.7-4.1,2.3-4.6,5.4-5.1c-0.7-0.2-1.4-0.4-2.1-0.6c-0.7-0.3-1.4-0.6-2.1-1c-0.7-0.4-1.6-0.9-2.5-1.6c-0.9-0.7-1.8-1.6-2.1-2.4
				c-1.4-3.3,3.6-4.3,6.8-4.8c-5.4-2.3-10.4-6.2-14-11.6c-0.4-0.6-0.8-1.3-1.2-1.9c-0.4-0.7-0.8-1.4-1.1-2.1
				c-0.7-1.4-1.3-2.9-1.7-4.4c-0.8-3-0.9-6,0.1-8.5c0.3-0.6,1.2-0.1,1,0.5c-0.5,1.3-0.7,2.7-0.7,4.1c0,0.7,0.1,1.5,0.2,2.3
				c0.1,0.8,0.4,1.5,0.6,2.3c0.9,3.1,2.7,6,4.4,8.3c3.9,5.3,9.1,8.9,14.7,10.8c0.5,0.2,0.6,1,0.1,1c-1.7,0.1-3.4,0.4-5,1
				c-0.6,0.2-1.3,0.5-1.9,0.8c-1.4,1.3-1.4,2.4,0,3.3c2.3,2.9,6.7,3.6,9.5,3.8c0.5,0,0.7,0.8,0.2,1c-1.4,0.4-2.7,0.5-4.1,0.7
				c-3.5,0.6-4.1,3.6-2.9,6.3c1.6,3.6,3.7,6,4.7,7.4c0.1,0.2-0.7,0.5-0.9,0.4c-0.9-0.6-2-1.7-3.3-3.1c-1.3-1.4-2.9-3.2-4.6-5.2
				c-1.7-2.1-3.5-4.4-5.5-7.4c-1.9-2.9-3.6-5.9-5-9.1c-2.8-6.4-4.4-13.3-4.3-19.9c0-1.7,0.2-3.4,0.4-5c0.2-1.6,0.5-3.3,0.7-4.9
				c0.6-3.3,1-6.4,1-9.8c-1.7-5.2-2.4-10.8-1.7-16.5c0.4-2.8,1.1-5.6,2.5-8.2c0.3-0.6,0.7-1.3,1.2-1.9l0.2-0.2l0.1-0.1l0-0.1
				l0.1-0.1l0.3-0.4l0.6-0.8c1.1-1.2,2.2-2.2,3.4-3c-0.6-0.1-1.2-0.2-1.8-0.2c-0.1,0.1-0.2,0.1-0.3,0.2c-0.4,0.2-0.7,0.1-0.7-0.2
				c-0.7,0-1.4,0-2.1,0.2c-0.4,0.1-0.8,0.1-1.1,0.2l-0.6,0.1c-0.2,0-0.3,0-0.5,0.1l-0.9,0.1l-0.5,0.1l-0.2,0l-0.1,0l0,0l0,0l0,0
				c0-0.1-0.4,0.5-0.2,0.3l0,0l0,0l-0.1,0.1c-0.7,0.3-1.5,0.6-2.2,1c-0.1,0.2-0.2,0.3-0.3,0.5c-0.4,0.6-0.9,0.6-1,0.2
				c-2.6,1.6-5,3.8-6.9,6.6c0,0,0,0,0,0l0,0c-1.3,1.9-2.4,4-3.2,6.2c-0.3,0.8-0.6,1.7-0.8,2.6c0.1,0.4,0,1-0.3,1.2
				c-0.3,1.3-0.4,2.7-0.5,4.1c0,1.4,0.1,2.8,0.4,4.1c0.2,1.2,0.7,2.2,1.2,3.2c0.5,1,1.1,1.8,1.8,2.4c1.4,1.2,2.9,1.5,4.4,0.4
				c0.3-0.2,0.6-0.5,0.8-0.8c0.7-1.3,1.2-3.1,1.2-4.9c0-0.9,0-1.8-0.1-2.6c-0.1-0.9-0.3-1.7-0.4-2.6c-1-2.9-1.9-4.4-2.5-4.3
				c-0.7,0.1-1.2,1.8-1.4,5.2c0.4,0.1,0.5,0.8,0.3,1.2c-1,2.4-2.9,0.9-3.8-1.9c-0.4-1.4-0.5-3.1-0.2-4.7c0.4-1.6,1.2-3,2.6-3.7
				c1.8-0.9,3.1-0.4,4,0.8c1,1.1,1.5,2.9,2.1,4.8c0.8,3.9,1.2,8.5,0.2,11.4c-0.5,1.5-1.4,2.7-2.4,3.5c-1.1,1-2.5,1.4-4.3,0.9
				c-0.4-0.1-0.8-0.3-1.2-0.4c-0.2,0.3-0.6,0-0.8-0.4c-0.8-0.5-1.5-1.1-2.1-1.9c-0.6-0.8-1.1-1.7-1.6-2.8c-0.2-0.1-0.3-0.4-0.3-0.8
				c-0.4-0.9-0.6-1.9-0.8-3c-0.2-1.1-0.4-2.2-0.4-3.3c0-1.1,0-2.3,0.1-3.5c0.1-1.2,0.2-2.4,0.4-3.6c0.9-4.9,3.1-9.8,5.6-13.3
				c1.3-1.8,2.8-3.4,4.4-4.7c0.4-0.3,0.8-0.7,1.2-1l0.6-0.5l0.3-0.2l0.1-0.1l0,0l0,0c-0.1,0.1,0.8-1,0.4-0.5l0,0l0,0l0.1,0l0.9-0.3
				l0.4-0.1l0.2-0.1l0.1,0l0.2-0.1c1-0.6,2-1.1,3-1.5c0.9-0.3,1.7-0.5,2.5-0.6c1.7-0.3,3.3-0.4,4.8-0.3c2.6,0.2,5,0.8,7.2,1.5
				c2.3,0.7,4.4,1.4,6.6,2c1.7-0.1,3.3,0,5,0.2c0.8,0.2,1.6,0.3,2.4,0.5l0.6,0.2c0.3,0.1,0.4,0.1,0.6,0.2c0.4,0.1,0.7,0.2,1.1,0.4
				c-0.1-0.5-0.2-0.9-0.3-1.3c-0.4-0.5-0.6-1-0.4-1.8c0-0.1,0.1-0.1,0.1-0.2l0-0.4l0-0.2l0-0.1l0,0l0,0l0,0l0,0l-0.1,0l0,0l0,0l0,0
				l-0.2-0.8c-0.2-0.2-0.4-0.3-0.5-0.5c-0.3-0.3-0.1-0.6,0.3-0.7l-0.3-1.2c-0.4-0.2-0.7-0.5-1-0.7c-0.5-0.4,0.1-0.8,0.7-0.7
				l-0.2-0.6l0,0c-0.4-0.2-0.4-0.5-0.2-0.7c-0.2-0.5-0.4-1.1-0.6-1.6c-0.1,0-0.2-0.1-0.3-0.1c-0.7-0.3-0.6-0.8-0.1-0.9l0-0.1
				c-0.2-0.5-0.5-0.9-0.8-1.4c-0.2,0-0.4,0-0.5,0c-1.1-0.1-1.1-0.9-0.2-1c-0.4-0.5-0.8-1-1.4-1.5c-0.2-0.1-0.3-0.2-0.4-0.3
				c0,0,0-0.1,0-0.1c-0.5-0.4-1.1-0.9-1.8-1.3c-0.3-0.1-0.4-0.1-0.5-0.3c-0.6-0.3-1.3-0.6-2.1-0.9c-2.3-0.8-5.4-1.1-8.6-0.6l-0.3,0
				c-0.5,0.4-1.3,0.5-1.7,0.4c-0.6,0.2-1.3,0.4-1.9,0.6c-0.6,0.2-1.3,0.5-1.9,0.8c-0.3,0.5-1.4,1-1.9,0.9c-0.6,0.3-1.1,0.6-1.5,0.9
				c0.1,0.3-0.7,0.9-1.3,1.2c-0.8,1-0.1,1.5,1.8,1.6c0,0,0.1-0.1,0.1-0.1c1.5-1.3,2.7-1.4,3.1-1.1c2.2-0.1,2,1.3,0.8,2.9
				c-1.2,1.6-3.4,3.6-5.9,5.1c-0.8,0.5-1.6,0.9-2.3,1.3c-0.5,0.5-1.3,1-1.5,0.8c-0.4,0.2-0.7,0.3-1.1,0.5c-0.2,0.1-0.3,0.1-0.5,0.2
				c-0.2,0.1-0.3,0.1-0.4,0.1c-0.4-0.1-0.8-0.2-1.2-0.4c-0.2,0.3-0.8,0.5-0.9,0c-0.1-0.2-0.1-0.5-0.1-0.7c-0.4-0.4-0.8-0.8-1.2-1.3
				c-0.3,0.1-0.7-0.1-0.6-0.5c0-0.1,0-0.1,0-0.2c0-0.1,0-0.1,0.1-0.3c0.1-1.2,0.5-2.6,1.3-4.1c-0.1,0.1-0.1,0.1-0.2,0.2
				c-1.4,1.6-2.7,1.7-1.3,0c1.2-1.5,2.1-2.2,3.1-3c0.5-0.8,1.2-1.5,1.9-2.2c2-2,4.5-3.6,7.2-4.8c2.6-1.2,5.5-2,8.2-2.3
				c5.5-0.7,10.8,0.3,14.9,1.9c0.5,0,1.1,0.2,1.1,0.5c2,0.9,3.6,1.9,4.9,2.9l0.7,0.6l0.2,0.1l0.1,0.1l0,0l0,0
				c0.2,0.1-0.5-0.1,0.5,0.1l0,0l0,0l0,0l0.2,0.3c0.2,0.4,0.4,0.7,0.6,1.1l0.3,0.6l0.6,0.7c0.4,0.4,0.7,0.9,1.1,1.3
				c0.2,0.2,0.3,0.4,0.5,0.7c0.1,0.2,0.2,0.4,0.3,0.7c0.2,0.4,0.4,0.9,0.5,1.3c0.3,0.9,0.5,1.7,0.7,2.6c0.4,2.3,0.3,4.5,0.3,6.7
				c0,2.2,0.2,4.4,0.7,6.7c0.5,0.4,1,0.9,1.5,1.3c0.1,0.1,0.2,0.2,0.2,0.3c0.5,0,0.8,0.8,0.3,1c-2,0.6-1.4,2-0.4,3.3
				c1,1.3,2.6,2.8,3,3.3c0.7,0.8,1,1.5,1.3,2.5C-86.4,361.7-86.8,362-87.1,361.9z M-101.6,326.2c-0.3,0.7-1,1.4-2.2,1.7
				c-0.2,0.1-0.5,0.1-0.8,0.2c0.3,0.4,0.7,0.8,0.9,1.2c1.5-0.1,2.9-0.4,3.7-1.1c0.2-0.2,0.5-0.2,0.8-0.2l-0.2-0.2
				C-100.1,327.3-100.9,326.7-101.6,326.2z M-113.5,323.4c0.5-0.1,0.9-0.3,1.1-0.6c0.2-0.3,0.1-0.5,0.3-0.7
				c-0.9-0.2-1.8-0.2-2.7-0.3c0.1,0.4-0.1,0.9-0.6,1.3C-114.7,323.2-114.1,323.3-113.5,323.4z M-111.5,323.9
				c1.2,0.3,2.2,0.8,3.1,1.2c1.3-0.2,1.6-0.9,1.7-1.6c-1-0.3-2-0.7-3.1-0.9c-0.1,0.1-0.2,0.1-0.4,0.2c0,0.1-0.1,0.1-0.1,0.2
				c-0.1,0.2-0.3,0.4-0.6,0.6C-111.1,323.7-111.3,323.8-111.5,323.9z M-107.1,325.9c0.6,0.4,1.1,0.8,1.5,1.2c0.4,0.1,1-0.3,1.2-0.4
				c0.5-0.3,0.8-0.7,0.9-1.1c0-0.2,0.3-0.3,0.6-0.3c-0.6-0.4-1.3-0.7-1.9-1C-105.2,325-105.9,325.6-107.1,325.9z M-120,322l-0.5,0.1
				c0.4,0.3,0.6,0.7,0.4,1.2c0.9-0.1,1.7-0.2,2.6-0.2c0.6-0.4,0.8-0.8,0.2-1.1c-0.1-0.1-0.2-0.1-0.2-0.2
				C-118.3,321.8-119.1,321.9-120,322z M-134.6,328.3c1.5-0.6,2.8-0.8,3.8-0.7c0.6-0.5,1.3-0.9,2-1.4c-0.5-0.4-1.3-0.6-2.5-0.6
				C-132.5,326.4-133.6,327.3-134.6,328.3z M-138.1,333.8c1.3-1.2,2.8-2.3,4.2-2.8c0.3-0.5,0.7-1.1,1.2-1.6c0.1-0.1,0.2-0.2,0.3-0.2
				c-1-0.1-2.5,0.4-3.9,1.3c-0.3,0.5-0.6,0.9-0.9,1.4C-137.6,332.4-137.9,333.1-138.1,333.8z M-138.3,337.5c0.6-0.8,1.3-1.6,2-2.2
				c0.6-0.5,1.3-1,1.9-1.4c-0.1-0.4-0.2-0.9,0-1.5c-0.7,0.3-1.4,0.8-2.1,1.3c-0.3,0.3-0.6,0.5-1,0.9c-0.4,0.4-0.7,0.8-1.1,1.3
				C-138.6,336.5-138.5,337.1-138.3,337.5z M-135,338.1c0.1-0.3,0.2-0.6,0.3-0.8c0.1-0.2,0.2-0.5,0.3-0.8c0.2-0.5,0.6-1.1,1-1.6
				c-0.2-0.1-0.3-0.1-0.5-0.2c-0.2,0.2-0.4,0.4-0.6,0.5c-0.3,0.2-0.5,0.3-0.8,0.5c-0.1,0.1-0.2,0.2-0.4,0.3l-0.2,0.2l-0.2,0.2
				c-0.6,0.6-1,1.2-1.4,1.8c0.2,0.1,0.4,0.1,0.6,0.1C-136.2,338.3-135.6,338.2-135,338.1z M-130.6,336.1c-0.4-0.3-0.5-0.9-0.2-1.6
				c-0.4,0.2-0.8,0.3-1.2,0.4c-0.8,1-1.2,2-1.2,2.7C-132.3,337.3-131.5,336.7-130.6,336.1z M-127,332.1c-0.3,0.2-0.6,0.5-1.1,0.8
				c-0.3,0.2-0.6,0.4-0.9,0.6c0.1,0.1,0.1,0.2,0,0.3c-0.2,0.4-0.3,0.8,0,1C-127.1,333.7-126.5,332.9-127,332.1z M-122.2,323.6
				c0.1-0.5-0.3-1-1.3-0.9c-0.1,0-0.2,0-0.3,0c-1.6,0.4-3.2,0.9-4.7,1.6c0.9,0.1,1.5,0.4,1.9,0.8c0.7-0.3,1.5-0.6,2.2-0.9
				C-123.7,324-122.9,323.8-122.2,323.6z M-103.1,330.3c0.3,0.6,0.6,1.2,0.9,1.8c0.5,0.1,1.1,0.2,1.6,0.3c0.3,0,0.5,0,0.8,0l0,0
				l0.4,0.1l0,0l0,0l0,0l0,0l0.1,0l0.1,0l0.2,0c0.3-0.1,0.6-0.2,0.9-0.4c0.1-0.1,0.3-0.2,0.4-0.3c0.1-0.1,0.3-0.2,0.4-0.3
				c0.1,0,0.1-0.1,0.2-0.1c-0.1-0.2-0.3-0.4-0.4-0.6l-0.2-0.6c-0.2-0.4-0.3-0.7-0.5-1.1c-0.1,0.1-0.2,0.2-0.3,0.3l-0.2,0.1l0,0l0,0
				l0,0l0,0c-0.2,0,0.4,0.1-0.4-0.1l0,0l0,0l0,0l-0.1,0.1c-0.3,0.2-0.7,0.3-1.1,0.4C-101.2,330.1-102.1,330.2-103.1,330.3z
				 M-101.8,333.2c0.2,0.5,0.3,1,0.4,1.4c0.2,0.1,0.5,0.2,0.8,0.3l0.1,0l0,0l0.3,0.1l0,0l0,0l0.1,0.1c0.1,0,0.2,0.1,0.3,0.1
				c0.4,0.1,0.7,0.2,1.1,0.2c1.1,0.1,2.2-0.1,2.8-0.6c0.1-0.1,0.2-0.1,0.3-0.1c-0.1-0.7-0.5-1.4-0.8-2c-0.7,0.4-2,0.5-2.5,0.7
				c-0.2,0-0.3,0.1-0.5,0.1l-0.3,0l-0.1,0l-0.1,0h0h0l-0.3-0.1l0,0l0,0l-0.1,0C-100.7,333.4-101.3,333.3-101.8,333.2z M-101.1,335.9
				l0.2,0.8l0,0l0,0l0,0l0,0l0,0c0.5,0.1,0.1,0,0.2,0.1l0,0l0.1,0l0.1,0.1l0.3,0.2c0.2,0.1,0.4,0.2,0.6,0.3c0.3,0.2,1,0.4,1.6,0.6
				c0.3,0.1,0.6,0.2,0.9,0.2c0.3,0.1,0.5,0.1,0.8,0.2c0.5,0.1,1.1,0.1,1.6,0.1c-0.1-0.8-0.2-1.7-0.4-2.5c-0.4,0.2-0.8,0.3-1.3,0.4
				c-0.5,0.1-1.1,0.1-1.7,0c-0.3,0-0.6-0.1-0.8-0.1c-0.2,0-0.4,0-0.6-0.1c-0.2,0-0.4-0.1-0.6-0.1l-0.1,0l-0.1,0l0,0l0,0l0,0l0,0
				l-0.3-0.1C-100.8,336-101,335.9-101.1,335.9z M-100.6,338l0.1,1.3c0.5,0.6,1.7,1.2,2.8,1.5c1,0.4,2.2,0.7,3.2,0.9
				c-0.1-0.7-0.1-1.4-0.2-2.1c-1-0.1-2.1-0.2-3.1-0.5c-0.6-0.1-1.1-0.3-1.7-0.5C-99.9,338.4-100.3,338.3-100.6,338z M-100.4,340.7
				c0.1,0.7,0.2,1.4,0.3,2.1c0.7,0.5,1.8,0.9,3,1.1c1.2,0.3,2.3,0.4,2.8,0.5l0,0c0-0.5-0.1-1.1-0.1-1.6c-1-0.3-2.1-0.6-3.1-0.9
				c-0.5-0.2-1-0.4-1.5-0.6C-99.5,341.2-100.1,340.9-100.4,340.7z M-99.6,345c2.1,0.9,4.1,2.1,6,3.5c-0.2-1-0.4-2-0.5-3
				c-1.4-0.1-3.9-0.6-5.7-1.4C-99.8,344.4-99.7,344.7-99.6,345z M-120.2,341.8c0-0.1,0.1-0.1,0.2-0.2c-0.9-0.2-1.9-0.3-2.8-0.4
				c0,0.1,0.1,0.1,0.1,0.2c0,0.7-0.3,1.4-0.8,2c-0.4,0.7-1,1.3-1.7,1.9c0.5,0,1,0,1.5,0.1C-122.2,344.4-120.9,343.3-120.2,341.8z
				 M-127.1,345.4c0.1-0.1,0.2-0.1,0.3-0.2c1.5-0.9,2.5-2.2,2.6-3.5c0-0.3,0.2-0.5,0.5-0.6c-0.7,0-1.4-0.1-2.1-0.1
				c-0.1,0.7-0.3,1.4-0.6,2.2c-0.2,0.4-0.3,0.8-0.5,1.1c-0.2,0.4-0.4,0.7-0.7,1.2C-127.5,345.5-127.3,345.4-127.1,345.4z
				 M-128.8,341.3c0.1,0.7,0,1.4-0.4,2.3c-0.2,0.5-0.5,1-0.7,1.4c-0.2,0.2-0.3,0.5-0.4,0.7c-0.1,0.2-0.2,0.3-0.3,0.5l0.7-0.1
				c0.2,0,0.6-0.2,0.8-0.2c0.3-0.5,0.6-0.9,0.9-1.4c0.3-0.5,0.4-0.8,0.6-1.2c0.3-0.8,0.5-1.6,0.4-2.2
				C-127.8,341.1-128.3,341.2-128.8,341.3z M-134,347.5c0.2-0.5,0.4-0.9,0.6-1.4l0-0.2l0,0l0,0c0.1-0.2-0.3,0.4,0.3-0.4l0,0l0,0l0,0
				l0,0l0-0.1c0-0.1,0-0.2,0-0.2c0-0.2,0-0.3-0.1-0.4c-0.2-0.6-0.6-1-1.2-1.3c-0.2-0.1-0.3-0.2-0.3-0.4c-0.4,0.1-0.8,0.2-1.1,0.2
				l0.1,0.1l0,0l0,0l0,0l-0.4,0.5l0,0l0,0l0,0l0,0.1c0.1,0.1,0.1,0.2,0.2,0.3c0.1,0.2,0.2,0.5,0.3,0.8c0.1,0.6,0.1,1.2-0.1,2
				c-0.1,0.4-0.3,0.9-0.5,1.3C-135.3,348.2-134.6,347.8-134,347.5z M-138.4,350.4c0.1-0.3,0.2-0.6,0.5-0.7c0.8-0.5,1.3-1.7,1.2-2.6
				c0-1-0.5-1.6-1-2.1c0,0,0-0.1-0.1-0.2c-0.9,0.6-1.7,1.3-2.5,2.1c1.3,0.2,1.8,1.7,1.7,3.6L-138.4,350.4z M-139.7,351.6
				c0.1-1.7-0.4-2.9-1.6-2.8c-0.2,0-0.3-0.2-0.3-0.4c-0.4,0.5-0.8,0.9-1.2,1.4c0.7,0.5,1.2,1.3,1.5,2.4c0.1,0.3,0.1,0.6,0.1,1
				C-140.7,352.6-140.2,352.1-139.7,351.6z M-144.5,358.2c0-0.2,0-0.4,0.1-0.6c0.4-1.1-1.9-1-2.2-1c0,0-0.1,0-0.1,0
				c-0.4,0.8-0.7,1.7-1,2.5c0.9-0.5,1.8-0.2,2.4,0.6C-145,359.2-144.8,358.7-144.5,358.2z M-143.4,356.2c0.4-0.6,0.8-1.2,1.2-1.7
				c0.1-0.6-0.2-1.4-0.4-1.7c-0.2-0.6-0.6-1-1-1.2c-0.1-0.1-0.2-0.2-0.2-0.3c-0.8,1.1-1.5,2.3-2.1,3.5
				C-144.9,354.8-143.7,355.1-143.4,356.2z M-132.4,346.7L-132.4,346.7l0.3-0.4l0,0l0,0l0,0l0,0l0,0l0.1-0.1
				c0.1-0.1,0.1-0.1,0.2-0.2c0.1-0.1,0.2-0.3,0.3-0.4c0.1-0.2,0.2-0.3,0.2-0.5c0.1-0.3,0.3-0.5,0.4-0.8c0.5-1,0.7-2,0.4-2.6
				c0,0,0-0.1,0-0.2c-0.7,0.2-1.5,0.5-2.3,0.9c0.6,0.4,0.7,1.1,0.7,2c0.1,0.3,0.1,0.6,0.1,1c0,0.2,0,0.3-0.1,0.5l-0.1,0.3l0,0.1l0,0
				l0,0l0,0l0,0c-0.1,0.1,0.3-0.3-0.3,0.3l0,0l0,0l-0.1,0.2L-132.4,346.7z M-149.1,368.8c0.4-0.7,1.1-0.9,1.6-0.5
				c0.1-1,0.2-1.9,0.4-2.9c-0.2-0.1-0.3-0.1-0.5-0.1c-0.2,0-0.4,0-0.5,0.1c-0.1,0.1-0.2,0.1-0.3,0.2c0,0,0,0,0,0
				c0.3,0.6-0.2,1.7-0.7,1.2c0,0,0,0-0.1-0.1C-149.1,367.4-149.1,368.1-149.1,368.8z M-147,375.1c-0.3,0-0.5,0.3-0.7,0.7
				c0.4,0.8,0.8,1.6,1.3,2.3c0.1-0.2,0.1-0.4,0.2-0.6C-146.4,376.8-146.7,376-147,375.1z M-143.2,364.7c0.3-0.5,0.6-0.9,1-1.1
				c-1-0.2-1.7,0.6-1.8,2.3c-0.5,1.5-0.3,2.6,0.4,3.4C-144,367.9-144,366.1-143.2,364.7z M-137.3,366.1c-0.6-2.1-1.5-3.1-2.8-2.7
				C-139,363.8-138,364.9-137.3,366.1z M-145.4,378.9C-145.4,378.9-145.4,378.9-145.4,378.9c0,0,0,0.1,0,0.1c0,0,0,0,0,0
				c0.2,0.2,0.2,0.4,0.2,0.6c0.2,0.2,0.4,0.4,0.6,0.5C-144.9,379.7-145.2,379.3-145.4,378.9z M-147.6,370c-0.5-0.6-1.2-0.1-1,1.1
				c0,0.4,0,0.6-0.2,0.7c0.2,0.8,0.3,1.7,0.6,2.5c0.3-0.4,0.6-0.7,0.9-0.7C-147.4,372.4-147.5,371.2-147.6,370z M-145.9,361.3
				c-0.5-0.7-1.1-0.9-1.8-0.4c-0.2,0.2-0.4,0.1-0.5-0.1c-0.3,1.2-0.6,2.3-0.7,3.5c0.1-0.2,0.2-0.3,0.4-0.4c0.6-0.4,1.3-0.4,1.8-0.1
				C-146.4,362.9-146.2,362.1-145.9,361.3z M-121.2,346.2c2.4-1.5,5.1-2.5,7.8-2.9c-1.8-0.5-3.6-1-5.5-1.4c0,0.1,0,0.1-0.1,0.2
				c-0.8,1.3-1.9,2.6-3.3,3.5c0.2,0,0.5,0.1,0.7,0.1C-121.3,345.8-121.2,346-121.2,346.2z M-99.8,421.6c0.4,3.5,0.5,6.9,0.3,10.1
				c-0.2,3.2-0.7,6.1-1.3,8.3c-0.1,0.5-0.4,1-0.5,1.4c-0.1,0.2-0.2,0.4-0.3,0.6l-0.2,0.3l-0.1,0.1c0,0-0.1,0-0.1,0
				c-0.3,0.1-0.5-0.5-0.8,0.9l-0.2,0.7l-0.1,0.4l0,0.2l0,0c0.1-1.6,0-0.5,0-0.8l0,0l0,0l0,0l0,0l-0.4,0.2c-1,0.4-1.8,0.8-2.6,1.6
				c0.5,0,1,0,1.7,0.1c1.3,0.2,2.7,0.6,4,1.2c1.3,0.6,2.7,1.6,3.6,2.9c-0.1-0.6-0.4-1.3-0.5-1.8c-0.2-0.6-0.3-1.1-0.5-1.6
				c-0.1-0.2-0.1-0.5-0.2-0.7c0-0.2-0.1-0.4-0.1-0.6c0-0.4,0-0.7,0.2-1l0,0l0,0l0,0l0,0l0,0l0,0c0-0.5,0,0.7,0,0.5l0-0.2
				c0-0.1,0.1-0.2,0.1-0.4c0.1-0.2,0.2-0.4,0.3-0.6c0.2-0.4,0.5-0.6,0.8-0.9c0.3-0.3,0.6-0.2,1-0.3c0.4,0,0.8-0.1,1.2-0.1
				c0.9,0,1.8,0.1,2.7,0.3c0.9,0.3,1.8,0.7,2.6,1c-0.3-0.4-0.5-0.9-0.8-1.3c-0.3-0.4-0.5-0.8-0.8-1.1c-0.2-0.3-0.5-0.8-0.7-1.1
				c-0.2-0.4-0.4-0.8-0.7-1.2c-0.8-1.6-1.7-3.2-2.5-5.1C-96.3,430.3-98.2,426-99.8,421.6z M-98.8,474.3L-98.8,474.3L-98.8,474.3
				C-98.8,474.3-98.8,474.3-98.8,474.3z M-124.9,477.7L-124.9,477.7L-124.9,477.7C-125,477.5-124.9,477.6-124.9,477.7z
				 M-124.8,477.2C-124.8,477.2-124.9,477.3-124.8,477.2L-124.8,477.2L-124.8,477.2z M-126.5,477c0.1-0.2,0.3-0.4,0.6-0.4
				c-2.9-0.5-5.7-1.1-8.4-1.9c2.7,1.3,5.5,2.4,8.5,3.2C-126.3,477.7-126.6,477.3-126.5,477z M-72.9,444.2l0,0.7l0,0.1l0,0.8l0,0.1
				l0,0.3l-0.1,0.6c-0.1,0.9-0.2,1.7-0.3,2.5c-0.2,0.8-0.3,1.7-0.5,2.5c-0.2,0.8-0.5,1.6-0.7,2.4c0.1,0,0.2,0.1,0.3,0.4
				c0.4,3.6,0.1,7.4-0.7,11.2c0.2-0.9,0.4-1.9,0.5-2.8c0.2-1,1.3-2,1.3-1c0,1.3-0.1,2.5-0.3,3.8c0.8-2.7,1.2-5.3,1.2-7.9
				c0-0.9,1-2.2,1.2-1.4l0,0.2l0,0l0,0c0.2,1.1,0.3,2.4,0.4,3.6c0,1.2,0,2.5-0.1,3.8c0.8-3.7,1.1-7.4,0.7-10.8
				c-0.2-1.7-0.5-3.4-1-4.9c-0.2-0.8-0.5-1.5-0.8-2.2l-0.1-0.3L-72,446l0-0.1l0,0l0,0c0,0.2,0.1-1.6,0-0.8l0,0l0,0l-0.3-0.3
				L-72.9,444.2z M-86.3,414c1.1,1.2,2.2,2.4,3.2,3.7c0.3,0.1,0.7,0.5,0.6,0.8c0.8,1.1,1.7,2.2,2.5,3.4c0.1,0,0.2,0,0.3,0
				c4.5,1.7,9.4,4.7,13.5,10.5c-2.4-4.4-5.5-7.1-8.6-8.9c-0.7-0.4-0.8-1.7-0.1-1.5c1.1,0.5,2.3,1,3.4,1.8c1.1,0.8,2.3,1.6,3.4,2.7
				c-2.8-3.7-5.9-6-8.9-7.3c-0.7-0.3-0.9-1.6-0.2-1.4c0.9,0.2,1.9,0.6,2.9,0.9c0.5,0.2,1,0.4,1.5,0.6c0.5,0.2,1,0.5,1.5,0.8
				C-76.6,416-81.6,414.5-86.3,414z M-119.1,371c0,0.6,0.2,1.2,0.3,1.8c0.1,0.6,0.2,1.2,0.4,1.8c0.3,0.8,0.5,1.6,0.7,2.3l0.9,2.3
				c3.3,1.2,6.2,2.4,9.1,3.6c-0.5-0.3-1-0.7-1.5-1c-0.4-0.3,0-1,0.5-0.8c0.8,0.3,1.8,0.6,2.6,0.9c-0.4-0.3-0.8-0.6-1.2-0.8
				c-0.4-0.3-0.8-0.5-1.2-0.8c-0.8-0.5-1.7-1-2.5-1.5c-0.5-0.2,0.1-0.9,0.5-0.7c1.1,0.3,2,0.6,3,1C-111.1,376.7-115,374.2-119.1,371
				z M-114,355.9c-0.4,0.1-0.7,0.3-1,0.4l-0.6,0.4l-0.3,0.2c-0.1,0.1-0.2,0.2-0.2,0.2c0,0-0.1,0-0.1,0c0,0,0,0-0.1,0.1l-0.3,0.3
				l-0.5,0.6l-0.1,0.2l0,0c-0.1,0.1,0.5-0.7,0.3-0.4l0,0l0,0l0,0l0,0l0,0l0,0l-0.1,0.1c0.9,1.7,1.7,2.9,2.3,4.2
				c0-0.4,0.1-0.7,0.1-1.1c0-0.2,0.7-0.1,0.9,0.2l0.1,0.1c-0.1-0.2-0.2-0.5-0.3-0.8c-0.1-0.2,0.5,0,0.8,0.3c0.3,0.3,0.5,0.5,0.8,0.7
				c-0.2-0.4-0.5-0.7-0.7-1.1l0-0.1l0,0l0,0l0,0l0,0c-0.2,0.2,0.4-0.5-0.4,0.5l0,0l0,0l0.1-0.4l0.2-0.8c0-0.1,0.1-0.3,0.1-0.4
				c-0.1,0-0.1,0-0.2,0c-0.1,0-0.2-0.1-0.3-0.1l-0.2-0.1c0,0,0-0.1-0.1-0.2l-0.1-0.4c-0.1-0.3-0.1-0.6-0.1-0.9c0-0.3,0-0.6,0-1
				C-114.1,356.6-114.1,356.3-114,355.9z M-88.9,359.2c-1.4-1.9-3.6-2.7-3.6-5.4c0-1,0.2-1.7,0.9-2.2c-0.4-0.4-0.8-0.7-1.2-1.1
				c-0.2,0-0.5-0.1-0.5-0.4l0,0c-1.9-1.6-4.1-3-6.4-4.1c-0.3,0.1-0.8,0.1-0.9-0.3l0-0.1c-2.1-0.9-4.3-1.4-6.6-1.7
				c0.1,0.2,0.1,0.3,0,0.5c0.1,0.3-0.2,0.7-0.7,0.6c-0.9-0.2-1.8-0.5-2.7-0.5c-0.5,0-1.1,0.1-1.4,0.5c-0.2,0.3-0.1,1,0.5,0.9
				c0.7-0.1,0.8,0.9,0.1,1c-1.3,0.3-2.3-1.2-1.6-2.3c0.2-0.2,0.4-0.4,0.6-0.6c-4,0.5-7.9,2.1-11,4.9c-0.8,0.7-1.5,1.5-2.1,2.2
				c-0.7,0.8-1.2,1.7-1.7,2.6c-1,1.8-1.6,3.8-2,5.7c-0.6,3-0.7,6-0.5,8.9c0,0.7,0.1,1.5,0.2,2.2l0.3,2.2l0.5,2.1
				c0.2,0.7,0.3,1.4,0.6,2.1c0.2,0.1,0.4,0.2,0.4,0.6l0,0.7c2.3,6.8,6.1,12.8,10.6,18.1c4.5,5.3,9.6,10.1,15,14.5
				c0.2,0,0.3,0.2,0.4,0.3c3.1,2.5,6.4,5.2,9.5,8.2c0.1-0.2,0.3-0.3,0.6-0.1c0.7,0.3,0.8-0.6,0.2-0.8c-0.7-0.3-0.5-1.3,0.2-1
				c0.8,0.3,1.5,1.4,1.3,2.2c-0.1,0.6-0.6,0.9-1.2,0.9c1.2,1.2,2.3,2.4,3.4,3.7c0.6,0.7,1.2,1.5,1.7,2.2c0.1-0.1,0.2-0.2,0.5-0.2
				c0.6,0.2,0.5-0.7,0-1c-0.7-0.4-0.3-1.5,0.3-1c0.7,0.5,1.3,1.5,1.2,2.3c-0.1,0.7-0.6,1-1.2,1c0.4,0.6,0.9,1.3,1.3,1.9
				c0.2-0.1,0.5,0.1,0.7,0.4c0.4,0.6,0.9,0.1,0.5-0.5c-0.5-0.7,0.1-1.5,0.7-0.8c0.6,0.9,0.8,2.2,0.2,2.7c-0.3,0.2-0.6,0.3-0.9,0.2
				c0.4,0.9,0.9,1.8,1.3,2.8c0.4,1,0.8,2,1,3c0,0,0.1,0.1,0.1,0.1c0.7,0.9,1.5-0.4,0.7-1.4c-0.5-0.7,0-1.7,0.6-1
				c0.8,1,0.9,2.6,0.4,3.6c-0.3,0.6-0.9,0.8-1.4,0.6c0.1,0.3,0.1,0.7,0.2,1.1l0.2,1.1c0.1,0.7,0.2,1.7,0.2,2l0.1,1.5l0,0.2l0,0.1
				l0,0.6l0,0.5l-0.1,1.1c0.2,0.1,0.3,0.4,0.3,0.8c0,0.1,0,0.1,0,0.1c0,0,0,0,0,0c0,0.1,0.1,0.1,0.1,0.1c0.1,0.1,0.2,0.1,0.3,0
				c0.4-0.3,0.6-1.4,0.7-2.1c0-0.1,0.1-0.3,0.1-0.4c0-0.1,0-0.1,0.1-0.1l0-0.1l0,0l0,0l0,0l0-0.5l0,0l0,0l0,0l0,0
				c0.1-0.1,0.2-0.1,0.3-0.1c0.1,0,0.2,0,0.3,0.1l0,0l0,0l0,0.6l0,0l0,0l0,0l0,0l0,0l0,0.1c0,0,0,0.1,0,0.1c0,0.1,0,0.2,0,0.4
				c-0.1,0.8-0.3,1.6-0.6,2.3c-0.3,0.7-0.7,1.2-1.2,1.3c-0.3,0.1-0.6,0-0.8-0.3c-0.2,1.2-0.5,2.3-0.8,3.5c-0.4,1.1-0.7,2.3-1.3,3.3
				c0.2,0.2,0.3,0.6,0,1.1c0.1-0.1,0,0,0.1,0.1c0,0.1,0.1,0.1,0.1,0.1c0.1,0,0.3,0,0.4-0.1c0.3-0.2,0.6-0.6,0.7-1
				c0.2-1,1.2-1.4,1.1-0.4c-0.2,1.3-1.3,2.8-2.3,2.9c-0.5,0.1-0.9-0.2-1.1-0.6l-0.8,1.4l-0.9,1.3c0.3,0,0.6,0.3,0.3,0.8
				c-0.4,0.8,0.4,0.9,0.8,0.1c0.5-0.9,1.5-0.7,1,0.2c-0.5,1.1-1.8,1.9-2.5,1.7c-0.5-0.2-0.7-0.8-0.6-1.4c-2.9,3.9-6.6,7.1-10.8,9.5
				l-1.8,1c0,0,0,0,0.1,0c0.3,0,0.4,0.2,0.4,0.3c0.8-0.5,1.5,0.2,0.7,0.7c-0.8,0.6-2.4,1.1-2.7,0.4c-0.1-0.2,0-0.5,0.1-0.7
				c-0.6,0.3-1.2,0.5-1.8,0.8c0.4,0.1,0.6,0.6,0,0.9c-0.5,0.2,0,0.5,0.4,0.2c0.3-0.3,0.9-0.3,1.1-0.2c0.3,0.1,0.2,0.5-0.1,0.7
				c-0.8,0.7-2.3,0.9-2.9,0.4c-0.5-0.4-0.3-1,0.3-1.6c-4,1.4-8.2,2-12.3,2.2c0.4,0.2,0.4,0.7-0.2,0.9c-0.3,0.1-0.3,0.4,0.1,0.4
				c1-0.1,1.4,0.8,0.4,0.9c-1,0.1-2-0.3-2.2-0.9c-0.2-0.5,0.3-1,1-1.3c-2.9,0-5.7-0.1-8.4-0.5c0.4,0.2,0.4,0.6,0.1,0.8
				c0.2,0.3,0,0.6-0.5,0.6l2.3,0.5l2.4,0.4c-0.4-0.2-0.7-0.5-0.7-0.8c-0.1-0.5,0.5-0.8,1.2-0.9c0.8-0.1,1.2,0.7,0.6,0.9
				c0.3,0.1,0.5,0.3,0.5,0.5c0,0.2-0.2,0.3-0.5,0.4c4,0.5,8.2,0.6,12.5,0c-0.1-0.4-0.1-0.7,0.3-1.1c0.6-0.5,1.4-0.7,2.2-0.5
				c0.4,0.1,0.4,0.4,0.2,0.7c-0.3,0.3-0.8,0.4-1.1,0.3c0.2,0,0,0,0,0.2c0,0.1,0,0.2,0.1,0.3c0.8-0.2,1.6-0.3,2.5-0.5
				c0.8-0.2,1.7-0.5,2.5-0.7c1.7-0.6,3.3-1.2,4.9-2c-0.3,0-0.6,0-0.8-0.1c-0.7-0.4-0.3-1.3,0.5-1.9c0.8-0.6,1.7,0,0.8,0.6
				c-0.3,0.2,0,0.3,0.2,0.1c0.7-0.7,1.8-0.4,1.2,0.3c5.2-2.9,9.8-6.9,13.4-12.1c-0.6,0.5-1.2,0.8-1.7,0.7c-0.7-0.2-0.7-1.3-0.2-2.3
				c0.4-1,1.5-0.9,1,0.1c-0.4,0.8,0.3,0.8,0.8,0.1c0.2-0.4,0.7-0.6,0.9-0.5c0.2,0.1,0.2,0.3,0.1,0.6l0.7-1.2
				c-0.2,0.2-0.5,0.3-0.7,0.3c-0.7,0.1-1-0.7-0.8-1.6c0.2-1,1.4-1.5,1.2-0.4c-0.1,0.5,0.3,0.5,0.5,0c0.3-0.8,0.9-1,1.1-0.7
				c1.3-2.9,2.3-6.1,2.8-9.4c-0.3,0.6-0.8,1-1.2,0.9c-0.7-0.2-1.2-1.5-1-3c0-0.1,0-0.3,0.1-0.4c0-0.1,0-0.1,0.1-0.1l0-0.1l0,0l0,0
				l0,0l0,0l0-0.6l0,0l0,0l0,0c0.1-0.1,0.2-0.1,0.3-0.1s0.2,0,0.3,0.1l0,0l0,0l0,0l0,0l0,0.7l0,0l0,0l0,0l0,0.1c0,0,0,0.1,0,0.2
				c0,0.1,0,0.2,0,0.4c-0.1,1.2,0.7,1.3,0.8,0.1c0-0.2,0.1-0.3,0.1-0.5c0-0.1,0.1-0.1,0.1-0.2l0,0l0,0l0,0l0-0.7l0,0l0,0l0,0l0,0
				l0,0l0,0c0.1-0.1,0.3-0.1,0.4-0.1l0-0.7c0-0.8,0-1.1-0.1-2.8c-0.1-1.4-0.3-2.9-0.5-3.9c-0.2,0.3-0.5,0.4-0.7,0.4
				c-0.8,0-1.6-1.2-1.9-2.5c-0.3-1,0.6-1.3,0.9-0.2c0.3,1.3,1.2,1.1,1.1-0.2c0-0.1,0-0.2,0-0.3c-0.3-1.1-0.7-2.2-1.1-3.3
				c-0.4-1-0.8-2.1-1.3-3c-0.6,0.3-1.5-0.4-2.2-1.1c-0.7-0.7-0.3-1.7,0.4-1.1c0.3,0.2,0.7,0.7,1,0.7c0.1,0,0.1,0,0.1,0
				c-1.5-2.8-3.1-5.3-4.8-7.5c-0.3,0.4-0.6,0.7-1.1,0.7c-0.7-0.1-1.5-0.6-1.7-1.4c-0.1-0.8,0.9-0.8,1.1,0c0,0,0,0,0,0.1l0,0
				c0.1,0,0.1,0.1,0.2,0.1c0.1,0,0.2,0,0.3-0.1c0.1-0.1,0.2-0.3,0.3-0.4c-1.3-1.6-2.6-3.1-4-4.5c0.6,0.9,0.6,1.8,0.2,2.4
				c-0.4,0.6-1.2,0.8-2.1,0.4c-0.7-0.3-0.5-1.3,0.2-1c1,0.4,1.4-0.5,0.8-1.4c-0.4-0.6,0.2-0.9,0.7-0.6c-0.9-1-1.8-1.8-2.7-2.7
				c0.4,0.4,0.6,1,0.5,1.4c-0.1,0.3-0.2,0.6-0.5,0.7c-0.4,0.2-0.9-0.2-1.3-0.5c-0.7-0.4-0.2-1.3,0.5-0.9l0.3,0.2
				c0-0.1,0-0.2-0.1-0.3c-0.7-0.3-0.5-1.3,0.2-1c0.2,0.1,0.3,0.2,0.4,0.3c-1.7-1.7-3.4-3.2-5-4.7c0.1,0.3,0,0.5-0.1,0.8
				c-0.4,0.7-1.6,0.5-2-0.2c-0.3-0.6,0.6-1,0.9-0.4c0.2,0.3,0.4,0,0.1-0.1c-0.6-0.2-0.4-0.9,0-1c-2.8-2.6-5.6-5.3-8.1-8.1l-0.8-0.9
				c-0.1,0.2-0.3,0.5-0.6,0.6c-0.7,0.4-1.6,0.1-2-0.6c-0.4-0.6,0.4-1.1,0.8-0.6c0.4,0.6,1.2,0.3,1-0.4c-2.6-2.9-5-5.9-7.1-9.1
				c0.2,1.6-1.6,2.7-2.9,1.5c-0.5-0.5,0.2-1.1,0.7-0.7c0.5,0.5,1.3,0.1,1.2-0.6c-0.1-0.4,0.4-0.7,0.7-0.5c-1.3-1.9-2.3-3.9-3.2-5.8
				l-0.1-0.1c-0.3-0.1-0.3-0.4-0.2-0.6c-1.8-4.3-2.9-8.8-2.8-13.3c0.1-2.2,0.4-4.2,1.1-5.9c0.3-0.8,0.7-1.5,1.1-2.1
				c0.1-0.2,0.2-0.3,0.3-0.4l0-0.1l0,0l0,0c-0.5,0.6-0.1,0.2-0.2,0.3l0,0l0,0l0-0.1l0.2-0.2l0.4-0.4l0.4-0.4
				c0.1-0.1,0.1-0.1,0.1-0.1c0.1,0,0.1-0.1,0.2-0.2c1.3-1.2,3.4-1.8,5.5-2c1.1-0.1,2.2,0,3.2,0.1c0.3,0,0.5,0.1,0.8,0.1
				c0.3,0,0.5,0.1,0.8,0.2c0.3,0.1,0.5,0.1,0.7,0.2l0.4,0.1l0.2,0l0,0c0.3,0.1-0.3-0.1-0.3-0.1l0,0l0,0l0,0l0.1,0l0.2,0.1l0.8,0.2
				l0.4,0.1l0.2,0.1c0.2,0.1,0.4,0.1,0.8,0.3c0.6,0.2,1.3,0.5,2,0.8c1.4,0.5,2.8,1.1,4.4,1.7c0.8,0.3,1.7,0.6,2.5,0.9
				c0-0.8,0-2.3-0.5-2.6c-0.7-0.4-1.8,0.6-2.4,0.9c-0.3,0.2-0.6,0-0.6-0.3c0-0.4,0-2.7-0.4-2.9c-1-0.6-1.5,0.7-2.2,1
				c-0.3,0.1-0.5,0.3-0.8,0.2c-0.5-0.1-0.7-0.5-0.9-1c0,0,0-0.3,0-0.7c0-0.3-0.1-0.7-0.1-0.7c-0.5-0.4-1.1,1-1.4,1.4
				c-0.1,0.1-0.2,0.2-0.2,0.2c-0.1,0-0.3-0.1-0.4-0.2c-0.2-0.2-0.3-0.5-0.1-0.7l0.5-0.5c0.2-0.2,0.4-0.4,0.5-0.5
				c0.3-0.4,0.5-0.7,0.8-1.1c0.2-0.2,0.4-0.2,0.6,0c0.5,0.7,0.4,1.9,1,2.3c1,0.7,1.3-1.1,2.5-1.1c1.3,0.1,1.5,2.2,1.5,3.5
				c0.8-0.5,1.7-1.1,2.6-1.3c0.2,0,0.4,0.1,0.5,0.3c0.6,1.2,0.5,2.9,0.5,4.1l0,0c0.5,0.1,0.9,0.3,1.4,0.4c0.6,0.2,1.3,0.3,1.9,0.5
				C-87.5,361-87.7,360.7-88.9,359.2z"/>
			<path class="st0" d="M-97.3,350c-0.5-0.7-1.1-1.4-1.8-2.1c-0.5-0.5-1.3,0.1-0.8,0.6c0.6,0.6,1.2,1.3,1.7,2
				C-97.7,351-96.8,350.5-97.3,350z"/>
			<path class="st0" d="M-110.9,349.8c-0.5,0.2-0.8-0.4-0.6-0.9c0.3-0.6,1.1-0.5,1.6-0.3c0.5,0.3,1-0.6,0.4-0.9
				c-1.2-0.6-2.9-0.2-3,1.3c-0.1,0.6,0.2,1.1,0.6,1.5c0.4,0.3,0.9,0.5,1.4,0.2C-110,350.5-110.3,349.6-110.9,349.8z"/>
			<path class="st0" d="M-108.3,351c-0.7-0.3-1.6,0.4-1.6,1.2c0,1,0.6,1.8,1.3,1.8c0.4,0,0.5-1,0-1c-0.3,0-0.6-0.3-0.5-0.7
				c0.1-0.3,0.4-0.5,0.6-0.4C-108,352.2-107.8,351.2-108.3,351z"/>
			<path class="st0" d="M-116.8,348.8c-0.5,0.1-0.9,0.4-1.1,0.8c-0.2,0.4-0.3,0.9-0.2,1.3c0.2,0.5,0.5,0.8,0.9,1
				c0.4,0.2,0.8,0.3,1.2,0.2c0.5-0.1,0.3-1.1-0.2-0.9c-0.4,0.1-0.9,0-1-0.5c-0.1-0.4,0.2-0.8,0.6-0.9
				C-116,349.6-116.2,348.7-116.8,348.8z"/>
			<path class="st0" d="M-117.2,347.8c-0.4,0.1-0.8,0.2-1.1-0.1c-0.1-0.1-0.1-0.5,0.2-0.5c0.6,0.2,1.1-0.7,0.4-1
				c-1.1-0.3-2.1,0.8-1.7,1.7c0.2,0.5,0.7,0.7,1.1,0.8c0.5,0.1,1,0,1.5-0.2C-116.2,348.5-116.5,347.6-117.2,347.8z"/>
			<path class="st0" d="M-112.9,352.3c-0.2,0.3-0.6,0.3-0.8,0c-0.2-0.3-0.1-0.8,0.2-1c0.5-0.3,0-1.1-0.5-0.8
				c-0.8,0.4-0.8,1.7-0.2,2.4c0.3,0.4,0.7,0.6,1,0.6c0.3,0,0.7-0.1,0.9-0.4C-112,352.6-112.5,351.9-112.9,352.3z"/>
			<path class="st0" d="M-116.7,354.9c0.1,0.2-0.2,0.2-0.3,0.2c-0.2,0-0.4-0.1-0.5-0.3c-0.3-0.3-0.3-0.9,0-1
				c0.4-0.2,0.1-1.1-0.4-0.9c-0.5,0.2-0.7,0.7-0.7,1.2c0,0.5,0.5,1,1,1.4c0.5,0.3,1,0.4,1.3,0.3c0.3-0.1,0.5-0.5,0.3-1.1
				C-116.3,354.1-116.9,354.3-116.7,354.9z"/>
			<path class="st0" d="M-119.4,352.7c-0.3,0.1-0.9,0.2-1.2-0.2c-0.2-0.2-0.2-0.7,0.1-0.7c0.6,0,0.7-1,0.1-1c-0.5,0-0.9,0.3-1.1,0.6
				c-0.2,0.4-0.2,0.8,0.1,1.2c0.3,0.5,0.8,0.7,1.2,0.8c0.5,0.1,0.8,0.1,1.3,0C-118.5,353.3-118.9,352.5-119.4,352.7z"/>
			<path class="st0" d="M-122.7,352.7c-0.1,0.1-0.2,0.3-0.3,0.4c-0.1,0.1-0.1,0.1-0.2,0.2l-0.1,0.1l0,0l0,0l0,0l0,0l0,0
				c-0.1,0.1,0.1-0.1,0.1-0.1l0,0l0,0l0,0c-0.2,0.2-0.5,0.3-0.8,0.3c-0.5,0-0.8-0.6-0.3-0.9c0.5-0.3,0-1.2-0.6-0.8
				c-1.1,0.7-0.8,2.3,0.2,2.6c1.2,0.4,2.2-0.3,2.8-1.2C-121.6,352.7-122.3,352.1-122.7,352.7z"/>
			<path class="st0" d="M-119.8,357.2c-0.1,0.6-1.2,0.3-1.2-0.3c0.1-0.5-0.8-0.8-0.9-0.3c-0.1,0.8,0.5,1.5,1.4,1.7
				c0.8,0.2,1.5-0.2,1.6-0.7C-118.9,357.1-119.7,356.8-119.8,357.2z"/>
			<path class="st0" d="M-122.1,360.5c0.1,0.2-0.1,0.4-0.3,0.4c-0.4,0.1-0.8-0.2-1.1-0.4c-0.5-0.4-1,0.5-0.5,0.8
				c0.7,0.4,1.6,0.6,2.3,0.2c0.5-0.3,0.8-0.9,0.4-1.5C-121.6,359.6-122.4,360-122.1,360.5z"/>
			<path class="st0" d="M-123.7,357.4c-0.2,0.3-0.5,0.8-0.9,0.7c-0.3,0-0.5-0.5-0.3-0.7c0.5-0.3,0-1.1-0.6-0.8
				c-0.9,0.6-0.5,2.1,0.4,2.4c1,0.3,1.9-0.5,2.3-1.2C-122.6,357.3-123.4,356.8-123.7,357.4z"/>
			<path class="st0" d="M-125.3,359.9c0.2-0.6-0.7-0.9-0.9-0.3c-0.2,0.6-1,0.6-1.3,0.1c-0.2-0.2-0.5-0.2-0.7,0
				c-0.2,0.2-0.2,0.6,0,0.8C-127.4,361.7-125.7,361-125.3,359.9z"/>
			<path class="st0" d="M-126.6,364.7c0.1-0.7-0.9-0.8-1-0.1c-0.1,0.7-0.2,1-0.6,1.1c-0.3,0.1-0.7-0.2-0.6-0.6
				c0.2-0.7-0.7-1-0.9-0.3c-0.4,1.1,0.5,2.1,1.4,2.1C-127.3,366.9-126.8,366.1-126.6,364.7z"/>
			<path class="st0" d="M-124.3,363.4c0.1,1.1-1.6,1.2-1.6,0c0-0.6-0.9-0.8-1-0.1c-0.1,1.1,0.8,2.1,1.8,2c1.1-0.1,1.7-1.1,1.7-2
				C-123.4,362.7-124.4,362.8-124.3,363.4z"/>
			<path class="st0" d="M-121.8,366.3c0,0.6-0.7,0.9-1.1,0.4c-0.3-0.5-1.2-0.1-0.8,0.5c0.4,0.6,1.1,0.9,1.8,0.7
				c0.7-0.2,1.2-0.8,1.1-1.5C-120.8,365.8-121.8,365.7-121.8,366.3z"/>
			<path class="st0" d="M-124.6,369.8c0.1-0.6-0.9-0.9-1-0.2c-0.1,0.8,0.5,1.5,1.3,1.5c0.8,0,1.4-0.6,1.7-1.2c0.3-0.5-0.6-1-0.9-0.4
				c-0.1,0.2-0.3,0.5-0.5,0.6C-124.2,370.2-124.6,370.1-124.6,369.8z"/>
			<path class="st0" d="M-125.1,373.4c-0.1-0.3-0.3-0.5-0.6-0.4c-0.2,0-0.5,0.3-0.4,0.6c0.1,0.3,0.4,1.2-0.2,1.2
				c-0.6,0-0.7-1-0.8-1.5c-0.1-0.7-1.1-0.6-1,0.1c0.2,1.2,0.7,2.6,1.9,2.4C-124.9,375.7-124.8,374.3-125.1,373.4z"/>
			<path class="st0" d="M-121.4,372.1c0.4,0.7-0.5,1.3-1,0.6c-0.4-0.5-1.1,0.1-0.8,0.6c0.5,0.7,1.4,0.9,2.1,0.4
				c0.7-0.4,0.9-1.3,0.5-2C-120.8,371.2-121.7,371.6-121.4,372.1z"/>
			<path class="st0" d="M-127.2,369.8c0.3,0.4-0.2,0.9-0.5,0.6c-0.5-0.5-1.1,0.4-0.6,0.8c0.5,0.5,1.3,0.5,1.8,0
				c0.5-0.5,0.6-1.4,0.1-2C-126.8,368.7-127.6,369.2-127.2,369.8z"/>
			<path class="st0" d="M-125.6,378.3c0.2,0.2,0.3,0.5,0.1,0.7c-0.1,0.2-0.5,0-0.4-0.2c0-0.7-1-0.8-1,0c0,1.1,1.2,1.7,2,1.2
				c0.4-0.3,0.5-0.7,0.5-1.2c0-0.5-0.2-0.9-0.5-1.2C-125.4,377.1-126,377.8-125.6,378.3z"/>
			<path class="st0" d="M-121.8,375.7c0.1,0.4,0,0.8-0.4,1c-0.4,0.1-0.8-0.1-0.9-0.5c-0.2-0.6-1.2-0.4-1,0.2
				c0.3,0.9,1.2,1.6,2.1,1.3c0.9-0.3,1.4-1.3,1.1-2.2C-121.1,374.9-122,375.1-121.8,375.7z"/>
			<path class="st0" d="M-118.6,379.4c0.4,0.7-0.8,1.2-1,0.4c-0.2-0.6-1.1-0.3-0.9,0.3c0.2,0.9,1.4,1.4,2.2,0.9
				c0.8-0.4,0.9-1.4,0.6-2.1C-118.1,378.3-118.9,378.9-118.6,379.4z"/>
			<path class="st0" d="M-121.5,381.5c0.1,0.3,0.1,0.7-0.2,0.8c-0.3,0.1-0.6-0.2-0.7-0.5c-0.2-0.6-1.1-0.3-0.9,0.3
				c0.3,0.9,1.2,1.4,2,1.1c0.8-0.3,1.1-1.3,0.7-2.1C-120.9,380.6-121.8,380.9-121.5,381.5z"/>
			<path class="st0" d="M-122.1,384.5c0.2,0.4,0.4,1.1,0.1,1.5c-0.2,0.3-0.8,0.3-1-0.1c-0.2-0.7-1.2-0.6-1,0.1
				c0.3,1.1,1.5,1.6,2.4,1.1c0.9-0.6,0.9-2,0.4-2.9C-121.4,383.5-122.3,383.9-122.1,384.5z"/>
			<path class="st0" d="M-117.7,384.3c0.4,0.6-0.4,1.2-0.8,0.6c-0.4-0.5-1.2,0.1-0.7,0.6c0.5,0.7,1.5,0.8,2.1,0.3
				c0.6-0.6,0.7-1.5,0.2-2.2C-117.4,383.1-118.1,383.8-117.7,384.3z"/>
			<path class="st0" d="M-118.5,388.5c0.2,0.3,0.3,0.8,0.1,1.2c-0.1,0.2-0.5,0.4-0.7,0.2c-0.5-0.5-1.2,0.2-0.7,0.7
				c0.6,0.6,1.6,0.6,2.1-0.1c0.6-0.7,0.4-1.7,0-2.5C-118,387.4-118.9,387.9-118.5,388.5z"/>
			<path class="st0" d="M-117.2,392.1c0.2,0.4,0.4,0.9,0.3,1.3c-0.1,0.2-0.3,0.4-0.5,0.2c-0.5-0.5-1.2,0.3-0.6,0.7
				c0.6,0.6,1.4,0.4,1.9-0.1c0.5-0.7,0.2-1.7-0.1-2.4C-116.5,391.2-117.5,391.4-117.2,392.1z"/>
			<path class="st0" d="M-114.3,390.1c0.4,0.6,0,1.3-0.7,0.9c-0.6-0.3-1,0.5-0.5,0.9c0.6,0.4,1.5,0.3,2-0.3c0.4-0.6,0.5-1.4,0-2
				C-113.8,389.1-114.7,389.5-114.3,390.1z"/>
			<path class="st0" d="M-111.1,392.6c0.6,0.6-0.3,1.5-0.9,0.9c-0.5-0.4-1.1,0.3-0.6,0.8c0.7,0.6,1.8,0.6,2.3,0
				c0.6-0.7,0.4-1.7-0.1-2.3C-110.9,391.4-111.6,392.1-111.1,392.6z"/>
			<path class="st0" d="M-113.6,394.8c0.2,0.3,0.3,0.7,0.1,1.1c-0.1,0.2-0.2,0.3-0.3,0.4c-0.1,0-0.2,0.1-0.3,0.1c-0.1,0-0.1,0-0.1,0
				c-0.1-0.2-0.3-0.4-0.6-0.3c-0.5,0.2-0.5,0.7-0.1,1.1c0.4,0.4,1.1,0.3,1.5,0.1c1.1-0.5,1.3-1.9,0.6-3
				C-113.1,393.6-114,394.2-113.6,394.8z"/>
			<path class="st0" d="M-108.9,397.6c0.6,0.7,0.1,1.6-0.8,1.2c-0.6-0.3-0.9,0.6-0.3,0.9c0.7,0.4,1.6,0.2,2.1-0.4
				c0.5-0.7,0.4-1.7-0.2-2.3C-108.6,396.5-109.3,397.1-108.9,397.6z"/>
			<path class="st0" d="M-109.4,401.2c0.2,0.4,0.4,0.8,0.3,1.2c0,0.2-0.3,0.5-0.6,0.3c-0.5-0.5-1.3,0.1-0.8,0.6c0.6,0.6,1.5,0.6,2,0
				c0.5-0.7,0.3-1.7-0.1-2.5C-108.8,400.2-109.7,400.6-109.4,401.2z"/>
			<path class="st0" d="M-112.6,398.6c0.2,0.2,0.4,0.5,0.2,0.8c-0.2,0.3-0.6,0.2-0.8-0.1c-0.5-0.5-1.1,0.3-0.6,0.8
				c0.7,0.6,1.8,0.6,2.2-0.1c0.4-0.7,0.2-1.7-0.5-2.2C-112.5,397.4-113.1,398.2-112.6,398.6z"/>
			<path class="st0" d="M-105.6,399c0.6,0.7,0,1.6-0.8,1.2c-0.6-0.3-0.9,0.7-0.3,0.9c0.8,0.3,1.7,0.1,2.1-0.5
				c0.4-0.7,0.3-1.6-0.2-2.2C-105.3,397.9-106.1,398.5-105.6,399z"/>
			<path class="st0" d="M-103.7,403.2c0.6,0.3,0.6,1.1-0.1,1.2c-0.6,0.1-0.4,1.1,0.3,1c0.7-0.1,1.3-0.6,1.3-1.4
				c0-0.7-0.3-1.4-0.9-1.7c-0.2-0.1-0.5-0.1-0.7,0.1C-104,402.6-104,403-103.7,403.2z"/>
			<path class="st0" d="M-106.1,404.3c0.5,0.6,0,1.3-0.6,1.1c-0.7-0.2-0.7,0.9,0,1c1.6,0.4,2.5-1.5,1.4-2.8
				C-105.8,403.1-106.5,403.8-106.1,404.3z"/>
			<path class="st0" d="M-101.5,405c0.5,0.7,1.5,0.8,2.1,0.3c0.6-0.5,0.6-1.5,0.1-2.1c-0.4-0.5-1.1,0.1-0.7,0.7
				c0.1,0.2,0.1,0.5-0.1,0.7c-0.2,0.2-0.5,0-0.7-0.2C-101.2,403.8-101.9,404.5-101.5,405z"/>
			<path class="st0" d="M-102.7,406.8c0.3,0.3,0.6,0.7,0.5,1.1c0,0.2-0.4,0.5-0.6,0.3c-0.2-0.2-0.4-0.4-0.7-0.3
				c-0.2,0.1-0.4,0.4-0.2,0.7c0.6,0.8,1.7,0.9,2.3,0.2c0.6-0.8,0.1-1.9-0.5-2.6C-102.5,405.7-103.2,406.3-102.7,406.8z"/>
			<path class="st0" d="M-98.6,408.4c0.2,0.1,0.4,0.5,0.3,0.7c-0.1,0.2-0.5,0.2-0.7,0c-0.5-0.5-1.2,0.2-0.7,0.7
				c0.7,0.7,2,0.7,2.4-0.1c0.4-0.8-0.2-1.9-1-2.2C-99,407.2-99.2,408.1-98.6,408.4z"/>
			<path class="st0" d="M-94.9,408.4c0.2,0.2,0.3,0.5,0.2,0.7c-0.2,0.3-0.5,0.2-0.8,0c-0.6-0.4-1.1,0.4-0.5,0.9
				c0.8,0.6,1.8,0.5,2.2-0.2c0.4-0.7,0-1.7-0.7-2.2C-95,407.1-95.5,408-94.9,408.4z"/>
			<path class="st0" d="M-96.8,411.5c-0.6-0.4-1.1,0.5-0.5,0.9c0.6,0.4,0.3,1.1-0.3,1c-0.7-0.1-0.6,1,0.1,1.1c0.7,0.1,1.4-0.3,1.6-1
				C-95.7,412.7-96.1,411.9-96.8,411.5z"/>
			<path class="st0" d="M-92.6,413.9c0.4,0.3-0.1,0.9-0.5,0.5c-0.6-0.5-1.3,0.1-0.7,0.7c0.7,0.7,1.7,0.8,2.2,0.2
				c0.5-0.6,0.1-1.6-0.6-2.2c-0.2-0.2-0.6-0.1-0.7,0.1C-93,413.4-92.8,413.7-92.6,413.9z"/>
			<path class="st0" d="M-87.3,419.7c0.7,0.7,0.2,1.7-0.6,1.3c-0.7-0.3-1,0.7-0.3,1c0.9,0.4,1.8,0.3,2.2-0.5c0.4-0.8,0-1.9-0.8-2.7
				C-87.3,418.2-87.9,419.1-87.3,419.7z"/>
			<path class="st0" d="M-82.3,423c0.5,0.6,0.3,1.4-0.4,1c-0.7-0.4-1,0.6-0.3,1.1c0.7,0.5,1.6,0.6,2-0.1c0.4-0.6,0.2-1.7-0.4-2.5
				c-0.2-0.3-0.6-0.5-0.8-0.4C-82.5,422.2-82.6,422.7-82.3,423z"/>
			<path class="st0" d="M-80,429c0.9,1,0.2,2.4-0.6,1.5c-0.7-0.6-1.1,0.4-0.5,1c0.9,0.9,2,1,2.5,0c0.2-0.5,0.2-1.2,0.1-1.9
				c-0.2-0.7-0.5-1.3-1-1.8C-80.2,427.2-80.6,428.3-80,429z"/>
			<path class="st0" d="M-76.2,441.5c0.2,0.3,0.2,1,0,1.3c-0.1,0.1-0.1,0.1-0.2,0.1c-0.1,0-0.1,0-0.2-0.1c-0.1-0.2-0.2-0.5-0.2-0.8
				c0-1.3-1-1.7-1-0.5c0,0.5,0.1,1.1,0.2,1.4c0.1,0.3,0.2,0.5,0.4,0.7c0.4,0.4,0.9,0.5,1.4,0.3c0.2-0.1,0.4-0.3,0.5-0.5
				c0.1-0.1,0.1-0.2,0.2-0.3c0-0.1,0-0.1,0.1-0.2c0-0.1,0-0.2,0-0.3c0-0.9-0.2-2-0.6-2.6C-76.1,439.1-76.7,440.6-76.2,441.5z"/>
			<path class="st0" d="M-77.2,452.9c-0.3,1.1-1.1,1.2-0.9,0.1c0.2-1.1-0.9-0.9-1,0.1c-0.2,1.2,0.1,2.3,0.8,2.4
				c0.7,0.1,1.8-0.9,2.1-2.3C-75.9,452-76.9,451.8-77.2,452.9z"/>
			<path class="st0" d="M-87.3,467.4c-0.9,0.6-1.5,1.6-1.4,2.3c0.2,0.7,1.3,0.8,2.2,0.1c0.9-0.6,0.6-1.6-0.3-1
				c-0.5,0.4-0.8-0.1-0.3-0.4C-86.1,467.8-86.4,466.8-87.3,467.4z"/>
			<path class="st0" d="M-90.1,470.3c-0.5,0.3-1.1,0.7-1.6,0.7c-0.1,0-0.2,0-0.2-0.1c0-0.1,0.1-0.2-0.1-0.1c0.9-0.3,1.1-1.4,0.2-1.1
				c-1.2,0.4-1.9,1.7-1.4,2.3c0.5,0.7,2.1,0.1,3.3-0.6c0.4-0.2,0.7-0.6,0.6-0.9C-89.3,470.2-89.7,470.1-90.1,470.3z"/>
			<path class="st0" d="M-109.3,478.4c-0.4,0-0.4-0.2-0.1-0.3c0.9-0.3,0.4-1.2-0.5-0.9c-0.8,0.2-1.4,0.8-1.3,1.3
				c0.2,0.6,1,0.9,2,0.9C-108.1,479.2-108.2,478.3-109.3,478.4z"/>
		</g>
	</g>
</g>
</svg>
