<?xml version="1.0" encoding="utf-8"?>
<!-- Generator: Adobe Illustrator 19.0.0, SVG Export Plug-In . SVG Version: 6.00 Build 0)  -->
<svg version="1.1" id="Layer_1" xmlns="http://www.w3.org/2000/svg" xmlns:xlink="http://www.w3.org/1999/xlink" x="0px" y="0px"
	 viewBox="-205 297 200 200" style="enable-background:new -205 297 200 200;" xml:space="preserve">
<style type="text/css">
	.st0{fill:#E1F2F4;}
</style>
<g id="XMLID_120_">
	<g>
		<g>
			<g>
				<path class="st0" d="M-71.1,356c-6.6-0.9-13.1-1.9-19.7-2.5c-7.7-0.7-15.4-0.9-23-0.2c-7.6,0.7-15.1,2.4-22.1,5.2
					c-7,2.8-13.5,7-18.3,12.8c-2.4,2.9-4.2,6.2-5.4,9.8c-1.3,3.6-1.9,7.3-2.1,11.2c-0.2,3.8,0.2,7.7,1,11.4
					c0.8,3.8,2.1,7.4,3.8,10.9c3.3,7,8.1,13.3,13.5,18.9c5.4,5.6,11.5,10.7,18.2,14.6c6.7,3.9,14.1,6.7,21.7,7.2
					c7.3,0.6,14.8-1.3,20.7-5.1c2.6-1.9,4.9-4.2,6.5-6.8c1.6-2.6,2.6-5.4,2.8-8.1c0.1-0.4-0.7-0.5-0.9-0.2
					c-1.9,4.6-5.9,8.4-10.8,10.7c-2.7,1.3-5.6,2.2-8.5,2.7c-0.7,0.1-1.5,0.2-2.2,0.3c-0.7,0.1-1.5,0.1-2.2,0.1l-1.1,0
					c-0.4,0-0.7-0.1-1.1-0.1l-1.1-0.1l-1.1-0.2c-6.1-0.9-12-3.4-17.6-7c-5.6-3.6-10.7-8.2-15.4-13.3c-4.6-5.1-8.6-10.5-11.2-16.2
					c-1-2-1.8-4.1-2.4-6.1c-0.6-2.1-1.1-4-1.3-6.1c-0.5-4.1-0.3-8.2,0.6-11.8c1-3.6,2.5-6.7,4.7-9.2c2.2-2.5,5.2-4.8,8.7-6.6
					c1.7-0.9,3.5-1.7,5.5-2.4l3-1l3-0.8c4.1-1,8.4-1.6,12.8-1.9c4.4-0.3,9-0.3,13.8-0.1l3.6,0.2l3.4,0.2l4,0.3
					c8.2,0.5,19.6,2.2,26.7-4.7c0.2-0.2,0.1-0.6-0.2-0.7c-3.3-2-6.6-3.9-10-5.8c-0.5-0.3-0.9,0.5-0.4,0.8c2.3,1.3,4.7,2.7,7,4
					c1.5,0.9,2.6,1.2,1,2.7c-1,0.9-2.5,1.4-3.7,1.8c-5,1.7-10.4,1.4-15.4,1.2c-1.4,0-2.8-0.1-4.1-0.2c-1.4-0.1-2.7-0.2-4.1-0.3
					l-2.7-0.2c-1.2-0.1-2.4-0.2-3.6-0.2c-2.4-0.2-4.7-0.2-7.1-0.2c-9.3,0-18.1,0.9-26.1,3.6c-2.1,0.7-4,1.4-5.8,2.3
					c-1.8,0.9-3.6,1.9-5.1,3c-1.6,1.1-3,2.3-4.2,3.6c-1.2,1.3-2.2,2.6-3.1,4.1c-1.7,3-2.9,6.7-3.3,10.7c-0.4,4,0,8.2,1,12.3
					c1.1,4.2,2.9,8.3,5.3,12.3c2.4,4,5.3,7.9,8.6,11.5c6.7,7.3,14.4,13.8,22.8,17.7c2.4,1.1,4.8,2,7.3,2.6c2.5,0.6,5,1,7.4,1.1
					c4.9,0.1,9.9-1,14.3-3.2c5.1-2.4,9.2-6.3,11.3-11.1l-0.9-0.2c-0.2,2.6-1.1,5.2-2.7,7.7c-1.5,2.4-3.7,4.7-6.2,6.5
					c-5.8,3.7-13.1,5.6-20.3,5c-7.3-0.5-14.4-3.1-20.9-6.9c-6.5-3.8-12.5-8.7-17.8-14.1c-5.3-5.4-10-11.5-13.4-18.3
					c-3.4-6.7-5.3-14.1-5.2-21.5c0-3.7,0.5-7.4,1.6-10.8c0.5-1.7,1.2-3.4,2-5c0.8-1.6,1.7-3.1,2.8-4.6c4.2-5.8,10.4-10.1,17-13.1
					c6.7-3,13.9-4.8,21.3-5.7c8.3-1,16.8-0.8,25.3-0.1c6.5,0.7,13,1.6,19.6,2.5C-70.7,357-70.6,356.1-71.1,356z"/>
			</g>
		</g>
		<g>
			<g>
				<path class="st0" d="M-70.9,355.7c-0.6-7.1-2.8-13.8-7-19.9c-0.3-0.4-1.1,0-0.8,0.5c2.8,5.8,4.3,13.1,4,19.4
					c0,0.6,0.9,0.7,0.9,0.1c0.3-6.5-1.2-13.9-4-19.9l-0.8,0.5c4.1,5.9,6.3,12.4,6.9,19.4C-71.7,356.4-70.8,356.3-70.9,355.7z"/>
			</g>
		</g>
		<g>
			<g>
				<path class="st0" d="M-77.4,355c-0.8-3.7-1.8-7.3-3.3-10.8c-0.7-1.7-1.5-3.5-2.4-5.2c-0.9-1.7-1.9-3.3-3-4.9
					c-0.3-0.4-1.1-0.3-0.9,0.3c2.1,6.9,3.8,13.9,5.1,20.9c0.1,0.6,1,0.4,0.9-0.1c-1.4-7-3-14-5.1-20.9l-0.9,0.3
					c4.4,6.4,7.2,13.3,8.7,20.7C-78.1,355.7-77.2,355.6-77.4,355z"/>
			</g>
		</g>
		<g>
			<g>
				<path class="st0" d="M-77.6,359.2c0.6-0.1,1.3-0.3,1.8,0.2c0.4,0.4,0.5,0.9,0.3,1.4c-0.2,0.5-0.8,0.9-1.3,0.6
					c-0.2-0.1-0.5-0.4-0.3-0.7c0.2-0.3,0.5-0.2,0.4,0.2c-0.1,0.6,0.7,0.7,0.9,0.1c0.3-1.1-1.2-1.8-1.9-1c-0.8,1,0.1,2.3,1.2,2.3
					c1.2,0,2.2-1.2,2-2.5c-0.1-0.6-0.5-1.1-0.9-1.4c-0.7-0.4-1.5-0.3-2.2-0.2C-78.3,358.4-78.2,359.3-77.6,359.2z"/>
			</g>
		</g>
		<g>
			<g>
				<path class="st0" d="M-73,359.3c0,0,0.2,0,0.4,0c0.2,0,0.4,0,0.5,0c0.2,0.1,0.5,0.2,0.7,0.3c0.5,0.3,0.8,0.9,0.8,1.5
					c0,0.5-0.3,1-0.8,1.3c-0.3,0.2-0.6,0.2-0.9,0.1c-0.7-0.4,0.1-1,0.2-0.6c0.2,0.6,1,0.2,0.8-0.3c-0.4-1.4-2.5-0.7-2.2,0.7
					c0.3,1.7,2.5,1.4,3.3,0.3c0.9-1.2,0.5-3-0.8-3.7c-0.6-0.3-1.4-0.6-2.1-0.3c-0.6,0.2-1,0.9-0.6,1.4
					C-73.4,360.3-72.6,359.8-73,359.3z"/>
			</g>
		</g>
		<g>
			<g>
				<path class="st0" d="M-84.8,354.6c-0.4,0.4-2.5,3-4.4,5.4c-0.5,0.6-1,1.2-1.4,1.8c-0.2,0.3-0.4,0.6-0.6,0.8
					c-0.1,0.1-0.2,0.3-0.3,0.4c-0.1,0.1-0.3,0.2-0.4,0.3c-1.2,0.9-2,1.4-2.1,1.4c-0.9-0.3-1.7,0.4-0.8,0.7c1.1,0.4,2.2-0.1,3.1-0.7
					c0.6-0.7,1-1.6,1.4-2c2-2.5,4.1-5.1,6.3-7.5C-83.7,354.7-84.4,354.2-84.8,354.6z"/>
			</g>
		</g>
		<g>
			<g>
				<path class="st0" d="M-93.3,354.5c2.8,1.9,3.3,3.8,4.3,5.8c0.9,2,1.7,4.1,2.3,6.2c0.2,0.6,0.9,0.2,0.8-0.4
					c-0.6-2.1-1.4-4.2-2.3-6.3c-0.5-1-1-2-1.5-3c-0.3-0.5-0.5-1-0.8-1.4l-0.2-0.4c-0.1-0.1-0.3-0.2-0.4-0.4l-0.9-0.7
					C-92.8,353.4-93.9,354-93.3,354.5z"/>
			</g>
		</g>
		<g>
			<g>
				<path class="st0" d="M-102.8,353.7c-5.1,3.4-9.2,7.3-12.1,11.6c-0.4,0.6,0.9,0.8,1.2,0.3c0.7-1.1,1.5-2.1,2.4-3
					c0.9-1,1.8-2,2.8-2.9c2-1.8,4.3-3.7,6.8-5.3C-101,353.9-102.1,353.3-102.8,353.7z"/>
			</g>
		</g>
		<g>
			<g>
				<path class="st0" d="M-115.6,354.8c0.7,0.4,1.3,0.7,1.9,1.1c0.6,0.4,1.2,0.8,1.8,1.2c1.2,0.8,2.3,1.7,3.4,2.6
					c2.2,1.8,4.2,3.7,6,5.7c0.5,0.5,1.7,0,1.3-0.5c-0.9-1-1.9-2-2.9-3c-1-0.9-2-1.9-3.1-2.8c-0.5-0.5-1.1-0.9-1.7-1.4
					c-0.6-0.4-1.1-0.8-1.7-1.3c-1.2-0.8-2.4-1.7-3.7-2.4C-115,353.7-116.3,354.4-115.6,354.8z"/>
			</g>
		</g>
		<g>
			<g>
				<path class="st0" d="M-122.3,355c-2.3,2.3-4.6,4.6-6.5,7.2c-0.5,0.6-0.9,1.2-1.3,1.9c-0.4,0.7-0.8,1.3-1.1,2
					c-0.7,1.3-1.2,2.5-1.5,3.8c-0.1,0.6,1,0.6,1.2,0c0.4-1.2,0.9-2.5,1.6-3.7l0.5-1l0.6-0.9c0.4-0.6,0.8-1.2,1.3-1.8
					c0.5-0.6,0.9-1.3,1.5-1.8l1.6-1.7c0.6-0.6,1.1-1.2,1.7-1.7c0.6-0.5,1.2-1.1,1.7-1.6C-120.5,354.9-121.7,354.5-122.3,355z"/>
			</g>
		</g>
		<g>
			<g>
				<path class="st0" d="M-134.7,359.2c5.8,1.2,10.4,4.1,13.8,7.5c0.4,0.4,1.7,0,1.2-0.5c-0.4-0.5-0.9-0.9-1.4-1.4
					c-0.5-0.4-1-0.8-1.5-1.2c-1-0.8-2.1-1.6-3.3-2.3c-1.2-0.7-2.4-1.3-3.8-1.8c-0.7-0.3-1.4-0.5-2.1-0.8c-0.7-0.2-1.4-0.4-2.2-0.6
					C-134.7,358-135.4,359.1-134.7,359.2z"/>
			</g>
		</g>
		<g>
			<g>
				<path class="st0" d="M-142.3,362.1c-3,5.5-3,11-2.2,15.5c0.1,0.6,1,0.2,1-0.4c-0.7-4.5-0.5-9.9,2.5-15.1
					C-140.6,361.3-141.9,361.3-142.3,362.1z"/>
			</g>
		</g>
		<g>
			<g>
				<path class="st0" d="M-151.3,369.9c5.4-1.1,10,0.2,13.6,2.7c0.5,0.3,1.3-0.5,0.9-0.8c-3.6-2.6-8.4-4.1-14.1-3
					C-151.8,368.8-152,370.1-151.3,369.9z"/>
			</g>
		</g>
		<g>
			<g>
				<path class="st0" d="M-156.8,376.3c0.7,4.9,2.5,9.4,4.7,13.2c0.4,0.6,1.1-0.2,0.7-0.8c-2.2-3.8-3.8-8.2-4.4-13.1
					C-155.7,374.9-156.9,375.5-156.8,376.3z"/>
			</g>
		</g>
		<g>
			<g>
				<path class="st0" d="M-160.4,384.7c1.3,0.8,3.1-0.4,4.6-0.8c2.2-0.6,4.4-0.9,6.6-1c0.6,0,0.8-1.1,0.2-1.1
					c-1.8,0-3.6,0.1-5.4,0.5c-0.7,0.1-1.8,0.5-2.8,0.8c-1,0.3-2.1,0.5-2.6,0.1C-160.3,382.9-160.9,384.4-160.4,384.7z"/>
			</g>
		</g>
		<g>
			<g>
				<path class="st0" d="M-160.6,395.3L-160.6,395.3l0.5,0.4c-0.4,0.5-0.4,0.9-0.1,1.2c0.1,0.2,0.3,0.4,0.4,0.6
					c0.4,0.5,0.7,1,1.1,1.4c0.7,0.7,1.4,1.3,2.1,1.9c0.4,0.3,1.7,1.4,3,2.3c1.3,0.9,2.7,1.5,2.8,1.3c-0.4,0.6,0.5,1.5,0.8,0.9
					l0.1-0.2c0.1-0.1,0.1-0.4,0-0.6c-0.2-0.5-0.5-0.9-1-1.3c-0.4-0.4-0.9-0.7-1.4-1.1c-1.1-0.6-2.1-1.2-2.8-1.7
					c-1.3-1-2.7-2-3.8-3.5c-0.6-0.8-1-1.9-1.8-2c-0.1,0-0.3,0.2-0.4,0.4c-0.1,0.5-0.1,0.7,0.1,1.2c0.1,0.3,0.4,0.4,0.5,0.3l0.1-0.1
					C-159.7,396.4-160,394.9-160.6,395.3z"/>
			</g>
		</g>
		<g>
			<g>
				<path class="st0" d="M-158.9,407.4c1.7-4.5,4.3-8.1,7.4-10.6c0.5-0.4-0.1-1.4-0.6-1c-3.2,2.5-5.9,6-7.7,10.5
					C-160.1,406.9-159.2,408.1-158.9,407.4z"/>
			</g>
		</g>
		<g>
			<g>
				<path class="st0" d="M-155.4,417.4c2.1,0.9,4.2,1.7,6.3,2.4c1.1,0.3,2.1,0.6,3.2,0.9l1.6,0.4c0.8,0.4,1.3,0.2,1.6-0.5l0.6,0.6
					l0-0.1c-0.2-0.8-1.3-0.9-1.1-0.1l0,0.1c0.1,0.3,0.4,0.6,0.6,0.7c0.3,0.1,0.5,0.1,0.6-0.2c0.1-0.2,0-0.5-0.2-0.8
					c-1.2-1.3-3.6-1.3-4.9-1.7c-2.9-0.8-5.7-1.9-8.6-3.2C-156.4,415.6-156.2,417-155.4,417.4z"/>
			</g>
		</g>
		<g>
			<g>
				<path class="st0" d="M-147.4,427c-1.6-5.6-1.2-10.6,0.6-14.4c0.3-0.6-0.7-1.4-1-0.8c-2,3.9-2.4,9.1-0.7,15.1
					C-148.3,427.7-147.1,427.8-147.4,427z"/>
			</g>
		</g>
		<g>
			<g>
				<path class="st0" d="M-142.7,433.6c1.8,0.1,3.5,0.2,5.2,0.2c0.8,0,1.6,0,2.4,0c0.5,0,2.2-0.4,2.7-0.1l-0.5-0.7l0,0.2l0.5-0.3
					l-0.2,0c-0.8-0.2-0.4,1,0.4,1.2l0.2,0c0.3,0.1,0.5-0.1,0.5-0.3l0-0.2c0-0.2-0.2-0.6-0.5-0.7c-1.4-0.8-3.2-0.2-4.4-0.2
					c-2.3,0-4.6-0.1-6.9-0.2C-144,432.2-143.4,433.5-142.7,433.6z"/>
			</g>
		</g>
		<g>
			<g>
				<path class="st0" d="M-133.7,440.6c-2.2-4.7-3.2-9.2-3.2-13.4c0-0.7-1.2-1.3-1.2-0.6c-0.1,4.3,1,9,3.1,13.8
					C-134.7,441.2-133.4,441.4-133.7,440.6z"/>
			</g>
		</g>
		<g>
			<g>
				<path class="st0" d="M-126.4,446.7c1.3-0.7,2.7-1.3,4.3-1.6c1.5-0.4,3.2-0.4,4.4-1.1c0.6-0.3-0.3-1.3-0.9-1
					c-0.7,0.3-1.5,0.5-2.4,0.7c-0.9,0.1-1.8,0.2-2.6,0.5c-1.5,0.4-2.8,0.9-4,1.5C-128.2,445.9-127,446.9-126.4,446.7z"/>
			</g>
		</g>
		<g>
			<g>
				<path class="st0" d="M-118.3,450.1c-2.8-3.5-4.7-7.3-6-11c-0.2-0.7-1.5-0.8-1.2-0.1c1.3,3.8,3.2,7.6,5.9,11.2
					C-119.1,450.9-117.8,450.7-118.3,450.1z"/>
			</g>
		</g>
		<g>
			<g>
				<path class="st0" d="M-112.5,453.5c2.7-1.3,5.3-2.8,7.7-4.5c0.6-0.4-0.5-1-1.1-0.6c-2.4,1.5-5,3-7.8,4.2
					C-114.3,452.9-113.1,453.8-112.5,453.5z"/>
			</g>
		</g>
		<g>
			<g>
				<path class="st0" d="M-104,454c-3.2-1.9-5-4.6-5.7-7.1c-0.2-0.6-1.4-0.6-1.3,0.1c0.7,2.8,2.7,5.6,6.1,7.8
					C-104.1,455.2-103.3,454.5-104,454z"/>
			</g>
		</g>
		<g>
			<g>
				<path class="st0" d="M-96.5,454.9c0.7-0.9,1.3-1.8,1.9-2.7c0.6-0.9,1.1-1.8,1.6-2.8c0.3-0.6-0.9-0.8-1.2-0.2
					c-0.2,0.5-0.5,0.9-0.8,1.4c-0.3,0.4-0.6,0.9-0.9,1.3c-0.6,0.9-1.2,1.8-1.9,2.6C-98.3,455.1-96.9,455.5-96.5,454.9z"/>
			</g>
		</g>
		<g>
			<g>
				<path class="st0" d="M-90.2,452.8c-3.7-0.3-6.7-1.7-8.7-3.7c-0.5-0.4-1.6,0-1.1,0.5c2.1,2.2,5.3,3.8,9.3,4.2
					C-89.8,453.8-89.3,452.9-90.2,452.8z"/>
			</g>
		</g>
		<g>
			<g>
				<path class="st0" d="M-83.6,449.9l0.1-0.7c0-0.2,0-0.4,0-0.6l-0.1-1.2c-0.1-0.8-0.2-1.6-0.4-2.3c-0.1-0.5-0.9-0.6-0.8-0.1
					c0.1,0.8,0.2,1.6,0.3,2.3c-0.1,0.9-0.3,1.8-0.6,2.7C-85.1,450.8-83.7,450.6-83.6,449.9z"/>
			</g>
		</g>
		<g>
			<g>
				<path class="st0" d="M-81.2,447.2c-1,0.2-2.1,0.2-3,0.1c-0.2-0.1-0.7,0-1,0c-0.4,0-0.8,0-1.1,0c-0.7,0-1.5-0.2-2.2-0.3
					c-0.7-0.1-1.4,0.7-0.6,0.9c1.5,0.4,3.2,0.5,4.9,0.3l0.3,0c0.1,0,0.2,0,0.2,0l0.4,0c0.3,0,0.5,0,0.8,0c0.5,0,1.1-0.1,1.7-0.2
					C-80.4,447.9-80.7,447.1-81.2,447.2z"/>
			</g>
		</g>
		<g>
			<g>
				<path class="st0" d="M-97.8,357.2c1.2,1,2.3,2,3.4,3.1l0.2-0.5c-1.6,0.6-3,1.4-4.3,2.2l1.2,0.1c-1-1.2-2.2-2.2-3.6-3.1l0,0.6
					c1.5-0.8,3.1-1.5,4.7-2.1c0.8-0.3,0.1-1.1-0.8-0.8c-0.9,0.4-1.7,0.7-2.6,1.1c-0.8,0.4-1.7,0.8-2.5,1.2c-0.3,0.2-0.3,0.5,0,0.6
					c1.4,0.9,2.5,1.8,3.4,2.9c0.2,0.3,0.9,0.3,1.2,0.1c1.3-0.8,2.7-1.6,4.3-2.2c0.3-0.1,0.3-0.4,0.2-0.5c-1.1-1.1-2.2-2.1-3.4-3.2
					C-97,356.3-98.3,356.7-97.8,357.2z"/>
			</g>
		</g>
		<g>
			<g>
				<path class="st0" d="M-119.3,358.4c1.4,0.5,2.7,1.2,3.8,2l0.2-0.7c-1.4,0.7-2.5,1.4-3.3,2.4l1-0.2c-0.7-0.4-3-1-3.1-1.7
					c0-0.4,0.1-0.4,0.6-0.6l0.8-0.5c0.6-0.4,1.3-0.8,2-1.2c0.8-0.4-0.1-1.1-0.9-0.7l-3,1.9c-0.6,0.4-1.3,0.8-1.2,1.4
					c0.1,0.5,0.6,0.7,1.2,0.9l2.8,1.3c0.3,0.1,0.8,0,1-0.2c0.8-0.9,1.8-1.6,3-2.2c0.3-0.2,0.4-0.5,0.2-0.7c-1.2-0.8-2.5-1.6-4-2.2
					C-119.1,357.2-120,358.1-119.3,358.4z"/>
			</g>
		</g>
		<g>
			<g>
				<path class="st0" d="M-137.6,363.7c1.2,0.4,2.4,0.7,3.7,1l-0.2-0.7c-1.3,1.2-2,2.5-2.2,3.8c0.3-0.2,0.7-0.4,1-0.5
					c-1.1-0.4-2.5-0.7-3.6-1.2c-0.3-0.1-0.3,0.3,0-0.1c0.3-0.3,0.6-0.7,0.9-1c0.6-0.6,1.3-1.3,2-1.9c0.7-0.6-0.3-1-1-0.4
					c-1,0.9-1.9,1.8-2.8,2.7c-0.4,0.4-0.8,0.8-0.6,1.2c0.2,0.5,1.1,0.5,1.6,0.7c0.9,0.3,1.8,0.6,2.6,0.9c0.3,0.1,1-0.2,1-0.5
					c0.2-1.1,0.8-2.2,2-3.2c0.4-0.3,0.2-0.6-0.2-0.7c-1.2-0.3-2.4-0.7-3.5-1.1C-137.4,362.5-138.3,363.5-137.6,363.7z"/>
			</g>
		</g>
		<g>
			<g>
				<path class="st0" d="M-151.9,375c1.3-0.2,2.5-0.5,3.9-1.1l-0.6-0.4c-0.1,1.4-0.2,2.8-0.1,4.1c0.2-0.2,0.5-0.5,0.7-0.7
					c-1.2-0.2-2.5-0.1-3.9,0.2l0.4,0.5c0.1-1.2,0.4-2.4,0.7-3.7c0.2-0.8-0.8-0.7-1,0.1c-0.2,0.6-0.3,1.3-0.4,1.9l-0.3,1.9
					c0,0.3,0.2,0.6,0.4,0.5c1.3-0.4,2.4-0.5,3.6-0.4c0.4,0,0.7-0.3,0.7-0.7c0-1.3,0.1-2.7,0.2-4.1c0-0.4-0.3-0.5-0.6-0.4
					c-1.2,0.5-2.3,0.8-3.4,0.9C-152.3,373.8-152.6,375.1-151.9,375z"/>
			</g>
		</g>
		<g>
			<g>
				<path class="st0" d="M-158.3,391c1.1-0.6,2.1-1.3,3-2.3l-0.7-0.2c0.2,0.9,0.5,1.6,0.8,2.3c0.4,0.7,0.8,1.2,1.3,1.7l0.1-1.1
					c-1.3,0.8-2.4,2-3.2,3.7l0.8,0.3c-0.4-1-0.6-1.9-1-2.8c-0.3-0.9-0.8-1.7-1.2-2.5c-0.4-0.7-1.1,0.3-0.7,1
					c0.4,0.7,0.8,1.5,1.2,2.2c0.2,0.4,0.3,0.8,0.5,1.2c0.2,0.4,0.3,0.9,0.5,1.3c0.1,0.4,0.6,0.7,0.8,0.3c0.7-1.6,1.7-2.7,2.9-3.5
					c0.3-0.2,0.3-0.9,0.1-1.1c-0.4-0.4-0.8-0.9-1.1-1.5c-0.3-0.6-0.5-1.2-0.6-2c-0.1-0.4-0.4-0.5-0.7-0.2c-0.9,0.8-1.7,1.5-2.7,1.9
					C-159,389.9-158.9,391.3-158.3,391z"/>
			</g>
		</g>
		<g>
			<g>
				<path class="st0" d="M-154.6,411.9c0.6-1.2,0.9-2.6,1-4.3l-0.9-0.1c0.3,1.1,1,1.4,1.6,1.6c0.6,0.3,1.2,0.4,1.7,1.2l-0.1-0.9
					c-0.5,0.7-0.9,1.7-0.9,2.9c0,0.8-0.2,0.6-0.9,0.2c-0.8-0.5-1.5-1-2.3-1.5c-0.7-0.5-0.8,0.8-0.1,1.3c0.8,0.6,1.7,1.1,2.6,1.6
					c0.5,0.3,1.1,0.7,1.5,0.4c0.3-0.2,0.3-0.5,0.3-1c0.1-1.2,0.1-2,0.7-2.8c0.2-0.2,0.1-0.6-0.1-0.9c-0.4-0.6-0.8-1-1.3-1.2
					c-0.5-0.3-1.5-0.4-1.8-1.2c-0.2-0.7-0.9-0.7-0.9-0.1c-0.1,1.5-0.4,2.6-1,3.7C-155.9,411.5-154.9,412.5-154.6,411.9z"/>
			</g>
		</g>
		<g>
			<g>
				<path class="st0" d="M-143.4,428.9c-0.4-1.5-0.9-3-1.4-4.5l-0.5,0.6c1.3,0.6,2.6,0.9,3.8,0.9c-0.3-0.3-0.6-0.7-0.9-1
					c-0.1,1.4,0.4,3,1.3,4.6l0.2-0.8c-1.3-0.1-2.5-0.2-3.8-0.4c-0.7-0.1-0.2,1.3,0.6,1.3c1.3,0.1,2.5,0.2,3.8,0.3
					c0.4,0,0.4-0.4,0.2-0.8c-0.7-1.3-1.1-2.5-1.1-3.6c0-0.4-0.4-1-0.9-1c-1.1-0.1-2.2-0.3-3.4-0.9c-0.4-0.2-0.6,0.2-0.5,0.6
					c0.5,1.4,0.9,2.8,1.3,4.2C-144.4,429.3-143.2,429.8-143.4,428.9z"/>
			</g>
		</g>
		<g>
			<g>
				<path class="st0" d="M-129.3,441.7c-0.7-1-1.3-2-1.8-3l-0.4,0.5c1.1,0.2,2.1,0.1,2.9-0.3c-0.4-0.2-0.8-0.4-1.1-0.6
					c0.2,0.6,0.5,1.2,0.9,1.9c0.2,0.3,0.5,0.6,0.7,0.9c0.3,0.4,0.9,0.7,0.2,0.8c-0.4,0.1-1.3-0.3-1.7-0.3c-0.6,0-0.9,0.2-1,0.6
					c-0.1,0.6,1.3,1.3,1.4,0.7c0.1-0.5,1.8,0.1,2.3,0.1c0.4,0,0.8-0.2,0.9-0.6c0-0.4-0.3-0.9-0.7-1.3c-0.9-0.9-1.5-1.7-1.8-2.7
					c-0.1-0.5-0.8-0.7-1.1-0.6c-0.7,0.3-1.4,0.3-2.3,0.2c-0.3,0-0.6,0.2-0.4,0.5c0.6,1.1,1.2,2.2,2,3.3
					C-129.8,442.6-128.7,442.5-129.3,441.7z"/>
			</g>
		</g>
		<g>
			<g>
				<path class="st0" d="M-114.6,450c-0.7-0.9-1.4-1.8-2.1-2.8l-0.3,0.6c0.9-0.1,1.7-0.2,2.3-0.6c-0.4-0.1-0.7-0.2-1.1-0.4
					c0.5,0.6,0.9,1.2,1.4,1.8c0.3,0.3,0.7,0.7,0.3,0.9c-0.3,0.2-0.9,0.1-1.3,0.1c-0.9,0-0.5,1,0.4,1c1.1,0,2.5-0.2,2.4-1.1
					c0-0.8-1.5-2.1-2.1-2.9c-0.2-0.3-0.8-0.5-1.1-0.4c-0.6,0.3-1.3,0.5-2.1,0.5c-0.3,0-0.5,0.3-0.3,0.6c0.6,0.9,1.3,1.9,2,2.8
					C-115.3,450.8-114,450.6-114.6,450z"/>
			</g>
		</g>
		<g>
			<g>
				<path class="st0" d="M-100.7,452.9c-0.4-0.2-0.8-0.4-1.2-0.7l-1.2-0.7l-0.1,0.6c0.8-0.4,1.4-0.7,1.8-1.3c-0.4,0-0.8-0.1-1.2-0.1
					c0.7,0.8,1.7,1.4,2.9,1.9l-0.1-0.7c-0.6,0.4-1.3,0.7-1.9,1.1c-0.7,0.4,0.3,1.1,1,0.7c0.7-0.4,1.3-0.7,1.9-1.2
					c0.3-0.2,0.2-0.6-0.2-0.7c-1-0.3-1.8-0.8-2.4-1.4c-0.2-0.2-0.9-0.4-1.2-0.1c-0.4,0.5-0.9,0.8-1.6,1.1c-0.3,0.1-0.4,0.4-0.1,0.6
					c0.8,0.5,1.5,1,2.3,1.5C-101,453.9-100,453.3-100.7,452.9z"/>
			</g>
		</g>
		<g>
			<g>
				<path class="st0" d="M-89.3,450.5c-0.5-0.1-1-0.1-1.6-0.1l0.6,0.5c0.2-0.3,0.3-0.6,0.4-0.9c-0.4,0.1-0.8,0.2-1.2,0.3
					c0.7,0.4,1.5,0.5,2.4,0.3l-0.7-0.4c0,0.3-0.2,0.5-0.6,0.7c-0.8,0.4-0.2,1.2,0.6,0.7c0.8-0.4,1.3-1,1.3-1.6
					c0-0.3-0.3-0.4-0.7-0.4c-0.5,0.1-1.1,0-1.5-0.2c-0.4-0.1-0.9,0-1.2,0.3l-0.5,0.8c-0.2,0.3,0.1,0.6,0.6,0.5c0.4,0,0.7,0,1,0.1
					C-89.3,451.6-88.5,450.6-89.3,450.5z"/>
			</g>
		</g>
	</g>
</g>
</svg>
