<?xml version="1.0" encoding="utf-8"?>
<!-- Generator: Adobe Illustrator 19.0.0, SVG Export Plug-In . SVG Version: 6.00 Build 0)  -->
<svg version="1.1" id="Layer_1" xmlns="http://www.w3.org/2000/svg" xmlns:xlink="http://www.w3.org/1999/xlink" x="0px" y="0px"
	 viewBox="-205 297 200 200" style="enable-background:new -205 297 200 200;" xml:space="preserve">
<style type="text/css">
	.st0{fill:#E1F2F4;}
</style>
<g id="XMLID_23200_">
	<g id="XMLID_10630_">
		<g id="XMLID_1530_">
			<path id="XMLID_1534_" class="st0" d="M-70.1,454.5c1.1-10.8,1.5-21.7,0-32.6c-1.5-10.6-4.8-21-7.8-31.3
				c-5.6-19.9-10.6-40.4-20.7-58.6c-0.2-0.4-0.7-0.3-0.9,0.1c-3.7,11.2-8.1,22.2-13.2,32.8c-4.8,9.8-9.8,19.3-13.4,29.6
				c-7.1,20.4-9.8,42.2-7.9,63.7c0,0.4,0.5,0.7,0.8,0.4c4.6-4.4,10.9-4.2,16.8-3.3c4.8,0.7,9.5,1.5,14.5,1.4
				c4.8-0.1,9.4-0.8,14.1-1.8c5.4-1.1,11.1-2.1,16.2,0.8c0.5,0.3,1-0.5,0.4-0.8c-3.8-2.3-7.9-2.3-12.3-1.8c-6.7,1-13.1,2.6-19.9,2.6
				c-9.7-0.1-22.5-5.7-30.5,2.1c0.3,0.1,0.5,0.2,0.8,0.4c-1.9-21.9,0.9-44.1,8.4-64.8c3.7-10.5,9.2-20.4,14-30.5
				c4.7-9.9,8.7-20.1,12.1-30.5c-0.3,0.1-0.6,0.1-0.9,0.1c10.1,18.1,15.1,38.5,20.6,58.4c2.8,9.8,6,19.8,7.6,29.9
				c1.7,11.2,1.2,22.5,0.1,33.7C-71.2,455.1-70.2,455.1-70.1,454.5L-70.1,454.5z"/>
		</g>
	</g>
	<g id="XMLID_10655_">
		<g id="XMLID_1524_">
			<path id="XMLID_1528_" class="st0" d="M-70.8,454.8c0.3,1.3,0.3,2.6,0,3.9c0.3,0,0.6,0,0.9,0c-0.3-1.1-0.7-2.2-1-3.3
				c-0.1-0.4-0.7-0.4-0.9,0c-0.4,1.2-1,2.4-1.4,3.6c0.3,0,0.6,0,0.9,0c-0.4-1.4-0.4-2.9-0.3-4.3c0.1-0.6-0.9-0.6-1,0
				c-0.1,1.5-0.1,3,0.3,4.6c0.1,0.5,0.7,0.4,0.9,0c0.4-1.2,1-2.4,1.4-3.6c-0.3,0-0.6,0-0.9,0c0.3,1.1,0.7,2.2,1,3.3
				c0.1,0.4,0.8,0.4,0.9,0c0.3-1.5,0.4-2.9,0-4.4C-70,454-70.9,454.2-70.8,454.8L-70.8,454.8z"/>
		</g>
	</g>
	<g id="XMLID_10667_">
		<g id="XMLID_1518_">
			<path id="XMLID_1522_" class="st0" d="M-134.3,457.7c0.1,1.2,0.1,2.5,0.1,3.8c0,0.4,0.5,0.7,0.8,0.4c0.6-0.7,1.2-1.4,1.8-2.1
				c-0.2,0-0.5-0.1-0.7-0.1c0.3,0.7,0.6,1.4,0.9,2.1c0.2,0.5,0.8,0.1,0.9-0.2c0.2-1.8,0.4-3.6,0.6-5.4c0.1-0.6-0.9-0.6-1,0
				c-0.2,1.8-0.4,3.6-0.6,5.4c0.3-0.1,0.6-0.1,0.9-0.2c-0.3-0.7-0.6-1.4-0.9-2.1c-0.1-0.3-0.6-0.3-0.7-0.1c-0.6,0.7-1.2,1.4-1.8,2.1
				c0.3,0.1,0.5,0.2,0.8,0.4c-0.1-1.2-0.1-2.5-0.1-3.8C-133.4,457.1-134.3,457.1-134.3,457.7L-134.3,457.7z"/>
		</g>
	</g>
	<g id="XMLID_10676_">
		<g id="XMLID_1512_">
			<path id="XMLID_1516_" class="st0" d="M-85.2,368.5c14,9,26.2,22.5,22.2,40.4c-0.3,1.2-0.8,5.5-2.7,3.9c-1.2-1.1-0.8-4.8-0.9-6.4
				c-0.2-3.7-0.6-7.4-2-10.9c-1.9-4.7-5.7-8.4-10.8-9c-0.6-0.1-0.6,0.9,0,1c8.6,1.1,11.2,10.3,11.7,17.6c0.2,3.1-0.6,8.5,3.2,9.8
				c0.3,0.1,0.5-0.1,0.6-0.3c3.7-9,3.3-19.3-1.4-27.9c-4.4-8.1-11.8-14-19.5-18.9C-85.2,367.4-85.6,368.2-85.2,368.5L-85.2,368.5z"
				/>
		</g>
	</g>
	<g id="XMLID_10684_">
		<g id="XMLID_1506_">
			<path id="XMLID_1510_" class="st0" d="M-113.6,366.2c-10.8,5.8-22.3,12.2-29.1,22.8c-5.1,7.9-9,22-1,29.4c0.2,0.1,0.4,0.1,0.7,0
				c0.4-0.4,1-0.8,1.4-1.2c0.1-0.1,0.1-0.3,0.1-0.4c-5-13.8,3.3-28.2,17.7-30.8c0.6-0.1,0.4-1-0.2-0.9c-7.1,1.3-13.4,5.5-17,11.8
				c-2,3.6-3,7.7-2.9,11.7c0,1.8,0.2,3.7,0.7,5.5c0.3,1,1.1,2.6-0.1,2.9c-1.2,0.4-2.5-3.5-2.7-4.3c-3.2-9.9,1.5-20.9,8.1-28.3
				c6.8-7.6,16-12.6,25-17.5C-112.7,366.8-113.1,366-113.6,366.2L-113.6,366.2z"/>
		</g>
	</g>
	<g id="XMLID_10692_">
		<g id="XMLID_1500_">
			<path id="XMLID_1504_" class="st0" d="M-142,416.8c0.7-0.4,1.3-1,2.1-1.2c1-0.2,2.1,0.2,2.1,1.4c-0.1,0.6,0.9,0.6,1,0
				c0.1-1.2-0.7-2.1-1.8-2.3c-1.4-0.4-2.7,0.5-3.7,1.3C-143,416.4-142.5,417.2-142,416.8L-142,416.8z"/>
		</g>
	</g>
	<g id="XMLID_10700_">
		<g id="XMLID_1494_">
			<path id="XMLID_1498_" class="st0" d="M-142.1,418.3c1.2-0.1,2.2,0.9,2.1,2c-0.1,0.6,0.9,0.6,1,0c0.2-1.6-1.3-3.2-3-2.9
				C-142.7,417.4-142.8,418.3-142.1,418.3L-142.1,418.3z"/>
		</g>
	</g>
	<g id="XMLID_10708_">
		<g id="XMLID_1488_">
			<path id="XMLID_1492_" class="st0" d="M-143.4,419c0,0.9,0.4,1.8,1,2.4c0.4,0.4,1.1-0.2,0.7-0.7c-0.4-0.5-0.7-1.1-0.7-1.8
				C-142.5,418.4-143.5,418.4-143.4,419L-143.4,419z"/>
		</g>
	</g>
	<g id="XMLID_10716_">
		<g id="XMLID_1482_">
			<path id="XMLID_1486_" class="st0" d="M-144.8,418.4c-1.7,1.4-1.3,4.4,0.7,5.4c0.5,0.2,1-0.6,0.4-0.8c-1.5-0.7-1.8-2.8-0.5-3.8
				C-143.7,418.7-144.4,418-144.8,418.4L-144.8,418.4z"/>
		</g>
	</g>
	<g id="XMLID_10725_">
		<g id="XMLID_1476_">
			<path id="XMLID_1480_" class="st0" d="M-66.8,410c-0.6-0.8-1.6-1.2-2.6-0.8c-1,0.4-1.4,1.5-1.2,2.4c0.1,0.6,1,0.4,0.9-0.2
				c-0.3-1.2,1.3-1.9,2.1-0.9C-67.2,410.9-66.4,410.5-66.8,410L-66.8,410z"/>
		</g>
	</g>
	<g id="XMLID_10733_">
		<g id="XMLID_1470_">
			<path id="XMLID_1474_" class="st0" d="M-67.5,411.9c-1.2,0.7-1.8,2-1.8,3.4c0,0.6,1,0.6,1,0c0-1,0.4-2,1.4-2.6
				C-66.5,412.4-67,411.6-67.5,411.9L-67.5,411.9z"/>
		</g>
	</g>
	<g id="XMLID_10741_">
		<g id="XMLID_1464_">
			<path id="XMLID_1468_" class="st0" d="M-65.9,413.8c0.7,1,0.5,2.1-0.4,2.9c-0.4,0.4,0.2,1.1,0.7,0.7c1.1-1,1.3-2.8,0.5-4
				C-65.4,412.8-66.2,413.3-65.9,413.8L-65.9,413.8z"/>
		</g>
	</g>
	<g id="XMLID_10749_">
		<g id="XMLID_1458_">
			<path id="XMLID_1462_" class="st0" d="M-63.8,414.3c1.8-0.3,3.3,2.1,2.4,3.7c-0.3,0.5,0.5,1,0.8,0.4c1.3-2.3-0.9-5.4-3.5-5.1
				C-64.6,413.5-64.4,414.4-63.8,414.3L-63.8,414.3z"/>
		</g>
	</g>
	<g id="XMLID_10757_">
		<g id="XMLID_1452_">
			<path id="XMLID_1456_" class="st0" d="M-104.7,347.5c-1.5,0.1-3.2,0.2-4.7,0.4c-0.7,0.1-1.8,0.4-2.3,0.2
				c-0.8-0.3-0.7-0.7-0.6-1.7c0.4-3,2.3-5.9,4.4-8.1c-0.2-0.2-0.4-0.4-0.7-0.7c-1.6,1.8-3.1,3.8-4.3,5.9c-1,1.8-2.9,4.6-3.1,6.6
				c-0.1,0.8,0,1,0.7,1.2c1,0.4,2.9-0.1,4-0.1c1.6-0.1,3.2-0.1,4.8-0.1c0.6,0,0.6-1,0-1c-1.9,0.1-3.9,0.1-5.8,0.1
				c-0.2,0-2.7,0.2-2.9,0c-0.1-0.2,1.2-3.2,1.2-3c1.5-3.3,3.5-6.3,5.9-9.1c0.4-0.4-0.2-1.1-0.7-0.7c-2.9,3.1-4.6,6.8-5.1,11
				c0,0.2,0.2,0.5,0.4,0.4c2.8-0.2,5.7-0.4,8.4-0.7C-104.1,348.4-104.1,347.4-104.7,347.5L-104.7,347.5z"/>
		</g>
	</g>
	<g id="XMLID_10765_">
		<g id="XMLID_1446_">
			<path id="XMLID_1450_" class="st0" d="M-92.2,348c2.4-0.1,4.8-0.3,7.2-0.4c0.7-0.1,2.1,0.1,2.6-0.6c1.5-1.7-1.2-7-1.9-8.7
				c-0.3,0.1-0.5,0.3-0.8,0.4c2.6,2.3,6.3,6.2,6.9,9.8c0.1,1.1,0.5,1-0.7,1.4c-0.9,0.3-2,0.2-2.9,0.4c-2.3,0.3-4.7,0.6-7,0.9
				c-0.6,0.1-0.6,1,0,1c4-0.4,7.9-1,11.8-1.4c0.3,0,0.6-0.3,0.4-0.6c-1.5-4.7-4.2-8.7-7.8-12.1c-0.3-0.3-1,0-0.8,0.4
				c0.5,1.4,3.1,6.8,1.3,8c-0.4,0.3-3,0.2-3.6,0.2c-1.6,0.1-3.2,0.2-4.8,0.3C-92.8,347.1-92.8,348.1-92.2,348L-92.2,348z"/>
		</g>
	</g>
	<g id="XMLID_10774_">
		<g id="XMLID_1440_">
			<path id="XMLID_1444_" class="st0" d="M-92.6,347.7c-3.3,0.1-7.1-0.4-10.4,0.4c-1.9,0.4-3.3,1.7-3.2,3.7c0,0.3,0.2,0.4,0.4,0.4
				c4.8,0.6,9.5,1,14.3,1c0.4,0,0.5-0.3,0.4-0.6c-0.2-1.6-0.7-2.9-1.6-4.2c-0.4-0.5-1-0.1-0.8,0.4c0.4,0.9,0.7,1.8,0.6,2.9
				c0.3-0.1,0.6-0.1,0.9-0.2c-0.7-0.9-1.2-1.8-1.9-2.7c-0.3-0.4-1-0.1-0.9,0.4c0.4,1.2,0.7,2.3,1.1,3.5c0.3-0.1,0.6-0.2,0.9-0.4
				c-0.8-1.3-1.6-2.7-2.5-4c-0.3-0.4-1-0.1-0.9,0.4c0.3,1.1,0.5,2.2,0.8,3.4c0.3-0.1,0.6-0.2,0.9-0.4c-0.7-1-1.3-2-2-2.9
				c-0.3-0.4-1-0.1-0.9,0.4c0.3,1,0.7,2,1,2.9c0.3-0.1,0.6-0.2,0.9-0.4c-0.8-1-1.5-2.1-2.3-3.1c-0.3-0.4-1-0.2-0.9,0.4
				c0.3,1.1,0.7,2.1,1,3.2c0.3-0.1,0.6-0.2,0.9-0.4c-0.6-0.9-1.2-1.8-1.8-2.6c-0.2-0.4-0.9-0.3-0.9,0.2c0.1,1.1,0.3,1.8,0.8,2.8
				c0.2-0.2,0.5-0.4,0.7-0.6c-0.7-1-1.5-1.8-2.3-2.8c-0.3-0.4-0.9,0-0.8,0.4c0.2,0.9,0.4,1.8,0.7,2.6c0.3-0.1,0.5-0.3,0.8-0.4
				c-0.7-0.7-1.2-1.4-1.7-2.2c-0.2-0.4-0.9-0.2-0.9,0.2c0,0.6,0.1,1.1,0.1,1.7c0.3-0.1,0.5-0.2,0.8-0.4c-0.5-0.6-1-1.2-1.6-1.8
				c-0.3-0.4-0.9,0-0.8,0.4c0.1,0.6,0.1,1.2,0.3,1.8c0.3-0.1,0.6-0.1,1-0.1c-0.4-1-0.7-1.4-1.6-2c-0.4-0.2-0.7,0.1-0.7,0.5
				c0.1,0.4,0.1,0.9,0.2,1.3c0.3-0.1,0.6-0.2,0.9-0.4c-0.3-0.4-0.5-0.8-0.8-1.2c-0.2-0.4-0.9-0.2-0.9,0.2c0,0.4,0,0.7,0,1.1
				c0,0.6,1,0.6,1,0c0-0.4,0-0.7,0-1.1c-0.3,0.1-0.6,0.1-0.9,0.2c0.3,0.4,0.5,0.8,0.8,1.2s1,0.1,0.9-0.4c-0.1-0.4-0.1-0.9-0.2-1.3
				c-0.2,0.1-0.4,0.4-0.7,0.5c0.4,0.4,0.8,1,1.2,1.4c0.1,0.4,1,0.4,1-0.1c0-1.2,0-0.9-0.3-2c-0.3,0.1-0.5,0.3-0.8,0.4
				c0.5,0.6,1,1.2,1.6,1.8c0.3,0.3,0.8,0.1,0.8-0.4c0-0.6-0.1-1.1-0.1-1.7c-0.3,0.1-0.6,0.1-0.9,0.2c0.5,0.9,1.1,1.6,1.8,2.4
				c0.3,0.4,0.9,0,0.8-0.4c-0.2-0.9-0.4-1.8-0.7-2.6c-0.3,0.1-0.5,0.3-0.8,0.4c0.7,1,1.5,1.8,2.3,2.8c0.4,0.4,1-0.1,0.7-0.6
				c-0.2-0.8-0.4-1.5-0.7-2.3c-0.3,0.1-0.6,0.1-0.9,0.2c0.6,0.9,1.2,1.8,1.8,2.6c0.3,0.4,1,0.1,0.9-0.4c-0.3-1.1-0.7-2.1-1-3.2
				c-0.3,0.1-0.6,0.2-0.9,0.4c0.8,1,1.5,2.1,2.3,3.1c0.3,0.4,1,0.2,0.9-0.4c-0.3-1-0.7-2-1-2.9c-0.3,0.1-0.6,0.2-0.9,0.4
				c0.7,1,1.3,2,2,2.9c0.3,0.4,1,0.1,0.9-0.4c-0.3-1.1-0.5-2.2-0.8-3.4c-0.3,0.1-0.6,0.2-0.9,0.4c0.8,1.3,1.6,2.7,2.5,4
				c0.3,0.4,1,0.1,0.9-0.4c-0.4-1.2-0.7-2.3-1.1-3.5c-0.3,0.1-0.6,0.2-0.9,0.4c0.7,0.9,1.2,1.8,1.9,2.7c0.2,0.4,0.9,0.3,0.9-0.2
				c0-1.2-0.3-2.3-0.7-3.4c-0.3,0.1-0.5,0.3-0.8,0.4c0.9,1.2,1.3,2.5,1.5,4c0.1-0.2,0.3-0.4,0.4-0.6c-2.2-0.1-4.4-0.1-6.6-0.3
				c-1.6-0.1-4.6,0.1-6-0.6c-2.1-1,1.3-2.6,2.6-2.7c1-0.1,1.9-0.1,2.9-0.1c2-0.1,4-0.1,6-0.1C-92,348.6-92,347.7-92.6,347.7
				L-92.6,347.7z"/>
		</g>
	</g>
	<g id="XMLID_10782_">
		<g id="XMLID_1434_">
			<path id="XMLID_1438_" class="st0" d="M-99.2,355.3c0-0.1,0-0.3,0-0.4c0-0.6-1-0.6-1,0c0,0.1,0,0.3,0,0.4
				C-100.2,355.9-99.2,355.9-99.2,355.3L-99.2,355.3z"/>
		</g>
	</g>
	<g id="XMLID_10790_">
		<g id="XMLID_1428_">
			<path id="XMLID_1432_" class="st0" d="M-97.5,354.6c-0.7,1,1.2,1.4,1.2,0.3c0-0.6-0.9-0.6-1,0c0-0.5,0.8-0.2,0.4,0.4
				C-96.5,354.8-97.2,354.2-97.5,354.6L-97.5,354.6z"/>
		</g>
	</g>
	<g id="XMLID_10798_">
		<g id="XMLID_1422_">
			<path id="XMLID_1426_" class="st0" d="M-102.5,360.7c0.8,0.7,1.4,1.5,1.9,2.4c0.1,0.3,0.7,0.3,0.8,0c0.6-1.1,1.2-2.1,1.8-3.2
				c-0.3-0.1-0.6-0.1-0.9-0.1c0.3,1,0.6,1.9,1,2.8c0.1,0.3,0.5,0.4,0.8,0.2c0.9-0.9,1.8-1.8,2.6-2.6c-0.3-0.1-0.5-0.1-0.8-0.2
				c0.7,2.1,0.8,4.3,0.4,6.4c0.3-0.1,0.5-0.1,0.8-0.2c-0.8-0.7-1.4-1.5-1.9-2.5c-0.1-0.3-0.5-0.3-0.7-0.1c-0.9,0.8-1.7,1.5-2.6,2.3
				c0.3,0.1,0.5,0.3,0.8,0.4c0.2-1-0.3-2-1.3-2.3c-1.2-0.4-2.3,0.5-3,1.5c0.3,0.1,0.6,0.1,0.9,0.2c-0.2-1.8,0-3.6,0.6-5.4
				c0.2-0.6-0.7-0.8-0.9-0.2c-0.7,1.8-0.9,3.7-0.7,5.6c0.1,0.4,0.6,0.7,0.9,0.2c0.2-0.7,0.7-0.9,1.4-0.7c0.9-0.4,1.2-0.1,1.2,0.8
				c-0.1,0.4,0.4,0.8,0.8,0.4c0.9-0.8,1.7-1.5,2.6-2.3c-0.2,0-0.5-0.1-0.7-0.1c0.5,1,1.2,1.8,2.1,2.6c0.2,0.2,0.7,0.1,0.8-0.2
				c0.4-2.3,0.2-4.6-0.4-6.9c-0.1-0.4-0.5-0.4-0.8-0.2c-0.9,0.9-1.8,1.8-2.6,2.6c0.3,0.1,0.5,0.1,0.8,0.2c-0.3-1-0.6-1.9-1-2.8
				c-0.1-0.4-0.7-0.5-0.9-0.1c-0.6,1.1-1.2,2.1-1.8,3.2c0.3,0,0.5,0,0.8,0c-0.5-1-1.2-1.8-2.1-2.6
				C-102.3,359.6-103,360.2-102.5,360.7L-102.5,360.7z"/>
		</g>
	</g>
	<g id="XMLID_10805_">
		<g id="XMLID_1416_">
			<path id="XMLID_1420_" class="st0" d="M-97.3,339.7c0.1,0.7,0.3,1.4,0.4,2.1c0.1,0.6,1,0.4,0.9-0.2c-0.1-0.7-0.3-1.4-0.4-2.1
				S-97.5,339.1-97.3,339.7L-97.3,339.7z"/>
		</g>
	</g>
	<g id="XMLID_10812_">
		<g id="XMLID_1410_">
			<path id="XMLID_1414_" class="st0" d="M-98.1,340.8c0,0.6,0,1.1,0,1.7s1,0.6,1,0s0-1.1,0-1.7C-97.2,340.2-98.1,340.2-98.1,340.8
				L-98.1,340.8z"/>
		</g>
	</g>
	<g id="XMLID_10819_">
		<g id="XMLID_1404_">
			<path id="XMLID_1408_" class="st0" d="M-97.6,340.3c-1.7,0.1-2.8,2.1-2,3.6c0.3,0.5,1.1,0.1,0.8-0.4c-0.5-0.9,0.1-2.1,1.2-2.2
				C-97,341.2-97,340.2-97.6,340.3L-97.6,340.3z"/>
		</g>
	</g>
	<g id="XMLID_10826_">
		<g id="XMLID_1398_">
			<path id="XMLID_1402_" class="st0" d="M-101.4,344.4c-0.1,0.6-0.3,1.1-0.4,1.7s0.7,0.8,0.9,0.2c0.1-0.6,0.3-1.1,0.4-1.7
				S-101.3,343.8-101.4,344.4L-101.4,344.4z"/>
		</g>
	</g>
	<g id="XMLID_10833_">
		<g id="XMLID_1392_">
			<path id="XMLID_1396_" class="st0" d="M-98.5,345.3c0,0.3,0,0.6,0,0.8c0,0.6,1,0.6,1,0c0-0.3,0-0.6,0-0.8
				C-97.5,344.8-98.5,344.8-98.5,345.3L-98.5,345.3z"/>
		</g>
	</g>
	<g id="XMLID_10840_">
		<g id="XMLID_1386_">
			<path id="XMLID_1390_" class="st0" d="M-96.1,345.8c0.1,0.1,0.1,0.1,0.1,0.2c-0.2,0.6,0.7,0.8,0.9,0.2c0.2-0.6-0.1-1.2-0.7-1.4
				C-96.4,344.7-96.6,345.6-96.1,345.8L-96.1,345.8z"/>
		</g>
	</g>
	<g id="XMLID_10847_">
		<g id="XMLID_1380_">
			<path id="XMLID_1384_" class="st0" d="M-98.9,336.6c0,0.6,0,1.1,0,1.7c0,0.6,1,0.6,1,0c0-0.6,0-1.1,0-1.7S-98.9,336-98.9,336.6
				L-98.9,336.6z"/>
		</g>
	</g>
	<g id="XMLID_10854_">
		<g id="XMLID_1374_">
			<path id="XMLID_1378_" class="st0" d="M-93.5,357c0,0.6,0,1.1,0,1.7c0,0.6,1,0.6,1,0c0-0.6,0-1.1,0-1.7S-93.5,356.4-93.5,357
				L-93.5,357z"/>
		</g>
	</g>
	<g id="XMLID_10861_">
		<g id="XMLID_1368_">
			<path id="XMLID_1372_" class="st0" d="M-92.2,355.5c0.3,0.6,0.6,1.1,0.8,1.7c0.3,0.5,1.1,0.1,0.8-0.4c-0.3-0.6-0.6-1.1-0.8-1.7
				C-91.7,354.6-92.5,355-92.2,355.5L-92.2,355.5z"/>
		</g>
	</g>
	<g id="XMLID_10868_">
		<g id="XMLID_1362_">
			<path id="XMLID_1366_" class="st0" d="M-90.1,361.1c-0.1,1,0.1,1.9,0.9,2.6c0.4,0.4,1.1-0.3,0.7-0.7c-0.5-0.4-0.8-1-0.7-1.6
				C-89.2,360.7-90,360.5-90.1,361.1L-90.1,361.1z"/>
		</g>
	</g>
	<g id="XMLID_10875_">
		<g id="XMLID_1356_">
			<path id="XMLID_1360_" class="st0" d="M-92.2,362c0,0.8,0,1.7,0,2.5c0,0.6,1,0.6,1,0c0-0.8,0-1.7,0-2.5
				C-91.3,361.4-92.2,361.4-92.2,362L-92.2,362z"/>
		</g>
	</g>
	<g id="XMLID_10882_">
		<g id="XMLID_1350_">
			<path id="XMLID_1354_" class="st0" d="M-92.2,368.3c0,0.3,0,0.6,0,0.8c0,0.6,1,0.6,1,0c0-0.3,0-0.6,0-0.8
				C-91.3,367.7-92.2,367.7-92.2,368.3L-92.2,368.3z"/>
		</g>
	</g>
	<g id="XMLID_10889_">
		<g id="XMLID_1344_">
			<path id="XMLID_1348_" class="st0" d="M-88.9,368c0.1,0.7,0.3,1.4,0.4,2.1c0.1,0.6,1,0.4,0.9-0.2c-0.1-0.7-0.3-1.4-0.4-2.1
				C-88.1,367.1-89,367.4-88.9,368L-88.9,368z"/>
		</g>
	</g>
	<g id="XMLID_10896_">
		<g id="XMLID_1338_">
			<path id="XMLID_1342_" class="st0" d="M-86.9,373.8c0.1,0.6,0.3,1.1,0.4,1.7s1,0.4,0.9-0.2c-0.1-0.6-0.3-1.1-0.4-1.7
				S-87,373.2-86.9,373.8L-86.9,373.8z"/>
		</g>
	</g>
	<g id="XMLID_10903_">
		<g id="XMLID_1332_">
			<path id="XMLID_1336_" class="st0" d="M-85.2,379.5c0,0.1,0,0.3,0,0.4c0,0.6,1,0.6,1,0c0-0.1,0-0.3,0-0.4
				C-84.2,378.9-85.2,378.8-85.2,379.5L-85.2,379.5z"/>
		</g>
	</g>
	<g id="XMLID_10910_">
		<g id="XMLID_1326_">
			<path id="XMLID_1330_" class="st0" d="M-90.2,373.2c0,1.1,0,2.2,0,3.3c0,0.6,1,0.6,1,0c0-1.1,0-2.2,0-3.3
				C-89.2,372.7-90.2,372.6-90.2,373.2L-90.2,373.2z"/>
		</g>
	</g>
	<g id="XMLID_10917_">
		<g id="XMLID_1320_">
			<path id="XMLID_1324_" class="st0" d="M-93.9,370.7c0,0.6,0,1.1,0,1.7s1,0.6,1,0s0-1.1,0-1.7C-93,370.2-93.9,370.2-93.9,370.7
				L-93.9,370.7z"/>
		</g>
	</g>
	<g id="XMLID_10924_">
		<g id="XMLID_1314_">
			<path id="XMLID_1318_" class="st0" d="M-96.1,368.5c-0.1,0.4-0.3,0.8-0.4,1.2c-0.2,0.6,0.7,0.8,0.9,0.2c0.1-0.4,0.3-0.8,0.4-1.2
				C-95,368.2-95.9,368-96.1,368.5L-96.1,368.5z"/>
		</g>
	</g>
	<g id="XMLID_10931_">
		<g id="XMLID_1308_">
			<path id="XMLID_1312_" class="st0" d="M-100.6,369.5c0,0.4-0.3,0.7-0.6,0.8c-0.5,0.3-0.1,1.1,0.4,0.8c0.7-0.3,1-1,1-1.6
				C-99.6,368.9-100.5,368.9-100.6,369.5L-100.6,369.5z"/>
		</g>
	</g>
	<g id="XMLID_10938_">
		<g id="XMLID_1302_">
			<path id="XMLID_1306_" class="st0" d="M-104.3,367.2c-0.3,0.6-0.6,1.1-0.8,1.7c-0.3,0.5,0.5,1,0.8,0.4c0.3-0.6,0.6-1.1,0.8-1.7
				C-103.2,367.1-104,366.6-104.3,367.2L-104.3,367.2z"/>
		</g>
	</g>
	<g id="XMLID_10945_">
		<g id="XMLID_1296_">
			<path id="XMLID_1300_" class="st0" d="M-106.4,365.5c-0.1,0.3-0.3,0.6-0.4,0.8c-0.3,0.5,0.5,1,0.8,0.4c0.1-0.3,0.3-0.6,0.4-0.8
				C-105.3,365.4-106.1,364.9-106.4,365.5L-106.4,365.5z"/>
		</g>
	</g>
	<g id="XMLID_10952_">
		<g id="XMLID_1290_">
			<path id="XMLID_1294_" class="st0" d="M-106.8,362.2c-0.4,0.6-0.8,1.1-1.2,1.7c-0.4,0.5,0.4,1,0.8,0.4c0.4-0.6,0.8-1.1,1.2-1.7
				C-105.6,362.2-106.4,361.7-106.8,362.2L-106.8,362.2z"/>
		</g>
	</g>
	<g id="XMLID_10959_">
		<g id="XMLID_1284_">
			<path id="XMLID_1288_" class="st0" d="M-107.4,359.5c-1,0.7-1.6,1.6-1.8,2.8c-0.1,0.6,0.8,0.8,0.9,0.2c0.1-0.9,0.7-1.7,1.4-2.3
				C-106.5,360-106.9,359.1-107.4,359.5L-107.4,359.5z"/>
		</g>
	</g>
	<g id="XMLID_10966_">
		<g id="XMLID_1278_">
			<path id="XMLID_1282_" class="st0" d="M-112.7,370.3c0,0.4,0,0.8,0,1.2c0,0.6,1,0.6,1,0c0-0.4,0-0.8,0-1.2
				C-111.7,369.7-112.7,369.7-112.7,370.3L-112.7,370.3z"/>
		</g>
	</g>
	<g id="XMLID_10973_">
		<g id="XMLID_1272_">
			<path id="XMLID_1276_" class="st0" d="M-110.1,369.8c-0.2,1-0.5,2-0.7,2.9c-0.1,0.6,0.7,0.8,0.9,0.2c0.2-1,0.5-2,0.7-2.9
				C-109.1,369.4-109.9,369.2-110.1,369.8L-110.1,369.8z"/>
		</g>
	</g>
	<g id="XMLID_10980_">
		<g id="XMLID_1266_">
			<path id="XMLID_1270_" class="st0" d="M-108.1,371.9c-0.1,0.7-0.3,1.4-0.4,2.1c-0.1,0.6,0.8,0.8,0.9,0.2c0.1-0.7,0.3-1.4,0.4-2.1
				C-107.1,371.5-108,371.3-108.1,371.9L-108.1,371.9z"/>
		</g>
	</g>
	<g id="XMLID_10987_">
		<g id="XMLID_1260_">
			<path id="XMLID_1264_" class="st0" d="M-105.2,373.9c-0.1,0.6-0.3,1.1-0.4,1.7s0.7,0.8,0.9,0.2c0.1-0.6,0.3-1.1,0.4-1.7
				C-104.1,373.6-105.1,373.3-105.2,373.9L-105.2,373.9z"/>
		</g>
	</g>
	<g id="XMLID_10994_">
		<g id="XMLID_1254_">
			<path id="XMLID_1258_" class="st0" d="M-102.6,374.3c-0.1,0.6-0.3,1.1-0.4,1.7s0.7,0.8,0.9,0.2c0.1-0.6,0.3-1.1,0.4-1.7
				C-101.6,374.1-102.4,373.8-102.6,374.3L-102.6,374.3z"/>
		</g>
	</g>
	<g id="XMLID_11001_">
		<g id="XMLID_1248_">
			<path id="XMLID_1252_" class="st0" d="M-99.4,374.9c0,0.6,0,1.1,0,1.7s1,0.6,1,0s0-1.1,0-1.7S-99.4,374.3-99.4,374.9L-99.4,374.9
				z"/>
		</g>
	</g>
	<g id="XMLID_11008_">
		<g id="XMLID_1242_">
			<path id="XMLID_1246_" class="st0" d="M-96.9,375.2c-0.1,0.6-0.3,1.1-0.4,1.7s0.7,0.8,0.9,0.2c0.1-0.6,0.3-1.1,0.4-1.7
				C-95.8,374.9-96.7,374.6-96.9,375.2L-96.9,375.2z"/>
		</g>
	</g>
	<g id="XMLID_11015_">
		<g id="XMLID_1236_">
			<path id="XMLID_1240_" class="st0" d="M-93.9,381.1c0,0.4,0,0.8,0,1.2c0,0.6,1,0.6,1,0c0-0.4,0-0.8,0-1.2
				C-93,380.5-93.9,380.5-93.9,381.1L-93.9,381.1z"/>
		</g>
	</g>
	<g id="XMLID_11022_">
		<g id="XMLID_1230_">
			<path id="XMLID_1234_" class="st0" d="M-92,378.6c-0.7,0.4-0.8,1.2-0.5,1.9c0.2,0.5,1,0.1,0.8-0.4c-0.1-0.2,0-0.5,0.2-0.6
				C-91.1,379.1-91.6,378.2-92,378.6L-92,378.6z"/>
		</g>
	</g>
	<g id="XMLID_11029_">
		<g id="XMLID_1224_">
			<path id="XMLID_1228_" class="st0" d="M-93,374.3c-0.1,0.6-0.3,1.1-0.4,1.7s0.7,0.8,0.9,0.2c0.2-0.6,0.3-1.1,0.4-1.7
				C-91.9,374.1-92.9,373.8-93,374.3L-93,374.3z"/>
		</g>
	</g>
	<g id="XMLID_11036_">
		<g id="XMLID_1218_">
			<path id="XMLID_1222_" class="st0" d="M-88.9,382.8c0,0.7,0,1.4,0,2.1c0,0.6,1,0.6,1,0c0-0.7,0-1.4,0-2.1
				C-88,382.2-88.9,382.2-88.9,382.8L-88.9,382.8z"/>
		</g>
	</g>
	<g id="XMLID_11043_">
		<g id="XMLID_1212_">
			<path id="XMLID_1216_" class="st0" d="M-85.6,385.7c0,0.8,0,1.7,0,2.5c0,0.6,1,0.6,1,0c0-0.8,0-1.7,0-2.5
				C-84.7,385.1-85.6,385.1-85.6,385.7L-85.6,385.7z"/>
		</g>
	</g>
	<g id="XMLID_11050_">
		<g id="XMLID_1206_">
			<path id="XMLID_1210_" class="st0" d="M-83.1,387c-0.2,1.8,0.3,3.5,1.4,4.9c0.4,0.4,1-0.2,0.7-0.7c-1-1.2-1.3-2.7-1.1-4.3
				C-82,386.4-83,386.4-83.1,387L-83.1,387z"/>
		</g>
	</g>
	<g id="XMLID_11057_">
		<g id="XMLID_1200_">
			<path id="XMLID_1204_" class="st0" d="M-80.6,395c0.3,0.8,0.5,1.7,0.8,2.5c0.2,0.6,1.1,0.3,0.9-0.2c-0.3-0.8-0.5-1.7-0.8-2.5
				C-79.9,394.2-80.8,394.4-80.6,395L-80.6,395z"/>
		</g>
	</g>
	<g id="XMLID_11064_">
		<g id="XMLID_1194_">
			<path id="XMLID_1198_" class="st0" d="M-93.1,388.2c0,0.8,0,1.7,0,2.5c0,0.6,1,0.6,1,0c0-0.8,0-1.7,0-2.5
				C-92.2,387.6-93.1,387.6-93.1,388.2L-93.1,388.2z"/>
		</g>
	</g>
	<g id="XMLID_11071_">
		<g id="XMLID_1188_">
			<path id="XMLID_1192_" class="st0" d="M-96,384.5c0,0.6,0,1.1,0,1.7c0,0.6,1,0.6,1,0c0-0.6,0-1.1,0-1.7S-96,383.8-96,384.5
				L-96,384.5z"/>
		</g>
	</g>
	<g id="XMLID_11078_">
		<g id="XMLID_1182_">
			<path id="XMLID_1186_" class="st0" d="M-98,380.1c-0.4,0.9-0.6,1.8-0.4,2.7c0.1,0.6,1,0.6,1,0c-0.1-0.8,0-1.5,0.4-2.3
				C-96.9,380-97.7,379.5-98,380.1L-98,380.1z"/>
		</g>
	</g>
	<g id="XMLID_11085_">
		<g id="XMLID_1176_">
			<path id="XMLID_1180_" class="st0" d="M-101.4,380.6c-0.1,0.7-0.3,1.4-0.4,2.1c-0.1,0.6,0.8,0.8,0.9,0.2c0.1-0.7,0.3-1.4,0.4-2.1
				C-100.4,380.2-101.3,380-101.4,380.6L-101.4,380.6z"/>
		</g>
	</g>
	<g id="XMLID_11092_">
		<g id="XMLID_1170_">
			<path id="XMLID_1174_" class="st0" d="M-109.3,380.4c0.1,0.2,0.1,0.5-0.1,0.7c-0.5,0.4,0,1.2,0.4,0.8c0.6-0.4,0.9-1.1,0.6-1.8
				c-0.1-0.2-0.3-0.4-0.6-0.3C-109.2,379.9-109.4,380.2-109.3,380.4L-109.3,380.4z"/>
		</g>
	</g>
	<g id="XMLID_11099_">
		<g id="XMLID_1164_">
			<path id="XMLID_1168_" class="st0" d="M-110.1,375.6c-0.1,0.8-0.4,1.7-0.5,2.5c-0.1,0.6,0.8,0.8,0.9,0.2c0.1-0.8,0.4-1.7,0.5-2.5
				C-109.1,375.3-109.9,375-110.1,375.6L-110.1,375.6z"/>
		</g>
	</g>
	<g id="XMLID_11106_">
		<g id="XMLID_1158_">
			<path id="XMLID_1162_" class="st0" d="M-113.1,375.2c-0.4,1.1-0.8,2.2-1.2,3.4c-0.2,0.6,0.7,0.8,0.9,0.2c0.4-1.1,0.8-2.2,1.2-3.4
				C-112,374.9-112.9,374.6-113.1,375.2L-113.1,375.2z"/>
		</g>
	</g>
	<g id="XMLID_11113_">
		<g id="XMLID_1152_">
			<path id="XMLID_1156_" class="st0" d="M-116.3,381.2c-0.5,0.6-0.7,1.3-0.5,2.1c0.1,0.6,1,0.4,0.9-0.2c-0.1-0.4,0-0.9,0.3-1.2
				C-115.2,381.4-115.9,380.7-116.3,381.2L-116.3,381.2z"/>
		</g>
	</g>
	<g id="XMLID_11120_">
		<g id="XMLID_1146_">
			<path id="XMLID_1150_" class="st0" d="M-106.9,378.6c0,0.7,0,1.4,0,2.1c0,0.6,1,0.6,1,0c0-0.7,0-1.4,0-2.1
				C-105.9,378-106.9,378-106.9,378.6L-106.9,378.6z"/>
		</g>
	</g>
	<g id="XMLID_11127_">
		<g id="XMLID_1140_">
			<path id="XMLID_1144_" class="st0" d="M-105.6,382.6c-0.1,0.6-0.3,1.1-0.4,1.7c-0.1,0.6,0.7,0.8,0.9,0.2c0.1-0.6,0.3-1.1,0.4-1.7
				C-104.5,382.4-105.5,382.1-105.6,382.6L-105.6,382.6z"/>
		</g>
	</g>
	<g id="XMLID_11134_">
		<g id="XMLID_1134_">
			<path id="XMLID_1138_" class="st0" d="M-103.9,386.2c-0.4,0.9-0.6,1.9-0.4,2.9c0.1,0.6,1,0.4,0.9-0.2c-0.1-0.7-0.1-1.5,0.2-2.2
				C-102.9,386.2-103.7,385.7-103.9,386.2L-103.9,386.2z"/>
		</g>
	</g>
	<g id="XMLID_11141_">
		<g id="XMLID_1128_">
			<path id="XMLID_1132_" class="st0" d="M-100.9,386.8c-0.1,0.8-0.4,1.7-0.5,2.5c-0.1,0.6,0.8,0.8,0.9,0.2c0.1-0.8,0.4-1.7,0.5-2.5
				C-99.9,386.5-100.8,386.2-100.9,386.8L-100.9,386.8z"/>
		</g>
	</g>
	<g id="XMLID_11148_">
		<g id="XMLID_1122_">
			<path id="XMLID_1126_" class="st0" d="M-97.7,390.3c0,0.8,0,1.7,0,2.5c0,0.6,1,0.6,1,0c0-0.8,0-1.7,0-2.5
				C-96.7,389.7-97.7,389.7-97.7,390.3L-97.7,390.3z"/>
		</g>
	</g>
	<g id="XMLID_11155_">
		<g id="XMLID_1116_">
			<path id="XMLID_1120_" class="st0" d="M-93.9,395.7c0,0.6,0,1.1,0,1.7s1,0.6,1,0s0-1.1,0-1.7C-93,395.1-93.9,395.1-93.9,395.7
				L-93.9,395.7z"/>
		</g>
	</g>
	<g id="XMLID_11162_">
		<g id="XMLID_1110_">
			<path id="XMLID_1114_" class="st0" d="M-89.4,390.7c0,0.7,0,1.4,0,2.1c0,0.6,1,0.6,1,0c0-0.7,0-1.4,0-2.1
				C-88.4,390.1-89.4,390.1-89.4,390.7L-89.4,390.7z"/>
		</g>
	</g>
	<g id="XMLID_11169_">
		<g id="XMLID_1104_">
			<path id="XMLID_1108_" class="st0" d="M-86,392.5c0.1,0.7,0.3,1.4,0.4,2.1c0.1,0.6,1,0.4,0.9-0.2c-0.1-0.7-0.3-1.4-0.4-2.1
				C-85.2,391.7-86.1,391.9-86,392.5L-86,392.5z"/>
		</g>
	</g>
	<g id="XMLID_11176_">
		<g id="XMLID_1098_">
			<path id="XMLID_1102_" class="st0" d="M-82.7,395.7c0,1,0,1.9,0,2.9c0,0.6,1,0.6,1,0c0-1,0-1.9,0-2.9
				C-81.7,395.1-82.7,395.1-82.7,395.7L-82.7,395.7z"/>
		</g>
	</g>
	<g id="XMLID_11183_">
		<g id="XMLID_1092_">
			<path id="XMLID_1096_" class="st0" d="M-80.6,403.7c0.1,0.6,0.3,1.1,0.4,1.7s1,0.4,0.9-0.2c-0.1-0.6-0.3-1.1-0.4-1.7
				S-80.7,403.1-80.6,403.7L-80.6,403.7z"/>
		</g>
	</g>
	<g id="XMLID_11190_">
		<g id="XMLID_1086_">
			<path id="XMLID_1090_" class="st0" d="M-77.6,403.6c0,1.3,0.4,2.6,1.1,3.6c0.4,0.5,1.2,0,0.8-0.4c-0.7-1-1-2-1-3.2
				C-76.7,403-77.6,403-77.6,403.6L-77.6,403.6z"/>
		</g>
	</g>
	<g id="XMLID_11197_">
		<g id="XMLID_1080_">
			<path id="XMLID_1084_" class="st0" d="M-74.8,412.1c0.3,1,0.6,1.9,0.9,2.9c0.1,0.6,1.1,0.4,0.9-0.2c-0.3-1-0.6-1.9-0.9-2.9
				C-74.2,411.3-75.1,411.5-74.8,412.1L-74.8,412.1z"/>
		</g>
	</g>
	<g id="XMLID_11204_">
		<g id="XMLID_1074_">
			<path id="XMLID_1078_" class="st0" d="M-74.8,416.5c0,0.6,0,1.1,0,1.7c0,0.6,1,0.6,1,0c0-0.6,0-1.1,0-1.7
				C-73.9,415.9-74.8,415.9-74.8,416.5L-74.8,416.5z"/>
		</g>
	</g>
	<g id="XMLID_11211_">
		<g id="XMLID_1068_">
			<path id="XMLID_1072_" class="st0" d="M-79.4,409.8c0,0.7,0,1.4,0,2.1c0,0.6,1,0.6,1,0c0-0.7,0-1.4,0-2.1
				C-78.4,409.2-79.4,409.2-79.4,409.8L-79.4,409.8z"/>
		</g>
	</g>
	<g id="XMLID_11218_">
		<g id="XMLID_1062_">
			<path id="XMLID_1066_" class="st0" d="M-83.5,407c0,0.4,0,0.8,0,1.2c0,0.6,1,0.6,1,0c0-0.4,0-0.8,0-1.2
				C-82.5,406.3-83.5,406.3-83.5,407L-83.5,407z"/>
		</g>
	</g>
	<g id="XMLID_11225_">
		<g id="XMLID_1056_">
			<path id="XMLID_1060_" class="st0" d="M-86.9,400.7c0,0.7,0,1.4,0,2.1c0,0.6,1,0.6,1,0c0-0.7,0-1.4,0-2.1
				C-85.9,400.1-86.9,400.1-86.9,400.7L-86.9,400.7z"/>
		</g>
	</g>
	<g id="XMLID_11232_">
		<g id="XMLID_1050_">
			<path id="XMLID_1054_" class="st0" d="M-89.4,397.3c-0.1,0.8-0.3,1.7-0.4,2.5c-0.1,0.6,0.8,0.8,0.9,0.2c0.1-0.8,0.3-1.7,0.4-2.5
				C-88.4,396.9-89.3,396.6-89.4,397.3L-89.4,397.3z"/>
		</g>
	</g>
	<g id="XMLID_11239_">
		<g id="XMLID_1044_">
			<path id="XMLID_1048_" class="st0" d="M-92.2,400.6c-0.1,0.6-0.3,1.1-0.4,1.7c-0.1,0.6,0.7,0.8,0.9,0.2s0.3-1.1,0.4-1.7
				C-91.2,400.2-92.1,400-92.2,400.6L-92.2,400.6z"/>
		</g>
	</g>
	<g id="XMLID_11246_">
		<g id="XMLID_1038_">
			<path id="XMLID_1042_" class="st0" d="M-96.1,400.6c-0.1,0.7-0.3,1.4-0.4,2.1c-0.1,0.6,0.8,0.8,0.9,0.2c0.1-0.7,0.3-1.4,0.4-2.1
				C-95,400.2-95.9,400-96.1,400.6L-96.1,400.6z"/>
		</g>
	</g>
	<g id="XMLID_11253_">
		<g id="XMLID_1032_">
			<path id="XMLID_1036_" class="st0" d="M-98.9,396.1c0,0.8,0,1.7,0,2.5c0,0.6,1,0.6,1,0c0-0.8,0-1.7,0-2.5
				C-98,395.5-98.9,395.5-98.9,396.1L-98.9,396.1z"/>
		</g>
	</g>
	<g id="XMLID_11260_">
		<g id="XMLID_1026_">
			<path id="XMLID_1030_" class="st0" d="M-102.2,393.5c-0.3,1-0.6,1.9-0.9,2.9c-0.1,0.6,0.7,0.8,0.9,0.2c0.3-1,0.6-1.9,0.9-2.9
				C-101.1,393.1-102.1,392.9-102.2,393.5L-102.2,393.5z"/>
		</g>
	</g>
	<g id="XMLID_11267_">
		<g id="XMLID_1020_">
			<path id="XMLID_1024_" class="st0" d="M-106.7,391.8c-0.1,0.7-0.3,1.4-0.4,2.1c-0.1,0.6,0.8,0.8,0.9,0.2c0.1-0.7,0.3-1.4,0.4-2.1
				C-105.7,391.5-106.6,391.2-106.7,391.8L-106.7,391.8z"/>
		</g>
	</g>
	<g id="XMLID_11274_">
		<g id="XMLID_1014_">
			<path id="XMLID_1018_" class="st0" d="M-108.8,388.1c-0.1,0.7-0.3,1.4-0.5,2.1c-0.1,0.6,0.7,0.8,0.9,0.2c0.1-0.7,0.3-1.4,0.5-2.1
				C-107.8,387.8-108.7,387.5-108.8,388.1L-108.8,388.1z"/>
		</g>
	</g>
	<g id="XMLID_11281_">
		<g id="XMLID_1008_">
			<path id="XMLID_1012_" class="st0" d="M-110.2,384.3c-0.3,1-0.6,1.9-0.8,2.9c-0.1,0.6,0.7,0.8,0.9,0.2c0.3-1,0.6-1.9,0.8-2.9
				C-109.1,384-109.9,383.7-110.2,384.3L-110.2,384.3z"/>
		</g>
	</g>
	<g id="XMLID_11288_">
		<g id="XMLID_1002_">
			<path id="XMLID_1006_" class="st0" d="M-112.7,382.6c-0.4,1.1-0.9,2.2-1.3,3.3c-0.2,0.6,0.7,0.8,0.9,0.2c0.4-1.1,0.9-2.2,1.3-3.3
				C-111.6,382.4-112.4,382.1-112.7,382.6L-112.7,382.6z"/>
		</g>
	</g>
	<g id="XMLID_11295_">
		<g id="XMLID_996_">
			<path id="XMLID_1000_" class="st0" d="M-118.3,386.8c-0.4,1-0.9,1.9-1.3,2.9c-0.2,0.5,0.6,1,0.8,0.4c0.4-1,0.9-1.9,1.3-2.9
				C-117.3,386.7-118.1,386.2-118.3,386.8L-118.3,386.8z"/>
		</g>
	</g>
	<g id="XMLID_11302_">
		<g id="XMLID_990_">
			<path id="XMLID_994_" class="st0" d="M-122.3,393.1c-0.2,1-0.5,2-0.7,2.9c-0.1,0.6,0.7,0.8,0.9,0.2c0.2-1,0.5-2,0.7-2.9
				C-121.2,392.7-122.1,392.5-122.3,393.1L-122.3,393.1z"/>
		</g>
	</g>
	<g id="XMLID_11309_">
		<g id="XMLID_984_">
			<path id="XMLID_988_" class="st0" d="M-124,400.6c-0.3,1.2-0.5,2.5-0.8,3.7c-0.1,0.6,0.8,0.8,0.9,0.2c0.3-1.2,0.5-2.5,0.8-3.7
				C-122.9,400.2-123.8,400-124,400.6L-124,400.6z"/>
		</g>
	</g>
	<g id="XMLID_11316_">
		<g id="XMLID_978_">
			<path id="XMLID_982_" class="st0" d="M-120.5,398.1c-0.1,0.4-0.3,0.8-0.4,1.2c-0.2,0.6,0.7,0.8,0.9,0.2c0.1-0.4,0.3-0.8,0.4-1.2
				C-119.4,397.8-120.4,397.5-120.5,398.1L-120.5,398.1z"/>
		</g>
	</g>
	<g id="XMLID_11323_">
		<g id="XMLID_972_">
			<path id="XMLID_976_" class="st0" d="M-117.6,391.8c-0.1,0.7-0.3,1.4-0.4,2.1c-0.1,0.6,0.8,0.8,0.9,0.2c0.1-0.7,0.3-1.4,0.4-2.1
				C-116.6,391.5-117.5,391.2-117.6,391.8L-117.6,391.8z"/>
		</g>
	</g>
	<g id="XMLID_11330_">
		<g id="XMLID_966_">
			<path id="XMLID_970_" class="st0" d="M-114.1,390.4c-0.9,0.7-1.2,1.8-1,2.9c0.1,0.6,1,0.4,0.9-0.2c-0.1-0.7,0.1-1.5,0.7-2
				C-113,390.7-113.7,390.1-114.1,390.4L-114.1,390.4z"/>
		</g>
	</g>
	<g id="XMLID_11337_">
		<g id="XMLID_960_">
			<path id="XMLID_964_" class="st0" d="M-111.8,391.8c-0.4,1.1-0.8,2.2-1.2,3.3c-0.2,0.6,0.7,0.8,0.9,0.2c0.4-1.1,0.8-2.2,1.2-3.3
				C-110.7,391.5-111.6,391.2-111.8,391.8L-111.8,391.8z"/>
		</g>
	</g>
	<g id="XMLID_11344_">
		<g id="XMLID_954_">
			<path id="XMLID_958_" class="st0" d="M-110.5,397.3c-0.1,1-0.4,1.9-0.5,2.9c-0.1,0.6,0.8,0.8,0.9,0.2c0.1-1,0.4-1.9,0.5-2.9
				C-109.5,396.9-110.4,396.7-110.5,397.3L-110.5,397.3z"/>
		</g>
	</g>
	<g id="XMLID_11351_">
		<g id="XMLID_948_">
			<path id="XMLID_952_" class="st0" d="M-108.5,399.8c-0.3,1-0.6,1.9-0.8,2.9c-0.1,0.6,0.7,0.8,0.9,0.2c0.3-1,0.6-1.9,0.8-2.9
				C-107.4,399.4-108.3,399.2-108.5,399.8L-108.5,399.8z"/>
		</g>
	</g>
	<g id="XMLID_11358_">
		<g id="XMLID_942_">
			<path id="XMLID_946_" class="st0" d="M-105.5,399.8c-0.1,1.1-0.4,2.2-0.5,3.3c-0.1,0.6,0.8,0.8,0.9,0.2c0.1-1.1,0.4-2.2,0.5-3.3
				C-104.6,399.4-105.5,399.2-105.5,399.8L-105.5,399.8z"/>
		</g>
	</g>
	<g id="XMLID_11365_">
		<g id="XMLID_936_">
			<path id="XMLID_940_" class="st0" d="M-101.3,402.3c-0.1,0.8-0.3,1.7-0.4,2.5c-0.1,0.6,0.8,0.8,0.9,0.2c0.1-0.8,0.3-1.7,0.4-2.5
				C-100.3,401.9-101.2,401.7-101.3,402.3L-101.3,402.3z"/>
		</g>
	</g>
	<g id="XMLID_11372_">
		<g id="XMLID_930_">
			<path id="XMLID_934_" class="st0" d="M-98.8,407c0.2,1.1,0.4,2.3,0.6,3.4c0.1,0.6,1,0.4,0.9-0.2c-0.2-1.1-0.4-2.3-0.6-3.4
				C-98,406.2-98.9,406.4-98.8,407L-98.8,407z"/>
		</g>
	</g>
	<g id="XMLID_11379_">
		<g id="XMLID_924_">
			<path id="XMLID_928_" class="st0" d="M-94.4,408.2c0,0.7,0,1.4,0,2.1c0,0.6,1,0.6,1,0c0-0.7,0-1.4,0-2.1
				C-93.4,407.5-94.4,407.5-94.4,408.2L-94.4,408.2z"/>
		</g>
	</g>
	<g id="XMLID_11386_">
		<g id="XMLID_918_">
			<path id="XMLID_922_" class="st0" d="M-91.7,406c-0.4,1.1,0,2.3,0.9,3.1c0.5,0.4,1-0.4,0.4-0.8c-0.7-0.4-0.7-1.3-0.5-2
				C-90.6,405.7-91.5,405.5-91.7,406L-91.7,406z"/>
		</g>
	</g>
	<g id="XMLID_11393_">
		<g id="XMLID_912_">
			<path id="XMLID_916_" class="st0" d="M-88.5,404.8c-0.1,1.4,0.1,2.8,0.9,4c0.3,0.5,1.1,0.1,0.8-0.4c-0.7-1.1-0.9-2.3-0.7-3.5
				C-87.5,404.2-88.4,404.2-88.5,404.8L-88.5,404.8z"/>
		</g>
	</g>
	<g id="XMLID_11400_">
		<g id="XMLID_906_">
			<path id="XMLID_910_" class="st0" d="M-85.6,410.7c0,1.5,0.4,2.9,1.2,4c0.4,0.5,1.2,0,0.8-0.4c-0.7-1.1-1.1-2.3-1.1-3.6
				C-84.7,410-85.6,410-85.6,410.7L-85.6,410.7z"/>
		</g>
	</g>
	<g id="XMLID_11407_">
		<g id="XMLID_900_">
			<path id="XMLID_904_" class="st0" d="M-82.7,413.2c0.1,1.5,0.5,3.1,1.2,4.4c0.3,0.5,1.1,0.1,0.8-0.4c-0.7-1.2-1.1-2.5-1.2-4
				C-81.8,412.6-82.7,412.5-82.7,413.2L-82.7,413.2z"/>
		</g>
	</g>
	<g id="XMLID_11414_">
		<g id="XMLID_894_">
			<path id="XMLID_898_" class="st0" d="M-79,417.1c0.3,1.4,0.5,2.8,0.8,4.2c0.1,0.6,1,0.4,0.9-0.2c-0.3-1.4-0.5-2.8-0.8-4.2
				C-78.2,416.2-79.2,416.5-79,417.1L-79,417.1z"/>
		</g>
	</g>
	<g id="XMLID_11421_">
		<g id="XMLID_888_">
			<path id="XMLID_892_" class="st0" d="M-76.8,419c0.1,2.1,0.8,4,2.1,5.7c0.4,0.5,1.2,0,0.8-0.4c-1.1-1.5-1.8-3.3-1.9-5.2
				C-75.9,418.4-76.8,418.4-76.8,419L-76.8,419z"/>
		</g>
	</g>
	<g id="XMLID_11428_">
		<g id="XMLID_882_">
			<path id="XMLID_886_" class="st0" d="M-73.1,424.8c-0.1,1.4,0.1,2.8,0.9,4c0.3,0.5,1.1,0.1,0.8-0.4c-0.7-1.1-0.9-2.3-0.7-3.5
				C-72.1,424.2-73.1,424.2-73.1,424.8L-73.1,424.8z"/>
		</g>
	</g>
	<g id="XMLID_11435_">
		<g id="XMLID_876_">
			<path id="XMLID_880_" class="st0" d="M-72.7,431.5c0,0.7,0,1.4,0,2.1c0,0.6,1,0.6,1,0c0-0.7,0-1.4,0-2.1
				C-71.8,430.9-72.7,430.9-72.7,431.5L-72.7,431.5z"/>
		</g>
	</g>
	<g id="XMLID_11442_">
		<g id="XMLID_870_">
			<path id="XMLID_874_" class="st0" d="M-76.9,427.3c0.1,1-0.1,1.8-0.7,2.6c-0.4,0.4,0.3,1.1,0.7,0.7c0.7-0.9,1.1-2.1,1-3.2
				C-76,426.7-76.9,426.7-76.9,427.3L-76.9,427.3z"/>
		</g>
	</g>
	<g id="XMLID_11449_">
		<g id="XMLID_864_">
			<path id="XMLID_868_" class="st0" d="M-81.4,422.7c0,0.8,0,1.7,0,2.5c0,0.6,1,0.6,1,0c0-0.8,0-1.7,0-2.5
				C-80.5,422.2-81.4,422.2-81.4,422.7L-81.4,422.7z"/>
		</g>
	</g>
	<g id="XMLID_11456_">
		<g id="XMLID_858_">
			<path id="XMLID_862_" class="st0" d="M-84.7,418.8c-0.1,0.7-0.3,1.4-0.4,2.1c-0.1,0.6,0.8,0.8,0.9,0.2c0.1-0.7,0.3-1.4,0.4-2.1
				C-83.7,418.6-84.6,418.3-84.7,418.8L-84.7,418.8z"/>
		</g>
	</g>
	<g id="XMLID_11463_">
		<g id="XMLID_852_">
			<path id="XMLID_856_" class="st0" d="M-88.1,415c0.1,0.7,0,1.5-0.4,2.1c-0.3,0.5,0.5,1,0.8,0.4c0.4-0.9,0.6-1.8,0.4-2.9
				C-87.3,414.1-88.2,414.4-88.1,415L-88.1,415z"/>
		</g>
	</g>
	<g id="XMLID_11470_">
		<g id="XMLID_846_">
			<path id="XMLID_850_" class="st0" d="M-91.4,414.8c0.1,0.8,0,1.5-0.4,2.3c-0.2,0.5,0.6,1,0.8,0.4c0.4-0.9,0.6-1.8,0.5-2.7
				C-90.6,414.2-91.5,414.2-91.4,414.8L-91.4,414.8z"/>
		</g>
	</g>
	<g id="XMLID_11477_">
		<g id="XMLID_840_">
			<path id="XMLID_844_" class="st0" d="M-94.3,412.6c-0.1,0.7-0.3,1.4-0.4,2.1c-0.1,0.6,0.8,0.8,0.9,0.2c0.1-0.7,0.3-1.4,0.4-2.1
				C-93.3,412.3-94.1,412-94.3,412.6L-94.3,412.6z"/>
		</g>
	</g>
	<g id="XMLID_11484_">
		<g id="XMLID_834_">
			<path id="XMLID_838_" class="st0" d="M-98.6,414.1c-0.3,0.6-0.5,1.1-0.8,1.7c-0.2,0.5,0.6,1,0.8,0.4c0.3-0.6,0.5-1.1,0.8-1.7
				C-97.5,414.1-98.3,413.6-98.6,414.1L-98.6,414.1z"/>
		</g>
	</g>
	<g id="XMLID_11491_">
		<g id="XMLID_828_">
			<path id="XMLID_832_" class="st0" d="M-102.5,409.3c-0.1,0.7-0.3,1.4-0.4,2.1c-0.1,0.6,0.8,0.8,0.9,0.2c0.1-0.7,0.3-1.4,0.4-2.1
				C-101.6,409-102.4,408.7-102.5,409.3L-102.5,409.3z"/>
		</g>
	</g>
	<g id="XMLID_11498_">
		<g id="XMLID_822_">
			<path id="XMLID_826_" class="st0" d="M-105.2,406.4c-0.1,1-0.3,1.9-0.4,2.9c-0.1,0.6,0.8,0.8,0.9,0.2c0.1-1,0.3-1.9,0.4-2.9
				C-104.1,406.1-105.1,405.8-105.2,406.4L-105.2,406.4z"/>
		</g>
	</g>
	<g id="XMLID_11505_">
		<g id="XMLID_816_">
			<path id="XMLID_820_" class="st0" d="M-109.3,406.8c-0.1,0.7-0.3,1.4-0.4,2.1c-0.1,0.6,0.8,0.8,0.9,0.2c0.1-0.7,0.3-1.4,0.4-2.1
				C-108.2,406.4-109.2,406.2-109.3,406.8L-109.3,406.8z"/>
		</g>
	</g>
	<g id="XMLID_11512_">
		<g id="XMLID_810_">
			<path id="XMLID_814_" class="st0" d="M-112.3,403.9c-0.2,0.9-0.4,1.7-0.7,2.6c-0.1,0.6,0.7,0.8,0.9,0.2c0.2-0.9,0.4-1.7,0.7-2.6
				C-111.3,403.5-112.1,403.3-112.3,403.9L-112.3,403.9z"/>
		</g>
	</g>
	<g id="XMLID_11519_">
		<g id="XMLID_804_">
			<path id="XMLID_808_" class="st0" d="M-114.4,400.9c-0.2,0.9-0.4,1.7-0.7,2.6c-0.1,0.6,0.7,0.8,0.9,0.2c0.2-0.9,0.4-1.7,0.7-2.6
				C-113.3,400.6-114.2,400.3-114.4,400.9L-114.4,400.9z"/>
		</g>
	</g>
	<g id="XMLID_11526_">
		<g id="XMLID_798_">
			<path id="XMLID_802_" class="st0" d="M-115.6,396.8c-0.3,1.1-0.5,2.2-0.8,3.3c-0.1,0.6,0.7,0.8,0.9,0.2c0.3-1.1,0.5-2.2,0.8-3.3
				C-114.6,396.5-115.4,396.2-115.6,396.8L-115.6,396.8z"/>
		</g>
	</g>
	<g id="XMLID_11533_">
		<g id="XMLID_792_">
			<path id="XMLID_796_" class="st0" d="M-119.3,403.5c-0.1,1-0.3,1.9-0.4,2.9c-0.1,0.6,0.8,0.8,0.9,0.2c0.1-1,0.3-1.9,0.4-2.9
				C-118.3,403.1-119.2,402.9-119.3,403.5L-119.3,403.5z"/>
		</g>
	</g>
	<g id="XMLID_11540_">
		<g id="XMLID_786_">
			<path id="XMLID_790_" class="st0" d="M-117.1,408.3c-0.4,0.9-0.6,1.8-0.4,2.7c0.1,0.6,1,0.6,1,0c-0.1-0.8,0-1.5,0.4-2.3
				C-116.1,408.3-116.9,407.8-117.1,408.3L-117.1,408.3z"/>
		</g>
	</g>
	<g id="XMLID_11547_">
		<g id="XMLID_780_">
			<path id="XMLID_784_" class="st0" d="M-114.3,410.3c0,0.8,0,1.7,0,2.5c0,0.6,1,0.6,1,0c0-0.8,0-1.7,0-2.5
				C-113.4,409.7-114.3,409.7-114.3,410.3L-114.3,410.3z"/>
		</g>
	</g>
	<g id="XMLID_11554_">
		<g id="XMLID_774_">
			<path id="XMLID_778_" class="st0" d="M-111.8,412.3c0,0.7,0,1.4,0,2.1c0,0.6,1,0.6,1,0c0-0.7,0-1.4,0-2.1
				C-110.9,411.7-111.8,411.7-111.8,412.3L-111.8,412.3z"/>
		</g>
	</g>
	<g id="XMLID_11561_">
		<g id="XMLID_768_">
			<path id="XMLID_772_" class="st0" d="M-108.1,414c0,0.8,0,1.7,0,2.5c0,0.6,1,0.6,1,0c0-0.8,0-1.7,0-2.5
				C-107.1,413.4-108.1,413.4-108.1,414L-108.1,414z"/>
		</g>
	</g>
	<g id="XMLID_11568_">
		<g id="XMLID_762_">
			<path id="XMLID_766_" class="st0" d="M-105.5,415.5c-0.3,1-0.1,2,0.3,2.9c0.3,0.5,1.1,0.1,0.8-0.4c-0.4-0.7-0.4-1.5-0.2-2.2
				C-104.4,415.3-105.4,415-105.5,415.5L-105.5,415.5z"/>
		</g>
	</g>
	<g id="XMLID_11575_">
		<g id="XMLID_756_">
			<path id="XMLID_760_" class="st0" d="M-102.2,417.7c0,1,0,1.9,0,2.9c0,0.6,1,0.6,1,0c0-1,0-1.9,0-2.9
				C-101.3,417.2-102.2,417.2-102.2,417.7L-102.2,417.7z"/>
		</g>
	</g>
	<g id="XMLID_11582_">
		<g id="XMLID_750_">
			<path id="XMLID_754_" class="st0" d="M-98.9,420.7c0,0.7,0,1.4,0,2.1c0,0.6,1,0.6,1,0c0-0.7,0-1.4,0-2.1
				C-98,420-98.9,420-98.9,420.7L-98.9,420.7z"/>
		</g>
	</g>
	<g id="XMLID_11589_">
		<g id="XMLID_744_">
			<path id="XMLID_748_" class="st0" d="M-96,419.5c0.1,1,0.4,1.9,0.5,2.9c0.1,0.6,1,0.4,0.9-0.2c-0.1-1-0.4-1.9-0.5-2.9
				C-95.3,418.7-96.1,418.9-96,419.5L-96,419.5z"/>
		</g>
	</g>
	<g id="XMLID_11596_">
		<g id="XMLID_738_">
			<path id="XMLID_742_" class="st0" d="M-92.6,420.2c-0.5,1.3-0.1,2.8,0.8,3.8c0.4,0.4,1-0.2,0.7-0.7c-0.7-0.8-0.9-1.9-0.5-2.9
				C-91.4,419.8-92.4,419.6-92.6,420.2L-92.6,420.2z"/>
		</g>
	</g>
	<g id="XMLID_11603_">
		<g id="XMLID_732_">
			<path id="XMLID_736_" class="st0" d="M-88.9,422.4c0.3,1,0.6,1.9,0.8,2.9c0.1,0.6,1.1,0.4,0.9-0.2c-0.3-1-0.6-1.9-0.8-2.9
				C-88.1,421.6-89.1,421.9-88.9,422.4L-88.9,422.4z"/>
		</g>
	</g>
	<g id="XMLID_11610_">
		<g id="XMLID_726_">
			<path id="XMLID_730_" class="st0" d="M-85.6,426c0.1,1.1,0.3,2.2,0.4,3.3c0.1,0.6,1,0.6,1,0c-0.1-1.1-0.3-2.2-0.4-3.3
				C-84.7,425.5-85.6,425.5-85.6,426L-85.6,426z"/>
		</g>
	</g>
	<g id="XMLID_11617_">
		<g id="XMLID_720_">
			<path id="XMLID_724_" class="st0" d="M-121.3,410.2c-0.1,0.6-0.3,1.1-0.4,1.7s0.7,0.8,0.9,0.2c0.2-0.6,0.3-1.1,0.4-1.7
				C-120.2,409.8-121.2,409.6-121.3,410.2L-121.3,410.2z"/>
		</g>
	</g>
	<g id="XMLID_11624_">
		<g id="XMLID_714_">
			<path id="XMLID_718_" class="st0" d="M-122.6,408.1c-0.3,0.8-0.6,1.7-0.8,2.5c-0.2,0.6,0.7,0.8,0.9,0.2c0.3-0.8,0.6-1.7,0.8-2.5
				C-121.5,407.7-122.5,407.5-122.6,408.1L-122.6,408.1z"/>
		</g>
	</g>
	<g id="XMLID_11631_">
		<g id="XMLID_708_">
			<path id="XMLID_712_" class="st0" d="M-126.3,409.6c-0.6,1.4-1,2.9-1,4.4c0,0.6,1,0.6,1,0c0-1.4,0.3-2.6,0.8-3.9
				C-125.2,409.5-126,409.1-126.3,409.6L-126.3,409.6z"/>
		</g>
	</g>
	<g id="XMLID_11638_">
		<g id="XMLID_702_">
			<path id="XMLID_706_" class="st0" d="M-128.5,411.4c-0.4,1.8-0.9,3.6-1.3,5.4c-0.1,0.6,0.7,0.8,0.9,0.2c0.4-1.8,0.9-3.6,1.3-5.4
				C-127.5,411.1-128.4,410.8-128.5,411.4L-128.5,411.4z"/>
		</g>
	</g>
	<g id="XMLID_11645_">
		<g id="XMLID_696_">
			<path id="XMLID_700_" class="st0" d="M-130.6,423.2c0,1.2,0,2.5,0,3.7c0,0.6,1,0.6,1,0c0-1.2,0-2.5,0-3.7
				C-129.6,422.5-130.6,422.5-130.6,423.2L-130.6,423.2z"/>
		</g>
	</g>
	<g id="XMLID_11652_">
		<g id="XMLID_690_">
			<path id="XMLID_694_" class="st0" d="M-127.6,421.1c0,0.6,0,1.1,0,1.7c0,0.6,1,0.6,1,0c0-0.6,0-1.1,0-1.7
				C-126.7,420.5-127.6,420.5-127.6,421.1L-127.6,421.1z"/>
		</g>
	</g>
	<g id="XMLID_11659_">
		<g id="XMLID_684_">
			<path id="XMLID_688_" class="st0" d="M-124.7,416c-0.4,1.2-0.6,2.3-0.4,3.6c0.1,0.6,1,0.4,0.9-0.2c-0.1-1,0-2.1,0.4-3.1
				C-123.6,415.6-124.5,415.4-124.7,416L-124.7,416z"/>
		</g>
	</g>
	<g id="XMLID_11666_">
		<g id="XMLID_678_">
			<path id="XMLID_682_" class="st0" d="M-122.2,415c-0.5,1-0.7,2.1-0.4,3.3c0.1,0.6,1,0.4,0.9-0.2c-0.2-0.9-0.1-1.8,0.3-2.6
				C-121.2,415-122,414.4-122.2,415L-122.2,415z"/>
		</g>
	</g>
	<g id="XMLID_11673_">
		<g id="XMLID_672_">
			<path id="XMLID_676_" class="st0" d="M-119.2,416c-0.1,1-0.4,1.9-0.5,2.9c-0.1,0.6,0.8,0.8,0.9,0.2c0.1-1,0.4-1.9,0.5-2.9
				C-118.2,415.6-119.1,415.4-119.2,416L-119.2,416z"/>
		</g>
	</g>
	<g id="XMLID_11680_">
		<g id="XMLID_666_">
			<path id="XMLID_670_" class="st0" d="M-116.3,416.7c-0.4,0.9-0.6,1.8-0.4,2.7c0.1,0.6,1,0.6,1,0c-0.1-0.8,0-1.5,0.4-2.3
				C-115.3,416.6-116.1,416.1-116.3,416.7L-116.3,416.7z"/>
		</g>
	</g>
	<g id="XMLID_11687_">
		<g id="XMLID_660_">
			<path id="XMLID_664_" class="st0" d="M-112.7,419.4c0,0.7,0,1.4,0,2.1c0,0.6,1,0.6,1,0c0-0.7,0-1.4,0-2.1
				C-111.7,418.8-112.7,418.8-112.7,419.4L-112.7,419.4z"/>
		</g>
	</g>
	<g id="XMLID_11694_">
		<g id="XMLID_654_">
			<path id="XMLID_658_" class="st0" d="M-72.2,451.5c0-0.7,0-1.4,0-2.1c0-0.6-1-0.6-1,0c0,0.7,0,1.4,0,2.1
				C-73.1,452-72.2,452-72.2,451.5L-72.2,451.5z"/>
		</g>
	</g>
	<g id="XMLID_11701_">
		<g id="XMLID_648_">
			<path id="XMLID_652_" class="st0" d="M-73.5,443.5c0,0.7,0,1.4,0,2.1c0,0.6,1,0.6,1,0c0-0.7,0-1.4,0-2.1
				C-72.6,442.9-73.5,442.9-73.5,443.5L-73.5,443.5z"/>
		</g>
	</g>
	<g id="XMLID_11708_">
		<g id="XMLID_642_">
			<path id="XMLID_646_" class="st0" d="M-76.7,442.6c-0.1,0.8-0.3,1.7-0.4,2.5c-0.1,0.6,0.8,0.8,0.9,0.2c0.1-0.8,0.3-1.7,0.4-2.5
				C-75.8,442.3-76.7,442-76.7,442.6L-76.7,442.6z"/>
		</g>
	</g>
	<g id="XMLID_11715_">
		<g id="XMLID_636_">
			<path id="XMLID_640_" class="st0" d="M-76.5,448.5c0,0.4,0,0.8,0,1.2c0,0.6,1,0.6,1,0c0-0.4,0-0.8,0-1.2
				C-75.5,447.9-76.5,447.9-76.5,448.5L-76.5,448.5z"/>
		</g>
	</g>
	<g id="XMLID_11722_">
		<g id="XMLID_630_">
			<path id="XMLID_634_" class="st0" d="M-80.6,448c-0.1,0.6-0.3,1.1-0.4,1.7c-0.1,0.6,0.7,0.8,0.9,0.2c0.1-0.6,0.3-1.1,0.4-1.7
				C-79.5,447.6-80.5,447.4-80.6,448L-80.6,448z"/>
		</g>
	</g>
	<g id="XMLID_11729_">
		<g id="XMLID_624_">
			<path id="XMLID_628_" class="st0" d="M-83.5,446c0,0.4,0,0.8,0,1.2c0,0.6,1,0.6,1,0c0-0.4,0-0.8,0-1.2
				C-82.5,445.4-83.5,445.4-83.5,446L-83.5,446z"/>
		</g>
	</g>
	<g id="XMLID_11736_">
		<g id="XMLID_618_">
			<path id="XMLID_622_" class="st0" d="M-80.6,442.3c0,0.7,0,1.4,0,2.1c0,0.6,1,0.6,1,0c0-0.7,0-1.4,0-2.1
				C-79.7,441.7-80.6,441.7-80.6,442.3L-80.6,442.3z"/>
		</g>
	</g>
	<g id="XMLID_11743_">
		<g id="XMLID_612_">
			<path id="XMLID_616_" class="st0" d="M-77.7,438.5c0,0.6,0,1.1,0,1.7c0,0.6,1,0.6,1,0c0-0.6,0-1.1,0-1.7
				C-76.7,437.9-77.7,437.9-77.7,438.5L-77.7,438.5z"/>
		</g>
	</g>
	<g id="XMLID_11750_">
		<g id="XMLID_606_">
			<path id="XMLID_610_" class="st0" d="M-74,437.3c0,1,0,1.9,0,2.9c0,0.6,1,0.6,1,0c0-1,0-1.9,0-2.9C-73,436.7-74,436.7-74,437.3
				L-74,437.3z"/>
		</g>
	</g>
	<g id="XMLID_11757_">
		<g id="XMLID_600_">
			<path id="XMLID_604_" class="st0" d="M-75.9,433.5c-0.1,0.7-0.3,1.4-0.4,2.1c-0.1,0.6,0.8,0.8,0.9,0.2c0.1-0.7,0.3-1.4,0.4-2.1
				C-74.9,433.1-75.8,432.9-75.9,433.5L-75.9,433.5z"/>
		</g>
	</g>
	<g id="XMLID_11764_">
		<g id="XMLID_594_">
			<path id="XMLID_598_" class="st0" d="M-81,433.2c0,0.6,0,1.1,0,1.7s1,0.6,1,0s0-1.1,0-1.7C-80,432.5-81,432.5-81,433.2L-81,433.2
				z"/>
		</g>
	</g>
	<g id="XMLID_11771_">
		<g id="XMLID_588_">
			<path id="XMLID_592_" class="st0" d="M-81.9,428.2c0,0.6,0,1.1,0,1.7s1,0.6,1,0s0-1.1,0-1.7C-80.9,427.5-81.9,427.5-81.9,428.2
				L-81.9,428.2z"/>
		</g>
	</g>
	<g id="XMLID_11778_">
		<g id="XMLID_582_">
			<path id="XMLID_586_" class="st0" d="M-83.5,436.9c0,0.7,0,1.4,0,2.1c0,0.6,1,0.6,1,0c0-0.7,0-1.4,0-2.1S-83.5,436.3-83.5,436.9
				L-83.5,436.9z"/>
		</g>
	</g>
	<g id="XMLID_11785_">
		<g id="XMLID_576_">
			<path id="XMLID_580_" class="st0" d="M-85.9,433.5c-0.1,1-0.3,1.9-0.4,2.9c-0.1,0.6,0.8,0.8,0.9,0.2c0.1-1,0.3-1.9,0.4-2.9
				C-85,433.1-85.9,432.9-85.9,433.5L-85.9,433.5z"/>
		</g>
	</g>
	<g id="XMLID_11792_">
		<g id="XMLID_570_">
			<path id="XMLID_574_" class="st0" d="M-89.4,429.8c0,0.8,0,1.7,0,2.5c0,0.6,1,0.6,1,0c0-0.8,0-1.7,0-2.5
				C-88.4,429.2-89.4,429.2-89.4,429.8L-89.4,429.8z"/>
		</g>
	</g>
	<g id="XMLID_11799_">
		<g id="XMLID_564_">
			<path id="XMLID_568_" class="st0" d="M-92.7,428.2c0,0.8,0,1.7,0,2.5c0,0.6,1,0.6,1,0c0-0.8,0-1.7,0-2.5
				C-91.7,427.5-92.7,427.5-92.7,428.2L-92.7,428.2z"/>
		</g>
	</g>
	<g id="XMLID_11806_">
		<g id="XMLID_558_">
			<path id="XMLID_562_" class="st0" d="M-87.2,439.4c-0.8,0.8-1.1,1.9-0.9,3c0.1,0.6,1,0.4,0.9-0.2c-0.1-0.8,0.1-1.5,0.7-2.1
				C-86.1,439.7-86.7,439-87.2,439.4L-87.2,439.4z"/>
		</g>
	</g>
	<g id="XMLID_11813_">
		<g id="XMLID_552_">
			<path id="XMLID_556_" class="st0" d="M-90.2,435.4c0.2,0.7,0.1,1.5-0.3,2.1c-0.3,0.5,0.5,1,0.8,0.4c0.5-0.9,0.6-1.9,0.4-2.9
				C-89.4,434.6-90.3,434.8-90.2,435.4L-90.2,435.4z"/>
		</g>
	</g>
	<g id="XMLID_11820_">
		<g id="XMLID_546_">
			<path id="XMLID_550_" class="st0" d="M-93.9,434.4c0,0.8,0,1.7,0,2.5c0,0.6,1,0.6,1,0c0-0.8,0-1.7,0-2.5
				C-93,433.8-93.9,433.8-93.9,434.4L-93.9,434.4z"/>
		</g>
	</g>
	<g id="XMLID_11827_">
		<g id="XMLID_540_">
			<path id="XMLID_544_" class="st0" d="M-96.4,428.5c0,0.8,0,1.7,0,2.5c0,0.6,1,0.6,1,0c0-0.8,0-1.7,0-2.5
				C-95.5,428-96.4,428-96.4,428.5L-96.4,428.5z"/>
		</g>
	</g>
	<g id="XMLID_11834_">
		<g id="XMLID_534_">
			<path id="XMLID_538_" class="st0" d="M-100.6,425.2c0,0.8,0,1.7,0,2.5c0,0.6,1,0.6,1,0c0-0.8,0-1.7,0-2.5
				C-99.7,424.7-100.6,424.7-100.6,425.2L-100.6,425.2z"/>
		</g>
	</g>
	<g id="XMLID_11841_">
		<g id="XMLID_528_">
			<path id="XMLID_532_" class="st0" d="M-104.7,424.3c-0.1,0.7-0.3,1.4-0.4,2.1c-0.1,0.6,0.8,0.8,0.9,0.2c0.1-0.7,0.3-1.4,0.4-2.1
				C-103.7,423.9-104.6,423.7-104.7,424.3L-104.7,424.3z"/>
		</g>
	</g>
	<g id="XMLID_11848_">
		<g id="XMLID_522_">
			<path id="XMLID_526_" class="st0" d="M-107.2,420.5c-0.1,0.8-0.3,1.7-0.4,2.5c-0.1,0.6,0.8,0.8,0.9,0.2c0.1-0.8,0.3-1.7,0.4-2.5
				C-106.2,420.2-107.1,420-107.2,420.5L-107.2,420.5z"/>
		</g>
	</g>
	<g id="XMLID_11855_">
		<g id="XMLID_516_">
			<path id="XMLID_520_" class="st0" d="M-111.4,428.5c0,1,0,1.9,0,2.9c0,0.6,1,0.6,1,0c0-1,0-1.9,0-2.9
				C-110.5,428-111.4,428-111.4,428.5L-111.4,428.5z"/>
		</g>
	</g>
	<g id="XMLID_11862_">
		<g id="XMLID_510_">
			<path id="XMLID_514_" class="st0" d="M-117.2,426.9c0,0.7,0,1.4,0,2.1c0,0.6,1,0.6,1,0c0-0.7,0-1.4,0-2.1
				C-116.3,426.3-117.2,426.3-117.2,426.9L-117.2,426.9z"/>
		</g>
	</g>
	<g id="XMLID_11869_">
		<g id="XMLID_504_">
			<path id="XMLID_508_" class="st0" d="M-118,422.5c-0.4,0.7-0.6,1.6-0.4,2.4c0.1,0.6,1,0.4,0.9-0.2c-0.1-0.6,0-1.2,0.4-1.7
				C-116.8,422.4-117.6,422-118,422.5L-118,422.5z"/>
		</g>
	</g>
	<g id="XMLID_11876_">
		<g id="XMLID_498_">
			<path id="XMLID_502_" class="st0" d="M-121.4,422.7c0,1.1,0,2.2,0,3.3c0,0.6,1,0.6,1,0c0-1.1,0-2.2,0-3.3
				C-120.4,422.2-121.4,422.2-121.4,422.7L-121.4,422.7z"/>
		</g>
	</g>
	<g id="XMLID_11883_">
		<g id="XMLID_492_">
			<path id="XMLID_496_" class="st0" d="M-124.7,426c-0.4,1.4-0.6,2.9-0.4,4.3c0.1,0.6,1,0.6,1,0c-0.1-1.4-0.1-2.7,0.4-4
				C-123.7,425.6-124.6,425.4-124.7,426L-124.7,426z"/>
		</g>
	</g>
	<g id="XMLID_11890_">
		<g id="XMLID_486_">
			<path id="XMLID_490_" class="st0" d="M-115.6,424c0,0.4,0,0.8,0,1.2c0,0.6,1,0.6,1,0c0-0.4,0-0.8,0-1.2
				C-114.6,423.4-115.6,423.4-115.6,424L-115.6,424z"/>
		</g>
	</g>
	<g id="XMLID_11897_">
		<g id="XMLID_480_">
			<path id="XMLID_484_" class="st0" d="M-109.3,427.3c0,0.6,0,1.1,0,1.7c0,0.6,1,0.6,1,0s0-1.1,0-1.7
				C-108.4,426.7-109.3,426.7-109.3,427.3L-109.3,427.3z"/>
		</g>
	</g>
	<g id="XMLID_11904_">
		<g id="XMLID_474_">
			<path id="XMLID_478_" class="st0" d="M-105.9,430.1c-0.3,1-0.1,2,0.4,2.9c0.3,0.5,1.1,0.1,0.8-0.4c-0.4-0.7-0.4-1.4-0.3-2.1
				S-105.8,429.6-105.9,430.1L-105.9,430.1z"/>
		</g>
	</g>
	<g id="XMLID_11911_">
		<g id="XMLID_468_">
			<path id="XMLID_472_" class="st0" d="M-102.2,432.3c0,0.8,0,1.7,0,2.5c0,0.6,1,0.6,1,0c0-0.8,0-1.7,0-2.5
				C-101.3,431.7-102.2,431.7-102.2,432.3L-102.2,432.3z"/>
		</g>
	</g>
	<g id="XMLID_11918_">
		<g id="XMLID_462_">
			<path id="XMLID_466_" class="st0" d="M-99.3,433.8c-0.3,1-0.1,2,0.4,2.9c0.3,0.5,1.1,0.1,0.8-0.4c-0.4-0.7-0.4-1.4-0.3-2.1
				C-98.2,433.5-99.1,433.3-99.3,433.8L-99.3,433.8z"/>
		</g>
	</g>
	<g id="XMLID_11925_">
		<g id="XMLID_456_">
			<path id="XMLID_460_" class="st0" d="M-97.2,438.5c0,0.6,0,1.1,0,1.7c0,0.6,1,0.6,1,0c0-0.6,0-1.1,0-1.7
				C-96.3,437.9-97.2,437.9-97.2,438.5L-97.2,438.5z"/>
		</g>
	</g>
	<g id="XMLID_11932_">
		<g id="XMLID_450_">
			<path id="XMLID_454_" class="st0" d="M-94.7,441.5c0,0.7,0,1.4,0,2.1c0,0.6,1,0.6,1,0c0-0.7,0-1.4,0-2.1
				C-93.8,440.9-94.7,440.9-94.7,441.5L-94.7,441.5z"/>
		</g>
	</g>
	<g id="XMLID_11939_">
		<g id="XMLID_444_">
			<path id="XMLID_448_" class="st0" d="M-92.6,443c-0.2,1-0.1,2,0.4,2.9c0.3,0.5,1.1,0.1,0.8-0.4c-0.4-0.7-0.5-1.4-0.3-2.1
				C-91.6,442.7-92.5,442.4-92.6,443L-92.6,443z"/>
		</g>
	</g>
	<g id="XMLID_11946_">
		<g id="XMLID_438_">
			<path id="XMLID_442_" class="st0" d="M-88.9,446.8c-0.2,1-0.1,2,0.4,2.9c0.3,0.5,1.1,0.1,0.8-0.4c-0.4-0.7-0.4-1.4-0.3-2.1
				C-87.8,446.4-88.8,446.2-88.9,446.8L-88.9,446.8z"/>
		</g>
	</g>
	<g id="XMLID_11953_">
		<g id="XMLID_432_">
			<path id="XMLID_436_" class="st0" d="M-85.6,449.9c0.2,0.7,0.5,1.4,0.7,2.1c0.2,0.6,1.1,0.3,0.9-0.2c-0.2-0.7-0.5-1.4-0.7-2.1
				C-84.9,449.1-85.8,449.3-85.6,449.9L-85.6,449.9z"/>
		</g>
	</g>
	<g id="XMLID_11960_">
		<g id="XMLID_426_">
			<path id="XMLID_430_" class="st0" d="M-92.2,450.5c-0.1,0.6-0.3,1.1-0.4,1.7c-0.1,0.6,0.7,0.8,0.9,0.2c0.1-0.6,0.3-1.1,0.4-1.7
				C-91.2,450.1-92.1,449.9-92.2,450.5L-92.2,450.5z"/>
		</g>
	</g>
	<g id="XMLID_11967_">
		<g id="XMLID_420_">
			<path id="XMLID_424_" class="st0" d="M-95.5,448.8c-0.1,0.7-0.3,1.4-0.4,2.1c-0.1,0.6,0.8,0.8,0.9,0.2c0.1-0.7,0.3-1.4,0.4-2.1
				C-94.5,448.5-95.4,448.2-95.5,448.8L-95.5,448.8z"/>
		</g>
	</g>
	<g id="XMLID_11974_">
		<g id="XMLID_414_">
			<path id="XMLID_418_" class="st0" d="M-97.2,443.7c-0.4,0.9-0.6,1.8-0.4,2.7c0.1,0.6,1,0.6,1,0c-0.1-0.8,0-1.5,0.4-2.3
				C-96.1,443.7-96.9,443.2-97.2,443.7L-97.2,443.7z"/>
		</g>
	</g>
	<g id="XMLID_11981_">
		<g id="XMLID_408_">
			<path id="XMLID_412_" class="st0" d="M-98.8,450.4c-0.5,0.7-0.7,1.6-0.4,2.4c0.1,0.6,1,0.4,0.9-0.2c-0.1-0.6,0-1.2,0.3-1.8
				C-97.7,450.4-98.6,449.9-98.8,450.4L-98.8,450.4z"/>
		</g>
	</g>
	<g id="XMLID_11988_">
		<g id="XMLID_402_">
			<path id="XMLID_406_" class="st0" d="M-102.2,450.1c-0.1,0.8-0.3,1.7-0.4,2.5c-0.1,0.6,0.8,0.8,0.9,0.2c0.1-0.8,0.3-1.7,0.4-2.5
				C-101.1,449.8-102.1,449.5-102.2,450.1L-102.2,450.1z"/>
		</g>
	</g>
	<g id="XMLID_11995_">
		<g id="XMLID_396_">
			<path id="XMLID_400_" class="st0" d="M-102.2,446c0,0.8,0,1.7,0,2.5c0,0.6,1,0.6,1,0c0-0.8,0-1.7,0-2.5
				C-101.3,445.4-102.2,445.4-102.2,446L-102.2,446z"/>
		</g>
	</g>
	<g id="XMLID_12002_">
		<g id="XMLID_390_">
			<path id="XMLID_394_" class="st0" d="M-100.2,442.7c0,0.6,0,1.1,0,1.7s1,0.6,1,0s0-1.1,0-1.7
				C-99.2,442.1-100.2,442.1-100.2,442.7L-100.2,442.7z"/>
		</g>
	</g>
	<g id="XMLID_12009_">
		<g id="XMLID_384_">
			<path id="XMLID_388_" class="st0" d="M-101.5,437.6c-0.1,1-0.3,1.9-0.4,2.9c-0.1,0.6,0.8,0.8,0.9,0.2c0.1-1,0.3-1.9,0.4-2.9
				C-100.5,437.3-101.3,437-101.5,437.6L-101.5,437.6z"/>
		</g>
	</g>
	<g id="XMLID_12016_">
		<g id="XMLID_378_">
			<path id="XMLID_382_" class="st0" d="M-105.5,437.6c-0.1,0.8-0.3,1.7-0.4,2.5c-0.1,0.6,0.8,0.8,0.9,0.2c0.1-0.8,0.3-1.7,0.4-2.5
				C-104.5,437.3-105.4,437-105.5,437.6L-105.5,437.6z"/>
		</g>
	</g>
	<g id="XMLID_12023_">
		<g id="XMLID_372_">
			<path id="XMLID_376_" class="st0" d="M-104.7,442.7c0,1,0,1.9,0,2.9c0,0.6,1,0.6,1,0c0-1,0-1.9,0-2.9
				C-103.8,442.1-104.7,442.1-104.7,442.7L-104.7,442.7z"/>
		</g>
	</g>
	<g id="XMLID_12030_">
		<g id="XMLID_366_">
			<path id="XMLID_370_" class="st0" d="M-107.7,444.4c0,1,0,1.9,0,2.9c0,0.6,1,0.6,1,0c0-1,0-1.9,0-2.9
				C-106.7,443.7-107.7,443.7-107.7,444.4L-107.7,444.4z"/>
		</g>
	</g>
	<g id="XMLID_12037_">
		<g id="XMLID_360_">
			<path id="XMLID_364_" class="st0" d="M-105.6,450.5c-0.1,0.7-0.3,1.4-0.4,2.1c-0.1,0.6,0.8,0.8,0.9,0.2c0.1-0.7,0.3-1.4,0.4-2.1
				C-104.6,450.1-105.5,449.9-105.6,450.5L-105.6,450.5z"/>
		</g>
	</g>
	<g id="XMLID_12044_">
		<g id="XMLID_354_">
			<path id="XMLID_358_" class="st0" d="M-109.7,451.3c-0.1,0.4-0.3,0.8-0.4,1.2c-0.2,0.6,0.7,0.8,0.9,0.2c0.1-0.4,0.3-0.8,0.4-1.2
				C-108.6,451-109.5,450.8-109.7,451.3L-109.7,451.3z"/>
		</g>
	</g>
	<g id="XMLID_12051_">
		<g id="XMLID_348_">
			<path id="XMLID_352_" class="st0" d="M-112.2,447.7c0,0.7,0,1.4,0,2.1c0,0.6,1,0.6,1,0c0-0.7,0-1.4,0-2.1
				C-111.3,447.1-112.2,447.1-112.2,447.7L-112.2,447.7z"/>
		</g>
	</g>
	<g id="XMLID_12058_">
		<g id="XMLID_342_">
			<path id="XMLID_346_" class="st0" d="M-109.7,444c0,0.4,0,0.8,0,1.2c0,0.6,1,0.6,1,0c0-0.4,0-0.8,0-1.2
				C-108.8,443.4-109.7,443.4-109.7,444L-109.7,444z"/>
		</g>
	</g>
	<g id="XMLID_12065_">
		<g id="XMLID_336_">
			<path id="XMLID_340_" class="st0" d="M-109.2,436.8c-0.1,0.8-0.3,1.7-0.4,2.5c-0.1,0.6,0.8,0.8,0.9,0.2c0.1-0.8,0.3-1.7,0.4-2.5
				C-108.2,436.5-109.1,436.2-109.2,436.8L-109.2,436.8z"/>
		</g>
	</g>
	<g id="XMLID_12072_">
		<g id="XMLID_330_">
			<path id="XMLID_334_" class="st0" d="M-112.2,437.3c0,0.8,0,1.7,0,2.5c0,0.6,1,0.6,1,0c0-0.8,0-1.7,0-2.5
				C-111.3,436.7-112.2,436.7-112.2,437.3L-112.2,437.3z"/>
		</g>
	</g>
	<g id="XMLID_12079_">
		<g id="XMLID_324_">
			<path id="XMLID_328_" class="st0" d="M-114.3,434.4c0,0.4,0,0.8,0,1.2c0,0.6,1,0.6,1,0c0-0.4,0-0.8,0-1.2
				C-113.4,433.8-114.3,433.8-114.3,434.4L-114.3,434.4z"/>
		</g>
	</g>
	<g id="XMLID_12086_">
		<g id="XMLID_318_">
			<path id="XMLID_322_" class="st0" d="M-118.5,432.7c0,0.7,0,1.4,0,2.1c0,0.6,1,0.6,1,0c0-0.7,0-1.4,0-2.1
				C-117.5,432.1-118.5,432.1-118.5,432.7L-118.5,432.7z"/>
		</g>
	</g>
	<g id="XMLID_12093_">
		<g id="XMLID_312_">
			<path id="XMLID_316_" class="st0" d="M-120.6,429.4c0,1,0,1.9,0,2.9c0,0.6,1,0.6,1,0c0-1,0-1.9,0-2.9
				C-119.6,428.8-120.6,428.8-120.6,429.4L-120.6,429.4z"/>
		</g>
	</g>
	<g id="XMLID_12100_">
		<g id="XMLID_306_">
			<path id="XMLID_310_" class="st0" d="M-115.2,438.4c-0.1,0.7-0.3,1.4-0.4,2.1c-0.1,0.6,0.8,0.8,0.9,0.2c0.1-0.7,0.3-1.4,0.4-2.1
				C-114.2,438.1-115.1,437.8-115.2,438.4L-115.2,438.4z"/>
		</g>
	</g>
	<g id="XMLID_12107_">
		<g id="XMLID_300_">
			<path id="XMLID_304_" class="st0" d="M-113.9,442.3c0,0.8,0,1.7,0,2.5c0,0.6,1,0.6,1,0c0-0.8,0-1.7,0-2.5
				C-112.9,441.7-113.9,441.7-113.9,442.3L-113.9,442.3z"/>
		</g>
	</g>
	<g id="XMLID_12114_">
		<g id="XMLID_294_">
			<path id="XMLID_298_" class="st0" d="M-116,447.7c0.1,1.1-0.1,2.1-0.4,3.2c-0.2,0.6,0.7,0.8,0.9,0.2c0.4-1.1,0.5-2.3,0.4-3.5
				C-115.1,447.1-116,447.1-116,447.7L-116,447.7z"/>
		</g>
	</g>
	<g id="XMLID_12121_">
		<g id="XMLID_288_">
			<path id="XMLID_292_" class="st0" d="M-113.8,451.1c-0.7,0.7-1,1.5-1,2.4c0,0.6,1,0.6,1,0c0-0.7,0.2-1.2,0.7-1.8
				C-112.7,451.3-113.4,450.6-113.8,451.1L-113.8,451.1z"/>
		</g>
	</g>
	<g id="XMLID_12128_">
		<g id="XMLID_282_">
			<path id="XMLID_286_" class="st0" d="M-120.1,449.4c0,0.8,0,1.7,0,2.5c0,0.6,1,0.6,1,0c0-0.8,0-1.7,0-2.5
				C-119.2,448.7-120.1,448.7-120.1,449.4L-120.1,449.4z"/>
		</g>
	</g>
	<g id="XMLID_12135_">
		<g id="XMLID_276_">
			<path id="XMLID_280_" class="st0" d="M-123.4,449.4c0,0.8,0,1.7,0,2.5c0,0.6,1,0.6,1,0c0-0.8,0-1.7,0-2.5
				C-122.5,448.7-123.4,448.7-123.4,449.4L-123.4,449.4z"/>
		</g>
	</g>
	<g id="XMLID_12142_">
		<g id="XMLID_270_">
			<path id="XMLID_274_" class="st0" d="M-130.1,430.7c0.1,1.5-0.1,3-0.4,4.4c-0.1,0.6,0.7,0.8,0.9,0.2c0.4-1.5,0.6-3.1,0.5-4.7
				C-129.3,430.1-130.1,430-130.1,430.7L-130.1,430.7z"/>
		</g>
	</g>
	<g id="XMLID_12149_">
		<g id="XMLID_264_">
			<path id="XMLID_268_" class="st0" d="M-127.6,430.7c0,1.1,0,2.2,0,3.3c0,0.6,1,0.6,1,0c0-1.1,0-2.2,0-3.3
				C-126.7,430-127.6,430-127.6,430.7L-127.6,430.7z"/>
		</g>
	</g>
	<g id="XMLID_12156_">
		<g id="XMLID_258_">
			<path id="XMLID_262_" class="st0" d="M-125.1,434.4c0,1,0,1.9,0,2.9c0,0.6,1,0.6,1,0c0-1,0-1.9,0-2.9
				C-124.2,433.8-125.1,433.8-125.1,434.4L-125.1,434.4z"/>
		</g>
	</g>
	<g id="XMLID_12163_">
		<g id="XMLID_252_">
			<path id="XMLID_256_" class="st0" d="M-123.1,434.4c0,1.5,0,3.1,0,4.6c0,0.6,1,0.6,1,0c0-1.5,0-3.1,0-4.6
				C-122.1,433.8-123.1,433.8-123.1,434.4L-123.1,434.4z"/>
		</g>
	</g>
	<g id="XMLID_12170_">
		<g id="XMLID_246_">
			<path id="XMLID_250_" class="st0" d="M-120.6,438.2c0,0.8,0,1.7,0,2.5c0,0.6,1,0.6,1,0c0-0.8,0-1.7,0-2.5
				C-119.6,437.5-120.6,437.5-120.6,438.2L-120.6,438.2z"/>
		</g>
	</g>
	<g id="XMLID_12177_">
		<g id="XMLID_240_">
			<path id="XMLID_244_" class="st0" d="M-118.5,441.5c0,1.1,0,2.2,0,3.3c0,0.6,1,0.6,1,0c0-1.1,0-2.2,0-3.3
				C-117.5,440.9-118.5,440.9-118.5,441.5L-118.5,441.5z"/>
		</g>
	</g>
	<g id="XMLID_12184_">
		<g id="XMLID_234_">
			<path id="XMLID_238_" class="st0" d="M-119.6,445.5c-0.1,0.7-0.3,1.4-0.4,2.1c-0.1,0.6,0.8,0.8,0.9,0.2c0.1-0.7,0.3-1.4,0.4-2.1
				C-118.6,445.2-119.5,444.9-119.6,445.5L-119.6,445.5z"/>
		</g>
	</g>
	<g id="XMLID_12191_">
		<g id="XMLID_228_">
			<path id="XMLID_232_" class="st0" d="M-122.2,443.2c0,1.1,0,2.2,0,3.3c0,0.6,1,0.6,1,0c0-1.1,0-2.2,0-3.3
				C-121.2,442.5-122.2,442.5-122.2,443.2L-122.2,443.2z"/>
		</g>
	</g>
	<g id="XMLID_12198_">
		<g id="XMLID_222_">
			<path id="XMLID_226_" class="st0" d="M-125.1,440.5c-0.1,0.7-0.3,1.4-0.4,2.1c-0.1,0.6,0.8,0.8,0.9,0.2c0.1-0.7,0.3-1.4,0.4-2.1
				C-124,440.2-124.9,439.9-125.1,440.5L-125.1,440.5z"/>
		</g>
	</g>
	<g id="XMLID_12205_">
		<g id="XMLID_216_">
			<path id="XMLID_220_" class="st0" d="M-128,437.9c-0.5,1-0.7,2.1-0.4,3.3c0.1,0.6,1,0.4,0.9-0.2c-0.2-0.9-0.1-1.8,0.3-2.6
				C-127,437.8-127.8,437.4-128,437.9L-128,437.9z"/>
		</g>
	</g>
	<g id="XMLID_12212_">
		<g id="XMLID_210_">
			<path id="XMLID_214_" class="st0" d="M-131.4,438.5c-0.1,0.8-0.3,1.7-0.4,2.5c-0.1,0.6,0.8,0.8,0.9,0.2c0.1-0.8,0.3-1.7,0.4-2.5
				C-130.4,438.1-131.2,437.9-131.4,438.5L-131.4,438.5z"/>
		</g>
	</g>
	<g id="XMLID_12219_">
		<g id="XMLID_204_">
			<path id="XMLID_208_" class="st0" d="M-131.8,444.8c0,1,0,1.9,0,2.9c0,0.6,1,0.6,1,0c0-1,0-1.9,0-2.9
				C-130.9,444.2-131.8,444.2-131.8,444.8L-131.8,444.8z"/>
		</g>
	</g>
	<g id="XMLID_12226_">
		<g id="XMLID_198_">
			<path id="XMLID_202_" class="st0" d="M-129.3,443c-0.2,1.2-0.1,2.4,0.3,3.6c0.2,0.6,1.1,0.3,0.9-0.2c-0.4-1-0.5-2.1-0.3-3.1
				C-128.2,442.6-129.1,442.4-129.3,443L-129.3,443z"/>
		</g>
	</g>
	<g id="XMLID_12233_">
		<g id="XMLID_192_">
			<path id="XMLID_196_" class="st0" d="M-126.4,446c0,0.8,0,1.7,0,2.5c0,0.6,1,0.6,1,0c0-0.8,0-1.7,0-2.5
				C-125.4,445.4-126.4,445.4-126.4,446L-126.4,446z"/>
		</g>
	</g>
	<g id="XMLID_12240_">
		<g id="XMLID_186_">
			<path id="XMLID_190_" class="st0" d="M-127.5,450.3c-0.5,0.6-0.7,1.3-0.5,2.1c0.1,0.6,1,0.4,0.9-0.2c-0.1-0.4,0-0.9,0.3-1.2
				C-126.5,450.5-127.1,449.8-127.5,450.3L-127.5,450.3z"/>
		</g>
	</g>
	<g id="XMLID_12247_">
		<g id="XMLID_180_">
			<path id="XMLID_184_" class="st0" d="M-131.4,450.8c-0.5,0.9-0.7,1.9-0.4,2.9c0.1,0.6,1,0.4,0.9-0.2c-0.1-0.7-0.1-1.5,0.3-2.1
				C-130.2,450.7-131,450.3-131.4,450.8L-131.4,450.8z"/>
		</g>
	</g>
	<g id="XMLID_12254_">
		<g id="XMLID_174_">
			<path id="XMLID_178_" class="st0" d="M-79.1,378.2c0.3,0.1,0.6,0.3,0.8,0.4c0.5,0.3,1-0.5,0.4-0.8c-0.3-0.1-0.6-0.3-0.8-0.4
				C-79.2,377.1-79.7,377.9-79.1,378.2L-79.1,378.2z"/>
		</g>
	</g>
	<g id="XMLID_12261_">
		<g id="XMLID_168_">
			<path id="XMLID_172_" class="st0" d="M-78.7,381.5c0.4,0.3,0.8,0.6,1.2,0.8c0.5,0.4,1-0.4,0.4-0.8c-0.4-0.3-0.8-0.6-1.2-0.8
				C-78.7,380.4-79.2,381.2-78.7,381.5L-78.7,381.5z"/>
		</g>
	</g>
	<g id="XMLID_12268_">
		<g id="XMLID_162_">
			<path id="XMLID_166_" class="st0" d="M-77.9,384.8c0.7,0.8,1.6,1.3,2.6,1.5c0.6,0.1,0.8-0.8,0.2-0.9c-0.9-0.1-1.6-0.5-2.3-1.2
				C-77.7,383.7-78.4,384.3-77.9,384.8L-77.9,384.8z"/>
		</g>
	</g>
	<g id="XMLID_12275_">
		<g id="XMLID_156_">
			<path id="XMLID_160_" class="st0" d="M-74.7,381.9c0.6,0.7,1.1,1.4,1.7,2.1c0.4,0.4,1-0.2,0.7-0.7c-0.6-0.7-1.1-1.4-1.7-2.1
				C-74.4,380.8-75.1,381.5-74.7,381.9L-74.7,381.9z"/>
		</g>
	</g>
	<g id="XMLID_12282_">
		<g id="XMLID_150_">
			<path id="XMLID_154_" class="st0" d="M-70.1,387.2c0.3,0.6,0.6,1.1,0.8,1.7c0.3,0.5,1.1,0.1,0.8-0.4c-0.3-0.6-0.6-1.1-0.8-1.7
				C-69.6,386.2-70.4,386.7-70.1,387.2L-70.1,387.2z"/>
		</g>
	</g>
	<g id="XMLID_12289_">
		<g id="XMLID_144_">
			<path id="XMLID_148_" class="st0" d="M-72.6,387.6c0.6,0.8,1.1,1.6,1.7,2.5c0.4,0.5,1.2,0,0.8-0.4c-0.6-0.8-1.1-1.6-1.7-2.5
				C-72.1,386.6-72.9,387.1-72.6,387.6L-72.6,387.6z"/>
		</g>
	</g>
	<g id="XMLID_12296_">
		<g id="XMLID_138_">
			<path id="XMLID_142_" class="st0" d="M-67.6,393.9c-0.1,0.9,0,1.7,0.4,2.4c0.3,0.5,1.1,0.1,0.8-0.4s-0.4-1.1-0.4-1.7
				C-66.7,393.6-67.6,393.3-67.6,393.9L-67.6,393.9z"/>
		</g>
	</g>
	<g id="XMLID_12303_">
		<g id="XMLID_132_">
			<path id="XMLID_136_" class="st0" d="M-66.4,392.3c-0.3,1,0.1,2.1,1,2.6c0.5,0.3,1-0.5,0.4-0.8c-0.5-0.4-0.7-1-0.6-1.5
				C-65.4,391.9-66.2,391.7-66.4,392.3L-66.4,392.3z"/>
		</g>
	</g>
	<g id="XMLID_12310_">
		<g id="XMLID_126_">
			<path id="XMLID_130_" class="st0" d="M-67.3,388.7c0.1,0.9,0.7,1.7,1.3,2.3c0.4,0.4,1.1-0.3,0.7-0.7c-0.6-0.5-1-1.1-1.1-1.9
				C-66.5,387.9-67.3,388.2-67.3,388.7L-67.3,388.7z"/>
		</g>
	</g>
	<g id="XMLID_12317_">
		<g id="XMLID_120_">
			<path id="XMLID_124_" class="st0" d="M-64.4,398.7c0.1,1,0.3,1.9,0.4,2.9c0.1,0.6,1,0.4,0.9-0.2c-0.1-1-0.3-1.9-0.4-2.9
				C-63.6,397.9-64.5,398.1-64.4,398.7L-64.4,398.7z"/>
		</g>
	</g>
	<g id="XMLID_12324_">
		<g id="XMLID_114_">
			<path id="XMLID_118_" class="st0" d="M-66.5,399.6c0.1,1,0.3,1.9,0.4,2.9c0.1,0.6,1,0.4,0.9-0.2c-0.1-1-0.3-1.9-0.4-2.9
				C-65.7,398.7-66.6,399-66.5,399.6L-66.5,399.6z"/>
		</g>
	</g>
	<g id="XMLID_12331_">
		<g id="XMLID_108_">
			<path id="XMLID_112_" class="st0" d="M-64.8,405.6c-0.1,1-0.3,1.9-0.4,2.9c-0.1,0.6,0.8,0.8,0.9,0.2c0.1-1,0.3-1.9,0.4-2.9
				C-63.8,405.2-64.8,405-64.8,405.6L-64.8,405.6z"/>
		</g>
	</g>
	<g id="XMLID_12338_">
		<g id="XMLID_102_">
			<path id="XMLID_106_" class="st0" d="M-81.2,374.5c0.7,0.4,1.4,0.8,2.1,1.2c0.5,0.3,1-0.5,0.4-0.8c-0.7-0.4-1.4-0.8-2.1-1.2
				C-81.3,373.4-81.7,374.2-81.2,374.5L-81.2,374.5z"/>
		</g>
	</g>
	<g id="XMLID_12345_">
		<g id="XMLID_96_">
			<path id="XMLID_100_" class="st0" d="M-76.7,378.2c0.6,0.7,1.1,1.4,1.7,2.1c0.4,0.4,1-0.2,0.7-0.7c-0.6-0.7-1.1-1.4-1.7-2.1
				C-76.5,377-77.1,377.7-76.7,378.2L-76.7,378.2z"/>
		</g>
	</g>
	<g id="XMLID_12352_">
		<g id="XMLID_90_">
			<path id="XMLID_94_" class="st0" d="M-120.8,373.2c-1,0.6-1.9,1.1-2.9,1.7c-0.5,0.3-0.1,1.1,0.4,0.8c1-0.6,1.9-1.1,2.9-1.7
				C-119.8,373.7-120.3,372.9-120.8,373.2L-120.8,373.2z"/>
		</g>
	</g>
	<g id="XMLID_12359_">
		<g id="XMLID_84_">
			<path id="XMLID_88_" class="st0" d="M-122.3,377c-1,0.1-2,0.6-2.7,1.3c-0.4,0.4,0.2,1.1,0.7,0.7c0.7-0.6,1.5-1,2.3-1.1
				C-121.5,377.8-121.7,376.8-122.3,377L-122.3,377z"/>
		</g>
	</g>
	<g id="XMLID_12366_">
		<g id="XMLID_78_">
			<path id="XMLID_82_" class="st0" d="M-124.1,379.9c-1.1,0.6-2.2,1.2-3.3,1.7c-0.5,0.3-0.1,1.1,0.4,0.8c1.1-0.6,2.2-1.2,3.3-1.7
				C-123.1,380.4-123.5,379.6-124.1,379.9L-124.1,379.9z"/>
		</g>
	</g>
	<g id="XMLID_12373_">
		<g id="XMLID_72_">
			<path id="XMLID_76_" class="st0" d="M-125.7,383.1c-1.5,0.3-3,0.6-4.6,1c-0.6,0.1-0.4,1,0.2,0.9c1.5-0.3,3-0.6,4.6-1
				C-124.8,383.8-125.1,382.9-125.7,383.1L-125.7,383.1z"/>
		</g>
	</g>
	<g id="XMLID_12380_">
		<g id="XMLID_66_">
			<path id="XMLID_70_" class="st0" d="M-130.2,382.3c-1.1,0.3-2.2,0.6-3.3,0.9c-0.6,0.1-0.4,1,0.2,0.9c1.1-0.3,2.2-0.6,3.3-0.9
				C-129.4,383-129.6,382.1-130.2,382.3L-130.2,382.3z"/>
		</g>
	</g>
	<g id="XMLID_12387_">
		<g id="XMLID_60_">
			<path id="XMLID_64_" class="st0" d="M-127.7,378.6c-1.4,0.6-2.8,1.1-4.1,1.7c-0.5,0.2-0.3,1.1,0.2,0.9c1.4-0.6,2.8-1.1,4.1-1.7
				C-126.9,379.3-127.1,378.4-127.7,378.6L-127.7,378.6z"/>
		</g>
	</g>
	<g id="XMLID_12394_">
		<g id="XMLID_54_">
			<path id="XMLID_58_" class="st0" d="M-135,386.2c-0.9,1-1.7,1.9-2.6,2.9c-0.4,0.4,0.3,1.1,0.7,0.7c0.9-1,1.7-1.9,2.6-2.9
				C-133.9,386.5-134.5,385.8-135,386.2L-135,386.2z"/>
		</g>
	</g>
	<g id="XMLID_12401_">
		<g id="XMLID_48_">
			<path id="XMLID_52_" class="st0" d="M-136.1,385.1c-1.3,0.4-2.3,1.7-2.3,3.1c0,0.6,0.9,0.6,1,0c0-1,0.7-1.9,1.6-2.2
				C-135.3,385.8-135.5,384.9-136.1,385.1L-136.1,385.1z"/>
		</g>
	</g>
	<g id="XMLID_12408_">
		<g id="XMLID_42_">
			<path id="XMLID_46_" class="st0" d="M-140.9,393.4c-0.6,0.8-1.1,1.7-1.7,2.5c-0.4,0.5,0.4,1,0.8,0.4c0.6-0.8,1.1-1.7,1.7-2.5
				C-139.8,393.3-140.6,392.9-140.9,393.4L-140.9,393.4z"/>
		</g>
	</g>
	<g id="XMLID_12415_">
		<g id="XMLID_36_">
			<path id="XMLID_40_" class="st0" d="M-141.7,390.9c-0.4,0.8-0.9,1.6-1.3,2.4c-0.3,0.5,0.5,1,0.8,0.4c0.4-0.8,0.9-1.6,1.3-2.4
				C-140.6,390.8-141.4,390.4-141.7,390.9L-141.7,390.9z"/>
		</g>
	</g>
	<g id="XMLID_12422_">
		<g id="XMLID_30_">
			<path id="XMLID_34_" class="st0" d="M-145.5,398.8c-0.4,1-0.6,2.1-0.4,3.2c0.1,0.6,1,0.6,1,0c-0.1-0.9,0-1.8,0.4-2.6
				C-144.4,398.7-145.2,398.2-145.5,398.8L-145.5,398.8z"/>
		</g>
	</g>
	<g id="XMLID_12429_">
		<g id="XMLID_24_">
			<path id="XMLID_28_" class="st0" d="M-145.5,402.3c-0.1,0.6-0.3,1.1-0.4,1.7c-0.1,0.6,0.7,0.8,0.9,0.2c0.2-0.6,0.3-1.1,0.4-1.7
				C-144.5,401.9-145.3,401.7-145.5,402.3L-145.5,402.3z"/>
		</g>
	</g>
	<g id="XMLID_12436_">
		<g id="XMLID_18_">
			<path id="XMLID_22_" class="st0" d="M-146.8,408.2c0,0.8,0,1.7,0,2.5c0,0.6,1,0.6,1,0c0-0.8,0-1.7,0-2.5
				C-145.8,407.5-146.8,407.5-146.8,408.2L-146.8,408.2z"/>
		</g>
	</g>
	<g id="XMLID_12443_">
		<g id="XMLID_12_">
			<path id="XMLID_16_" class="st0" d="M-145.9,411.5c0,0.6,0,1.1,0,1.7c0,0.6,1,0.6,1,0c0-0.6,0-1.1,0-1.7
				C-145,410.9-145.9,410.9-145.9,411.5L-145.9,411.5z"/>
		</g>
	</g>
</g>
</svg>
