<?xml version="1.0" encoding="utf-8"?>
<!-- Generator: Adobe Illustrator 19.0.0, SVG Export Plug-In . SVG Version: 6.00 Build 0)  -->
<svg version="1.1" id="Layer_1" xmlns="http://www.w3.org/2000/svg" xmlns:xlink="http://www.w3.org/1999/xlink" x="0px" y="0px"
	 viewBox="-205 297 200 200" style="enable-background:new -205 297 200 200;" xml:space="preserve">
<style type="text/css">
	.st0{fill:#E1F2F4;}
</style>
<g id="XMLID_23203_">
	<g id="XMLID_9946_">
		<g id="XMLID_39_">
			<path id="XMLID_43_" class="st0" d="M-88.9,333.5c2.1-3.2,3.1-6.5,3.2-10.3c0-0.4-0.6-0.5-0.7-0.2c-6.7,12.1-14.7,24.2-19,37.4
				c-3.9,12-1.8,23.1,4.7,33.7c3.5,5.7,7.9,10.9,11.8,16.3c4.4,6.1,9.4,13.3,7,21.2c-1.4,4.6-1.6,2.9-4.3,2.2
				c-1.6-0.4-3.3-0.1-4.8,0.5c-5,1.8-7.4,7.2-11.9,9.8c-0.4,0.2-0.1,0.8,0.3,0.7c5.3-1.3,10.7-3.5,16.1-4.4c3.5-0.6,3.9,0.7,4.8,3.9
				c0.8,3,1.4,6,1.8,9.1c0,0.3,0.5,0.4,0.7,0.2c2.3-2.6,4.3-5.7,4.3-9.3c0-3.3-1.6-4.5-3.3-7c-1.1-1.7-1.4-0.2-0.2-2.3
				c0.8-1.2,1.6-2.3,2.2-3.7c1.9-4.5,2.1-9.9,2-14.7c-0.3-10.6-3.5-20.8-7.8-30.4c-2.5-5.6-5.3-11.1-8.2-16.5
				c-2.8-5.2-13-21.7-0.5-23c0.3,0,0.4-0.2,0.4-0.5c-1.9-8.3,10.5-10.8,9.6-19c0-0.4-0.5-0.5-0.7-0.2c-2.3,3-4.6,6-6.9,9
				c-0.3,0.4,0.4,0.8,0.7,0.4c0.5-0.6,5.4-7.6,5.7-7.5c2.2,1.1-4.1,7-5.1,8c-1.4,1.4-2.8,2.8-3.6,4.7c-0.5,1.1-0.3,2.7-0.7,3.6
				c-1.2,2.3-4.3,2.5-5.5,5.5c-1.4,3.5-0.2,7.3,1.3,10.6c5.5,12,12.7,23,16.8,35.6c2.1,6.4,3.5,13,3.7,19.8c0.2,6.7-0.2,15.2-6,19.7
				c-0.3,0.2-0.1,0.6,0.2,0.7c4.3,1.5,5.8,5.9,4.6,10c-0.3,0.9-1.7,5-3.2,4.3c-0.2-0.1-1-5.1-1.1-5.5c-0.6-2.4-1.4-4.8-2.2-7.1
				c-0.1-0.2-0.3-0.3-0.5-0.3c-3.5,1.1-7.1,2.2-10.7,3.2c-1.5,0.4-3,0.8-4.5,1.2c-0.9,0.2-1.8,0.5-2.7,0.7c-0.4,0.6-0.3,0.6,0.3,0
				c3.3-4.1,11.5-13,16.8-7.4c0.2,0.2,0.5,0.1,0.6-0.1c4.8-7.9,2.2-15.3-2.5-22.5c-6.2-9.6-14.6-17.9-18.8-28.7
				c-4.7-12.4-0.9-24.6,4.8-35.9c2.7-5.3,5.6-10.4,8.5-15.6c0.9-1.6,3-7.5,4.6-8.4c0.3-0.1-2,6.7-2.9,8.1
				C-89.9,333.5-89.2,333.9-88.9,333.5L-88.9,333.5z"/>
		</g>
	</g>
	<g id="XMLID_9945_">
		<g id="XMLID_33_">
			<path id="XMLID_37_" class="st0" d="M-93.4,339.9c1.8,0.9,4.3,0.3,5.3-1.5c1-1.9,0.1-4.3-1.7-5.3c-0.4-0.2-0.9,0.4-0.4,0.7
				c1.4,0.8,2.2,2.7,1.4,4.2c-0.8,1.5-2.8,2-4.2,1.3C-93.4,338.9-93.8,339.6-93.4,339.9L-93.4,339.9z"/>
		</g>
	</g>
	<g id="XMLID_9944_">
		<g id="XMLID_27_">
			<path id="XMLID_31_" class="st0" d="M-88.9,332.1c-2,2.2-3.7,4.5-5.2,7.1c-0.3,0.4,0.4,0.8,0.7,0.4c1.4-2.5,3.1-4.8,5-6.9
				C-88,332.3-88.6,331.7-88.9,332.1L-88.9,332.1z"/>
		</g>
	</g>
	<g id="XMLID_9943_">
		<g id="XMLID_21_">
			<path id="XMLID_25_" class="st0" d="M-88.5,335.5c-1,0.9-2.3,1.3-3.6,1.2c-0.5,0-0.5,0.8,0,0.8c1.6,0.1,3-0.4,4.2-1.4
				C-87.6,335.7-88.2,335.2-88.5,335.5L-88.5,335.5z"/>
		</g>
	</g>
	<g id="XMLID_9942_">
		<g id="XMLID_15_">
			<path id="XMLID_19_" class="st0" d="M-95.8,337.4c-23.2,15.2-47.1,36.2-40.9,67c2.7,13.8,11.6,24.7,22.2,33.3
				c5.1,4.1,10.5,7.7,15.9,11.4c4.2,2.9,8.3,6.2,8.5,11.8c0.2,4.6-1.9,8.8-5.2,12c-0.3,0.3,0.1,0.9,0.5,0.6c3.7-2.8,4.7-7.5,3-11.8
				c-2.9-7.2-11.1-10.3-16.7-14.9c-2.8-2.3-5.4-5-8.2-7.3c-3.7-3-7.9-5.3-11.5-8.4c-6.3-5.2-11.5-11.8-15-19.2
				c-7.5-15.7-6.4-35.1,4-49.2c10.7-14.8,30.1-24.6,46.8-30.7c0.5-0.2,0.3-0.9-0.2-0.8c-20.1,7.3-44.4,20-52.9,40.9
				c-8.2,20.2-1.4,43.1,14.3,57.5c3.9,3.6,8.3,6.2,12.5,9.4c5.9,4.4,11.1,9.4,17.2,13.7c3.1,2.2,6.3,4.5,8.2,7.9
				c1.3,2.3,1.9,4.9,1.2,7.5c0.1-0.3-1.8,4.2-1.7,4.3c0.1,0.2,3-4.6,3.1-4.8c0.9-2.1,1.4-4.5,1.3-6.8c-0.5-9.5-11.5-14.1-18.2-18.8
				c-10.4-7.5-20.3-16.4-25.5-28.4c-6.2-14.4-4.8-31,3.4-44.4c8.2-13.5,21.3-22.7,34.2-31.2C-94.9,337.8-95.3,337.1-95.8,337.4
				L-95.8,337.4z"/>
		</g>
	</g>
	<g id="XMLID_2_">
		<g id="XMLID_705_">
			<path id="XMLID_709_" class="st0" d="M-100.2,352.4c-1.2,1.3,1.9,2.8,2.1,0.9c0.1-0.5-0.7-0.5-0.8,0c0,0.2-1-0.1-0.7-0.4
				C-99.3,352.6-99.9,352-100.2,352.4L-100.2,352.4z"/>
		</g>
	</g>
	<g id="XMLID_3_">
		<g id="XMLID_699_">
			<path id="XMLID_703_" class="st0" d="M-99.6,358.1c0,1.3,2.3,1.3,2.3,0c0-0.5-0.8-0.5-0.8,0c0,0.3-0.7,0.3-0.7,0
				C-98.8,357.6-99.6,357.6-99.6,358.1L-99.6,358.1z"/>
		</g>
	</g>
	<g id="XMLID_5_">
		<g id="XMLID_693_">
			<path id="XMLID_697_" class="st0" d="M-101,355.6c0-0.1,0-0.2,0-0.2c0-0.5-0.7-0.5-0.8-0.1c-0.1,0.5,0,1.1,0.4,1.4
				c0.1,0.1,0.3,0.2,0.5,0.1c0.5-0.3,1-0.5,1.4-0.8c0.5-0.2,0.1-0.9-0.4-0.7c-0.5,0.3-1,0.5-1.4,0.8c0.2,0,0.3,0,0.5,0.1
				C-101,356-101.1,355.8-101,355.6c-0.3,0-0.5-0.1-0.8-0.1c0,0.1,0,0.2,0,0.2C-101.8,356.1-101,356.1-101,355.6L-101,355.6z"/>
		</g>
	</g>
	<g id="XMLID_8545_">
		<g id="XMLID_687_">
			<path id="XMLID_691_" class="st0" d="M-102.9,358.8c0.7,0.2,1.3,0,1.8-0.4c0.4-0.3-0.2-0.9-0.6-0.6c-0.3,0.2-0.7,0.3-1,0.2
				C-103.2,357.9-103.4,358.7-102.9,358.8L-102.9,358.8z"/>
		</g>
	</g>
	<g id="XMLID_8553_">
		<g id="XMLID_681_">
			<path id="XMLID_685_" class="st0" d="M-101.3,361.7c1,0.6,2.3,0,2.7-1.1c0.2-0.5-0.6-0.7-0.8-0.2c-0.2,0.6-1,0.9-1.5,0.6
				C-101.3,360.8-101.7,361.5-101.3,361.7L-101.3,361.7z"/>
		</g>
	</g>
	<g id="XMLID_8596_">
		<g id="XMLID_675_">
			<path id="XMLID_679_" class="st0" d="M-98.2,361.4c0.5,1.1,2.3,1.1,2.8,0c0.2-0.5-0.5-0.9-0.7-0.4c-0.3,0.6-1.1,0.6-1.4,0
				C-97.7,360.6-98.4,361-98.2,361.4L-98.2,361.4z"/>
		</g>
	</g>
	<g id="XMLID_8696_">
		<g id="XMLID_669_">
			<path id="XMLID_673_" class="st0" d="M-103.8,360.5c0.7,0.6,1.7,0.3,2-0.5c0.2-0.5-0.6-0.7-0.8-0.2c-0.1,0.3-0.5,0.4-0.7,0.2
				C-103.6,359.6-104.2,360.1-103.8,360.5L-103.8,360.5z"/>
		</g>
	</g>
	<g id="XMLID_8800_">
		<g id="XMLID_663_">
			<path id="XMLID_667_" class="st0" d="M-105.3,362.5c0.7,1.1,2.5,1.1,3.1-0.1c0.2-0.5-0.5-0.9-0.7-0.4c-0.3,0.6-1.4,0.7-1.7,0.1
				C-104.9,361.7-105.6,362.1-105.3,362.5L-105.3,362.5z"/>
		</g>
	</g>
	<g id="XMLID_8966_">
		<g id="XMLID_657_">
			<path id="XMLID_661_" class="st0" d="M-101.6,363.5c0.6,1.2,2.4,1.2,3.1,0.1c0.3-0.4-0.4-0.8-0.7-0.4c-0.4,0.6-1.4,0.5-1.7-0.1
				C-101.1,362.7-101.8,363.1-101.6,363.5L-101.6,363.5z"/>
		</g>
	</g>
	<g id="XMLID_8974_">
		<g id="XMLID_651_">
			<path id="XMLID_655_" class="st0" d="M-98.9,363.6c0.6,1,1.9,1.2,2.8,0.5c0.4-0.3-0.2-0.9-0.6-0.6c-0.5,0.4-1.2,0.2-1.5-0.3
				S-99.1,363.1-98.9,363.6L-98.9,363.6z"/>
		</g>
	</g>
	<g id="XMLID_8982_">
		<g id="XMLID_645_">
			<path id="XMLID_649_" class="st0" d="M-97.5,366.8c0.9,1.2,2.7,1.1,3.5-0.1c0.3-0.4-0.4-0.8-0.7-0.4c-0.5,0.7-1.6,0.8-2.2,0.1
				C-97.1,366-97.8,366.4-97.5,366.8L-97.5,366.8z"/>
		</g>
	</g>
	<g id="XMLID_8990_">
		<g id="XMLID_639_">
			<path id="XMLID_643_" class="st0" d="M-101.8,366c0.3,1.1,1.9,1.3,2.5,0.4c0.3-0.4-0.4-0.8-0.7-0.4c-0.3,0.4-1,0.2-1.1-0.2
				C-101.2,365.3-102,365.5-101.8,366L-101.8,366z"/>
		</g>
	</g>
	<g id="XMLID_8998_">
		<g id="XMLID_633_">
			<path id="XMLID_637_" class="st0" d="M-106.1,365.4c0.5,1,2.1,1.2,2.8,0.4c0.3-0.4-0.2-1-0.6-0.6c-0.4,0.5-1.3,0.4-1.6-0.2
				C-105.6,364.5-106.3,364.9-106.1,365.4L-106.1,365.4z"/>
		</g>
	</g>
	<g id="XMLID_9006_">
		<g id="XMLID_627_">
			<path id="XMLID_631_" class="st0" d="M-106,368.1c0.3,1.1,1.7,1.7,2.7,1c0.4-0.3,0-1-0.4-0.7c-0.5,0.4-1.3,0.1-1.5-0.5
				C-105.3,367.4-106.1,367.6-106,368.1L-106,368.1z"/>
		</g>
	</g>
	<g id="XMLID_9015_">
		<g id="XMLID_621_">
			<path id="XMLID_625_" class="st0" d="M-103.2,370.4c0.5,1.1,2.1,1.3,2.8,0.4c0.3-0.4-0.2-0.9-0.6-0.6c-0.4,0.5-1.3,0.4-1.6-0.2
				C-102.8,369.5-103.5,369.9-103.2,370.4L-103.2,370.4z"/>
		</g>
	</g>
	<g id="XMLID_9023_">
		<g id="XMLID_615_">
			<path id="XMLID_619_" class="st0" d="M-99.6,370.3c0.6,1,1.9,1.1,2.8,0.4c0.4-0.3-0.2-0.9-0.6-0.6c-0.5,0.4-1.2,0.3-1.5-0.3
				C-99.2,369.5-99.9,369.9-99.6,370.3L-99.6,370.3z"/>
		</g>
	</g>
	<g id="XMLID_9067_">
		<g id="XMLID_609_">
			<path id="XMLID_613_" class="st0" d="M-96,368.9c0.5,0.7,1.5,1,2.3,0.5c0.4-0.3,0-1-0.4-0.7c-0.4,0.2-0.9,0.2-1.2-0.2
				C-95.6,368.1-96.3,368.5-96,368.9L-96,368.9z"/>
		</g>
	</g>
	<g id="XMLID_9081_">
		<g id="XMLID_603_">
			<path id="XMLID_607_" class="st0" d="M-101.1,368.2c0.6,1.2,2.4,1,2.8-0.2c0.2-0.5-0.6-0.7-0.8-0.2c-0.2,0.6-1.1,0.5-1.4,0
				C-100.7,367.4-101.3,367.8-101.1,368.2L-101.1,368.2z"/>
		</g>
	</g>
	<g id="XMLID_9089_">
		<g id="XMLID_597_">
			<path id="XMLID_601_" class="st0" d="M-94.6,373c0.3,0,0.7,0,1-0.1c0.2,0,0.4-0.2,0.4-0.4c0-0.3,0-0.7,0.1-1c0-0.5-0.8-0.5-0.8,0
				c0,0.3,0,0.7-0.1,1c0.1-0.1,0.3-0.3,0.4-0.4c-0.3,0-0.7,0-1,0.1C-95.1,372.2-95.1,373-94.6,373L-94.6,373z"/>
		</g>
	</g>
	<g id="XMLID_9097_">
		<g id="XMLID_591_">
			<path id="XMLID_595_" class="st0" d="M-92.3,370.7c0.7,0.4,1.7-0.1,1.6-1c-0.1-0.5-0.9-0.5-0.8,0c0,0.2-0.2,0.4-0.4,0.3
				C-92.3,369.8-92.7,370.5-92.3,370.7L-92.3,370.7z"/>
		</g>
	</g>
	<g id="XMLID_9106_">
		<g id="XMLID_585_">
			<path id="XMLID_589_" class="st0" d="M-98.2,373.3c0.7,0.6,1.8,0.3,2.1-0.6c0.1-0.5-0.6-0.7-0.8-0.2c-0.1,0.3-0.5,0.5-0.7,0.3
				C-98,372.4-98.6,373-98.2,373.3L-98.2,373.3z"/>
		</g>
	</g>
	<g id="XMLID_9114_">
		<g id="XMLID_579_">
			<path id="XMLID_583_" class="st0" d="M-102.5,373.2c0.7,1,2.2,1.2,3.2,0.3c0.4-0.4-0.2-0.9-0.6-0.6c-0.5,0.5-1.5,0.4-1.9-0.2
				C-102.1,372.4-102.8,372.8-102.5,373.2L-102.5,373.2z"/>
		</g>
	</g>
	<g id="XMLID_9122_">
		<g id="XMLID_573_">
			<path id="XMLID_577_" class="st0" d="M-105.9,372.1c0.8,0.7,2.2,0.5,2.7-0.4c0.2-0.5-0.4-0.9-0.7-0.4c-0.3,0.5-1,0.7-1.4,0.3
				C-105.7,371.2-106.3,371.8-105.9,372.1L-105.9,372.1z"/>
		</g>
	</g>
	<g id="XMLID_9130_">
		<g id="XMLID_567_">
			<path id="XMLID_571_" class="st0" d="M-105.9,375.5c0.8,0.4,1.8,0.4,2.5-0.1c0.4-0.3,0-1-0.4-0.7c-0.5,0.4-1.2,0.5-1.7,0.1
				C-105.9,374.6-106.3,375.3-105.9,375.5L-105.9,375.5z"/>
		</g>
	</g>
	<g id="XMLID_9138_">
		<g id="XMLID_561_">
			<path id="XMLID_565_" class="st0" d="M-103.9,378.9c1,0.4,2,0,2.6-0.8c0.3-0.4-0.4-0.8-0.7-0.4c-0.4,0.5-1.1,0.7-1.7,0.4
				C-104.2,378-104.4,378.7-103.9,378.9L-103.9,378.9z"/>
		</g>
	</g>
	<g id="XMLID_9146_">
		<g id="XMLID_555_">
			<path id="XMLID_559_" class="st0" d="M-102.1,376.5c0.9,0.8,2.4,0.2,2.5-1c0-0.5-0.8-0.5-0.8,0s-0.7,0.8-1.1,0.5
				C-101.9,375.6-102.4,376.1-102.1,376.5L-102.1,376.5z"/>
		</g>
	</g>
	<g id="XMLID_9155_">
		<g id="XMLID_549_">
			<path id="XMLID_553_" class="st0" d="M-97.8,376.2c0.5,0,0.9,0,1.4-0.1c0.2,0,0.4-0.2,0.4-0.4c0-0.3,0-0.7,0.1-1
				c0-0.5-0.8-0.5-0.8,0c0,0.3,0,0.7-0.1,1c0.1-0.1,0.3-0.3,0.4-0.4c-0.5,0-0.9,0-1.4,0.1C-98.3,375.4-98.3,376.2-97.8,376.2
				L-97.8,376.2z"/>
		</g>
	</g>
	<g id="XMLID_9163_">
		<g id="XMLID_543_">
			<path id="XMLID_547_" class="st0" d="M-95,375.5c0.2,0.5,0.5,0.8,1,1c0.1,0,0.3,0,0.4-0.1c0.3-0.4,0.6-0.8,0.8-1.3
				c0.2-0.5-0.6-0.7-0.8-0.2c-0.1,0.4-0.3,0.7-0.5,1c0.1,0,0.3-0.1,0.4-0.1c-0.2-0.1-0.4-0.3-0.5-0.5
				C-94.4,374.9-95.2,375.1-95,375.5L-95,375.5z"/>
		</g>
	</g>
	<g id="XMLID_9171_">
		<g id="XMLID_537_">
			<path id="XMLID_541_" class="st0" d="M-92.5,374c0.7,0.9,2.2-0.2,1.7-1.2c-0.2-0.5-0.9-0.1-0.7,0.4c0.1,0.2-0.3,0.4-0.4,0.2
				C-92.2,373-92.8,373.6-92.5,374L-92.5,374z"/>
		</g>
	</g>
	<g id="XMLID_9215_">
		<g id="XMLID_531_">
			<path id="XMLID_535_" class="st0" d="M-92.3,377.8c0.8,0.4,1.9,0.1,2.3-0.7c0.2-0.5-0.5-0.9-0.7-0.4s-0.8,0.7-1.3,0.5
				C-92.4,376.9-92.8,377.6-92.3,377.8L-92.3,377.8z"/>
		</g>
	</g>
	<g id="XMLID_9223_">
		<g id="XMLID_525_">
			<path id="XMLID_529_" class="st0" d="M-97.5,379c1,1.2,3.2,0.9,3.8-0.5c0.2-0.5-0.5-0.9-0.7-0.4c-0.4,1-1.9,1.2-2.6,0.4
				C-97.2,378-97.8,378.6-97.5,379L-97.5,379z"/>
		</g>
	</g>
	<g id="XMLID_9232_">
		<g id="XMLID_519_">
			<path id="XMLID_523_" class="st0" d="M-100.6,379c0.9,0.7,2.2-0.1,2.3-1.1c0.1-0.5-0.7-0.5-0.8,0c-0.1,0.5-0.7,0.7-1.1,0.5
				C-100.6,378.1-101,378.8-100.6,379L-100.6,379z"/>
		</g>
	</g>
	<g id="XMLID_9240_">
		<g id="XMLID_513_">
			<path id="XMLID_517_" class="st0" d="M-104.7,381.2c0.3,1.2,2.3,1.2,2.6,0c0.1-0.5-0.7-0.7-0.8-0.2c-0.1,0.5-0.9,0.5-1,0
				S-104.8,380.7-104.7,381.2L-104.7,381.2z"/>
		</g>
	</g>
	<g id="XMLID_9248_">
		<g id="XMLID_507_">
			<path id="XMLID_511_" class="st0" d="M-103.8,384.6c1,0.9,2.8,0.4,3.1-0.9c0.1-0.5-0.6-0.7-0.8-0.2c-0.2,0.7-1.2,1.1-1.8,0.6
				C-103.6,383.7-104.2,384.3-103.8,384.6L-103.8,384.6z"/>
		</g>
	</g>
	<g id="XMLID_9256_">
		<g id="XMLID_501_">
			<path id="XMLID_505_" class="st0" d="M-100.9,382.9c1.2,0.9,3.1-0.5,2.7-1.9c-0.1-0.5-0.9-0.3-0.8,0.2c0.2,0.8-0.9,1.5-1.5,1
				C-100.9,381.9-101.3,382.6-100.9,382.9L-100.9,382.9z"/>
		</g>
	</g>
	<g id="XMLID_9264_">
		<g id="XMLID_495_">
			<path id="XMLID_499_" class="st0" d="M-97.4,381.9c0.8,0.5,1.8,0.5,2.6-0.1c0.4-0.3,0-1-0.4-0.7c-0.5,0.4-1.2,0.5-1.7,0.1
				C-97.4,380.9-97.8,381.6-97.4,381.9L-97.4,381.9z"/>
		</g>
	</g>
	<g id="XMLID_9272_">
		<g id="XMLID_489_">
			<path id="XMLID_493_" class="st0" d="M-92.6,381.3c1.4,0.8,3.3-0.5,3-2.1c-0.1-0.5-0.8-0.3-0.8,0.2c0.1,0.9-1.1,1.7-1.9,1.2
				C-92.7,380.4-93.1,381.1-92.6,381.3L-92.6,381.3z"/>
		</g>
	</g>
	<g id="XMLID_9281_">
		<g id="XMLID_483_">
			<path id="XMLID_487_" class="st0" d="M-88.9,379.2c0.7,1,2.5,0.2,2.1-1c-0.2-0.5-0.9-0.3-0.8,0.2c0.1,0.3-0.5,0.7-0.6,0.4
				C-88.5,378.3-89.2,378.7-88.9,379.2L-88.9,379.2z"/>
		</g>
	</g>
	<g id="XMLID_9289_">
		<g id="XMLID_477_">
			<path id="XMLID_481_" class="st0" d="M-100.6,385.8c0.6,1.4,2.9,1.1,3.1-0.4c0.1-0.5-0.7-0.5-0.8,0c-0.1,0.6-1.3,0.8-1.5,0.2
				C-100,385.1-100.8,385.3-100.6,385.8L-100.6,385.8z"/>
		</g>
	</g>
	<g id="XMLID_9297_">
		<g id="XMLID_471_">
			<path id="XMLID_475_" class="st0" d="M-96.6,385.5c0.9,1,2.7,0.5,3-0.8c0.1-0.5-0.6-0.7-0.8-0.2c-0.2,0.7-1.2,1-1.7,0.4
				C-96.4,384.6-96.9,385.2-96.6,385.5L-96.6,385.5z"/>
		</g>
	</g>
	<g id="XMLID_9305_">
		<g id="XMLID_465_">
			<path id="XMLID_469_" class="st0" d="M-93.1,384c0.9,0.7,2.2-0.1,2.3-1.1c0-0.5-0.8-0.5-0.8,0s-0.7,0.7-1.1,0.4
				C-93.1,383-93.5,383.7-93.1,384L-93.1,384z"/>
		</g>
	</g>
	<g id="XMLID_9313_">
		<g id="XMLID_459_">
			<path id="XMLID_463_" class="st0" d="M-96.5,384.3c1.3,0.3,2.5-0.2,3.3-1.2c0.3-0.4-0.4-0.8-0.7-0.4c-0.5,0.7-1.5,1.1-2.4,0.9
				C-96.8,383.4-97,384.2-96.5,384.3L-96.5,384.3z"/>
		</g>
	</g>
	<g id="XMLID_9321_">
		<g id="XMLID_453_">
			<path id="XMLID_457_" class="st0" d="M-89.5,383.1c1.3,0.7,2.9-0.9,2.2-2.2c-0.3-0.4-0.9,0-0.7,0.4c0.3,0.6-0.5,1.4-1.1,1.1
				C-89.5,382.2-89.9,382.9-89.5,383.1L-89.5,383.1z"/>
		</g>
	</g>
	<g id="XMLID_9330_">
		<g id="XMLID_447_">
			<path id="XMLID_451_" class="st0" d="M-90.6,386.1c1,0.6,2.3,0,2.6-1c0.2-0.5-0.6-0.7-0.8-0.2c-0.2,0.6-0.9,0.9-1.4,0.6
				C-90.7,385.2-91.1,385.9-90.6,386.1L-90.6,386.1z"/>
		</g>
	</g>
	<g id="XMLID_9338_">
		<g id="XMLID_441_">
			<path id="XMLID_445_" class="st0" d="M-86.6,384.9c1.2,0.6,2.6-0.5,2.3-1.8c-0.1-0.5-0.9-0.3-0.8,0.2c0.1,0.6-0.6,1.1-1.1,0.9
				C-86.7,384-87.1,384.7-86.6,384.9L-86.6,384.9z"/>
		</g>
	</g>
	<g id="XMLID_9346_">
		<g id="XMLID_435_">
			<path id="XMLID_439_" class="st0" d="M-92.5,387.1c0.7,0.6,1.8,0.3,2.1-0.6c0.1-0.5-0.6-0.7-0.8-0.2c-0.1,0.3-0.5,0.5-0.7,0.3
				C-92.3,386.2-92.9,386.8-92.5,387.1L-92.5,387.1z"/>
		</g>
	</g>
	<g id="XMLID_9354_">
		<g id="XMLID_429_">
			<path id="XMLID_433_" class="st0" d="M-96.4,388c0.8,0.4,1.7,0.1,2.1-0.7c0.2-0.5-0.5-0.9-0.7-0.4c-0.2,0.4-0.6,0.6-1,0.4
				C-96.4,387.1-96.8,387.8-96.4,388L-96.4,388z"/>
		</g>
	</g>
	<g id="XMLID_9362_">
		<g id="XMLID_423_">
			<path id="XMLID_427_" class="st0" d="M-101.2,389.5c1,1.2,2.8-0.2,1.9-1.4c-0.3-0.4-1,0-0.7,0.4c0.3,0.5-0.3,1-0.7,0.5
				C-101,388.5-101.6,389.1-101.2,389.5L-101.2,389.5z"/>
		</g>
	</g>
	<g id="XMLID_9370_">
		<g id="XMLID_417_">
			<path id="XMLID_421_" class="st0" d="M-102.4,387.6c0.8-0.1,1.5-0.6,1.8-1.4c0.2-0.5-0.6-0.7-0.8-0.2c-0.2,0.4-0.5,0.8-1,0.8
				S-102.9,387.6-102.4,387.6L-102.4,387.6z"/>
		</g>
	</g>
	<g id="XMLID_9379_">
		<g id="XMLID_411_">
			<path id="XMLID_415_" class="st0" d="M-98.3,390.5c1.2,0.8,2.8-0.4,2.6-1.8c-0.1-0.5-0.8-0.3-0.8,0.2c0.1,0.7-0.9,1.2-1.5,0.9
				C-98.3,389.6-98.7,390.3-98.3,390.5L-98.3,390.5z"/>
		</g>
	</g>
	<g id="XMLID_9387_">
		<g id="XMLID_405_">
			<path id="XMLID_409_" class="st0" d="M-100.4,391.9c0.6,1.4,3,1.1,3.1-0.5c0-0.5-0.8-0.5-0.8,0c0,0.6-1.2,0.9-1.5,0.3
				C-99.9,391.2-100.6,391.4-100.4,391.9L-100.4,391.9z"/>
		</g>
	</g>
	<g id="XMLID_9395_">
		<g id="XMLID_399_">
			<path id="XMLID_403_" class="st0" d="M-95.6,390.7c1.3,0.9,3.1-0.5,2.7-1.9c-0.1-0.5-0.9-0.3-0.8,0.2c0.2,0.8-0.9,1.5-1.6,1
				C-95.6,389.7-96,390.4-95.6,390.7L-95.6,390.7z"/>
		</g>
	</g>
	<g id="XMLID_9403_">
		<g id="XMLID_393_">
			<path id="XMLID_397_" class="st0" d="M-91.7,389.4c1.2,0.6,2.8-0.6,2.3-2c-0.2-0.5-0.9-0.3-0.8,0.2c0.2,0.6-0.5,1.4-1.2,1.1
				C-91.8,388.5-92.2,389.2-91.7,389.4L-91.7,389.4z"/>
		</g>
	</g>
	<g id="XMLID_9411_">
		<g id="XMLID_387_">
			<path id="XMLID_391_" class="st0" d="M-88.6,387.3c0.8,1,2.7,0.4,2.6-0.9c0-0.5-0.8-0.5-0.8,0s-0.7,1-1.1,0.5
				C-88.2,386.5-88.9,386.9-88.6,387.3L-88.6,387.3z"/>
		</g>
	</g>
	<g id="XMLID_9419_">
		<g id="XMLID_381_">
			<path id="XMLID_385_" class="st0" d="M-85.2,387.5c0.2-0.1,0.5-0.2,0.7-0.4c0.5-0.2,0.1-0.9-0.4-0.7c-0.2,0.1-0.5,0.2-0.7,0.4
				C-86.1,387-85.7,387.7-85.2,387.5L-85.2,387.5z"/>
		</g>
	</g>
	<g id="XMLID_9428_">
		<g id="XMLID_375_">
			<path id="XMLID_379_" class="st0" d="M-87.2,390.4c1.2,0,2.3-0.4,3.1-1.2c0.4-0.4-0.2-0.9-0.6-0.6c-0.7,0.7-1.6,1-2.5,1
				C-87.7,389.6-87.7,390.4-87.2,390.4L-87.2,390.4z"/>
		</g>
	</g>
	<g id="XMLID_9436_">
		<g id="XMLID_369_">
			<path id="XMLID_373_" class="st0" d="M-90.7,391.4c1.2-0.1,2.2-0.9,2.5-2c0.2-0.5-0.6-0.7-0.8-0.2c-0.3,0.8-1,1.3-1.8,1.4
				C-91.2,390.6-91.2,391.4-90.7,391.4L-90.7,391.4z"/>
		</g>
	</g>
	<g id="XMLID_9444_">
		<g id="XMLID_363_">
			<path id="XMLID_367_" class="st0" d="M-94.1,392.2c0.4,0.6,1.2,0.9,2,0.6c0.7-0.3,1-1.2,0.8-1.9c-0.2-0.5-0.9-0.3-0.8,0.2
				c0.2,0.8-0.8,1.4-1.3,0.7C-93.8,391.4-94.4,391.8-94.1,392.2L-94.1,392.2z"/>
		</g>
	</g>
	<g id="XMLID_9452_">
		<g id="XMLID_357_">
			<path id="XMLID_361_" class="st0" d="M-97.8,393.7c1,0.7,2.5,0.1,2.9-1.1c0.1-0.5-0.6-0.7-0.8-0.2c-0.2,0.7-1.1,1-1.7,0.6
				C-97.8,392.7-98.2,393.4-97.8,393.7L-97.8,393.7z"/>
		</g>
	</g>
	<g id="XMLID_9460_">
		<g id="XMLID_351_">
			<path id="XMLID_355_" class="st0" d="M-97.2,395.9c-0.1,0.9,0.6,1.5,1.4,1.5c1,0,1.6-1.1,1.9-1.9c0.2-0.5-0.5-0.9-0.7-0.4
				c-0.2,0.4-0.4,1-0.8,1.3c-0.3,0.2-1.2,0.3-1.1-0.3C-96.3,395.6-97.1,395.4-97.2,395.9L-97.2,395.9z"/>
		</g>
	</g>
	<g id="XMLID_9468_">
		<g id="XMLID_345_">
			<path id="XMLID_349_" class="st0" d="M-94.2,394.8c1.2,1,3.3,0.4,3.5-1.2c0.1-0.5-0.7-0.7-0.8-0.2c-0.2,0.9-1.4,1.5-2.2,0.8
				C-94,393.9-94.5,394.5-94.2,394.8L-94.2,394.8z"/>
		</g>
	</g>
	<g id="XMLID_9477_">
		<g id="XMLID_339_">
			<path id="XMLID_343_" class="st0" d="M-89.8,393.9c1.1,0.4,2.4-0.6,2.3-1.8c0-0.5-0.8-0.5-0.8,0c0,0.7-0.6,1.2-1.3,1
				C-90,392.9-90.2,393.7-89.8,393.9L-89.8,393.9z"/>
		</g>
	</g>
	<g id="XMLID_9485_">
		<g id="XMLID_333_">
			<path id="XMLID_337_" class="st0" d="M-86.5,392.8c1.2,0.5,2.7-0.3,3-1.6c0.1-0.5-0.7-0.7-0.8-0.2c-0.2,0.9-1.2,1.4-2,1
				C-86.8,391.8-87,392.6-86.5,392.8L-86.5,392.8z"/>
		</g>
	</g>
	<g id="XMLID_9493_">
		<g id="XMLID_327_">
			<path id="XMLID_331_" class="st0" d="M-91.7,397.2c1.1,0.5,2.4-0.3,2.4-1.5c0-0.5-0.8-0.5-0.8,0c0,0.6-0.7,1.1-1.2,0.8
				C-91.8,396.3-92.2,397-91.7,397.2L-91.7,397.2z"/>
		</g>
	</g>
	<g id="XMLID_9501_">
		<g id="XMLID_321_">
			<path id="XMLID_325_" class="st0" d="M-87.9,396.1c1.3,0.1,2.4-0.9,2.4-2.2c0-0.5-0.8-0.5-0.8,0c0,0.9-0.8,1.5-1.6,1.4
				C-88.4,395.2-88.4,396-87.9,396.1L-87.9,396.1z"/>
		</g>
	</g>
	<g id="XMLID_9509_">
		<g id="XMLID_315_">
			<path id="XMLID_319_" class="st0" d="M-84.5,395c1.2,0.2,2.3-0.5,2.6-1.7c0.1-0.5-0.6-0.7-0.8-0.2c-0.2,0.7-0.9,1.3-1.6,1.1
				C-84.7,394.1-85,394.9-84.5,395L-84.5,395z"/>
		</g>
	</g>
	<g id="XMLID_9517_">
		<g id="XMLID_309_">
			<path id="XMLID_313_" class="st0" d="M-82.7,391.4c1.1,0.3,2.2-0.8,1.9-1.9c-0.1-0.5-0.9-0.3-0.8,0.2s-0.4,1-0.9,0.9
				S-83.2,391.3-82.7,391.4L-82.7,391.4z"/>
		</g>
	</g>
	<g id="XMLID_9526_">
		<g id="XMLID_303_">
			<path id="XMLID_307_" class="st0" d="M-82.3,388.8c0.6-0.5,0.9-1.3,0.8-2c0-0.5-0.8-0.5-0.8,0c0,0.6-0.2,1.1-0.6,1.5
				C-83.3,388.6-82.7,389.1-82.3,388.8L-82.3,388.8z"/>
		</g>
	</g>
	<g id="XMLID_9534_">
		<g id="XMLID_297_">
			<path id="XMLID_301_" class="st0" d="M-95.2,399.8c1,1,2.8,0,2.6-1.4c-0.1-0.5-0.9-0.3-0.8,0.2c0.1,0.6-0.9,1-1.3,0.6
				C-95,398.8-95.5,399.4-95.2,399.8L-95.2,399.8z"/>
		</g>
	</g>
	<g id="XMLID_9542_">
		<g id="XMLID_291_">
			<path id="XMLID_295_" class="st0" d="M-92.6,402.3c1,0.6,2.3-0.2,2.4-1.3c0-0.5-0.8-0.5-0.8,0s-0.7,0.9-1.2,0.6
				C-92.7,401.3-93.1,402-92.6,402.3L-92.6,402.3z"/>
		</g>
	</g>
	<g id="XMLID_9550_">
		<g id="XMLID_285_">
			<path id="XMLID_289_" class="st0" d="M-91.3,399.1c1.1,1.1,3.2,0.2,3.2-1.3c0-0.5-0.8-0.5-0.8,0c0,0.8-1.2,1.3-1.8,0.7
				C-91.1,398.1-91.7,398.7-91.3,399.1L-91.3,399.1z"/>
		</g>
	</g>
	<g id="XMLID_9558_">
		<g id="XMLID_279_">
			<path id="XMLID_283_" class="st0" d="M-87.1,398.7c1,0.9,2.7-0.1,2.4-1.4c-0.1-0.5-0.9-0.3-0.8,0.2s-0.7,1-1.1,0.7
				C-86.9,397.8-87.5,398.4-87.1,398.7L-87.1,398.7z"/>
		</g>
	</g>
	<g id="XMLID_9566_">
		<g id="XMLID_273_">
			<path id="XMLID_277_" class="st0" d="M-83.7,397.1c1.3,0.2,2.5-0.9,2.3-2.3c-0.1-0.5-0.9-0.3-0.8,0.2c0.1,0.7-0.6,1.4-1.3,1.3
				C-84,396.2-84.2,397-83.7,397.1L-83.7,397.1z"/>
		</g>
	</g>
	<g id="XMLID_9575_">
		<g id="XMLID_267_">
			<path id="XMLID_271_" class="st0" d="M-83.6,400.2c0.9,0.9,2.5,0.2,2.5-1c0-0.5-0.8-0.5-0.8,0s-0.8,0.8-1.2,0.5
				C-83.4,399.3-84,399.9-83.6,400.2L-83.6,400.2z"/>
		</g>
	</g>
	<g id="XMLID_9583_">
		<g id="XMLID_261_">
			<path id="XMLID_265_" class="st0" d="M-80.9,397.8c1.3,0.4,2.6-0.9,2.2-2.2c-0.1-0.5-0.9-0.3-0.8,0.2c0.2,0.7-0.5,1.5-1.2,1.2
				C-81.2,396.8-81.4,397.6-80.9,397.8L-80.9,397.8z"/>
		</g>
	</g>
	<g id="XMLID_9591_">
		<g id="XMLID_255_">
			<path id="XMLID_259_" class="st0" d="M-88,401.7c0.8,0.2,1.7,0.1,2.5-0.3c0.5-0.2,0-0.9-0.4-0.7c-0.6,0.3-1.2,0.4-1.8,0.2
				C-88.3,400.8-88.5,401.5-88,401.7L-88,401.7z"/>
		</g>
	</g>
	<g id="XMLID_9599_">
		<g id="XMLID_249_">
			<path id="XMLID_253_" class="st0" d="M-90.3,404c0.4,0.3,0.8,0.5,1.2,0.5c0.2,0,0.3-0.1,0.4-0.3c0.1-0.3,0.3-0.7,0.4-1
				c0.2-0.5-0.6-0.7-0.8-0.2c-0.1,0.3-0.3,0.7-0.4,1c0.1-0.1,0.3-0.2,0.4-0.3c-0.3,0-0.5,0-0.7-0.2C-90.1,403.1-90.7,403.7-90.3,404
				L-90.3,404z"/>
		</g>
	</g>
	<g id="XMLID_9607_">
		<g id="XMLID_243_">
			<path id="XMLID_247_" class="st0" d="M-90.9,405.9c0,0.7,0.6,1.1,1.3,1.1c0.8,0,1.3-0.7,1.6-1.3c0.3-0.4-0.4-0.8-0.7-0.4
				c-0.2,0.3-0.4,0.6-0.7,0.8c-0.2,0.1-0.7,0.2-0.8-0.2C-90.1,405.4-90.9,405.4-90.9,405.9L-90.9,405.9z"/>
		</g>
	</g>
	<g id="XMLID_9615_">
		<g id="XMLID_237_">
			<path id="XMLID_241_" class="st0" d="M-86.9,404.7c1.2,0.8,2.8-0.4,2.6-1.7c-0.1-0.5-0.8-0.3-0.8,0.2c0.1,0.7-0.9,1.2-1.5,0.8
				C-87,403.7-87.4,404.4-86.9,404.7L-86.9,404.7z"/>
		</g>
	</g>
	<g id="XMLID_9624_">
		<g id="XMLID_231_">
			<path id="XMLID_235_" class="st0" d="M-83.5,403c1,0.4,2.2-0.1,2.6-1.1c0.2-0.5-0.5-0.9-0.7-0.4c-0.3,0.7-1,1-1.7,0.8
				C-83.7,402-84,402.8-83.5,403L-83.5,403z"/>
		</g>
	</g>
	<g id="XMLID_9632_">
		<g id="XMLID_225_">
			<path id="XMLID_229_" class="st0" d="M-80.4,400.9c0.4,0.5,1.2,0.6,1.7,0.2s0.6-1.2,0.3-1.7c-0.3-0.4-1,0-0.7,0.4
				c0.3,0.6-0.3,1-0.8,0.6C-80.2,400-80.8,400.5-80.4,400.9L-80.4,400.9z"/>
		</g>
	</g>
	<g id="XMLID_9640_">
		<g id="XMLID_219_">
			<path id="XMLID_223_" class="st0" d="M-82.5,405.1c1,0.9,2.8,0.1,2.7-1.3c0-0.5-0.8-0.5-0.8,0c0,0.6-0.8,1.2-1.4,0.8
				C-82.3,404.2-82.9,404.8-82.5,405.1L-82.5,405.1z"/>
		</g>
	</g>
	<g id="XMLID_9648_">
		<g id="XMLID_213_">
			<path id="XMLID_217_" class="st0" d="M-79.2,403.3c0.7,0.7,2,0.1,2-0.9c0-0.5-0.8-0.5-0.8,0c0,0.3-0.4,0.5-0.7,0.3
				C-79,402.4-79.6,402.9-79.2,403.3L-79.2,403.3z"/>
		</g>
	</g>
	<g id="XMLID_9656_">
		<g id="XMLID_207_">
			<path id="XMLID_211_" class="st0" d="M-85.2,406.9c0.8,0.4,1.8,0,2-0.9c0.1-0.5-0.6-0.7-0.8-0.2c-0.1,0.4-0.5,0.6-0.8,0.4
				C-85.3,406-85.7,406.7-85.2,406.9L-85.2,406.9z"/>
		</g>
	</g>
	<g id="XMLID_9664_">
		<g id="XMLID_201_">
			<path id="XMLID_205_" class="st0" d="M-88.2,409.2c1.1,0.1,2.1-0.7,2.5-1.7c0.2-0.5-0.6-0.7-0.8-0.2c-0.3,0.7-1,1.2-1.7,1.1
				C-88.8,408.4-88.8,409.2-88.2,409.2L-88.2,409.2z"/>
		</g>
	</g>
	<g id="XMLID_9673_">
		<g id="XMLID_195_">
			<path id="XMLID_199_" class="st0" d="M-85.4,408.2c0.2,0.7,0.9,1.2,1.7,1.1c0.8-0.2,1.2-0.9,1.1-1.7c-0.1-0.5-0.8-0.3-0.8,0.2
				c0.1,0.8-1,0.9-1.2,0.2C-84.7,407.5-85.5,407.7-85.4,408.2L-85.4,408.2z"/>
		</g>
	</g>
	<g id="XMLID_9681_">
		<g id="XMLID_189_">
			<path id="XMLID_193_" class="st0" d="M-81.8,407.6c0.9,0.8,2.5,0.3,2.7-0.9c0.1-0.5-0.7-0.7-0.8-0.2c-0.1,0.6-0.9,1-1.4,0.5
				C-81.6,406.7-82.2,407.3-81.8,407.6L-81.8,407.6z"/>
		</g>
	</g>
	<g id="XMLID_9689_">
		<g id="XMLID_183_">
			<path id="XMLID_187_" class="st0" d="M-83.2,410.6c1,0.7,2.4,0.4,3.1-0.6c0.3-0.4-0.4-0.8-0.7-0.4c-0.5,0.6-1.4,0.7-2,0.3
				C-83.2,409.6-83.6,410.3-83.2,410.6L-83.2,410.6z"/>
		</g>
	</g>
	<g id="XMLID_9697_">
		<g id="XMLID_177_">
			<path id="XMLID_181_" class="st0" d="M-78.8,406.3c0.9,0.1,1.8-0.4,1.9-1.3c0.1-0.5-0.7-0.7-0.8-0.2c-0.1,0.4-0.4,0.9-0.9,0.8
				C-79.1,405.5-79.3,406.2-78.8,406.3L-78.8,406.3z"/>
		</g>
	</g>
	<g id="XMLID_9705_">
		<g id="XMLID_171_">
			<path id="XMLID_175_" class="st0" d="M-79.3,409.2c0.9,0.6,2.1,0.3,2.7-0.6c0.3-0.4-0.4-0.8-0.7-0.4c-0.4,0.5-1.1,0.7-1.6,0.3
				C-79.3,408.2-79.7,408.9-79.3,409.2L-79.3,409.2z"/>
		</g>
	</g>
	<g id="XMLID_9713_">
		<g id="XMLID_165_">
			<path id="XMLID_169_" class="st0" d="M-87.3,411.2c1,0.3,2.1-0.3,2.3-1.3c0.1-0.5-0.7-0.7-0.8-0.2c-0.1,0.6-0.7,0.9-1.3,0.7
				C-87.6,410.3-87.8,411.1-87.3,411.2L-87.3,411.2z"/>
		</g>
	</g>
	<g id="XMLID_9721_">
		<g id="XMLID_159_">
			<path id="XMLID_163_" class="st0" d="M-86.1,413.6c1.1,0.8,2.8,0.1,3.1-1.2c0.1-0.5-0.6-0.7-0.8-0.2c-0.2,0.8-1.3,1.2-1.9,0.7
				C-86.1,412.6-86.5,413.3-86.1,413.6L-86.1,413.6z"/>
		</g>
	</g>
	<g id="XMLID_9729_">
		<g id="XMLID_153_">
			<path id="XMLID_157_" class="st0" d="M-83.6,415.1c0.8,0.8,2.3,0.6,2.8-0.4c0.2-0.5-0.5-0.9-0.7-0.4c-0.3,0.6-1.1,0.7-1.6,0.2
				C-83.4,414.1-83.9,414.7-83.6,415.1L-83.6,415.1z"/>
		</g>
	</g>
	<g id="XMLID_9737_">
		<g id="XMLID_147_">
			<path id="XMLID_151_" class="st0" d="M-80.5,413c0.7,0.2,1.5,0.1,2.1-0.3c0.4-0.3,0-1-0.4-0.7c-0.5,0.3-0.9,0.4-1.5,0.3
				C-80.8,412.1-81,412.9-80.5,413L-80.5,413z"/>
		</g>
	</g>
	<g id="XMLID_9745_">
		<g id="XMLID_141_">
			<path id="XMLID_145_" class="st0" d="M-78.4,411.2c1.1,0.4,2.3-0.2,2.6-1.3c0.2-0.5-0.6-0.7-0.8-0.2c-0.2,0.7-1,1-1.6,0.7
				C-78.7,410.2-78.9,411-78.4,411.2L-78.4,411.2z"/>
		</g>
	</g>
	<g id="XMLID_9753_">
		<g id="XMLID_135_">
			<path id="XMLID_139_" class="st0" d="M-77.1,415.3c1.1,0.3,2.3-0.9,1.9-2c-0.2-0.5-0.9-0.3-0.8,0.2c0.2,0.5-0.3,1.2-0.9,1.1
				C-77.3,414.4-77.6,415.2-77.1,415.3L-77.1,415.3z"/>
		</g>
	</g>
	<g id="XMLID_9761_">
		<g id="XMLID_129_">
			<path id="XMLID_133_" class="st0" d="M-80.9,415.5c1,0.1,1.9-0.4,2.2-1.4c0.2-0.5-0.6-0.7-0.8-0.2c-0.2,0.5-0.7,0.9-1.2,0.8
				C-81.2,414.7-81.4,415.5-80.9,415.5L-80.9,415.5z"/>
		</g>
	</g>
	<g id="XMLID_9769_">
		<g id="XMLID_123_">
			<path id="XMLID_127_" class="st0" d="M-83.4,417.9c0.7,1.2,2.6,1.1,3.2-0.1c0.2-0.5-0.4-0.9-0.7-0.4c-0.4,0.7-1.5,0.7-1.9,0.1
				C-82.9,417-83.6,417.4-83.4,417.9L-83.4,417.9z"/>
		</g>
	</g>
	<g id="XMLID_9777_">
		<g id="XMLID_117_">
			<path id="XMLID_121_" class="st0" d="M-79.5,418.2c0.7,1.3,2.7,0.8,2.9-0.6c0.1-0.5-0.7-0.5-0.8,0c-0.1,0.6-1.1,0.7-1.4,0.2
				C-79,417.4-79.7,417.8-79.5,418.2L-79.5,418.2z"/>
		</g>
	</g>
	<g id="XMLID_9785_">
		<g id="XMLID_111_">
			<path id="XMLID_115_" class="st0" d="M-76.5,419.9c0.5,0.8,1.9,0.6,2.1-0.4c0.1-0.5-0.7-0.7-0.8-0.2c0,0.2-0.4,0.5-0.6,0.2
				C-76.1,419.1-76.8,419.5-76.5,419.9L-76.5,419.9z"/>
		</g>
	</g>
	<g id="XMLID_9794_">
		<g id="XMLID_105_">
			<path id="XMLID_109_" class="st0" d="M-79.8,421.5c0.7,0.2,1.5,0.1,2.1-0.3c0.4-0.3,0-1-0.4-0.7c-0.5,0.3-1,0.4-1.5,0.2
				C-80.1,420.6-80.3,421.4-79.8,421.5L-79.8,421.5z"/>
		</g>
	</g>
	<g id="XMLID_9802_">
		<g id="XMLID_99_">
			<path id="XMLID_103_" class="st0" d="M-81.9,420.5c0.5,0,0.5-0.8,0-0.8S-82.4,420.5-81.9,420.5L-81.9,420.5z"/>
		</g>
	</g>
	<g id="XMLID_9810_">
		<g id="XMLID_93_">
			<path id="XMLID_97_" class="st0" d="M-82.4,420.4c0.3,0.6,1.1,1,1.8,0.7c0.7-0.3,1-1.1,0.8-1.8c-0.1-0.5-0.9-0.3-0.8,0.2
				c0.2,0.8-0.8,1.2-1.2,0.5C-82,419.5-82.6,419.9-82.4,420.4L-82.4,420.4z"/>
		</g>
	</g>
	<g id="XMLID_9818_">
		<g id="XMLID_87_">
			<path id="XMLID_91_" class="st0" d="M-81.4,423.7c0.8,0.6,1.9,0.3,2.4-0.5c0.3-0.4-0.4-0.9-0.7-0.4c-0.3,0.5-0.9,0.6-1.3,0.3
				C-81.4,422.7-81.8,423.4-81.4,423.7L-81.4,423.7z"/>
		</g>
	</g>
	<g id="XMLID_9826_">
		<g id="XMLID_81_">
			<path id="XMLID_85_" class="st0" d="M-78.3,424c0.9,0.8,2.6,0.3,2.8-0.9c0.1-0.5-0.7-0.7-0.8-0.2c-0.1,0.6-1,1-1.5,0.6
				C-78.1,423.1-78.7,423.6-78.3,424L-78.3,424z"/>
		</g>
	</g>
	<g id="XMLID_9834_">
		<g id="XMLID_75_">
			<path id="XMLID_79_" class="st0" d="M-80.1,426.1c0.6,0.7,1.6,0.5,2-0.1c0.3-0.4-0.4-0.8-0.7-0.4c-0.2,0.3-0.6,0.2-0.8,0
				C-79.8,425.1-80.4,425.7-80.1,426.1L-80.1,426.1z"/>
		</g>
	</g>
	<g id="XMLID_9843_">
		<g id="XMLID_69_">
			<path id="XMLID_73_" class="st0" d="M-78.4,427.4c0.5,1,2,1.2,2.8,0.4c0.3-0.4-0.2-0.9-0.6-0.6c-0.4,0.5-1.2,0.4-1.5-0.2
				C-77.9,426.6-78.6,427-78.4,427.4L-78.4,427.4z"/>
		</g>
	</g>
	<g id="XMLID_9852_">
		<g id="XMLID_63_">
			<path id="XMLID_67_" class="st0" d="M-81.2,427.9c-0.1,1,1,1.8,1.9,1.4c0.5-0.2,0.3-1-0.2-0.8c-0.4,0.2-0.9-0.1-0.9-0.6
				C-80.4,427.4-81.2,427.4-81.2,427.9L-81.2,427.9z"/>
		</g>
	</g>
	<g id="XMLID_9861_">
		<g id="XMLID_57_">
			<path id="XMLID_61_" class="st0" d="M-80.2,430.9c0.3,1,1.5,1.4,2.4,0.8c0.4-0.3,0-1-0.4-0.7s-1,0.2-1.2-0.4
				C-79.6,430.2-80.4,430.4-80.2,430.9L-80.2,430.9z"/>
		</g>
	</g>
	<g id="XMLID_9872_">
		<g id="XMLID_51_">
			<path id="XMLID_55_" class="st0" d="M-81.1,432.3c-0.5,0.4-0.5,1.2,0.1,1.6c0.6,0.4,1.3,0,1.5-0.6c0.2-0.5-0.6-0.7-0.8-0.2
				c-0.1,0.3-0.6,0-0.3-0.3C-80.1,432.5-80.7,431.9-81.1,432.3L-81.1,432.3z"/>
		</g>
	</g>
	<g id="XMLID_9881_">
		<g id="XMLID_45_">
			<path id="XMLID_49_" class="st0" d="M-82.7,434.7c-0.6,1,0.7,2.2,1.6,1.6c0.4-0.3,0-1-0.4-0.7c-0.3,0.2-0.7-0.2-0.5-0.5
				C-81.7,434.7-82.4,434.3-82.7,434.7L-82.7,434.7z"/>
		</g>
	</g>
</g>
</svg>
