<?xml version="1.0" encoding="utf-8"?>
<!-- Generator: Adobe Illustrator 19.0.0, SVG Export Plug-In . SVG Version: 6.00 Build 0)  -->
<svg version="1.1" id="Layer_1" xmlns="http://www.w3.org/2000/svg" xmlns:xlink="http://www.w3.org/1999/xlink" x="0px" y="0px"
	 viewBox="-205 297 200 200" style="enable-background:new -205 297 200 200;" xml:space="preserve">
<style type="text/css">
	.st0{fill:#E1F2F4;}
</style>
<g id="XMLID_23202_">
	<g id="XMLID_9941_">
		<g id="XMLID_76_">
			<path id="XMLID_80_" class="st0" d="M-94.5,341.8c7.2,37.8,2,75.9-18.3,108.9c-0.3,0.5,0.5,0.9,0.8,0.4
				c20.4-33.3,25.6-71.6,18.4-109.6C-93.8,341-94.6,341.2-94.5,341.8L-94.5,341.8z"/>
		</g>
	</g>
	<g id="XMLID_9939_">
		<g id="XMLID_70_">
			<path id="XMLID_74_" class="st0" d="M-112.8,451c-5.5-2.5-11.4-2.3-17.2-0.6c-3,0.9-5.9,2.2-8.7,3.5c-2.2,1-4.7,2.5-7,3
				c-2.4,0.6-2.3,0.8-2.5-1.7c-0.6-7.2,2.2-16.1,4.4-22.9c2.4-7.4,5.7-14.5,9.8-21.2c8.4-13.5,21.2-23,30-36.1
				c4.1-6.1,15.4-21.9,2.8-26.2c-0.5-0.2-0.8,0.7-0.2,0.8c14.3,4.8-4.9,27.9-9.8,33.7c-6.6,7.8-14.4,14.2-20.4,22.6
				c-10.9,15.4-16.9,33.7-17.6,52.5c0,0.3,0.3,0.5,0.6,0.4c11.3-3.9,23.2-12.8,35.4-7.2C-112.7,452-112.3,451.3-112.8,451
				L-112.8,451z"/>
		</g>
	</g>
	<g id="XMLID_9938_">
		<g id="XMLID_64_">
			<path id="XMLID_68_" class="st0" d="M-100.3,339.2c0.3,1.8,2,3,3.7,2.3c2.2-0.8,2.1-3.2,1.7-5.1c-0.4-1.7-1.3-3.7-3.2-3.9
				c-2-0.2-3.4,1.8-3.7,3.5c-0.1,0.5,0.7,0.8,0.8,0.2c0.3-1.4,1.3-3.3,3-2.9c1.1,0.3,1.7,1.5,2,2.4c0.3,0.9,0.5,1.9,0.5,2.8
				c-0.2,2.5-3.5,2.9-4,0.3C-99.6,338.4-100.4,338.7-100.3,339.2L-100.3,339.2z"/>
		</g>
	</g>
	<g id="XMLID_9937_">
		<g id="XMLID_58_">
			<path id="XMLID_62_" class="st0" d="M-97.7,333.4c0,2.4-1.3,4.5-3.5,5.5c-0.5,0.2-0.1,1,0.4,0.8c2.4-1.1,4-3.6,3.9-6.3
				C-96.8,332.8-97.7,332.8-97.7,333.4L-97.7,333.4z"/>
		</g>
	</g>
	<g id="XMLID_9936_">
		<g id="XMLID_52_">
			<path id="XMLID_56_" class="st0" d="M-101.8,342.1c-7.2,12.4-34,30.3-18.3,46.7c0.4,0.4,1-0.2,0.6-0.6
				c-15.3-15.9,11.2-33.2,18.4-45.6C-100.8,342-101.6,341.6-101.8,342.1L-101.8,342.1z"/>
		</g>
	</g>
	<g id="XMLID_9935_">
		<g id="XMLID_46_">
			<path id="XMLID_50_" class="st0" d="M-102.7,336.4c-9.8,11.8-25.3,19.2-31.7,33.7c-4.4,10-2,23.6,9.3,27.8
				c0.5,0.2,0.8-0.6,0.2-0.8c-14.3-5.4-12.1-23.2-4.8-33.2c7.6-10.5,19.3-16.9,27.6-26.9C-101.8,336.6-102.4,335.9-102.7,336.4
				L-102.7,336.4z"/>
		</g>
	</g>
	<g id="XMLID_9934_">
		<g id="XMLID_40_">
			<path id="XMLID_44_" class="st0" d="M-92.9,403.6c4.8,4,8.1,9.1,10.9,14.6c3.3,6.2,6.4,12.5,6.2,19.7c-0.4,12.9-8.2,25.9-16.8,35
				c-0.4,0.4,0.2,1,0.6,0.6c7.5-7,8.8-18.6,8.3-28.3c-0.5-9.7-4.3-19-12.1-25c-0.4-0.3-0.9,0.4-0.4,0.8
				c11.5,8.8,13.3,24.3,10.8,37.8c-0.6,2.9-1.4,5.8-2.7,8.5c-0.6,1.3-1.9,2.4-2.4,3.6c-1,2.3-0.5,1.3,0.8,0.3
				c3.7-2.7,6.6-8.8,8.7-12.8c4.5-8.8,7.9-19.2,5-29c-2.8-9.5-8.6-19.9-16.2-26.3C-92.7,402.7-93.4,403.3-92.9,403.6L-92.9,403.6z"
				/>
		</g>
	</g>
	<g id="XMLID_9932_">
		<g id="XMLID_34_">
			<path id="XMLID_38_" class="st0" d="M-101.3,349.7c1.2-6.2-0.6-11.8-2.6-17.7c-0.2-0.7-1.8-5.2-1.8-5.2c1.1-0.3,2.4,3.1,2.6,3.7
				c1.8,4,2.7,8.1,3,12.5c0,0.6,0.9,0.6,0.9,0c-0.3-4.2-1.1-8.3-2.8-12.2c-0.9-2.1-2-6.2-4.7-6c-0.3,0-0.5,0.3-0.4,0.6
				c2.7,7.7,6.6,15.8,5,24.1C-102.2,350-101.4,350.2-101.3,349.7L-101.3,349.7z"/>
		</g>
	</g>
	<g id="XMLID_9931_">
		<g id="XMLID_28_">
			<path id="XMLID_32_" class="st0" d="M-93.7,342.6c-0.2-4.4-0.9-8.6-2.3-12.8c-0.8-2.4-1.6-6.2-4.2-7.2c-0.3-0.1-0.6,0.2-0.6,0.4
				c0.3,3.6,1.3,6.7,3.2,9.8c0.3,0.5,1,0,0.8-0.4c-1.1-1.8-2.6-4.1-2.6-6.3c-0.2-0.4-0.2-0.8,0.1-1.1c0.2-0.7,0.3-0.6,0.5,0.1
				c0.8,0.6,1.5,3.3,1.8,4.3c1.5,4.2,2.3,8.7,2.5,13.2C-94.6,343.2-93.7,343.2-93.7,342.6L-93.7,342.6z"/>
		</g>
	</g>
	<g id="XMLID_9930_">
		<g id="XMLID_22_">
			<path id="XMLID_26_" class="st0" d="M-93.5,355c-1.1-1.5-2.7-0.9-3.9,0.2c-0.9,0.8-1.7,1.8-2.2,2.9c-0.8,1.5-1.2,4.5-3.5,4.3
				c-0.5,0-0.6,0.7-0.1,0.9c3.1,0.8,7,0.6,9-2.3c1.6-2.3,1.3-5.6-1-7.2c-0.5-0.3-0.9,0.4-0.4,0.8c2.2,1.5,2,4.9,0.2,6.6
				c-2,1.9-5,2-7.5,1.3c0,0.3-0.1,0.6-0.1,0.9c1.6,0.1,2.5-0.9,3.2-2.3c0.5-1,0.8-2.1,1.4-3c0.5-0.8,3-4.4,4.3-2.6
				C-94,355.9-93.2,355.4-93.5,355L-93.5,355z"/>
		</g>
	</g>
	<g id="XMLID_9929_">
		<g id="XMLID_16_">
			<path id="XMLID_20_" class="st0" d="M-93.4,356.2c0-0.8,0.9-1.5,1.7-1.6c0.6-0.1,1.1,0.1,1.7,0.5c0.9,0.6,1.4,1.9,1.6,2.9
				c0.4,1.9,0.3,3.8,1.1,5.6c0.2-0.2,0.4-0.4,0.5-0.5c-3-0.9-5.3-3-6.3-6c-0.2-0.5-1-0.3-0.8,0.2c1.1,3.3,3.6,5.7,6.9,6.6
				c0.3,0.1,0.7-0.2,0.5-0.5c-1.2-2.8-0.2-7.3-3.2-9.2c-1.8-1.1-4.4-0.2-4.5,2C-94.3,356.8-93.4,356.8-93.4,356.2L-93.4,356.2z"/>
		</g>
	</g>
	<g id="XMLID_9890_">
		<g id="XMLID_526_">
			<path id="XMLID_530_" class="st0" d="M-102.3,339.5c-5.1,10.9-16.4,16.7-22.4,27c-2.2,3.8-3.5,8.2-3,12.6
				c0.5,5.1,3.7,8.6,7.2,12.1c0.4,0.4,1-0.2,0.6-0.6c-4.6-4.6-7.8-9.5-6.7-16.3c1-5.9,4.5-10.6,8.5-14.9
				c5.9-6.2,12.8-11.4,16.5-19.4C-101.3,339.5-102.1,339-102.3,339.5L-102.3,339.5z"/>
		</g>
	</g>
	<g id="XMLID_9901_">
		<g id="XMLID_520_">
			<path id="XMLID_524_" class="st0" d="M-99.3,333.3c0.4,1.1,0,2.5-1.2,2.9c-0.5,0.2-0.3,1.1,0.2,0.8c1.5-0.6,2.4-2.4,1.8-4
				C-98.7,332.6-99.5,332.8-99.3,333.3L-99.3,333.3z"/>
		</g>
	</g>
	<g id="XMLID_9909_">
		<g id="XMLID_514_">
			<path id="XMLID_518_" class="st0" d="M-100,334.2c-0.1,0.6-0.4,1-1,1.3c-0.5,0.2-0.1,1,0.4,0.8c0.7-0.3,1.2-1,1.4-1.8
				C-99.1,333.9-99.9,333.7-100,334.2L-100,334.2z"/>
		</g>
	</g>
	<g id="XMLID_9955_">
		<g id="XMLID_508_">
			<path id="XMLID_512_" class="st0" d="M-102.9,339.2c-8.5,9.9-21.1,17.1-26.1,29.6c-3.6,8.9-1.5,20.3,7.9,24.5
				c0.5,0.2,1-0.5,0.4-0.8c-11.8-5.3-10.7-20-4.5-29.1c6.2-9.2,15.7-15.3,22.9-23.7C-102,339.4-102.6,338.8-102.9,339.2
				L-102.9,339.2z"/>
		</g>
	</g>
	<g id="XMLID_9963_">
		<g id="XMLID_502_">
			<path id="XMLID_506_" class="st0" d="M-104.6,339.2c-0.1,0.3-0.3,0.5-0.4,0.8c-0.3,0.5,0.5,0.9,0.8,0.4c0.1-0.3,0.3-0.5,0.4-0.8
				C-103.6,339.1-104.3,338.7-104.6,339.2L-104.6,339.2z"/>
		</g>
	</g>
	<g id="XMLID_9971_">
		<g id="XMLID_496_">
			<path id="XMLID_500_" class="st0" d="M-103.1,339c-12.6,10.6-29.4,21.7-30.9,39.6c0,0.6,0.8,0.6,0.9,0
				c1.5-17.6,18.3-28.5,30.6-39C-102.1,339.2-102.7,338.6-103.1,339L-103.1,339z"/>
		</g>
	</g>
	<g id="XMLID_9979_">
		<g id="XMLID_490_">
			<path id="XMLID_494_" class="st0" d="M-133.1,384.9c1.7,4.7,5.1,8.5,9.7,10.6c0.5,0.2,0.9-0.5,0.4-0.8c-4.4-2-7.6-5.6-9.3-10.1
				C-132.5,384.2-133.3,384.4-133.1,384.9L-133.1,384.9z"/>
		</g>
	</g>
	<g id="XMLID_9987_">
		<g id="XMLID_484_">
			<path id="XMLID_488_" class="st0" d="M-94.6,407.2c8.6,5.5,12.4,15.1,14.9,24.6c1.6,6.4,2.2,12.1,0.1,18.5
				c-1.7,4.9-3.9,9.6-5.9,14.4c-0.2,0.5,0.6,0.7,0.8,0.2c2.4-5.8,5.5-11.6,6.9-17.8c1.3-5.8,0.1-11.4-1.4-17
				c-2.5-9.3-6.5-18.4-14.9-23.7C-94.6,406.2-95.1,406.9-94.6,407.2L-94.6,407.2z"/>
		</g>
	</g>
	<g id="XMLID_9995_">
		<g id="XMLID_478_">
			<path id="XMLID_482_" class="st0" d="M-95.5,411.9c12.3,12.3,20,30.1,12.6,47.1c-0.2,0.5,0.5,1,0.8,0.4
				c7.6-17.4-0.1-35.5-12.7-48.1C-95.3,410.9-95.9,411.6-95.5,411.9L-95.5,411.9z"/>
		</g>
	</g>
	<g id="XMLID_10004_">
		<g id="XMLID_472_">
			<path id="XMLID_476_" class="st0" d="M-96.3,415.9c4.3,5.6,9.5,11.2,11.9,18c2.8,8.1,2.9,16.9,1.2,25.3c-0.1,0.5,0.7,0.8,0.8,0.2
				c1.6-7.9,1.6-16.2-0.7-24c-2.2-7.7-7.7-13.7-12.5-19.9C-95.8,415-96.6,415.4-96.3,415.9L-96.3,415.9z"/>
		</g>
	</g>
	<g id="XMLID_10012_">
		<g id="XMLID_466_">
			<path id="XMLID_470_" class="st0" d="M-145.4,453.4c0.6,0,0.6-0.9,0-0.9C-145.9,452.6-145.9,453.4-145.4,453.4L-145.4,453.4z"/>
		</g>
	</g>
	<g id="XMLID_10020_">
		<g id="XMLID_460_">
			<path id="XMLID_464_" class="st0" d="M-141.5,451.9c0.6,0,0.6-0.9,0-0.9C-142,451-142,451.9-141.5,451.9L-141.5,451.9z"/>
		</g>
	</g>
	<g id="XMLID_10028_">
		<g id="XMLID_454_">
			<path id="XMLID_458_" class="st0" d="M-134.8,449.9c0-0.1,0-0.3,0-0.4c0-0.6-0.9-0.6-0.9,0c0,0.1,0,0.3,0,0.4
				C-135.7,450.5-134.8,450.5-134.8,449.9L-134.8,449.9z"/>
		</g>
	</g>
	<g id="XMLID_10036_">
		<g id="XMLID_448_">
			<path id="XMLID_452_" class="st0" d="M-130.2,448.8c0.6,0,0.6-0.9,0-0.9C-130.8,447.9-130.8,448.8-130.2,448.8L-130.2,448.8z"/>
		</g>
	</g>
	<g id="XMLID_10044_">
		<g id="XMLID_442_">
			<path id="XMLID_446_" class="st0" d="M-118.2,448.8c0.6,0,0.6-0.9,0-0.9C-118.8,447.9-118.8,448.8-118.2,448.8L-118.2,448.8z"/>
		</g>
	</g>
	<g id="XMLID_10053_">
		<g id="XMLID_436_">
			<path id="XMLID_440_" class="st0" d="M-113.5,444.9c-0.1,0.1-0.3,0.3-0.4,0.4c-0.4,0.4,0.2,1,0.6,0.6c0.1-0.1,0.3-0.3,0.4-0.4
				C-112.5,445.2-113.1,444.5-113.5,444.9L-113.5,444.9z"/>
		</g>
	</g>
	<g id="XMLID_10061_">
		<g id="XMLID_430_">
			<path id="XMLID_434_" class="st0" d="M-120.1,444.5c0.6,0,0.6-0.9,0-0.9C-120.7,443.7-120.7,444.5-120.1,444.5L-120.1,444.5z"/>
		</g>
	</g>
	<g id="XMLID_10069_">
		<g id="XMLID_424_">
			<path id="XMLID_428_" class="st0" d="M-122.1,448c0.6,0,0.6-0.9,0-0.9C-122.6,447.1-122.6,448-122.1,448L-122.1,448z"/>
		</g>
	</g>
	<g id="XMLID_10077_">
		<g id="XMLID_418_">
			<path id="XMLID_422_" class="st0" d="M-125.6,446.5c0.6,0,0.6-0.9,0-0.9C-126.1,445.6-126.1,446.5-125.6,446.5L-125.6,446.5z"/>
		</g>
	</g>
	<g id="XMLID_10085_">
		<g id="XMLID_412_">
			<path id="XMLID_416_" class="st0" d="M-126.4,444.1c0.6,0,0.6-0.9,0-0.9C-126.9,443.3-126.9,444.1-126.4,444.1L-126.4,444.1z"/>
		</g>
	</g>
	<g id="XMLID_10093_">
		<g id="XMLID_406_">
			<path id="XMLID_410_" class="st0" d="M-139.1,448c0.6,0,0.6-0.9,0-0.9C-139.7,447.1-139.7,448-139.1,448L-139.1,448z"/>
		</g>
	</g>
	<g id="XMLID_10102_">
		<g id="XMLID_400_">
			<path id="XMLID_404_" class="st0" d="M-138.1,450.8c-0.1-0.1-0.3-0.3-0.4-0.4c-0.4-0.4-1,0.2-0.6,0.6c0.1,0.1,0.3,0.3,0.4,0.4
				C-138.3,451.8-137.7,451.2-138.1,450.8L-138.1,450.8z"/>
		</g>
	</g>
	<g id="XMLID_10110_">
		<g id="XMLID_394_">
			<path id="XMLID_398_" class="st0" d="M-142.6,447.6c0.6,0,0.6-0.9,0-0.9C-143.2,446.8-143.2,447.6-142.6,447.6L-142.6,447.6z"/>
		</g>
	</g>
	<g id="XMLID_10118_">
		<g id="XMLID_388_">
			<path id="XMLID_392_" class="st0" d="M-145,449.6c0.6,0,0.6-0.9,0-0.9C-145.5,448.7-145.5,449.6-145,449.6L-145,449.6z"/>
		</g>
	</g>
	<g id="XMLID_10126_">
		<g id="XMLID_382_">
			<path id="XMLID_386_" class="st0" d="M-144.9,442.5c0-0.1,0-0.3,0-0.4c0-0.6-0.9-0.6-0.9,0c0,0.1,0,0.3,0,0.4
				C-145.8,443.1-144.9,443.1-144.9,442.5L-144.9,442.5z"/>
		</g>
	</g>
	<g id="XMLID_10134_">
		<g id="XMLID_376_">
			<path id="XMLID_380_" class="st0" d="M-143.8,437.5c0.6,0,0.6-0.9,0-0.9C-144.4,436.7-144.4,437.5-143.8,437.5L-143.8,437.5z"/>
		</g>
	</g>
	<g id="XMLID_10142_">
		<g id="XMLID_370_">
			<path id="XMLID_374_" class="st0" d="M-142.3,432.5c0.6,0,0.6-0.9,0-0.9C-142.8,431.6-142.8,432.5-142.3,432.5L-142.3,432.5z"/>
		</g>
	</g>
	<g id="XMLID_10151_">
		<g id="XMLID_364_">
			<path id="XMLID_368_" class="st0" d="M-142.3,443.4c0.6,0,0.6-0.9,0-0.9C-142.8,442.5-142.8,443.4-142.3,443.4L-142.3,443.4z"/>
		</g>
	</g>
	<g id="XMLID_10159_">
		<g id="XMLID_358_">
			<path id="XMLID_362_" class="st0" d="M-138,444.9c0.6,0,0.6-0.9,0-0.9C-138.5,444-138.5,444.9-138,444.9L-138,444.9z"/>
		</g>
	</g>
	<g id="XMLID_10167_">
		<g id="XMLID_352_">
			<path id="XMLID_356_" class="st0" d="M-134.1,444c-0.1,0-0.3,0-0.4,0c-0.6,0-0.6,0.9,0,0.9c0.1,0,0.3,0,0.4,0
				C-133.5,444.9-133.5,444-134.1,444L-134.1,444z"/>
		</g>
	</g>
	<g id="XMLID_10175_">
		<g id="XMLID_346_">
			<path id="XMLID_350_" class="st0" d="M-94.9,363.5c0.6,0,0.6-0.9,0-0.9S-95.5,363.5-94.9,363.5L-94.9,363.5z"/>
		</g>
	</g>
	<g id="XMLID_10183_">
		<g id="XMLID_340_">
			<path id="XMLID_344_" class="st0" d="M-93,366.6c0.6,0,0.6-0.9,0-0.9S-93.6,366.6-93,366.6L-93,366.6z"/>
		</g>
	</g>
	<g id="XMLID_10191_">
		<g id="XMLID_334_">
			<path id="XMLID_338_" class="st0" d="M-92.6,370.5c0.6,0,0.6-0.9,0-0.9S-93.2,370.5-92.6,370.5L-92.6,370.5z"/>
		</g>
	</g>
	<g id="XMLID_10200_">
		<g id="XMLID_328_">
			<path id="XMLID_332_" class="st0" d="M-93.4,363c0,0.1,0,0.3,0,0.4c0,0.6,0.9,0.6,0.9,0c0-0.1,0-0.3,0-0.4
				C-92.6,362.5-93.4,362.5-93.4,363L-93.4,363z"/>
		</g>
	</g>
	<g id="XMLID_10208_">
		<g id="XMLID_322_">
			<path id="XMLID_326_" class="st0" d="M-96.9,368.5c0.6,0,0.6-0.9,0-0.9C-97.4,367.6-97.4,368.5-96.9,368.5L-96.9,368.5z"/>
		</g>
	</g>
	<g id="XMLID_10216_">
		<g id="XMLID_316_">
			<path id="XMLID_320_" class="st0" d="M-96.2,365.4c0,0.1,0,0.3,0,0.4c0,0.6,0.9,0.6,0.9,0c0-0.1,0-0.3,0-0.4
				C-95.3,364.8-96.2,364.8-96.2,365.4L-96.2,365.4z"/>
		</g>
	</g>
	<g id="XMLID_10224_">
		<g id="XMLID_310_">
			<path id="XMLID_314_" class="st0" d="M-94.6,369.7c0.6,0,0.6-0.9,0-0.9C-95.1,368.8-95.1,369.7-94.6,369.7L-94.6,369.7z"/>
		</g>
	</g>
	<g id="XMLID_10232_">
		<g id="XMLID_304_">
			<path id="XMLID_308_" class="st0" d="M-93,373.5c0,0.1,0,0.3,0,0.4c0,0.6,0.9,0.6,0.9,0c0-0.1,0-0.3,0-0.4
				C-92.2,372.9-93,372.9-93,373.5L-93,373.5z"/>
		</g>
	</g>
	<g id="XMLID_10240_">
		<g id="XMLID_298_">
			<path id="XMLID_302_" class="st0" d="M-91.8,380.9c0.6,0,0.6-0.9,0-0.9C-92.4,380.1-92.4,380.9-91.8,380.9L-91.8,380.9z"/>
		</g>
	</g>
	<g id="XMLID_10249_">
		<g id="XMLID_292_">
			<path id="XMLID_296_" class="st0" d="M-93,385.9c0,0.1,0,0.3,0,0.4c0,0.6,0.9,0.6,0.9,0c0-0.1,0-0.3,0-0.4
				C-92.2,385.4-93,385.4-93,385.9L-93,385.9z"/>
		</g>
	</g>
	<g id="XMLID_10257_">
		<g id="XMLID_286_">
			<path id="XMLID_290_" class="st0" d="M-93.8,392.1c0,0.1,0,0.3,0,0.4c0,0.6,0.9,0.6,0.9,0c0-0.1,0-0.3,0-0.4
				C-93,391.6-93.8,391.6-93.8,392.1L-93.8,392.1z"/>
		</g>
	</g>
	<g id="XMLID_10265_">
		<g id="XMLID_280_">
			<path id="XMLID_284_" class="st0" d="M-96.5,373.6c0.6,0,0.6-0.9,0-0.9S-97.1,373.6-96.5,373.6L-96.5,373.6z"/>
		</g>
	</g>
	<g id="XMLID_10273_">
		<g id="XMLID_274_">
			<path id="XMLID_278_" class="st0" d="M-99.6,372.4c0.6,0,0.6-0.9,0-0.9S-100.2,372.4-99.6,372.4L-99.6,372.4z"/>
		</g>
	</g>
	<g id="XMLID_10281_">
		<g id="XMLID_268_">
			<path id="XMLID_272_" class="st0" d="M-98.4,370.1c0.6,0,0.6-0.9,0-0.9S-99,370.1-98.4,370.1L-98.4,370.1z"/>
		</g>
	</g>
	<g id="XMLID_10289_">
		<g id="XMLID_262_">
			<path id="XMLID_266_" class="st0" d="M-106.2,435.5c-0.1,0-0.3,0-0.4,0c-0.6,0-0.6,0.9,0,0.9c0.1,0,0.3,0,0.4,0
				C-105.6,436.4-105.6,435.5-106.2,435.5L-106.2,435.5z"/>
		</g>
	</g>
	<g id="XMLID_10298_">
		<g id="XMLID_256_">
			<path id="XMLID_260_" class="st0" d="M-104.3,427.4c0,0.1,0,0.3,0,0.4c0,0.6,0.9,0.6,0.9,0c0-0.1,0-0.3,0-0.4
				C-103.4,426.8-104.3,426.8-104.3,427.4L-104.3,427.4z"/>
		</g>
	</g>
	<g id="XMLID_10306_">
		<g id="XMLID_250_">
			<path id="XMLID_254_" class="st0" d="M-107.7,433.2c-0.1,0-0.3,0-0.4,0c-0.6,0-0.6,0.9,0,0.9c0.1,0,0.3,0,0.4,0
				C-107.2,434.1-107.2,433.2-107.7,433.2L-107.7,433.2z"/>
		</g>
	</g>
	<g id="XMLID_10314_">
		<g id="XMLID_244_">
			<path id="XMLID_248_" class="st0" d="M-109.7,441c0.6,0,0.6-0.9,0-0.9C-110.2,440.2-110.2,441-109.7,441L-109.7,441z"/>
		</g>
	</g>
	<g id="XMLID_10322_">
		<g id="XMLID_238_">
			<path id="XMLID_242_" class="st0" d="M-114.3,440.3c0.6,0,0.6-0.9,0-0.9C-114.9,439.4-114.9,440.3-114.3,440.3L-114.3,440.3z"/>
		</g>
	</g>
	<g id="XMLID_10330_">
		<g id="XMLID_232_">
			<path id="XMLID_236_" class="st0" d="M-112.4,436.3c-0.1,0-0.3,0-0.4,0c-0.6,0-0.6,0.9,0,0.9c0.1,0,0.3,0,0.4,0
				C-111.8,437.2-111.8,436.3-112.4,436.3L-112.4,436.3z"/>
		</g>
	</g>
	<g id="XMLID_10338_">
		<g id="XMLID_226_">
			<path id="XMLID_230_" class="st0" d="M-132.9,437.9c0.6,0,0.6-0.9,0-0.9C-133.5,437.1-133.5,437.9-132.9,437.9L-132.9,437.9z"/>
		</g>
	</g>
	<g id="XMLID_10347_">
		<g id="XMLID_220_">
			<path id="XMLID_224_" class="st0" d="M-138.3,439.4c0-0.1,0-0.3,0-0.4c0-0.6-0.9-0.6-0.9,0c0,0.1,0,0.3,0,0.4
				C-139.2,440-138.3,440-138.3,439.4L-138.3,439.4z"/>
		</g>
	</g>
	<g id="XMLID_10355_">
		<g id="XMLID_214_">
			<path id="XMLID_218_" class="st0" d="M-138.4,431.7c0.6,0,0.6-0.9,0-0.9C-138.9,430.9-138.9,431.7-138.4,431.7L-138.4,431.7z"/>
		</g>
	</g>
	<g id="XMLID_10363_">
		<g id="XMLID_208_">
			<path id="XMLID_212_" class="st0" d="M-132.6,433.3c0.6,0,0.6-0.9,0-0.9C-133.1,432.4-133.1,433.3-132.6,433.3L-132.6,433.3z"/>
		</g>
	</g>
	<g id="XMLID_10371_">
		<g id="XMLID_202_">
			<path id="XMLID_206_" class="st0" d="M-127.1,438.7c0.6,0,0.6-0.9,0-0.9S-127.7,438.7-127.1,438.7L-127.1,438.7z"/>
		</g>
	</g>
	<g id="XMLID_10379_">
		<g id="XMLID_196_">
			<path id="XMLID_200_" class="st0" d="M-122.1,438.3c0.6,0,0.6-0.9,0-0.9C-122.6,437.4-122.6,438.3-122.1,438.3L-122.1,438.3z"/>
		</g>
	</g>
	<g id="XMLID_10387_">
		<g id="XMLID_190_">
			<path id="XMLID_194_" class="st0" d="M-129.1,432.9c0.6,0,0.6-0.9,0-0.9C-129.6,432-129.6,432.9-129.1,432.9L-129.1,432.9z"/>
		</g>
	</g>
	<g id="XMLID_10395_">
		<g id="XMLID_184_">
			<path id="XMLID_188_" class="st0" d="M-134.1,428.2c0.6,0,0.6-0.9,0-0.9C-134.7,427.4-134.7,428.2-134.1,428.2L-134.1,428.2z"/>
		</g>
	</g>
	<g id="XMLID_10402_">
		<g id="XMLID_178_">
			<path id="XMLID_182_" class="st0" d="M-139.1,429c0.6,0,0.6-0.9,0-0.9C-139.7,428.1-139.7,429-139.1,429L-139.1,429z"/>
		</g>
	</g>
	<g id="XMLID_10409_">
		<g id="XMLID_172_">
			<path id="XMLID_176_" class="st0" d="M-138.4,424c0.6,0,0.6-0.9,0-0.9C-138.9,423.1-138.9,424-138.4,424L-138.4,424z"/>
		</g>
	</g>
	<g id="XMLID_10416_">
		<g id="XMLID_166_">
			<path id="XMLID_170_" class="st0" d="M-138.4,419.3c0.1,0,0.3,0,0.4,0c0.6,0,0.6-0.9,0-0.9c-0.1,0-0.3,0-0.4,0
				C-138.9,418.4-138.9,419.3-138.4,419.3L-138.4,419.3z"/>
		</g>
	</g>
	<g id="XMLID_10423_">
		<g id="XMLID_160_">
			<path id="XMLID_164_" class="st0" d="M-134.9,417c0.6,0,0.6-0.9,0-0.9C-135.4,416.1-135.4,417-134.9,417L-134.9,417z"/>
		</g>
	</g>
	<g id="XMLID_10430_">
		<g id="XMLID_154_">
			<path id="XMLID_158_" class="st0" d="M-135.3,422.8c0.6,0,0.6-0.9,0-0.9C-135.8,421.9-135.8,422.8-135.3,422.8L-135.3,422.8z"/>
		</g>
	</g>
	<g id="XMLID_10437_">
		<g id="XMLID_148_">
			<path id="XMLID_152_" class="st0" d="M-130.6,426.3c0.6,0,0.6-0.9,0-0.9C-131.2,425.4-131.2,426.3-130.6,426.3L-130.6,426.3z"/>
		</g>
	</g>
	<g id="XMLID_10444_">
		<g id="XMLID_142_">
			<path id="XMLID_146_" class="st0" d="M-129.1,427.8c0,0.1,0,0.3,0,0.4c0,0.6,0.9,0.6,0.9,0c0-0.1,0-0.3,0-0.4
				C-128.2,427.2-129.1,427.2-129.1,427.8L-129.1,427.8z"/>
		</g>
	</g>
	<g id="XMLID_10451_">
		<g id="XMLID_136_">
			<path id="XMLID_140_" class="st0" d="M-131,420.1c0.6,0,0.6-0.9,0-0.9S-131.6,420.1-131,420.1L-131,420.1z"/>
		</g>
	</g>
	<g id="XMLID_10458_">
		<g id="XMLID_130_">
			<path id="XMLID_134_" class="st0" d="M-132.6,412.7c0.6,0,0.6-0.9,0-0.9C-133.1,411.9-133.1,412.7-132.6,412.7L-132.6,412.7z"/>
		</g>
	</g>
	<g id="XMLID_10465_">
		<g id="XMLID_124_">
			<path id="XMLID_128_" class="st0" d="M-131.4,408.1c0.6,0,0.6-0.9,0-0.9C-132,407.2-132,408.1-131.4,408.1L-131.4,408.1z"/>
		</g>
	</g>
	<g id="XMLID_10472_">
		<g id="XMLID_118_">
			<path id="XMLID_122_" class="st0" d="M-93.8,356.2c0.2-0.4,1.1,1,1.2,1.1c0.4,0.5,0.7,1.1,1.1,1.6c0.7,1,1.4,2.1,2.1,3.1
				c0.3,0.5,1.1,0,0.8-0.4c-1.2-1.8-2.4-3.8-3.8-5.5c-0.5-0.6-1.7-1.3-2.1-0.3C-94.7,356.3-94,356.8-93.8,356.2L-93.8,356.2z"/>
		</g>
	</g>
	<g id="XMLID_10479_">
		<g id="XMLID_112_">
			<path id="XMLID_116_" class="st0" d="M-93.3,355.2c2.4,1.9,3.9,4.5,4.3,7.5c0.1,0.6,0.9,0.3,0.8-0.2c-0.4-3.2-2-5.9-4.5-7.9
				C-93.2,354.3-93.8,354.9-93.3,355.2L-93.3,355.2z"/>
		</g>
	</g>
	<g id="XMLID_10486_">
		<g id="XMLID_106_">
			<path id="XMLID_110_" class="st0" d="M-92.1,355.5c1.3,1.2,2.2,2.6,3,4.2c0.2,0.5,1,0.1,0.8-0.4c-0.8-1.7-1.8-3.1-3.1-4.4
				C-91.9,354.5-92.5,355.1-92.1,355.5L-92.1,355.5z"/>
		</g>
	</g>
	<g id="XMLID_7_">
		<g id="XMLID_100_">
			<path id="XMLID_104_" class="st0" d="M-91.7,355.5c1.2,1,2,2.3,2.5,3.8c0.2,0.5,1,0.3,0.8-0.2c-0.5-1.6-1.4-3.1-2.7-4.2
				C-91.5,354.5-92.1,355.1-91.7,355.5L-91.7,355.5z"/>
		</g>
	</g>
	<g id="XMLID_8_">
		<g id="XMLID_94_">
			<path id="XMLID_98_" class="st0" d="M-91,356c0.8,0.9,1.3,2.1,1.5,3.3c0.1,0.6,0.9,0.3,0.8-0.2c-0.2-1.4-0.8-2.6-1.7-3.7
				C-90.7,354.9-91.3,355.5-91,356L-91,356z"/>
		</g>
	</g>
	<g id="XMLID_9_">
		<g id="XMLID_88_">
			<path id="XMLID_92_" class="st0" d="M-93,357.3c0.6,2.2,1.8,4.1,3.5,5.5c0.4,0.4,1-0.2,0.6-0.6c-1.4-1.6-2.4-3.3-3-5.3
				c-0.3,0.1-0.5,0.2-0.8,0.3c1,1.8,2.2,3.4,3.6,4.8c0.2,0.3,0.8,0.1,0.7-0.3c-0.2-2.1-0.7-4.1-1.5-6.1c-0.3,0.1-0.6,0.2-0.8,0.2
				c0.7,1.7,1.4,3.4,2.1,5.1c0.1,0.3,0.8,0.5,0.8,0c0.4-3-1-5.8-3.8-7.1c-0.5-0.2-0.9,0.5-0.4,0.8c2.3,1.1,3.7,3.6,3.4,6.2
				c0.3,0,0.6,0,0.8,0c-0.7-1.7-1.4-3.4-2.1-5.1c-0.2-0.5-1.1-0.3-0.8,0.2c0.8,1.9,1.3,3.9,1.5,5.9c0.2-0.1,0.5-0.2,0.7-0.3
				c-1.3-1.4-2.5-3-3.4-4.7c-0.2-0.4-1-0.1-0.8,0.3c0.7,2.1,1.8,4,3.3,5.7c0.2-0.2,0.4-0.4,0.6-0.6c-1.7-1.4-2.8-3-3.3-5.1
				C-92.3,356.5-93.1,356.8-93,357.3L-93,357.3z"/>
		</g>
	</g>
	<g id="XMLID_10_">
		<g id="XMLID_82_">
			<path id="XMLID_86_" class="st0" d="M-95.3,358.4c0-0.5,0-1,0-1.4c0-0.5-0.7-0.6-0.9-0.1c-0.4,1.3-1,2.5-1.7,3.6
				c-0.3,0.4,0.3,0.9,0.7,0.5c0.9-0.9,1.6-1.9,2.1-3c-0.3,0-0.5-0.1-0.8-0.1c0.2,1.1,0.2,2.2-0.3,3.2c-0.2,0.5,0.5,1,0.8,0.4
				c0.6-1.3,1.2-2.6,1.9-3.9c0.2-0.5-0.5-0.9-0.8-0.4c-0.7,1.2-1.3,2.4-1.9,3.6c0.3,0.1,0.5,0.2,0.8,0.3c0.5-1.5,1.1-2.9,1.6-4.4
				c0.1-0.4-0.5-0.8-0.7-0.4c-0.9,1.1-1.7,2.1-2.6,3.2c-0.3,0.4,0.2,1,0.6,0.6c1.2-1.3,1.8-2.7,2-4.5c0-0.3-0.4-0.6-0.7-0.4
				c-1.4,1.1-2.6,2.4-3.4,4.1c-0.2,0.4,0.3,0.9,0.7,0.5c1.3-1.3,2.3-2.9,2.9-4.6c0.1-0.4-0.3-0.7-0.6-0.5c-1.9,1.2-3.4,2.8-4.4,4.8
				c-0.2,0.3,0.1,0.8,0.5,0.6c2-0.7,3.5-2.1,4.2-4c0.1-0.4-0.3-0.7-0.6-0.5c-2,1.1-3.4,2.9-4.1,5.1c-0.1,0.4,0.5,0.8,0.7,0.4
				c0.8-1,1.5-1.9,2.3-2.9c0.3-0.4-0.2-1-0.6-0.6c-0.9,1-1.9,2.1-2.8,3.1c0.2,0.2,0.4,0.4,0.6,0.6c0.4-0.5,0.9-1,1.3-1.5
				c0.3-0.4-0.1-0.9-0.5-0.7c-0.8,0.4-1.3,1-1.7,1.8c-0.2,0.4,0.1,0.7,0.5,0.6c1-0.2,2-0.3,3-0.5c-0.1-0.2-0.3-0.5-0.4-0.7
				c-0.6,0.6-1.3,1.1-2.1,1.5c0.2,0.2,0.4,0.3,0.6,0.5c0.3-0.3,0.5-0.6,0.8-1c-0.2-0.1-0.4-0.3-0.6-0.4c-0.1,0.3-0.1,0.5-0.2,0.8
				c0-0.2-0.1-0.5-0.1-0.7c-0.3,0.5-0.8,0.7-1.4,0.7c0.1,0.1,0.3,0.2,0.4,0.3c0.3-0.2,0.5-0.4,0.8-0.7c0-0.2-0.1-0.5-0.1-0.7
				c-0.3,0.3-0.7,0.5-1,0.8c0.2,0.2,0.5,0.4,0.7,0.5c0.6-1,1.5-1.6,2.7-1.9c0.5-0.1,0.3-1-0.2-0.8c-1.4,0.3-2.4,1.1-3.2,2.3
				c-0.3,0.5,0.3,0.8,0.7,0.5c0.3-0.3,0.7-0.5,1-0.8c0.2-0.2,0.1-0.6-0.1-0.7c-1.1-0.7-2.5,0.4-2.1,1.7c0.1,0.2,0.2,0.3,0.4,0.3
				c0.9,0,1.5-0.3,2-1c0.2-0.2,0.2-0.5-0.1-0.7c0,0-0.1,0-0.1-0.1c-0.1-0.1-0.3-0.1-0.4,0c-0.4,0.3-0.6,1-0.1,1.3
				c0.9,0.5,1.3-0.7,1.3-1.3c0-0.3-0.3-0.5-0.6-0.4c-0.8,0.3-1.2,0.8-1.4,1.6c-0.1,0.4,0.3,0.6,0.6,0.5c0.9-0.4,1.6-0.9,2.3-1.6
				c0.3-0.3,0-0.8-0.4-0.7c-1,0.2-2,0.3-3,0.5c0.2,0.2,0.3,0.4,0.5,0.6c0.3-0.7,0.8-1.1,1.4-1.5c-0.2-0.2-0.4-0.5-0.5-0.7
				c-0.4,0.5-0.9,1-1.3,1.5c-0.4,0.4,0.2,1,0.6,0.6c0.9-1,1.9-2.1,2.8-3.1c-0.2-0.2-0.4-0.4-0.6-0.6c-0.8,1-1.5,1.9-2.3,2.9
				c0.2,0.1,0.5,0.3,0.7,0.4c0.6-2,1.9-3.5,3.7-4.5c-0.2-0.2-0.4-0.3-0.6-0.5c-0.7,1.7-1.9,2.9-3.6,3.4c0.2,0.2,0.3,0.4,0.5,0.6
				c1-1.8,2.3-3.3,4.1-4.4c-0.2-0.2-0.4-0.3-0.6-0.5c-0.6,1.6-1.5,3-2.7,4.3c0.2,0.2,0.5,0.4,0.7,0.5c0.7-1.5,1.7-2.7,3-3.8
				c-0.2-0.1-0.4-0.3-0.7-0.4c-0.1,1.5-0.7,2.8-1.7,3.9c0.2,0.2,0.4,0.4,0.6,0.6c0.9-1.1,1.7-2.1,2.6-3.2c-0.2-0.1-0.5-0.3-0.7-0.4
				c-0.5,1.5-1.1,2.9-1.6,4.4c-0.2,0.5,0.6,0.8,0.8,0.3c0.6-1.3,1.2-2.5,1.9-3.6c-0.3-0.1-0.5-0.3-0.8-0.4c-0.6,1.3-1.2,2.6-1.9,3.9
				c0.3,0.1,0.5,0.3,0.8,0.4c0.6-1.3,0.7-2.5,0.4-3.9c-0.1-0.3-0.6-0.5-0.8-0.1c-0.5,1.1-1.1,2-1.9,2.9c0.2,0.2,0.5,0.4,0.7,0.5
				c0.8-1.2,1.4-2.4,1.8-3.8c-0.3,0-0.6-0.1-0.9-0.1c0,0.5,0,1,0,1.4C-96.2,358.9-95.3,358.9-95.3,358.4L-95.3,358.4z"/>
		</g>
	</g>
</g>
</svg>
