<?xml version="1.0" encoding="utf-8"?>
<!-- Generator: Adobe Illustrator 19.0.0, SVG Export Plug-In . SVG Version: 6.00 Build 0)  -->
<svg version="1.1" id="Layer_1" xmlns="http://www.w3.org/2000/svg" xmlns:xlink="http://www.w3.org/1999/xlink" x="0px" y="0px"
	 viewBox="-205 297 200 200" style="enable-background:new -205 297 200 200;" xml:space="preserve">
<style type="text/css">
	.st0{fill:#E1F2F3;}
</style>
<g id="XMLID_8561_">
	<g id="XMLID_8560_">
		<g>
			<path class="st0" d="M-98.5,367.4c-2.8-0.5-5.5-0.8-8.4-0.5c-1.1,0.1-2.3,0.5-3.4,0.5c-2.6,0.1-2.4,0.1-4.3-1.6
				c-1.8-1.6-2.7-2.9-4.9-3.9c-4.1-2-9-1.6-11.6-6.3c-0.2-0.3-0.7-0.3-0.7,0.1c-0.7,3.5,0.5,6.4,2.8,9.2c1.6,2,4.1,3.7,5.3,6.1
				c1.7,3.1-2.1,5-4.1,7.4c-0.8,1-2.4,4.9-3.4,5.4c-1.6,0.8-4-1.1-5.7-1.4c-5.5-1-10.2,2.8-15.6,2.7c-0.4,0-0.5,0.4-0.3,0.7
				c2.9,2.9,6.6,3.3,10.6,4c3.4,0.6,7.4,1.3,9.3,4.4c1.3,2.2,1.3,5,2.4,7.5c0.5,1,1.9,2.7,1.4,3.9c-0.3,0.7-3.1,2.2-3.8,3.1
				c-3.2,4.3-3.5,10.8-9.2,13c-0.4,0.1-0.4,0.7,0,0.8c3.9,1.3,7.2-0.1,10.5-2.2c2.1-1.4,5.3-4.5,8-4.6c2.3-0.1,4.7,2.2,6.7,3
				c1.6,0.6,3.2,0.8,4.9,1.2c2.4,0.6,1.9,0.4,2.2,2.6c1,6.1,4.9,10.4,4.6,16.9c0,0.3,0.5,0.5,0.7,0.3c2.1-2.4,2.9-5.1,3-8.3
				c0-3.1-0.6-4.2,0.9-7.3c1.4-3.2,1.4-2.9,4.4-3.1c1.1-0.1,2.2,0,3.3-0.1c1.7-0.3,3.2-1.8,4.7-1.3c0.8,0.2,2.7,2.4,3.6,3
				c3.3,2.4,6.6,4.4,7.7,8.6c0.1,0.4,0.7,0.4,0.8,0c1.2-3.3,1.2-6.7-0.6-9.9c-1-1.7-2.4-2.6-3.8-4c-3.9-4-0.7-7.8,1.5-11.5
				c0.9-1.6,1.6-3,2-4.8c0.6-2.5,0.1-2,2.5-3.1c5.5-2.6,11.5-11.4,18.1-7.7c0.4,0.2,0.9-0.3,0.5-0.6c-2.6-2-5.4-3.5-8.7-3.8
				c-2.4-0.2-4.1,0.7-6.4,0.7c-5.5,0-7.9-3.4-11-7.1c-0.8-0.9-1.9-1.9-2.5-3c-1-1.8-0.8-1.8,0.2-3.5c0.7-1.3,1.6-2.2,2.1-3.7
				c1.2-3.3-1.3-11.5,1.6-13.5c0.4-0.3,0.1-0.9-0.3-0.7c-2.2,0.6-2.9,2.2-4,4.2C-88.4,364.3-91.3,369.2-98.5,367.4
				c-0.5-0.1-0.7,0.7-0.2,0.8c7.9,2,10.9-3.4,14.6-9.5c0.5-0.8,2-3.3,2-3.4c0.1,0.2-0.6,2.3-0.6,2.7c-0.7,6.2,1.3,11.2-4.3,15.8
				c-0.2,0.1-0.1,0.4,0,0.6c2,2.5,4.1,4.9,6.1,7.4c1.3,1.6,2.7,4.1,4.7,5c1.1,0.6,2.3,0.5,3.5,0.4c3.6-0.3,6.3-1.7,10.1-0.6
				c1.5,0.4,3.7,2.1,5.3,1.8c-0.4,0.1-1-0.4-1.4-0.4c-1.5,0-2.8,0-4.3,0.5c-5.7,2.1-8.3,8.4-15,8.5c-0.3,0-0.5,0.3-0.4,0.5
				c0.6,2-0.5,5.5-1.5,7.3c-0.6,1.1-1.5,2.1-2.1,3.3c-0.6,1.1-1.2,2.3-1.4,3.5c-0.6,3.6,1.4,4.8,3.8,7.1c2.2,2.1,3.5,5,3.3,8
				c-0.2,4.5-0.5,1.8-1.6,0.2c-2.8-4-7.8-5.7-10.8-9.6c-0.2-0.3-0.5-0.3-0.7,0c-3.5,4.9-13.8-0.6-13.6,7.9c0.1,2.4,0.7,4.7,0.4,7.1
				c-0.1,0.7-0.5,5.1-1.8,4.8c0,0-0.1-1.7-0.1-1.8c-0.6-1.6-0.6-3.4-1.3-5c-1.5-3.7-4.2-6.9-2.7-11.1c0.1-0.3-0.1-0.5-0.4-0.5
				c-3.7,0-7.3-0.7-10.6-2.7c-0.9-0.5-1.8-1.8-2.9-1.9c-4.5-0.4-8.7,4.8-12.4,6.5c-0.3,0.1-6.2,1.9-6,1c0-0.2,1-0.5,1.1-0.7
				c0.6-1,1.9-1.8,2.6-2.9c2.9-4.4,3.4-11,9.4-12.4c0.2-0.1,0.4-0.4,0.2-0.6c-1.7-2.3-3-4.8-3.6-7.6c-0.3-1.3-0.1-3.1-0.8-4.3
				c-1.5-2.5-6.1-3.6-8.8-4.2c-2-0.4-4.1-0.6-6.1-1.1c-0.9-0.2-3-0.6-3.6-1.3c-0.9-1.2-0.5-0.5,0.3-1c1.5-1,5.2-1.6,6.9-2.1
				c4.2-1.1,8-0.6,11.5,2.1c0.2,0.1,0.5,0,0.6-0.1c2.2-4.8,5.3-8.8,9.5-12.1c0.1-0.1,0.1-0.3,0.1-0.5c-1.2-2.3-2.7-4-4.5-5.9
				c-1.3-1.4-2.8-2.8-3.8-4.5c-1.1-1.6-1.6-3.4-1.4-5.3c0.2,0.2,0.3,0.4,0.5,0.6c1.7,0.6,3.2,2.3,5.1,3c5.1,1.8,9.1,2.9,11.8,8.2
				c0.1,0.2,0.3,0.2,0.5,0.2c4.9-1.6,9.5-1.9,14.5-0.9C-98.2,368.3-98,367.5-98.5,367.4L-98.5,367.4z"/>
		</g>
	</g>
	<g id="XMLID_8536_">
		<g>
			<path class="st0" d="M-125.5,386.3c3.2-3.9,9.7-5.7,14.5-3.7c8.7,3.6,4,12.2,2.6,18.4c-0.1,0.2,0.1,0.5,0.4,0.5
				c1.3-0.1,2.6-0.2,3.9-0.2c0.2,0,0.4-0.2,0.4-0.4c0.1-5.3-1.6-15.5,4.6-18.2c5.5-2.4,12.6-1.2,16.6,3.1c0.4,0.4,0.9-0.2,0.6-0.6
				c-4.5-4.9-12.8-5.9-18.8-2.8c-2,1-3.1,2.6-3.5,4.8c-0.5,2.4-0.3,5.1-0.3,7.5c0,1,0.2,2.5-0.1,3.5c-0.3,1-1.6,4-2.7,1.2
				c-0.5-1.3,1.7-5.6,1.9-7.1c0.2-1.4,0.3-2.8,0.1-4.2c-0.4-2.5-1.7-4.5-4-5.7c-5.4-2.8-13.2-1.4-17,3.3
				C-126.4,386.1-125.8,386.7-125.5,386.3L-125.5,386.3z"/>
		</g>
	</g>
	<g id="XMLID_8529_">
		<g>
			<path class="st0" d="M-108.3,389.6c-1.7-3.3-4.9-5.5-8.6-5.4c-1.7,0.1-3.6,0.6-4.9,1.7c-0.5,0.4-0.6,0.8-1,1.2
				c-0.5,0.6-1.7,1.6-2,2.4c-1,3,3.8,3.6,5.9,4.1c3.8,0.9,7.8,0.6,10.6-2.4c0.4-0.4-0.2-1-0.6-0.6c-2.5,2.6-5.9,3-9.3,2.3
				c-1.3-0.3-2.5-0.6-3.7-1.1c-0.6-0.2-1.1-0.4-1.7-0.6c-0.4-1.1-0.2-1.9,0.6-2.4c3.2-6.1,11.3-4.3,14,1.1
				C-108.8,390.4-108.1,390-108.3,389.6L-108.3,389.6z"/>
		</g>
	</g>
	<g id="XMLID_6920_">
		<g>
			<path class="st0" d="M-99.4,390c1.5-2.8,4.3-4.7,7.6-4.6c2.1,0,7.7,2.1,7.9,4.5c0.2,1.8-5.8,2.5-7,2.6c-3.2,0.1-6.2-1-8.7-2.9
				c-0.4-0.3-1,0.3-0.6,0.6c5.1,4,12.2,4.2,17.5,0.3c0.2-0.2,0.3-0.4,0.1-0.6c-2.7-2.7-6-5.5-10.1-5.1c-3.2,0.3-5.8,2.2-7.4,5
				C-100.4,390.1-99.7,390.5-99.4,390L-99.4,390z"/>
		</g>
	</g>
	<g id="XMLID_6905_">
		<g>
			<path class="st0" d="M-94.4,385.8c-0.2,2.2,1.4,4.4,3.7,4.6c2.4,0.2,4.4-2,4.4-4.3c0-0.5-0.8-0.5-0.8,0c0,1.9-1.6,3.8-3.7,3.5
				c-1.8-0.3-2.9-2-2.7-3.7C-93.5,385.3-94.3,385.3-94.4,385.8L-94.4,385.8z"/>
		</g>
	</g>
	<g id="XMLID_16_">
		<g>
			<path class="st0" d="M-119.4,385.8c-0.1,0-0.1-0.1-0.2-0.1c-0.1-0.1-0.3-0.1-0.4,0c-1.1,0.6-0.6,2-0.1,2.9c0.7,1.2,2,2.1,3.4,2.2
				c2.9,0.3,5-2.6,4.6-5.3c-0.1-0.5-0.9-0.3-0.8,0.2c0.3,1.9-1,4-2.9,4.2c-1,0.1-2-0.2-2.8-0.9c-0.3-0.3-0.6-0.6-0.8-0.9
				c0.1,0.2-0.7-1.9-0.4-1.7C-119.4,386.8-119,386.1-119.4,385.8L-119.4,385.8z"/>
		</g>
	</g>
	<g id="XMLID_15_">
		<g>
			<path class="st0" d="M-101.8,408.4c-2,0-4.1,0-6.1,0c-1,0-2.3-0.1-3.2,0.5c-1.8,1.2-0.8,3,1,3.3c1.6,0.2,3.2,0.1,4.8,0.1
				c1.1,0,2.6,0.3,3.6-0.3c1.2-0.7,1.3-2.6-0.2-2.9c-0.5-0.1-0.7,0.7-0.2,0.8c0.3,1.3-0.1,1.9-1.2,1.7c-0.2,0-0.3,0-0.5,0
				c-0.7,0-1.4,0-2.1,0c-0.7,0-1.4,0-2.1,0c-0.3,0-2,0.1-2.2-0.1c0.1-0.7,0.1-1.3,0.2-2c0.5-0.1,1-0.2,1.5-0.1c0.8,0,1.5,0,2.3,0
				c1.5,0,3.1,0,4.6,0C-101.3,409.3-101.3,408.4-101.8,408.4L-101.8,408.4z"/>
		</g>
	</g>
	<g id="XMLID_14_">
		<g>
			<path class="st0" d="M-125.3,385.5c-0.7-1.8,4-5.3,5.6-5.6c1.7-0.4,3.4-0.6,5.1-0.6c3.4,0,6.6,1.1,9.4,3.1c0.1,0.1,0.3,0.1,0.4,0
				c3.3-1.7,6.8-2.8,10.6-2.9c1.1,0,2.2,0,3.2,0.1c1.3,0.1,2.6,0.3,3.9,0.7c1.9,0.3,3.2,1.7,3.8,4c-0.4,0.3,0,1,0.4,0.7
				c2.5-1.8,0.4-3.7-1.7-4.7c-5.7-2.8-11.9-1.2-17.7,0.1c-3.8,0.9-5.5-0.9-9.3-1.6c-2.5-0.4-5.2-0.3-7.7,0.2
				c-3.5,0.7-8.6,2.3-6.9,6.8C-125.9,386.2-125.1,386-125.3,385.5L-125.3,385.5z"/>
		</g>
	</g>
	<g id="XMLID_13_">
		<g>
			<path class="st0" d="M-109.2,367.5c-5.9-9.3-17.3-11.4-26-17.2c-0.2-0.2-0.6,0.1-0.6,0.4c0.6,9.3,4.7,17.6,11.7,23.8
				c0.4,0.3,1-0.2,0.6-0.6c-3.4-3-6.2-6.4-8.2-10.5c-1.1-2.2-1.9-4.5-2.5-6.9c-0.5-2.2-2-4.6,0.8-4.1c1.7,0.3,3.8,2.1,5.4,2.8
				c2.1,1,4.3,1.9,6.3,2.9c4.7,2.4,8.9,5.2,11.8,9.7C-109.6,368.4-108.9,368-109.2,367.5L-109.2,367.5z"/>
		</g>
	</g>
	<g id="XMLID_6896_">
		<g>
			<path class="st0" d="M-130.3,381.9c-4.2-1.8-8.7-3.6-13.4-2.9c-5.1,0.8-9.8,3.8-14.9,4.9c-0.4,0.1-0.4,0.6-0.1,0.7
				c4.1,2.5,7.2,6.5,11.6,8.5c4.5,2,9.6,1.3,14.3,2.9c0.5,0.2,0.7-0.6,0.2-0.8c-4.8-1.7-10.2-0.8-14.8-3.1c-2.2-1.1-4-2.9-5.9-4.5
				c-0.6-0.5-2.7-1.7-3.1-2.5c-0.7-1.5,1.1-1.1,2.8-1.7c1.6-0.5,3.2-1.2,4.8-1.8c6.6-2.7,11.6-1.8,18,1
				C-130.2,382.8-129.8,382.1-130.3,381.9L-130.3,381.9z"/>
		</g>
	</g>
	<g id="XMLID_11622_">
		<g>
			<path class="st0" d="M-130.1,402c-9.3,3.4-9.5,17.4-19.8,18.7c-0.4,0.1-0.5,0.5-0.2,0.8c4.1,2.9,8.5,6,13.8,5.3
				c2.6-0.4,5.1-1.6,7.3-3c1.3-0.8,9.8-5.8,9.5-6.7c-0.1-0.5-0.9-0.3-0.8,0.2c0.1,0.4,0.1,0.5,0.5,0.7c0.3,0.1,0.7-0.1,0.6-0.5
				c0-0.1,0-0.2-0.1-0.3c0-0.2-0.2-0.3-0.4-0.3c-1.6,0-2.7,1.4-4,2.2c-2.4,1.6-4.7,3.4-7.2,4.7c-3.9,2.1-7.6,2.7-11.8,1.1
				c-0.6-0.2-6.2-2.6-6-3.7c0-0.1,3.5-1.5,3.8-1.7c1.2-0.8,2.2-1.9,3.1-3c3.9-4.9,5.4-11.5,11.8-13.8
				C-129.4,402.6-129.6,401.8-130.1,402L-130.1,402z"/>
		</g>
	</g>
	<g id="XMLID_11629_">
		<g>
			<path class="st0" d="M-114,419.4c-0.3,9.3,7.3,16.6,6.2,25.9c0,0.2,0.2,0.4,0.4,0.4c4.2-0.4,6.6-4.8,8.3-8.3
				c2.9-5.8,1.2-11,1.3-17.2c0-0.5-0.8-0.5-0.8,0c-0.1,4.7,1.4,9.2,0.1,13.8c-0.7,2.4-2,4.7-3.4,6.8c-0.6,1-1.3,1.9-2.2,2.8
				c-2.3,1-3.2,0.5-2.7-1.5c-1-2.6-1.2-5.6-2.3-8.3c-2-4.7-4.2-9-4-14.3C-113.2,418.9-114,418.9-114,419.4L-114,419.4z"/>
		</g>
	</g>
	<g id="XMLID_11636_">
		<g>
			<path class="st0" d="M-91.9,420c5.6,5.8,13.4,9.6,16.3,17.6c0.1,0.3,0.6,0.4,0.7,0.1c2.2-4.4,3.8-9,2.9-14
				c-1.2-6.3-7-9.3-9.2-15.1c-0.2-0.5-1-0.3-0.8,0.2c1.2,3.2,3,5.2,5.2,7.7c2.5,2.8,4.1,6,4.2,9.8c0,1.1-1,9.7-2.5,9.5
				c-0.6-0.1-4.3-5.9-5.3-6.9c-3.5-3.4-7.6-6.1-10.9-9.6C-91.7,419.1-92.3,419.7-91.9,420L-91.9,420z"/>
		</g>
	</g>
	<g id="XMLID_11643_">
		<g>
			<path class="st0" d="M-77.3,401c3.4-1.1,6.1-3.1,9.1-4.9c5.3-3,10.7-3.8,16.6-1.9c0.3,0.1,0.6-0.2,0.5-0.5
				c-1.5-4.6-4.7-8.5-9.2-10.4c-6.3-2.7-13.5-0.8-20.1-1.9c-0.5-0.1-0.7,0.7-0.2,0.8c4.6,0.8,9.1,0.2,13.8,0.5
				c4,0.3,7.8,1.5,10.7,4.3c0.9,0.9,2,2,2.6,3.2c0.7,1.4,1.3,2.1-0.2,2.6c-1.3,0.4-4.3-0.5-5.8-0.4c-1.9,0.2-3.8,0.6-5.6,1.3
				c-4.4,1.8-7.9,5-12.4,6.5C-78,400.4-77.8,401.1-77.3,401L-77.3,401z"/>
		</g>
	</g>
	<g id="XMLID_11650_">
		<g>
			<path class="st0" d="M-84.5,375.4c3.5-2.6,5.5-6.3,6.4-10.6c1-4.6-2.3-13.1,3.7-15.8c0.4-0.2,0.2-0.8-0.2-0.8
				c-3.9,0.3-8.9,1.1-11.6,4.1c-1.6,1.8-2.7,4.2-4,6.1c-1.4,2.1-2.7,4-4.7,5.6c-0.4,0.3-4.6,3.4-4.6,3.5c0.5,0.2,0.9-0.5,0.4-0.7
				c-0.1,0-0.1-0.1-0.2-0.1c-0.2-0.1-0.5-0.1-0.6,0.1c0,0.1-0.1,0.2-0.1,0.2c-0.1,0.2,0,0.5,0.2,0.6c2.1,0.5,6.6-3.8,7.9-5.4
				c1.9-2.3,3-5.1,4.8-7.5c2.5-3.4,5.7-4.6,9.6-5.6c2.5-0.6,1-0.4,0.1,1.4c-0.9,1.6-1.6,3.7-1.7,5.6c-0.1,2.4,0.6,4.7,0.3,7.2
				c-0.5,4.4-2.6,8.6-6.2,11.2C-85.4,375-84.9,375.7-84.5,375.4L-84.5,375.4z"/>
		</g>
	</g>
	<g id="XMLID_11657_">
		<g>
			<path class="st0" d="M-107.6,367.4c-0.2-2.7-0.3-5.4-0.2-8.1c0-1.3,0-2.7,0.1-4c0-1,0.1-2.1,0.2-3.1c0-1.7,0.5-2.1,1.3-1
				c1.8,0.9,2.7,5.7,3.2,7.5c0.8,2.8,1.4,5.6,1.9,8.5c0.1,0.5,0.9,0.3,0.8-0.2c-1-6.2-2.8-12.2-5.4-18c-0.1-0.2-0.4-0.3-0.6-0.1
				c-1.7,1.3-2.1,3-2.2,5.1c-0.3,4.5-0.1,9,0.1,13.5C-108.4,367.9-107.6,367.9-107.6,367.4L-107.6,367.4z"/>
		</g>
	</g>
	<g id="XMLID_11664_">
		<g>
			<path class="st0" d="M-126.3,376.1c-2.5-1.5-5.1-2.9-7.7-4.1c-1.5-0.7-3-1.6-4.6-0.7c-0.2,0.1-0.3,0.5-0.1,0.6
				c3,3.2,6.4,5.8,10.2,8.1c0.4,0.3,0.9-0.4,0.4-0.7c-3.7-2.2-7-4.9-10-8c0,0.2-0.1,0.4-0.1,0.6c1.6-0.9,5.1,1.3,6.5,2.1
				c1.7,0.9,3.4,1.8,5,2.8C-126.3,377.1-125.9,376.4-126.3,376.1L-126.3,376.1z"/>
		</g>
	</g>
	<g id="XMLID_11671_">
		<g>
			<path class="st0" d="M-132,397.3c-4.2,1.6-9.8,3.4-12.5,7.2c-0.1,0.1-0.1,0.4,0.1,0.5c1.3,1,2.9,0,4.3-0.6
				c2.9-1.1,5.9-2.2,8.8-3.2c0.5-0.2,0.3-1-0.2-0.8c-2,0.7-4,1.5-6.1,2.2c-1.1,0.4-2.2,0.8-3.3,1.2c-0.5,0.2-2.4,1.4-2.1,0
				c0.2-1.1,3.8-2.5,4.6-2.9c2.1-1.1,4.3-2,6.5-2.9C-131.3,397.9-131.5,397.1-132,397.3L-132,397.3z"/>
		</g>
	</g>
	<g id="XMLID_11678_">
		<g>
			<path class="st0" d="M-118.7,417.7c-1.4,4.6-2.9,9.1-4.3,13.7c-0.1,0.3,0.1,0.5,0.4,0.5c2.2,0.2,3-3.1,3.7-4.7
				c1.3-3,2.5-6,3.5-9.1c0.2-0.5-0.6-0.7-0.8-0.2c-0.7,2.1-1.4,4.3-2.3,6.4c-0.5,1.3-1.8,5.7-3.1,6.2c-0.5,0.4-0.5,0.1,0-0.8
				c0.2-0.7,0.4-1.3,0.6-2c0.3-1,0.6-2,0.9-2.9c0.7-2.3,1.4-4.6,2.2-6.8C-117.7,417.4-118.5,417.2-118.7,417.7L-118.7,417.7z"/>
		</g>
	</g>
	<g id="XMLID_11685_">
		<g>
			<path class="st0" d="M-97.2,420.4c1.1,4.5,3,8.7,5.6,12.5c0.2,0.3,0.7,0.3,0.7-0.1c0.6-4.6-0.5-8.9-1.7-13.2
				c-0.1-0.5-0.9-0.3-0.8,0.2c1.2,4.2,2.3,8.4,1.7,12.8c0.2,0,0.5-0.1,0.7-0.1c-2.6-3.8-4.4-7.9-5.6-12.3
				C-96.6,419.6-97.4,419.8-97.2,420.4L-97.2,420.4z"/>
		</g>
	</g>
	<g id="XMLID_11692_">
		<g>
			<path class="st0" d="M-80,407.2c3.7,2,7.7,3.2,11.9,3.4c0.2,0,0.4-0.1,0.4-0.3c0.3-1.7-0.6-2.9-2-3.9c-2.6-1.7-5.7-2.8-8.5-4.2
				c-0.5-0.2-0.9,0.5-0.4,0.7c1.5,0.7,10.5,4.2,9.8,6.1c0.1,0.7-0.2,0.9-0.9,0.6c-0.6-0.1-1.3-0.2-1.9-0.3c-0.8-0.2-1.6-0.3-2.4-0.6
				c-1.9-0.6-3.8-1.4-5.6-2.3C-80,406.3-80.4,407-80,407.2L-80,407.2z"/>
		</g>
	</g>
	<g id="XMLID_11699_">
		<g>
			<path class="st0" d="M-83.9,378.3c2-1.7,4.1-3.3,6.2-4.8c1-0.8,2.1-1.6,3.2-2.2c0.7-0.5,1.5-0.9,2.3-1.2c1.3,0,1.6,0.3,1,1.1
				c-0.3,1.8-3.1,4.1-4.4,5.3c-1.8,1.6-3.7,2.9-5.9,4c-0.5,0.2-0.1,0.9,0.4,0.7c2.9-1.5,5.6-3.5,7.8-5.9c1.4-1.6,3.6-3.7,3.1-6
				c0-0.2-0.2-0.3-0.4-0.3c-2.6,0.3-4.6,1.8-6.7,3.3c-2.5,1.8-4.9,3.6-7.2,5.6C-84.9,378.1-84.3,378.7-83.9,378.3L-83.9,378.3z"/>
		</g>
	</g>
	<g id="XMLID_11710_">
		<g>
			<path class="st0" d="M-89.1,372.3c1.9-1.8,3.2-3.9,4-6.4c0.1-0.4-0.5-0.7-0.7-0.3c-0.6,1.1-1.3,2.1-2.2,2.9
				c-0.7,0.7-1.9,1.1-2.5,2C-91.1,371.5-90.3,372.8-89.1,372.3c0.4-0.2,0-0.9-0.5-0.7c-0.3-0.4-0.2-0.7,0.1-0.9
				c0.1-0.1,0.2-0.2,0.4-0.3c0.2-0.2,0.5-0.3,0.8-0.5c0.4-0.3,0.8-0.7,1.2-1.1c0.8-0.8,1.5-1.8,2-2.8c-0.2-0.1-0.5-0.2-0.7-0.3
				c-0.8,2.3-2,4.3-3.8,6C-90.1,372.1-89.5,372.7-89.1,372.3L-89.1,372.3z"/>
		</g>
	</g>
	<g id="XMLID_11717_">
		<g>
			<path class="st0" d="M-117,369c-1.6-2.8-4.2-4.7-7.3-5.5c-0.4-0.1-0.7,0.4-0.4,0.7c2,1.9,3.8,4.1,5.3,6.4
				c0.1,0.1,0.3,0.2,0.5,0.2c1-0.3,1.5-1,1.5-2c0-0.5-0.8-0.5-0.8,0c-0.3,0.4-0.6,0.8-0.9,1.2c0.2,0.1,0.3,0.1,0.5,0.2
				c-1.6-2.4-3.4-4.6-5.5-6.5c-0.1,0.2-0.3,0.5-0.4,0.7c2.9,0.7,5.3,2.5,6.8,5.1C-117.5,369.9-116.7,369.5-117,369L-117,369z"/>
		</g>
	</g>
	<g id="XMLID_11724_">
		<g>
			<path class="st0" d="M-132.6,387.5c-3-2-6.6-2.6-10.1-1.5c-0.4,0.1-0.4,0.8,0.1,0.8c3.3,0.1,6.3,1,9,2.8c0.2,0.2,0.5,0,0.6-0.2
				c0.3-0.7,0.2-1.1-0.1-1.8c-0.2-0.5-0.9-0.1-0.7,0.4c0,0.4,0,0.8,0.1,1.2c0.2-0.1,0.4-0.2,0.6-0.2c-2.8-1.9-6-2.8-9.4-2.9
				c0,0.3,0.1,0.5,0.1,0.8c3.3-1,6.6-0.5,9.5,1.4C-132.6,388.5-132.2,387.8-132.6,387.5L-132.6,387.5z"/>
		</g>
	</g>
	<g id="XMLID_11748_">
		<g>
			<path class="st0" d="M-126.8,409.4c-3.5,1.4-6.3,3.8-8.1,7.1c-0.2,0.4,0.3,0.8,0.6,0.5c1.2-1.3,2.5-2.3,4-3.1
				c1.5-0.8,3-0.9,4.5-1.4c2-0.8-0.5-2.7-1.2-3.5c-0.4-0.4-0.9,0.2-0.6,0.6c0.3,0.3,0.9,0.8,1.2,1.2c0.7,1.2-0.1,1-0.9,1.2
				c-0.9,0.2-1.7,0.5-2.6,0.9c-1.9,0.8-3.5,2.1-4.9,3.6c0.2,0.2,0.4,0.3,0.6,0.5c1.7-3.1,4.4-5.4,7.6-6.7
				C-126.1,409.9-126.3,409.2-126.8,409.4L-126.8,409.4z"/>
		</g>
	</g>
	<g id="XMLID_11755_">
		<g>
			<path class="st0" d="M-106.7,420.5c-0.3,2.6,0.5,5,2.2,7c0.3,0.3,0.8,0,0.7-0.4c-0.7-2.1-0.6-4.3,0.1-6.4
				c0.1-0.2-0.1-0.5-0.4-0.5c-0.9,0.1-1.9,0.1-2.8,0.2c-0.5,0-0.5,0.8,0,0.8c0.9-0.1,1.9-0.1,2.8-0.2c-0.1-0.2-0.3-0.3-0.4-0.5
				c-0.8,2.2-0.8,4.6-0.1,6.8c0.2-0.1,0.5-0.3,0.7-0.4c-1.5-1.8-2.2-4-2-6.4C-105.9,419.9-106.7,419.9-106.7,420.5L-106.7,420.5z"/>
		</g>
	</g>
	<g id="XMLID_11762_">
		<g>
			<path class="st0" d="M-87.8,415.4c1.7,2.7,4.2,4.6,7.1,5.7c0.5,0.2,0.7-0.5,0.3-0.7c-2.3-1.7-4-4-4.8-6.8
				c-0.1-0.3-0.4-0.4-0.6-0.2c-0.7,0.4-1.3,0.7-2,1.1c-0.5,0.2-0.1,0.9,0.4,0.7c0.7-0.4,1.3-0.7,2-1.1c-0.2-0.1-0.4-0.2-0.6-0.2
				c0.9,3,2.6,5.5,5.2,7.3c0.1-0.2,0.2-0.5,0.3-0.7c-2.8-1-5.1-2.9-6.7-5.4C-87.3,414.5-88,414.9-87.8,415.4L-87.8,415.4z"/>
		</g>
	</g>
	<g id="XMLID_11769_">
		<g>
			<path class="st0" d="M-77.1,394c3.4-0.7,6.3-2.5,8.6-5.1c0.3-0.3-0.1-0.9-0.5-0.6c-2.5,1.6-5.4,1.8-8.1,0.8
				c-0.2-0.1-0.5,0.1-0.5,0.4c0.1,1.3,0.2,2.6,0.5,3.8c0.1,0.5,0.9,0.3,0.8-0.2c-0.3-1.2-0.4-2.4-0.5-3.6c-0.2,0.1-0.3,0.3-0.5,0.4
				c2.9,1.1,6.1,0.8,8.8-0.8c-0.2-0.2-0.3-0.4-0.5-0.6c-2.1,2.5-5,4.2-8.2,4.9C-77.8,393.3-77.6,394.1-77.1,394L-77.1,394z"/>
		</g>
	</g>
</g>
</svg>
