<?xml version="1.0" encoding="utf-8"?>
<!-- Generator: Adobe Illustrator 19.0.0, SVG Export Plug-In . SVG Version: 6.00 Build 0)  -->
<svg version="1.1" id="Layer_1" xmlns="http://www.w3.org/2000/svg" xmlns:xlink="http://www.w3.org/1999/xlink" x="0px" y="0px"
	 viewBox="-205 297 200 200" style="enable-background:new -205 297 200 200;" xml:space="preserve">
<style type="text/css">
	.st0{fill:#E1F2F3;}
</style>
<g id="XMLID_10679_">
	<g id="XMLID_10685_">
		<g>
			<path class="st0" d="M-100.4,362.2c-15.6-1.8-32.1,2.3-39.2,17.3c-6.2,13.1-4.6,29.5,4,41c5,6.7,11,9.1,19,10.4
				c8.2,1.3,16.7,2,24.7-0.2c14.8-4.1,26.6-20.5,25-35.9c-0.8-8.1-2.1-16.7-8.9-22c-7.4-5.7-17.6-10.1-27-11c-0.9-0.1-0.9,1.4,0,1.5
				c9.2,0.9,20.2,5.4,27.3,11.7c4.3,3.8,5.5,9,6.4,14.4c0.9,5.4,1.7,11,0,16.3c-2.9,8.6-9.7,17.9-17.9,21.8
				c-9.1,4.3-19.5,3.7-29.2,2.1c-5-0.8-9.9-1.8-13.9-5.2c-3.1-2.6-5.6-6.1-7.4-9.6c-4-7.8-5.4-16.9-3.7-25.5
				c1.6-8.6,6.3-17.5,14.2-21.8c7.7-4.1,18.1-4.9,26.6-3.9C-99.5,363.7-99.5,362.3-100.4,362.2L-100.4,362.2z"/>
		</g>
	</g>
	<g id="XMLID_10693_">
		<g>
			<path class="st0" d="M-103.2,371.3c-0.7-1.5-2.5-2.8-4.2-2.2c-1.3,0.4-2.1,2-1.7,3.3c0.5,1.7,2.9,1.7,4.3,1.3
				c1.5-0.5,2.3-2.4,0.8-3.4c-0.8-0.5-1.5,0.7-0.7,1.3c0.4,0.2-0.4,0.7-0.5,0.8c-0.4,0.2-0.9,0.1-1.3,0.1c-0.7,0-1.3-0.2-1.2-1
				c0.1-0.6,0.6-1,1.3-1c0.9,0.1,1.6,0.8,2,1.6C-104,372.8-102.8,372.1-103.2,371.3L-103.2,371.3z"/>
		</g>
	</g>
	<g id="XMLID_10701_">
		<g>
			<path class="st0" d="M-122.4,379.3c-0.2-0.9-1.2-1.3-2-1.1c-1,0.2-1.4,1.3-1,2.2c0.4,0.9,1.6,1.3,2.5,0.8
				c0.9-0.5,1.2-1.6,0.9-2.5c-0.3-0.9-1.7-0.5-1.4,0.4c0.1,0.3,0.1,0.5-0.1,0.8c-0.2,0.2-0.4,0.2-0.5,0c-0.1-0.1-0.1-0.2-0.1-0.2
				c0,0,0,0,0.1,0c0.1,0,0.2,0,0.2,0.1C-123.6,380.6-122.2,380.2-122.4,379.3L-122.4,379.3z"/>
		</g>
	</g>
	<g id="XMLID_10709_">
		<g>
			<path class="st0" d="M-124.7,399.4c0.7-0.9,0.2-2.2-0.7-2.8c-1-0.7-2.3-0.3-2.9,0.6c-0.5,0.7-1,2.7,0.1,3.1
				c1.2,0.5,2.5-0.2,3.1-1.2c0.5-0.8-0.8-1.5-1.3-0.7c-0.3,0.5-0.9,0.7-1.5,0.5c0.2,0.2,0.3,0.3,0.5,0.5c-0.2-0.6-0.1-1.5,0.6-1.7
				c0.5-0.2,1.1,0.6,0.7,1C-126.6,399.4-125.3,400.1-124.7,399.4L-124.7,399.4z"/>
		</g>
	</g>
	<g id="XMLID_10717_">
		<g>
			<path class="st0" d="M-123.9,414.1c0.7-0.9,0.2-2.3-0.7-2.8c-1-0.6-2.2,0-2.6,1.1c-0.4,1,0.1,2.2,1.2,2.4c1,0.2,2.2-0.4,2.5-1.5
				c0.2-0.9-1.2-1.3-1.4-0.4c-0.1,0.6-1.2,0.6-0.9-0.1c0.3-0.7,1.1,0,0.7,0.5C-125.7,414.2-124.5,414.9-123.9,414.1L-123.9,414.1z"
				/>
		</g>
	</g>
	<g id="XMLID_10724_">
		<g>
			<path class="st0" d="M-105.6,421.3c-0.1-1.3-1.2-2.4-2.5-2.4c-1.3,0-2.2,1.1-2.3,2.3c0,1.3,0.9,2.3,2.2,2.3c1.3,0,2.5-1,3-2.2
				c0.4-0.8-0.9-1.6-1.3-0.7c-0.3,0.6-0.7,1.1-1.3,1.4c-0.5,0.2-1.1,0.1-1.2-0.5c-0.3-1.3,1.7-1.4,1.8-0.2
				C-107,422.2-105.5,422.2-105.6,421.3L-105.6,421.3z"/>
		</g>
	</g>
	<g id="XMLID_10732_">
		<g>
			<path class="st0" d="M-86.3,417.1c0.4-1.2-0.7-2.3-1.9-2.4c-1.3,0-2,1.2-1.7,2.3c0.3,1.2,1.5,1.9,2.7,1.4c1.2-0.5,1.6-2,1-3.1
				c-0.4-0.8-1.7-0.1-1.3,0.7c0.3,0.7-0.7,1.6-1,0.7c-0.3-0.9,0.9-0.5,0.7,0C-87.9,417.7-86.5,418-86.3,417.1L-86.3,417.1z"/>
		</g>
	</g>
	<g id="XMLID_10740_">
		<g>
			<path class="st0" d="M-74.8,403.5c0.4-1.4-0.7-2.7-2.1-2.9c-1.3-0.1-2.3,1-2.3,2.3c0,1.3,1,2.4,2.3,2.4c1.4-0.1,2.5-1.3,2.5-2.6
				c0-0.9-1.5-0.9-1.5,0c0,1.1-1.8,1.7-1.9,0.4c-0.1-0.4,0.1-1,0.6-1c0.5,0,1.1,0.5,0.9,1C-76.4,404-75,404.4-74.8,403.5
				L-74.8,403.5z"/>
		</g>
	</g>
	<g id="XMLID_10748_">
		<g>
			<path class="st0" d="M-79.8,386.2c0.7,0.1,1.2-0.4,1.1-1.1c-0.1-0.5-0.6-0.9-1-1.1c-0.9-0.3-2.1,0.1-2.4,1.1
				c-0.3,1,0.3,2.2,1.2,2.6c1.1,0.4,2.4-0.2,2.8-1.3c0.2-0.4,0.1-0.8-0.3-1c-0.3-0.2-0.8-0.1-1,0.3c-0.2,0.5-1.1,1.1-1.4,0.3
				c-0.1-0.2-0.1-0.4,0.2-0.5c0.1,0,0.2,0,0.3,0c0,0,0.1,0,0.1,0c0,0,0,0,0,0c0.1,0.1,0.2-0.1,0.1-0.5c0.2-0.1,0.5-0.1,0.7-0.2
				c0,0-0.1,0-0.1,0c-0.4-0.1-0.8,0.1-0.9,0.5C-80.4,385.6-80.2,386.1-79.8,386.2L-79.8,386.2z"/>
		</g>
	</g>
	<g id="XMLID_10756_">
		<g>
			<path class="st0" d="M-91.8,381.5c0.2-0.9-0.3-2-1.2-2.3c-0.9-0.3-1.8,0.3-2.2,1.1c-0.3,0.8,0,1.8,0.8,2.2
				c0.9,0.4,1.9,0.1,2.4-0.6c0.6-0.8-0.7-1.5-1.3-0.7c-0.2,0.3-0.7,0-0.6-0.3c0.2-0.5,0.7-0.2,0.6,0.3
				C-93.5,382-92.1,382.4-91.8,381.5L-91.8,381.5z"/>
		</g>
	</g>
	<g id="XMLID_10764_">
		<g>
			<path class="st0" d="M-88.9,399c0.1-1.4-1.1-2.6-2.4-2.6c-1.3,0-2.3,1.1-2.2,2.4c0,1.3,1,2.4,2.4,2.2c1.4-0.2,2.4-1.5,2.2-2.9
				c-0.2-0.9-1.6-0.5-1.4,0.4c0.1,0.5-0.4,1-0.9,1c-0.5,0.1-0.8-0.5-0.8-0.9c0.1-1.3,1.9-0.8,1.7,0.3C-90.5,400-89,400-88.9,399
				L-88.9,399z"/>
		</g>
	</g>
	<g id="XMLID_10772_">
		<g>
			<path class="st0" d="M-96,408.7c-0.7-1-1.6-1.9-2.8-1.9c-1-0.1-2,0.6-2.3,1.5c-0.4,0.9,0,2,1,2.4c1,0.5,2.2,0,3.2,0.2
				c0.3,0,0.6-0.3,0.7-0.5c0.1-0.4,0.3-0.8,0.4-1.2c0.3-0.9-1.1-1.3-1.4-0.4c-0.1,0.4-0.3,0.8-0.4,1.2c0.2-0.2,0.5-0.4,0.7-0.5
				c-0.6-0.1-2.8,0.4-2.9-0.4c-0.1-0.5,0.6-0.8,1-0.8c0.7,0.1,1.2,0.7,1.5,1.2C-96.7,410.2-95.4,409.5-96,408.7L-96,408.7z"/>
		</g>
	</g>
	<g id="XMLID_10780_">
		<g>
			<path class="st0" d="M-110.8,401.4c0.2-1.6-1.4-3-2.9-2.7c-1.4,0.3-2.3,2-1.9,3.3c0.5,1.4,2.1,2.1,3.5,1.7
				c1.5-0.5,2.2-2.3,1.8-3.8c-0.3-0.9-1.7-0.5-1.4,0.4c0.2,0.7,0.1,1.5-0.6,1.9c-0.6,0.4-1.4,0.2-1.8-0.4c-0.3-0.5-0.1-1.4,0.5-1.6
				c0.8-0.3,1.4,0.5,1.3,1.2C-112.3,402.3-110.9,402.3-110.8,401.4L-110.8,401.4z"/>
		</g>
	</g>
	<g id="XMLID_10788_">
		<g>
			<path class="st0" d="M-110.2,386.3c0.4,0.7-0.6,1.4-1.1,0.6C-111.6,386.2-110.6,385.7-110.2,386.3c0.5,0.8,1.8,0,1.3-0.7
				c-0.6-0.9-1.8-1.2-2.8-0.7c-1.1,0.5-1.3,1.8-0.8,2.8c0.6,1,1.8,1.4,2.8,0.8c1-0.6,1.3-1.9,0.8-2.9
				C-109.3,384.8-110.6,385.5-110.2,386.3L-110.2,386.3z"/>
		</g>
	</g>
	<g id="XMLID_10796_">
		<g>
			<path class="st0" d="M-98.8,387.9c-1-0.6-2.2-0.6-3.2,0c-1,0.6-1.6,2-0.5,2.8c0.9,0.6,2.4,0.7,3.3,0c0.9-0.7,0.9-2.1-0.1-2.7
				c-0.8-0.4-1.6,0.8-0.7,1.3c0.3,0.2-0.5,0.4-0.6,0.4c-0.2,0-1,0-1-0.1c0-0.3,0.7-0.6,0.9-0.6c0.4-0.1,0.8,0,1.2,0.2
				C-98.7,389.7-98,388.4-98.8,387.9L-98.8,387.9z"/>
		</g>
	</g>
	<g id="XMLID_10804_">
		<g>
			<path class="st0" d="M-132.6,385.8c-0.3-1.4-1.9-2.5-3.3-2.1c-1.4,0.4-2.3,2.1-1.8,3.5c0.5,1.3,2.1,2.1,3.4,1.5
				c1.4-0.6,1.8-2.2,1.2-3.5c-0.4-0.9-1.6-0.1-1.3,0.7c0.6,1.4-1.7,2.1-2.1,0.7c-0.2-0.6,0.3-1.3,0.9-1.5c0.7-0.2,1.4,0.4,1.6,1.1
				C-133.8,387.1-132.4,386.7-132.6,385.8L-132.6,385.8z"/>
		</g>
	</g>
</g>
</svg>
