<?xml version="1.0" encoding="utf-8"?>
<!-- Generator: Adobe Illustrator 19.0.0, SVG Export Plug-In . SVG Version: 6.00 Build 0)  -->
<svg version="1.1" id="Layer_1" xmlns="http://www.w3.org/2000/svg" xmlns:xlink="http://www.w3.org/1999/xlink" x="0px" y="0px"
	 viewBox="-205 297 200 200" style="enable-background:new -205 297 200 200;" xml:space="preserve">
<style type="text/css">
	.st0{fill:#E1F2F4;}
</style>
<g id="XMLID_17_">
	<g id="XMLID_22490_">
		<g>
			<path class="st0" d="M-90.2,355.8c-0.2,0-0.5,0-0.7,0c-0.5,0-0.5,0.7,0,0.7c0.2,0,0.5,0,0.7,0C-89.7,356.5-89.7,355.8-90.2,355.8
				L-90.2,355.8z"/>
		</g>
	</g>
	<g id="XMLID_22539_">
		<g>
			<path class="st0" d="M-143.7,368.9c-1.1-1.4-3.2,0.1-3.2,1.6c0,2.1,2.8,2.5,4.3,1.9c0.2-0.1,0.3-0.2,0.3-0.4
				c0-0.7,0.1-1.4,0.1-2.1c0-0.5-0.7-0.5-0.7,0c0,0.7-0.1,1.4-0.1,2.1c0.1-0.1,0.2-0.2,0.3-0.4c-1,0.4-2.6,0.4-3.2-0.8
				c-0.5-1,1-2.5,1.8-1.5C-143.9,369.8-143.4,369.3-143.7,368.9L-143.7,368.9z"/>
		</g>
	</g>
	<g id="XMLID_22546_">
		<g>
			<path class="st0" d="M-50.4,422.7c-1.5,0.9-2.1,2.8-1.3,4.4c0.1,0.1,0.2,0.2,0.3,0.2c0.9,0,1.8,0,2.7,0c0.2,0,0.3-0.1,0.4-0.3
				c0.5-1.2,0.2-2.4-0.6-3.3c-0.3-0.4-0.9,0.2-0.5,0.5c0.7,0.7,0.8,1.7,0.4,2.6c0.1-0.1,0.2-0.2,0.4-0.3c-0.9,0-1.8,0-2.7,0
				c0.1,0.1,0.2,0.1,0.3,0.2c-0.6-1.2-0.1-2.7,1.1-3.4C-49.6,423.1-50,422.4-50.4,422.7L-50.4,422.7z"/>
		</g>
	</g>
	<g id="XMLID_22749_">
		<g>
			<path class="st0" d="M-153.8,422.3c-0.4,0.5-0.1,1.4,0.6,1.3c0.2,0,0.4-0.2,0.4-0.4c0-0.4-0.1-0.8-0.4-1.2
				c-0.3-0.4-0.8,0.2-0.5,0.5c0.2,0.2,0.2,0.4,0.2,0.6c0.1-0.1,0.2-0.2,0.4-0.4c0,0-0.1,0-0.1,0C-153,422.4-153.5,421.9-153.8,422.3
				L-153.8,422.3z"/>
		</g>
	</g>
	<g id="XMLID_22763_">
		<g>
			<path class="st0" d="M-154.3,419.9c-0.5-1.3-1.1-2.7-1.6-4c-0.2-0.4-0.9-0.2-0.7,0.2c0.5,1.3,1.1,2.7,1.6,4
				C-154.8,420.5-154.1,420.3-154.3,419.9L-154.3,419.9z"/>
		</g>
	</g>
	<g id="XMLID_22770_">
		<g>
			<path class="st0" d="M-152.2,419.7c0.4-1.3,0.7-2.6,1.1-3.9c0.1-0.5-0.6-0.7-0.7-0.2c-0.4,1.3-0.7,2.6-1.1,3.9
				C-153.1,420-152.3,420.2-152.2,419.7L-152.2,419.7z"/>
		</g>
	</g>
	<g id="XMLID_22777_">
		<g>
			<path class="st0" d="M-154.6,426.1c-0.4,1.4-0.9,2.9-1.3,4.3c-0.1,0.5,0.6,0.7,0.7,0.2c0.4-1.4,0.9-2.9,1.3-4.3
				C-153.7,425.9-154.4,425.7-154.6,426.1L-154.6,426.1z"/>
		</g>
	</g>
	<g id="XMLID_22784_">
		<g>
			<path class="st0" d="M-152.5,426.3c0.2,1.4,0.9,2.6,2,3.6c0.4,0.3,0.9-0.2,0.5-0.5c-1-0.8-1.6-1.9-1.8-3.2
				C-151.9,425.7-152.6,425.9-152.5,426.3L-152.5,426.3z"/>
		</g>
	</g>
	<g id="XMLID_22791_">
		<g>
			<path class="st0" d="M-149.2,421.9c1.2-1,2.7-1.6,4.3-1.7c0.5,0,0.5-0.8,0-0.7c-1.8,0.1-3.5,0.7-4.9,1.9
				C-150.1,421.7-149.6,422.2-149.2,421.9L-149.2,421.9z"/>
		</g>
	</g>
	<g id="XMLID_22814_">
		<g>
			<path class="st0" d="M-149.8,423.5c1.2,1.1,2.6,1.9,4.1,2.5c0.4,0.2,0.6-0.5,0.2-0.7c-1.4-0.6-2.6-1.3-3.8-2.3
				C-149.7,422.7-150.2,423.2-149.8,423.5L-149.8,423.5z"/>
		</g>
	</g>
	<g id="XMLID_22828_">
		<g>
			<path class="st0" d="M-156.1,421c-1.8-0.4-3.5-0.9-5.2-1.8c-0.4-0.2-0.8,0.4-0.4,0.6c1.7,0.9,3.5,1.5,5.3,1.9
				C-155.8,421.8-155.6,421.1-156.1,421L-156.1,421z"/>
		</g>
	</g>
	<g id="XMLID_22840_">
		<g>
			<path class="st0" d="M-156.7,423.9c-1.3,0.9-2.7,1.6-4.2,2.1c-0.5,0.2-0.3,0.9,0.2,0.7c1.5-0.5,3-1.2,4.4-2.2
				C-155.9,424.3-156.3,423.7-156.7,423.9L-156.7,423.9z"/>
		</g>
	</g>
	<g id="XMLID_22847_">
		<g>
			<path class="st0" d="M-102.6,403.5c0.1-0.3,0.3-0.6,0.4-1c0.2-0.4-0.5-0.8-0.6-0.4c-0.1,0.3-0.3,0.6-0.4,1
				C-103.5,403.6-102.8,404-102.6,403.5L-102.6,403.5z"/>
		</g>
	</g>
	<g id="XMLID_22854_">
		<g>
			<path class="st0" d="M-102.7,399.6c-1.1-1.2-1.8-2.7-2.1-4.3c-0.1-0.5-0.8-0.3-0.7,0.2c0.3,1.7,1.1,3.3,2.3,4.6
				C-102.9,400.5-102.4,400-102.7,399.6L-102.7,399.6z"/>
		</g>
	</g>
	<g id="XMLID_22861_">
		<g>
			<path class="st0" d="M-101.3,399.8c0.5-1.5,0.9-3.1,1.4-4.6c0.1-0.5-0.6-0.7-0.7-0.2c-0.5,1.5-0.9,3.1-1.4,4.6
				C-102.1,400.1-101.4,400.3-101.3,399.8L-101.3,399.8z"/>
		</g>
	</g>
	<g id="XMLID_22868_">
		<g>
			<path class="st0" d="M-102.6,405.8c0.6,1.5,1.1,3.1,1.7,4.6c0.2,0.4,0.9,0.3,0.7-0.2c-0.6-1.5-1.1-3.1-1.7-4.6
				C-102.1,405.2-102.8,405.4-102.6,405.8L-102.6,405.8z"/>
		</g>
	</g>
	<g id="XMLID_22875_">
		<g>
			<path class="st0" d="M-104.5,405.6c-0.5,1.6-0.8,3.3-0.7,5.1c0,0.5,0.8,0.5,0.7,0c0-1.7,0.2-3.3,0.7-4.9
				C-103.6,405.4-104.3,405.2-104.5,405.6L-104.5,405.6z"/>
		</g>
	</g>
	<g id="XMLID_22882_">
		<g>
			<path class="st0" d="M-100,402.4c1.3-1,2.8-1.6,4.4-1.7c0.5,0,0.5-0.8,0-0.7c-1.8,0.1-3.4,0.7-4.8,1.8
				C-100.8,402-100.4,402.7-100,402.4L-100,402.4z"/>
		</g>
	</g>
	<g id="XMLID_22889_">
		<g>
			<path class="st0" d="M-100,403.3c1.1,0.8,2.2,1.6,3.3,2.4c0.4,0.3,0.8-0.4,0.4-0.6c-1.1-0.8-2.2-1.6-3.3-2.4
				C-100,402.4-100.4,403-100,403.3L-100,403.3z"/>
		</g>
	</g>
	<g id="XMLID_22896_">
		<g>
			<path class="st0" d="M-104.9,401.3c-2-1.2-4-2.4-6-3.6c-0.4-0.2-0.8,0.4-0.4,0.6c2,1.2,4,2.4,6,3.6
				C-104.9,402.2-104.5,401.6-104.9,401.3L-104.9,401.3z"/>
		</g>
	</g>
	<g id="XMLID_22903_">
		<g>
			<path class="st0" d="M-106,402.6c-1.5,0.4-3,0.7-4.5,0.7c-0.5,0-0.5,0.8,0,0.7c1.6,0,3.2-0.3,4.7-0.7
				C-105.3,403.2-105.5,402.5-106,402.6L-106,402.6z"/>
		</g>
	</g>
	<g id="XMLID_22910_">
		<g>
			<path class="st0" d="M-113,398.2c0.3-0.6-0.1-1.3-0.7-1.5c-0.7-0.2-1.3,0.4-1.2,1.1c0.1,0.7,0.7,1.2,1.3,1.2
				c0.8-0.1,1.3-0.9,1.3-1.7c0-0.5-0.8-0.5-0.7,0c0,0.5-0.6,1.4-1,0.7c-0.1-0.2-0.2-0.5,0-0.6c0.2-0.1,0.5,0.2,0.4,0.4
				C-113.8,398.3-113.2,398.7-113,398.2L-113,398.2z"/>
		</g>
	</g>
	<g id="XMLID_22917_">
		<g>
			<path class="st0" d="M-107.2,391.8c0.5,0,0.5-0.7,0-0.7C-107.7,391.1-107.7,391.8-107.2,391.8L-107.2,391.8z"/>
		</g>
	</g>
	<g id="XMLID_22924_">
		<g>
			<path class="st0" d="M-97.8,392.4c0-0.3,0-0.6,0-1c0-0.2-0.2-0.3-0.4-0.4c-0.5-0.1-0.9,0.1-1.2,0.4c-0.1,0.1-0.1,0.2-0.1,0.4
				c0.2,0.7,1,1.2,1.7,0.9c0.4-0.2,0.2-0.9-0.2-0.7c-0.3,0.1-0.7,0-0.8-0.3c0,0.1-0.1,0.2-0.1,0.4c0.2-0.2,0.4-0.2,0.7-0.2
				c-0.1-0.1-0.2-0.2-0.4-0.4c0,0.3,0,0.6,0,1C-98.6,392.9-97.8,392.9-97.8,392.4L-97.8,392.4z"/>
		</g>
	</g>
	<g id="XMLID_22931_">
		<g>
			<path class="st0" d="M-91.6,397.8c-0.5-0.5-1.6-0.3-1.7,0.5c-0.2,0.8,0.8,1.4,1.5,1c0.4-0.2,0.1-0.9-0.4-0.6
				c-0.5,0.3-0.4-0.8,0.1-0.3C-91.8,398.6-91.2,398.1-91.6,397.8L-91.6,397.8z"/>
		</g>
	</g>
	<g id="XMLID_22938_">
		<g>
			<path class="st0" d="M-93.6,410c-0.1-0.7-0.7-1.2-1.4-1c-0.2,0-0.3,0.2-0.3,0.4c0,0.4,0,0.8,0,1.3c0,0.2,0.1,0.3,0.3,0.4
				c0.5,0.1,1.2,0.2,1.4-0.4c0.2-0.5-0.1-1-0.5-1.2c-0.4-0.2-0.8,0.4-0.4,0.6c0.2,0.1,0.2,0.2,0.1,0.4c0.1-0.1,0.1-0.1,0.2-0.2
				c-0.2,0.1-0.5,0.1-0.7,0c0.1,0.1,0.2,0.2,0.3,0.4c0-0.4,0-0.8,0-1.3c-0.1,0.1-0.2,0.2-0.3,0.4c0.2,0,0.4,0.1,0.4,0.3
				C-94.3,410.5-93.5,410.5-93.6,410L-93.6,410z"/>
		</g>
	</g>
	<g id="XMLID_22945_">
		<g>
			<path class="st0" d="M-108.5,409.7c-0.7-0.8-2.1,0.2-1.6,1.2c0.1,0.1,0.2,0.2,0.3,0.2C-109,411-108.4,410.4-108.5,409.7
				c-0.1-0.6-0.8-0.4-0.8,0.1c0,0.3-0.2,0.5-0.5,0.5c0.1,0.1,0.2,0.1,0.3,0.2c-0.1-0.2,0.3-0.4,0.4-0.3
				C-108.7,410.6-108.2,410-108.5,409.7L-108.5,409.7z"/>
		</g>
	</g>
	<g id="XMLID_22952_">
		<g>
			<path class="st0" d="M-86.6,401c-0.9-4.2-2.3-8.7-5.6-11.7c-3.3-2.9-7.9-2.9-12.1-2.8c-9.2,0.2-16.9,7.9-15.4,17.6
				c1.4,9.5,10.9,14.6,19.8,14.3c4.1-0.1,8.9-1.1,11.6-4.5c3-3.6,2.4-8.4,1.8-12.6c-0.1-0.5-0.8-0.3-0.7,0.2
				c0.8,5.6,0.7,11.4-5,14.4c-2.9,1.6-6.8,1.9-10,1.7c-8.8-0.6-17.6-6.9-16.9-16.5c0.3-3.8,2.3-8.3,5.2-10.9c3.2-3,7.7-3.1,11.8-3
				c4.7,0.1,8.9,1.2,11.5,5.4c1.6,2.6,2.4,5.6,3.1,8.5C-87.2,401.6-86.5,401.4-86.6,401L-86.6,401z"/>
		</g>
	</g>
	<g id="XMLID_22959_">
		<g>
			<path class="st0" d="M-101.4,421.3c-0.6,2.5,0,5.1,0.2,7.6c0.1,1.7,0.4,3.8-0.6,5.3c-0.8,1.2-1.9,1.8-3.3,1.9
				c-2.2,0.2-2.4-1.1-0.5-3.8c0.2,0.4,0.9,0.2,0.7-0.2c-1.8-4.4-7.7,1.6-2.5,4.2c2,1,4.7,0.3,6-1.5c2.7-3.8-0.4-9.2,0.6-13.3
				C-100.6,421-101.3,420.8-101.4,421.3L-101.4,421.3z"/>
		</g>
	</g>
	<g id="XMLID_22966_">
		<g>
			<path class="st0" d="M-105.5,434.9c0.1,0,0.2,0,0.3,0c0.5,0,0.5-0.7,0-0.7c-0.1,0-0.2,0-0.3,0C-106,434.2-106,434.9-105.5,434.9
				L-105.5,434.9z"/>
		</g>
	</g>
	<g id="XMLID_22973_">
		<g>
			<path class="st0" d="M-83.3,402c3.1-0.3,6.2-0.5,9.3-0.7c1.5-0.1,3.1-0.2,4.6-0.2c3.5-0.1,2.3-0.6,4,3.7c0.2,0.4,0.9,0.2,0.7-0.2
				c-0.4-1-0.2-0.9-1.3-1.3c-0.1-0.1-0.3,0-0.4,0.2c-2.2,4.2,4.8,5.6,5,1c0.1-2.3-2-3.8-4-4.1c-5.5-1-12.4,0.4-17.9,0.9
				C-83.8,401.3-83.8,402.1-83.3,402L-83.3,402z"/>
		</g>
	</g>
	<g id="XMLID_22980_">
		<g>
			<path class="st0" d="M-53.7,405.4c0.5,0,0.5-0.7,0-0.7C-54.2,404.7-54.2,405.4-53.7,405.4L-53.7,405.4z"/>
		</g>
	</g>
	<g id="XMLID_22987_">
		<g>
			<path class="st0" d="M-104.6,383.4c-0.9-2.2-1.7-4.5-2.1-6.9c-0.3-1.4-0.6-3-0.1-4.4c0.6-1.6,1.6-2.5,3.3-2.6
				c1.4-0.2,2.1,0.6,1.9,2.3c-0.4-0.3-0.9,0.2-0.5,0.5c0.8,0.7,1.9,0.5,2.3-0.6c0.6-2.1-2.6-3.1-4-2.9c-6.9,0.7-2.9,11.2-1.4,14.8
				C-105.1,384.1-104.4,383.9-104.6,383.4L-104.6,383.4z"/>
		</g>
	</g>
	<g id="XMLID_22994_">
		<g>
			<path class="st0" d="M-103.5,372.2c0-0.1,0-0.2,0-0.3c0-0.5-0.7-0.5-0.7,0c0,0.1,0,0.2,0,0.3
				C-104.2,372.7-103.5,372.7-103.5,372.2L-103.5,372.2z"/>
		</g>
	</g>
	<g id="XMLID_23001_">
		<g>
			<path class="st0" d="M-124.5,403.6c-2.7,0.6-5.4,1.1-8.2,1.2c-1,0-2.1,0.1-3-0.1c-1.6-0.2-2.4-1.3-2.4-3.2
				c2.1-2.4,3.3-2.3,3.6,0.2c0-0.5-0.7-0.5-0.7,0c0,1.5,2,1.7,2.3,0.2c0.5-2.4-3.1-3.5-4.7-2.3c-1.8,1.3-1.6,4,0.1,5.1
				c1.4,0.9,3.3,0.9,4.9,0.8c2.8-0.1,5.6-0.6,8.4-1.2C-123.9,404.2-124.1,403.5-124.5,403.6L-124.5,403.6z"/>
		</g>
	</g>
	<g id="XMLID_23008_">
		<g>
			<path class="st0" d="M-136.9,402c0.1,0.1,0.2,0.2,0.3,0.3c0.3,0.3,0.9-0.2,0.5-0.5c-0.1-0.1-0.2-0.2-0.3-0.3
				C-136.8,401.1-137.3,401.6-136.9,402L-136.9,402z"/>
		</g>
	</g>
	<g id="XMLID_23050_">
		<g>
			<path class="st0" d="M-65,374c0.6-0.2,0.8-1.2,0.2-1.6c-0.7-0.5-1.3,0.8-0.9,1.4c0.5,0.6,1.7,0,1.6-0.7c-0.1-0.7-1-1.6-1.5-0.8
				c-0.3,0.5-0.3,1.7,0.5,1.8c0.8,0.1,1.1-1,0.9-1.5c-0.3-0.7-1.3-0.8-1.8-0.3c-0.6,0.5-0.5,1.5,0.1,2c0.6,0.5,1.8,0.4,1.8-0.6
				c0.1-0.7-0.5-1.4-1.3-1.2c-0.5,0.1-0.3,0.8,0.2,0.7c0.2,0,0.4,0.3,0.3,0.4c0,0.5-0.7,0.1-0.8-0.1c-0.2-0.3,0-0.8,0.4-0.8
				c0.4,0.1,0.3,0.6,0,0.7c0.1,0,0.2,0.1,0.4,0.1c-0.3-0.2-0.3-0.6,0-0.8c-0.1,0-0.2,0.1-0.4,0.1c0.2,0.1,0.4,0.2,0.4,0.5
				c0,0.2-0.2,0.2-0.4,0.1c0.1,0.1,0.1,0.1,0.2,0.2c-0.1-0.2-0.1-0.4,0.1-0.5c-0.1,0-0.2,0-0.3,0c0.1,0,0,0.2,0,0.2
				C-65.6,373.5-65.4,374.2-65,374L-65,374z"/>
		</g>
	</g>
	<g id="XMLID_23057_">
		<g>
			<path class="st0" d="M-65.1,368.9c1-1.1,0.2-2.9-1.3-2.9c-0.2,0-0.4,0.2-0.4,0.4c0,1.2,0.5,2.3,1.4,3.1c0.2,0.2,0.6,0.1,0.6-0.2
				c0.3-1.9,0.1-3.7-0.7-5.5c-0.1-0.3-0.6-0.2-0.7,0.1c-0.6,1.7-0.4,3.5,0.7,5c0.2,0.3,0.7,0.2,0.7-0.2c0.1-1.5-0.2-3-1.1-4.2
				c-0.2-0.2-0.5-0.3-0.6,0c-0.7,1.3-0.4,2.8,0.7,3.7c0.4,0.3,0.9-0.2,0.5-0.5c-0.8-0.7-1.1-1.8-0.5-2.8c-0.2,0-0.4,0-0.6,0
				c0.8,1.2,1.2,2.4,1,3.9c0.2-0.1,0.5-0.1,0.7-0.2c-1-1.3-1.2-2.9-0.6-4.4c-0.2,0-0.5,0.1-0.7,0.1c0.7,1.6,0.9,3.2,0.6,4.9
				c0.2-0.1,0.4-0.1,0.6-0.2c-0.7-0.7-1.1-1.6-1.1-2.6c-0.1,0.1-0.2,0.2-0.4,0.4c0.8,0,1.3,1.1,0.7,1.7
				C-66,368.8-65.5,369.3-65.1,368.9L-65.1,368.9z"/>
		</g>
	</g>
	<g id="XMLID_23064_">
		<g>
			<path class="st0" d="M-64.7,380.6c0.1-0.7,0-1.4-0.2-2.1c-0.1-0.3-0.6-0.4-0.7,0c-0.3,1.9-0.3,3.7,0.2,5.5c0.1,0.4,0.6,0.3,0.7,0
				c0.5-1.4,0.8-2.8,0.7-4.3c0-0.7-0.1-1.8-0.9-2.1c-0.7-0.3-1.2,0.5-1.3,1.1c-0.2,1.2,0.1,2.4,0.6,3.4c0.1,0.2,0.3,0.2,0.5,0.1
				c0.4-0.2,0.6-0.5,0.6-1c0-0.5-0.8-0.5-0.7,0c-0.1,0.1-0.1,0.2-0.2,0.3c0.2,0,0.3,0.1,0.5,0.1c-0.3-0.6-0.7-1.4-0.6-2.1
				c0-0.2,0.3-1.1,0.6-0.9c0.2,0.1,0.1,1.1,0.1,1.2c0.1,1.4-0.2,2.7-0.7,3.9c0.2,0,0.5,0,0.7,0c-0.5-1.7-0.6-3.4-0.2-5.1
				c-0.2,0-0.5,0-0.7,0c0.2,0.6,0.2,1.2,0.2,1.9C-65.5,381.1-64.8,381.1-64.7,380.6L-64.7,380.6z"/>
		</g>
	</g>
	<g id="XMLID_23071_">
		<g>
			<path class="st0" d="M-62.4,372.3c1.2,1,2.9,0.9,3.9-0.3c0.2-0.2,0.1-0.5-0.2-0.6c-1.1-0.5-2.2-0.1-2.9,0.9
				c-0.1,0.2,0,0.5,0.2,0.5c1.2,0.3,2.3,0.2,3.4-0.5c0.3-0.2,0.2-0.6-0.1-0.7c-1-0.2-2-0.2-3,0.1c-0.3,0.1-0.4,0.6,0,0.7
				c1.4,0.3,2.6,0.1,3.8-0.6c0.3-0.2,0.2-0.6-0.1-0.7c-1.6-0.6-3.4-0.3-4.8,0.7c-0.3,0.2-0.2,0.7,0.2,0.7c2,0,3.9-0.4,5.8-1.1
				c0.3-0.1,0.2-0.6-0.1-0.7c-1.6-0.5-3.1-0.1-4.4,0.9c-0.4,0.3,0.2,0.8,0.5,0.5c1-0.9,2.3-1.1,3.6-0.7c0-0.2-0.1-0.5-0.1-0.7
				c-1.7,0.7-3.5,1.1-5.4,1c0.1,0.2,0.1,0.5,0.2,0.7c1.3-0.9,2.7-1.2,4.2-0.7c0-0.2-0.1-0.5-0.1-0.7c-1,0.6-2.1,0.8-3.2,0.6
				c0,0.2,0,0.5,0,0.7c0.9-0.3,1.7-0.3,2.6-0.1c0-0.2-0.1-0.5-0.1-0.7c-0.9,0.5-1.8,0.7-2.8,0.4c0.1,0.2,0.1,0.4,0.2,0.5
				c0.5-0.7,1.3-0.9,2.1-0.6c-0.1-0.2-0.1-0.4-0.2-0.6c-0.7,0.9-2,1-2.8,0.3C-62.3,371.5-62.8,372-62.4,372.3L-62.4,372.3z"/>
		</g>
	</g>
	<g id="XMLID_23078_">
		<g>
			<path class="st0" d="M-69.7,373.8c-1.3-0.4-2.6-0.3-3.7,0.4c-0.2,0.2-0.2,0.6,0.1,0.7c1.4,0.2,2.7,0.2,4.1-0.1
				c0.3-0.1,0.4-0.4,0.2-0.6c-1.5-1.3-3.9-1.3-5.2,0.3c-0.3,0.3,0,0.7,0.4,0.6c1.3-0.3,2.5-0.5,3.8-0.8c0.3-0.1,0.4-0.6,0.1-0.7
				c-1-0.5-2.1-0.5-3.1,0.1c-0.4,0.2-0.1,0.7,0.2,0.7c0.9,0.1,1.7-0.2,2.4-0.7c0.3-0.2,0-0.6-0.3-0.6c-0.3,0-0.6-0.1-0.9-0.1
				c-0.5,0-0.5,0.7,0,0.7c0.3,0,0.6,0.1,0.9,0.1c-0.1-0.2-0.2-0.4-0.3-0.6c-0.6,0.4-1.2,0.6-1.9,0.5c0.1,0.2,0.1,0.5,0.2,0.7
				c0.8-0.4,1.6-0.4,2.3-0.1c0-0.2,0.1-0.5,0.1-0.7c-1.3,0.3-2.5,0.5-3.8,0.8c0.1,0.2,0.2,0.4,0.4,0.6c1.1-1.2,2.9-1.3,4.1-0.3
				c0.1-0.2,0.1-0.4,0.2-0.6c-1.2,0.3-2.5,0.3-3.7,0.1c0,0.2,0.1,0.5,0.1,0.7c1-0.6,2.1-0.7,3.1-0.3
				C-69.5,374.7-69.3,374-69.7,373.8L-69.7,373.8z"/>
		</g>
	</g>
</g>
</svg>
