<?xml version="1.0" encoding="utf-8"?>
<!-- Generator: Adobe Illustrator 19.0.0, SVG Export Plug-In . SVG Version: 6.00 Build 0)  -->
<svg version="1.1" id="Layer_1" xmlns="http://www.w3.org/2000/svg" xmlns:xlink="http://www.w3.org/1999/xlink" x="0px" y="0px"
	 viewBox="-205 297 200 200" style="enable-background:new -205 297 200 200;" xml:space="preserve">
<style type="text/css">
	.st0{fill:#E1F2F4;}
</style>
<g id="XMLID_11628_">
	<g id="XMLID_22369_">
		<g>
			<path class="st0" d="M-115.5,403.3c2.3,2.2,0.6,10,0.4,12.7c-0.3,3.2-0.2,13.7-4,14.7c-0.2,0-0.1,0.3,0.1,0.2
				c4.4-1.1,3.5-7.7,3.8-11.3c0.4-3.9,0.8-7.9,0.9-11.8c0-1.8,0.4-3.4-1-4.7C-115.4,403-115.6,403.1-115.5,403.3L-115.5,403.3z"/>
		</g>
	</g>
	<g id="XMLID_22362_">
		<g>
			<path class="st0" d="M-115.4,428.7c1.1-5.7,1.2-11.5,1.5-17.3c0-0.7-0.3-3.9,0.6-3.2c0.8,0.6,0.3,2.5,0.3,3.4
				c-0.2,3.2-0.6,6.4-0.3,9.6c0,0.1,0.2,0.2,0.2,0c0.7-1.7,0.8-3.2,1-5.1c0.1-1,0.1-2.1,0.2-3.1c0-0.5,0.1-1,0.1-1.5
				c-0.2-0.8,0-1,0.7-0.5c0,0.2,0.3,0.2,0.3,0c0-2,0-1.1-0.2-3c0-0.1-0.1-0.1-0.2-0.1c-1.1,0.9-1.7,11.8-1.4,12
				c-1.2-0.7-0.2-5.3-0.1-6.7c0.2-2.7,0.3-5.3-0.2-7.9c0-0.1-0.2-0.1-0.2-0.1c-1.4,1.4-0.7,5.3-0.8,7c-0.3,5.5-0.4,11-1.5,16.4
				C-115.7,428.8-115.5,428.9-115.4,428.7L-115.4,428.7z"/>
		</g>
	</g>
	<g id="XMLID_22355_">
		<g>
			<path class="st0" d="M-114.4,428.7c0.1-1,0.1-2.4,0.5-3.3c-0.2-1.1,0-1.4,0.7-0.9c0,0.5,0,1.1,0,1.6c0,0.7-0.3,1.8,0.3,2.3
				c0.1,0,0.1,0,0.2,0c1.1-0.8,0.8-3.2,0.9-4.3c0.1-1.8,0.3-3.6,0.5-5.4c0.1-0.8,0.1-1.7,0.3-2.4c0.5-1.9,0.5-0.5,0.5,0.7
				c0,3.4-0.5,6.8-0.7,10.1c-0.1,0.9-0.5,2.4,0.6,2.7c0.1,0,0.2,0,0.2-0.1c0.2-1.8,0.3-3.6,0.6-5.3c0-0.2,0.1-1.9,0.4-1.9
				c0.1,0-0.1,3-0.1,3.2c0,0.2,0.2,0.2,0.3,0c0.1-1.4,0.1-2.8,0.1-4.2c0-0.1-0.1-0.2-0.2-0.1c-0.5,0.6-0.4,1.2-0.6,2
				c-0.1,1.1-0.2,2.1-0.4,3.2c0,0.4,0.1,2.7-0.7,1.8c-0.6-0.7,0.6-6.1,0.6-7.2c0.2-2.4,0.2-4.8,0.1-7.2c0-0.1-0.2-0.2-0.2-0.1
				c-1.2,1.6-0.9,4.7-1.1,6.6c-0.1,1.5,0,3.4-0.4,4.8c0.1,0.4,0,0.8-0.4,1c-0.4,0.6-0.5,0.5-0.3-0.1c-0.2-0.5,0.1-2.2,0.1-2.7
				c0,0,0-0.1-0.1-0.1c-1.7-0.7-1.5,4.6-1.7,5.4C-114.7,428.8-114.4,428.9-114.4,428.7L-114.4,428.7z"/>
		</g>
	</g>
	<g id="XMLID_22348_">
		<g>
			<path class="st0" d="M-109.3,419.3c0.1-2.4,0.2-4.8,0.3-7.2c0-0.2-0.2-0.2-0.3,0c-0.1,2.4-0.2,4.8-0.3,7.2
				C-109.5,419.5-109.3,419.5-109.3,419.3L-109.3,419.3z"/>
		</g>
	</g>
	<g id="XMLID_22341_">
		<g>
			<path class="st0" d="M-108.8,411c-0.1-0.6,0.1-3.9,1.1-3.8c0.1,0,0.1,3.5,0.1,3.8c0,2.9-0.2,5.8-0.3,8.6
				c-0.1,2.8-1.2,7.8,0.6,10.2c0.1,0.1,0.2,0.1,0.2-0.1c0.2-2.4,0.3-4.8,0.5-7.1c0.1-2.3-0.3-6,0.5-8c0.6-1.6,0.4,0.3,0.5,1.3
				c0.1,1.1-0.1,2.3-0.2,3.4c-0.1,2-0.1,3.9,0.2,5.9c0,0.1,0.2,0.1,0.2,0c0.2-0.7,0.5-4.5,0.8-4.5c-0.3,0,0.4,4.7,0.5,5.3
				c0.5,2,1.1,3.7,3.1,4.2c0.2,0,0.2-0.2,0.1-0.2c-4-1.1-3.5-8-3.5-11.1c0-0.1-0.2-0.2-0.2-0.1c-0.5,1.2-0.9,5.4-1.1,2.2
				c-0.2-3.2,0.5-5.9-0.3-9.1c0-0.1-0.2-0.1-0.2,0c-0.2,3-0.3,6-0.5,8.9c-0.1,1.7,0,3.7-0.3,5.4c-0.5,2.7-0.5,1.2-0.7-0.8
				c-0.7-6.6,0.7-13.5,0.2-20.1c0-0.1-0.2-0.2-0.2-0.1c-1.1,2-1.4,3.4-1.2,5.7C-109,411.2-108.8,411.2-108.8,411L-108.8,411z"/>
		</g>
	</g>
	<g id="XMLID_22334_">
		<g>
			<path class="st0" d="M-103.5,430.6c-0.4-1.1-0.7-2.1-0.8-3.3c0-0.2,0-1-0.4-1c-0.5,0-0.5,1.1-0.5,1.4c0,0.2,0,0.5,0,0.7
				c0,0.1,0,0.3,0,0.4c-0.2,0-0.3,0-0.5,0c-0.2-0.2-0.3-1.4-0.3-1.7c0-0.1-0.2-0.1-0.2,0c-0.2,0.8-0.3,1.7-0.2,2.5
				c0,0.2,0.3,0.2,0.3,0c-0.1-0.8,0-1.6,0.2-2.5c-0.1,0-0.2,0-0.2,0c0.1,0.6,0.1,1.8,0.6,2.2c0.3,0.3,0.6,0.1,0.7-0.3
				c0.1-0.4,0-1,0-1.4c0-0.2,0-1.1,0.3-0.7c0,0.1,0.1,0.6,0.1,0.6c0.1,1,0.4,2.1,0.8,3C-103.7,430.8-103.4,430.8-103.5,430.6
				L-103.5,430.6z"/>
		</g>
	</g>
	<g id="XMLID_22327_">
		<g>
			<path class="st0" d="M-109.6,426.8c-0.1,0.7-0.1,1.4-0.1,2.1c0,0.2,0.3,0.2,0.3,0c0-0.7,0-1.3,0.1-2
				C-109.3,426.7-109.5,426.7-109.6,426.8L-109.6,426.8z"/>
		</g>
	</g>
	<g id="XMLID_22320_">
		<g>
			<path class="st0" d="M-106,410.7c0.1-1.5,0.1-2.9,0.2-4.4c0-0.2-0.2-0.2-0.3,0c-0.1,1.5-0.1,2.9-0.2,4.4
				C-106.2,410.9-106,410.9-106,410.7L-106,410.7z"/>
		</g>
	</g>
	<g id="XMLID_22313_">
		<g>
			<path class="st0" d="M-105,406.2c0.7,3.7,0.4,7.5,0.9,11.2c0,0.1,0.2,0.1,0.2,0c1.2-2.7-0.6-11.9,3.4-12c0.2,0,0.2-0.3,0-0.3
				c-3.3,0.1-2.9,4.2-2.9,6.7c0,1.1,0.2,2.4-0.1,3.4c-0.5,1.9-0.6-1.5-0.7-2.2c-0.1-2.3-0.1-4.6-0.5-6.9
				C-104.8,405.9-105,406-105,406.2L-105,406.2z"/>
		</g>
	</g>
	<g id="XMLID_22306_">
		<g>
			<path class="st0" d="M-102.3,408.8c-0.4,6.2-2.7,15.5,2.3,20.5c0.1,0.1,0.3-0.1,0.2-0.2c-4.8-4.8-2.6-14.2-2.2-20.3
				C-102.1,408.6-102.3,408.6-102.3,408.8L-102.3,408.8z"/>
		</g>
	</g>
	<g id="XMLID_22299_">
		<g>
			<path class="st0" d="M-93.4,430.4c4.2,0.2,8.4,0.4,12.1,2.6c4.6,2.9,6.1,8,6,13.2c0,0.2,0.3,0.2,0.3,0c0.1-4.9-1.2-9.7-5.2-12.7
				c-3.8-2.9-8.6-3.1-13.2-3.3C-93.6,430.1-93.6,430.4-93.4,430.4L-93.4,430.4z"/>
		</g>
	</g>
	<g id="XMLID_22292_">
		<g>
			<path class="st0" d="M-100.1,429.4c2.1,0.6,4.1,0.8,6.3,1c0.2,0,0.2-0.2,0-0.3c-2.1-0.1-4.2-0.4-6.2-1
				C-100.2,429.1-100.3,429.4-100.1,429.4L-100.1,429.4z"/>
		</g>
	</g>
	<g id="XMLID_22285_">
		<g>
			<path class="st0" d="M-119.2,430.9c-5.2-0.7-14.3-1.9-18.7,2.1c-3.7,3.4-4,9.7-3.2,14.3c0,0.2,0.3,0.1,0.2-0.1
				c-0.9-5.7-0.1-13.7,6.4-15.7c4.7-1.4,10.3-1.1,15.2-0.4C-119.1,431.1-119,430.9-119.2,430.9L-119.2,430.9z"/>
		</g>
	</g>
	<g id="XMLID_22278_">
		<g>
			<path class="st0" d="M-100.8,434.2c3,0.4,6.1,1.1,8,3.6c2,2.7,2.6,6,2.4,9.3c0,0.2,0.2,0.2,0.3,0c0.2-3.3-0.4-6.8-2.5-9.5
				c-2-2.6-5.2-3.2-8.2-3.7C-100.9,433.9-101,434.1-100.8,434.2L-100.8,434.2z"/>
		</g>
	</g>
	<g id="XMLID_22271_">
		<g>
			<path class="st0" d="M-103.9,430.1c0,1.8,1.2,3.4,2.9,4c0.2,0.1,0.2-0.2,0.1-0.2c-1.6-0.6-2.7-2.1-2.7-3.8
				C-103.6,429.9-103.9,429.9-103.9,430.1L-103.9,430.1z"/>
		</g>
	</g>
	<g id="XMLID_22264_">
		<g>
			<path class="st0" d="M-114.8,428.8c1.5,7.4-6.5,4.4-9.4,5.4c-1.1,0.4-2,1.1-2.8,2c-2.6,3.1-2.2,7.3-1.6,11.1
				c0,0.2,0.3,0.1,0.2-0.1c-0.5-3.6-1.1-7.9,1.6-10.8c2.9-3.2,5.6-1.4,8.9-2.2c2.6-0.6,3.7-2.9,3.2-5.4
				C-114.6,428.6-114.8,428.7-114.8,428.8L-114.8,428.8z"/>
		</g>
	</g>
	<g id="XMLID_22257_">
		<g>
			<path class="st0" d="M-111.6,435.8c-2.1,3.4-3.3,7.1-2.5,11.2c0,0.2,0.3,0.1,0.2-0.1c-0.8-4,0.4-7.6,2.5-11
				C-111.3,435.8-111.6,435.7-111.6,435.8L-111.6,435.8z"/>
		</g>
	</g>
	<g id="XMLID_22250_">
		<g>
			<path class="st0" d="M-110.3,429.8c0.3,1.3,0.2,2.5-0.2,3.7c-0.1,0.2,0.2,0.2,0.2,0.1c0.4-1.3,0.6-2.6,0.2-3.9
				C-110.1,429.5-110.3,429.6-110.3,429.8L-110.3,429.8z"/>
		</g>
	</g>
	<g id="XMLID_22243_">
		<g>
			<path class="st0" d="M-106,436.2c1.2,3.5,1.6,7.1,1.3,10.7c0,0.2,0.2,0.2,0.3,0c0.3-3.7-0.1-7.3-1.3-10.8
				C-105.8,436-106.1,436-106,436.2L-106,436.2z"/>
		</g>
	</g>
	<g id="XMLID_22236_">
		<g>
			<path class="st0" d="M-108.5,410.7c-0.1,7.5-2,16.5,1.6,23.4c0.1,0.1,0.3,0,0.2-0.1c-3.4-6.6-1.7-16-1.6-23.2
				C-108.3,410.6-108.5,410.6-108.5,410.7L-108.5,410.7z"/>
		</g>
	</g>
	<g id="XMLID_22229_">
		<g>
			<path class="st0" d="M-99.6,430.9c-1.5-0.2-3-0.3-3.9-1.7c-0.1-0.1-0.3,0-0.2,0.1c0.9,1.4,2.4,1.6,4,1.9
				C-99.6,431.1-99.5,430.9-99.6,430.9L-99.6,430.9z"/>
		</g>
	</g>
	<g id="XMLID_22222_">
		<g>
			<path class="st0" d="M-94.9,431.2c-0.9,0-1.9-0.1-2.8-0.1c-0.2,0-0.2,0.2,0,0.3c0.9,0.1,1.9,0.1,2.8,0.1
				C-94.7,431.5-94.7,431.2-94.9,431.2L-94.9,431.2z"/>
		</g>
	</g>
	<g id="XMLID_22215_">
		<g>
			<path class="st0" d="M-90.6,431.3c-0.7,0-1.4-0.1-2.2-0.1c-0.2,0-0.2,0.3,0,0.3c0.7,0,1.4,0,2.2,0.1
				C-90.5,431.6-90.5,431.3-90.6,431.3L-90.6,431.3z"/>
		</g>
	</g>
	<g id="XMLID_22208_">
		<g>
			<path class="st0" d="M-82.7,433.3c-1.9-1-3.9-1.5-5.9-1.8c-0.2,0-0.2,0.2,0,0.3c2,0.3,4,0.8,5.8,1.7
				C-82.6,433.6-82.5,433.3-82.7,433.3L-82.7,433.3z"/>
		</g>
	</g>
	<g id="XMLID_22201_">
		<g>
			<path class="st0" d="M-79,436.3c-0.6-0.7-1.2-1.3-1.9-1.8c-0.1-0.1-0.3,0.1-0.2,0.2c0.7,0.5,1.3,1.2,1.9,1.8
				C-79,436.6-78.9,436.4-79,436.3L-79,436.3z"/>
		</g>
	</g>
	<g id="XMLID_22194_">
		<g>
			<path class="st0" d="M-75.2,446.2c-0.2-2.9-1-5.6-2.5-8.1c-0.1-0.1-0.3,0-0.2,0.1c1.4,2.5,2.2,5.1,2.4,8
				C-75.4,446.4-75.2,446.4-75.2,446.2L-75.2,446.2z"/>
		</g>
	</g>
	<g id="XMLID_22187_">
		<g>
			<path class="st0" d="M-101,430.2c0.8-0.2,0.5-1,0.1-1.5c-0.5-0.6-1.1-0.9-1.6-1.6c-0.5-0.7-0.8-1.6-1-2.4
				c-0.4-1.5-0.5-3.2-0.5-4.8c0-0.2-0.3-0.2-0.3,0c0.1,1.8,0.2,3.7,0.7,5.5c0.2,0.6,0.5,1.3,0.8,1.8c0.2,0.4,2.2,2.5,1.6,2.8
				C-101.2,430.1-101.1,430.3-101,430.2L-101,430.2z"/>
		</g>
	</g>
	<g id="XMLID_22180_">
		<g>
			<path class="st0" d="M-102.2,434.6c-1.7-0.9-2.7-2.3-2.7-4.2c0-0.2-0.3-0.2-0.3,0c0,2,1.1,3.6,2.8,4.5
				C-102.1,434.9-102,434.6-102.2,434.6L-102.2,434.6z"/>
		</g>
	</g>
	<g id="XMLID_22173_">
		<g>
			<path class="st0" d="M-99.2,435.5c-0.4-0.1-0.8-0.1-1.2-0.2c-0.2,0-0.2,0.2-0.1,0.2c0.4,0.1,0.8,0.2,1.2,0.2
				C-99.1,435.7-99,435.5-99.2,435.5L-99.2,435.5z"/>
		</g>
	</g>
	<g id="XMLID_22166_">
		<g>
			<path class="st0" d="M-95.5,436.6c-0.6-0.4-1.2-0.6-1.8-0.8c-0.2,0-0.2,0.2-0.1,0.2c0.6,0.2,1.2,0.4,1.7,0.7
				C-95.4,436.9-95.3,436.7-95.5,436.6L-95.5,436.6z"/>
		</g>
	</g>
	<g id="XMLID_22159_">
		<g>
			<path class="st0" d="M-90.3,447.3c0-3.3-1.4-6.3-3.4-8.9c-0.1-0.1-0.3,0-0.2,0.1c1.9,2.6,3.4,5.5,3.3,8.8
				C-90.6,447.4-90.3,447.4-90.3,447.3L-90.3,447.3z"/>
		</g>
	</g>
	<g id="XMLID_22152_">
		<g>
			<path class="st0" d="M-104.5,447.1c-0.2-2.8-0.2-6.7-1.7-9.1c0,0-0.1-0.1-0.1-0.1c-1,0.3-1.5,2.1-1.3,3c0.1,0.9,0.9,1.7,1.1,2.5
				c0.2,0.8,0.9,2.9-0.1,1.3c-0.6-1-0.7-2.1-1.5-3c-0.1-0.1-0.2,0-0.2,0.1c0,1,0.2,3.3-0.1,4.2c-0.3,0.9-0.4-2.2-0.4-2.7
				c0-2.4,1.6-4.1,1.9-6.3c0.1-0.9-0.6-2.2-0.9-2.9c-0.6-1.5-0.8-3.5-1.6-4.9c-0.1-0.1-0.2-0.1-0.2,0c0,0,0,0.1,0,0.1
				c0,0.1,0,0.1,0.1,0.1c0,0,0,0,0,0c0.1,0.1,0.3-0.1,0.1-0.2c0.2,0.1,1.4,4.7,1.6,5.4c0.7,2.3,0,3-0.7,5c-0.9,2.5-0.8,5.2,0,7.7
				c0,0.1,0.2,0.1,0.2,0c0-0.9-0.1-2,0.1-2.8c0.3-1.3,0.1-2,1.2-0.2c0.5,0.8,0.7,2,1.2,2.8c0.1,0.1,0.2,0.1,0.2-0.1
				c-0.1-1.3-2.2-6.9-1.3-7.9c0.2-0.9,0.5-1,0.7-0.1c0.4,0.5,0.6,1.2,0.6,1.8c0.5,2,0.7,4.2,0.8,6.2
				C-104.8,447.3-104.5,447.3-104.5,447.1L-104.5,447.1z"/>
		</g>
	</g>
	<g id="XMLID_22145_">
		<g>
			<path class="st0" d="M-113.8,447.2c-0.5-1.4-1.1-3-1.1-4.5c0-1.4,0.7-2.8,0.9-4.3c0-0.1-0.1-0.2-0.2-0.1
				c-1.2,1.1-1.8,2.4-2.1,4.1c-0.1,0.7,0.2,5.6-0.6,2.6c-0.1-0.9-0.2-1.8-0.1-2.7c-0.1-2.5,1.1-4.3,3.6-5.5c0.9-1,1.4-1.8,1.8-3.2
				c0.5-2-0.7-2.6-0.7-4.4c0-0.2-0.3-0.2-0.3,0c0,1.8,1.3,3.3,0.4,5.2c-0.9,2.1-2.9,2.3-4,4c-1.2,2-2.1,7.5-0.1,9
				c0.1,0.1,0.2,0,0.2-0.1c-0.1-1.9-0.3-4,0.3-5.9c0-1.2,0.5-1.8,1.5-2c-0.2,0.5-0.3,1-0.5,1.5c-0.5,2.3,0,4.2,0.8,6.3
				C-114,447.4-113.8,447.3-113.8,447.2L-113.8,447.2z"/>
		</g>
	</g>
	<g id="XMLID_22138_">
		<g>
			<path class="st0" d="M-128.2,447.4c0.2-0.7,0.3-1.3,0.3-2c0-0.4-0.7-3.7,0.7-1.5c0.3,0.4,0.1,1.6,0.2,2.1
				c0.1,0.7,0.3,1.1,0.6,1.7c0.1,0.1,0.2,0.1,0.2-0.1c0.2-1.7,0.1-3.4-0.4-5.1c-0.4-1.3-1.1-2.2-0.3-3.7c0.6-1.2,1.5-1.8,2.1-0.3
				c0.7,1.7-0.2,2.7-0.4,4.2c-0.2,1.5,0.1,3,0.4,4.4c0,0.1,0.1,0.1,0.1,0.1c0.2,0,0.3,0,0.5,0c0.1,0,0.1-0.1,0.1-0.1
				c-0.1-0.8-0.1-1.6,0-2.4c0.1-0.8-0.1-3,0.9-1.7c0.8,1,0.1,3,0.6,4.2c0,0.1,0.1,0.1,0.1,0.1c0.1,0,0.2,0,0.2,0
				c0.1,0,0.1,0,0.1-0.1c0.5-1.9,0.2-4.4-0.4-6.2c-0.3-1.2-1.2-2.5-1.3-3.7c-0.1-1.1,0.6-1.5,1.7-1.3c1.4,0.2,1.1,1.1,0.9,2.2
				c-0.1,0.7-0.4,1.1-0.3,1.9c0.2,1.3,0.5,2.6,0.6,4c0,1-0.6,3.1,0.8,3.4c0.1,0,0.2,0,0.2-0.1c0-0.7-0.1-7.6-0.5-7.7
				c1.3,0.4,1.2,6.3,1.2,7.6c0,0.1,0.1,0.2,0.2,0.1c1.3-0.9,0.5-3.4,0.4-4.7c-0.1-1.2-0.3-2.4-0.5-3.6c-0.1-0.8-0.5-2.2,0.2-2.9
				c0.4-0.4,2.3-0.4,2.8-0.5c0.2,0,0.1-0.3-0.1-0.2c-1,0.2-3,0-3.5,1.1c-0.4,0.9,0.3,2.6,0.4,3.5c0.2,1.3,0.4,2.7,0.5,4
				c0,0.6,0.1,1.2,0.1,1.8c-0.4,0.7-0.5,0.6-0.4-0.5c-0.6-2-0.5-4.4-1-6.4c0-0.1-0.1-0.1-0.2-0.1c-1.1,0.2-0.3,3.1-0.3,3.7
				c0.1,0.9,0.3,2,0.2,2.9c0,0.4,0,1.7-0.3,0.6c-0.3-1,0-2.5-0.1-3.6c-0.1-0.8-0.4-1.5-0.4-2.3c-0.1-1.6,0,0.4,0.5-2.1
				c0.1-0.5,0.1-1.7-0.2-2c-0.7-0.6-2.6-0.1-3.3,0.1c-0.1,0-0.1,0.1-0.1,0.2c0.7,3,2.1,5.6,2.1,8.9c0,2-0.4,0.6-0.5-0.6
				c-0.1-1-0.4-1.9-0.8-2.8c-0.1-0.1-0.2-0.1-0.2,0c-0.4,1.3-0.4,2.6-0.6,3.9c-0.2,0.9-0.3,1.7-0.5-0.6c-0.1-0.9-0.1-1.9,0.1-2.8
				c0.2-0.7,0.9-1.4,0.9-2.1c0-1.1-1-2.3-1.6-3.1c0-0.1-0.1-0.1-0.2,0c-0.7,0.7-1.5,1.6-1.7,2.6c-0.3,1,0,1.3,0.3,2.3
				c0.3,0.9,1.2,4.8,0.5,4.9c-0.4,0-0.4-3-0.5-3.5c-0.1-0.5-0.3-1.6-1.1-1.2c-0.2,0.1-0.2,0.4-0.2,0.6c-0.5,1.5,0.5,3.2-0.1,4.8
				C-128.5,447.5-128.2,447.6-128.2,447.4L-128.2,447.4z"/>
		</g>
	</g>
	<g id="XMLID_22131_">
		<g>
			<path class="st0" d="M-116.5,435.6c2.8-0.9,3.1-3.6,3.4-6.2c0-0.2-0.2-0.2-0.3,0c-0.2,2.4-0.5,5-3.2,5.9
				C-116.7,435.4-116.6,435.7-116.5,435.6L-116.5,435.6z"/>
		</g>
	</g>
	<g id="XMLID_22124_">
		<g>
			<path class="st0" d="M-115.7,428.3c0.8,5.8-9.5,3.7-11.9,5.5c-1,0.8-1.8,2.8-2.2,3.9c-1,2.5-1.1,4.6-1,7.3c0,1.8,0.2,3.4-0.7,0.5
				c-0.8-2.5-0.2-5.8,0.3-8.3c0-0.1-0.1-0.2-0.2-0.1c-0.9,0.6-0.8,0.9-1.1,2c-0.3,1.1-0.4,12.4-0.9,4.4c0-0.1-0.1-0.1-0.1-0.1
				c-0.7,0.1-0.8,0-1.2,0.8c-0.1,0.3,0,0.8-0.2,0.9c0,0.4,0.1,0.9,0.1,1.3c-1-1.5-0.7-2.9,0.7-4.2c0.1,0,0.1,0,0.1-0.1
				c0.7-2.5,1.7-4.2,3.1-6.5c1-1.7,0.9,0,1.2-2.3c0-0.1,0-0.1-0.1-0.2c-3.3-0.5-7.2,0-8.1,3.7c0,0.1,0,0.2,0.1,0.2
				c-2.9-0.2,0.8,0.1,0.8,0c2.9,6.2,2.7,0.1,1.1,4.3c-0.5,1.3-0.5,0-1.1,1.7c-0.3,0.7,0,2.5-0.1,3.1c-0.1,2.7,1-6.1,0.9-5.6
				c0.1-0.8,0.8-1.4,0.1-2.2c-1-1.1-1.9-0.2-2.4,0.7c-1,1.8,0.3,4.6-0.2,6.4c-0.5,2-0.4-2-0.4-2.7c0-1.4-0.1-2.5-0.4-3.8
				c0-0.1-0.2-0.1-0.2,0c0,0.5-0.8,8-1,7.8c-0.1-0.1-0.3,0.1-0.2,0.2c0.3,0.2,0.5,0.5,0.8,0.7c0.1,0.1,0.2,0,0.2-0.1
				c0.1-1.4,0.1-2.9,0.2-4.3c0-0.6,0-4.4,0.4-1.3c0.3,2.1,0,3.9,0.7,6c0,0.1,0.3,0.1,0.2,0c0-1.6-0.8-5.1-0.1-6.5
				c0.1-0.1,1.6-0.5,1.5-0.6c0-0.1-0.9,1.7-1,1.9c-0.4,1.6-0.3,4.1,0.9,5.2c0.1,0.1,0.2,0,0.2-0.1c0-1.2,0-2.4-0.1-3.6
				c0.5-0.9,1.1-1.9,1.6-2.8c0,0,0.1,0,0.1,0c0.4-1.1,0.8-1.3,0.5-2.8c-0.6-3-2.3-1-0.7-3.7c0.1-0.1,3.6-5.6,3,0.9
				c-0.6,6.9-0.9,0.1-1.1,0.8c-0.4,1.8-0.8,3.8-1.6,5.4c-1,2.2-0.8,3.6-0.4,6.2c0,0.1,0.1,0.1,0.2,0.1c0.9-0.1-0.3-0.1,0.5-0.5
				c0.6-0.3-1.1-3,1-2.7c-0.3,0,0.8,3,0.7,3c0,0.1,0.2,0.1,0.2,0c0.1-2.5-0.2-5.1,0.2-7.5c0.6-3.7,0.3,0.5,0.3,1.7
				c0,1.2-0.3,5.1,1.1,5.8c0.1,0,0.1,0,0.2,0c0.7-1,0.2-2.5,0.2-3.7c0.1-5.4,1.3-10.2,7.1-11.1c3.4-0.5,8.7-0.2,8.1-4.9
				C-115.5,428.1-115.7,428.1-115.7,428.3L-115.7,428.3z"/>
		</g>
	</g>
	<g id="XMLID_22117_">
		<g>
			<path class="st0" d="M-111.7,436.2c1.5,1.3-1,5.5-1.2,7.3c-0.1,0.9-0.5,2.9,0.2,3.7c0,0,0.1,0,0.2,0c1.3-0.7,1.3-5.2,1.8-6.5
				c0.4-1.2,1.6-2.5,1.6-3.8c0-0.6-1.1-2.9-1.3-3c0.2,0,0.2-0.2,0.1-0.2c-0.1,0-0.1,0-0.2-0.1c-0.1,0-0.1,0-0.2,0.1
				c-0.1,0.4,0,0.6,0.1,1c0.1,0.3,0.4,0.5,0.5,0.8c0.5,1.3,0.3,2.2-0.1,3.3c-0.8,2.1-1.1,4.3-1.8,6.4c-0.7,1.8-0.7-0.3-0.6-1.2
				c0.1-2,0.8-3.1,1.4-4.8c0.4-1.1,0.7-2.3-0.3-3.2C-111.6,435.9-111.8,436.1-111.7,436.2L-111.7,436.2z"/>
		</g>
	</g>
	<g id="XMLID_22110_">
		<g>
			<path class="st0" d="M-105.7,436.1c2.7,1.4,2.7,6,2.8,8.6c0,0.9-0.4,2,0.3,2.6c0,0,0.1,0,0.1,0c0.9-0.5,0.6-1.7,0.6-2.6
				c0-0.9-0.1-3.4,0.6-1.3c0.4,1.1,0.2,2.7,0.2,3.9c0,0.1,0.2,0.2,0.2,0c0.4-1.5,0.8-3.1,0.5-4.7c-0.3-1.8-1.4-2.5-2.2-4.2
				c-0.9-1.9-1.6-4.4-4.2-4.3c-0.2,0-0.2,0.3,0,0.3c3-0.2,3.1,3.1,4.2,4.8c1.1,1.7,2.1,2.9,1.9,5.1c-0.2,3.5-0.3,1-0.4-0.6
				c-0.1-0.7,0-1.7-0.4-2.3c0,0-0.1-0.1-0.1-0.1c-0.6,0.1-0.4,0.5-0.6,0.9c-0.4,1.1,0.4,2.6,0,3.7c-0.7,1.8-0.5-1.4-0.5-1.8
				c-0.1-2.6-0.2-6.9-2.9-8.3C-105.8,435.8-105.9,436-105.7,436.1L-105.7,436.1z"/>
		</g>
	</g>
	<g id="XMLID_22103_">
		<g>
			<path class="st0" d="M-94,438.6c-0.6,0.9,0.1,2,0.5,2.8c0.5,1.1,1.4,2.5,1.3,3.7c0.3,0.7,0.1,1-0.7,0.6c-0.1-0.2-0.2-0.5-0.3-0.7
				c-0.4-0.6-0.6-1.6-0.9-2.3c0-0.1-0.1-0.1-0.1-0.1c-0.6-0.1-0.8,0.4-0.9,0.9c-0.1,0.4,0.3,3-0.1,2.8c-0.7-0.2-0.5-4.9,0.4-4.7
				c0.1,0,0.2,0,0.2-0.1c-0.1-1.6-0.8-3-0.7-4.6c0-0.2-0.2-0.2-0.3,0c-0.1,1.3,1,3.2,0.5,4.3c-0.1,0.2-0.7,0.4-0.8,0.8
				c-0.3,0.7,0,1.7,0.1,2.4c0.2,0.9,0.1,2.1,0.8,2.7c0,0,0.1,0,0.2,0c0.3-0.2,0.3-0.2,0.4-0.5c0.1-0.2-0.2-1.4-0.2-1.5
				c-0.3-0.5-0.2-0.9,0.2-1.2c0.3-0.7,0.6-0.6,0.6,0.3c0.4,0.5,0.6,3.1,1.7,2.8c0,0,0.1,0,0.1-0.1c0.2-1.1,0-2.3-0.3-3.3
				c-0.3-1.2-2.3-3.8-1.5-4.9C-93.7,438.5-93.9,438.4-94,438.6L-94,438.6z"/>
		</g>
	</g>
	<g id="XMLID_22096_">
		<g>
			<path class="st0" d="M-77.9,438.2c-1.4,0.7,0.2,3.2,0.4,4.2c0.2,0.7,0.8,2.3,0.5,2.8c0.2,0.4,0,0.6-0.6,0.4
				c-0.1-0.3-0.2-0.6-0.3-1c-0.2-0.7-0.2-1.7-0.8-2.1c0,0-0.1,0-0.2,0c-0.6,0.3-0.4,1.1-0.4,1.7c0,0.5,0.4,2.3-0.1,0.9
				c-0.3-0.8-1.3-3.6,0.3-3.8c0.1,0,0.1-0.1,0.1-0.2c-0.1-0.7-1.2-4.6-0.3-4.7c-0.2,0-0.2,0.3,0,0.3c0,0,0,0,0,0
				c0.1,0,0.1-0.1,0.1-0.1c0,0,0,0,0-0.1c0-0.1-0.1-0.2-0.2-0.1c-1.5,0.6,0.1,3.8-0.3,4.7c-0.3,0.8-0.7,0.8-0.6,1.8
				c0.1,1.1,0.4,2.7,1,3.7c0.1,0.1,0.2,0.1,0.2-0.1c0-0.6-0.5-2.6-0.2-3c0.6-0.9,0.9,1.5,1,1.9c0.2,0.5,0.2,1,0.8,1.1
				c0,0,0.1,0,0.1-0.1c1-1.6-2.1-7.4-0.8-8.1C-77.6,438.3-77.7,438.1-77.9,438.2L-77.9,438.2z"/>
		</g>
	</g>
	<g id="XMLID_22089_">
		<g>
			<path class="st0" d="M-83.1,437.5c0.8,2.1,1.6,4.9,1.5,7.3c-0.1,1,0.2,2-0.4,0.5c-0.4-0.9-0.3-2.2-0.6-3.1
				c-0.8-3.1-2.2-6.8-5.7-7.5c-0.1,0-0.2,0-0.2,0.1c0.1,1.2,0.1,2.5,0.9,3.5c0.7,1,2.5,1.3,3.1,2.7c0.5,1.2,1.3,3.8,0.8,5.1
				c-0.2,0.5-0.4-1-0.5-1.5c-0.2-0.9-0.4-1.8-0.8-2.6c-0.5-1.1-1.1-2-2.3-2.3c-0.1,0-0.2,0.1-0.2,0.2c0.2,1.1,0.5,2.3,0.7,3.4
				c0,0.2,0.8,3.2-0.3,2.1c-0.9-0.9-0.9-4.7-1.1-5.9c-0.3-1.4-0.1-4.6-1.7-5.3c0,0-0.1,0-0.1,0c-0.6,0.8-0.3,1.6-0.1,2.5
				c0.5,2.6,1.1,5.3,1.5,7.9c-0.1,1.1,0,1.4,0.2,0.7c-0.1,0.5-0.1,0.6-0.1,0.2c-0.3-1-0.4-2.1-0.7-3.2c-0.3-1.4-0.7-2.7-1.2-4.1
				c-0.3-1-2.4-4.8,0.2-5c0.1,0,0.2-0.1,0.1-0.2c0-0.1-0.1-0.2-0.1-0.3c0-0.1-0.1-0.1-0.2-0.1c-0.1,0-0.1,0-0.2,0
				c-0.1,0-0.1,0.1-0.1,0.2c0.1,0.1,0.2,0.2,0.3,0.3c0.1,0.1,0.2,0,0.2-0.1c-0.1-1.1,0.1-0.6-0.4-1.7c-0.1-0.2-0.3-0.1-0.2,0.1
				c0.6,1.4-1.2,2.4-1,4c0.3,1.6,1.2,3.2,1.6,4.8c0.6,2.1,1.1,4.2,1.4,6.3c0,0.1,0.2,0.1,0.2,0c0-0.6,0.1-1.2-0.1-1.8
				c0-0.1-0.1-0.1-0.2-0.1c-0.4,0.3,0,1.5,0,1.9c0,0.1,0.2,0.1,0.2,0c0-1.8-0.1-3.4-0.5-5.2c-0.2-1-0.4-2-0.7-3
				c-0.1-0.6-1.4-3.9-0.2-3.1c1.2,0.9,1.3,4.7,1.6,6.2c0.3,1.6,0.4,3.9,1.3,5.3c0,0,0.1,0.1,0.1,0.1c1.4-0.2,0.3-2.9,0.1-3.9
				c-0.1-0.8-1.2-2.9,0.5-2.6c0.6,0.1,1.1,2.2,1.2,2.7c0.4,1.2,0.6,2.5,1.1,3.6c0.1,0.1,0.2,0.1,0.2,0c0.2-3.3-0.2-6.6-2.8-8.7
				c-0.3-0.2-3-1.5-1.9-2.7c1.4-1.6,3.6,2.1,4,2.9c1.4,2.6,1.8,5.7,2.1,8.6c0,0.1,0.1,0.2,0.2,0.1c2-1.2-0.4-8.4-0.9-9.7
				C-82.9,437.3-83.1,437.3-83.1,437.5L-83.1,437.5z"/>
		</g>
	</g>
	<g id="XMLID_22082_">
		<g>
			<path class="st0" d="M-88.7,431.8c-0.3,1-0.1,1.3,0.9,1.6c1.5,0.4,2.8,0.8,3.6,2.2c0.1,0.1,0.3,0,0.2-0.1c-0.5-0.8-1.1-1.4-2-1.7
				c-0.9-0.4-2.9-0.4-2.5-1.9C-88.4,431.7-88.6,431.7-88.7,431.8L-88.7,431.8z"/>
		</g>
	</g>
	<g id="XMLID_22075_">
		<g>
			<path class="st0" d="M-102.3,434.9c0.6,1.8,1.2,3.5,2.3,5.1c1.4,2.1,1.3,4.9,1.4,7.4c0,0.1,0.2,0.2,0.2,0
				c0.2-0.9,0.1-3.4,0.6-4.1c0.4-0.6,0.3,0.9,0.4,1.4c0.1,0.9,0.2,1.8,0.3,2.6c0,0.1,0.2,0.2,0.2,0c0.6-2.1-0.1-4.3,0.3-6.4
				c0.4-1.9,0-3-0.6-4.9c0-0.2-0.3-0.1-0.2,0.1c0.5,1.7,0.8,2.7,0.5,4.5c-0.1,0.9-0.2,1.5-0.2,2.4c0,0.3,0.3,3.5,0.1,3.4
				c-0.3-0.1-0.5-4-0.5-4.4c0-0.1-0.2-0.2-0.2-0.1c-0.6,0.8-0.4,1.6-0.5,2.6c-0.4,4.5-0.3-0.6-0.4-1.6c-0.1-1.1-0.3-1.8-0.9-2.8
				c-1.1-1.7-1.9-3.4-2.5-5.4C-102.1,434.7-102.3,434.7-102.3,434.9L-102.3,434.9z"/>
		</g>
	</g>
	<g id="XMLID_22068_">
		<g>
			<path class="st0" d="M-100.5,435.5c0.3,1.2,0.8,2.4,1.3,3.5c0.2,0.4,0.7,1.6,1.3,1.4c0.6-0.2,0.4-1.3,0.3-1.7
				c-0.2-1.2-0.6-2.2-1.2-3.2c-0.1-0.1-0.3,0-0.2,0.1c0.4,0.6,0.7,1.2,0.9,1.9c0.1,0.3,0.8,2.9-0.4,2.1c-0.4-0.2-0.7-1.3-0.9-1.7
				c-0.4-0.8-0.6-1.7-0.9-2.5C-100.3,435.3-100.6,435.4-100.5,435.5L-100.5,435.5z"/>
		</g>
	</g>
	<g id="XMLID_22061_">
		<g>
			<path class="st0" d="M-99.7,431.4c0.9,1.1,1.8,2,3,2.7c0.5,0.3,1,0.5,1.6,0.7c0.4,0.2,0.8,0.3,1.2,0.6c0.1,0.1,0.4,0.3,0.6,0.4
				c1.5,0.2,0.5-3.7,0.4-4.5c0-0.2-0.3-0.1-0.2,0.1c0.1,0.6,0.7,2.7,0.3,3.4c-0.5,1-1.3,0.2-1.9-0.1c-2-0.8-3.5-1.8-4.8-3.5
				C-99.6,431.1-99.8,431.2-99.7,431.4L-99.7,431.4z"/>
		</g>
	</g>
	<g id="XMLID_22054_">
		<g>
			<path class="st0" d="M-97.5,431.4c-0.1-0.1-0.1-0.1-0.2-0.2c-0.1-0.1-0.3,0-0.2,0.2c0.4,0.5,0.8,1,1.3,1.4
				c0.4,0.3,1.1,0.9,1.7,0.9c0.9,0,0.1-2.1-0.1-2.5c-0.1-0.1-0.3,0-0.2,0.1c0.3,0.4,0.5,0.9,0.5,1.4c0,0.3,0,0.5-0.3,0.6
				c-0.2,0-0.5-0.2-0.7-0.3c-0.8-0.4-1.4-1.1-2-1.8c-0.1,0.1-0.1,0.1-0.2,0.2c0.1,0.1,0.1,0.1,0.2,0.2
				C-97.6,431.7-97.4,431.5-97.5,431.4L-97.5,431.4z"/>
		</g>
	</g>
	<g id="XMLID_22047_">
		<g>
			<path class="st0" d="M-84,435.8c1.3,0.1,1.7-1.5,1.3-2.4c-0.1-0.2-0.3-0.1-0.2,0.1c0.3,0.8,0.1,2.2-1,2.1
				C-84.1,435.5-84.1,435.8-84,435.8L-84,435.8z"/>
		</g>
	</g>
	<g id="XMLID_22040_">
		<g>
			<path class="st0" d="M-83,437.5c1.5,0.1,1.9-2,2-3.1c0-0.2-0.2-0.2-0.2-0.1c-0.2,1-0.4,3-1.8,2.9
				C-83.2,437.3-83.2,437.5-83,437.5L-83,437.5z"/>
		</g>
	</g>
	<g id="XMLID_22033_">
		<g>
			<path class="st0" d="M-56.3,367.4c0.9-5.6,0.9-11.1,0.4-16.7c0-0.2-0.2-0.2-0.3,0c-0.1,1-0.2,1.9-0.2,2.9c0,0.1,0.2,0.2,0.2,0.1
				c0.4-0.8,0.3-2.1,0.2-3c0-0.2-0.2-0.2-0.3,0c-1.4,14.4-3.4,30.8-14.5,41.3c-5.4,5.2-12.4,8.2-19.7,9.7c-4.7,1-10.8,0-14.6,3.4
				c-0.1,0.1,0.1,0.3,0.2,0.2c3.3-3,10.2-2.5,14.4-3.4c3.9-0.8,7.6-2,11.2-3.7C-72,394.8-66.4,389-63,382c3.6-7.2,5.1-15.3,6.2-23.2
				c0.3-2.3,0.5-4.5,0.7-6.8c0.1-1.8,0.2,2.3,0,0.9c-0.2-1.6,0.3,1.3,0.2,0.7c0.2,1.2,0.1,2.5,0.2,3.7c0,3.4-0.2,6.7-0.8,10.1
				C-56.5,367.5-56.3,367.6-56.3,367.4L-56.3,367.4z"/>
		</g>
	</g>
	<g id="XMLID_22026_">
		<g>
			<path class="st0" d="M-65.9,390.3c4.4-6,7.4-12.6,9-19.8c0-0.2-0.2-0.2-0.2-0.1c-1.6,7.2-4.6,13.8-9,19.8
				C-66.2,390.3-66,390.4-65.9,390.3L-65.9,390.3z"/>
		</g>
	</g>
	<g id="XMLID_22019_">
		<g>
			<path class="st0" d="M-100.6,405.3c6.3,0.2,12.7-0.4,18.7-2.7c6-2.3,10.1-6.3,14.7-10.6c0.1-0.1-0.1-0.3-0.2-0.2
				c-4.9,4.7-9.5,8.8-16,11.1c-5.5,1.9-11.4,2.3-17.2,2.2C-100.8,405.1-100.8,405.3-100.6,405.3L-100.6,405.3z"/>
		</g>
	</g>
	<g id="XMLID_22012_">
		<g>
			<path class="st0" d="M-157.2,366.6c-0.3-2.7-0.5-5.5-0.5-8.2c0-2.1,1-6.4,0.2-8.2c-0.4-0.8-0.1,1.8,0.1,1.5c0.2-0.5,0.1-2,0-2.5
				c0.4,3.3,0.4,9.1,1.1,13.4c0.8,5.1,1.7,10.3,3.3,15.2c2.4,7.2,7,12.4,14,15.4c9.8,4.2,23.6,4.4,28.2,15.9
				c0.1,0.1,0.3,0.1,0.2-0.1c-4.6-11.6-18.4-11.8-28.3-16.1c-8.4-3.7-12.8-10.4-14.9-19.1c-2-8.3-3.4-16.9-3.5-25.4
				c0-0.2-0.2-0.2-0.3,0c-0.1,1.1-0.1,2.3-0.1,3.4c0,0.2,0.2,0.2,0.3,0c0.1-1.1,0.1-2.3,0.1-3.4c0-0.2-0.2-0.2-0.3,0
				c-0.5,6.1-0.4,12.1,0.2,18.2C-157.4,366.7-157.2,366.7-157.2,366.6L-157.2,366.6z"/>
		</g>
	</g>
	<g id="XMLID_22005_">
		<g>
			<path class="st0" d="M-149.2,387.8c-4.3-5.1-6.5-11.3-7.5-17.8c0-0.2-0.3-0.1-0.2,0.1c1,6.5,3.3,12.8,7.6,17.9
				C-149.3,388.1-149.1,387.9-149.2,387.8L-149.2,387.8z"/>
		</g>
	</g>
	<g id="XMLID_21998_">
		<g>
			<path class="st0" d="M-115,403.1c-4-3.1-8.9-4.3-13.7-5.8c-5.9-1.9-13.6-3.2-18.3-7.3c-0.1-0.1-0.3,0.1-0.2,0.2
				c8.8,7.5,22.8,6.1,32.1,13.1C-115,403.4-114.9,403.1-115,403.1L-115,403.1z"/>
		</g>
	</g>
	<g id="XMLID_21991_">
		<g>
			<path class="st0" d="M-72.4,365.7c0.1-6-0.1-11.9-0.7-17.8c0-0.2-0.2-0.2-0.3,0c-0.1,1-0.4,2.2-0.2,3.2c0,0.1,0.2,0.1,0.2,0
				c0.2-1,0.2-2.1,0.2-3.2c0-0.2-0.2-0.2-0.3,0c-1,13.1,0.2,28.5-7.5,39.9c-6.6,9.9-19.7,8-26.9,16.8c-0.1,0.1,0.1,0.3,0.2,0.2
				c5.9-7.3,15.6-6.4,22.5-11.9c5.1-4,7.7-10.6,9.2-16.7c2-8.4,2.7-17.8,2.6-26.4c0-3.4-0.3-0.1-0.2,0.5c0.1,0.8,0-3.7,0.4,1.2
				c0.4,4.7,0.5,9.5,0.4,14.2C-72.7,365.8-72.4,365.8-72.4,365.7L-72.4,365.7z"/>
		</g>
	</g>
	<g id="XMLID_21984_">
		<g>
			<path class="st0" d="M-76.6,385.1c2.4-5.1,3.5-10.6,4-16.2c0-0.2-0.2-0.2-0.3,0c-0.6,5.6-1.6,11-4,16.1
				C-76.9,385.1-76.7,385.3-76.6,385.1L-76.6,385.1z"/>
		</g>
	</g>
	<g id="XMLID_21977_">
		<g>
			<path class="st0" d="M-105.9,407.1c2.8-7.7,10.5-6,16.5-8.8c4.9-2.2,8.6-6.3,11.4-10.8c0.1-0.1-0.1-0.3-0.2-0.1
				c-2.5,3.9-5.5,7.3-9.5,9.7c-3.3,1.9-6.6,2.3-10.2,3.1c-4,0.9-6.9,2.8-8.3,6.8C-106.2,407.2-106,407.3-105.9,407.1L-105.9,407.1z"
				/>
		</g>
	</g>
	<g id="XMLID_21970_">
		<g>
			<path class="st0" d="M-133.6,382c3,4.2,6.6,7.8,10.5,11.2c4.8,4.2,11,8,13.5,14.2c0.1,0.2,0.3,0.1,0.2-0.1
				c-1.9-4.8-5.6-7.6-9.5-10.9c-5.3-4.5-10.5-8.9-14.6-14.6C-133.5,381.7-133.7,381.9-133.6,382L-133.6,382z"/>
		</g>
	</g>
	<g id="XMLID_21963_">
		<g>
			<path class="st0" d="M-141,366.3c-0.3-5.5,0.1-10.9,0.8-16.4c0.3-2-0.3,2.5-0.2,1.8c-0.2,2.1-0.1,4.2,0,6.3
				c0.2,7.6,1.5,14.7,5.2,21.4c0.1,0.1,0.3,0,0.2-0.1c-5.3-9.5-5.8-20.5-4.9-31.2c0-0.2-0.2-0.2-0.3,0c-0.1,0.9-0.2,1.8-0.1,2.7
				c0,0.2,0.2,0.2,0.3,0c0.1-0.9,0.1-1.8,0.1-2.7c0-0.1-0.2-0.2-0.2,0c-0.9,6.1-1.4,12.1-1.1,18.2C-141.2,366.5-141,366.5-141,366.3
				L-141,366.3z"/>
		</g>
	</g>
	<g id="XMLID_21956_">
		<g>
			<path class="st0" d="M-137.1,381.3c-1.9-3.6-3-7.5-3.6-11.5c0-0.2-0.3-0.1-0.2,0.1c0.6,4,1.7,7.9,3.6,11.5
				C-137.2,381.5-137,381.4-137.1,381.3L-137.1,381.3z"/>
		</g>
	</g>
	<g id="XMLID_21949_">
		<g>
			<path class="st0" d="M-110,407.5c-5.4-11.1-18-14.2-25.4-23.6c-0.1-0.1-0.3,0.1-0.2,0.2c7.3,9.3,19.9,12.5,25.3,23.5
				C-110.2,407.8-109.9,407.6-110,407.5L-110,407.5z"/>
		</g>
	</g>
	<g id="XMLID_21942_">
		<g>
			<path class="st0" d="M-96.7,385.9c-3.8,6.1-9.1,11-11.9,17.7c-0.1,0.2,0.2,0.2,0.2,0.1c2.8-6.7,8.1-11.6,11.9-17.6
				C-96.4,385.9-96.6,385.8-96.7,385.9L-96.7,385.9z"/>
		</g>
	</g>
	<g id="XMLID_21935_">
		<g>
			<path class="st0" d="M-90.2,363.8c-0.6,6.8-2.2,13.2-5.1,19.4c-0.1,0.1,0.2,0.3,0.2,0.1c2.9-6.2,4.5-12.7,5.1-19.5
				C-89.9,363.7-90.2,363.7-90.2,363.8L-90.2,363.8z"/>
		</g>
	</g>
	<g id="XMLID_21928_">
		<g>
			<path class="st0" d="M-88,358.8c0-4.4-0.4-8.6-1.3-12.9c0-0.1-0.3-0.1-0.2,0c0,0.8,0,1.6,0.1,2.4c0,0.2,0.2,0.2,0.3,0
				c0-0.8,0-1.6-0.1-2.4c0-0.2-0.3-0.2-0.3,0c0.1,4.9,0.1,9.7-0.3,14.6c0,0.2,0.2,0.2,0.3,0c0.2-2.6,0.3-5.2,0.3-7.8
				c0-1.1,0-2.2,0-3.4c0-0.2-0.2-3.4-0.2-2.2c-0.1,0.3-0.1,0.5,0.2,0.4c0-0.9,0-1.1-0.1-0.5c0.5,0.6,0.6,3.8,0.7,4.2
				c0.3,2.5,0.4,5,0.4,7.6C-88.3,358.9-88,358.9-88,358.8L-88,358.8z"/>
		</g>
	</g>
	<g id="XMLID_21921_">
		<g>
			<path class="st0" d="M-93.6,383.7c3.1-6.5,4.7-13.5,5.4-20.7c0-0.2-0.2-0.2-0.3,0c-0.6,7.1-2.3,14-5.3,20.5
				C-93.9,383.7-93.7,383.8-93.6,383.7L-93.6,383.7z"/>
		</g>
	</g>
	<g id="XMLID_21914_">
		<g>
			<path class="st0" d="M-109.2,408.1c0.8-8.5,9.7-14.4,14-21.4c0.1-0.1-0.1-0.3-0.2-0.1c-4.4,7.1-13.2,12.8-14,21.5
				C-109.5,408.2-109.2,408.2-109.2,408.1L-109.2,408.1z"/>
		</g>
	</g>
	<g id="XMLID_21907_">
		<g>
			<path class="st0" d="M-112.7,384.6c3.6,8,5,16.4,4.6,25.1c0,0.2,0.2,0.2,0.3,0c0.5-8.7-1-17.2-4.6-25.2
				C-112.6,384.4-112.8,384.5-112.7,384.6L-112.7,384.6z"/>
		</g>
	</g>
	<g id="XMLID_21900_">
		<g>
			<path class="st0" d="M-117.2,366.6c0.4,5.1,1.5,9.9,3.1,14.7c0.1,0.2,0.3,0.1,0.2-0.1c-1.7-4.8-2.8-9.6-3.1-14.7
				C-117,366.5-117.2,366.5-117.2,366.6L-117.2,366.6z"/>
		</g>
	</g>
	<g id="XMLID_21893_">
		<g>
			<path class="st0" d="M-118.2,361.6c0.1-2.4,0.4-4.8,0.7-7.1c0.1-1.3,1.3-5.7,0.7-6.2c0.2,0.2-0.4,5.5-0.4,6.3
				c-0.1,2.8-0.2,5.6-0.2,8.5c0,0.2,0.3,0.2,0.3,0c-0.1-5.3,0.3-10.5,0.5-15.7c0-0.2-0.2-0.2-0.3,0c-0.1,0.6-0.1,1.3-0.1,1.9
				c0,0.2,0.2,0.2,0.3,0c0.1-0.6,0.1-1.3,0.1-1.9c0-0.2-0.2-0.2-0.3,0c-0.6,4.8-1.4,9.5-1.6,14.3
				C-118.4,361.8-118.2,361.8-118.2,361.6L-118.2,361.6z"/>
		</g>
	</g>
	<g id="XMLID_21886_">
		<g>
			<path class="st0" d="M-116.2,381.8c-1.6-5.5-2.3-11.1-2-16.8c0-0.2-0.2-0.2-0.3,0c-0.3,5.8,0.5,11.3,2.1,16.8
				C-116.4,382-116.2,381.9-116.2,381.8L-116.2,381.8z"/>
		</g>
	</g>
	<g id="XMLID_21879_">
		<g>
			<path class="st0" d="M-109.8,407.5c0.2-7.9-2.7-15.1-5.3-22.4c-0.1-0.2-0.3-0.1-0.2,0.1c2.6,7.3,5.5,14.4,5.3,22.4
				C-110.1,407.7-109.8,407.7-109.8,407.5L-109.8,407.5z"/>
		</g>
	</g>
	<g id="XMLID_21872_">
		<g>
			<path class="st0" d="M-157.5,366.4c-6.3-2.8-7-10.9-7.4-16.8c0-0.2-0.2-0.2-0.3,0c-0.4,6.5-0.3,18,7.8,20c0.2,0,0.2-0.2,0.1-0.2
				c-4.7-1.1-6.6-6-7.3-10.3c-0.4-2.2-0.5-4.5-0.4-6.7c0.1-3.6,0.2,1.1,0.3,1.7c0.7,4.9,2.2,10.5,7.1,12.6
				C-157.5,366.7-157.3,366.5-157.5,366.4L-157.5,366.4z"/>
		</g>
	</g>
	<g id="XMLID_21865_">
		<g>
			<path class="st0" d="M-149.5,388c-17.7-1.3-21.9-24.8-23.3-38.7c0-0.2-0.2-0.2-0.3,0c-0.3,10.7,1.1,22,7.2,31
				c4.2,6.2,11.3,11.9,19.1,9.7c0.2,0,0.1-0.3-0.1-0.2c-11.7,3.2-20.3-9.7-23.4-19.1c-1.7-5.1-2.5-10.5-2.6-15.9
				c0-0.9-0.7-6.4,0.1-1.9c0.3,1.5,0.4,3,0.6,4.5c2,12.2,7.8,29.8,22.5,30.9C-149.3,388.2-149.3,388-149.5,388L-149.5,388z"/>
		</g>
	</g>
	<g id="XMLID_21858_">
		<g>
			<path class="st0" d="M-56.2,367.7c5.7-1.4,8-7.6,8.8-12.8c0.1-0.8,0-2.3,0.4-3c0,0,0.2,4.4,0.1,5c-0.1,1-0.3,2-0.6,3
				c-1.5,4.7-5.1,8.5-9.9,9.9c-0.2,0-0.1,0.3,0.1,0.2c8.3-2.5,12.2-11.4,10.2-19.5c0-0.1-0.2-0.1-0.2,0c-0.3,6.2-1.7,15.1-8.9,16.8
				C-56.4,367.5-56.4,367.7-56.2,367.7L-56.2,367.7z"/>
		</g>
	</g>
	<g id="XMLID_21851_">
		<g>
			<path class="st0" d="M-66.1,390.3c16,4.3,24.8-15.2,27.3-27.6c0.5-2.2,0.8-4.5,1.1-6.7c0-0.2,0.1-5.2,0.5-2.5
				c0.8,5.2-0.8,11.3-2.4,16.2c-3.7,11.2-14,28.2-28.2,21.3c-0.1-0.1-0.3,0.1-0.1,0.2c8.5,4.2,16.7-0.8,21.8-7.8
				c6.7-9.2,10-21.2,9-32.5c0-0.2-0.2-0.2-0.3,0c-0.8,9.1-2.3,18.4-6.7,26.5c-4.2,7.9-12.3,15.3-22,12.7
				C-66.2,390.1-66.2,390.3-66.1,390.3L-66.1,390.3z"/>
		</g>
	</g>
	<g id="XMLID_21844_">
		<g>
			<path class="st0" d="M-89.8,359.7c-4.1-3.6-6-8.6-6.4-14c0-0.1-0.1-0.2-0.2-0.1c-2,1.2,0.1,6.8,0.6,8.4c1.2,3.7,2.5,7.5,5.6,10
				c0.1,0.1,0.3-0.1,0.2-0.2c-2.8-2.2-4.1-5.5-5.2-8.8c-0.4-1.2-0.8-2.4-1.1-3.5c-0.3-1.2-0.5-2.5-0.5-3.8c0.5-1,0.6-0.9,0.6,0.5
				c0.8,1.8,0.9,3.9,1.7,5.7c1.1,2.4,2.6,4.4,4.6,6C-89.9,359.9-89.7,359.8-89.8,359.7L-89.8,359.7z"/>
		</g>
	</g>
	<g id="XMLID_21837_">
		<g>
			<path class="st0" d="M-117.3,363.1c4-4.5,5.2-9.3,7-14.8c0.6-2,0,1.6,0,1.9c-0.2,2.1-0.6,4.1-1.2,6.1c-1.2,3.8-3.1,7.1-5.8,10
				c-0.1,0.1,0.1,0.3,0.2,0.2c5.2-5.4,7.3-12.7,7.1-20.1c0-0.1-0.2-0.2-0.2,0c-0.8,6.2-3.1,11.9-7.2,16.6
				C-117.6,363.1-117.4,363.3-117.3,363.1L-117.3,363.1z"/>
		</g>
	</g>
	<g id="XMLID_21830_">
		<g>
			<path class="st0" d="M-114,381.2c5.1-2.2,7.1-8.2,8.8-13.1c2.6-7.2,4-14.7,3-22.3c0-0.2-0.3-0.2-0.3,0c0.8,7.2,1,14.4-1.3,21.4
				c-2,6.1-5.6,11.6-9.2,16.9c-0.1,0.1,0.1,0.3,0.2,0.1c6.7-10,11.6-19.6,11-31.9c0-0.9-0.8-3.9-0.3-4.6c-0.3,0.4-0.1,2.5-0.1,3.4
				c0,3.8-0.6,7.6-1.6,11.2c-1.6,6.3-4,16-10.4,18.7C-114.3,381.1-114.1,381.3-114,381.2L-114,381.2z"/>
		</g>
	</g>
	<g id="XMLID_21823_">
		<g>
			<path class="st0" d="M-95,383.2c-2.7-5.9-2.8-12.8-3.5-19.2c-0.6-6-1-12-1.2-18c0-0.2-0.3-0.2-0.3,0c0,13.6,0.9,27.1,2.8,40.5
				c0,0.2,0.3,0.1,0.2-0.1c-1-7.3-1.8-14.7-2.2-22c-0.2-3.2-0.3-6.4-0.4-9.7c0-0.7-0.2-10.5-0.2-4.9c0,6.3,0.9,12.7,1.6,18.9
				c0.6,4.9,0.9,10,3,14.6C-95.2,383.4-94.9,383.3-95,383.2L-95,383.2z"/>
		</g>
	</g>
	<g id="XMLID_21816_">
		<g>
			<path class="st0" d="M-118.4,361.5c-3.4-3.5-3.9-9.7-4.7-14.4c0-0.1-0.2-0.1-0.2,0c-0.2,3.9,0.1,7.8,1.3,11.5
				c0.6,1.9,1.3,5.3,3.6,5.9c0.2,0,0.2-0.2,0.1-0.2c-2.8-0.6-3.8-6.6-4.2-9c-0.3-1.7-0.5-3.4-0.5-5.2c0-1.1-0.5-2.9,0.3-0.5
				c1.2,4.1,1.2,8.8,4.4,12C-118.5,361.8-118.3,361.6-118.4,361.5L-118.4,361.5z"/>
		</g>
	</g>
	<g id="XMLID_21809_">
		<g>
			<path class="st0" d="M-116.5,382c-5.8-2.4-7.6-10.2-8.9-15.6c-1.5-6-2.2-12.2-2.4-18.4c0-0.2-0.2-0.2-0.3,0
				c-1.6,12.1-0.7,31.8,12.5,37.4c0.1,0.1,0.3-0.2,0.1-0.2c-7.3-3.1-10.1-10.2-11.5-17.5c-0.8-4.1-1.3-8.3-1.3-12.6
				c0-0.3-0.1-5.3,0.3-5.4c-0.2,0.1,0.3,4.2,0.4,4.8c0.6,6.5,1.9,13.1,4.3,19.2c1.4,3.6,3.2,7,6.9,8.5
				C-116.4,382.3-116.3,382-116.5,382L-116.5,382z"/>
		</g>
	</g>
	<g id="XMLID_21802_">
		<g>
			<path class="st0" d="M-87.6,358.9c3.3-2.2,4-6.2,4.2-9.8c0.1-1-0.2-3.2,0.5-1c0.5,1.7,0.4,3.8,0.2,5.5c-0.5,3.8-2.3,7.2-5.5,9.3
				c-0.1,0.1,0,0.3,0.1,0.2c5.6-3.8,6.8-11.1,4.8-17.2c0-0.1-0.2-0.1-0.2,0c-0.1,4.4-0.1,10-4.2,12.7
				C-87.9,358.8-87.8,359-87.6,358.9L-87.6,358.9z"/>
		</g>
	</g>
	<g id="XMLID_21795_">
		<g>
			<path class="st0" d="M-93.5,383.8c5-0.7,7.9-6.4,10-10.4c2.9-5.7,4.8-12,5.6-18.4c0.1-0.7,0.1-5.9,0.4-6c0.8-0.4,0.6,4.4,0.6,5.3
				c-0.1,4.5-1.3,8.8-2.7,13c-2.8,8.1-7.3,17.1-16.2,19.7c-0.2,0-0.1,0.3,0.1,0.2c7.3-2.1,11.7-8.6,14.6-15.2
				c3.4-7.8,5.7-16.4,3.7-24.8c0-0.1-0.2-0.1-0.2,0c0,6.6-1,13-3.1,19.3c-1.9,5.6-6,16.2-12.7,17.1
				C-93.7,383.6-93.6,383.8-93.5,383.8L-93.5,383.8z"/>
		</g>
	</g>
	<g id="XMLID_21788_">
		<g>
			<path class="st0" d="M-72.2,365.4c1.6-2.1,2.3-4.5,2.9-7c0.1-0.6,1-8.3,1.1-8.4c0.9-0.3,0.1,9.2,0,9.7c-0.8,3.5-2.3,6.6-4.7,9.2
				c-0.1,0.1,0.1,0.3,0.2,0.2c5-5.6,6.3-13.4,4.6-20.5c0-0.1-0.2-0.1-0.2,0c-0.3,5.4-0.6,12.3-4,16.7
				C-72.5,365.4-72.3,365.6-72.2,365.4L-72.2,365.4z"/>
		</g>
	</g>
	<g id="XMLID_21781_">
		<g>
			<path class="st0" d="M-76.8,385.2c4.6-1.4,7-5.5,8.8-9.7c2.6-6.1,4.5-12.8,5.5-19.3c0-0.3,0.5-5.5,0.5-5.5
				c1.6-0.5,1.1,3.4,1.1,4.2c-0.2,4-1,8.1-1.9,11.9c-1.5,6.7-5.9,21.5-15.1,20.1c-0.2,0-0.2,0.2-0.1,0.2c6.9,1.1,11.3-7.6,13.3-12.9
				c2-5.2,2.9-10.7,3.6-16.2c0.4-3.2,1.1-6.6-0.9-9.3c-0.1-0.1-0.2-0.1-0.2,0.1c-0.1,6.5-1.4,12.7-3.3,18.9
				c-2,6.3-4.3,15.1-11.4,17.3C-77,385-76.9,385.3-76.8,385.2L-76.8,385.2z"/>
		</g>
	</g>
	<g id="XMLID_21774_">
		<g>
			<path class="st0" d="M-141.2,366.2c-4.8-2.9-4.2-13.3-4.4-18.1c0-0.2-0.2-0.2-0.3,0c-0.4,6-2,18.5,5,21.7
				c0.1,0.1,0.3-0.2,0.1-0.2c-4.7-2.1-5.2-9.4-5.2-13.9c0-1.5,0-3.1,0.1-4.6c0.2-4,0.2,0.8,0.2,1.6c0.4,4.2,0.2,11.3,4.3,13.7
				C-141.2,366.5-141.1,366.3-141.2,366.2L-141.2,366.2z"/>
		</g>
	</g>
	<g id="XMLID_21421_">
		<g>
			<path class="st0" d="M-137.2,381.3c-11.1-2.8-12.2-24.2-12.9-33.3c0-0.2-0.2-0.2-0.3,0c-1,9-0.1,18.9,3.4,27.3
				c1.9,4.6,5.7,10.2,11.4,8.5c0.2,0,0.1-0.3-0.1-0.2c-9.7,3-13-13.2-14-19.6c-0.6-3.8-0.9-7.7-0.8-11.6c0.2-5.9,0.6,0.8,0.8,2.7
				c1.1,8.1,2.5,23.9,12.4,26.4C-137.1,381.5-137.1,381.3-137.2,381.3L-137.2,381.3z"/>
		</g>
	</g>
	<g id="XMLID_20469_">
		<g>
			<path class="st0" d="M-134.8,379.6c2-3.5,1.3-7.9,1.2-11.7c-0.1-2.9-0.2-5.9-0.4-8.8c-0.1-1-0.1-9.4-0.2-9.4
				c0.8,0.6,0.5,3.4,0.6,4.3c0.4,2.9,0.9,5.7,1.4,8.5c1.1,6.6,1.6,13.4-1.3,19.6c-0.1,0.1,0.1,0.3,0.2,0.1c5.1-10.8-0.2-22.8-0.5-34
				c0-0.1-0.2-0.2-0.2,0c-1.4,4.2-0.4,8.6-0.2,12.9c0.3,5.3,1.8,13.6-0.9,18.5C-135.1,379.6-134.9,379.7-134.8,379.6L-134.8,379.6z"
				/>
		</g>
	</g>
</g>
</svg>
