<?xml version="1.0" encoding="utf-8"?>
<!-- Generator: Adobe Illustrator 19.0.0, SVG Export Plug-In . SVG Version: 6.00 Build 0)  -->
<svg version="1.1" id="Layer_1" xmlns="http://www.w3.org/2000/svg" xmlns:xlink="http://www.w3.org/1999/xlink" x="0px" y="0px"
	 viewBox="-205 297 200 200" style="enable-background:new -205 297 200 200;" xml:space="preserve">
<style type="text/css">
	.st0{fill:#E1F2F4;}
</style>
<g id="XMLID_16944_">
	<g id="XMLID_17113_">
		<g>
			<path class="st0" d="M-144.1,395.9c-0.7,9.6-1.5,19.3-0.5,28.9c0.4,3.9,1,7.8,2,11.6c0.5,1.8,1,4.9,2.9,5.9
				c5.1,2.6,6.3-5.1,6.5-8.2c0.2-4.7,0.4-9.5,0.7-14.2c0-0.9,0.8-7.3,0.3-7.6c1.3,0.7,1.6,7.5,1.6,8.1c0.3,4.1-0.2,8.3-0.3,12.4
				c-0.1,2.7-0.7,7,1.2,9.2c2.4,2.9,6.2,0.9,7.6-2c1.9-4,2-9.6,2.7-13.9c0.4-2.3,0.7-4.6,1.1-6.8c0.7-4.6,2.1-7,7.5-7.9
				c2-0.3,5.4-0.4,7.3,0.2c4.2,1.4,4,4.4,4.3,8.2c0.3,5.3-0.1,10.5-0.5,15.8c-0.3,3.6-2.5,11.8,3.5,11.5c5.9-0.2,7.3-7.5,7.6-12
				c0.4-4.7,0.6-9.4,0.9-14c0.1-2-0.1-6.1,1.3-7.6c3.1-3.3,3,4.8,3,6.5c0.1,7.6-3.1,16.8-0.6,24.2c1.2,3.5,4.7,5.9,7.5,2.4
				c1.8-2.2,2.4-5.9,3-8.6c1.1-4.4,1.8-8.9,2.2-13.4c0.9-8.6,1.5-17.7,0.7-26.3c-0.6-5.8-2.1-11.9-6.4-16.2c-5.5-5.5-13.7-6-21.1-6
				c-5.7,0-11.5,0.2-17.2,0.4c-2.4,0.1-6.7,1.1-8.6-0.4c-1.7-1.3-1.2-6-1.4-8.1c-0.4-5.5-0.4-11.3-1.3-16.8
				c-0.3-1.5-0.7-3.9-2.3-4.7c-1.3-0.7-2.4-0.1-3.2,1c-0.6,0.9-0.2,2.3-0.8,3.2c-1.5,2.2-2.2-3.2-2.6-4.6c0-0.2-0.2-0.3-0.3-0.3
				c-1.6-0.3-2.5,0.1-3.4,1.6c-0.2,0.4-0.1,0.9-0.3,1.3c-0.9,1.5-2.1,3.3-4.2,3.9c-1.5,0.4-3.7-0.4-5.2-0.4
				c-4.9-0.2-10.7,1.9-11,7.6c-0.2,5.8,5.2,5.9,9.4,6.9c4,1,5,3,5.6,7.2c0.3,2.5,0.2,5.1,0.2,7.6c0,5.4-0.2,10.8-0.6,16.1
				c0,0.6,0.9,0.6,1,0c0.7-8.3,1.8-17.9,0.2-26.1c-0.8-4.5-3.7-5.3-7.8-6c-1.1-0.2-2.3-0.3-3.3-0.7c-6.8-2.9-3.1-10,2.1-11.3
				c3.6-0.9,7.1,0.8,10.6,0c1.3-0.3,2.4-0.8,3.2-2c0.2-0.4,0.5-2.2,0.7-2.5c3.3-3.6,3.6,2.5,4.1,4.2c0.1,0.2,0.3,0.4,0.6,0.3
				c0.8-0.3,1-0.3,1.5-1c0.5-0.7,0.2-1.8,0.6-2.4c0-2,1.4-2,4.1,0.1c0.2,1.3,0.3,2.6,0.4,3.9c0.7,7.8,1.2,15.5,1.8,23.3
				c0,0.3,0.2,0.5,0.5,0.5c6.5-0.2,13-0.4,19.5-0.5c6.2-0.1,12.8-0.7,18.9,0.8c13.6,3.3,15.4,17,15.2,28.9c-0.1,5.9-0.4,11.8-1,17.6
				c-0.4,3.5-0.9,7-1.6,10.5c-0.5,2.2-0.9,7-2.4,8.6c-4.2,2.3-6.6,2.2-7.1-0.4c-0.3-1.1-0.5-2.2-0.4-3.4c-0.1-1.2,0-2.3,0-3.5
				c0.1-3.2,0.5-6.4,0.8-9.6c0.5-5.5,0.6-10.8-1.2-16.2c-0.1-0.3-0.4-0.5-0.7-0.3c-2.7,1.8-3.5,4.5-3.8,7.6
				c-0.8,6.9,0,14.2-1.5,20.9c-0.4,2-1,4-2.8,5.3c-1.7,2.4-3.8,2.1-6.5-1.2c0-0.6,0.1-1.2,0.1-1.9c-0.3-3.6,0.6-7.6,0.7-11.2
				c0.3-6.2,0.2-12.4-1-18.5c0-0.1-0.2-0.3-0.3-0.3c-4.6-0.7-12.3-2.3-16.6,0.4c-1.5,1-1.9,2.3-2.3,3.9c-0.9,4-1.4,8.3-2,12.3
				c-0.5,2.9-0.2,8.2-1.8,10.6c-5.4,1.9-7.8,1.1-7.4-2.4c0-0.8,0-1.7,0-2.5c0-1.9,0.2-3.9,0.3-5.8c0.3-6.2,0.2-12-2.5-17.7
				c-0.2-0.5-0.9-0.2-0.9,0.2c-0.3,6-0.6,12-0.8,18c-0.1,2,0.6,6.3-0.4,8c-2.2,0.8-4.4,1.5-6.6,2.3c-0.3-0.9-0.5-1.7-0.7-2.6
				c-0.4-1.4-0.7-2.9-1-4.4c-2.3-11.8-1.3-23.9-0.4-35.8C-143.1,395.3-144.1,395.3-144.1,395.9L-144.1,395.9z"/>
		</g>
	</g>
	<g id="XMLID_17105_">
		<g>
			<path class="st0" d="M-127.4,350.6c9.4,4.7,14.9,14.6,13.9,25.1c-0.1,0.6,0.9,0.6,1,0c1-10.8-4.7-21.1-14.4-25.9
				C-127.4,349.5-127.9,350.4-127.4,350.6L-127.4,350.6z"/>
		</g>
	</g>
	<g id="XMLID_17097_">
		<g>
			<path class="st0" d="M-76.9,383c9.3-2.1,17.7,6.7,21.7,14.2c1.6,3,2.8,6.2,3.4,9.6c0.4,1.8,1.1,5.3,0.6,7.2
				c-0.6,2.3-0.6,1.7-3.2,1.7c-2.4-0.1-8.4,0.2-9.8-1.1c-1.7-1.6-0.7-7.5-1-10c-0.8-6.3-3-12.2-7.8-16.5c-0.5-0.4-1.1,0.3-0.7,0.7
				c7.7,7,8,17.3,7.8,27c0,0.2,0.2,0.5,0.5,0.5c4.9-0.4,9.5-0.1,14.3,1.1c0.3,0.1,0.6-0.2,0.6-0.5c0.9-9-1.5-18-7.1-25.1
				c-4.6-5.9-11.8-11.4-19.6-9.7C-77.8,382.2-77.5,383.1-76.9,383L-76.9,383z"/>
		</g>
	</g>
	<g id="XMLID_17089_">
		<g>
			<path class="st0" d="M-126,354.4c1.7,0,3.4,0.3,5,1c0.6,0.2,1.1-0.6,0.5-0.8c-1.7-0.8-3.6-1.1-5.5-1.1
				C-126.6,353.5-126.6,354.4-126,354.4L-126,354.4z"/>
		</g>
	</g>
	<g id="XMLID_17081_">
		<g>
			<path class="st0" d="M-125.8,358.2c2.5-0.5,5-0.2,7.3,0.9c0.6,0.3,1-0.6,0.5-0.8c-2.6-1.2-5.3-1.6-8.1-1
				C-126.7,357.4-126.4,358.3-125.8,358.2L-125.8,358.2z"/>
		</g>
	</g>
	<g id="XMLID_17073_">
		<g>
			<path class="st0" d="M-125.9,362.5c4.1-1,8.1-0.4,11.7,1.6c0.5,0.3,1-0.5,0.5-0.8c-3.9-2.2-8.2-2.8-12.5-1.7
				C-126.8,361.8-126.5,362.7-125.9,362.5L-125.9,362.5z"/>
		</g>
	</g>
	<g id="XMLID_16987_">
		<g>
			<path class="st0" d="M-126.4,366.5c4.4-0.5,8.6,0,12.8,1.4c0.6,0.2,0.8-0.7,0.3-0.9c-4.3-1.4-8.6-1.9-13-1.4
				C-127,365.6-127,366.5-126.4,366.5L-126.4,366.5z"/>
		</g>
	</g>
	<g id="XMLID_16978_">
		<g>
			<path class="st0" d="M-124.9,370.8c4.2-0.9,8.2-0.5,12.2,1c0.6,0.2,0.8-0.7,0.3-0.9c-4.1-1.6-8.4-1.9-12.7-1
				C-125.8,370-125.6,370.9-124.9,370.8L-124.9,370.8z"/>
		</g>
	</g>
	<g id="XMLID_16970_">
		<g>
			<path class="st0" d="M-125.1,374.2c4.1-0.5,8.1,0,11.9,1.5c0.6,0.2,0.8-0.7,0.3-0.9c-3.9-1.5-8-2-12.2-1.6
				C-125.7,373.3-125.7,374.3-125.1,374.2L-125.1,374.2z"/>
		</g>
	</g>
	<g id="XMLID_16962_">
		<g>
			<path class="st0" d="M-74.7,386.4c5.8,0.8,8.4,7.8,10.1,12.6c1.8,4.9,2.8,10,3.1,15.3c0,0.6,1,0.6,1,0
				c-0.5-6.5-1.9-12.9-4.5-18.9c-1.9-4.3-4.3-9.2-9.4-9.9C-75,385.4-75.3,386.3-74.7,386.4L-74.7,386.4z"/>
		</g>
	</g>
	<g id="XMLID_16954_">
		<g>
			<path class="st0" d="M-75.4,385.2c2.7-1,6.9,2.5,8.7,4.2c2.3,2.2,4,4.9,5.2,7.8c2.4,5.7,3,11.9,3.5,18c0.1,0.6,1,0.6,1,0
				c-0.7-7.9-1.4-16.3-6.1-23c-2.1-3-8.2-9.6-12.5-7.9C-76.3,384.5-76,385.4-75.4,385.2L-75.4,385.2z"/>
		</g>
	</g>
	<g id="XMLID_16945_">
		<g>
			<path class="st0" d="M-75.4,383.8c15.7,1.9,19.1,19.4,20.9,32.2c0.1,0.6,1,0.4,0.9-0.3c-1.9-13.4-5.7-30.9-21.8-32.9
				C-76.1,382.7-76,383.7-75.4,383.8L-75.4,383.8z"/>
		</g>
	</g>
</g>
</svg>
