<?xml version="1.0" encoding="utf-8"?>
<!-- Generator: Adobe Illustrator 19.0.0, SVG Export Plug-In . SVG Version: 6.00 Build 0)  -->
<svg version="1.1" id="Layer_1" xmlns="http://www.w3.org/2000/svg" xmlns:xlink="http://www.w3.org/1999/xlink" x="0px" y="0px"
	 viewBox="-205 297 200 200" style="enable-background:new -205 297 200 200;" xml:space="preserve">
<style type="text/css">
	.st0{fill:#FFFFFF;}
	.st1{fill:none;stroke:#FFFFFF;stroke-miterlimit:10;}
</style>
<g>
	<g>
		<g>
			<path class="st0" d="M-97.7,348.3c-0.1-0.8-0.7,0.2-0.7,0.2c-0.2,0.4-0.4,0.8-0.4,0.8c0,0,0,0,0,0c0,0,0,0,0,0c0,0,0,0,0,0
				c0,0,0,0,0,0c0,0,0,0,0,0c0,0.2,0,0.3,0,0.5c0,0.5-0.1,1-0.3,1.4c-0.8,1.8-3.5,1.9-5.1,1.9c-1.8-0.1-3.7-0.7-4.4-2.5
				c-0.2-0.4-0.3-0.9-0.3-1.4c0-0.2,0-0.6,0-0.6c0.2-1.1-1.1-0.4-1.2,0.3c-0.2,1.1,0.1,2.1,0.5,3.1c0.9,1.8,4,2.4,4,2.4
				c0.5,0.1,0.9,0.4,0.9,0.7c0,0.3-0.3,1.3-0.6,1.7c0,0-2.1,2.1-1.3,4c0.3,0.8,1.4-0.4,1.1-1c-0.2-0.4-0.3-0.8-0.3-1.3
				c-0.1-1.1,1.3-1.1,2.1-1c1.5,0.1,2.3,1.5,2,2.9c-0.1,0.3,0.1,0.7,0.4,0.6c0.4-0.1,0.6-0.5,0.7-0.9c0.2-0.7,0.1-1.6-0.1-2.3
				c-0.4-1.3-2.2-1.7-2.2-1.7c-0.5-0.1-0.9-0.4-0.9-0.6c0-0.3,0.1-0.9,0.1-0.9c0,0,0,0,0.1,0C-100.1,354.5-97.1,352-97.7,348.3z"/>
		</g>
		<g>
			<path class="st0" d="M-102.6,367.9c-0.3-0.4-0.3-1,0-1.4c0,0,1.4-1.8,2.4-3c0.5-0.7,0.1-1.7-0.6-0.9c-1,1.3-2.4,3.1-2.4,3.1
				c-0.3,0.4-0.8,0.4-1.1,0c0,0-1.7-2-2.8-3.3c-0.5-0.6-1.4,0.8-1,1.2c1.1,1.3,2.8,3.3,2.8,3.3c0.3,0.4,0.3,1,0,1.4
				c0,0-1.6,2-2.6,3.3c-0.5,0.7-0.1,1.7,0.6,0.9c1.1-1.4,2.7-3.4,2.7-3.4c0.3-0.4,0.8-0.4,1.1,0c0,0,1.9,2.2,3.1,3.6
				c0.5,0.6,1.4-0.8,1-1.2C-100.7,370.1-102.6,367.9-102.6,367.9z"/>
		</g>
		<g>
			<path class="st0" d="M-75.2,369.2c1.4-0.3,3.3-0.7,3.3-0.7c0.5-0.1,0.7,0.2,0.6,0.6l-2.4,6.7c-0.2,0.5-0.4,1-0.5,1.2
				c-0.1,0.2-0.2,1-0.3,1.4c0,0,0,0,0.4,0c2.8,0,5.6,0,8.4,0c0.6,0,1.3-1.5,0.6-1.5c-2.4,0-6.4,0-6.4,0c-0.5,0-0.6-0.2-0.2-0.5
				c0,0,3-2.3,4.9-3.6c0.6-0.4,0.5-1.8-0.3-1.2c-1.8,1.3-4.7,3.5-4.7,3.5c-0.4,0.3-0.6,0.2-0.4-0.3c0,0,1.6-4.6,2.6-7.3
				c0.1-0.3,0.1-0.9-0.4-0.8c-1.6,0.4-3.2,0.7-4.9,1.1C-75.6,367.9-76.1,369.4-75.2,369.2z"/>
		</g>
		<g>
			<path class="st0" d="M-66.2,369.8c-0.3,0.1,0.1,0,0.2,0c0.2-0.1,0.4-0.1,0.6-0.2c0.6-0.1,1.2-0.1,1.8,0.1
				c0.9,0.4,1.3,1.4,1.4,2.2c0,0.3,0,0.7-0.1,1c0,0.1-0.3,0.4-0.1,0.2c-0.2,0.3-0.4,0.7-0.2,1.1c0.2,0.3,0.7,0,0.8-0.2
				c1.1-1.5,1.1-3.8-0.2-5.2c-1.1-1.1-2.9-0.9-4.2-0.4C-66.8,368.7-67.1,370.2-66.2,369.8z"/>
		</g>
		<g>
			<path class="st0" d="M-85.5,382.1c0.3-0.9,0.9-1.8,1.6-2.3c1.8-1.2,4.1,0.6,5,2.2c1,1.7-3.9,2.1-4.9,2.2c-0.6,0-1.3,1.5-0.6,1.5
				c2.3-0.1,8-1,6.7-4.5c-0.5-1.4-2.6-2.6-2.6-2.6c-0.4-0.2-0.4-0.6,0-0.8c0,0,1.4-0.7,2.5-1.2c0.3-0.2,0.8-0.9,0.5-1.3
				c-0.7-0.7-1.3-1.5-2-2.2c-0.5-0.6-1.5,0.8-1,1.2c0.4,0.5,0.7,0.8,0.7,0.8c0.3,0.4,0.2,0.8-0.2,1c0,0-2,0.9-3.3,1.6
				c-0.2,0.1-0.2,0.1-0.2,0.1c-0.1,0.2-0.3,0.4-0.3,0.4c0,0,0,0,0,0c-1.4,0.7-2.4,2.3-2.9,3.7C-86.9,383-85.8,382.9-85.5,382.1z"/>
		</g>
		<g>
			<path class="st0" d="M-60.8,404.8c-3-0.8-6.7-0.9-8.4,2.1c-0.7,1.2-0.8,2.9-0.5,4.2c0.2,0.8,1.4-0.3,1.2-0.9
				c-0.2-0.9-0.2-1.9,0.1-2.8c0.8-2.3,5.3-1.5,5.3-1.5c0.5,0.1,0.8,0.5,0.6,1c0,0-0.8,3-1.4,4.9c-0.3,1,1,0.5,1.2-0.2
				c0.5-1.8,1.2-4.4,1.2-4.4c0.1-0.5,0.6-0.7,1.1-0.5c0,0,4.1,1.6,4.2,4.2c0.1,1.2-0.6,3.1-1.7,3.6c-0.6,0.3-1,1.8-0.1,1.4
				c1.8-0.8,2.8-3.2,3-4.9C-54.5,407.4-57.9,405.6-60.8,404.8z"/>
		</g>
		<g>
			<path class="st0" d="M-72.9,405.7C-72.9,405.7-72.9,405.7-72.9,405.7C-72.9,405.7-72.9,405.6-72.9,405.7
				C-72.9,405.6-72.9,405.6-72.9,405.7c-0.1-0.1-0.1-0.1-0.1-0.1c0,0,0,0,0-0.1c-0.9-1.7-1.9-3.3-2.8-5c-0.4-0.6-1.4,0.6-1.1,1.2
				c0.6,1,1.3,2.3,1.3,2.3c0.2,0.4,0.1,0.7-0.4,0.5c0,0-2.3-0.7-3.8-1.2c-0.6-0.2-1.4,1.2-0.7,1.5c1.8,0.6,4.4,1.4,4.4,1.4
				c0.5,0.1,0.5,0.5,0.1,0.7c0,0-1.3,0.7-2.4,1.3c-0.5,0.3-0.9,1.8-0.1,1.4c1.6-0.9,4.1-2.2,4.1-2.2c0.4-0.2,0.9-0.5,1-0.6
				c0.1-0.1,0.5-0.6,0.6-0.8C-72.9,405.8-72.9,405.8-72.9,405.7z"/>
		</g>
		<g>
			<path class="st0" d="M-135.7,375.5c-0.6,0.2-1.1,1.7-0.3,1.5c2-0.6,5.2,0,5.2,0c0.5,0.1,0.6,0.4,0.3,0.8c0,0-2,2.3-0.3,3.8
				c1,0.9,2.2,1.6,3.2,2.4c0.5,0.4,1.4-1,0.8-1.4c-0.9-0.7-1.9-1.4-2.8-2.1c-0.3-0.2-0.5-0.4-0.7-0.7c-0.4-0.6,0.6-1.5,0.6-1.5
				c0.4-0.3,1-0.4,1.4-0.1c0,0,2.3,1.6,3.7,2.8c0.5,0.4,1.4-1,0.8-1.4c-1.3-1.1-3.3-2.5-3.3-2.5c-0.4-0.3-0.5-0.8-0.1-1.2
				c0,0,0.3-0.3,0.7-0.8c0-0.1,0-0.1,0-0.1c0-0.1,0.1-0.1,0.2-0.1c0,0,0,0,0.1,0c1.1,0.2,2.3,1.4,3.2,2c0.5,0.3,1,0.6,1.5,0.9
				c0.6,0.3,1.4-1.1,0.8-1.4c-0.7-0.3-1.4-0.8-2-1.2c-0.9-0.6-2.2-1.9-3.4-1.8c-0.6,0.1-1,0.5-1.2,1c0.3-0.8-0.1,0-0.3,0.2
				c-0.4,0.4-0.6,0.6-0.6,0.6c-0.3,0.4-0.7,0.6-0.9,0.5c0,0,0,0-0.1-0.1c0,0,0,0,0,0c0,0-0.1-0.4-0.1-0.9c0,0-0.1-2.3-0.2-3.9
				c0-1-1.2,0-1.2,0.7c0.1,1.2,0.1,2.8,0.1,2.8c0,0.5-0.4,0.9-0.8,0.9C-131.3,375.2-134.1,375.1-135.7,375.5z M-126.2,374.6
				C-126.2,374.6-126.2,374.5-126.2,374.6C-126.2,374.6-126.2,374.6-126.2,374.6z"/>
		</g>
		<g>
			<path class="st0" d="M-142.7,373.6c0.1,0.4,0.5,0.3,0.7,0.1c1.1-1,2.5-2.5,2.5-2.5c0.3-0.3,0.9-0.4,1.3-0.1c0,0,2,1.5,3.3,2.6
				c0.5,0.4,1.4-1,0.8-1.4c-1.2-1-2.9-2.3-2.9-2.3c-0.4-0.3-0.4-0.8-0.1-1.2c0,0,1.6-1.6,2.8-2.7c0.3-0.3,0.5-0.7,0.4-1.1
				c-0.1-0.4-0.5-0.3-0.7-0.1c-1.3,1.3-3.3,3.2-3.3,3.2c-0.3,0.3-0.9,0.4-1.3,0.1c0,0-1.8-1.4-3.1-2.4c-0.5-0.4-1.4,1-0.8,1.4
				c1.2,0.9,2.8,2.2,2.8,2.2c0.4,0.3,0.4,0.8,0.1,1.2c0,0-1.1,1.1-2,2C-142.5,372.8-142.8,373.2-142.7,373.6z"/>
		</g>
		<g>
			<path class="st0" d="M-91.7,430.5c0.3,0.6,1.3-0.7,1-1.2c-0.2-0.4-0.2-0.4-0.2-0.4c-0.2-0.4-0.1-1,0.4-1.2c0,0,0.8-0.4,1.6-0.8
				c0.5-0.3,0.8-1.9,0-1.4c-0.9,0.5-2.2,1.1-2.2,1.1c-0.4,0.2-0.9,0.1-1.1-0.1c0,0,0,0-0.1-0.3c-0.3-0.6-0.7-1.4-0.7-1.4
				c-0.2-0.4-0.3-1.2-0.2-1.6c0,0,0.8-4,1.2-6.4c0.2-1.1-1-0.4-1.2,0.3c-0.4,2.1-1,5.3-1,5.3c-0.1,0.5-0.5,0.6-0.8,0.3
				c0,0-2.6-2.1-4.2-3.5c-0.5-0.4-1.4,1-0.8,1.4c1.8,1.5,3.6,3,5.5,4.5c0,0,0,0,0,0c0,0,0.1,0.2,0.2,0.3c0,0,0,0,0.1,0.1
				c0.4,0.6,0.7,1.3,1.1,1.9c0,0,0,0,0,0c0,0-0.3,0.2-0.8,0.3c0,0-0.9,0.3-1.8,0.5c-0.6,0.1-1.1,1.7-0.3,1.5
				c1.2-0.2,2.7-0.8,2.7-0.8c0.5-0.2,1,0.1,1.3,0.5C-92.3,429.5-92.1,429.9-91.7,430.5z M-94.7,425.2
				C-94.6,425.2-94.6,425.2-94.7,425.2L-94.7,425.2z"/>
		</g>
		<g>
			<path class="st0" d="M-80.6,437.7c-0.5,0.4-1.1,0.7-1.6,1c-1.1,0.6-2.5,1.7-3.8,1.5c-0.7-0.1-0.9-1.1-1.2-1.6
				c-0.3-0.6-0.5-1-0.5-1c-0.2-0.4-0.1-1,0.4-1.2c0,0,1.7-0.9,2.9-1.6c0.5-0.3,0.8-1.8,0-1.4c-1.4,0.8-3.4,1.9-3.4,1.9
				c-0.4,0.2-0.9,0.1-1.2-0.4c0,0-1-1.9-1.7-3.3c-0.3-0.6-1.3,0.7-1,1.2c1.2,2.5,2.5,4.9,3.7,7.4c0,0.1,0.1,0.3,0.1,0.1
				c0,0.2,0.1,0.4,0.2,0.5c0.3,0.6,1,0.8,1.7,0.8c1.4-0.1,2.6-1,3.8-1.7c0.7-0.4,1.3-0.8,1.9-1.2C-79.7,438.4-79.8,437.1-80.6,437.7
				z"/>
		</g>
		<g>
			<path class="st0" d="M-112.1,417.9c-1.9,1-5,2.6-5,2.6c-0.4,0.2-0.8,0.4-0.8,0.3c0,0,0,0,0,0c-0.2-0.7-0.3-1.4-0.5-2.2
				c-0.3-1.2-0.5-2.4-0.8-3.6c-0.2-0.8-1.3,0.4-1.1,1c0.4,2,1.1,5.1,1.1,5.1c0.1,0.5,0,1.2-0.2,1.6l-0.7,1.3
				c-0.2,0.4-0.5,0.7-0.7,0.6c0,0,0,0-0.1-0.1c-0.8-0.6-1.6-1.1-2.4-1.8c-0.5-0.4-1.4,1-0.8,1.4c0.8,0.7,1.7,1.3,2.6,1.9
				c0.1,0.1,0.1,0.1,0.1,0.1c0.1,0.1,0,0.4-0.2,0.8c0,0,0,0-0.2,0.4c-0.5,0.9,0.4,1.4,0.9,0.5c0.2-0.3,0.2-0.3,0.2-0.3
				c0.2-0.4,0.7-0.5,1.2-0.3c0,0,1.1,0.5,2,0.4c0.6-0.1,1.1-1.7,0.3-1.5c-0.7,0.1-1.5-0.3-1.5-0.3c-0.4-0.2-0.6-0.8-0.4-1.2l0.8-1.5
				c0.2-0.4,0.7-1,1.2-1.2c0,0,3.2-1.7,5.2-2.7C-111.5,418.9-111.2,417.4-112.1,417.9z"/>
		</g>
		<g>
			<path class="st0" d="M-124.1,435.8c-0.3-0.4-0.3-1.1,0-1.5c0,0,1.2-2.2,2-3.7c0.5-0.9-0.4-1.4-0.9-0.5c-0.6,1.3-1.3,2.5-2,3.8
				c-0.1,0.3-0.1,0.3-0.1,0.3c-0.2,0.3-0.7,0.6-1.2,0.6c0,0-3.4,0.4-5.6,0.7c-0.6,0.1-1.1,1.6-0.3,1.5c2-0.2,5-0.6,5-0.6
				c0.5-0.1,0.8,0,0.7,0.2c0,0,0,0-0.1,0.2c-0.3,0.4-0.8,1.4-1.1,1.5c-0.6,0.3-0.9,1.8,0,1.4c0.6-0.3,1-1,1.4-1.5
				c0.3-0.5,0.5-0.8,0.5-0.8c0.3-0.4,0.7-0.4,0.9,0c0,0,1.5,2.4,2.4,4c0.4,0.6,1.4-0.7,1-1.2C-122.6,438.4-124.1,435.8-124.1,435.8z
				"/>
		</g>
		<g>
			<path class="st0" d="M-130.8,399c-1.3,2-3.5,5.4-3.5,5.4c-0.3,0.4-0.8,0.5-1.2,0.2c0,0-4.2-3-6.6-4.7c-0.5-0.4-1.4,1-0.8,1.4
				c2.6,1.8,5.1,3.7,7.7,5.5c0.3,0.2,0.7-0.3,0.8-0.5c1.5-2.3,2.9-4.6,4.4-6.8C-129.4,398.7-130.3,398.2-130.8,399z"/>
		</g>
		<g>
			<path class="st0" d="M-143.7,404.6c-1.6,0.4-3.3,0.6-4.9,0.7c-0.2,0-0.2,0-0.2,0c-0.2,0-0.3,0-0.3,0c0,0,0,0,0,0
				c-0.3-0.2-0.5-0.5-0.8-0.7c-1.5-1.3-2.9-2.6-4.4-3.9c-0.5-0.4-1.4,1-0.8,1.4c1.5,1.4,3.1,2.8,4.6,4.1c0.1,0.1,0.1,0.1,0.1,0.1
				c0.1,0.1,0,0.5-0.3,0.9c0,0-1.3,2.1-2.2,3.5c-0.5,0.9,0.3,1.3,0.9,0.5c0.9-1.5,2.3-3.6,2.3-3.6c0.3-0.4,0.6-0.7,0.7-0.8
				c0,0,0,0,0.1,0c1.7-0.1,3.4-0.3,5-0.7C-143.4,405.9-142.9,404.4-143.7,404.6z"/>
		</g>
	</g>
	<path class="st1" d="M-50.3,399.5c-0.7-0.6-3.9-1.3-7.2-1.6l-17.6-1.7c-3.2-0.3-6-1.3-6.1-2.2c-0.1-0.9,1.9-4.2,4.9-5.5l16.9-7.6
		c3-1.3,5.8-3.1,6.2-3.8s-1.7-4.9-3.6-7.5l-5.4-7.4c-1.9-2.6-4.1-5.2-4.9-5.6c-0.8-0.4-4.6,2.1-6.9,4.4l-12.3,12.5
		c-2.3,2.3-4.9,3.7-5.9,3.1c-0.9-0.6-3-4.5-2.4-7.7l3.7-17.9c0.7-3.2,0.9-6.3,0.5-7.1c-0.4-0.8-5-1.3-8.2-1.3h-9.1
		c-3.3,0-6.6,0.1-7.4,0.5c-0.8,0.4-1,4.8-0.5,8.1l2.8,16.9c0.5,3.2,0.3,6.1-0.6,6.4c-0.9,0.3-4.7-0.7-6.8-3.2l-11.4-13.9
		c-2.1-2.5-4.5-4.8-5.3-5c-0.9-0.2-4.3,2.9-6.3,5.5l-5.8,7.1c-2.1,2.5-3.9,5.3-4.2,6.2c-0.2,0.9,3.2,3.9,6,5.5l14.8,8.4
		c2.8,1.6,4.9,3.7,4.6,4.5c-0.3,0.9-3.5,3.3-6.8,3.4l-17.7,0.1c-3.3,0-6.5,0.5-7.2,1c-0.7,0.5-0.4,5.2,0.3,8.4l1.9,8.9
		c0.7,3.2,1.7,6.4,2.2,7.1c0.5,0.7,5,0,8.1-1.2l15.8-6.2c3-1.2,5.9-1.5,6.5-0.7c0.5,0.8,0.4,4.8-1.6,7.3l-11.2,13.9
		c-2,2.5-3.7,5.4-3.8,6.3c0,0.9,3.8,3.6,6.7,5.1l8.2,4.2c2.9,1.5,6,2.7,6.9,2.8c0.9,0,3.2-3.9,4.2-7l5.2-16.1c1-3.1,2.8-6,4.1-5
		c0,0,0,0,1.2,0c0.5,0,0.5,0,0.5,0c0.5-1,1.5,2.2,2.2,5.4l3.9,17.5c0.7,3.2,1.8,6.2,2.5,6.8c0.7,0.6,5.1-0.7,8.1-2l8.4-3.7
		c3-1.3,5.9-3,6.5-3.6c0.6-0.7-1.1-4.9-2.9-7.7l-9.7-14.7c-1.8-2.7-2.8-5.5-2.1-6.1c0.6-0.6,4.5-1.2,7.4,0.2l16.5,8.3
		c2.9,1.5,6,2.6,6.9,2.4c0.9-0.1,2.7-4.4,3.6-7.6l2.4-8.8C-50.2,404.7-49.6,400.1-50.3,399.5z"/>
</g>
</svg>
