<?xml version="1.0" encoding="utf-8"?>
<!-- Generator: Adobe Illustrator 19.0.0, SVG Export Plug-In . SVG Version: 6.00 Build 0)  -->
<svg version="1.1" id="Layer_1" xmlns="http://www.w3.org/2000/svg" xmlns:xlink="http://www.w3.org/1999/xlink" x="0px" y="0px"
	 viewBox="-205 297 200 200" style="enable-background:new -205 297 200 200;" xml:space="preserve">
<style type="text/css">
	.st0{fill:#E1F2F4;}
</style>
<g id="XMLID_157_">
	<g>
		<path class="st0" d="M-43.3,361.1c1.6,1.1,3.2,2.3,4.7,3.6c1,0.8,3.2,2.4,3.6,3.6c0.4,1.3-1.3,1.6-3.1,1.4
			c-1.8-0.2-3.8-0.8-4.3-0.9c-0.4-0.1-0.2-0.6,0.2-0.6c1.2,0.2,2.9,0.9,4.2,0.8c0.8-0.1,2.2,0.1,1.7-1.1c-0.2-0.6-1.2-1.2-1.6-1.7
			c-1.8-1.7-3.8-3.3-5.8-4.7C-43.9,361.4-43.6,360.9-43.3,361.1z"/>
	</g>
	<g>
		<path class="st0" d="M-41.7,368.6c-1.2,0.5-2.4,0.9-3.6,1.4c-0.6,0.2-1.3,0.4-1.8,0.1c-0.8-0.4-0.4-1.7,0.5-1.5
			c0.4,0.1,0.3,0.6-0.1,0.6c-0.4,0.2-0.3,0.3,0.2,0.5l0.5,0c0.5-0.1,1-0.3,1.5-0.5c0.9-0.3,1.7-0.6,2.6-1
			C-41.6,368-41.3,368.5-41.7,368.6z"/>
	</g>
	<g>
		<path class="st0" d="M-42.8,369.3c-0.7,0.9-1.3,1.9-1.9,2.9c-0.2,0.4-0.8,0.2-0.6-0.2c0.6-1,1.3-2.1,2-3.1
			C-43.1,368.7-42.6,369-42.8,369.3z"/>
	</g>
	<g>
		<path class="st0" d="M-44.7,372.6l-0.2-0.2l0.3-0.5c1.7,0.8,4.2,2.1,5.2,3.5c0.8,1.2-0.9,1.9-2.3,2.5c-2.3,1-4.3,1-6.5,0.5
			c-1.7-0.4-3.2-0.9-4.9-1c-0.9-0.1-1.9,0-2.8,0c-0.5,0-0.9,0.1-1.4,0.1c-0.5,0-1,0.1-1.6,0.1c-0.6,0-0.6-0.5,0-0.6
			c0.3,0,0.6,0,0.9-0.1c0.9-0.1,1.7-0.1,2.5-0.1c0.8,0,1.6,0,2.4,0.1c1.5,0.1,3.1,0.4,4.9,0.8c1,0.2,2,0.5,3.1,0.4
			c0.9,0,4.1-0.7,4.7-1.5c0.6-0.9-0.3-1.8-1.5-2.5c-1.2-0.8-2.5-1.4-3.1-1.7c-0.3-0.2,0-0.6,0.3-0.5c0.5,0.2,0.5,0.2,0.6,0.6
			C-43.9,372.8-44.6,372.9-44.7,372.6z"/>
	</g>
	<g>
		<path class="st0" d="M-44.2,357.3c-0.2,0.6-0.4,1.3-0.7,1.9c-0.1,0.2-0.3,0.2-0.4,0.2c-1.2-0.7-2.4-1.2-3.7-1.7
			c-0.6-0.2-1.2-0.5-1.9-0.6c-0.6-0.2-1.3-0.4-1.9-0.5c-0.3-0.1-0.3-0.6,0.1-0.6c2.6,0.7,5.1,1.6,7.7,3l-0.4,0.2
			c0.2-0.6,0.5-1.2,0.7-1.8C-44.6,356.8-44.1,357-44.2,357.3z"/>
	</g>
	<g>
		<path class="st0" d="M-45.3,360.9c-0.5-0.5-0.9-1.1-1.6-1.4c-1.1-0.6-1.8,0.1-2.8,0.6c-0.4,0.2-0.7,0.4-1.1,0.4
			c-0.4,0-1.2-0.4-1.6-0.2c-0.3,0.2-0.7-0.3-0.3-0.5c0.5-0.3,0.7-0.1,1.3,0c1.5,0.2,1.9-0.8,3.2-1.1c1.4-0.4,2.5,0.7,3.4,1.7
			C-44.6,360.8-45.1,361.2-45.3,360.9z"/>
	</g>
	<g>
		<path class="st0" d="M-49.6,361.9c-0.9-0.3-1.8-0.3-2.7-0.1l-0.1-0.5l1.1,0.1c0.4,0,0.3,0.6-0.1,0.6l-1.1-0.1
			c-0.3,0-0.3-0.5-0.1-0.5c1-0.3,2.1-0.3,3.1,0C-49,361.5-49.2,362-49.6,361.9z"/>
	</g>
	<g>
		<path class="st0" d="M-50.9,362.1c-0.2,0-0.3,0.1-0.3,0.2c-0.1,0.4-0.6,0.3-0.6-0.1c0.1-0.4,0.4-0.7,0.8-0.7
			c0.2,0,0.3,0.1,0.3,0.2C-50.7,361.9-50.8,362.1-50.9,362.1z"/>
	</g>
	<g>
		<path class="st0" d="M-45.9,360.3c0.5,0.7-0.2,1.6-1,1.5c-1.1-0.1-1.4-1.3-1.2-2.2c0-0.2,0.2-0.3,0.4-0.2c0.3,0.1,0.4,0.3,0.5,0.5
			c0.1,0.4-0.5,0.5-0.6,0.1L-48,360l0.4-0.2c-0.1,0.5-0.1,1.1,0.4,1.4c0.4,0.2,1.1-0.1,0.7-0.6C-46.6,360.3-46.1,360-45.9,360.3z"/>
	</g>
	<g>
		<path class="st0" d="M-45.3,362.2c-0.3,0.8-1.3,1.3-2.2,1c-0.4-0.1-0.2-0.7,0.2-0.5c0.5,0.2,1.2-0.1,1.4-0.6
			C-45.8,361.6-45.2,361.8-45.3,362.2z"/>
	</g>
	<g>
		<path class="st0" d="M-45.6,365.1l-0.1,0.7l-0.3,0.4c-0.2,0.3-0.5,0.6-0.7,0.9c-0.4,0.5-0.9,1.1-1.3,1.6c-0.9,1.2-1.7,2.5-2.5,3.7
			l-0.4-0.4l0.3-0.2c0.2-0.3,0.8-0.1,0.6,0.2c-0.2,0.4-0.2,0.4-0.6,0.6c-0.3,0.1-0.6-0.1-0.4-0.4c0.9-1.5,1.9-3,3-4.4
			c0.6-0.7,1.1-1.4,1.7-2.1c0.3-0.3,0.5-0.7,0.9-0.8c0.1,0,0.3,0,0.3,0.1l0.1,0.1c0.1,0.1,0,0.3-0.1,0.3l-0.1,0.1
			C-45.5,365.7-45.9,365.3-45.6,365.1z"/>
	</g>
	<g>
		<path class="st0" d="M-45,371.9L-45,371.9l-0.2,0.2c0.2,0.2,0.2,0.3-0.2,0.4l-0.6,0.3l-0.8,0.4c-0.7,0.3-1.3,0.7-2,1
			c-0.4,0.2-0.6-0.3-0.3-0.5c0.6-0.3,1.2-0.6,1.8-0.9c0.6-0.3,1.2-0.7,1.8-1c0.5-0.2,1-0.1,0.8,0.4c0,0.1-0.2,0.2-0.3,0.2l-0.1,0
			C-45.3,372.6-45.4,372-45,371.9z"/>
	</g>
	<g>
		<path class="st0" d="M-49.4,372.4c-0.7,0.7-1.2,1.5-1.6,2.3c-0.2,0.4-0.8,0.1-0.6-0.2c0.4-0.9,1-1.7,1.7-2.5
			C-49.6,371.8-49.1,372.1-49.4,372.4z"/>
	</g>
	<g>
		<path class="st0" d="M-43.7,360.8c-0.3-1.8-0.4-5.8-2.2-6.7c-1.2-0.7-2.8-0.9-4.1-1.4c-3.1-1-6.1-1.9-9.2-2.7
			c-3.9-0.7-8.1-1.5-12.3-2c-4.5-0.6-9.2-1.1-13.7,0.3c-0.4,0.1-0.8-0.4-0.3-0.5c4.5-1.4,9.2-0.9,13.7-0.4c2.5,0.3,5,0.7,7.4,1.1
			c1.2,0.2,2.4,0.4,3.6,0.6c0.6,0.1,1.2,0.2,1.7,0.3c0.4,0.1,0.9,0.2,1.3,0.4c3.5,0.9,6.9,2,10.5,3.2c0.5,0.2,1,0.3,1.5,0.5
			c0.5,0.2,1,0.5,1.3,0.9c0.5,0.7,0.6,1.9,0.7,2.7l0.7,3.6C-43.1,361-43.7,361.1-43.7,360.8z"/>
	</g>
	<g>
		<path class="st0" d="M-45.7,353.6c-1.4-1.1-2.4-2.8-2.6-4.7c-0.2-1.2,0.2-2.4,1.3-2.3c0.9,0.1,2.2,1,2,2.3
			c-0.2,1.1-1.3,1.2-1.8,0.3c-0.2-0.3,0.2-0.6,0.4-0.3c0.9-0.8,0.8-1.3-0.2-1.7c-1,0.1-1.4,0.4-1.3,1.2c0,0.5,0.2,1,0.3,1.5
			c0.4,1.2,1.2,2.3,2.1,3.1C-45.2,353.3-45.4,353.8-45.7,353.6z"/>
	</g>
	<g>
		<path class="st0" d="M-49.3,352.9c-1.3-1.2-3.1-3.6-2.4-5.6c0.5-1.2,1.9-1.4,2.4,0c0.1,0.2,0,0.4-0.1,0.4
			c-0.2,0.1-0.3,0.2-0.5,0.3c-0.2,0.2-0.6-0.2-0.3-0.4c0.3-0.3,0.3-0.3,0.7-0.4l-0.1,0.4c-0.9-0.7-1.4-0.6-1.5,0.2
			c-0.2,0.3-0.2,0.7-0.1,1.1c0.1,0.6,0.5,1.2,0.8,1.7c0.5,0.7,1,1.4,1.6,2C-48.7,352.8-49,353.2-49.3,352.9z"/>
	</g>
	<g>
		<path class="st0" d="M-44.9,357.5c-2.4,0-4.8-0.1-7.1-0.6c-0.3-0.1-0.3-0.6,0.1-0.6c1.2,0.3,2.3,0.4,3.5,0.5
			c1.2,0.1,2.4,0.1,3.5,0.1C-44.5,356.9-44.5,357.5-44.9,357.5z"/>
	</g>
	<g>
		<path class="st0" d="M-45.1,357.8c-0.2,0.5-0.4,0.6-0.9,0.7c-0.3,0.1-0.5-0.4-0.2-0.5l0.6-0.3l0.1,0.5c-2.1-0.5-4.1-0.7-6.3-0.8
			c-0.4,0-0.3-0.6,0.1-0.6c1.1,0,2.1,0,3.2,0.2c1.1,0.1,2.1,0.3,3.2,0.6c0.2,0.1,0.3,0.4,0.1,0.5l-0.6,0.3L-46,358l0.4-0.4
			C-45.5,357.3-44.9,357.4-45.1,357.8z"/>
	</g>
	<g>
		<path class="st0" d="M-61.5,363.4c-0.7-0.4-1.6-0.7-2.4-0.9c-0.9-0.2-1.8-0.3-2.7-0.2c-2,0.3-1,2.1,0.1,2.8c0.7,0.5,1.4,1,2.2,1.4
			c0.7,0.4,3,1.4,1.2,1.9l-0.1-0.6c1-0.1,2-0.1,3,0c0.5,0,0.5,0.6,0,0.6c-1-0.1-2,0-3,0c-0.5,0-0.5-0.4-0.1-0.6
			c0.1,0-1.9-1.2-2.1-1.3c-0.8-0.5-1.7-1-2.4-1.6c-0.7-0.6-1.3-1.5-0.7-2.3c0.7-1,2.2-1.1,3.6-0.9c1.5,0.2,3,0.8,3.9,1.2
			C-60.7,363.1-61.1,363.6-61.5,363.4z"/>
	</g>
	<g>
		<path class="st0" d="M-58.8,377.7c-3.5-0.1-6.8-0.7-9.9-1.7c-2.2-0.8-6.3-2.3-7.3-4c-0.1-0.2,0-0.4,0.3-0.4l0.1,0
			c0.2,0,0.4,0.1,0.4,0.2l0.1,0.1c0.2,0.3-0.5,0.6-0.7,0.2l1.2,0.3l1.2,0.8c0.6,0.3,1.1,0.7,1.7,0.9c1.1,0.5,2.2,1,3.4,1.4
			c2.9,1,6.1,1.5,9.4,1.6C-58.2,377.1-58.2,377.7-58.8,377.7z"/>
	</g>
	<g>
		<path class="st0" d="M-63.2,368.2c-2-1.2-3.8-0.2-5.7,1.1c-1.8,1.2-3.7,2.7-5.8,2.6c-1.5-0.1-2.3-0.7-3.6,0.1
			c-0.5,0.3-0.9,0.6-1.5,0.8c-1,0.3-2,0.2-3.1-0.1c-2.4-0.7-3.5-1.4-6.1-1.1c-1.9,0.1-2.5,0-4.2-0.6c-2.4-0.8-3.6,0.3-5.8,0.5
			c-0.4,0-1.5-0.3-2.4-0.6c-0.9-0.3-1.8-0.5-1.9-0.4c-0.3,0.3-0.8,0-0.6-0.3c0.6-0.7,1.2-0.7,2.1-0.4c1.5,0.4,2.4,1.3,4.2,0.8
			c0.6-0.2,1.2-0.4,1.9-0.5c2.2-0.2,3.8,1.3,6.1,1.1c2.2-0.2,3.2-0.3,5.3,0.5c1.4,0.5,2.7,1.1,4.2,0.5c0.8-0.3,1.3-0.8,2.1-1.1
			c0.4-0.1,0.8-0.2,1.3-0.2c0.5,0,0.9,0.3,1.3,0.4c1.4,0.1,3-0.3,4-0.9c1.2-0.7,2.4-1.8,3.9-2.5c1.4-0.7,2.9-0.9,4.7,0.1
			C-62.3,368-62.8,368.4-63.2,368.2z"/>
	</g>
	<g>
		<path class="st0" d="M-66.9,365.8c-1.6-0.4-3.3-0.5-4.8,0c-1,0.4-1.5,1.2-2.5,1.5c-0.4,0.1-0.6,0.1-1.1,0.1
			c-0.9-0.1-1.9-0.8-2.9-0.8c-0.8,0-2,0.6-2.7,0.8c-0.8,0.3-1.7,0.6-2.6,0.6c-1.6,0-2.8-0.8-4.5-0.5c-2,0.4-3.1,1.6-5.2,0.7
			c-0.4-0.2,0-0.6,0.4-0.5c2,0.8,3.4-0.6,5.2-1c0.9-0.2,1.4,0,2.3,0.1c1.4,0.2,2.7,0.3,4.1,0c0.6-0.2,1.1-0.5,1.8-0.6
			c0.8-0.2,1.7-0.4,2.6-0.2c1,0.2,1.6,0.9,2.7,0.5c0.8-0.3,1.3-1,2.2-1.3c1.7-0.6,3.6-0.6,5.4-0.1
			C-66.3,365.4-66.5,365.9-66.9,365.8z"/>
	</g>
	<g>
		<path class="st0" d="M-88.6,364c-1.8-1.4-2.9-0.6-4.5,0c-0.7,0.3-0.7,0.4-1.4,0.3c-0.3,0-0.5-0.2-0.8-0.2
			c-1.5-0.2-2.6-0.5-3.9,0.1c-0.7,0.3-1.4,0.7-2.3,0.5c-0.6-0.1-1-0.4-1.6-0.6c-1.4-0.6-2.6-0.7-4.1-0.5c-0.4,0.1-0.5-0.5,0-0.6
			c2.1-0.3,3.1,0.3,5,0.8c2.5,0.7,3.2-1.2,5.3-1c1.7,0.2,1.1,1.1,3.9,0.3c0.5-0.2,0.9-0.4,1.5-0.5c1.3-0.2,2.4,0.2,3.4,0.9
			C-87.7,363.9-88.2,364.3-88.6,364z"/>
	</g>
	<g>
		<path class="st0" d="M-70.6,361.7c-0.6-0.8-3.2,0.1-4.2-0.1c-1.5-0.3-2.4-1.4-4.2-1.4c-1.2,0-2.3,0.1-3.5-0.1
			c-1.9-0.3-3.4-1.5-5.3-1.2c-1.6,0.2-3,1-4.5,0.2c-1.1-0.5-0.7-1-2.4-1.1c-0.9-0.1-0.6,0.3-1.4,0.1c-0.6-0.1-0.7-0.2-1-0.6
			c-0.2-0.3,0.4-0.6,0.7-0.3c0.2,0.2,2.5,0.1,3.2,0.4c0.4,0.2,0.6,0.6,1,0.8c1,0.5,2,0.5,3,0.2c1-0.2,1.9-0.5,3-0.3
			c1.4,0.2,2.5,1,4,1.2c1.5,0.2,3-0.1,4.4,0.1c0.9,0.1,1.4,0.4,2.2,0.7c3.1,1,1.7,0.4,3.7,0.3c0.2,0,0.5,0,0.7,0
			c0.6,0.1,1,0.3,1.3,0.7C-69.7,361.8-70.3,362.1-70.6,361.7z"/>
	</g>
	<g>
		<path class="st0" d="M-58.3,361.7c0-0.5-0.1-0.8-0.5-1c-0.4-0.2-0.9-0.4-1.5-0.5c-1.2-0.2-2.5-0.4-3.1-0.8c-1.3-1-0.1-1.4-3.2-1.6
			c-0.6,0-1.1,0.2-1.7,0.1c-0.8-0.1-1.4-0.4-2.2-0.7c-1.5-0.6-2.6-0.7-4.2-0.7c-2.4,0-4.8,0-7.2-0.2c-2.4-0.2-4.8-0.5-7.2-0.9
			c-2.7-0.4-5.5-1.2-8.3-1.1c-1.4,0-2.5,0.2-3.7-0.4c-0.5-0.3-1.6-1.2-2.7-1.8c-1.1-0.6-2.3-0.8-2.8,0.4c-0.1,0.4-0.9,0.2-0.8-0.1
			c0.3-0.8,1.2-1.2,2.4-1.1c1.9,0.1,2.5,1.2,3.9,1.9c1.9,1,3.4,0.5,5.3,0.6c1.3,0.1,2.6,0.4,3.9,0.7c3.6,0.7,7.3,1.2,10.9,1.4
			c2.8,0.2,5.9-0.2,8.6,0.2c1.3,0.2,2.2,1,3.5,1.2c1.2,0.2,2.5-0.3,3.6-0.1c0.6,0.1,0.9,0.3,1.3,0.6c0.6,0.5,0.6,0.8,1.3,1.2
			c0.7,0.4,1.2,0.4,2,0.6c0.4,0.1,0.8,0.1,1.1,0.2c0.4,0.1,0.7,0.2,0.9,0.4c0.4,0.3,0.7,0.8,0.7,1.5
			C-57.8,362.1-58.4,362.1-58.3,361.7z"/>
	</g>
	<g>
		<path class="st0" d="M-57,356.2c-0.4-0.2-0.8-0.4-1.2-0.6l-0.6-0.3c-0.2-0.1-0.5-0.2-0.8-0.3c-1.1-0.5-2.1-0.9-3.2-1.3
			c-0.9-0.4-1.7-0.3-2.5-0.1c-0.8,0.1-1.5,0.3-2.4,0c-0.6-0.2-1-0.6-1.6-0.8c-1.5-0.5-2.8,0-4.3,0.1c-2.1,0.1-3.5-1.1-5.7-0.8
			c-1.3,0.2-2.6,0.6-3.9,0.1c-0.5-0.2-0.8-0.6-1.3-0.9c-0.9-0.6-0.3-0.5-1.9-0.7c-1.7-0.3-0.9,0-2.1,0c-1.8,0.1-3.1-0.1-4.8-0.6
			c-2.7-0.9-5.1-1.5-8.2-1.3c-0.5,0-0.5-0.5,0-0.6c1.2-0.1,2.3,0,3.4,0.1c1.1,0.1,2.2,0.4,3.3,0.7c1.2,0.4,2.4,0.9,3.7,1.1
			c1.6,0.2,2.8-0.3,4.3-0.4c1.3,0,1.7,0.6,2.6,1.2c1.3,0.9,2.7,1.1,4.3,0.8c0.8-0.1,1.6-0.3,2.5-0.2c0.7,0.1,1.4,0.4,2.1,0.6
			c1.4,0.5,2.5,0,3.9-0.1c1.6-0.2,2.1,0.5,3.4,0.9c0.9,0.2,1.7,0.1,2.5,0.1c0.8-0.1,1.6-0.2,2.4,0.1c1.2,0.4,2.3,0.8,3.4,1.4
			l0.4,0.2c0.1,0.1,0.2,0.1,0.3,0.2l0.7,0.4c0.4,0.2,0.9,0.5,1.3,0.7C-56.4,355.9-56.6,356.4-57,356.2z"/>
	</g>
	<g>
		<path class="st0" d="M-84.9,348.1c-3.5-1.2-7.4-1.1-11.3-1.6c-4.2-0.6-8.7-2.5-13.3-1.7c-3.2,0.6-5.8,0.3-9.1-0.2
			c-5.3-0.7-10.9,0.1-16.2,2.9c-0.5,0.3-1-0.1-0.4-0.4c4.1-2.2,8.6-3.4,13-3.4c2.4,0,4.5,0.4,6.8,0.7c2.7,0.3,4.7-0.2,7.3-0.5
			c1.9-0.2,3.3,0.1,5,0.5c2.1,0.5,4.3,1,6.4,1.3c4.2,0.6,8.4,0.4,12.2,1.7C-84.3,347.8-84.5,348.3-84.9,348.1z"/>
	</g>
	<g>
		<path class="st0" d="M-106.2,350c-1.5-0.9-3.4,0.2-5.1,0.1c-2.1,0-2.8-1.2-5.5-0.6c-0.8,0.1-1.5,0.4-2.2,0.7
			c-0.7,0.2-1.4,0.4-2.2,0.6c-1,0.2-1.9,0.2-2.9,0.3c-1,0.1-1.9,0.1-2.9,0.3c-1.9,0.3-3.7,1.2-5.5,2c-0.9,0.4-1.8,0.9-2.7,1.3
			c-0.9,0.4-1.8,0.7-2.8,0.9c-1.6,0.4-2.2,0.2-3.8,1c-0.4,0.2-0.8,0.5-1.2,0.7c-0.4,0.3-0.8,0.5-1.2,0.8c-0.4,0.3-1,0.4-1.6,0.6
			c-0.6,0.2-1.3,0.4-1.9,0.6c-1.3,0.4-2.4,1.1-2.7,2.2c-0.1,0.5-0.9,0.6-0.8,0.1c0.2-0.9,0.8-1.6,1.8-2.3c0.8-0.5,1.7-0.7,2.5-0.9
			c0.9-0.3,1.5-0.5,2.1-0.8c0.6-0.3,1.1-0.8,1.9-1.3c0.9-0.6,1.8-0.9,2.6-1c0.9-0.2,1.7-0.3,2.7-0.6c3-0.8,5.5-2.7,8.5-3.6
			c1.3-0.4,2.6-0.5,3.9-0.6c1.3-0.1,2.5-0.1,3.8-0.4c2.1-0.3,4-1.5,6.1-1.6c0.9,0,1.4,0.3,2.2,0.5c0.9,0.2,1.6,0.3,2.3,0.3
			c0.7,0,1.4-0.1,2.2-0.2c1.2-0.1,2-0.1,2.9,0.4C-105.3,349.8-105.8,350.2-106.2,350z"/>
	</g>
	<g>
		<path class="st0" d="M-101,358.2c-0.8-1.1-1.9-1.6-3.5-1.6c-1.1,0-1.8,0.5-2.8,0.7c-0.9,0.2-1.4,0.3-2.2-0.1
			c-0.5-0.2-0.9-0.7-1.5-0.9c-1.3-0.4-2.8,0-4,0.3c-1.5,0.4-2.8,0.7-4.4,0.8c-0.9,0.1-1.8,0.1-2.8,0.2c-0.9,0.1-1.8,0.2-2.8,0.3
			c-1.1,0.2-2.1,0.5-3.2,0.9c-1,0.4-2.1,0.8-3.1,1.2c-3.5,1.5-6.8,3.2-10.4,4.5c-0.5,0.2-0.6-0.4-0.1-0.6c4.8-1.8,9-4.3,13.9-5.8
			c1.8-0.6,3.7-1,5.6-1.1c1.4-0.1,2.6-0.2,3.9-0.4c0.6-0.1,1.2-0.2,1.8-0.3c0.6-0.1,1.3-0.2,1.9-0.4c1.1-0.3,2.2-0.5,3.3-0.3
			c0.5,0.1,0.8,0.3,1.2,0.5c0.7,0.7,1.7,0.8,3,0.4c0.2-0.1,0.5-0.2,0.8-0.3c1.2-0.3,2.3-0.3,3.3,0c1,0.2,1.9,0.8,2.5,1.7
			C-100.1,358.3-100.7,358.6-101,358.2z"/>
	</g>
	<g>
		<path class="st0" d="M-105.6,366.9c-2.7-1.2-4.6-0.6-7.1,0.1c-1.3,0.4-2.4,0-3.7,0c-2.1-0.1-3.8,1.1-5.5,1.7
			c-0.9,0.3-1.8,0.6-2.7,0.9c-0.9,0.3-1.8,0.6-2.7,0.8c-1,0.4-2.1,0.7-3.2,0.9c-0.6,0.1-1.1,0.1-1.7,0c-1.2-0.2-0.7-0.5-2,0.5
			c-0.5,0.2-0.9,0.5-1,0.9c-0.1,0.4-0.3,0.8-0.6,1.1c-0.2,0.2-0.3,0.3-0.5,0.5c-0.6,0.3-1.1,0.2-1.6-0.2c-0.3-0.2,0.2-0.7,0.4-0.5
			c0.6,0.6,1.1-0.1,1.5-0.9c0.5-0.8,0.9-1.9,1.3-2.1c0.6-0.4,1.1-0.3,1.7-0.2c2,0.4,3.2,0.2,5.2-0.4c1.5-0.5,3.1-1,4.6-1.5
			c1.6-0.5,3-1.3,4.6-1.8c0.7-0.2,1.4-0.2,2.1-0.2c0.7,0,1.4,0.1,2.1,0.1c1.8,0,3.4-1,5.2-1c0.7,0,1.3,0.1,2,0.2
			c0.6,0.2,1.3,0.4,1.9,0.6C-104.9,366.6-105.2,367.1-105.6,366.9z"/>
	</g>
	<g>
		<path class="st0" d="M-108.2,369.7c-0.8,0.2-1.6,0.3-2.4,0.4c-0.8,0.1-1.6,0.2-2.4,0.2c-1.6,0.1-3.1-0.2-4.6-0.1
			c-2.1,0.1-2.3,1-3.8,1.8c-0.2,0.1-0.4,0.3-0.6,0.4c-1,0.4-1.9,0-2.9,0c-0.6-0.1-1.1,0-1.5,0.1c-0.4,0.1-0.8,0.3-1.1,0.6
			c-0.7,0.5-1.2,1.2-1.9,1.8c-1,1-2.4,1.5-3.6,2.2c-3,1.7-5.6,4.2-7.6,7c-0.2,0.3-0.6-0.1-0.4-0.4c2-2.8,4.6-5.2,7.4-6.9
			c1.9-1.1,3.3-1.8,4.8-3.5c0.6-0.7,1.3-1.3,2.2-1.6c0.9-0.2,1.8,0,2.7,0.1c1.2,0.2,1.9-0.2,2.5-0.7c0.7-0.5,1.3-1.1,2.3-1.4
			c0.6-0.2,1.3-0.2,1.9-0.2c0.7,0,1.3,0.1,2,0.1c2.3,0.1,4.5-0.2,6.9-0.6C-108,369.1-107.8,369.6-108.2,369.7z"/>
	</g>
	<g>
		<path class="st0" d="M-129.7,366.1c-0.8-0.4-1.5-0.4-2.1-0.3c-0.6,0.2-1.2,0.5-1.7,0.9c-0.6,0.4-1.1,0.8-1.7,1.2
			c-0.3,0.2-0.6,0.3-0.9,0.5c-0.3,0.1-0.7,0.2-1,0.3c-1.6,0.2-2.7,1.1-3.7,2.2c-0.5,0.5-1,1.1-1.5,1.6c-0.5,0.5-1.1,1.1-1.7,1.5
			c-0.7,0.4-1.3,0.8-1.9,1.2c-0.5,0.4-1,0.9-1.3,1.4c-0.4,0.5-0.8,1-1.1,1.5c-0.5,0.8-1,1.4-1.8,2c-0.9,0.7-1.6,0.7-2.5,1.8
			c-0.3,0.3-0.5,0.7-0.8,1c-0.7,0.7-1.4,1-2.2,1c-0.4,0-0.3-0.7,0.1-0.7c0.2,0,0.5-0.2,0.9-0.4c0.3-0.2,0.7-0.6,1.1-0.9
			c0.4-0.3,0.8-0.7,1.2-1c0.4-0.3,0.7-0.6,1-0.8c1.3-0.9,2-1.4,2.9-2.8c0.4-0.5,0.6-0.9,1.1-1.4c0.4-0.5,1-0.9,1.5-1.3
			c0.6-0.4,1.1-0.7,1.7-1.1c1-0.6,1.5-1.3,2.1-2c0.6-0.7,1.1-1.5,1.9-2.2c0.6-0.6,1.2-0.9,2-1.1c0.5-0.1,1.2,0,1.7-0.2
			c0.6-0.2,1.1-0.5,1.6-0.9c0.5-0.4,0.9-0.8,1.4-1.1c1.4-1,3.1-0.9,4.4-0.3C-128.9,365.8-129.4,366.3-129.7,366.1z"/>
	</g>
	<g>
		<path class="st0" d="M-136.6,350c-0.8,0.5-1.8,0.8-2.7,1.2c-0.9,0.4-1.9,0.6-2.8,0.8c-1.8,0.4-3.6,0.4-4.8-0.3
			c-0.9-0.5-1.3-1.9,0.2-3.1c0.7-0.6,1.4-0.9,2.1-1c0.7-0.1,1.2,0.1,1.4,0.6c0.1,0.1-0.1,0.4-0.3,0.5c-0.5,0.2-0.9,0.5-1.4,0.7
			c-0.6,0.3-0.9-0.2-0.3-0.5c0.5-0.3,0.9-0.5,1.4-0.8c-0.1,0.2-0.2,0.3-0.3,0.5l-2.6,1.1c-0.2,0.5,0,0.9,0.3,1.1
			c0.3,0.3,0.7,0.4,1.1,0.6c0.8,0.2,1.8,0.2,2.7,0c1.9-0.2,3.8-0.9,5.5-1.8C-136.5,349.2-136.1,349.7-136.6,350z"/>
	</g>
	<g>
		<path class="st0" d="M-142.8,382.6c-0.7,0.2-1.3,0.7-1.8,1.3c-0.4,0.6-0.8,1.3-0.9,2.1c-0.1,0.8,0.1,1.7,0.6,2.3
			c0.4,0.5,0.7,0.6,1.3,0.7c0.4,0.2,0.8,0.1,1-0.3c0.2-0.4,0.2-0.7-0.1-1c-0.3-0.2,0.1-0.7,0.3-0.5c0.3,0.3,0.5,0.7,0.5,1.1
			c0,0.4-0.2,0.8-0.5,1.1c-1,0.7-2.3,0.1-2.9-0.8c-0.4-0.5-0.6-1.1-0.7-1.8c0-0.6,0-1.3,0.3-1.9c0.3-0.6,0.6-1.2,1.1-1.7
			c0.5-0.5,1.1-0.8,1.7-1.1C-142.6,382-142.5,382.5-142.8,382.6z"/>
	</g>
	<g>
		<path class="st0" d="M-148.8,384c0.5,0.7,0.2,1.2-0.4,1.8c-0.5,0.5-0.9,0.8-1.4,1.2c-0.2,0.2-0.5,0.4-0.7,0.7
			c-0.2,0.3-0.4,0.5-0.5,0.9c-0.6,1.2-0.3,2.5-0.9,3.7c-0.3,0.8-0.9,1.3-1.5,2c-0.8,1.1-1.2,2.3-1.4,3.7c-0.3,1.9-0.3,3.5-1,5.1
			c-0.2,0.3-0.6,0-0.5-0.3c0.6-1.3,0.8-2.8,1-4.4c0.2-1.5,0.6-3.2,1.5-4.5c0.8-0.7,1.3-1.6,1.7-2.7l0.2-1.4c0.1-0.5,0.3-0.9,0.5-1.4
			c0.1-0.1,0.3-0.4,0.6-0.8c0.3-0.4,0.7-0.8,1.1-1.3c0.4-0.4,0.7-0.9,1-1.2c0.3-0.3,0.4-0.5,0.4-0.6
			C-149.5,384.1-149,383.7-148.8,384z"/>
	</g>
	<g>
		<path class="st0" d="M-115.4,361.2c1.5,0.6,0.1,1.7-0.9,2.2c-1.5,0.7-3.5,1-4.8-0.1c-0.9-0.7-1.3-2.1,0-2.9
			c1.1-0.7,2.6-0.6,3.2,0.4c0.1,0.2-0.1,0.4-0.4,0.4c-0.5,0-0.9,0-1.4-0.2c-0.4-0.1-0.2-0.7,0.3-0.6c0.4,0.1,0.8,0.1,1.2,0.1
			l-0.4,0.4c-0.3-0.6-1.5-0.6-2.1-0.1c-0.8,0.6-0.5,1.5,0.1,2c0.6,0.6,1.6,0.7,2.5,0.5c0.4-0.1,0.9-0.2,1.3-0.3
			c0.3-0.1,2.1-0.9,1.2-1.3C-116.1,361.6-115.8,361.1-115.4,361.2z"/>
	</g>
	<g>
		<path class="st0" d="M-148.3,368.7c0.4-0.8,1.2-0.9,1.5-0.3c0.4,1-0.5,2.7-1.1,3.8c-0.9,1.3-2.3,2.3-3.7,2.8
			c-1.3,0.5-2.7,0.4-3.5-0.6c-0.6-0.7-0.6-2.1,0-3.3c0.6-1.2,1.6-2.2,3-2.3c0.9-0.1,1.8,0.7,1.1,1.8c-0.5,0.8-1.5,1.2-1.9,0.6
			c-0.2-0.3,0.3-0.9,0.6-0.6c0.2-1.1-0.2-1.4-1.1-0.6l-0.5,0.5c-0.6,0.7-1,1.5-0.9,2.3c0.2,1.4,1.6,1.9,2.9,1.6c1.2-0.2,2.3-1,3.2-2
			c0.4-0.5,0.8-1.1,1-1.6c0.1-0.3,0.3-0.6,0.3-1c0.2-0.5,0.2-0.8-0.1-1.1C-147.9,369.2-148.6,369.1-148.3,368.7z"/>
	</g>
	<g>
		<path class="st0" d="M-156.8,377.4c-0.2,1-0.6,1.7-1.4,2.5c-0.6,0.6-1.1,0.9-1.6,1.3c-0.5,0.5-0.9,1-1.2,2.3
			c-0.2,0.7,0,1.4-0.2,2.2c-0.2,1.2-0.8,1.9-1.5,2.8c-0.6,0.8-1,1.5-1.3,2.2c-0.3,0.7-0.4,1.5-0.6,2.5c-0.1,0.7-0.1,1.4-0.3,2.1
			c-0.5,2.5-1.9,4.2-1.7,7.2c0.1,1.8,0.6,3.4,0.5,5.2c-0.1,1.9-1.2,3.2-0.8,5.3c0.3,1.2,0.8,2.1,1.4,3.1c0.6,0.9,1.2,1.8,1.6,2.9
			c0.2,0.6-0.5,0.4-0.7-0.2c-0.4-1.1-1-2.1-1.6-3.1c-0.6-1-1.1-2.1-1.3-3.3c-0.2-1.8,0.5-2.8,0.7-4.3c0.2-1.3,0.1-2.6-0.1-3.9
			c-0.2-1.2-0.4-2.6-0.2-3.8c0.3-2.2,1.4-3.7,1.8-5.8c0.1-0.8,0.2-1.6,0.3-2.4c0.1-0.8,0.2-1.6,0.6-2.4c0.9-1.9,2.4-2.4,2.8-4.9
			c0.2-1,0-1.9,0.5-3c0.5-0.9,1.3-1.5,2.1-2.2c0.8-0.6,1.5-1.3,1.7-2.4C-157.3,376.9-156.6,376.9-156.8,377.4z"/>
	</g>
	<g>
		<path class="st0" d="M-155.4,366.2l-0.1,0.5c-0.1,0.5-0.8,0.7-0.7,0.2c0-0.2,0.1-0.3,0.1-0.5
			C-156.1,365.9-155.3,365.7-155.4,366.2z"/>
	</g>
	<g>
		<path class="st0" d="M-157.1,367.7c-0.6,0.4-1.2,0.9-1.6,1.4c-0.5,0.6-0.9,1.2-1.3,1.8c-0.4,0.6-0.8,1.2-1.3,1.8
			c-0.4,0.6-1,1.1-1.6,1.6c-1.5,1.3-2.7,2-3.9,4.1c-0.4,0.7-0.7,1.3-1,2c-0.3,0.7-0.6,1.3-1,2c-0.6,1.1-1.1,2.1-1.5,3.2
			c-0.4,1.1-0.6,2.2-0.8,3.4c-0.1,1.3-0.2,2.5-0.4,3.8c-0.4,2-1.1,3.5-2.3,4c-0.4,0.2-0.4-0.9,0-1c0.5-0.9,1.1-1.8,1.7-2.6
			c0.1-0.7,0.2-1.3,0.3-2c0.1-0.9,0.2-1.8,0.3-2.7c0.2-1.1,0.3-2.2,0.7-3.3c0.5-1.3,1.1-2.2,1.8-3.4c0.5-0.9,0.9-1.8,1.3-2.7
			c0.4-0.9,0.9-1.8,1.4-2.6c1.5-2,3.5-2.7,5-4.6c1.5-1.8,2.2-3.7,4.2-5.1C-156.6,366.7-156.6,367.4-157.1,367.7z"/>
	</g>
	<g>
		<path class="st0" d="M-152.3,357c-1.6,0.4-2.8,1.4-3.7,2.6c-1,1.2-1.8,2.6-2.9,3.7c-0.9,0.9-1.8,1.7-2.8,2.4
			c-1,0.8-1.9,1.6-2.8,2.6c-3.7,4.6-6.5,9.9-8.6,15.4c-0.2,0.6-0.8,0.4-0.5-0.2c1.3-3.4,3-6.7,4.9-9.8c1.6-2.6,3.3-5.4,5.4-7.5
			c0.6-0.6,1.3-1.1,2-1.6c0.7-0.5,1.4-1,2-1.7c0.6-0.6,1.1-1.3,1.6-2c0.5-0.7,1-1.4,1.6-2c0.6-0.7,1.3-1.3,1.9-1.7
			c0.7-0.4,1.4-0.7,2.1-0.9C-151.5,356.2-151.8,356.9-152.3,357z"/>
	</g>
	<g>
		<path class="st0" d="M-159,396.1c-1.2,1.9-1,4.1-1.4,6.2c-0.3,1.5-0.8,2.8-0.4,4.4c0.3,1.1,1.1,2,1.6,3.1c1,2.2,2.2,4.5,3.7,6.4
			c0.8,1,1.7,1.8,2.6,2.8c0.5,0.6,2.8,3.2,3.6,3c0.4-0.1,0.7,0.5,0.3,0.6c-1.4,0.3-3.3-2.2-4.2-3.2c-1.1-1.2-2.4-2.4-3.3-3.8
			c-1-1.4-1.9-2.8-2.6-4.3c-0.6-1.3-1.2-2.4-1.7-3.5c-0.5-1.2-0.7-2.4-0.4-3.9c0.3-1.4,0.4-2.8,0.6-4.2c0.2-1.4,0.5-2.7,1.2-3.9
			C-159.3,395.4-158.8,395.7-159,396.1z"/>
	</g>
	<g>
		<path class="st0" d="M-147,390.6c-0.8,1.2-1.3,2.5-1.7,3.8c-0.4,1.3-0.7,2.7-1.4,3.9c-0.7,1.3-1.3,2.6-1.7,3.9
			c-0.4,1.1-0.7,2.2-0.7,3.4c0,1.2,0.2,2.5,0.6,3.7c0.2,0.6,0.5,1.2,0.9,1.7c0.2,0.3,0.3,0.6,0.5,0.8c0.1,0.1,0.2,0.3,0.3,0.4
			l0.4,0.4l1.9,2.1c0.6,0.7,1.3,1.4,2,2c1.3,1.4,2.7,2.6,4.1,3.9c0.3,0.3,0,0.8-0.4,0.4c-1.3-1.3-2.7-2.5-4-3.8
			c-0.6-0.7-1.3-1.3-1.9-2l-1.8-2.1l-0.4-0.5l-0.3-0.4c-0.2-0.3-0.4-0.5-0.6-0.8c-0.4-0.6-0.7-1.1-0.9-1.7c-0.5-1.2-0.8-2.5-0.8-3.7
			c0-1.3,0.2-2.5,0.6-3.6c0.4-1.2,0.9-2.6,1.6-4c1.4-2.7,1.6-5.8,3.4-8.4C-147.2,389.9-146.8,390.3-147,390.6z"/>
	</g>
	<g>
		<path class="st0" d="M-176.4,395.5c-0.4,0.4-0.8,1.2-1.2,2.2c-0.2,0.5-0.3,1.1-0.4,1.7c-0.1,0.3-0.1,0.7-0.2,1
			c0,0.4-0.1,0.7-0.1,1.1c-0.3,3.2,0.1,6.6,0.5,8.5c0.6,3.6,2.1,6.8,3.2,10.1c1,2.8,1.8,4.8,4.1,7.2c0.7,0.8,1.5,1.5,2.3,2.1
			c0.4,0.3,0.7,0.5,1.1,0.8c0.3,0.2,0.5,0.4,0.8,0.5c0.6,0.5,1.3,1.1,1.9,1.7c0.6,0.6,1.2,1.3,1.9,2c1.2,1.3,2.5,2.5,4,2.8
			c0.5,0.1,0.7,0.8,0.2,0.7c-1.5-0.3-2.6-1.1-3.6-2.2c-1-1-1.9-2.2-3-3.2c-0.6-0.6-1.3-1.1-1.9-1.5c-0.4-0.3-0.6-0.4-1.1-0.8
			l-0.7-0.5c-0.3-0.2-0.5-0.4-0.8-0.6c-2-1.8-3.8-3.8-4.9-6.4c-0.6-1.5-1.1-2.8-1.5-4.1c-0.5-1.4-0.9-2.7-1.4-4.4
			c-1.1-3.2-1.5-6.6-1.5-10c0-3.9,0.5-8.2,2.3-9.7C-176.1,394.3-176,395.2-176.4,395.5z"/>
	</g>
	<g>
		<path class="st0" d="M-172.5,407c0.2-1.1,0.8-0.5,1.1,0.2c0.5,1.2,0.6,3.1,0.7,4.4c0,1.7-0.3,3.1-0.9,4c-0.6,0.8-1.6,1-2.8-0.3
			c-1-1-1.7-2.9-1.8-4.6c-0.1-1.6,0.4-2.9,1.3-2.7c0.7,0.2,1.3,1.4,1.5,2.6c0.3,1.3,0.3,2.6-0.3,3c-0.3,0.2-0.8-0.9-0.5-1.1
			c0.5-0.3,0.4-1.9-0.2-2.9c-0.6-0.9-1.3-0.1-1.4,1c-0.1,1.4,0.4,2.5,1.1,3.3c0.7,0.7,1.4,1.1,1.9,0.9c0.7-0.3,1.1-1.2,1.3-2.5
			c0.1-0.6,0.1-1.3,0-2c0-0.4-0.1-0.9-0.2-1.3c-0.1-0.5-0.2-1-0.4-1.5C-172,408.3-172.6,407.7-172.5,407z"/>
	</g>
	<g>
		<path class="st0" d="M-167.9,421.9c0.3,1.1,0.9,2.1,1.7,2.9c0.4,0.4,0.8,0.9,1.3,1.2c0.2,0.2,0.5,0.3,0.7,0.5
			c0.2,0.2,0.5,0.3,0.7,0.4c1.5,0.8,3,1.7,4,3.1c0.6,0.8,1,1.5,1.5,2.1c0.5,0.6,1.1,1.2,2.1,1.7c1.3,0.7,2.6,1.2,3.8,2
			c0.7,0.5,1.3,1,1.8,1.7c0.5,0.8,0.7,1.2,1.5,2.1c1.2,1.2,1.5,1.3,3,1.9c1.4,0.6,2.9,1.1,4.3,1.9c1.1,0.7,4.4,3.4,5.4,3
			c0.4-0.2,0.9,0.4,0.5,0.6c-0.6,0.3-1.2,0.2-2.1-0.2c-1-0.5-2-1.5-2.9-2.2c-1.3-0.8-2.7-1.4-4.1-2c-1.5-0.6-3.3-1-4.6-2.1
			c-1.4-1.3-1.3-2.8-3.1-4c-1.3-0.9-2.5-1.5-3.7-2.2c-1.2-0.6-2.3-1.4-3.3-2.8c-1.7-2.4-2.3-2.8-4.6-4.1c-0.6-0.4-1.1-0.7-1.7-1.2
			c-1.5-1.3-2.5-2.8-2.9-4.4C-168.9,421-168.1,421.3-167.9,421.9z"/>
	</g>
	<g>
		<path class="st0" d="M-160,422.6c0.3,0.2,0.5,0.3,0.8,0.5l0.7,0.5c0.5,0.3,1,0.6,1.5,0.9c1,0.6,1.9,1.3,2.8,2.1
			c0.6,0.5,1.1,1,1.6,1.5c0.5,0.5,1,1,1.5,1.5c0.5,0.5,1,1,1.5,1.6c0.5,0.5,1.1,1,1.6,1.4c4.6,3.7,9.7,7,15,9.9
			c0.5,0.2,0.2,0.7-0.3,0.5c-5-2.8-9.8-5.9-14.3-9.4c-2-1.5-3.6-3.3-5.4-5c-1.1-1.1-2.2-2.1-3.5-2.9c-1.3-0.9-2.5-1.7-3.8-2.5
			C-160.7,422.8-160.5,422.3-160,422.6z"/>
	</g>
	<g>
		<path class="st0" d="M-141.2,424.5c2.4,1.2,5,0.8,6.4-0.7c0.2-0.3,0.8,0.1,0.6,0.4c-0.8,0.9-1.9,1.4-3.2,1.6c-0.6,0.1-1.3,0.1-2,0
			c-0.7-0.1-1.4-0.4-2-0.7C-141.8,424.8-141.6,424.3-141.2,424.5z"/>
	</g>
	<g>
		<path class="st0" d="M-136.7,427c1.1,0.7,2.3,0.8,3.4,0.5c0.4-0.1,0.8,0.5,0.4,0.6c-1.3,0.4-2.8,0.2-4.1-0.6
			C-137.4,427.3-137.1,426.8-136.7,427z"/>
	</g>
	<g>
		<path class="st0" d="M-135.8,430.8c1.8,0.2,3.4,0.8,5,1.7c2.2,1.3,3.8,3.1,6.3,3.6c1.4,0.2,2.8,0.2,4.1,0.8c2.5,1.1,3,4,6.5,3.6
			c0.4-0.1,0.7,0.5,0.2,0.6c-1.3,0.1-2.6,0-3.8-0.8c-0.6-0.4-1.1-1-1.6-1.5c-0.6-0.6-1.2-1-1.9-1.4c-0.7-0.3-1.4-0.5-2.3-0.6
			c-1.6-0.2-2.9-0.4-4.4-1.3c-1.5-0.9-2.6-1.8-3.9-2.5c-1.3-0.7-2.6-1.3-4.3-1.5C-136.2,431.3-136.2,430.7-135.8,430.8z"/>
	</g>
	<g>
		<path class="st0" d="M-123.9,441.3c1.2,1.1,2.7,1.3,4.1,1.7c0.7,0.2,1.4,0.4,2.1,0.6c0.7,0.3,1.3,0.6,2,1.2c0.9,0.8,1.2,1.6,2.7,2
			c1.1,0.3,2.2,0.1,3.3,0.3c1.2,0.2,2,0.4,2.8,1.2c0.3,0.3-0.1,0.7-0.5,0.4c-1.8-1.5-4.1-0.8-6.2-1.5c-1.3-0.5-1.7-1.3-2.7-2
			c-0.6-0.5-1.3-0.9-2-1.1c-0.7-0.3-1.4-0.5-2.1-0.7c-0.7-0.2-1.5-0.4-2.2-0.6c-0.7-0.3-1.4-0.6-1.9-1.2
			C-124.8,441.3-124.2,441-123.9,441.3z"/>
	</g>
	<g>
		<path class="st0" d="M-127.1,446.7c2.7,0.5,5.3,2,6.7,4c0.3,0.4-0.4,0.6-0.7,0.2c-1.3-1.9-3.5-3.1-6-3.6
			C-127.6,447.2-127.6,446.6-127.1,446.7z"/>
	</g>
	<g>
		<path class="st0" d="M-115.4,450.7c1.1,0.2,2,0.6,2.7,1.3c0.3,0.3-0.3,0.6-0.7,0.2c-0.5-0.5-1.2-0.8-2-1
			C-115.9,451.1-115.9,450.6-115.4,450.7z"/>
	</g>
	<g>
		<path class="st0" d="M-144.3,427.7c0.5,1,1.5,2,2.6,2.9c1.1,0.8,2.3,1.6,3.3,2.3c2,1.3,4.1,2.7,6.2,3.9c0.4,0.2,0.2,0.8-0.3,0.5
			c-1.4-0.8-2.7-1.6-4-2.4c-1.3-0.8-2.6-1.7-3.9-2.6c-0.9-0.6-1.8-1.2-2.6-1.9c-0.8-0.7-1.5-1.5-2-2.4
			C-145.1,427.5-144.5,427.3-144.3,427.7z"/>
	</g>
	<g>
		<path class="st0" d="M-147.1,444.7c2.5,1.9,4.7,3.9,6.7,6.1c0.4,0.4-0.3,0.6-0.6,0.2c-1-1.1-2-2.1-3-3.1c-1-1-2.2-1.9-3.4-2.8
			C-147.9,444.9-147.5,444.4-147.1,444.7z"/>
	</g>
	<g>
		<path class="st0" d="M-132,451.3c2.6,0.8,4.9,2.3,6.6,4.1c0.3,0.4-0.2,0.7-0.6,0.3c-0.4-0.4-0.8-0.8-1.3-1.2
			c-0.4-0.4-0.9-0.7-1.4-1.1c-1-0.7-2.1-1.2-3.4-1.6C-132.5,451.7-132.5,451.1-132,451.3z"/>
	</g>
	<g>
		<path class="st0" d="M-105.3,453c1.4,0.1,3,0.1,4.4,0.5c0.7,0.2,1.4,0.4,1.9,0.7c0.6,0.3,1,0.7,1.4,1.3c0.2,0.3-0.5,0.6-0.7,0.2
			c-1.2-1.9-4.4-2.1-6.9-2.1C-105.7,453.5-105.8,452.9-105.3,453z"/>
	</g>
	<g>
		<path class="st0" d="M-98.3,451.6c1.4,0.4,2.9,0.6,4.3,0.4c1.4-0.2,2.7-0.6,3.8-1.3c0.4-0.2,0.9,0.2,0.5,0.4
			c-1.2,0.7-2.7,1.2-4.2,1.4c-1.5,0.2-3.1,0-4.7-0.4C-99.1,452-98.8,451.5-98.3,451.6z"/>
	</g>
	<g>
		<path class="st0" d="M-54.8,373c-0.7,0.5-1.5,0.9-2.3,1.3c-0.7,0.3-2,0.6-3.1,0.8c-0.5,0.1-0.8-0.5-0.2-0.5
			c0.6-0.1,1.1-0.2,1.7-0.3c0.3-0.1,0.6-0.1,0.8-0.2c0.2-0.1,0.4-0.2,0.6-0.2c0.8-0.3,1.5-0.7,2.2-1.2
			C-54.8,372.3-54.4,372.8-54.8,373z"/>
	</g>
	<g>
		<path class="st0" d="M-61.2,373.4c-0.7-0.1-1.3,0-1.9,0.2c-0.5,0.2-0.9-0.3-0.4-0.5c0.8-0.3,1.6-0.4,2.5-0.3
			C-60.5,372.9-60.7,373.5-61.2,373.4z"/>
	</g>
</g>
</svg>
