<?xml version="1.0" encoding="utf-8"?>
<!-- Generator: Adobe Illustrator 19.0.0, SVG Export Plug-In . SVG Version: 6.00 Build 0)  -->
<svg version="1.1" id="Layer_1" xmlns="http://www.w3.org/2000/svg" xmlns:xlink="http://www.w3.org/1999/xlink" x="0px" y="0px"
	 viewBox="-205 297 200 200" style="enable-background:new -205 297 200 200;" xml:space="preserve">
<style type="text/css">
	.st0{fill:#E1F2F4;}
</style>
<g id="XMLID_16896_">
	<g id="XMLID_17394_">
		<g>
			<path class="st0" d="M-143,360.6c13.2-17.6,42.9-14.9,60.5-6.8c9.4,4.3,18.6,11,23.9,20.1c6.2,10.7,4.2,22.9-0.2,33.9
				c-3.9,9.7-9.1,20.5-17.3,27.3c-8.3,6.9-19.8,9.2-30.3,8.9c-18.2-0.6-41.3-11.1-46.4-30.3c-3.9-14.7,10.9-21.4,22.6-24.2
				c7.1-1.7,15-1.9,21.3,2.2c2.8,1.8,5.1,4.3,6.5,7.3c0.6,1.2,0.9,2.3,1.1,3.7c0.2,0.9,0.3,1.7,0.2,2.6c0,4.8-2.7,5.8-8.1,3.1
				c-0.4,0.1-0.8,0.2-1.3,0.3c0.6,1.3,1.8,1.4,3.1,0.7c2.3-1.4,2-5.1,1-7.2c-3-6.7-13.4-7.2-19.6-6.8c-7.1,0.4-12.6,4.5-13.7,11.7
				c-1.2,8.2,3.9,15.1,10.5,19.4c15.6,10.1,37.9,9.1,51.5-3.9c12.1-11.7,14.8-30.7,4.2-44.3c-6.3-8.2-16.2-11.6-26.3-11.5
				c-5.6,0.1-11.1,1-16.5,2.5c-7.4,2-14.9,4.7-22.5,1.9c0,0.4,0,0.9,0,1.3c4.4-0.6,8.9-1.3,13.3-1.9c0.5-0.1,0.7-0.8,0.3-1.1
				c-5.8-4.8-13.3-5.8-20.2-2.8c-0.4,0.2-0.4,0.8-0.1,1.1c2.2,2.3,4.7,3.3,7.9,3c0.9-0.1,0.9-1.4,0-1.4c-1.6,0.1-6.3,0.1-4.5-2.5
				c0.6-0.9,4.1-0.7,4.9-0.6c4.1,0.1,7.8,1.6,11,4.2c0.1-0.4,0.2-0.8,0.3-1.1c-4.4,0.6-8.9,1.3-13.3,1.9c-0.7,0.1-0.6,1.1,0,1.3
				c8.1,3,16-0.1,24-2.2c9.3-2.4,19.6-3.5,28.7-0.1c18.6,7,23.2,30.6,12.3,46c-11.8,16.8-35.9,19.9-53.1,9.8
				c-8.2-4.8-16.1-16.6-8.2-25.4c3.8-4.2,9.8-4.2,15-3.7c2.4,0.2,4.8,0.5,7.1,1.2c1.7,0.5,3.2,1.4,4.4,2.6c2.4,2.3,2.3,4.8-0.4,7.2
				c-0.3-0.6-1.3-0.3-1.3,0.3c0.2,3,2.9,5.1,6,4.3c4.2-1.1,5.3-6.5,4.8-10.2c-1.7-11.8-14.7-16.5-25.1-15.4
				c-9.8,1.1-24.6,5.5-28.8,15.7c-4.6,11.1,5.1,23.4,13.1,30c17.8,14.6,49.7,18.5,67.4,1.5c9.6-9.2,16.7-24.3,19.3-37.2
				c2.7-13.2-1.7-24.9-11.5-33.9c-11-10.1-25.8-15.9-40.6-16.8c-13.5-0.8-29.4,1.9-38,13.4C-144.8,360.6-143.6,361.3-143,360.6
				L-143,360.6z"/>
		</g>
	</g>
	<g id="XMLID_17623_">
		<g>
			<path class="st0" d="M-130.9,363.7c-1.4-2.3,8.6-0.9,8.7-0.9c3,1.1,5.1,3.1,7,5.5c1.8,2.3,3.3,5.1,5.8,6.9c1.9,1.4,7.4,3.1,7-1
				c-0.1-0.9-1.4-0.9-1.4,0c-2.2,1.2-4.1,1-5.6-0.8c-0.6-0.6-1.2-1.2-1.7-1.8c-1.3-1.6-2.4-3.4-3.8-5c-1.5-1.9-3.3-3.5-5.5-4.5
				c-3.3-1.6-10-2.9-12.1,0.9c-0.1,0.2-0.1,0.5,0,0.7c0.1,0.2,0.3,0.4,0.4,0.6C-131.7,365.1-130.5,364.5-130.9,363.7L-130.9,363.7z"
				/>
		</g>
	</g>
	<g id="XMLID_17624_">
		<g>
			<path class="st0" d="M-140.8,360.5c-1.4-1.9-3.4-2.7-5.8-2.3c-1.6,0.3-3,1.1-4.3,2c-0.8,0.6-1.5,1.4-2.3,2
				c-0.4,0.3-0.7,0.7-1.1,1c-2.7,3.1-5.8,2.8-9.5-1.1c0.1-0.9-1.3-0.9-1.4,0c-0.4,3.7,2.8,5.9,6.3,5.3c5.1-0.9,12-12.7,16.8-6.3
				C-141.5,361.9-140.3,361.2-140.8,360.5L-140.8,360.5z"/>
		</g>
	</g>
	<g id="XMLID_17625_">
		<g>
			<path class="st0" d="M-128.6,358.4c0.4,0,0.8,0,1.2,0c0.9,0,0.9-1.4,0-1.4c-0.4,0-0.8,0-1.2,0
				C-129.4,357.1-129.4,358.4-128.6,358.4L-128.6,358.4z"/>
		</g>
	</g>
	<g id="XMLID_17626_">
		<g>
			<path class="st0" d="M-138,355.6C-138.1,355.7-138,355.7-138,355.6c-0.1,0-0.2,0-0.2-0.1c0-0.1-0.1-0.2-0.1-0.2c0,0,0-0.1,0,0
				c0.6-0.7-0.4-1.6-1-1c-1,1.1,0.2,3.1,1.7,2.6C-136.8,356.6-137.1,355.3-138,355.6L-138,355.6z"/>
		</g>
	</g>
	<g id="XMLID_17627_">
		<g>
			<path class="st0" d="M-146.3,364.1c1.1-1.7,2.2-3.4,3.3-5c0.4-0.7-0.5-1.4-1.1-0.8c-2.6,2.7-3.5,6.5-2.4,10.1
				c0.3,0.8,1.6,0.5,1.3-0.4c-1-3.1-0.3-6.4,2-8.7c-0.4-0.3-0.7-0.6-1.1-0.8c-1.1,1.7-2.2,3.4-3.3,5
				C-147.9,364.2-146.8,364.8-146.3,364.1L-146.3,364.1z"/>
		</g>
	</g>
	<g id="XMLID_17629_">
		<g>
			<path class="st0" d="M-104,348.4c3.7-1.9,7.5-3.5,11.5-4.5c1.9-0.5,3.7-0.8,5.7-1c1.1-0.2,2.2-0.3,3.2-0.3c1,0.3,1.8,0.1,2.4-0.7
				c-0.8-0.4-1.5,0.8-0.7,1.2c0.1,0.1,0.2,0.1,0.3,0.2c0.3,0.2,0.7,0.1,0.9-0.2c0.1-0.1,0.2-0.3,0.2-0.4c0.2-0.2,0.1-0.6-0.1-0.8
				c-2.1-1.7-6.7-0.3-9.1,0.2c-5.3,0.9-10.3,2.8-15.1,5.3C-105.5,347.7-104.8,348.8-104,348.4L-104,348.4z"/>
		</g>
	</g>
	<g id="XMLID_17758_">
		<g>
			<path class="st0" d="M-82.9,351.9c3-0.6,6.1-0.8,9.2-0.5c0.7,0.1,10,1.9,9.9,2.2c0.1-0.9-1.3-0.9-1.4,0c0,0.1,0,0.1,0,0.2
				c0,0.3,0.2,0.6,0.5,0.7c0.4,0.1,0.6,0.1,1-0.1c0.2-0.2,0.4-0.5,0.3-0.8c-0.9-2.3-5.4-2.7-7.5-3.1c-4.1-0.8-8.3-0.7-12.4,0.1
				C-84.1,350.7-83.7,352-82.9,351.9L-82.9,351.9z"/>
		</g>
	</g>
	<g id="XMLID_17760_">
		<g>
			<path class="st0" d="M-67.8,361c6.9-0.2,13.3,2.2,18.2,7c0.6,0.6,1.6-0.4,1-1c-5.2-5-12-7.7-19.2-7.4
				C-68.7,359.7-68.7,361.1-67.8,361L-67.8,361z"/>
		</g>
	</g>
	<g id="XMLID_17772_">
		<g>
			<path class="st0" d="M-56.3,378.1c4.8,1.7,8.5,5.5,10.3,10.3c0.3,0.8,1.6,0.5,1.3-0.4c-1.9-5.3-5.9-9.3-11.2-11.2
				C-56.8,376.5-57.1,377.8-56.3,378.1L-56.3,378.1z"/>
		</g>
	</g>
	<g id="XMLID_17779_">
		<g>
			<path class="st0" d="M-54.6,398.3c2.8,6.3,4.5,12.8,5.1,19.6c0.1,0.9,1.4,0.9,1.4,0c-0.6-7.1-2.4-13.8-5.3-20.3
				C-53.8,396.8-55,397.5-54.6,398.3L-54.6,398.3z"/>
		</g>
	</g>
	<g id="XMLID_17786_">
		<g>
			<path class="st0" d="M-60,421.6c0.1-0.1,0.1-0.1,0.2-0.2c0.3-0.3,0.3-0.7,0-1c-0.1-0.1-0.1-0.2-0.2-0.2c-0.3-0.3-0.7-0.3-1,0
				c-1.3,1.2-0.7,4.3-0.8,5.8c-0.2,3.8-0.4,7.5-0.6,11.3c0,0.9,1.3,0.9,1.4,0c0.1-2.7,0.3-5.3,0.4-8c0.1-1.3,0.1-2.7,0.2-4
				c0-0.9-0.2-3.6,0.4-4.2c-0.3,0-0.6,0-1,0c0.1,0.1,0.1,0.2,0.2,0.2c0-0.3,0-0.6,0-1c-0.1,0.1-0.1,0.1-0.2,0.2
				C-61.6,421.3-60.6,422.3-60,421.6L-60,421.6z"/>
		</g>
	</g>
	<g id="XMLID_17793_">
		<g>
			<path class="st0" d="M-77.9,438.5c-0.4,3.9-1.9,7.5-4.3,10.6c-0.5,0.7,0.4,1.7,1,1c2.7-3.4,4.2-7.2,4.7-11.5
				C-76.4,437.7-77.8,437.7-77.9,438.5L-77.9,438.5z"/>
		</g>
	</g>
	<g id="XMLID_17800_">
		<g>
			<path class="st0" d="M-94.8,443.2c-1.8,4.5-5.8,7.7-10.6,8.3c-0.9,0.1-0.9,1.5,0,1.4c5.5-0.7,10-4.2,12-9.3
				C-93.2,442.7-94.5,442.3-94.8,443.2L-94.8,443.2z"/>
		</g>
	</g>
	<g id="XMLID_17807_">
		<g>
			<path class="st0" d="M-123.9,442.6c-4.6,1.2-9.2-0.1-12.5-3.5c-0.6-0.6-1.6,0.3-1,1c3.6,3.8,8.8,5.2,13.8,3.9
				C-122.7,443.7-123.1,442.4-123.9,442.6L-123.9,442.6z"/>
		</g>
	</g>
	<g id="XMLID_17814_">
		<g>
			<path class="st0" d="M-144.2,429.9c-3.6-0.6-6.7-2.5-8.8-5.6c-0.5-0.7-1.7,0-1.2,0.7c2.3,3.3,5.7,5.5,9.7,6.2
				C-143.7,431.4-143.3,430-144.2,429.9L-144.2,429.9z"/>
		</g>
	</g>
	<g id="XMLID_17821_">
		<g>
			<path class="st0" d="M-152.5,415.5c-2.9-1.3-5.1-3.6-6.4-6.5c-0.4-0.8-1.5-0.1-1.2,0.7c1.4,3.1,3.8,5.6,6.9,7
				C-152.4,417.1-151.7,415.9-152.5,415.5L-152.5,415.5z"/>
		</g>
	</g>
	<g id="XMLID_17828_">
		<g>
			<path class="st0" d="M-154.3,402.3c-2-1.8-2.4-4.9-0.7-7.1c0.5-0.7-0.4-1.7-1-1c-2.1,2.7-1.9,6.7,0.7,9
				C-154.6,403.9-153.6,402.9-154.3,402.3L-154.3,402.3z"/>
		</g>
	</g>
	<g id="XMLID_17835_">
		<g>
			<path class="st0" d="M-144.4,393.9c-0.6-3.9,1.5-7.6,5.1-9.2c0.8-0.4,0.1-1.5-0.7-1.2c-4.2,1.9-6.4,6.3-5.7,10.8
				C-145.6,395.1-144.3,394.8-144.4,393.9L-144.4,393.9z"/>
		</g>
	</g>
	<g id="XMLID_17842_">
		<g>
			<path class="st0" d="M-122.3,389c4.4-2.5,9.3-3.3,14.3-2.2c0.9,0.2,1.2-1.1,0.4-1.3c-5.3-1.2-10.6-0.4-15.4,2.4
				C-123.8,388.2-123.1,389.4-122.3,389L-122.3,389z"/>
		</g>
	</g>
	<g id="XMLID_17849_">
		<g>
			<path class="st0" d="M-102.3,400.5c4.7,2.4,8.2,6.2,10.2,11.1c0.3,0.8,1.5,0.1,1.2-0.7c-2.1-5-5.9-9-10.7-11.5
				C-102.4,398.9-103.1,400.1-102.3,400.5L-102.3,400.5z"/>
		</g>
	</g>
</g>
</svg>
