<?xml version="1.0" encoding="utf-8"?>
<!-- Generator: Adobe Illustrator 19.0.0, SVG Export Plug-In . SVG Version: 6.00 Build 0)  -->
<svg version="1.1" id="Layer_1" xmlns="http://www.w3.org/2000/svg" xmlns:xlink="http://www.w3.org/1999/xlink" x="0px" y="0px"
	 viewBox="-205 297 200 200" style="enable-background:new -205 297 200 200;" xml:space="preserve">
<style type="text/css">
	.st0{fill:#E1F2F4;}
</style>
<g id="XMLID_101_">
	<g id="XMLID_10683_">
		<g>
			<path class="st0" d="M-72.1,349.7c-9.7-9.8-23.7-15.5-37.4-11.4c-12.5,3.7-21.6,15.6-19.7,28.9c1.9,13.1,14.4,19.5,24.6,25.8
				c7.6,4.7,15.3,10.5,18.2,19.3c2.7,8.2-1.2,19.9-10.9,21c-10.4,1.2-22.4-11.1-24.4-20.5c-1.2-5.7-2.2-13.8-9.7-13.9
				c-0.5,0-0.8,0.6-0.4,0.9c4.4,3.8,6.3,9.1,5.2,14.8c0.4,0,0.7,0.1,1.1,0.1c-0.5-7.1-6-12.5-13.1-12.7c-0.6,0-0.7,0.9-0.1,1.1
				c5.8,1.9,9.3,7,9,13.2c0.3-0.1,0.7-0.2,1-0.3c-3.6-6.7-11.1-10-18.5-8.2c-0.6,0.2-0.4,1,0.1,1.1c14.9,1.4,16.3,18.4,20.7,29.3
				c3,7.4,8.8,12.8,16.1,15.8c16,6.8,35.3,1,43.8-14.5c8.6-15.8,3-32.6-9.4-44.3c-7.1-6.8-15.6-11.8-23.1-18.1
				c-4.2-3.5-8.3-7.9-9.6-13.4c-0.9-3.7-0.3-7.6,2.4-10.4c3.8-3.8,10.1-3.1,14.3-0.4c5.7,3.6,12.8,19.1,21.7,12.4
				c6.5-4.9,1.7-13.2-3.5-16.6c-0.6-0.4-1.2,0.6-0.6,1c3.3,2.2,5.9,5,5.9,9.1c-0.1,5.6-5.9,8-10.6,5.4c-4.7-2.6-6.8-8-10.9-11.2
				c-4.5-3.5-12-5-16.7-1c-5.1,4.4-3.8,12.4-0.8,17.5c3.9,6.6,10.7,10.9,16.7,15.3c15.2,11.1,31.8,25.5,26.3,46.5
				c-5.5,20.8-29.3,30.5-48.1,20.4c-5.2-2.8-9.7-7-12.2-12.5c-2.5-5.5-3.4-11.7-5.7-17.3c-3-7.2-8.4-13.5-16.6-14.2
				c0,0.4,0.1,0.7,0.1,1.1c6.9-1.7,13.9,1.3,17.2,7.6c0.3,0.5,1,0.2,1-0.3c0.3-6.6-3.6-12.2-9.8-14.2c0,0.4-0.1,0.7-0.1,1.1
				c6.5,0.2,11.6,5,12,11.5c0,0.6,1,0.8,1.1,0.1c0.5-3,0.5-5.9-0.5-8.7c-0.5-1.4-1.2-2.7-2-3.9c-0.9-1.2-3-3.4-0.1-1.5
				c5.1,3.3,4.3,9.8,6,14.8c1,3,2.8,5.7,4.9,8.1c8.1,9,23,16.8,30.6,3c6.9-12.5-3.2-25.1-13.3-31.9c-13.6-9.2-33.6-17.9-27.3-38.2
				c3.4-11,14-17.7,25.1-18.4c11.2-0.7,21.5,4.7,29.2,12.4C-72.4,351-71.6,350.2-72.1,349.7L-72.1,349.7z"/>
		</g>
	</g>
	<g id="XMLID_10686_">
		<g>
			<path class="st0" d="M-67.9,356.1c0.6-2.3,3.3-8.1-0.3-9.4c-2.4-0.8-3.8,1.6-3.1,3.6c0.3-0.2,0.6-0.4,0.9-0.5
				c-1.5-1.6-0.6-9.4-5.1-7.6c-0.3,0.1-0.4,0.3-0.4,0.5c-0.2,1.7-0.1,3.3,0.2,4.9c0.4-0.1,0.7-0.2,1.1-0.3c-0.9-2.3-2.8-9.3-6.6-7.3
				c-2.8,1.5-1,4.9,1.7,4.8c0.7,0,0.7-1.1,0-1.1c0.4-2,0.9-2.5,1.3-1.5c0.3,0.4,0.5,0.9,0.7,1.4c0.6,1.3,1.2,2.7,1.8,4
				c0.3,0.7,1.2,0.4,1.1-0.3c0-0.1-0.7-3.3-0.3-3.7c2.2-1.6,2.3,3,2.4,3.9c0.2,1.2,0.4,2,1.3,3c0.4,0.4,1.1,0,0.9-0.5
				c2-0.2,2.8,0.3,2.4,1.4c-0.1,0.5-0.2,1-0.4,1.4c-0.2,1-0.5,1.9-0.7,2.9C-69.1,356.5-68.1,356.8-67.9,356.1L-67.9,356.1z"/>
		</g>
	</g>
	<g id="XMLID_10687_">
		<g>
			<path class="st0" d="M-70.3,362.6c1.3,1.9,2.3,3.9,3,6.1c0.3-0.2,0.5-0.4,0.8-0.6c-1.7-1.2-3.4-2.3-5.1-3.5
				c-0.4-0.3-0.9,0.2-0.8,0.6c0.5,2.1,0.6,4.2,0.2,6.3c0.3-0.1,0.6-0.2,0.9-0.2c-1.3-1.2-2-2.7-2-4.5c0-0.7-1.1-0.7-1.1,0
				c0.1,2.1,0.9,3.9,2.4,5.3c0.3,0.3,0.9,0.2,0.9-0.2c0.4-2.3,0.4-4.6-0.2-6.9c-0.3,0.2-0.5,0.4-0.8,0.6c1.7,1.2,3.4,2.3,5.1,3.5
				c0.4,0.3,1-0.2,0.8-0.6c-0.7-2.3-1.8-4.4-3.1-6.4C-69.8,361.4-70.8,362-70.3,362.6L-70.3,362.6z"/>
		</g>
	</g>
	<g id="XMLID_10688_">
		<g>
			<path class="st0" d="M-75.3,355.8c-0.3-0.7-1.1-1.1-1.8-0.7c-0.2,0.1-0.3,0.3-0.3,0.5c0.1,0.9,1.2,1.4,1.8,0.7
				c0.5-0.5-0.3-1.3-0.8-0.8c0.1-0.1,0.1,0.1,0.1,0.1c-0.1,0.2-0.2,0.3-0.3,0.5c0,0,0.1,0,0.2,0C-76.1,356.7-75,356.5-75.3,355.8
				L-75.3,355.8z"/>
		</g>
	</g>
	<g id="XMLID_10689_">
		<g>
			<path class="st0" d="M-82.4,350c0-0.3,0-0.7,0-1c0-0.7-1.1-0.7-1.1,0c0,0.3,0,0.7,0,1C-83.5,350.8-82.4,350.8-82.4,350L-82.4,350
				z"/>
		</g>
	</g>
	<g id="XMLID_10690_">
		<g>
			<path class="st0" d="M-89.6,345.6c0-0.3,0-0.7,0-1c0-0.7-1.1-0.7-1.1,0c0,0.3,0,0.7,0,1C-90.7,346.3-89.6,346.3-89.6,345.6
				L-89.6,345.6z"/>
		</g>
	</g>
	<g id="XMLID_10691_">
		<g>
			<path class="st0" d="M-99.8,343.5c0-0.1,0.2,0.2,0.1,0.2c0.7,0.2,1-0.9,0.3-1.1c-0.9-0.3-1.7,0.7-1.2,1.5
				c0.5,0.8,1.7,0.5,1.9-0.3C-98.5,343.1-99.6,342.8-99.8,343.5L-99.8,343.5z"/>
		</g>
	</g>
	<g id="XMLID_10695_">
		<g>
			<path class="st0" d="M-119.4,344.3c4.7,3.3,3.7,9.8,0.6,13.8c-2.4,3.1-5.8,4.8-9.5,6c-0.7,0.2-0.4,1.3,0.3,1.1
				c5.1-1.7,10.1-4.6,12.1-9.9c1.7-4.3,0.9-9.2-3-12C-119.5,342.9-120,343.9-119.4,344.3L-119.4,344.3z"/>
		</g>
	</g>
	<g id="XMLID_10697_">
		<g>
			<path class="st0" d="M-121.6,361.9c-0.3-2.7,0.1-5.2,1.3-7.6c0.3-0.6-0.6-1.2-1-0.6c-1.3,2.6-1.8,5.3-1.5,8.2
				C-122.7,362.6-121.5,362.6-121.6,361.9L-121.6,361.9z"/>
		</g>
	</g>
	<g id="XMLID_10965_">
		<g>
			<path class="st0" d="M-124.4,362.8c-0.6-2.5-0.2-4.9,1.1-7.1c0.4-0.6-0.6-1.2-1-0.6c-1.4,2.4-1.8,5.2-1.2,7.9
				C-125.2,363.8-124.2,363.5-124.4,362.8L-124.4,362.8z"/>
		</g>
	</g>
	<g id="XMLID_10974_">
		<g>
			<path class="st0" d="M-124.2,377.8c0.7-2.1,4.2-2.5,6.1-2.5c2.1,0,4.3,0.8,5.9,2.2c3.2,2.7,4.1,7,2.7,10.9
				c-0.2,0.7,0.8,1,1.1,0.3c1.7-4.9,0-10.6-4.6-13.2c-3.2-1.8-10.7-2.5-12.2,1.9C-125.5,378.2-124.4,378.5-124.2,377.8L-124.2,377.8
				z"/>
		</g>
	</g>
	<g id="XMLID_10982_">
		<g>
			<path class="st0" d="M-108.5,383.7c-1.8-2-3.7-3.9-5.5-5.9c-0.5-0.5-1.3,0.3-0.8,0.8c1.8,2,3.7,3.9,5.5,5.9
				C-108.8,385-108,384.2-108.5,383.7L-108.5,383.7z"/>
		</g>
	</g>
	<g id="XMLID_10990_">
		<g>
			<path class="st0" d="M-108.7,386.3c-2.1-2-4.1-4.1-6.2-6.1c-0.5-0.5-1.3,0.3-0.8,0.8c2.1,2,4.1,4.1,6.2,6.1
				C-108.9,387.6-108.2,386.8-108.7,386.3L-108.7,386.3z"/>
		</g>
	</g>
	<g id="XMLID_10998_">
		<g>
			<path class="st0" d="M-96.6,397.5c5.5-1.5,11.7-0.2,15.2,4.5c1.6,2.1,2.4,4.5,1.9,7.1c-0.2,1.2-0.6,2.3-1.3,3.3
				c-0.4,0.6-4.6,3.7-4.4,2.2c0.1-0.7-1-0.7-1.1,0c-0.3,2.6,3.2,1.4,4.3,0.6c2.6-1.9,4-5.2,3.7-8.4c-0.8-8.9-11.2-12.4-18.7-10.4
				C-97.6,396.6-97.3,397.7-96.6,397.5L-96.6,397.5z"/>
		</g>
	</g>
	<g id="XMLID_11006_">
		<g>
			<path class="st0" d="M-79.7,412c-1-3-2.6-5.7-4.7-8.1c-0.5-0.5-1.3,0.2-0.8,0.8c2,2.2,3.4,4.8,4.4,7.6
				C-80.6,413-79.5,412.7-79.7,412L-79.7,412z"/>
		</g>
	</g>
	<g id="XMLID_11014_">
		<g>
			<path class="st0" d="M-82.1,414c-0.6-2.8-1.7-5.5-3.2-8c-0.4-0.6-1.3-0.1-1,0.6c1.4,2.4,2.5,5,3.1,7.7C-83,415-82,414.7-82.1,414
				L-82.1,414z"/>
		</g>
	</g>
	<g id="XMLID_11023_">
		<g>
			<path class="st0" d="M-86.6,424.4c4.7,5,6.4,13.9,0.7,19c-7.2,6.5-16.9-1-15.7-9.5c0.1-0.7-1-1-1.1-0.3
				c-1.2,8.1,6,15.7,14.3,12.5c9.5-3.6,8.4-16.4,2.5-22.6C-86.3,423.1-87.1,423.9-86.6,424.4L-86.6,424.4z"/>
		</g>
	</g>
	<g id="XMLID_11031_">
		<g>
			<path class="st0" d="M-102,439.4c3.1-0.2,6.2-0.4,9.4-0.6c0.7,0,0.7-1.2,0-1.1c-3.1,0.2-6.2,0.4-9.4,0.6
				C-102.7,438.4-102.7,439.5-102,439.4L-102,439.4z"/>
		</g>
	</g>
	<g id="XMLID_11039_">
		<g>
			<path class="st0" d="M-99.5,442.3c2.6,0,5.3,0,7.9,0c0.7,0,0.7-1.1,0-1.1c-2.6,0-5.3,0-7.9,0
				C-100.3,441.2-100.3,442.3-99.5,442.3L-99.5,442.3z"/>
		</g>
	</g>
</g>
</svg>
