<?xml version="1.0" encoding="utf-8"?>
<!-- Generator: Adobe Illustrator 19.0.0, SVG Export Plug-In . SVG Version: 6.00 Build 0)  -->
<svg version="1.1" id="Layer_1" xmlns="http://www.w3.org/2000/svg" xmlns:xlink="http://www.w3.org/1999/xlink" x="0px" y="0px"
	 viewBox="-205 297 200 200" style="enable-background:new -205 297 200 200;" xml:space="preserve">
<style type="text/css">
	.st0{fill:#E1F2F4;}
</style>
<g id="XMLID_56_">
	<g>
		<g>
			<g>
				<path class="st0" d="M-96.5,371.1c-0.8,2.4-0.8,5-0.2,7.3c0.6,2.3,2,4.4,4,6c2.4,1.9,4.6,1.7,6.4,0.2c1.8-1.4,3.2-4,4-6.3
					c0.8-2.2,1.3-5,1-7.4c-0.4-2.4-1.5-4.4-4.1-5.4c-2.9-1.2-5.4-0.3-7.4,1.4c-2,1.8-3.5,4.5-4.5,6.8c-0.2,0.4,0.5,0.8,0.7,0.3
					c0.8-2,2.1-4.4,3.8-6.1c1.7-1.7,3.9-2.7,6.5-2c2.7,0.7,3.9,2.6,4.3,4.9c0.4,2.3-0.1,5-0.9,7.1c-0.8,2.2-2.2,4.7-3.9,6
					c-1.8,1.3-3.8,1.4-6.2-0.8c-3.1-2.9-4.1-7.6-2.8-11.7C-95.6,371-96.3,370.7-96.5,371.1z"/>
			</g>
		</g>
		<g>
			<g>
				<path class="st0" d="M-97.4,376.5c0.1-8.6,0.4-17.9,3.1-26.7c0.2-0.8,0.6-1.8,0.7-2.8c0.1-1,0.1-1.9-0.5-2.7
					c-1.3-1.9-3.7-0.9-5,0.9c-2.1,3.1-2.7,7.6-3.1,11.1c-0.7,4.7-0.7,9.3-0.4,13.6c0.3,4.3,0.8,8.4,1.4,12.2
					c0.1,0.8,0.1,2.2,0.3,3.5c0.1,0.6,0.2,1.2,0.5,1.7c0.2,0.5,0.6,0.7,1.1,0.9c0.5,0.1,0.7-0.4,0.2-0.5c-0.7-0.1-0.9-2.4-1-2.9
					l-0.3-1.7c-0.2-1.3-0.4-2.7-0.6-4c-0.4-2.7-0.7-5.6-0.9-8.5c-0.4-6.4-0.3-13.4,1.7-20.4c0.2-1.1,0.9-3.8,1.8-4.4l4,0.8l-0.1,1.2
					c-0.1,0.8-0.5,1.6-0.7,2.4c-1,3-1.6,6-2.1,9.1c-0.8,6-0.9,11.9-0.9,17.5C-98.1,377-97.4,377-97.4,376.5z"/>
			</g>
		</g>
		<g>
			<g>
				<path class="st0" d="M-81.7,377.3c0.7-7,0.8-13.5,1.3-19.1c0.2-2.6,0.6-5,1.1-7.3c0-0.1,0.1-0.6,0.1-1.1
					c0.1-0.4,0.2-0.9,0.3-0.9c1-0.1,1.5,1,1.5,1.3c0.2,0.6,0.2,1.3,0.3,1.9c0.1,0.7,0.1,1.3,0.2,2c0.3,2.2,0.6,4.4,1,6.6
					c0.4,2.4,0.7,4.9,1,7.7c0.3,2.8,0.6,5.7,0.7,8.8c0.1,3.1,0.1,6.5-0.2,10c-0.2,1.3-0.3,2.6-0.5,3.9c-0.2,1.3-0.5,2.6-0.8,3.9
					c-1.7,6.6-4.3,12.7-6.3,18.8c-0.5,1.7-1.2,3.4-1.7,5.1c-0.6,1.7-1.1,3.4-1.8,5.1c-0.3,0.8-0.6,1.7-0.9,2.5
					c-0.3,0.8-0.7,1.7-1,2.5c-0.7,1.7-1.5,3.3-2.3,4.9c-3.3,6.3-7.6,12.2-12.9,17.4c-5.4,5.2-11.9,9.8-19.8,12.8
					c-4.5,1.7-9.6,2.8-15,3c-2.7,0.1-5.5-0.1-8.2-0.6l-2.1-0.4c-0.7-0.2-1.5-0.4-2.3-0.6c-1.5-0.4-2.9-1-4.3-1.6
					c-5.6-2.4-10.1-6-13.8-10.3c-3.6-4.3-6.5-9.5-7.7-15.7c-0.1-0.7-0.9-0.6-0.7,0.2c1,5,3.1,9.5,5.8,13.3c2.7,3.8,6,7.1,9.9,9.8
					c1,0.7,2,1.3,3.1,1.9c1.1,0.6,2.1,1.2,3.3,1.6c1.2,0.5,2.3,1,3.5,1.3l1.9,0.5l0.9,0.2c0.3,0.1,0.6,0.1,0.8,0.2
					c4.5,0.9,9,1.1,13.3,0.6c8.6-1,16-4.1,22.1-8.1c3.1-2,5.9-4.2,8.5-6.6c1.3-1.2,2.4-2.4,3.6-3.6c1.1-1.3,2.2-2.5,3.3-3.8
					c4.1-5.1,7.3-10.8,9.8-16.6c2.5-6,4.3-12.1,6.4-18.1c2.2-6.3,4.8-12.7,6-19.6c0.2-0.8,0.2-1.5,0.3-2.2l0.1-1.1
					c0-0.4,0.1-0.7,0.1-1.2c0.1-1.7,0.2-3.4,0.2-5c0-1.7,0-3.2-0.1-4.8c-0.1-1.5-0.2-3-0.3-4.5c-0.3-3.4-0.7-6.5-1.1-9.3
					c-0.4-2.5-0.8-5.1-1.1-7.7c0-0.3-0.1-1-0.1-1.7c0-0.4,0-0.8-0.1-1.2c0-0.4-0.1-0.8-0.1-1.2c-0.2-0.9-0.3-1.6-0.8-2.2
					c-0.4-0.6-1.1-1-2.1-1c-0.1,0-0.2,0.1-0.2,0.2c-0.5,1.9-0.9,3.9-1.2,6c-0.3,2.1-0.5,4.5-0.7,6.9c-0.1,2.5-0.3,5.1-0.4,7.7
					c-0.1,2.7-0.3,5.5-0.6,8.4C-82.5,377.6-81.8,377.7-81.7,377.3z"/>
			</g>
		</g>
		<g>
			<g>
				<path class="st0" d="M-102.1,387c0.1,0.2,0.2,0.4,0.3,0.5c3.6,6.2,3.9,13.7,1.8,20.5c-2.2,6.8-6.7,12.9-12.2,17.2
					c-2.8,2.3-5.9,4.1-8.9,5.7c-1.5,0.7-3,1.3-4.5,1.9c-1.5,0.5-3,0.9-4.4,1.2c-2.9,0.5-5.5,0.6-7.5,0.2c-1-0.2-1.9-0.4-2.6-0.8
					c-0.2-0.1-0.4-0.2-0.5-0.3c-0.2-0.1-0.4-0.2-0.4-0.3c-0.1-0.1-0.1-0.1-0.2-0.2c-0.1-0.1-0.1-0.2-0.2-0.3
					c-0.3-0.4-0.7-0.8-1.1-1.3c-0.4-0.5-0.6-1-0.7-1.4c-0.1-0.2-0.1-0.3-0.1-0.4c0,0,0,0,0,0c0,0,0,0,0,0l0,0c0,0-0.1,0-0.1,0
					c-0.3,0.1-0.7,0.2-1.1,0.3c-1.4,0.3-2.3,0.1-2.1,0.2c0,0,0,0,0,0c-0.2,0,0.5,0.1,1.8-0.1c0.1,0,0.2-0.1,0.5-0.1l0.3-0.1l0.1,0
					c0,0,0,0,0,0l0,0c0,0,0,0,0,0c0,0,0,0.1,0,0.1c0,0.1,0.1,0.1,0.1,0.2c0.1,0.3,0.4,0.8,0.7,1.3c0.3,0.5,0.7,0.9,1.1,1.4
					c0.2,0.2,0.4,0.4,0.6,0.5c0,0,0.1,0.1,0.1,0.2c0,0,0.1,0.1,0.1,0.1c0,0,0.1,0.1,0.1,0.1c0,0,0.1,0.1,0.2,0.1
					c0.7,0.4,1.6,0.7,2.6,0.9c2,0.5,4.6,0.5,7.6,0c2.8-0.4,5.9-1.3,8.9-2.6c3-1.4,6.2-3.1,9.1-5.2c5.7-4.3,10.8-10.2,13.2-17.3
					c2.6-7.2,2.4-15.3-1.3-21.9c-0.1-0.2-0.2-0.5-0.3-0.7C-101.6,386.4-102.3,386.6-102.1,387z"/>
			</g>
		</g>
		<g>
			<g>
				<path class="st0" d="M-146.8,429.7c0,0-0.1,0-0.1,0c0,0,0.2,0,0.2,0c0,0,0.3,0,0.5,0c0,0-0.1,0-0.1,0c0,0-0.1,0-0.1,0.1
					c0,0-0.2,0.1-0.2,0.2c0,0.1-0.1,0.2-0.2,0.3c0,0.2-0.2,0.5-0.1,0.9c0,1.5,0.9,3.5,2.3,5c0.7,0.7,1.4,1.5,2.2,1.9
					c0.2,0.2,0.5,0.3,0.8,0.4c0.3,0.1,0.6,0.3,0.9,0.4c0.3,0.1,0.6,0.2,0.9,0.3l1,0.3c1.1,0.2,2.3,0.4,3.7,0.8
					c0.4,0.2,2.2,0.7,2.6,1.4c0.5,1-0.5,1.7-1.1,2.3c-2.5,2.1-6.1,2-8.9,1c-0.4-0.1-0.8-0.3-1.1-0.4l-1-0.5
					c-0.3-0.1-0.6-0.4-0.9-0.6c-0.3-0.2-0.6-0.4-0.9-0.6c-1.1-0.9-2.2-1.9-3.1-2.9c-1-1.2-2-2.4-2.7-3.6c-0.7-1.3-1.3-2.5-1.8-3.7
					c-0.4-1.2-0.6-2.3-0.7-3.4c0-0.3,0.1-0.6-0.7-0.9c-0.7-0.2-1.2-0.2-1.7,0.1c-0.4,0.3-0.9,0.7-1,1.3c-0.1,0.3-0.2,0.6-0.3,0.9
					c-0.1,0.3-0.1,0.6-0.1,0.9c0,0.5,0,1,0,1.2c0,1.7,0.4,3.5,0.9,5.2c0.6,1.7,1.6,3.4,2.7,5c1.3,1.7,2.8,3.2,4.6,4.4
					c1.8,1.3,3.8,2.2,6,2.8c4.3,1.2,9,1.2,13.4,0.2c8.8-2,16.5-7.3,22.3-13.8c1.4-1.4,3.7-5.8,6.1-3.2c1.1,1.2,1.1,2.8,0.5,4.2
					c-0.3,0.7-0.7,1.5-1.1,2.2c-0.4,0.7-0.9,1.3-1.3,1.8c-0.4,0.5-0.7,1-1.1,1.5c-0.4,0.5-0.8,0.9-1.2,1.4c-0.8,0.9-1.7,1.8-2.7,2.6
					c-1.9,1.6-4,3-6.3,4.2c-2.4,1.3-4.9,2.4-7.5,3.3c-2.6,0.9-5.4,1.5-8.1,1.9c-2.8,0.4-5.7,0.6-8.6,0.5c-2.9-0.1-5.7-0.4-8.9-1.2
					c-5.9-1.5-11.3-4.3-16.1-8.4c-2.4-2-4.7-4.5-6.7-7.5c-2-3-3.7-6.5-4.6-10.6c-0.2-0.6-0.7-0.6-0.7,0.2c-0.3,3.9,0.3,7.5,1.3,11
					c0.2,0.7,0.9,0.5,0.7-0.2c-0.9-3.4-1.5-6.9-1.2-10.7l-0.7,0.2c0.2,0.8,0.4,1.6,0.6,2.4c0.3,0.8,0.5,1.5,0.8,2.2
					c0.5,1.5,1.3,2.8,2,4.1c0.7,1.3,1.5,2.4,2.3,3.6c0.9,1.1,1.7,2.2,2.6,3.1c3.6,3.8,7.6,6.6,11.9,8.7c1.1,0.5,2.1,1,3.3,1.4
					c0.6,0.2,1.1,0.4,1.7,0.6l1.7,0.5c1.1,0.4,2.4,0.6,3.6,0.8c1.2,0.2,2.3,0.3,3.4,0.4c4.5,0.3,9,0.1,13.2-0.7
					c8.4-1.5,16.3-4.9,22.3-10.4c2.5-2.4,5-5.3,6.3-8.5c0.4-0.9,0.6-1.9,0.6-2.8c-0.1-1-0.4-1.9-1.3-2.6c-1.5-1.3-3.1-0.9-4.2,0.3
					c-2.4,2.5-4.6,5.3-7.3,7.6c-2.8,2.4-5.9,4.6-9.3,6.2c-1.7,0.9-3.4,1.5-5.2,2.1c-1.8,0.5-3.6,1-5.5,1.2
					c-3.6,0.5-7.4,0.2-10.8-0.7c-3.4-1-6.4-3.1-8.7-5.5c-2.4-2.7-4.1-5.9-4.5-9.2c-0.3-1.4-0.2-2.7,0-3.9c0.1-0.3,0.2-0.9,0.4-1.3
					c0.2-0.4,0.6-0.7,1.2-0.5c0.2,0.1,0.3,0.2,0.4,0.3c0.1,0.1,0.2,0.3,0.2,0.4c0.1,0.3,0,0.7,0,0.9c0.8,4.8,4.6,10.6,10.1,14
					c0.5,0.3,1,0.5,1.5,0.8c0.6,0.2,1.2,0.5,1.8,0.6c1.2,0.3,2.6,0.5,3.9,0.4c2.6-0.2,5.1-1.5,6.5-4.1c0.1-0.2,0-0.4-0.1-0.6
					c-2.5-2.2-4.6-2.4-6.5-2.8c-1.3-0.3-2.5-0.6-3.6-1.2l-0.4-0.2l-0.3-0.2c-0.2-0.1-0.3-0.2-0.5-0.4c-0.2-0.2-0.3-0.3-0.5-0.4
					c-0.2-0.2-0.3-0.4-0.5-0.5c-0.7-0.7-1.3-1.6-1.7-2.5c-0.4-0.9-0.6-1.8-0.7-2.5c0-0.7,0.2-1.2,0.6-1.3c0.2,0-0.3,0-0.4,0
					c-0.1,0-0.2,0-0.3,0l-0.2,0c0,0,0,0-0.1,0c-0.1,0-0.2,0-0.3,0C-146.8,429.7-146.8,429.7-146.8,429.7
					C-146.8,429.7-146.8,429.7-146.8,429.7z"/>
			</g>
		</g>
		<g>
			<g>
				<path class="st0" d="M-122.6,458.5c-6.3,0.8-12.6,1.4-19.3,1.1c-1.7-0.1-3.3-0.2-5-0.5c-0.9-0.2-1.8-0.3-2.7-0.5
					c-0.9-0.2-1.8-0.4-2.6-0.6c-3.5-1-6.9-2.3-10.2-3.9c-0.4-0.2-0.8,0.2-0.5,0.5c2.5,2.6,5.4,4.9,8.8,6.6c0.9,0.4,1.8,0.8,2.7,1.1
					c0.9,0.4,1.9,0.6,2.8,0.9c0.5,0.1,1,0.3,1.4,0.4l1.3,0.2c0.9,0.2,1.8,0.3,2.7,0.4c3.6,0.3,7.1,0.1,10.4-0.7
					c3.3-0.7,6.3-1.9,9-3.4c0.5-0.3,0-0.9-0.5-0.6c-2.7,1.4-5.6,2.5-8.8,3.3c-3.2,0.7-6.6,1-10.1,0.6c-0.9-0.1-1.7-0.2-2.6-0.3
					l-1.3-0.2c-0.4-0.1-0.9-0.2-1.4-0.3c-0.9-0.3-1.9-0.5-2.7-0.9c-0.9-0.4-1.7-0.7-2.6-1.1c-3.3-1.7-6.2-3.8-8.6-6.4l-0.5,0.6
					c3.3,1.7,6.7,3,10.3,3.9c0.9,0.2,1.8,0.4,2.7,0.7c0.9,0.2,1.8,0.3,2.8,0.5c1.8,0.2,3.4,0.4,5.1,0.5c6.7,0.4,13.1-0.2,19.4-1
					C-122,459.2-122.1,458.4-122.6,458.5z"/>
			</g>
		</g>
		<g>
			<g>
				<path class="st0" d="M-119.8,435c-1.9,0.6-3.7,1.1-5.6,1.5c-1.2,0.2-3.3-0.1-4.2,0.7c-0.4,0.4-0.4,0.7-0.2,1.4
					c0.2,0.9,1,1.7,1.3,2.5c0.6,1.5,0.6,2.9,0.1,4.2c-0.1,0.3,0.2,0.6,0.4,0.5c2-0.6,3.8-1.6,5.4-2.9c1.6-1.3,2.9-2.9,3.9-4.8
					c0.3-0.6,0.8-1.4,0.3-2.2c-0.5-0.8-1.1-0.8-1.6-0.5c-0.3,0.2,0.2,0.8,0.5,0.6l0.6,0.9l-0.5,1c-0.2,0.4-0.5,0.8-0.8,1.3
					c-0.6,0.9-1.3,1.8-2.1,2.5c-1.7,1.6-3.7,2.7-5.9,3.4l0.4,0.5c0.4-1,0.5-2.2,0.3-3.4c-0.1-0.6-0.3-1.2-0.6-1.7
					c-0.1-0.3-0.8-1.3-0.9-1.6c-0.2-1.1,0.6-1.4,1.7-1.6c1-0.2,2.3-0.2,2.8-0.3c1.6-0.3,3.3-0.8,5-1.4
					C-119.1,435.6-119.5,434.9-119.8,435z"/>
			</g>
		</g>
	</g>
</g>
</svg>
