<?xml version="1.0" encoding="utf-8"?>
<!-- Generator: Adobe Illustrator 19.0.0, SVG Export Plug-In . SVG Version: 6.00 Build 0)  -->
<svg version="1.1" id="Layer_1" xmlns="http://www.w3.org/2000/svg" xmlns:xlink="http://www.w3.org/1999/xlink" x="0px" y="0px"
	 viewBox="-205 297 200 200" style="enable-background:new -205 297 200 200;" xml:space="preserve">
<style type="text/css">
	.st0{fill:#E1F2F4;}
	.st1{fill:#E2F2F4;}
</style>
<g id="XMLID_56_">
	<g id="XMLID_15914_">
		<g>
			<path class="st0" d="M-125.4,379.6c10.6,32.8,6.5,67.6,0.6,100.9c-0.1,0.5,0.6,0.7,0.7,0.2c5.9-33.4,10-68.3-0.6-101.3
				C-124.8,378.9-125.5,379.1-125.4,379.6L-125.4,379.6z"/>
		</g>
	</g>
	<g id="XMLID_15907_">
		<g>
			<path class="st0" d="M-91.1,374.9c3.2,30.4,2.4,60.9-2.3,91.1c-0.1,0.5,0.6,0.7,0.7,0.2c4.7-30.2,5.5-60.9,2.4-91.3
				C-90.4,374.5-91.2,374.5-91.1,374.9L-91.1,374.9z"/>
		</g>
	</g>
	<g id="XMLID_15900_">
		<g>
			<path class="st0" d="M-106.2,351c-3.5-2.3-8.7-3.5-12.6-1.4c-3.6,1.9-1.2,6.5,0.3,9.2c1.6,3,5.2,5.9,8.7,4.2
				c4-1.9,3.3-7,2.7-10.5c-0.1-0.5-0.8-0.3-0.7,0.2c0.6,3.2,1.4,8.7-2.9,9.9c-3.7,1.1-6.4-2.5-7.7-5.3c-0.5-1.2-1.6-3.4-1.5-4.7
				c0.3-2.5,3.6-3,5.4-3.1c2.9-0.2,5.6,0.7,8,2.3C-106.1,352-105.8,351.3-106.2,351L-106.2,351z"/>
		</g>
	</g>
	<g id="XMLID_15893_">
		<g>
			<path class="st0" d="M-107.2,353.6c1.7-6.4,0.6-22-9.6-19.8c-0.2,0-0.3,0.2-0.3,0.4c0,0.5,0.3,2.8-0.4,3.1
				c-0.9,0.4-1.2-1.1-1.6-1.7c-0.4-0.7-0.8-1.5-1.5-2c-1.3-0.8-2.5-0.4-3.4,0.8c-1.6,2.2-1.4,6.5-1.2,9c0.3,3.7,1.4,7.2,3,10.5
				c0.2,0.4,0.9,0.1,0.6-0.4c-1.2-2.4-2.1-4.9-2.6-7.6c-0.3-1.6-1.2-7.8,0-9.2c1.3-0.5,2.6-1,3.9-1.5c0.1,0.2,0.3,0.5,0.4,0.7
				c0.3,0.3,0.6,1.1,0.9,1.5c0.6,0.8,1,1.1,1.9,1.5c0.2,0.1,0.5-0.1,0.5-0.4c0-1,0.1-1.9,0.1-2.9c2.4-1.3,4.3-1.1,5.8,0.9
				c1.3,1.4,2.1,3.4,2.7,5.2c1.1,3.9,1,7.8,0,11.7C-108,353.8-107.3,354-107.2,353.6L-107.2,353.6z"/>
		</g>
	</g>
	<g id="XMLID_15879_">
		<g>
			<path class="st0" d="M-110.7,364.9c-3.2,5.8-3.7,12.4-3.9,18.8c-0.2,7.4,0.4,15,2.5,22.2c3.3,11.5,10.2,21.8,20.6,28
				c0.8,0.5,1.6-0.8,0.8-1.3c-10.1-6-16.8-16-19.9-27.1c-3.3-11.6-4.8-28.9,1.2-39.8C-108.9,364.8-110.2,364-110.7,364.9
				L-110.7,364.9z"/>
		</g>
	</g>
	<g id="XMLID_15867_">
		<g>
			<path class="st0" d="M-105.7,416.8c-3.2,7.1-8.3,12.9-15.1,16.8c-0.4,0.2,0,0.9,0.4,0.6c6.8-4,12.1-9.8,15.4-17
				C-104.8,416.7-105.5,416.3-105.7,416.8L-105.7,416.8z"/>
		</g>
	</g>
	<g id="XMLID_15825_">
		<path class="st1" d="M-114.5,356.2c-1.5-2-4.6-1.4-6.7,0c-2,1.4-3.8,3.4-6.2,3.8c2.1,0.9,4.2,1.9,6.5,1.8c2.3-0.1,4.7-1.4,5.1-3.6
			c0.1-0.7,0.1-1.4,0.4-2.1c0.4-1.1,1.6-1.7,2.7-2.1c1.1-0.4,2.2-0.8,3.4-0.7c3.4,0.2,6.4,3.9,9.7,2.9c0.1-0.4,0.3-0.7,0.4-1.1
			c0.3,1.5-0.8,3-2.2,3.5s-3,0.3-4.5,0c-3.2-0.8-6.2-2.2-8.8-4.2"/>
		<g>
			<path class="st0" d="M-114.2,355.9c-4.5-4.1-9.1,2.5-13.2,3.7c-0.3,0.1-0.4,0.6-0.1,0.7c3.5,1.5,9,3.5,11.6-0.7
				c0.6-0.9,0.3-1.6,0.7-2.3c2.3-4.9,6.9-3.3,10.7-1.7c1.8,0.8,3.1,1.3,5.1,1c0.1,0,0.2-0.1,0.3-0.3c-2.3,5.8-12.7-0.4-15.3-2.3
				c-0.4-0.3-0.8,0.4-0.4,0.6c3.2,2.3,16,8.9,16.1,0.4c0-0.4-0.6-0.5-0.7-0.1c-1,2.7-7.7-1.9-9.8-2c-1.7-0.1-4.5,0.7-5.7,2
				c-1.2,1.3-0.3,0.8-1,2.1c-1.8,3.4-3.8,5.5-8.1,3.9c-3.2-1.2-0.9-1.4,0.8-2.6c2.3-1.6,5.4-4.8,8.6-1.9
				C-114.4,356.8-113.9,356.2-114.2,355.9L-114.2,355.9z"/>
		</g>
	</g>
	<g id="XMLID_15818_">
		<g>
			<path class="st0" d="M-107.1,359.2c10.6,4.8,21.6,8.7,29.6,17.6c5.5,6.3,9.4,13.2,2.8,20.3c-4.1,4.3-9.7,7.5-15,9.9
				c-0.4,0.2-0.1,0.8,0.4,0.6c9.2-4.2,24.1-12.8,17.4-24.8c-7.4-13.3-21.6-18.5-34.7-24.4C-107.1,358.3-107.5,359-107.1,359.2
				L-107.1,359.2z"/>
		</g>
	</g>
	<g id="XMLID_15832_">
		<g>
			<path class="st0" d="M-119.3,362c-9.9,4.3-19,12-20.4,23.3c-0.6,4.5,0,7.9,3.5,10.8c4.9,4.1,10.4,7.8,16.5,10.1
				c0.5,0.2,0.6-0.6,0.2-0.7c-4.4-1.7-8.3-4-12.1-6.8c-3.5-2.6-6.8-4.4-7.5-9.3c-0.3-2.3,0.2-5,0.8-7.2c2.7-9.5,10.7-15.7,19.4-19.5
				C-118.5,362.5-118.9,361.8-119.3,362L-119.3,362z"/>
		</g>
	</g>
	<g id="XMLID_15839_">
		<g>
			<path class="st0" d="M-108.6,362.3c3.8,6.8-1.8,2.7-1.9,5.3c-0.1,1.6,0.3,2.7-0.1,4.4c-0.4,1.5-1.3,2-1.5,3.5
				c-0.1,1.1,1.4,2,0.7,3.7c-0.9,2.3-1.6,1.5-1.1,3.8c0.5,2.5,0,4.2-0.2,6.5c0,0.3,0.7,0.5,0.7,0.7c0.5,1.4,0.5,3.5,0.5,5.1
				c0,3.5-0.9-0.8-0.2,2.8c0.1,0.4,0.8,0.5,0.9,0.9c0.2,1.2,0.4,2.3,0.6,3.5c-0.3,0.4-0.5,0.9-0.7,1.4c0.1,0.5,0.1,1.2,0.2,1.7
				c0.1,0.3,0.9,0.3,1,0.6c0.4,0.8,1.2,2.6,1.4,3.5c0.3,1.4-0.6,0.8,0.1,2.4c0.2,0.4,1.1,0.3,1.2,0.6c0.5,0.9,0.5,2.4,0.7,3.6
				c0,0.1,0.1,0.2,0.3,0.3c0.3,0.1,0.6,0.2,0.9,0.3c1.5,0.7,2,1.7,1.5,2.9c0.1,0.3-0.1,0.9,0.1,1.1c0.9,0.9,0.9,0.2,1.8,0.9
				c3,2.1,0.4,1.6,1.6,2.8c0.8,0.8,0.8,0.4,1.7,1c0.8-0.6,1.3-0.4,1.4,0.6c0.3,0.3,0.4,0.6,0.3,0.9c0.2,0.2,0.2,0.8,0.5,1.1
				c1.3,1.1,1.4-0.4,2.4,0.2c1.9,1,0.4,1.9,1.5,3c0.6,0.6,2.1-0.3,2.5,0.1c0.3,0.3,0.9-0.2,0.5-0.5c-0.6-0.6-1,0-1.4-0.4
				c-0.2-0.2-1-0.7-1.2-1c-0.9-1.3,0.9-0.6-0.2-1.8c-1.1-1.2-3.5-0.2-3.3-2.4c0-0.1-0.1-0.3-0.2-0.3c0.9,0.6-1.1-0.6-0.9-0.4
				c-1.2,0.5-2,0-2.5-1.6c0-0.3,0.1-0.6,0.1-0.9c-1-1.1-0.4-0.2-1.5-1.1c-3.2-2.5-0.7-1.5-1.8-3.7c-0.8-1.7-2.1-0.1-2.8-2.8
				c-0.1-0.5,0.2-1.4,0.1-2.1c-0.1-0.3-0.7-0.3-0.8-0.5c-1,0.2-1.4-0.7-1.2-2.7c0.2-0.4,0.3-0.8,0.3-1.2c-0.5-1-0.9-1.1-1.4-2
				c-1.7-3-0.6-3.3-0.4-6c0-0.4-0.8-0.7-0.9-1c-1-1.6-1.3-3.2-0.6-4.6c0.3-0.4,0.5-0.9,0.5-1.3c-0.1-1.7-0.8-1.7-1.2-2.9
				c-1-3,0.7-3.5,0.7-5.9c0-0.2-1.1-1.7-0.8-0.9c-1.9-5.4-0.1-1.4,0.4-4.4c0.2-1.1,0.3-0.9,0.3-2c0-5.9-0.5-0.8,0.2-3.6
				c0.6-2.3,0.7,0.5,0.8-2c0-0.8-0.8-1.6-0.7-2.3c0.1-2.5,1.7-1.7,2.6-3.3c0.7-1.3-0.1-2.7-0.7-3.8
				C-108.2,361.5-108.9,361.9-108.6,362.3L-108.6,362.3z"/>
		</g>
	</g>
	<g id="XMLID_15846_">
		<g>
			<path class="st0" d="M-118,430.7c-0.2-0.7,2.8-0.2,3.4-0.6c1.5-1,0.1-2.5,2.3-3.7c0.5-0.3,0.9,0.2,1.3-0.4
				c0.4-0.6-0.2-0.8-0.2-1.3c0.1-1.6,1.1-0.5,1.8-1.6c0.7-1.1-0.9-1.5,1-2.2c0.5-0.2,0.9,0.2,1.4-0.3c1.2-1.3-1.8-2.2,0.8-3.7
				c0.4-0.2,0-0.9-0.4-0.6c-1.5,0.9-1.1,0.8-1.6,2.1c-1.2,3.4-0.4,0.6-1.8,2.1c-0.9,0.9,0.6,1.6-0.7,2.7c-0.6,0.5-1.4,0-1.6,1
				c0,0.1,0.4,1.2,0.4,1.1c-0.4,1.1-0.9,0.1-1.4,0.4c-0.8,0.4-0.9,0.7-1.3,1.5c0,0.3-0.1,0.6,0,1c-0.5,1.4-1.3,1.7-2.2,1.1
				c-0.3,0.1-0.8-0.1-1.1,0c-0.8,0.4-1,1-0.8,1.8C-118.6,431.3-117.9,431.1-118,430.7L-118,430.7z"/>
		</g>
	</g>
	<g id="XMLID_15853_">
		<g>
			<path class="st0" d="M-115,335.5c0.6,0,1.1,0.2,1.6,0.5c0.4,0.2,0.8-0.4,0.4-0.6c-0.6-0.3-1.3-0.5-2-0.6
				C-115.4,334.7-115.4,335.5-115,335.5L-115,335.5z"/>
		</g>
	</g>
	<g id="XMLID_15860_">
		<g>
			<path class="st0" d="M-112.2,336.6c0.3,0.5,0.6,0.9,1,1.4c0.3,0.4,0.9,0,0.6-0.4c-0.3-0.5-0.6-0.9-1-1.4
				C-111.9,335.9-112.5,336.2-112.2,336.6L-112.2,336.6z"/>
		</g>
	</g>
	<g id="XMLID_15886_">
		<g>
			<path class="st0" d="M-110.2,340c0.2,0.4,0.5,0.9,0.7,1.3c0.2,0.4,0.9,0,0.6-0.4c-0.2-0.4-0.5-0.9-0.7-1.3
				C-109.7,339.2-110.4,339.6-110.2,340L-110.2,340z"/>
		</g>
	</g>
	<g id="XMLID_15887_">
		<g>
			<path class="st0" d="M-108.7,343.4c0.2,0.6,0.3,1.1,0.5,1.7c0.1,0.5,0.9,0.3,0.7-0.2c-0.2-0.6-0.3-1.1-0.5-1.7
				C-108.1,342.8-108.8,343-108.7,343.4L-108.7,343.4z"/>
		</g>
	</g>
	<g id="XMLID_15888_">
		<g>
			<path class="st0" d="M-113.4,338.1c0.4,0.3,0.7,0.6,1,1c0.3,0.4,0.8-0.2,0.5-0.5c-0.3-0.4-0.7-0.8-1.2-1.1
				C-113.5,337.2-113.8,337.8-113.4,338.1L-113.4,338.1z"/>
		</g>
	</g>
	<g id="XMLID_15890_">
		<g>
			<path class="st0" d="M-110.5,342.5c0.2,0.3,0.3,0.6,0.5,0.8c0.2,0.4,0.9,0,0.6-0.4c-0.2-0.3-0.3-0.6-0.5-0.8
				C-110.1,341.7-110.7,342.1-110.5,342.5L-110.5,342.5z"/>
		</g>
	</g>
	<g id="XMLID_15892_">
		<g>
			<path class="st0" d="M-109,346.7c0.1,0.2,0.1,0.4,0.2,0.7c0.1,0.5,0.8,0.3,0.7-0.2c-0.1-0.2-0.1-0.4-0.2-0.7
				C-108.4,346.1-109.1,346.3-109,346.7L-109,346.7z"/>
		</g>
	</g>
	<g id="XMLID_15927_">
		<g>
			<path class="st0" d="M-110.5,345c0.1,0.6,0.1,1.1,0.2,1.7c0.1,0.5,0.8,0.5,0.8,0c-0.1-0.6-0.1-1.1-0.2-1.7
				C-109.8,344.5-110.6,344.5-110.5,345L-110.5,345z"/>
		</g>
	</g>
	<g id="XMLID_15952_">
		<g>
			<path class="st0" d="M-111.8,346.1c0.1,0.4,0.2,0.9,0.3,1.3c0.1,0.5,0.8,0.3,0.7-0.2c-0.1-0.4-0.2-0.9-0.3-1.3
				C-111.2,345.4-111.9,345.6-111.8,346.1L-111.8,346.1z"/>
		</g>
	</g>
	<g id="XMLID_15959_">
		<g>
			<path class="st0" d="M-112.1,343c0.2,0.4,0.4,0.8,0.7,1.2c0.2,0.4,0.9,0,0.6-0.4c-0.2-0.4-0.4-0.8-0.7-1.2
				C-111.7,342.2-112.4,342.6-112.1,343L-112.1,343z"/>
		</g>
	</g>
	<g id="XMLID_15966_">
		<g>
			<path class="st0" d="M-112.3,340.5c0.2,0.3,0.4,0.7,0.7,1c0.3,0.4,0.9,0,0.6-0.4c-0.2-0.3-0.4-0.7-0.7-1
				C-111.9,339.7-112.6,340.1-112.3,340.5L-112.3,340.5z"/>
		</g>
	</g>
	<g id="XMLID_15973_">
		<g>
			<path class="st0" d="M-114.1,339.2c0.2,0.3,0.4,0.6,0.7,0.8c0.3,0.4,0.8-0.2,0.5-0.5c-0.2-0.3-0.4-0.6-0.7-0.8
				C-113.8,338.3-114.4,338.9-114.1,339.2L-114.1,339.2z"/>
		</g>
	</g>
	<g id="XMLID_15980_">
		<g>
			<path class="st0" d="M-113.1,346.4c-0.1,0.3,0,0.6,0.2,0.9c0.4,0.3,0.9-0.2,0.5-0.5c0,0,0-0.1-0.1-0.1
				C-112.3,346.1-113,345.9-113.1,346.4L-113.1,346.4z"/>
		</g>
	</g>
	<g id="XMLID_15987_">
		<g>
			<path class="st0" d="M-122.3,349.4c-0.1,0.7,0.1,1.2,0.7,1.6c0.4,0.3,0.8-0.4,0.4-0.6c-0.2-0.2-0.4-0.5-0.3-0.7
				C-121.5,349.1-122.2,348.9-122.3,349.4L-122.3,349.4z"/>
		</g>
	</g>
	<g id="XMLID_15994_">
		<g>
			<path class="st0" d="M-121.1,349.2c0.1,0.2,0.2,0.3,0.3,0.5c0.3,0.4,0.9,0,0.6-0.4c-0.1-0.2-0.2-0.3-0.3-0.5
				C-120.7,348.4-121.4,348.8-121.1,349.2L-121.1,349.2z"/>
		</g>
	</g>
	<g id="XMLID_16001_">
		<g>
			<path class="st0" d="M-122.7,346.7c0.1,0.4,0.2,0.8,0.4,1.2c0.1,0.5,0.9,0.3,0.7-0.2c-0.1-0.4-0.2-0.8-0.4-1.2
				C-122.1,346.1-122.8,346.3-122.7,346.7L-122.7,346.7z"/>
		</g>
	</g>
	<g id="XMLID_16008_">
		<g>
			<path class="st0" d="M-123.7,342.5c-0.1,0.8,0.2,1.5,0.8,2.1c0.3,0.3,0.9-0.2,0.5-0.5c-0.4-0.4-0.6-1-0.6-1.6
				C-122.9,342-123.6,342-123.7,342.5L-123.7,342.5z"/>
		</g>
	</g>
	<g id="XMLID_16015_">
		<g>
			<path class="st0" d="M-106.4,361.7c0.8,0.3,1.6,0.6,2.4,1c0.4,0.2,0.6-0.5,0.2-0.7c-0.8-0.3-1.6-0.6-2.4-1
				C-106.7,360.8-106.8,361.6-106.4,361.7L-106.4,361.7z"/>
		</g>
	</g>
	<g id="XMLID_16022_">
		<g>
			<path class="st0" d="M-103,362.8c0.7,0.3,1.5,0.6,2.2,1c0.4,0.2,0.8-0.5,0.4-0.6c-0.7-0.3-1.5-0.6-2.2-1
				C-103,362-103.4,362.6-103,362.8L-103,362.8z"/>
		</g>
	</g>
	<g id="XMLID_16029_">
		<g>
			<path class="st0" d="M-98.9,364.8c0.6,0.2,1.1,0.5,1.7,0.7c0.4,0.2,0.8-0.5,0.4-0.6c-0.6-0.2-1.1-0.5-1.7-0.7
				C-99,363.9-99.4,364.6-98.9,364.8L-98.9,364.8z"/>
		</g>
	</g>
	<g id="XMLID_16036_">
		<g>
			<path class="st0" d="M-94.8,366.6c0.4,0.3,0.9,0.5,1.3,0.8c0.4,0.3,0.8-0.4,0.4-0.6c-0.4-0.3-0.9-0.5-1.3-0.8
				C-94.8,365.7-95.2,366.4-94.8,366.6L-94.8,366.6z"/>
		</g>
	</g>
	<g id="XMLID_16043_">
		<g>
			<path class="st0" d="M-89.9,369.2c0.3,0.6,0.9,1.1,1.6,1.3c0.5,0.2,0.6-0.6,0.2-0.7c-0.5-0.2-0.9-0.5-1.1-1
				C-89.5,368.4-90.2,368.7-89.9,369.2L-89.9,369.2z"/>
		</g>
	</g>
	<g id="XMLID_16050_">
		<g>
			<path class="st0" d="M-103.4,366c0.3,0.1,0.6,0.2,0.8,0.3c0.4,0.2,0.6-0.5,0.2-0.7c-0.3-0.1-0.6-0.2-0.8-0.3
				C-103.6,365.1-103.8,365.8-103.4,366L-103.4,366z"/>
		</g>
	</g>
	<g id="XMLID_16057_">
		<g>
			<path class="st0" d="M-100.3,366.7c0.7,0.5,1.5,0.9,2.3,1.2c0.5,0.1,0.7-0.6,0.2-0.7c-0.8-0.2-1.5-0.6-2.1-1.1
				C-100.3,365.7-100.7,366.4-100.3,366.7L-100.3,366.7z"/>
		</g>
	</g>
	<g id="XMLID_16064_">
		<g>
			<path class="st0" d="M-94.8,369.1c0.4,0.3,0.9,0.5,1.3,0.8c0.4,0.3,0.8-0.4,0.4-0.6c-0.4-0.3-0.9-0.5-1.3-0.8
				C-94.8,368.2-95.2,368.9-94.8,369.1L-94.8,369.1z"/>
		</g>
	</g>
	<g id="XMLID_16071_">
		<g>
			<path class="st0" d="M-90.6,372.2c0.6,0.8,1.4,1.4,2.4,1.7c0.5,0.1,0.7-0.6,0.2-0.7c-0.8-0.2-1.4-0.7-1.9-1.4
				C-90.2,371.4-90.9,371.8-90.6,372.2L-90.6,372.2z"/>
		</g>
	</g>
	<g id="XMLID_16078_">
		<g>
			<path class="st0" d="M-87,372c0.7,0.4,1.3,0.8,2,1.2c0.4,0.2,0.8-0.4,0.4-0.6c-0.7-0.4-1.3-0.8-2-1.2
				C-87,371.1-87.4,371.7-87,372L-87,372z"/>
		</g>
	</g>
	<g id="XMLID_16085_">
		<g>
			<path class="st0" d="M-84.1,372.3c0.4,0.8,1,1.5,1.7,2.1c0.4,0.3,0.9-0.2,0.5-0.5c-0.7-0.5-1.2-1.2-1.6-2
				C-83.6,371.5-84.3,371.9-84.1,372.3L-84.1,372.3z"/>
		</g>
	</g>
	<g id="XMLID_16092_">
		<g>
			<path class="st0" d="M-105.7,365.3c0.3,0.3,0.7,0.7,1,1c0.3,0.3,0.9-0.2,0.5-0.5c-0.3-0.3-0.7-0.7-1-1
				C-105.5,364.4-106.1,364.9-105.7,365.3L-105.7,365.3z"/>
		</g>
	</g>
	<g id="XMLID_16099_">
		<g>
			<path class="st0" d="M-106.1,367.9c0.2,0.3,0.3,0.7,0.5,1c0.2,0.4,0.9,0.1,0.6-0.4c-0.2-0.3-0.3-0.7-0.5-1
				C-105.7,367-106.4,367.4-106.1,367.9L-106.1,367.9z"/>
		</g>
	</g>
	<g id="XMLID_16106_">
		<g>
			<path class="st0" d="M-103.8,368.5c0.5,0.7,1.1,1.3,1.8,1.8c0.4,0.3,0.8-0.4,0.4-0.6c-0.6-0.4-1.1-0.9-1.5-1.6
				C-103.4,367.7-104,368.1-103.8,368.5L-103.8,368.5z"/>
		</g>
	</g>
	<g id="XMLID_16113_">
		<g>
			<path class="st0" d="M-101.5,368.4c0.6,0.6,1.2,1.1,1.8,1.7c0.4,0.3,0.9-0.2,0.5-0.5c-0.6-0.6-1.2-1.1-1.8-1.7
				C-101.4,367.6-101.9,368.1-101.5,368.4L-101.5,368.4z"/>
		</g>
	</g>
	<g id="XMLID_16120_">
		<g>
			<path class="st0" d="M-97.4,370.7c0.5,0.4,1,0.9,1.5,1.3c0.4,0.3,0.9-0.2,0.5-0.5c-0.5-0.4-1-0.9-1.5-1.3
				C-97.2,369.9-97.7,370.4-97.4,370.7L-97.4,370.7z"/>
		</g>
	</g>
	<g id="XMLID_16127_">
		<g>
			<path class="st0" d="M-94.6,374.3c0.1,0.2,0.2,0.4,0.3,0.7c0.2,0.4,0.9,0,0.6-0.4c-0.1-0.2-0.2-0.4-0.3-0.7
				C-94.2,373.5-94.8,373.9-94.6,374.3L-94.6,374.3z"/>
		</g>
	</g>
	<g id="XMLID_16134_">
		<g>
			<path class="st0" d="M-98.8,371.8c0.4,0.7,0.9,1.3,1.4,1.9c0.3,0.4,0.9-0.2,0.5-0.5c-0.5-0.5-0.9-1.1-1.3-1.7
				C-98.4,371.1-99,371.4-98.8,371.8L-98.8,371.8z"/>
		</g>
	</g>
	<g id="XMLID_16141_">
		<g>
			<path class="st0" d="M-100.5,371.7c0.1,0.7,0.3,1.4,0.7,2.1c0.2,0.4,0.9,0,0.6-0.4c-0.3-0.5-0.5-1.1-0.6-1.7
				C-99.8,371.2-100.5,371.2-100.5,371.7L-100.5,371.7z"/>
		</g>
	</g>
	<g id="XMLID_16148_">
		<g>
			<path class="st0" d="M-104.1,372.1c0.3,0.3,0.5,0.6,0.6,1c0.1,0.5,0.9,0.3,0.7-0.2c-0.1-0.5-0.4-1-0.8-1.3
				C-103.9,371.2-104.4,371.8-104.1,372.1L-104.1,372.1z"/>
		</g>
	</g>
	<g id="XMLID_16155_">
		<g>
			<path class="st0" d="M-106.6,370.7c0.3,0.5,0.5,1,0.6,1.6c0.1,0.5,0.8,0.3,0.7-0.2c-0.1-0.6-0.4-1.2-0.7-1.8
				C-106.2,369.9-106.9,370.3-106.6,370.7L-106.6,370.7z"/>
		</g>
	</g>
	<g id="XMLID_16162_">
		<g>
			<path class="st0" d="M-108.2,369c0.1,0.7,0.1,1.3,0.2,2c0,0.5,0.8,0.5,0.8,0c-0.1-0.7-0.1-1.3-0.2-2
				C-107.5,368.5-108.2,368.5-108.2,369L-108.2,369z"/>
		</g>
	</g>
	<g id="XMLID_16169_">
		<g>
			<path class="st0" d="M-109.3,376c0,0.3,0,0.7,0,1c0,0.5,0.8,0.5,0.8,0c0-0.3,0-0.7,0-1C-108.6,375.5-109.3,375.5-109.3,376
				L-109.3,376z"/>
		</g>
	</g>
	<g id="XMLID_16176_">
		<g>
			<path class="st0" d="M-107.5,374.5c-0.1,0.8,0.1,1.6,0.5,2.4c0.2,0.4,0.9,0,0.6-0.4c-0.3-0.6-0.5-1.3-0.4-2
				C-106.7,374-107.4,374-107.5,374.5L-107.5,374.5z"/>
		</g>
	</g>
	<g id="XMLID_16183_">
		<g>
			<path class="st0" d="M-105.3,374c0,0.7,0.1,1.3,0.4,1.9c0.2,0.4,0.9,0.3,0.7-0.2c-0.2-0.6-0.3-1.1-0.3-1.7
				C-104.6,373.5-105.3,373.5-105.3,374L-105.3,374z"/>
		</g>
	</g>
	<g id="XMLID_16190_">
		<g>
			<path class="st0" d="M-103,375.2c-0.2,0.8,0,1.6,0.6,2.2c0.3,0.4,0.8-0.2,0.5-0.5c-0.4-0.4-0.5-1-0.4-1.5
				C-102.1,375-102.9,374.8-103,375.2L-103,375.2z"/>
		</g>
	</g>
	<g id="XMLID_16197_">
		<g>
			<path class="st0" d="M-101.6,374.2c0.1,0.3,0.2,0.6,0.3,0.8c0.2,0.4,0.9,0.3,0.7-0.2c-0.1-0.3-0.2-0.6-0.3-0.8
				C-101.1,373.6-101.8,373.8-101.6,374.2L-101.6,374.2z"/>
		</g>
	</g>
	<g id="XMLID_16204_">
		<g>
			<path class="st0" d="M-98.3,377.7c0.6,1.4,1.2,2.8,1.8,4.2c0.2,0.4,0.8,0.1,0.6-0.4c-0.6-1.4-1.2-2.8-1.8-4.2
				C-97.8,376.9-98.5,377.2-98.3,377.7L-98.3,377.7z"/>
		</g>
	</g>
	<g id="XMLID_16211_">
		<g>
			<path class="st0" d="M-94.6,378.6c0.3,0.8,0.6,1.5,1,2.3c0.2,0.4,0.9,0,0.6-0.4c-0.4-0.7-0.7-1.3-1-2.1
				C-94.1,377.9-94.8,378.1-94.6,378.6L-94.6,378.6z"/>
		</g>
	</g>
	<g id="XMLID_16218_">
		<g>
			<path class="st0" d="M-92.4,378c0.2,0.4,0.3,0.8,0.5,1.2c0.2,0.4,0.8,0.1,0.6-0.4c-0.2-0.4-0.3-0.8-0.5-1.2
				C-92,377.2-92.6,377.6-92.4,378L-92.4,378z"/>
		</g>
	</g>
	<g id="XMLID_16225_">
		<g>
			<path class="st0" d="M-97.1,376.3c0.1,0.7,0.5,1.3,0.9,1.8c0.3,0.4,0.8-0.2,0.5-0.5c-0.4-0.4-0.6-0.9-0.7-1.5
				C-96.5,375.6-97.2,375.8-97.1,376.3L-97.1,376.3z"/>
		</g>
	</g>
	<g id="XMLID_16232_">
		<g>
			<path class="st0" d="M-88.4,376.3c0.4,0.7,0.8,1.3,1.2,2c0.2,0.4,0.9,0,0.6-0.4c-0.4-0.7-0.8-1.3-1.2-2
				C-88,375.5-88.7,375.9-88.4,376.3L-88.4,376.3z"/>
		</g>
	</g>
	<g id="XMLID_16239_">
		<g>
			<path class="st0" d="M-86,375.6c0.3,0.9,0.8,1.7,1.4,2.5c0.3,0.4,0.8-0.2,0.5-0.5c-0.5-0.7-0.9-1.4-1.2-2.2
				C-85.4,374.9-86.1,375.1-86,375.6L-86,375.6z"/>
		</g>
	</g>
	<g id="XMLID_16246_">
		<g>
			<path class="st0" d="M-82.6,377c0.4,0.9,1,1.6,1.7,2.3c0.4,0.3,0.9-0.2,0.5-0.5c-0.7-0.6-1.2-1.3-1.6-2.1
				C-82.2,376.2-82.8,376.6-82.6,377L-82.6,377z"/>
		</g>
	</g>
	<g id="XMLID_16253_">
		<g>
			<path class="st0" d="M-80,376.6c0.2,0.9,0.6,1.8,1.3,2.5c0.3,0.4,0.8-0.2,0.5-0.5c-0.6-0.6-0.9-1.4-1.1-2.2
				C-79.3,375.9-80.1,376.1-80,376.6L-80,376.6z"/>
		</g>
	</g>
	<g id="XMLID_16260_">
		<g>
			<path class="st0" d="M-75.9,381.5c0.4,0.6,0.6,1.2,0.8,1.9c0.1,0.5,0.8,0.3,0.7-0.2c-0.2-0.7-0.5-1.4-0.9-2.1
				C-75.5,380.7-76.2,381.1-75.9,381.5L-75.9,381.5z"/>
		</g>
	</g>
	<g id="XMLID_16267_">
		<g>
			<path class="st0" d="M-110,380.3c-0.1,0.7,0,1.4,0.1,2.1c0.1,0.5,0.8,0.3,0.7-0.2c-0.2-0.6-0.2-1.3-0.1-1.9
				C-109.2,379.8-109.9,379.9-110,380.3L-110,380.3z"/>
		</g>
	</g>
	<g id="XMLID_16274_">
		<g>
			<path class="st0" d="M-107.9,379.3c-0.1,0.6,0.1,1.2,0.4,1.7c0.3,0.4,0.9,0,0.6-0.4c-0.3-0.4-0.4-0.9-0.3-1.4
				C-107.1,378.9-107.9,378.9-107.9,379.3L-107.9,379.3z"/>
		</g>
	</g>
	<g id="XMLID_16281_">
		<g>
			<path class="st0" d="M-104.7,380.4c0.2,0.7,0.3,1.3,0.5,2c0.1,0.5,0.8,0.3,0.7-0.2c-0.2-0.7-0.3-1.3-0.5-2
				C-104.1,379.8-104.8,380-104.7,380.4L-104.7,380.4z"/>
		</g>
	</g>
	<g id="XMLID_16288_">
		<g>
			<path class="st0" d="M-101.8,380.4c0.1,0.7,0.4,1.3,0.7,1.9c0.2,0.4,0.9,0,0.6-0.4c-0.3-0.6-0.5-1.1-0.6-1.7
				C-101.2,379.7-101.9,379.9-101.8,380.4L-101.8,380.4z"/>
		</g>
	</g>
	<g id="XMLID_16295_">
		<g>
			<path class="st0" d="M-100.3,378.1c0.2,0.6,0.4,1.1,0.5,1.7c0.2,0.5,0.9,0.3,0.7-0.2c-0.2-0.6-0.4-1.1-0.5-1.7
				C-99.7,377.4-100.5,377.6-100.3,378.1L-100.3,378.1z"/>
		</g>
	</g>
	<g id="XMLID_16302_">
		<g>
			<path class="st0" d="M-98.5,383.6c0.3,0.9,0.7,1.8,1.2,2.6c0.3,0.4,0.9,0,0.6-0.4c-0.5-0.8-0.9-1.6-1.1-2.4
				C-97.9,382.9-98.6,383.1-98.5,383.6L-98.5,383.6z"/>
		</g>
	</g>
	<g id="XMLID_16309_">
		<g>
			<path class="st0" d="M-95,384.2c0.1,0.9,0.4,1.8,1.1,2.5c0.3,0.4,0.9-0.2,0.5-0.5c-0.5-0.5-0.8-1.2-0.9-1.9
				C-94.3,383.7-95,383.7-95,384.2L-95,384.2z"/>
		</g>
	</g>
	<g id="XMLID_16316_">
		<g>
			<path class="st0" d="M-92.5,383.3c0.2,1.2,0.5,2.3,1.1,3.4c0.2,0.4,0.9,0.1,0.6-0.4c-0.5-1-0.8-2.1-1-3.2
				C-91.8,382.6-92.6,382.8-92.5,383.3L-92.5,383.3z"/>
		</g>
	</g>
	<g id="XMLID_16323_">
		<g>
			<path class="st0" d="M-92.5,388.6c0.1,0.7,0.2,1.4,0.3,2.2c0.1,0.5,0.8,0.3,0.7-0.2c-0.1-0.7-0.2-1.4-0.3-2.2
				C-91.9,387.9-92.6,388.1-92.5,388.6L-92.5,388.6z"/>
		</g>
	</g>
	<g id="XMLID_16330_">
		<g>
			<path class="st0" d="M-95,387.9c0.2,0.6,0.3,1.2,0.5,1.8c0.1,0.5,0.8,0.3,0.7-0.2c-0.2-0.6-0.3-1.2-0.5-1.8
				C-94.4,387.3-95.1,387.5-95,387.9L-95,387.9z"/>
		</g>
	</g>
	<g id="XMLID_16337_">
		<g>
			<path class="st0" d="M-97.5,389.6c0.1,0.3,0.2,0.7,0.3,1c0.2,0.5,0.9,0.3,0.7-0.2c-0.1-0.3-0.2-0.7-0.3-1
				C-96.9,388.9-97.6,389.1-97.5,389.6L-97.5,389.6z"/>
		</g>
	</g>
	<g id="XMLID_16344_">
		<g>
			<path class="st0" d="M-100.2,385.9c0.2,0.8,0.4,1.6,0.7,2.3c0.1,0.5,0.9,0.3,0.7-0.2c-0.2-0.8-0.4-1.6-0.7-2.3
				C-99.6,385.3-100.3,385.5-100.2,385.9L-100.2,385.9z"/>
		</g>
	</g>
	<g id="XMLID_16351_">
		<g>
			<path class="st0" d="M-102.1,384.4c0.2,0.8,0.3,1.7,0.5,2.5c0.1,0.5,0.8,0.3,0.7-0.2c-0.2-0.8-0.3-1.7-0.5-2.5
				C-101.5,383.7-102.2,383.9-102.1,384.4L-102.1,384.4z"/>
		</g>
	</g>
	<g id="XMLID_16358_">
		<g>
			<path class="st0" d="M-105.2,384c0,1.2,0.2,2.4,0.7,3.5c0.2,0.4,0.8,0.1,0.6-0.4c-0.4-1-0.6-2.1-0.6-3.2
				C-104.4,383.5-105.1,383.5-105.2,384L-105.2,384z"/>
		</g>
	</g>
	<g id="XMLID_16365_">
		<g>
			<path class="st0" d="M-106.9,383.5c-0.3,0.9-0.2,1.8,0.3,2.6c0.2,0.4,0.9,0.1,0.6-0.4c-0.3-0.7-0.4-1.4-0.2-2.1
				C-106,383.3-106.7,383.1-106.9,383.5L-106.9,383.5z"/>
		</g>
	</g>
	<g id="XMLID_16372_">
		<g>
			<path class="st0" d="M-109.4,385.8c0.1,0.9,0.2,1.9,0.3,2.8c0,0.5,0.8,0.5,0.8,0c-0.1-0.9-0.2-1.9-0.3-2.8
				C-108.7,385.3-109.5,385.3-109.4,385.8L-109.4,385.8z"/>
		</g>
	</g>
	<g id="XMLID_16379_">
		<g>
			<path class="st0" d="M-108.2,390.9c0.2,0.7,0.3,1.4,0.5,2.2c0.1,0.5,0.8,0.3,0.7-0.2c-0.2-0.7-0.3-1.4-0.5-2.2
				C-107.5,390.3-108.3,390.5-108.2,390.9L-108.2,390.9z"/>
		</g>
	</g>
	<g id="XMLID_16386_">
		<g>
			<path class="st0" d="M-106.5,389.2c0,0.8,0.2,1.5,0.6,2.2c0.2,0.4,0.9,0,0.6-0.4c-0.3-0.6-0.5-1.2-0.4-1.8
				C-105.7,388.7-106.5,388.7-106.5,389.2L-106.5,389.2z"/>
		</g>
	</g>
	<g id="XMLID_16393_">
		<g>
			<path class="st0" d="M-104.1,391.4c0.1,0.9,0.5,1.7,1,2.4c0.3,0.4,0.9,0,0.6-0.4c-0.5-0.7-0.8-1.4-1-2.2
				C-103.5,390.8-104.2,391-104.1,391.4L-104.1,391.4z"/>
		</g>
	</g>
	<g id="XMLID_16400_">
		<g>
			<path class="st0" d="M-89.3,381c0.3,0.6,0.6,1.2,0.8,1.8c0.2,0.4,0.8,0.1,0.6-0.4c-0.3-0.6-0.6-1.2-0.8-1.8
				C-88.8,380.2-89.5,380.6-89.3,381L-89.3,381z"/>
		</g>
	</g>
	<g id="XMLID_16407_">
		<g>
			<path class="st0" d="M-86.5,381.9c0.1,0.5,0.3,0.8,0.6,1.2c0.3,0.4,0.8-0.2,0.5-0.5c-0.2-0.2-0.3-0.5-0.4-0.8
				C-85.8,381.2-86.5,381.5-86.5,381.9L-86.5,381.9z"/>
		</g>
	</g>
	<g id="XMLID_16414_">
		<g>
			<path class="st0" d="M-83.8,381.1c0.2,1,0.6,1.8,1.3,2.5c0.3,0.4,0.9-0.2,0.5-0.5c-0.6-0.6-0.9-1.3-1.1-2.2
				C-83.2,380.4-83.9,380.6-83.8,381.1L-83.8,381.1z"/>
		</g>
	</g>
	<g id="XMLID_16421_">
		<g>
			<path class="st0" d="M-80.5,382.1c0.2,0.5,0.4,1,0.5,1.5c0.2,0.5,0.9,0.3,0.7-0.2c-0.2-0.5-0.4-1-0.5-1.5
				C-79.9,381.5-80.7,381.6-80.5,382.1L-80.5,382.1z"/>
		</g>
	</g>
	<g id="XMLID_16428_">
		<g>
			<path class="st0" d="M-78.7,382.1c0.2,0.6,0.5,1.2,0.9,1.7c0.3,0.4,0.9,0,0.6-0.4c-0.4-0.5-0.6-1-0.8-1.6
				C-78.1,381.4-78.8,381.6-78.7,382.1L-78.7,382.1z"/>
		</g>
	</g>
	<g id="XMLID_16435_">
		<g>
			<path class="st0" d="M-82.8,387.3c0.2,1.1,0.1,2.2-0.2,3.3c-0.1,0.5,0.6,0.7,0.7,0.2c0.4-1.2,0.4-2.4,0.2-3.7
				C-82.1,386.6-82.8,386.8-82.8,387.3L-82.8,387.3z"/>
		</g>
	</g>
	<g id="XMLID_16442_">
		<g>
			<path class="st0" d="M-84.5,386.2c0.1,0.7,0.1,1.4,0.2,2.2c0,0.5,0.8,0.5,0.8,0c-0.1-0.7-0.1-1.4-0.2-2.2
				C-83.8,385.7-84.5,385.7-84.5,386.2L-84.5,386.2z"/>
		</g>
	</g>
	<g id="XMLID_16449_">
		<g>
			<path class="st0" d="M-87,385.6c0.3,0.7,0.4,1.4,0.5,2.1c0,0.5,0.8,0.5,0.8,0c0-0.8-0.2-1.5-0.5-2.3
				C-86.4,384.9-87.1,385.1-87,385.6L-87,385.6z"/>
		</g>
	</g>
	<g id="XMLID_16456_">
		<g>
			<path class="st0" d="M-86.5,390.9c-0.1,0.6-0.3,1.1-0.6,1.6c-0.2,0.4,0.4,0.8,0.6,0.4c0.3-0.6,0.5-1.1,0.7-1.8
				C-85.7,390.6-86.4,390.4-86.5,390.9L-86.5,390.9z"/>
		</g>
	</g>
	<g id="XMLID_16463_">
		<g>
			<path class="st0" d="M-84.9,393.5c-0.2,0.3-0.4,0.7-0.7,1c-0.3,0.4,0.4,0.8,0.6,0.4c0.2-0.3,0.4-0.7,0.7-1
				C-84,393.5-84.7,393.1-84.9,393.5L-84.9,393.5z"/>
		</g>
	</g>
	<g id="XMLID_16470_">
		<g>
			<path class="st0" d="M-83.9,396.3c-0.3,0.6-0.7,1-1.2,1.4c-0.4,0.3,0,0.9,0.4,0.6c0.6-0.4,1.1-0.9,1.5-1.6
				C-83.1,396.3-83.7,395.9-83.9,396.3L-83.9,396.3z"/>
		</g>
	</g>
	<g id="XMLID_16477_">
		<g>
			<path class="st0" d="M-77.2,391.4c-0.5,0.7-1,1.3-1.6,2c-0.3,0.4,0.2,0.9,0.5,0.5c0.5-0.7,1-1.3,1.6-2
				C-76.3,391.6-76.9,391-77.2,391.4L-77.2,391.4z"/>
		</g>
	</g>
	<g id="XMLID_16484_">
		<g>
			<path class="st0" d="M-74.3,391.5c-0.3,0.6-0.5,1.1-0.8,1.7c-0.2,0.4,0.4,0.8,0.6,0.4c0.3-0.6,0.5-1.1,0.8-1.7
				C-73.4,391.4-74,391-74.3,391.5L-74.3,391.5z"/>
		</g>
	</g>
	<g id="XMLID_16491_">
		<g>
			<path class="st0" d="M-73.3,386.3c0.2,0.8,0.2,1.5,0,2.3c-0.1,0.5,0.6,0.7,0.7,0.2c0.3-0.9,0.3-1.8,0-2.7
				C-72.7,385.6-73.4,385.8-73.3,386.3L-73.3,386.3z"/>
		</g>
	</g>
	<g id="XMLID_16498_">
		<g>
			<path class="st0" d="M-75.5,388c0,0.6,0,1.2,0,1.8c0,0.5,0.8,0.5,0.8,0c0-0.6,0-1.2,0-1.8C-74.7,387.5-75.5,387.5-75.5,388
				L-75.5,388z"/>
		</g>
	</g>
	<g id="XMLID_16505_">
		<g>
			<path class="st0" d="M-78.1,388.4c-0.2,0.5-0.3,1-0.5,1.5c-0.1,0.5,0.6,0.7,0.7,0.2c0.2-0.5,0.3-1,0.5-1.5
				C-77.3,388.1-78,387.9-78.1,388.4L-78.1,388.4z"/>
		</g>
	</g>
	<g id="XMLID_16512_">
		<g>
			<path class="st0" d="M-80.3,390.3c-0.1,1.3-0.8,2.5-1.7,3.4c-0.4,0.3,0.2,0.9,0.5,0.5c1.1-1,1.8-2.4,2-3.9
				C-79.5,389.8-80.3,389.9-80.3,390.3L-80.3,390.3z"/>
		</g>
	</g>
	<g id="XMLID_16519_">
		<g>
			<path class="st0" d="M-80.4,385.8c0.1,0.8,0.1,1.6,0.2,2.3c0,0.5,0.8,0.5,0.8,0c-0.1-0.8-0.1-1.6-0.2-2.3
				C-79.7,385.3-80.4,385.3-80.4,385.8L-80.4,385.8z"/>
		</g>
	</g>
	<g id="XMLID_16526_">
		<g>
			<path class="st0" d="M-76.6,385.1c0.2,0.7,0.2,1.5,0.1,2.2c0,0.5,0.7,0.5,0.8,0c0.1-0.8,0-1.6-0.2-2.4
				C-76,384.4-76.7,384.6-76.6,385.1L-76.6,385.1z"/>
		</g>
	</g>
	<g id="XMLID_16533_">
		<g>
			<path class="st0" d="M-77.4,395.1c-0.3,0.9-1,1.7-1.8,2.2c-0.4,0.3,0,0.9,0.4,0.6c1-0.6,1.7-1.6,2.1-2.7
				C-76.5,394.8-77.2,394.6-77.4,395.1L-77.4,395.1z"/>
		</g>
	</g>
	<g id="XMLID_16540_">
		<g>
			<path class="st0" d="M-78.9,399.4c-0.6,0.4-1.2,0.7-1.9,1.1c-0.4,0.2,0,0.9,0.4,0.6c0.6-0.4,1.2-0.7,1.9-1.1
				C-78.1,399.8-78.5,399.1-78.9,399.4L-78.9,399.4z"/>
		</g>
	</g>
	<g id="XMLID_16547_">
		<g>
			<path class="st0" d="M-81.4,398.1c-0.3,0.3-0.7,0.7-1,1c-0.3,0.3,0.2,0.9,0.5,0.5c0.3-0.3,0.7-0.7,1-1
				C-80.5,398.3-81,397.7-81.4,398.1L-81.4,398.1z"/>
		</g>
	</g>
	<g id="XMLID_16554_">
		<g>
			<path class="st0" d="M-84.6,402.4c-0.6,0.4-1.2,0.6-1.9,0.7c-0.5,0.1-0.3,0.8,0.2,0.7c0.8-0.1,1.5-0.4,2.1-0.8
				C-83.8,402.8-84.2,402.1-84.6,402.4L-84.6,402.4z"/>
		</g>
	</g>
	<g id="XMLID_16561_">
		<g>
			<path class="st0" d="M-85.8,401.2c-0.2,0.1-0.4,0.2-0.7,0.3c-0.4,0.2-0.1,0.9,0.4,0.6c0.2-0.1,0.4-0.2,0.7-0.3
				C-85,401.6-85.4,401-85.8,401.2L-85.8,401.2z"/>
		</g>
	</g>
	<g id="XMLID_16568_">
		<g>
			<path class="st0" d="M-87.1,398.7c-0.3,0.2-0.6,0.4-0.8,0.7c-0.4,0.3,0.2,0.8,0.5,0.5c0.3-0.2,0.6-0.4,0.8-0.7
				C-86.1,398.9-86.7,398.4-87.1,398.7L-87.1,398.7z"/>
		</g>
	</g>
	<g id="XMLID_16575_">
		<g>
			<path class="st0" d="M-87.6,396.2c-0.2,0.2-0.4,0.4-0.6,0.5c-0.5,0.1-0.3,0.9,0.2,0.7c0.5-0.1,0.8-0.4,1.1-0.8
				C-86.7,396.1-87.3,395.8-87.6,396.2L-87.6,396.2z"/>
		</g>
	</g>
	<g id="XMLID_16582_">
		<g>
			<path class="st0" d="M-92.5,393.5c-0.1,0.7,0,1.3,0.1,1.9c0.1,0.5,0.8,0.3,0.7-0.2c-0.2-0.6-0.2-1.1-0.1-1.7
				C-91.7,393-92.4,393-92.5,393.5L-92.5,393.5z"/>
		</g>
	</g>
	<g id="XMLID_16589_">
		<g>
			<path class="st0" d="M-96.1,393.6c-0.1,0.8,0,1.4,0.4,2.1c0.2,0.4,0.9,0,0.6-0.4c-0.3-0.5-0.4-1-0.3-1.5
				C-95.3,393.3-96.1,393.1-96.1,393.6L-96.1,393.6z"/>
		</g>
	</g>
	<g id="XMLID_16596_">
		<g>
			<path class="st0" d="M-98.7,393.4c0.1,0.4,0.2,0.9,0.3,1.3c0.1,0.5,0.8,0.3,0.7-0.2c-0.1-0.4-0.2-0.9-0.3-1.3
				C-98.1,392.8-98.8,393-98.7,393.4L-98.7,393.4z"/>
		</g>
	</g>
	<g id="XMLID_16603_">
		<g>
			<path class="st0" d="M-101.2,390.3c0.1,0.7,0.2,1.3,0.6,1.9c0.2,0.4,0.9,0,0.6-0.4c-0.3-0.5-0.4-0.9-0.5-1.5
				C-100.5,389.9-101.2,389.8-101.2,390.3L-101.2,390.3z"/>
		</g>
	</g>
	<g id="XMLID_16610_">
		<g>
			<path class="st0" d="M-104,396.2c0,0.8,0.1,1.5,0.4,2.3c0.2,0.4,0.9,0.3,0.7-0.2c-0.3-0.7-0.4-1.3-0.3-2.1
				C-103.2,395.7-104,395.7-104,396.2L-104,396.2z"/>
		</g>
	</g>
	<g id="XMLID_16617_">
		<g>
			<path class="st0" d="M-106.6,394.6c-0.2,0.8-0.1,1.5,0.3,2.2c0.2,0.4,0.9,0.1,0.6-0.4c-0.2-0.5-0.3-1-0.2-1.6
				C-105.8,394.3-106.5,394.1-106.6,394.6L-106.6,394.6z"/>
		</g>
	</g>
	<g id="XMLID_16624_">
		<g>
			<path class="st0" d="M-108.5,396.3c-0.1,0.8,0.2,1.5,0.8,2.1c0.3,0.4,0.9-0.2,0.5-0.5c-0.4-0.4-0.6-1-0.5-1.6
				C-107.7,395.9-108.5,395.9-108.5,396.3L-108.5,396.3z"/>
		</g>
	</g>
	<g id="XMLID_16631_">
		<g>
			<path class="st0" d="M-107.2,402.5c0,0.7,0.1,1.3,0.4,1.9c0.2,0.4,0.9,0.3,0.7-0.2c-0.2-0.6-0.3-1.1-0.3-1.7
				C-106.4,402-107.2,402-107.2,402.5L-107.2,402.5z"/>
		</g>
	</g>
	<g id="XMLID_16638_">
		<g>
			<path class="st0" d="M-105,401.5c-0.1,0.9,0.1,1.8,0.7,2.5c0.3,0.4,0.9,0,0.6-0.4c-0.5-0.6-0.7-1.4-0.6-2.2
				C-104.2,401-104.9,401-105,401.5L-105,401.5z"/>
		</g>
	</g>
	<g id="XMLID_16645_">
		<g>
			<path class="st0" d="M-101.7,399.8c-0.1,0.5,0.1,1,0.4,1.4c0.3,0.4,0.8-0.2,0.5-0.5c-0.2-0.3-0.3-0.6-0.2-0.9
				C-100.8,399.4-101.6,399.4-101.7,399.8L-101.7,399.8z"/>
		</g>
	</g>
	<g id="XMLID_16652_">
		<g>
			<path class="st0" d="M-100.2,396.9c0.1,0.9,0.4,1.7,0.7,2.5c0.2,0.4,0.9,0.3,0.7-0.2c-0.3-0.8-0.5-1.6-0.7-2.5
				C-99.5,396.3-100.2,396.5-100.2,396.9L-100.2,396.9z"/>
		</g>
	</g>
	<g id="XMLID_16659_">
		<g>
			<path class="st0" d="M-96.9,400.1c0.2,0.6,0.4,1.2,0.5,1.8c0.1,0.5,0.9,0.3,0.7-0.2c-0.2-0.6-0.4-1.2-0.5-1.8
				C-96.3,399.5-97,399.7-96.9,400.1L-96.9,400.1z"/>
		</g>
	</g>
	<g id="XMLID_16666_">
		<g>
			<path class="st0" d="M-93.8,399.9c0.2,0.9,0.6,1.8,1.2,2.5c0.3,0.4,0.8-0.2,0.5-0.5c-0.5-0.6-0.8-1.4-1-2.2
				C-93.1,399.3-93.9,399.5-93.8,399.9L-93.8,399.9z"/>
		</g>
	</g>
	<g id="XMLID_16673_">
		<g>
			<path class="st0" d="M-91.3,398.5c0,0.6,0.1,1.1,0.4,1.7c0.2,0.4,0.9,0.1,0.6-0.4c-0.2-0.4-0.3-0.8-0.3-1.3
				C-90.6,398-91.3,398-91.3,398.5L-91.3,398.5z"/>
		</g>
	</g>
	<g id="XMLID_16680_">
		<g>
			<path class="st0" d="M-91.5,405.2c0,0.8,0.1,1.7,0.4,2.5c0.2,0.5,0.9,0.3,0.7-0.2c-0.2-0.7-0.4-1.5-0.4-2.3
				C-90.7,404.7-91.5,404.7-91.5,405.2L-91.5,405.2z"/>
		</g>
	</g>
	<g id="XMLID_16687_">
		<g>
			<path class="st0" d="M-94,405.3c0.1,0.7,0.2,1.3,0.4,2c0.1,0.5,0.8,0.3,0.7-0.2c-0.1-0.7-0.2-1.3-0.4-2
				C-93.4,404.6-94.1,404.8-94,405.3L-94,405.3z"/>
		</g>
	</g>
	<g id="XMLID_16694_">
		<g>
			<path class="st0" d="M-96.5,405.3c0,0.6,0.1,1.2,0.3,1.7c0.2,0.4,0.9,0.1,0.6-0.4c-0.2-0.4-0.3-0.9-0.2-1.3
				C-95.7,404.9-96.5,404.9-96.5,405.3L-96.5,405.3z"/>
		</g>
	</g>
	<g id="XMLID_16701_">
		<g>
			<path class="st0" d="M-99.6,404.2c0.1,0.2,0.2,0.5,0.1,0.7c-0.1,0.5,0.6,0.7,0.7,0.2c0.1-0.5,0-0.9-0.2-1.3
				C-99.2,403.4-99.8,403.8-99.6,404.2L-99.6,404.2z"/>
		</g>
	</g>
	<g id="XMLID_16708_">
		<g>
			<path class="st0" d="M-101.3,406.8c0.2,0.6,0.5,1.2,0.7,1.8c0.2,0.4,0.9,0.3,0.7-0.2c-0.2-0.6-0.5-1.2-0.7-1.8
				C-100.8,406.1-101.5,406.3-101.3,406.8L-101.3,406.8z"/>
		</g>
	</g>
	<g id="XMLID_16715_">
		<g>
			<path class="st0" d="M-104.7,406.9c0.3,1,0.8,2,1.4,2.9c0.3,0.4,0.9,0,0.6-0.4c-0.6-0.9-1-1.8-1.3-2.7
				C-104.1,406.3-104.8,406.5-104.7,406.9L-104.7,406.9z"/>
		</g>
	</g>
	<g id="XMLID_16722_">
		<g>
			<path class="st0" d="M-101.8,413.3c0.3,0.8,0.7,1.6,1,2.3c0.2,0.4,0.9,0.2,0.7-0.2c-0.3-0.8-0.7-1.6-1-2.3
				C-101.3,412.6-102,412.8-101.8,413.3L-101.8,413.3z"/>
		</g>
	</g>
	<g id="XMLID_16729_">
		<g>
			<path class="st0" d="M-99.3,412.5c0.4,0.6,0.8,1.2,1.2,1.8c0.3,0.4,0.9,0,0.6-0.4c-0.4-0.6-0.8-1.2-1.2-1.8
				C-98.9,411.7-99.5,412.1-99.3,412.5L-99.3,412.5z"/>
		</g>
	</g>
	<g id="XMLID_16736_">
		<g>
			<path class="st0" d="M-96.8,409.9c0.2,0.6,0.4,1.1,0.6,1.7c0.2,0.5,0.9,0.3,0.7-0.2c-0.2-0.6-0.4-1.1-0.6-1.7
				C-96.2,409.3-96.9,409.5-96.8,409.9L-96.8,409.9z"/>
		</g>
	</g>
	<g id="XMLID_16743_">
		<g>
			<path class="st0" d="M-93,412.6c0.1,0.4,0.2,0.8,0.3,1.2c0.1,0.5,0.9,0.3,0.7-0.2c-0.1-0.4-0.2-0.8-0.3-1.2
				C-92.4,411.9-93.1,412.1-93,412.6L-93,412.6z"/>
		</g>
	</g>
	<g id="XMLID_16750_">
		<g>
			<path class="st0" d="M-91.2,410.4c0.2,0.9,0.3,1.8,0.5,2.7c0.1,0.5,0.8,0.3,0.7-0.2c-0.2-0.9-0.3-1.8-0.5-2.7
				C-90.5,409.8-91.2,410-91.2,410.4L-91.2,410.4z"/>
		</g>
	</g>
	<g id="XMLID_16757_">
		<g>
			<path class="st0" d="M-101,418.3c0.3,0.3,0.6,0.7,0.9,1c0.3,0.4,0.9-0.2,0.5-0.5c-0.3-0.3-0.6-0.7-0.9-1
				C-100.8,417.4-101.3,417.9-101,418.3L-101,418.3z"/>
		</g>
	</g>
	<g id="XMLID_16764_">
		<g>
			<path class="st0" d="M-98.7,417.2c0.5,0.9,1.1,1.7,1.9,2.4c0.4,0.3,0.9-0.2,0.5-0.5c-0.7-0.7-1.3-1.4-1.7-2.3
				C-98.3,416.4-99,416.8-98.7,417.2L-98.7,417.2z"/>
		</g>
	</g>
	<g id="XMLID_16771_">
		<g>
			<path class="st0" d="M-95.6,416.3c0.2,0.8,0.6,1.4,1.1,2c0.3,0.4,0.8-0.2,0.5-0.5c-0.4-0.5-0.7-1.1-0.9-1.7
				C-95,415.6-95.8,415.8-95.6,416.3L-95.6,416.3z"/>
		</g>
	</g>
	<g id="XMLID_16778_">
		<g>
			<path class="st0" d="M-92,418.4c0.1,0.7,0.4,1.3,0.7,1.9c0.2,0.4,0.9,0,0.6-0.4c-0.3-0.5-0.5-1.1-0.6-1.7
				C-91.3,417.8-92.1,418-92,418.4L-92,418.4z"/>
		</g>
	</g>
	<g id="XMLID_16785_">
		<g>
			<path class="st0" d="M-91,416.4c0.1,0.1,0.1,0.2,0.2,0.3c0.2,0.4,0.9,0.1,0.6-0.4c-0.1-0.1-0.1-0.2-0.2-0.3
				C-90.5,415.6-91.2,415.9-91,416.4L-91,416.4z"/>
		</g>
	</g>
	<g id="XMLID_16792_">
		<g>
			<path class="st0" d="M-91.8,422.5c0,0.9,0.3,1.8,0.9,2.5c0.3,0.4,0.9,0,0.6-0.4c-0.5-0.7-0.7-1.4-0.7-2.2
				C-91.1,422-91.8,422-91.8,422.5L-91.8,422.5z"/>
		</g>
	</g>
	<g id="XMLID_16799_">
		<g>
			<path class="st0" d="M-95.3,421c0.4,0.7,0.8,1.3,1.2,2c0.2,0.4,0.9,0,0.6-0.4c-0.4-0.7-0.8-1.3-1.2-2
				C-94.9,420.2-95.5,420.6-95.3,421L-95.3,421z"/>
		</g>
	</g>
	<g id="XMLID_16806_">
		<g>
			<path class="st0" d="M-97.9,421.8c0.4,0.4,0.8,0.8,1.2,1.2c0.3,0.3,0.9-0.2,0.5-0.5c-0.4-0.4-0.8-0.8-1.2-1.2
				C-97.7,420.9-98.2,421.4-97.9,421.8L-97.9,421.8z"/>
		</g>
	</g>
	<g id="XMLID_16813_">
		<g>
			<path class="st0" d="M-112.5,365.5c-0.3,0.7-0.5,1.5-0.8,2.2c-0.2,0.5,0.6,0.6,0.7,0.2c0.3-0.7,0.5-1.5,0.8-2.2
				C-111.6,365.3-112.3,365.1-112.5,365.5L-112.5,365.5z"/>
		</g>
	</g>
	<g id="XMLID_16820_">
		<g>
			<path class="st0" d="M-114.5,365.3c-0.2,0.5-0.4,1-0.7,1.5c-0.2,0.4,0.5,0.8,0.6,0.4c0.2-0.5,0.4-1,0.7-1.5
				C-113.6,365.2-114.3,364.8-114.5,365.3L-114.5,365.3z"/>
		</g>
	</g>
	<g id="XMLID_16827_">
		<g>
			<path class="st0" d="M-116.4,364.5c-0.4,0.5-0.8,1.1-1.2,1.6c-0.3,0.4,0.4,0.8,0.6,0.4c0.4-0.5,0.8-1.1,1.2-1.6
				C-115.5,364.5-116.1,364.1-116.4,364.5L-116.4,364.5z"/>
		</g>
	</g>
	<g id="XMLID_16834_">
		<g>
			<path class="st0" d="M-118.7,363.6c-0.6,0.5-1.1,1-1.7,1.5c-0.4,0.3,0.2,0.9,0.5,0.5c0.6-0.5,1.1-1,1.7-1.5
				C-117.8,363.8-118.4,363.2-118.7,363.6L-118.7,363.6z"/>
		</g>
	</g>
	<g id="XMLID_16841_">
		<g>
			<path class="st0" d="M-123.6,366.4c-0.6,0.6-1.1,1.1-1.7,1.7c-0.3,0.3,0.2,0.9,0.5,0.5c0.6-0.6,1.1-1.1,1.7-1.7
				C-122.7,366.6-123.2,366-123.6,366.4L-123.6,366.4z"/>
		</g>
	</g>
	<g id="XMLID_16848_">
		<g>
			<path class="st0" d="M-121.9,367.2c-0.3,0.3-0.6,0.7-0.8,1c-0.3,0.4,0.2,0.9,0.5,0.5c0.3-0.3,0.6-0.7,0.8-1
				C-121,367.4-121.5,366.9-121.9,367.2L-121.9,367.2z"/>
		</g>
	</g>
	<g id="XMLID_16855_">
		<g>
			<path class="st0" d="M-120.2,368.2c-0.1,0.1-0.1,0.1-0.2,0.2c-0.3,0.3,0.2,0.9,0.5,0.5c0.1-0.1,0.1-0.1,0.2-0.2
				C-119.4,368.4-119.9,367.9-120.2,368.2L-120.2,368.2z"/>
		</g>
	</g>
	<g id="XMLID_16862_">
		<g>
			<path class="st0" d="M-118,368.8c-0.3,0.6-0.5,1.2-0.8,1.8c-0.2,0.4,0.5,0.8,0.6,0.4c0.3-0.6,0.5-1.2,0.8-1.8
				C-117.2,368.7-117.8,368.3-118,368.8L-118,368.8z"/>
		</g>
	</g>
	<g id="XMLID_16869_">
		<g>
			<path class="st0" d="M-116.4,371.9c-0.1,0.8-0.2,1.6-0.3,2.3c-0.1,0.5,0.7,0.7,0.7,0.2c0.1-0.8,0.2-1.6,0.3-2.3
				C-115.6,371.6-116.4,371.4-116.4,371.9L-116.4,371.9z"/>
		</g>
	</g>
	<g id="XMLID_16876_">
		<g>
			<path class="st0" d="M-114.5,370.7c0,0.3,0,0.7,0,1c0,0.5,0.8,0.5,0.8,0c0-0.3,0-0.7,0-1C-113.7,370.2-114.5,370.2-114.5,370.7
				L-114.5,370.7z"/>
		</g>
	</g>
	<g id="XMLID_16883_">
		<g>
			<path class="st0" d="M-114.8,375.7c0,0.8-0.1,1.6-0.2,2.4c-0.1,0.5,0.6,0.7,0.7,0.2c0.1-0.9,0.2-1.7,0.2-2.6
				C-114.1,375.2-114.8,375.2-114.8,375.7L-114.8,375.7z"/>
		</g>
	</g>
	<g id="XMLID_16890_">
		<g>
			<path class="st0" d="M-118,376.8c0,0.4,0,0.9,0,1.3c0,0.5,0.8,0.5,0.8,0c0-0.4,0-0.9,0-1.3C-117.2,376.3-118,376.3-118,376.8
				L-118,376.8z"/>
		</g>
	</g>
	<g id="XMLID_16897_">
		<g>
			<path class="st0" d="M-119.5,374.4c-0.2,0.6-0.5,1.1-0.7,1.7c-0.2,0.4,0.5,0.6,0.7,0.2c0.2-0.6,0.5-1.1,0.7-1.7
				C-118.6,374.1-119.3,374-119.5,374.4L-119.5,374.4z"/>
		</g>
	</g>
	<g id="XMLID_16904_">
		<g>
			<path class="st0" d="M-121.1,372.4c-0.2,0.4-0.3,0.9-0.5,1.3c-0.2,0.5,0.6,0.7,0.7,0.2c0.2-0.4,0.3-0.9,0.5-1.3
				C-120.3,372.1-121,371.9-121.1,372.4L-121.1,372.4z"/>
		</g>
	</g>
	<g id="XMLID_16911_">
		<g>
			<path class="st0" d="M-122.1,370.8c-0.3,0.5-0.5,1-0.8,1.5c-0.2,0.4,0.4,0.8,0.6,0.4c0.3-0.5,0.5-1,0.8-1.5
				C-121.3,370.7-121.9,370.4-122.1,370.8L-122.1,370.8z"/>
		</g>
	</g>
	<g id="XMLID_16918_">
		<g>
			<path class="st0" d="M-125.7,371.4c-0.3,0.3-0.7,0.7-1,1c-0.3,0.3,0.2,0.9,0.5,0.5c0.3-0.3,0.7-0.7,1-1
				C-124.8,371.6-125.4,371.1-125.7,371.4L-125.7,371.4z"/>
		</g>
	</g>
	<g id="XMLID_16925_">
		<g>
			<path class="st0" d="M-127.6,369.7c-0.5,0.6-1,1.2-1.5,1.8c-0.3,0.4,0.2,0.9,0.5,0.5c0.5-0.6,1-1.2,1.5-1.8
				C-126.8,369.9-127.3,369.3-127.6,369.7L-127.6,369.7z"/>
		</g>
	</g>
	<g id="XMLID_16932_">
		<g>
			<path class="st0" d="M-131.6,373.2c-0.3,0.7-0.7,1.3-1.2,1.9c-0.3,0.4,0.2,0.9,0.5,0.5c0.5-0.6,0.9-1.3,1.3-2
				C-130.7,373.1-131.3,372.7-131.6,373.2L-131.6,373.2z"/>
		</g>
	</g>
	<g id="XMLID_16939_">
		<g>
			<path class="st0" d="M-130.5,375.5c-0.3,0.4-0.6,0.8-0.8,1.2c-0.3,0.4,0.4,0.8,0.6,0.4c0.3-0.4,0.6-0.8,0.8-1.2
				C-129.5,375.4-130.2,375.1-130.5,375.5L-130.5,375.5z"/>
		</g>
	</g>
	<g id="XMLID_16946_">
		<g>
			<path class="st0" d="M-127.6,376.3c-0.2,0.5-0.4,1-0.7,1.5c-0.2,0.4,0.5,0.8,0.6,0.4c0.2-0.5,0.4-1,0.7-1.5
				C-126.8,376.2-127.4,375.9-127.6,376.3L-127.6,376.3z"/>
		</g>
	</g>
	<g id="XMLID_16953_">
		<g>
			<path class="st0" d="M-125.3,376c-0.1,0.3-0.2,0.6-0.3,0.9c-0.1,0.5,0.6,0.7,0.7,0.2c0.1-0.3,0.2-0.6,0.3-0.9
				C-124.5,375.8-125.2,375.6-125.3,376L-125.3,376z"/>
		</g>
	</g>
	<g id="XMLID_16960_">
		<g>
			<path class="st0" d="M-121.7,377.5c-0.1,0.9-0.2,1.8-0.3,2.7c-0.1,0.5,0.7,0.5,0.8,0c0.1-0.9,0.2-1.8,0.3-2.7
				C-120.9,377-121.7,377-121.7,377.5L-121.7,377.5z"/>
		</g>
	</g>
	<g id="XMLID_16967_">
		<g>
			<path class="st0" d="M-120,380.3c-0.1,0.6-0.1,1.2-0.2,1.8c-0.1,0.5,0.7,0.5,0.8,0c0.1-0.6,0.1-1.2,0.2-1.8
				C-119.2,379.8-119.9,379.9-120,380.3L-120,380.3z"/>
		</g>
	</g>
	<g id="XMLID_16974_">
		<g>
			<path class="st0" d="M-116.8,381.3c0,0.6,0,1.1,0,1.7c0,0.5,0.8,0.5,0.8,0c0-0.6,0-1.1,0-1.7
				C-116.1,380.8-116.8,380.8-116.8,381.3L-116.8,381.3z"/>
		</g>
	</g>
	<g id="XMLID_16981_">
		<g>
			<path class="st0" d="M-115.7,385.7c0,0.4,0,0.9,0,1.3c0,0.5,0.8,0.5,0.8,0c0-0.4,0-0.9,0-1.3
				C-114.9,385.2-115.7,385.2-115.7,385.7L-115.7,385.7z"/>
		</g>
	</g>
	<g id="XMLID_16988_">
		<g>
			<path class="st0" d="M-117.7,384.7c-0.3,0.9-0.2,1.9,0.2,2.8c0.2,0.4,0.9,0.1,0.6-0.4c-0.3-0.7-0.4-1.5-0.1-2.2
				C-116.8,384.5-117.5,384.3-117.7,384.7L-117.7,384.7z"/>
		</g>
	</g>
	<g id="XMLID_16995_">
		<g>
			<path class="st0" d="M-120.7,384.8c0.2,0.8,0.3,1.7,0.5,2.5c0.1,0.5,0.8,0.3,0.7-0.2c-0.2-0.8-0.3-1.7-0.5-2.5
				C-120.1,384.1-120.8,384.3-120.7,384.8L-120.7,384.8z"/>
		</g>
	</g>
	<g id="XMLID_17002_">
		<g>
			<path class="st0" d="M-122.8,382.4c0.1,0.3,0.1,0.7,0.2,1c0.1,0.5,0.8,0.3,0.7-0.2c-0.1-0.3-0.1-0.7-0.2-1
				C-122.2,381.8-122.9,382-122.8,382.4L-122.8,382.4z"/>
		</g>
	</g>
	<g id="XMLID_17009_">
		<g>
			<path class="st0" d="M-119.3,390.8c0.2,1.1,0.5,2.2,0.7,3.3c0.1,0.5,0.8,0.3,0.7-0.2c-0.2-1.1-0.5-2.2-0.7-3.3
				C-118.7,390.1-119.4,390.3-119.3,390.8L-119.3,390.8z"/>
		</g>
	</g>
	<g id="XMLID_17016_">
		<g>
			<path class="st0" d="M-117.3,390.9c0.1,0.3,0.1,0.7,0.2,1c0.1,0.5,0.8,0.3,0.7-0.2c-0.1-0.3-0.1-0.7-0.2-1
				C-116.7,390.3-117.4,390.5-117.3,390.9L-117.3,390.9z"/>
		</g>
	</g>
	<g id="XMLID_17023_">
		<g>
			<path class="st0" d="M-115.8,394.1c0.2,0.8,0.3,1.6,0.5,2.3c0.1,0.5,0.8,0.3,0.7-0.2c-0.2-0.8-0.3-1.6-0.5-2.3
				C-115.2,393.4-115.9,393.6-115.8,394.1L-115.8,394.1z"/>
		</g>
	</g>
	<g id="XMLID_17030_">
		<g>
			<path class="st0" d="M-115.5,390.9c0.1,0.2,0.2,0.3,0.3,0.5c0.3,0.4,0.9,0,0.6-0.4c-0.1-0.2-0.2-0.3-0.3-0.5
				C-115.1,390.1-115.7,390.5-115.5,390.9L-115.5,390.9z"/>
		</g>
	</g>
	<g id="XMLID_17037_">
		<g>
			<path class="st0" d="M-113.7,398.8c0.2,0.8,0.5,1.7,0.7,2.5c0.1,0.5,0.9,0.3,0.7-0.2c-0.2-0.8-0.5-1.7-0.7-2.5
				C-113.1,398.1-113.8,398.3-113.7,398.8L-113.7,398.8z"/>
		</g>
	</g>
	<g id="XMLID_17044_">
		<g>
			<path class="st0" d="M-116.5,399.1c0.2,0.9,0.3,1.8,0.5,2.7c0.1,0.5,0.8,0.3,0.7-0.2c-0.2-0.9-0.3-1.8-0.5-2.7
				C-115.9,398.4-116.6,398.6-116.5,399.1L-116.5,399.1z"/>
		</g>
	</g>
	<g id="XMLID_17051_">
		<g>
			<path class="st0" d="M-118.8,397c0,0.8,0.2,1.5,0.5,2.3c0.2,0.4,0.9,0.3,0.7-0.2c-0.3-0.7-0.4-1.4-0.4-2.1
				C-118.1,396.5-118.9,396.5-118.8,397L-118.8,397z"/>
		</g>
	</g>
	<g id="XMLID_17058_">
		<g>
			<path class="st0" d="M-117.3,405.4c0.3,0.7,0.4,1.5,0.3,2.2c0,0.5,0.7,0.5,0.8,0c0.1-0.8-0.1-1.6-0.4-2.4
				C-116.8,404.8-117.5,405-117.3,405.4L-117.3,405.4z"/>
		</g>
	</g>
	<g id="XMLID_17065_">
		<g>
			<path class="st0" d="M-115,405.3c0.2,0.6,0.3,1.2,0.5,1.8c0.1,0.5,0.8,0.3,0.7-0.2c-0.2-0.6-0.3-1.2-0.5-1.8
				C-114.4,404.6-115.1,404.8-115,405.3L-115,405.3z"/>
		</g>
	</g>
	<g id="XMLID_17072_">
		<g>
			<path class="st0" d="M-112.8,405.3c0.1,0.3,0.2,0.7,0.3,1c0.1,0.5,0.9,0.3,0.7-0.2c-0.1-0.3-0.2-0.7-0.3-1
				C-112.2,404.6-113,404.8-112.8,405.3L-112.8,405.3z"/>
		</g>
	</g>
	<g id="XMLID_17079_">
		<g>
			<path class="st0" d="M-111.2,410c0,0.4,0,0.9,0,1.3c0,0.5,0.8,0.5,0.8,0c0-0.4,0-0.9,0-1.3C-110.4,409.5-111.2,409.5-111.2,410
				L-111.2,410z"/>
		</g>
	</g>
	<g id="XMLID_17086_">
		<g>
			<path class="st0" d="M-109.5,413.2c0.1,0.8,0,1.5-0.3,2.2c-0.2,0.5,0.6,0.6,0.7,0.2c0.3-0.8,0.4-1.6,0.3-2.4
				C-108.8,412.7-109.5,412.7-109.5,413.2L-109.5,413.2z"/>
		</g>
	</g>
	<g id="XMLID_17093_">
		<g>
			<path class="st0" d="M-110.8,418.5c-0.2,0.3-0.4,0.7-0.6,1c-0.3,0.4,0.4,0.8,0.6,0.4c0.2-0.3,0.4-0.7,0.6-1
				C-109.9,418.5-110.5,418.1-110.8,418.5L-110.8,418.5z"/>
		</g>
	</g>
	<g id="XMLID_17100_">
		<g>
			<path class="st0" d="M-112,415.4c0,0.3,0,0.5-0.2,0.7c-0.3,0.4,0.2,0.9,0.5,0.5c0.4-0.4,0.5-0.9,0.4-1.4
				C-111.4,414.8-112.1,415-112,415.4L-112,415.4z"/>
		</g>
	</g>
	<g id="XMLID_17107_">
		<g>
			<path class="st0" d="M-113.5,411.3c0,0.6,0,1.2,0,1.8c0,0.5,0.8,0.5,0.8,0c0-0.6,0-1.2,0-1.8
				C-112.7,410.9-113.5,410.9-113.5,411.3L-113.5,411.3z"/>
		</g>
	</g>
	<g id="XMLID_17114_">
		<g>
			<path class="st0" d="M-115.5,409.3c0,1.1,0,2.2-0.2,3.2c-0.1,0.5,0.7,0.7,0.7,0.2c0.2-1.1,0.2-2.3,0.2-3.4
				C-114.8,408.9-115.5,408.9-115.5,409.3L-115.5,409.3z"/>
		</g>
	</g>
	<g id="XMLID_17121_">
		<g>
			<path class="st0" d="M-117,411.2c-0.1,1.2,0,2.5,0.1,3.7c0.1,0.5,0.8,0.5,0.8,0c-0.2-1.2-0.2-2.4-0.1-3.7
				C-116.2,410.7-117,410.7-117,411.2L-117,411.2z"/>
		</g>
	</g>
	<g id="XMLID_17128_">
		<g>
			<path class="st0" d="M-115.6,417c-0.1,0.8-0.3,1.6-0.5,2.4c-0.1,0.5,0.6,0.7,0.7,0.2c0.3-0.9,0.4-1.7,0.5-2.6
				C-114.8,416.5-115.6,416.5-115.6,417L-115.6,417z"/>
		</g>
	</g>
	<g id="XMLID_17135_">
		<g>
			<path class="st0" d="M-114.5,420.7c-0.2,0.6-0.4,1.1-0.6,1.7c-0.2,0.5,0.6,0.6,0.7,0.2c0.2-0.6,0.4-1.1,0.6-1.7
				C-113.6,420.5-114.3,420.3-114.5,420.7L-114.5,420.7z"/>
		</g>
	</g>
	<g id="XMLID_17142_">
		<g>
			<path class="st0" d="M-115.2,424.9c-0.2,0.3-0.4,0.6-0.7,0.8c-0.3,0.4,0.2,0.9,0.5,0.5c0.2-0.3,0.4-0.6,0.7-0.8
				C-114.4,425.1-114.9,424.6-115.2,424.9L-115.2,424.9z"/>
		</g>
	</g>
	<g id="XMLID_17149_">
		<g>
			<path class="st0" d="M-116.1,422.2c-0.3,0.5-0.5,1-0.8,1.5c-0.2,0.4,0.4,0.8,0.6,0.4c0.3-0.5,0.5-1,0.8-1.5
				C-115.2,422.1-115.9,421.7-116.1,422.2L-116.1,422.2z"/>
		</g>
	</g>
	<g id="XMLID_17156_">
		<g>
			<path class="st0" d="M-127.2,380.6c0.1,0.7,0.3,1.3,0.7,1.9c0.2,0.4,0.9,0,0.6-0.4c-0.3-0.6-0.5-1.1-0.6-1.8
				C-126.5,379.9-127.2,380.1-127.2,380.6L-127.2,380.6z"/>
		</g>
	</g>
	<g id="XMLID_17163_">
		<g>
			<path class="st0" d="M-130.8,381.3c0,0.2,0,0.4,0,0.7c0,0.5,0.8,0.5,0.8,0c0-0.2,0-0.4,0-0.7
				C-130.1,380.8-130.8,380.8-130.8,381.3L-130.8,381.3z"/>
		</g>
	</g>
	<g id="XMLID_17170_">
		<g>
			<path class="st0" d="M-132.6,378.9c-0.5,0.7-0.8,1.4-0.8,2.3c0,0.5,0.8,0.5,0.8,0c0-0.6,0.2-1.2,0.6-1.7
				C-131.7,379.1-132.3,378.5-132.6,378.9L-132.6,378.9z"/>
		</g>
	</g>
	<g id="XMLID_17177_">
		<g>
			<path class="st0" d="M-134.3,377.8c-0.6,1-1.1,2-1.5,3.1c-0.2,0.5,0.6,0.7,0.7,0.2c0.3-1,0.8-2,1.4-2.9
				C-133.4,377.8-134.1,377.4-134.3,377.8L-134.3,377.8z"/>
		</g>
	</g>
	<g id="XMLID_17184_">
		<g>
			<path class="st0" d="M-137.2,387.4c-0.1,0.4-0.1,0.8-0.2,1.2c-0.1,0.5,0.7,0.7,0.7,0.2c0.1-0.4,0.1-0.8,0.2-1.2
				C-136.4,387.1-137.1,386.9-137.2,387.4L-137.2,387.4z"/>
		</g>
	</g>
	<g id="XMLID_17191_">
		<g>
			<path class="st0" d="M-134.8,385.6c-0.2,0.4-0.3,0.7-0.2,1.1c0.1,0.5,0.8,0.3,0.7-0.2c0-0.2,0-0.4,0.1-0.5
				C-133.9,385.6-134.6,385.2-134.8,385.6L-134.8,385.6z"/>
		</g>
	</g>
	<g id="XMLID_17198_">
		<g>
			<path class="st0" d="M-133,384.7c-0.1,1,0,2,0.3,2.9c0.2,0.5,0.9,0.3,0.7-0.2c-0.3-0.9-0.4-1.8-0.3-2.7
				C-132.2,384.2-132.9,384.2-133,384.7L-133,384.7z"/>
		</g>
	</g>
	<g id="XMLID_17205_">
		<g>
			<path class="st0" d="M-130.5,386.4c0.2,0.5,0.4,0.8,0.8,1.2c0.4,0.3,0.9-0.2,0.5-0.5c-0.3-0.2-0.4-0.5-0.6-0.8
				C-129.9,385.8-130.6,386-130.5,386.4L-130.5,386.4z"/>
		</g>
	</g>
	<g id="XMLID_17212_">
		<g>
			<path class="st0" d="M-128.8,384.7c0.3,0.5,0.5,1,0.8,1.5c0.2,0.4,0.9,0,0.6-0.4c-0.3-0.5-0.5-1-0.8-1.5
				C-128.3,383.9-129,384.2-128.8,384.7L-128.8,384.7z"/>
		</g>
	</g>
	<g id="XMLID_17219_">
		<g>
			<path class="st0" d="M-126.6,388.4c0.4,0.3,0.8,0.7,1.2,1c0.4,0.3,0.9-0.2,0.5-0.5c-0.4-0.3-0.8-0.7-1.2-1
				C-126.4,387.6-126.9,388.1-126.6,388.4L-126.6,388.4z"/>
		</g>
	</g>
	<g id="XMLID_17226_">
		<g>
			<path class="st0" d="M-128.8,389.8c0.3,0.3,0.6,0.7,0.8,1c0.3,0.4,0.8-0.2,0.5-0.5c-0.3-0.3-0.6-0.7-0.8-1
				C-128.5,388.9-129.1,389.4-128.8,389.8L-128.8,389.8z"/>
		</g>
	</g>
	<g id="XMLID_17233_">
		<g>
			<path class="st0" d="M-132.3,390c0.3,0.4,0.7,0.9,1,1.3c0.3,0.4,0.9,0,0.6-0.4c-0.3-0.4-0.7-0.9-1-1.3
				C-132,389.3-132.6,389.7-132.3,390L-132.3,390z"/>
		</g>
	</g>
	<g id="XMLID_17240_">
		<g>
			<path class="st0" d="M-135.5,391.3c0.2,0.7,0.5,1.4,0.7,2.2c0.1,0.5,0.9,0.3,0.7-0.2c-0.2-0.7-0.5-1.4-0.7-2.2
				C-135,390.6-135.7,390.8-135.5,391.3L-135.5,391.3z"/>
		</g>
	</g>
	<g id="XMLID_17247_">
		<g>
			<path class="st0" d="M-132.4,396.1c0.6,0.6,1.2,1.2,1.8,1.9c0.3,0.3,0.9-0.2,0.5-0.5c-0.6-0.6-1.2-1.2-1.8-1.9
				C-132.2,395.2-132.7,395.8-132.4,396.1L-132.4,396.1z"/>
		</g>
	</g>
	<g id="XMLID_17254_">
		<g>
			<path class="st0" d="M-131.1,394.1c0.5,0.4,0.9,0.8,1.4,1.1c0.4,0.3,0.9-0.2,0.5-0.5c-0.5-0.4-0.9-0.8-1.4-1.1
				C-130.9,393.3-131.4,393.8-131.1,394.1L-131.1,394.1z"/>
		</g>
	</g>
	<g id="XMLID_17261_">
		<g>
			<path class="st0" d="M-127.1,394.4c0.3,0.3,0.7,0.5,1,0.8c0.4,0.3,0.9-0.2,0.5-0.5c-0.3-0.3-0.7-0.5-1-0.8
				C-126.9,393.6-127.4,394.1-127.1,394.4L-127.1,394.4z"/>
		</g>
	</g>
	<g id="XMLID_17268_">
		<g>
			<path class="st0" d="M-125.7,392.8c0.3,0.3,0.6,0.7,0.8,1c0.3,0.4,0.8-0.2,0.5-0.5c-0.3-0.3-0.6-0.7-0.8-1
				C-125.5,391.9-126.1,392.4-125.7,392.8L-125.7,392.8z"/>
		</g>
	</g>
	<g id="XMLID_17275_">
		<g>
			<path class="st0" d="M-126.8,398.5c0.2,0.2,0.4,0.3,0.7,0.5c0.4,0.3,0.8-0.4,0.4-0.6c-0.2-0.2-0.4-0.3-0.7-0.5
				C-126.8,397.5-127.2,398.2-126.8,398.5L-126.8,398.5z"/>
		</g>
	</g>
	<g id="XMLID_17282_">
		<g>
			<path class="st0" d="M-125.3,401c0.4,0.3,0.8,0.6,1.2,0.8c0.4,0.3,0.8-0.4,0.4-0.6c-0.4-0.3-0.8-0.6-1.2-0.8
				C-125.3,400.1-125.7,400.7-125.3,401L-125.3,401z"/>
		</g>
	</g>
	<g id="XMLID_17289_">
		<g>
			<path class="st0" d="M-124.4,398.4c0.4,0.4,0.9,0.6,1.5,0.7c0.5,0.1,0.7-0.6,0.2-0.7c-0.4-0.1-0.8-0.3-1.2-0.6
				C-124.2,397.6-124.8,398.1-124.4,398.4L-124.4,398.4z"/>
		</g>
	</g>
	<g id="XMLID_17296_">
		<g>
			<path class="st0" d="M-123.6,396.3c0.1,0.1,0.1,0.1,0.2,0.2c0.3,0.3,0.9-0.2,0.5-0.5c-0.1-0.1-0.1-0.1-0.2-0.2
				C-123.4,395.4-123.9,395.9-123.6,396.3L-123.6,396.3z"/>
		</g>
	</g>
	<g id="XMLID_17303_">
		<g>
			<path class="st0" d="M-136.5,383.6c-0.1,0.5-0.1,1-0.2,1.5c-0.1,0.5,0.7,0.7,0.7,0.2c0.1-0.5,0.1-1,0.2-1.5
				C-135.7,383.3-136.4,383.1-136.5,383.6L-136.5,383.6z"/>
		</g>
	</g>
</g>
</svg>
