<?xml version="1.0" encoding="utf-8"?>
<!-- Generator: Adobe Illustrator 19.0.0, SVG Export Plug-In . SVG Version: 6.00 Build 0)  -->
<svg version="1.1" id="Layer_1" xmlns="http://www.w3.org/2000/svg" xmlns:xlink="http://www.w3.org/1999/xlink" x="0px" y="0px"
	 viewBox="-205 297 200 200" style="enable-background:new -205 297 200 200;" xml:space="preserve">
<style type="text/css">
	.st0{fill:#E1F2F3;}
</style>
<g id="XMLID_238_">
	<g id="XMLID_12523_">
		<g id="XMLID_729_">
			<path id="XMLID_733_" class="st0" d="M-97.8,394.9c-0.5-1.5-1.1-3.1-2.7-3.8c-1.5-0.6-3.8-0.5-5.3-0.1c-3.3,1.1-4.8,5.4-3.6,8.5
				c1.2,3.1,4.7,4.7,7.8,3.5c3.8-1.5,4.9-5.8,3.6-9.5c-0.2-0.6-1.1-0.3-0.9,0.3c1,2.7,0.6,6-2,7.7s-5.9,1-7.4-1.8
				c-1.3-2.4-0.4-6,2-7.4c1.1-0.6,2.7-0.7,3.9-0.6c2.2,0.3,3.1,1.4,3.7,3.4C-98.5,395.7-97.6,395.5-97.8,394.9L-97.8,394.9z"/>
		</g>
	</g>
	<g id="XMLID_12522_">
		<g id="XMLID_723_">
			<path id="XMLID_727_" class="st0" d="M-99.1,391.8c0.7-4.8,7.3-6.6,9.6-1.7c2.5,5.4-5.8,10-7.8,4.1c-0.2-0.6-1.1-0.3-0.9,0.3
				c2.2,6.4,11.1,3,10.1-3.2c-1.1-6.8-10.9-6.3-11.9,0.3C-100.2,392.2-99.2,392.4-99.1,391.8L-99.1,391.8z"/>
		</g>
	</g>
	<g id="XMLID_12519_">
		<g id="XMLID_717_">
			<path id="XMLID_721_" class="st0" d="M-109.2,397.4c-3.9-4.4-9.8,1.7-7.8,6.3c2.3,5.2,10.8,4.1,10.9-1.8c0-0.6-1-0.6-1,0
				c-0.1,5-7.2,5.6-9.1,1.4c-1.6-3.6,3-8.8,6.2-5.2C-109.5,398.6-108.8,397.9-109.2,397.4L-109.2,397.4z"/>
		</g>
	</g>
	<g id="XMLID_12518_">
		<g id="XMLID_711_">
			<path id="XMLID_715_" class="st0" d="M-116.8,401.4c-3.5-5.1-11.4-0.6-9.3,5c2.1,5.8,10.4,4,10.7-1.9c0-0.6-0.9-0.6-1,0
				c-0.2,4.7-6.7,6.3-8.7,1.8s4.5-8.8,7.4-4.4C-117.3,402.4-116.5,401.9-116.8,401.4L-116.8,401.4z"/>
		</g>
	</g>
	<g id="XMLID_12517_">
		<g id="XMLID_705_">
			<path id="XMLID_709_" class="st0" d="M-114,406.3c-2.5,4.8,2.7,9.2,7.3,7.3c4-1.6,6.6-8.8,2-11.3c-0.5-0.3-1,0.5-0.5,0.8
				c3.7,2,1.5,7.9-1.6,9.4c-3.7,1.8-8.6-1.6-6.4-5.7C-112.8,406.3-113.7,405.8-114,406.3L-114,406.3z"/>
		</g>
	</g>
	<g id="XMLID_12516_">
		<g id="XMLID_699_">
			<path id="XMLID_703_" class="st0" d="M-100.9,401.8c0.5,3.9,4.3,6.7,8.2,5c4.1-1.8,4.6-7.2,2.4-10.6c-0.3-0.5-1.2,0-0.8,0.5
				c1.7,2.7,1.7,6.7-1.1,8.7c-3.1,2.2-7.3,0.1-7.7-3.6C-100,401.2-101,401.2-100.9,401.8L-100.9,401.8z"/>
		</g>
	</g>
	<g id="XMLID_12515_">
		<g id="XMLID_693_">
			<path id="XMLID_697_" class="st0" d="M-103.9,409.5C-104,409.5-104,409.5-103.9,409.5c0.1,0.1,0.3,0.2,0.5,0.2c0,0.1,0,0.2,0,0.3
				c-0.2,0.1-0.4,0.1-0.5,0.2c0.2,0.1,0.6,0.9,0.8,1.1c0.4,0.4,0.9,0.8,1.4,1c1,0.5,2.2,0.7,3.3,0.4c2.4-0.6,3.8-2.9,3.7-5.2
				c0-0.6-1-0.6-1,0c0.1,2.4-1.8,4.8-4.4,4.3c-1.3-0.2-2.1-0.9-2.9-1.9c-0.3-0.4-0.3-0.5-0.8-0.7c-0.2-0.1-0.4,0.1-0.5,0.2
				c-0.2,0.3-0.1,0.4,0,0.7c0.1,0.2,0.4,0.3,0.5,0.2h0.1C-103.1,410.3-103.3,409.3-103.9,409.5L-103.9,409.5z"/>
		</g>
	</g>
	<g id="XMLID_12514_">
		<g id="XMLID_687_">
			<path id="XMLID_691_" class="st0" d="M-88.4,392.8c2.9,0.6,5.2,2.7,5.3,5.8c0.1,3.2-3.6,7.6-6.5,4.2c-0.4-0.5-1.1,0.2-0.7,0.7
				c2.6,3.1,6.8,0.8,7.8-2.5c1.4-4.2-1.4-8.3-5.6-9.1C-88.7,391.8-89,392.7-88.4,392.8L-88.4,392.8z"/>
		</g>
	</g>
	<g id="XMLID_12512_">
		<g id="XMLID_681_">
			<path id="XMLID_685_" class="st0" d="M-121.1,409.8c-1.6,2.9-0.3,6.5,2.9,7.4c3.3,0.9,6.2-1.7,6.2-5c0-0.6-1-0.6-1,0
				c0,2.6-2.3,4.7-5,4c-2.7-0.7-3.6-3.7-2.3-6C-119.9,409.7-120.8,409.2-121.1,409.8L-121.1,409.8z"/>
		</g>
	</g>
	<g id="XMLID_12511_">
		<g id="XMLID_675_">
			<path id="XMLID_679_" class="st0" d="M-114.7,416c-1.6,4.3,3.5,6.3,6.9,5.4c4.1-1.2,5.4-6.1,2.9-9.4c-0.4-0.5-1.2,0-0.8,0.5
				c1.9,2.5,1.5,6-1.4,7.6c-2.7,1.5-8.1,0.1-6.7-3.8C-113.6,415.7-114.5,415.4-114.7,416L-114.7,416z"/>
		</g>
	</g>
	<g id="XMLID_12510_">
		<g id="XMLID_669_">
			<path id="XMLID_673_" class="st0" d="M-99.9,412.4c0.3,4,6.6,6.6,9.5,3.5c2.5-2.8,1.7-8.3-1.3-10.4c-0.5-0.4-1,0.5-0.5,0.8
				c2.2,1.5,2.6,4.4,2,6.8c-1.1,4.3-8.4,3.8-8.7-0.7C-99,411.8-100,411.8-99.9,412.4L-99.9,412.4z"/>
		</g>
	</g>
	<g id="XMLID_12509_">
		<g id="XMLID_663_">
			<path id="XMLID_667_" class="st0" d="M-84.9,403.7c3.7,0.7,1.2,9.9-3.7,7.9c-0.6-0.2-0.8,0.7-0.3,0.9c5.9,2.4,9.3-8.8,4.2-9.8
				C-85.3,402.7-85.5,403.6-84.9,403.7L-84.9,403.7z"/>
		</g>
	</g>
	<g id="XMLID_12508_">
		<g id="XMLID_657_">
			<path id="XMLID_661_" class="st0" d="M-105,418.2c2,4.5,8.5,3.6,9.3-1.3c0.1-0.6-0.8-0.9-0.9-0.3c-0.6,4-5.8,4.7-7.5,1
				C-104.4,417.1-105.3,417.6-105,418.2L-105,418.2z"/>
		</g>
	</g>
	<g id="XMLID_12505_">
		<g id="XMLID_651_">
			<path id="XMLID_655_" class="st0" d="M-120.6,415.7c-2.1,2.2-3.3,6.6,0.2,8.3c2.9,1.4,7.9-0.6,7.8-4.2c0-0.6-1-0.6-1,0
				c0.1,2.9-4.8,4.7-6.9,3c-2.2-1.8-1-4.7,0.6-6.4C-119.5,415.9-120.1,415.2-120.6,415.7L-120.6,415.7z"/>
		</g>
	</g>
	<g id="XMLID_12504_">
		<g id="XMLID_645_">
			<path id="XMLID_649_" class="st0" d="M-117.2,423.7c-0.1,3.3,2.6,6.4,6.1,5.9c4.4-0.6,5.3-4.9,4.4-8.6c-0.2-0.6-1.1-0.3-0.9,0.3
				c0.8,3,0.4,6.5-3.2,7.3c-3,0.7-5.5-2-5.4-4.9C-116.2,423-117.2,423-117.2,423.7L-117.2,423.7z"/>
		</g>
	</g>
	<g id="XMLID_12503_">
		<g id="XMLID_639_">
			<path id="XMLID_643_" class="st0" d="M-99.7,420.6c0.7,3.9,5.3,5.3,8.4,3.1c2.4-1.8,3.9-6.5,0.5-8.1c-0.6-0.3-1.1,0.6-0.5,0.8
				c2.9,1.4,1.1,5.5-1,6.7c-2.6,1.6-5.9,0.2-6.5-2.8C-98.9,419.7-99.8,420-99.7,420.6L-99.7,420.6z"/>
		</g>
	</g>
	<g id="XMLID_12502_">
		<g id="XMLID_633_">
			<path id="XMLID_637_" class="st0" d="M-84.6,411.4c4.2,2.2-0.6,10.2-4.3,7.3c-0.5-0.4-1.2,0.3-0.7,0.7c4.9,3.8,10.8-5.9,5.5-8.8
				C-84.6,410.3-85.1,411.1-84.6,411.4L-84.6,411.4z"/>
		</g>
	</g>
	<g id="XMLID_12501_">
		<g id="XMLID_627_">
			<path id="XMLID_631_" class="st0" d="M-107.6,424.7c0,2.8,2.4,4.9,5.2,4.5c3.3-0.5,5-3.6,5.1-6.7c0-0.6-1-0.6-1,0
				c-0.1,2.3-1,4.5-3.2,5.4c-2.4,1-5.2-0.4-5.2-3.2C-106.6,424.1-107.6,424.1-107.6,424.7L-107.6,424.7z"/>
		</g>
	</g>
	<g id="XMLID_12500_">
		<g id="XMLID_621_">
			<path id="XMLID_625_" class="st0" d="M-102.9,429.2c-0.1,3.9,3.9,6.8,7.6,5.1c3.5-1.7,6.2-6.9,3.9-10.4c-0.3-0.5-1.2,0-0.8,0.5
				c1.7,2.6,0,6.4-2.2,8.2c-3,2.5-7.5,0.7-7.5-3.4C-101.9,428.5-102.9,428.5-102.9,429.2L-102.9,429.2z"/>
		</g>
	</g>
	<g id="XMLID_12498_">
		<g id="XMLID_615_">
			<path id="XMLID_619_" class="st0" d="M-91.1,427.4c1.6,3,5.9,1.7,7.7-0.4c2.1-2.4,1.7-6-0.6-8.2c-0.4-0.4-1.1,0.2-0.7,0.7
				c1.6,1.5,2.2,4,1.1,6s-5.3,4.2-6.7,1.4C-90.5,426.4-91.4,426.8-91.1,427.4L-91.1,427.4z"/>
		</g>
	</g>
	<g id="XMLID_12497_">
		<g id="XMLID_609_">
			<path id="XMLID_613_" class="st0" d="M-86.2,428.6c1,2.4,0.3,5.6-2.1,6.9c-2.2,1.1-4.9,0.2-6-1.9c-0.3-0.5-1.1-0.1-0.8,0.5
				c1.4,2.5,4.8,3.6,7.4,2.3c3-1.5,3.7-5.3,2.5-8.2C-85.6,427.5-86.4,428-86.2,428.6L-86.2,428.6z"/>
		</g>
	</g>
	<g id="XMLID_12496_">
		<g id="XMLID_603_">
			<path id="XMLID_607_" class="st0" d="M-110.6,428.5c-2.1,2.9-2.7,7.7,1.4,9.2c3.5,1.3,8.4-0.4,9-4.4c0.1-0.6-0.8-0.9-0.9-0.3
				c-0.5,3.2-4.2,4.6-7.1,3.9c-4-0.9-3.3-5.4-1.5-8C-109.4,428.5-110.2,428-110.6,428.5L-110.6,428.5z"/>
		</g>
	</g>
	<g id="XMLID_12495_">
		<g id="XMLID_597_">
			<path id="XMLID_601_" class="st0" d="M-102.7,436.1c-0.3,1.9-0.5,3.5,0.9,5c1.1,1.2,2.8,1.8,4.4,1.7c3.5-0.1,5.6-3.5,5.1-6.7
				c-0.1-0.6-1-0.4-0.9,0.3c0.5,3-1.8,5.7-4.9,5.4c-1.3-0.1-2.5-0.7-3.2-1.8c-0.9-1.3-0.6-2.5-0.4-3.9
				C-101.7,435.5-102.6,435.5-102.7,436.1L-102.7,436.1z"/>
		</g>
	</g>
	<g id="XMLID_12494_">
		<g id="XMLID_591_">
			<path id="XMLID_595_" class="st0" d="M-96.8,442.4c0.9,3.8,5.1,6.5,8.6,3.9c3.2-2.4,2.3-7.9-0.7-10c-0.5-0.4-1,0.5-0.5,0.8
				c2.5,1.8,3.3,6.8,0.3,8.7c-3,1.8-6.1-0.6-6.8-3.6C-96,441.5-96.9,441.8-96.8,442.4L-96.8,442.4z"/>
		</g>
	</g>
	<g id="XMLID_12493_">
		<g id="XMLID_585_">
			<path id="XMLID_589_" class="st0" d="M-115.1,427.5c-3.7-2.1-7.9,3.1-6.3,6.6c1.8,3.7,7.5,4.5,9.6,0.7c0.3-0.5-0.5-1-0.8-0.5
				c-1.5,2.7-5.3,2.6-7.2,0.4c-1.1-1.2-1.4-2.9-0.5-4.3c0.9-1.5,2.9-3.1,4.7-2.1C-115.1,428.6-114.6,427.8-115.1,427.5L-115.1,427.5
				z"/>
		</g>
	</g>
	<g id="XMLID_12491_">
		<g id="XMLID_579_">
			<path id="XMLID_583_" class="st0" d="M-115.5,436.5c-2.8,2.8-1.2,7.6,2.7,8.2c4.2,0.7,7-3.4,6.1-7.2c-0.1-0.6-1.1-0.4-0.9,0.3
				c0.7,3-1.3,6.3-4.6,6.1c-3.4-0.2-5-4.2-2.6-6.6C-114.4,436.8-115.1,436.1-115.5,436.5L-115.5,436.5z"/>
		</g>
	</g>
	<g id="XMLID_12490_">
		<g id="XMLID_573_">
			<path id="XMLID_577_" class="st0" d="M-108.5,442.6c-0.7,4,1.1,6.6,5.3,6.5c3.5-0.1,6-3,5.2-6.5c-0.1-0.6-1.1-0.3-0.9,0.3
				c0.7,2.9-1.4,5.1-4.2,5.2c-1.4,0-3-0.1-3.9-1.3c-0.8-1.1-0.8-2.7-0.5-4C-107.5,442.2-108.4,441.9-108.5,442.6L-108.5,442.6z"/>
		</g>
	</g>
	<g id="XMLID_12482_">
		<g id="XMLID_567_">
			<path id="XMLID_571_" class="st0" d="M-111.3,443.6c-4.7,1.5-6.1,7.7-1.9,10.7c4,2.8,9.8-0.5,9.3-5.5c-0.1-0.6-1-0.6-1,0
				c0.4,3.9-3.9,6.9-7.3,5c-4-2.3-3.1-7.8,1.1-9.2C-110.4,444.4-110.7,443.4-111.3,443.6L-111.3,443.6z"/>
		</g>
	</g>
	<g id="XMLID_12474_">
		<g id="XMLID_561_">
			<path id="XMLID_565_" class="st0" d="M-106,452.3c-2.3,5,5.6,7.5,9.1,5.4c2-1.2,3-3.5,2.8-5.8c-0.3-2.7-2.4-4.3-4.7-5.4
				c-0.6-0.3-1.1,0.6-0.5,0.8c1.7,0.8,3.5,1.8,4.1,3.7c0.5,1.6,0.1,3.6-1,4.9c-1.2,1.4-3.2,1.9-5.1,1.6c-2-0.4-5-2.3-3.8-4.7
				C-104.9,452.3-105.7,451.8-106,452.3L-106,452.3z"/>
		</g>
	</g>
	<g id="XMLID_12466_">
		<g id="XMLID_555_">
			<path id="XMLID_559_" class="st0" d="M-95.3,450.4c1.8-0.1,3.2-1.6,3.2-3.4c0-0.6-1-0.6-1,0c0,1.2-1,2.3-2.2,2.4
				C-96,449.4-96,450.4-95.3,450.4L-95.3,450.4z"/>
		</g>
	</g>
	<g id="XMLID_12456_">
		<g id="XMLID_549_">
			<path id="XMLID_553_" class="st0" d="M-116.5,440.4c-2.7-0.1-5.1,2.1-4.8,4.9c0.4,2.9,3.1,4.4,5.8,3.9c0.6-0.1,0.4-1-0.3-0.9
				c-2.2,0.4-4.5-1-4.6-3.4c-0.1-2.1,1.8-3.6,3.8-3.5C-115.8,441.4-115.8,440.5-116.5,440.4L-116.5,440.4z"/>
		</g>
	</g>
	<g id="XMLID_12447_">
		<g id="XMLID_543_">
			<path id="XMLID_547_" class="st0" d="M-110.4,454.9c-1.6,3,0.3,6.5,3.4,7.7c2.7,1,5.4-1,5.7-3.7c0.1-0.6-0.9-0.6-1,0
				c-0.3,2.3-2.8,3.7-4.8,2.5c-2.2-1.2-3.7-3.6-2.4-6C-109.2,454.8-110.1,454.3-110.4,454.9L-110.4,454.9z"/>
		</g>
	</g>
	<g id="XMLID_12438_">
		<g id="XMLID_537_">
			<path id="XMLID_541_" class="st0" d="M-115.4,452.2c-3.1,1.8-4.3,6-2.1,8.9c2.2,2.8,6.3,2.7,8.4-0.1c0.4-0.5-0.5-1-0.8-0.5
				c-2,2.6-5.8,2-7.3-0.8c-1.2-2.5,0-5.3,2.3-6.7C-114.4,452.8-114.9,451.9-115.4,452.2L-115.4,452.2z"/>
		</g>
	</g>
	<g id="XMLID_12430_">
		<g id="XMLID_531_">
			<path id="XMLID_535_" class="st0" d="M-114.8,463.2c0,3,2.6,5.8,5.7,5.4c3-0.4,4.9-3.3,4.4-6.2c-0.1-0.6-1-0.4-0.9,0.3
				c0.4,2.4-1.5,5-4,5c-2.4,0-4.2-2.2-4.2-4.5C-113.8,462.5-114.8,462.5-114.8,463.2L-114.8,463.2z"/>
		</g>
	</g>
	<g id="XMLID_12141_">
		<g id="XMLID_525_">
			<path id="XMLID_529_" class="st0" d="M-119.7,448c-2.8,2.7-3.5,8.1,1.1,9.5c0.6,0.2,0.9-0.8,0.3-0.9c-3.9-1.2-2.9-5.7-0.7-7.9
				C-118.6,448.2-119.3,447.5-119.7,448L-119.7,448z"/>
		</g>
	</g>
	<g id="XMLID_12140_">
		<g id="XMLID_519_">
			<path id="XMLID_523_" class="st0" d="M-118.9,458.8c-2,2-4.6,6.4-1.8,8.8c2.1,1.8,6.8,1.9,7.2-1.4c0.1-0.6-0.9-0.6-1,0
				c-0.2,1.8-2.6,1.8-3.9,1.5c-1.4-0.4-2.5-1.3-2.5-2.9c0-2,1.4-4,2.7-5.3C-117.8,459-118.5,458.4-118.9,458.8L-118.9,458.8z"/>
		</g>
	</g>
	<g id="XMLID_12138_">
		<g id="XMLID_303_">
			<path id="XMLID_307_" class="st0" d="M-118.8,468.3c-0.9,1.6-1.5,3.3-0.7,5.1c0.7,1.8,2.4,3,4.3,3.1c4.5,0.4,7.1-4,6.4-8
				c-0.1-0.6-1-0.4-0.9,0.3c0.6,3.2-1.3,6.8-4.9,6.8c-1.6,0-3-0.8-3.8-2.2c-0.9-1.6-0.3-3.1,0.5-4.6
				C-117.6,468.2-118.5,467.7-118.8,468.3L-118.8,468.3z"/>
		</g>
	</g>
	<g id="XMLID_12137_">
		<g id="XMLID_513_">
			<path id="XMLID_517_" class="st0" d="M-114.5,474.2c1.7,0.3,3.3-0.9,3.4-2.6c0-0.6-0.9-0.6-1,0c-0.1,1-1.1,1.9-2.2,1.7
				C-114.8,473.1-115.1,474.1-114.5,474.2L-114.5,474.2z"/>
		</g>
	</g>
	<g id="XMLID_12136_">
		<g id="XMLID_507_">
			<path id="XMLID_511_" class="st0" d="M-119.7,463c-0.3,1.1,0.1,2.3,1,3c0.5,0.4,1.2-0.3,0.7-0.7c-0.6-0.5-0.9-1.3-0.7-2.1
				C-118.7,462.7-119.6,462.4-119.7,463L-119.7,463z"/>
		</g>
	</g>
	<g id="XMLID_12130_">
		<g id="XMLID_501_">
			<path id="XMLID_505_" class="st0" d="M-107.7,464.5c-0.6,0.4-1.2,0.7-1.8,0.8c-0.6,0.1-0.4,1,0.3,0.9c0.8-0.1,1.5-0.4,2.1-0.9
				C-106.7,465-107.2,464.1-107.7,464.5L-107.7,464.5z"/>
		</g>
	</g>
	<g id="XMLID_11899_">
		<g id="XMLID_495_">
			<path id="XMLID_499_" class="st0" d="M-108.8,458.6c0.2,0.6,0.5,1.1,1.1,1.4s1.1-0.6,0.5-0.8c-0.4-0.2-0.6-0.4-0.7-0.8
				C-108,457.7-109,458-108.8,458.6L-108.8,458.6z"/>
		</g>
	</g>
	<g id="XMLID_11632_">
		<g id="XMLID_489_">
			<path id="XMLID_493_" class="st0" d="M-115.9,456.1c-0.5,1.4-0.1,2.9,0.8,3.9c0.4,0.5,1.1-0.2,0.7-0.7c-0.7-0.8-0.9-2-0.6-3
				C-114.8,455.8-115.7,455.5-115.9,456.1L-115.9,456.1z"/>
		</g>
	</g>
	<g id="XMLID_11364_">
		<g id="XMLID_483_">
			<path id="XMLID_487_" class="st0" d="M-113.7,448.3c-0.1,1,0.4,2.1,1.2,2.7c0.5,0.4,1.2-0.3,0.7-0.7c-0.7-0.5-1-1.2-0.9-2.1
				C-112.7,447.7-113.7,447.7-113.7,448.3L-113.7,448.3z"/>
		</g>
	</g>
	<g id="XMLID_11348_">
		<g id="XMLID_477_">
			<path id="XMLID_481_" class="st0" d="M-97.1,453.1c-0.1,0.5-0.4,0.9-0.9,1.2c-0.5,0.3,0,1.2,0.5,0.8c0.7-0.4,1.1-1,1.3-1.8
				C-96,452.8-96.9,452.5-97.1,453.1L-97.1,453.1z"/>
		</g>
	</g>
	<g id="XMLID_11340_">
		<g id="XMLID_471_">
			<path id="XMLID_475_" class="st0" d="M-104.3,447c1.7,0.2,3.4-0.6,4.1-2.2c0.3-0.6-0.6-1.1-0.8-0.5c-0.5,1.2-1.7,1.9-3,1.8
				C-104.7,446-104.9,446.9-104.3,447L-104.3,447z"/>
		</g>
	</g>
	<g id="XMLID_11252_">
		<g id="XMLID_465_">
			<path id="XMLID_469_" class="st0" d="M-89.4,442c0.3,1.1-0.4,2.2-1.5,2.5c-0.6,0.1-0.4,1.1,0.3,0.9c1.6-0.4,2.6-2.1,2.2-3.7
				C-88.6,441.1-89.6,441.3-89.4,442L-89.4,442z"/>
		</g>
	</g>
	<g id="XMLID_11244_">
		<g id="XMLID_459_">
			<path id="XMLID_463_" class="st0" d="M-96.1,438.8c0.1,0.6-0.3,1.2-1,1.3c-0.6,0.1-0.6,1,0,1c1.1-0.1,2-1.1,1.9-2.2
				C-95.2,438.2-96.2,438.2-96.1,438.8L-96.1,438.8z"/>
		</g>
	</g>
	<g id="XMLID_10694_">
		<g id="XMLID_453_">
			<path id="XMLID_457_" class="st0" d="M-88.1,432.2c-0.2,0.8-0.7,1.5-1.6,1.6c-0.6,0.1-0.4,1.1,0.3,0.9c1.1-0.3,2-1.2,2.3-2.3
				C-87,431.8-87.9,431.6-88.1,432.2L-88.1,432.2z"/>
		</g>
	</g>
	<g id="XMLID_6912_">
		<g id="XMLID_447_">
			<path id="XMLID_451_" class="st0" d="M-85,422.6c0.1,1.1-0.5,2.1-1.6,2.5c-0.6,0.2-0.3,1.1,0.3,0.9c1.5-0.4,2.5-1.9,2.3-3.4
				C-84.1,422-85.1,422-85,422.6L-85,422.6z"/>
		</g>
	</g>
	<g id="XMLID_261_">
		<g id="XMLID_441_">
			<path id="XMLID_445_" class="st0" d="M-85.7,416.5c0,0.5-0.2,0.9-0.6,1.1c-0.6,0.3-0.1,1.1,0.5,0.8c0.7-0.3,1.2-1.1,1.1-1.9
				C-84.8,415.9-85.7,415.9-85.7,416.5L-85.7,416.5z"/>
		</g>
	</g>
	<g id="XMLID_260_">
		<g id="XMLID_435_">
			<path id="XMLID_439_" class="st0" d="M-85.2,407.5c0,0.8-0.4,1.4-1.1,1.8c-0.6,0.3-0.1,1.1,0.5,0.8c1-0.5,1.6-1.5,1.5-2.6
				C-84.3,406.9-85.3,406.9-85.2,407.5L-85.2,407.5z"/>
		</g>
	</g>
	<g id="XMLID_259_">
		<g id="XMLID_429_">
			<path id="XMLID_433_" class="st0" d="M-85.8,396.8c0.6,1.6,0.5,3.4-0.4,4.9c-0.3,0.5,0.5,1,0.8,0.5c1.1-1.7,1.3-3.7,0.5-5.6
				C-85.1,396-86,396.2-85.8,396.8L-85.8,396.8z"/>
		</g>
	</g>
	<g id="XMLID_258_">
		<g id="XMLID_423_">
			<path id="XMLID_427_" class="st0" d="M-92.8,389.7c1.3,0.7,1.7,2.6,0.7,3.8c-0.4,0.5,0.3,1.2,0.7,0.7c1.4-1.6,1-4.2-0.9-5.3
				C-92.8,388.6-93.3,389.4-92.8,389.7L-92.8,389.7z"/>
		</g>
	</g>
	<g id="XMLID_257_">
		<g id="XMLID_417_">
			<path id="XMLID_421_" class="st0" d="M-119,431.1c-0.4,1-0.1,2.1,0.6,2.8c0.4,0.4,1.1-0.2,0.7-0.7c-0.5-0.5-0.6-1.2-0.4-1.9
				C-117.8,430.7-118.7,430.5-119,431.1L-119,431.1z"/>
		</g>
	</g>
	<g id="XMLID_256_">
		<g id="XMLID_411_">
			<path id="XMLID_415_" class="st0" d="M-114.8,439c-0.1,0.8,0.1,1.5,0.5,2.2c0.3,0.5,1.2,0,0.8-0.5c-0.3-0.5-0.4-1.1-0.4-1.7
				C-113.8,438.4-114.8,438.4-114.8,439L-114.8,439z"/>
		</g>
	</g>
	<g id="XMLID_255_">
		<g id="XMLID_405_">
			<path id="XMLID_409_" class="st0" d="M-119.1,443.9c-0.4,0.9-0.3,1.8,0.4,2.5c0.4,0.5,1.1-0.2,0.7-0.7c-0.3-0.4-0.4-0.9-0.2-1.4
				C-118,443.8-118.9,443.3-119.1,443.9L-119.1,443.9z"/>
		</g>
	</g>
	<g id="XMLID_254_">
		<g id="XMLID_399_">
			<path id="XMLID_403_" class="st0" d="M-109.4,431.8c-0.5,1.4,0.4,3,1.8,3.4c0.6,0.2,0.9-0.8,0.3-0.9c-0.9-0.3-1.4-1.3-1.1-2.2
				C-108.2,431.4-109.2,431.2-109.4,431.8L-109.4,431.8z"/>
		</g>
	</g>
	<g id="XMLID_253_">
		<g id="XMLID_393_">
			<path id="XMLID_397_" class="st0" d="M-105.4,424.9c0.3,1,1.2,1.6,2.2,1.6c0.6,0,0.6-1,0-1s-1.1-0.3-1.3-0.9
				C-104.6,424.1-105.6,424.3-105.4,424.9L-105.4,424.9z"/>
		</g>
	</g>
	<g id="XMLID_252_">
		<g id="XMLID_387_">
			<path id="XMLID_391_" class="st0" d="M-96.8,421.2c0.6,0.5,1.3,0.8,2.1,0.8c0.6,0,0.6-1,0-1c-0.5,0-1-0.2-1.4-0.5
				C-96.5,420.1-97.2,420.8-96.8,421.2L-96.8,421.2z"/>
		</g>
	</g>
	<g id="XMLID_251_">
		<g id="XMLID_381_">
			<path id="XMLID_385_" class="st0" d="M-93.9,427.9c-0.4,0.6-0.9,1.1-1.3,1.7c-0.4,0.5,0.3,1.2,0.7,0.7c0.4-0.6,0.9-1.1,1.3-1.7
				C-92.8,428.1-93.5,427.4-93.9,427.9L-93.9,427.9z"/>
		</g>
	</g>
	<g id="XMLID_250_">
		<g id="XMLID_375_">
			<path id="XMLID_379_" class="st0" d="M-92.4,411.1c0.1,0.4,0,0.8-0.1,1.1c-0.3,0.6,0.6,1.1,0.8,0.5c0.3-0.6,0.4-1.2,0.2-1.9
				C-91.6,410.2-92.5,410.5-92.4,411.1L-92.4,411.1z"/>
		</g>
	</g>
	<g id="XMLID_249_">
		<g id="XMLID_369_">
			<path id="XMLID_373_" class="st0" d="M-92.4,402c-0.1,0.4-0.4,0.8-0.8,1.1c-0.5,0.4,0.2,1.1,0.7,0.7c0.5-0.4,0.8-0.9,1-1.5
				C-91.2,401.6-92.2,401.4-92.4,402L-92.4,402z"/>
		</g>
	</g>
	<g id="XMLID_248_">
		<g id="XMLID_363_">
			<path id="XMLID_367_" class="st0" d="M-100.5,397.1c-0.1,1.1-0.5,2.1-1.2,2.9c-0.4,0.5,0.3,1.2,0.7,0.7c0.9-1,1.4-2.2,1.5-3.6
				C-99.5,396.5-100.5,396.5-100.5,397.1L-100.5,397.1z"/>
		</g>
	</g>
	<g id="XMLID_247_">
		<g id="XMLID_357_">
			<path id="XMLID_361_" class="st0" d="M-115.6,403.2c0.4,0.6,1,0.9,1.7,0.9c0.6,0,0.6-1,0-1c-0.3,0-0.7-0.1-0.9-0.4
				C-115.1,402.2-116,402.7-115.6,403.2L-115.6,403.2z"/>
		</g>
	</g>
	<g id="XMLID_246_">
		<g id="XMLID_351_">
			<path id="XMLID_355_" class="st0" d="M-111.6,411.2c0.9,0.6,2,1,3.1,0.9c0.6,0,0.6-1,0-1c-1,0-1.8-0.2-2.6-0.8
				C-111.6,410-112.1,410.8-111.6,411.2L-111.6,411.2z"/>
		</g>
	</g>
	<g id="XMLID_245_">
		<g id="XMLID_345_">
			<path id="XMLID_349_" class="st0" d="M-124.1,404.7c0.1,1.2,0.7,2.2,1.8,2.8c0.6,0.3,1-0.5,0.5-0.8c-0.7-0.4-1.2-1.1-1.3-2
				C-123.2,404.1-124.2,404.1-124.1,404.7L-124.1,404.7z"/>
		</g>
	</g>
	<g id="XMLID_244_">
		<g id="XMLID_339_">
			<path id="XMLID_343_" class="st0" d="M-119.6,412c0,0.9,0.5,1.7,1.3,2.2c0.5,0.3,1-0.5,0.5-0.8s-0.8-0.7-0.8-1.3
				C-118.6,411.4-119.6,411.4-119.6,412L-119.6,412z"/>
		</g>
	</g>
	<g id="XMLID_243_">
		<g id="XMLID_333_">
			<path id="XMLID_337_" class="st0" d="M-119.9,420.1c-0.2,0.9,0.4,1.9,1.3,2.1c0.6,0.1,0.9-0.8,0.3-0.9c-0.4-0.1-0.7-0.5-0.6-0.9
				C-118.8,419.7-119.7,419.4-119.9,420.1L-119.9,420.1z"/>
		</g>
	</g>
	<g id="XMLID_242_">
		<g id="XMLID_327_">
			<path id="XMLID_331_" class="st0" d="M-112.3,416.5c0.2,1.1,0.8,2.1,1.8,2.6c0.5,0.3,1-0.5,0.5-0.8c-0.8-0.4-1.2-1.2-1.4-2
				C-111.4,415.6-112.4,415.9-112.3,416.5L-112.3,416.5z"/>
		</g>
	</g>
	<g id="XMLID_241_">
		<g id="XMLID_321_">
			<path id="XMLID_325_" class="st0" d="M-110.7,427.7c1.1-0.1,2.1-0.7,2.8-1.6c0.4-0.5-0.5-1-0.8-0.5c-0.5,0.6-1.2,1-1.9,1.1
				C-111.3,426.8-111.3,427.7-110.7,427.7L-110.7,427.7z"/>
		</g>
	</g>
	<g id="XMLID_240_">
		<g id="XMLID_315_">
			<path id="XMLID_319_" class="st0" d="M-100.9,417.6c-0.3,0-0.5,0-0.7-0.2c-0.5-0.3-1,0.5-0.5,0.8c0.5,0.3,0.9,0.3,1.5,0.2
				C-100,418.4-100.3,417.5-100.9,417.6L-100.9,417.6z"/>
		</g>
	</g>
	<g id="XMLID_239_">
		<g id="XMLID_309_">
			<path id="XMLID_313_" class="st0" d="M-98.4,408.6c-0.3,0.1-0.6,0.3-0.9,0.4c-0.6,0.3-0.1,1.1,0.5,0.8c0.3-0.1,0.6-0.3,0.9-0.4
				C-97.3,409.2-97.8,408.4-98.4,408.6L-98.4,408.6z"/>
		</g>
	</g>
</g>
<g id="XMLID_107_">
	<g id="XMLID_237_">
		<g id="XMLID_297_">
			<path id="XMLID_301_" class="st0" d="M-99.6,376.9c4.2,1.6,5.9,4.6,10.7,4c3.3-0.4,6.6-1.9,9.4-3.8c5.9-4.1,9.7-10.4,10.7-17.5
				c0-0.3-0.3-0.5-0.5-0.3c-1.1,1.2-0.6-3.2-0.6-3.5c0-0.3-0.4-0.4-0.5-0.1c0,0.1-0.1,0.2-0.1,0.3c0-0.3-0.3-0.5-0.5-0.2
				c0,0-0.1,0-0.1-0.1c0.1-0.3-0.1-0.5-0.4-0.4c0.8-0.4-1.9-8-2.1-8.4c-1.3-3-3.2-5.8-5.1-8.5c-0.1-0.2-0.4-0.2-0.5,0.1
				c-0.2,0.2-0.3,0.4-0.5,0.6c-0.1-0.3-0.5-0.3-0.5,0c-0.1,0.7-0.5,1.2-1.2,1.5c-0.1-0.1-0.3,0-0.4,0.1c-0.4,0.3-0.9,0.5-1.3,0.8
				c-0.2-0.1-0.4,0-0.4,0.2c-0.1,0.5-1.4,0.9-1.8,1.2c-1.6,1.3-3.6,2.9-5.1,4.4c-1.4,1.4-0.9,2.2-2.7,0.4c-1.7-1.7-0.9-2.9-0.5-5
				c0.6-3.1,1.1-6.2,1.7-9.4c0-0.2-0.2-0.4-0.4-0.3c-0.2,0.1-1.8-2.5-1.7-2.5c-1.2-1.8-2-2.2-3.3-3.8c-0.1-0.2-0.3-0.1-0.4,0.1
				c-0.3-0.1-0.5-0.3-0.8-0.4c-0.1-0.1-0.3-0.1-0.4,0c-0.1,0.1-0.2,0.2-0.3,0.2c-0.1,0.1-0.1,0.2,0,0.3c0.1,0.1,0.1,0.1,0.2,0.2
				c0.2,0.3,0.7,0,0.5-0.3c-0.4-0.5-0.8-1-1.2-1.6c-0.1-0.1-0.3-0.2-0.4-0.1c-0.5,0.5-8.9-6.4-9-6.7c-0.1-0.3-0.4-0.3-0.5,0
				c-0.2,0.6-0.8,3.7-2.2,2.9c-0.1-0.1-0.4,0-0.4,0.2c-0.2,0.2-0.4,0.3-0.6,0.5c-0.1-0.2-0.4-0.1-0.5,0.1c-0.2,0.2-0.4,0.5-0.5,0.7
				c-0.2-0.2-0.5-0.1-0.5,0.2c-0.2,0.3-0.3,0.6-0.5,1c-0.2-0.1-0.4,0-0.4,0.2c0.2,2-3.8,4.6-4.3,7c-0.1,0.3,0.3,3.5-1.1,2.3
				c-0.2-0.1-0.5-0.1-0.5,0.2c0.2,1.3-0.6,0.4-0.8,1.4c-0.3,1.5,0.6,3.5,1,4.9c0.4,1.1,3.7,7.4,3.4,8.5c-1,0.6-2,1.2-3,1.8
				c-0.7-0.6-1.5-1.2-2.2-1.8c-1.3-0.9-0.2-0.4-1.6-1c-0.1,0-0.3,0-0.3,0.1c-0.1,0.1-0.1,0.2-0.2,0.3c-0.1,0.1,0,0.3,0,0.3
				c0.1,0.1,0.1,0.1,0.2,0.2c0.3,0.3,0.6-0.1,0.4-0.4c-0.4-0.5-0.9-1-1.3-1.5c-0.1-0.1-0.4-0.1-0.4,0.1c-0.6,1-2.3-0.8-2.8-1.1
				c-0.2-0.1-0.4,0-0.4,0.2c-0.4,1.8-6.4-3.9-6.2-3.1c-0.1-0.2-0.3-0.3-0.5-0.1c-0.3-0.7-0.6-1.5-1-2.2c0-0.4-0.6-0.4-0.6,0
				c0.1,2.9,0.3,5.8,0.4,8.7c0.1,1.3,0.1,2.6,0.2,3.9c0,0.2,0.4,5.9-1.6,4c-0.2-0.2-0.6,0-0.5,0.3c-0.2,0-0.5,0-0.7,0
				c-0.2-0.1-0.4,0-0.4,0.2c-0.3,0-0.6,0-0.9,0.1c-0.2-0.1-0.3,0.1-0.4,0.3c-0.7,8.8,9,17.4,16.3,21c7.6,3.9,16.7,3.7,23.5-1.7
				c0.3-0.2-0.1-0.6-0.4-0.4c-7.8,6.3-18.3,5-26.2-0.4c-3.8-2.6-7.4-6.2-10-10c-1.2-1.8-5.1-7.7-1.9-8.2c0.1,0,0.2-0.1,0.2-0.2
				c0.4,0.2,0.8,0.3,1.2,0.5c0.2,0.1,0.5-0.1,0.4-0.3c0.1,0.1,0.1,0.2,0.2,0.2c0.1,0.1,0.2,0.1,0.3,0c2.8-1.4,1.1-6.9,1-9.3
				c0-1.1,0.2-7.4-0.8-7.4c-0.3,0,0.9,1.5,1.2,1.6c0.1,0.1,0.3,0.1,0.3,0c-1.1,1.2,6.5,4.2,6.3,4.1c0.2,0.1,0.4,0.1,0.5-0.1
				c0.6,0.3,1.2,0.7,1.8,1c0.1,0.1,0.3,0.2,0.4,0.1c3.7-2,6.7,6.4,9.8,3.9c1-0.8,0.5-1.8,0.4-2.7c0-0.4-6.2-14.3-4.2-14.3
				c0.1,0,0.3-0.1,0.3-0.3c0.1-0.1,0.1-0.1,0.2-0.2c0.1,0.1,0.3,0.1,0.4-0.1c0.3-0.3,0.7-0.6,1-0.9c0.1-0.1,0.3-0.2,0.2-0.3
				c-1.1-2.8,2-5.7,3.7-7.6c0.1-0.1,0.6-0.8,0.3-1c0.1,0.1,0.2,0,0.3,0c0.2-0.1,0.3-0.2,0.5-0.3c0.1,0,0.1-0.1,0.1-0.2
				c0-0.1,0.5-1.8,1.3-0.9c0.1,0.2,0.4,0.1,0.5-0.1c0.4-0.2,0.8-0.4,1.2-0.6c0.2,0.1,0.4,0,0.4-0.2c0.1-0.3,0.8-2.8,1.1-2.8
				c-0.5,0,5.8,2,0.7,0.9c2.8,0.6,4.8,3.5,7.1,4.9c1,0.6,3,1.8,4,2c0.1,0,0.2,0,0.3-0.1c0.2-0.3,3.9,5.7,4.7,6.4
				c0.1,0.1,0.2,0.1,0.3,0c-0.4,0.2-0.9,4.7-1,5c-0.3,1.9-0.7,3.7-1,5.6c-0.2,1.2-1.3,3.9-0.8,5.2c0.9,1.9,1.9,1.4,3.3,0.2
				c2.9-2.4,5.5-4.9,8.6-7c0.1-0.1,2.1-1.4,2.1-1.4c0.1,0.1,0.2,0.1,0.3,0c0.8-0.5,1-1,1-1c0.1,0.3,0.4,0.2,0.5,0
				c0.9-2.1,6.2,9.2,6.3,9.8c0.4,1.3,0,4.5,1.2,5.7c0.1,0.1,0.2,0.1,0.3,0c-0.3,0.1-0.6-0.4-0.1,0.5c0,0.1,0.1,0.1,0.2,0.1
				c1.1-0.1,0.3-0.3,0.2,0.5c0,0.3,0.3,0.5,0.5,0.2c0.1-0.2,0.2,2.6,0.3,3.4c0,0.2,0.3,0.4,0.5,0.2c0.6-0.7-0.2,2.4-0.3,2.7
				c-0.5,1.7-1.3,3.5-2.2,5c-1.8,3.2-4.4,6-7.4,8c-2.7,1.9-7.3,4.2-10.7,3.8c-3.6-0.4-5.7-2.9-8.9-4.1
				C-99.8,376.3-99.9,376.8-99.6,376.9L-99.6,376.9z"/>
		</g>
	</g>
	<g id="XMLID_236_">
		<g id="XMLID_291_">
			<path id="XMLID_295_" class="st0" d="M-109.7,319.3c1.5,9.7,3.3,19.4,5.3,29.1c2,9.9,5.1,20.4,3.6,30.5c-0.4,2.4-0.9,4.6-1.5,6.9
				c-0.2,0.8-1.2,5.8-1.8,6c0.6-0.2-1.6-1.5-1.5-0.9s2.6-3.8,2.9-4.6c1.2-3.1,1.7-6.2,1.8-9.5c0-0.4-0.6-0.4-0.6,0
				c-0.2,5.5-1.7,10.3-4.8,14.8c-0.2,0.3,0.3,0.6,0.5,0.3c0.4,0.3,0.9,0.6,1.3,0.9c0.1,0.3,0.5,0.2,0.5,0c1.8-5.4,3.6-10.8,4.1-16.5
				c0.5-5.6-0.6-11-1.7-16.4c-2.6-13.6-5.5-27-7.6-40.7C-109.2,318.8-109.8,319-109.7,319.3L-109.7,319.3z"/>
		</g>
	</g>
	<g id="XMLID_235_">
		<g id="XMLID_285_">
			<path id="XMLID_289_" class="st0" d="M-100.3,375.8c-3.2-6.7-9.5-10-15.6-13.9c-7.5-4.8-15.6-11.5-20.5-19
				c-0.2-0.3-0.7,0-0.5,0.3c4.1,6.2,10,11.3,15.9,15.9c7,5.4,16.1,8.6,20.2,17.1C-100.6,376.4-100.1,376.1-100.3,375.8L-100.3,375.8
				z"/>
		</g>
	</g>
	<g id="XMLID_234_">
		<g id="XMLID_279_">
			<path id="XMLID_283_" class="st0" d="M-100.1,376.3c17.6-3.7,23.8-20.6,21.7-37c0-0.4-0.6-0.4-0.6,0c2.1,16.1-3.9,32.8-21.3,36.4
				C-100.6,375.8-100.4,376.4-100.1,376.3L-100.1,376.3z"/>
		</g>
	</g>
	<g id="XMLID_233_">
		<g id="XMLID_273_">
			<path id="XMLID_277_" class="st0" d="M-100,376.7c12.6,0.8,23.9-5.2,30.4-16c0.2-0.3-0.3-0.6-0.5-0.3
				c-6.4,10.6-17.5,16.5-29.9,15.7C-100.4,376.1-100.4,376.7-100,376.7L-100,376.7z"/>
		</g>
	</g>
	<g id="XMLID_232_">
		<g id="XMLID_267_">
			<path id="XMLID_271_" class="st0" d="M-100.9,375.5c-14.8,0.4-26.4-8.8-37.3-17.7c-0.3-0.2-0.7,0.2-0.4,0.4
				c10.9,9,22.7,18.2,37.7,17.9C-100.6,376-100.6,375.5-100.9,375.5L-100.9,375.5z"/>
		</g>
	</g>
	<g id="XMLID_231_">
		<g id="XMLID_203_">
			<path id="XMLID_265_" class="st0" d="M-107.7,330.5c-2.8-1.5-4.7-4-6.5-6.6c-0.2-0.3-0.7,0-0.5,0.3c1.9,2.6,3.8,5.2,6.7,6.8
				C-107.7,331.2-107.4,330.7-107.7,330.5L-107.7,330.5z"/>
		</g>
	</g>
	<g id="XMLID_230_">
		<g id="XMLID_197_">
			<path id="XMLID_201_" class="st0" d="M-107.4,331c2-1.9,4.5-3.8,4.9-6.8c0-0.4-0.5-0.5-0.5-0.1c-0.4,2.8-2.8,4.7-4.8,6.5
				C-108.1,330.9-107.7,331.3-107.4,331L-107.4,331z"/>
		</g>
	</g>
	<g id="XMLID_229_">
		<g id="XMLID_189_">
			<path id="XMLID_193_" class="st0" d="M-105.7,339.4c-2.2-1.7-4.4-3.5-6.6-5.2c-1.9-1.5-4.1-3-5.2-5.3c-0.2-0.3-0.6,0-0.5,0.3
				c1,2.1,2.8,3.4,4.6,4.8c2.4,2,4.8,3.9,7.3,5.8C-105.9,340-105.5,339.6-105.7,339.4L-105.7,339.4z"/>
		</g>
	</g>
	<g id="XMLID_228_">
		<g id="XMLID_183_">
			<path id="XMLID_187_" class="st0" d="M-106.1,339.8c2.4-1.5,4.7-3.2,6.5-5.5c1.1-1.4,3.3-4.5,3.2-6.5c0-0.2-0.2-0.3-0.4-0.2h-0.1
				c-0.1,0.1-0.2,0.3-0.1,0.4c0,0,0,0,0,0.1c0.1,0.3,0.6,0,0.5-0.3c0,0-1.2,2.1-1.3,2.3c-0.2,0.5-0.4,0.9-0.6,1.4
				c-0.6,1.2-1.4,2.4-2.3,3.4c-1.6,1.8-3.6,3.2-5.6,4.5C-106.7,339.5-106.4,340-106.1,339.8L-106.1,339.8z"/>
		</g>
	</g>
	<g id="XMLID_227_">
		<g id="XMLID_177_">
			<path id="XMLID_181_" class="st0" d="M-104.1,348.1c6-3.1,8.8-8.5,11.9-14.1c0.2-0.3-0.3-0.6-0.5-0.3
				c-3.1,5.5-5.9,10.9-11.7,13.9C-104.7,347.8-104.4,348.3-104.1,348.1L-104.1,348.1z"/>
		</g>
	</g>
	<g id="XMLID_226_">
		<g id="XMLID_171_">
			<path id="XMLID_175_" class="st0" d="M-104.3,347.6c-6.9-2.4-13.4-6.1-17.6-12.2c-0.2-0.3-0.7,0-0.5,0.3c4.4,6.3,10.9,10,18,12.5
				C-104.1,348.3-103.9,347.8-104.3,347.6L-104.3,347.6z"/>
		</g>
	</g>
	<g id="XMLID_225_">
		<g id="XMLID_165_">
			<path id="XMLID_169_" class="st0" d="M-131.9,363.7c-2.2,1.2-4.5,1.8-6.9,1.8c-0.4,0-0.4,0.6,0,0.6c2.6,0,5-0.7,7.2-1.9
				C-131.3,364-131.6,363.5-131.9,363.7L-131.9,363.7z"/>
		</g>
	</g>
	<g id="XMLID_224_">
		<g id="XMLID_159_">
			<path id="XMLID_163_" class="st0" d="M-125.1,368.5c-2.7,1.8-5.9,2.7-8.9,2.7c-1,0-1,0.6,0,0.6c3,0,6.5-0.9,9.3-2.8
				C-124.4,368.7-124.8,368.3-125.1,368.5L-125.1,368.5z"/>
		</g>
	</g>
	<g id="XMLID_223_">
		<g id="XMLID_153_">
			<path id="XMLID_157_" class="st0" d="M-118.3,372.2c-3,2.3-6.4,3.6-10.2,3.9c-0.4,0-0.4,0.6,0,0.6c3.9-0.3,7.5-1.7,10.6-4.1
				C-117.6,372.4-118,372-118.3,372.2L-118.3,372.2z"/>
		</g>
	</g>
	<g id="XMLID_222_">
		<g id="XMLID_147_">
			<path id="XMLID_151_" class="st0" d="M-110.3,375c-2.4,2.3-5.2,4-8.1,5.6c-0.3,0.2,0,0.7,0.3,0.5c2.9-1.7,5.7-3.4,8.2-5.7
				C-109.6,375.1-110,374.7-110.3,375L-110.3,375z"/>
		</g>
	</g>
	<g id="XMLID_221_">
		<g id="XMLID_141_">
			<path id="XMLID_145_" class="st0" d="M-75.2,367.5c-0.2,0-0.4,0.1-0.6,0.1c-0.3,0-0.3,0.5,0,0.5c1.3,0.3,2.6,0.5,3.9,0.3
				c0.4,0,0.2-0.6-0.2-0.6c-1.3,0.1-2,0.1-4-0.3c0,0.2,0,0.4,0,0.5c1,0,0.6-0.1,0.8-0.1C-74.9,368-74.8,367.5-75.2,367.5
				L-75.2,367.5z"/>
		</g>
	</g>
	<g id="XMLID_220_">
		<g id="XMLID_135_">
			<path id="XMLID_139_" class="st0" d="M-81,372.4c1.1,0.1,2,0.9,3.1,1.1c0.8,0.2,1.6,0.1,2.4-0.1c0.4-0.1,0.2-0.6-0.1-0.5
				c-1.1,0.2-2.2,0.1-3.2-0.3c-0.7-0.3-1.3-0.7-2.1-0.8C-81.4,371.8-81.4,372.3-81,372.4L-81,372.4z"/>
		</g>
	</g>
	<g id="XMLID_219_">
		<g id="XMLID_129_">
			<path id="XMLID_133_" class="st0" d="M-85.9,374.7c0.9,1.7,2.3,2.9,4,3.6c0.3,0.1,0.5-0.4,0.1-0.5c-1.6-0.6-2.9-1.8-3.7-3.3
				C-85.5,374.1-86,374.3-85.9,374.7L-85.9,374.7z"/>
		</g>
	</g>
	<g id="XMLID_218_">
		<g id="XMLID_123_">
			<path id="XMLID_127_" class="st0" d="M-91.7,376.4c0.7,0.9,1.5,1.9,2.3,2.7c0.7,0.6,1.6,0.8,2.5,1c0.4,0.1,0.5-0.5,0.1-0.5
				c-1-0.2-2-0.5-2.7-1.3c-0.7-0.7-1.3-1.5-1.9-2.3C-91.5,375.8-91.9,376.2-91.7,376.4L-91.7,376.4z"/>
		</g>
	</g>
	<g id="XMLID_217_">
		<g id="XMLID_116_">
			<path id="XMLID_121_" class="st0" d="M-78.2,347.3c4.6,6.3,6.2,13.8,1.8,20.6c-0.2,0.3,0.3,0.6,0.5,0.3c4.5-7,3-14.6-1.8-21.2
				C-78,346.7-78.5,347-78.2,347.3L-78.2,347.3z"/>
		</g>
	</g>
	<g id="XMLID_216_">
		<g id="XMLID_109_">
			<path id="XMLID_114_" class="st0" d="M-80.8,372.3c3.4-3.8,4.5-10.7,1.5-15c-0.1-0.2-0.6-0.2-0.5,0.1c0,0.2,0,0.3,0.1,0.5
				c0,0.4,0.6,0.4,0.6,0c0.3,2.2,1,4.3,0.9,6.6c-0.1,2.9-1,5.2-2.9,7.3C-81.4,372.1-81,372.5-80.8,372.3L-80.8,372.3z"/>
		</g>
	</g>
	<g id="XMLID_215_">
		<g id="XMLID_102_">
			<path id="XMLID_106_" class="st0" d="M-85.6,374.5c1.3-0.6,2.4-2,2.1-3.5c-0.3-1.4-1.6-2.4-3-2.2c-0.4,0-0.4,0.6,0,0.6
				c1.2-0.1,2.3,0.7,2.4,1.9c0.1,1.2-0.7,2.3-1.8,2.7C-86.2,374.1-85.9,374.6-85.6,374.5L-85.6,374.5z"/>
		</g>
	</g>
	<g id="XMLID_214_">
		<g id="XMLID_96_">
			<path id="XMLID_100_" class="st0" d="M-91.4,376.2c0.6-0.7,1.3-1.4,1.2-2.4c-0.1-0.7-0.6-1.3-1.4-1.4c-0.4,0-0.4,0.5,0,0.6
				c0.7,0,0.9,0.8,0.8,1.4s-0.6,1-1,1.5C-92,376.1-91.6,376.5-91.4,376.2L-91.4,376.2z"/>
		</g>
	</g>
	<g id="XMLID_213_">
		<g id="XMLID_90_">
			<path id="XMLID_94_" class="st0" d="M-110.2,374.7c-1.2-1.1-3-3.7-1.4-5.2c0.6-0.6,1.5-0.7,2.3-0.7c0.3,0,0.7,0,1,0
				c0.1,0,0.3,0,0.4,0c0.4,0.1,0.7,0,0.9-0.4c-0.4,0.1-0.2,0.6,0.1,0.5c0,0,0,0,0.1,0s0.2-0.1,0.2-0.3v-0.1c0-0.1-0.1-0.2-0.2-0.3
				c-0.9-0.3-2.5-0.2-3.5,0c-0.8,0.1-1.6,0.4-2.1,1.1c-1.3,1.8,0.4,4.4,1.7,5.7C-110.3,375.3-110,374.9-110.2,374.7L-110.2,374.7z"
				/>
		</g>
	</g>
	<g id="XMLID_212_">
		<g id="XMLID_84_">
			<path id="XMLID_88_" class="st0" d="M-117.5,372.3c-1.7-3.9,1.9-7.1,5.6-7c0.4,0,0.4-0.6,0-0.6c-4.2-0.1-8,3.6-6.1,7.9
				C-117.9,372.9-117.4,372.6-117.5,372.3L-117.5,372.3z"/>
		</g>
	</g>
	<g id="XMLID_211_">
		<g id="XMLID_78_">
			<path id="XMLID_82_" class="st0" d="M-124.4,368.3c-0.8-2.2-0.6-4.1,1.5-5.5c1.6-1,3.4-1.4,5.3-1.1c0.4,0,0.4-0.5,0-0.6
				c-2.3-0.3-4.6,0.3-6.4,1.8s-1.7,3.5-1,5.5C-124.8,368.8-124.3,368.6-124.4,368.3L-124.4,368.3z"/>
		</g>
	</g>
	<g id="XMLID_210_">
		<g id="XMLID_72_">
			<path id="XMLID_76_" class="st0" d="M-131.3,363.4c0.1-2-0.8-3.7,0.6-5.4c1.3-1.6,3.4-2.3,5.4-2c0.4,0.1,0.5-0.5,0.1-0.5
				c-2-0.3-4,0.2-5.5,1.6c-0.7,0.7-1.2,1.5-1.4,2.5c-0.3,1.3,0.3,2.6,0.3,3.9C-131.8,363.8-131.3,363.8-131.3,363.4L-131.3,363.4z"
				/>
		</g>
	</g>
	<g id="XMLID_209_">
		<g id="XMLID_66_">
			<path id="XMLID_70_" class="st0" d="M-124.7,355.5c-0.1-2.5,0.2-4.9,0.9-7.3c0.1-0.3-0.4-0.5-0.5-0.1c-0.8,2.4-1.1,4.9-1,7.4
				C-125.2,355.9-124.7,355.9-124.7,355.5L-124.7,355.5z"/>
		</g>
	</g>
	<g id="XMLID_208_">
		<g id="XMLID_60_">
			<path id="XMLID_64_" class="st0" d="M-116.8,361.4c-0.3-2.9-1.2-6.2-0.8-9.1c0.1-0.4-0.5-0.5-0.5-0.1c-0.5,2.9,0.4,6.3,0.7,9.2
				C-117.3,361.8-116.7,361.8-116.8,361.4L-116.8,361.4z"/>
		</g>
	</g>
	<g id="XMLID_207_">
		<g id="XMLID_54_">
			<path id="XMLID_58_" class="st0" d="M-117.2,350.3c0.4,2.5,3.8,4,5.6,5.3c3.2,2.4,6.5,4.6,9.9,6.8c0.3,0.2,0.6-0.3,0.3-0.5
				c-2.4-1.6-4.8-3.2-7.1-4.8c-2-1.4-7.7-4.4-8.1-7C-116.7,349.8-117.2,349.9-117.2,350.3L-117.2,350.3z"/>
		</g>
	</g>
	<g id="XMLID_206_">
		<g id="XMLID_48_">
			<path id="XMLID_52_" class="st0" d="M-93.9,350.7c-1.1,2-2.2,4-3.4,6c-1.3,2.1-2.4,4.3-4.7,5.6c-0.3,0.2,0,0.7,0.3,0.5
				c1.8-1,2.9-2.6,4-4.3c1.5-2.4,3-4.9,4.3-7.4C-93.2,350.7-93.7,350.4-93.9,350.7L-93.9,350.7z"/>
		</g>
	</g>
	<g id="XMLID_205_">
		<g id="XMLID_42_">
			<path id="XMLID_46_" class="st0" d="M-106.3,368.2c-0.5-1.8-1.2-6.8,1.9-6.7c0.4,0,0.4-0.5,0-0.6c-3.6-0.1-3.1,5.2-2.4,7.4
				C-106.7,368.7-106.2,368.5-106.3,368.2L-106.3,368.2z"/>
		</g>
	</g>
	<g id="XMLID_204_">
		<g id="XMLID_36_">
			<path id="XMLID_40_" class="st0" d="M-111.4,364.2c-0.6-2.4-1.3-5.4,1.2-7c0.3-0.2,0-0.7-0.3-0.5c-2.7,1.7-2.1,5-1.4,7.6
				C-111.8,364.7-111.3,364.6-111.4,364.2L-111.4,364.2z"/>
		</g>
	</g>
	<g id="XMLID_196_">
		<g id="XMLID_30_">
			<path id="XMLID_34_" class="st0" d="M-91.3,372.7c1.4-2.6,0.8-5.6-0.3-8.2c-1.3-3-3.9-4.2-6.8-5.3c-0.3-0.1-0.5,0.4-0.1,0.5
				c2.4,0.9,4.9,2,6.1,4.4c1.3,2.5,2,5.8,0.6,8.3C-91.9,372.7-91.4,373-91.3,372.7L-91.3,372.7z"/>
		</g>
	</g>
	<g id="XMLID_195_">
		<g id="XMLID_24_">
			<path id="XMLID_28_" class="st0" d="M-86.2,368.7c0.4-5.8-2.5-14-9.1-14.5c-0.4,0-0.4,0.5,0,0.6c6.3,0.5,9,8.6,8.6,14
				C-86.8,369-86.2,369-86.2,368.7L-86.2,368.7z"/>
		</g>
	</g>
	<g id="XMLID_119_">
		<g id="XMLID_18_">
			<path id="XMLID_22_" class="st0" d="M-79.5,357.6c-1.6-3-4-5.3-7.1-6.7c-1.2-0.6-5.1-2.4-6.2-0.9c-0.2,0.3,0.3,0.6,0.5,0.3
				c0.4-0.6,3.2,0.3,3.8,0.5c1.2,0.4,2.4,1,3.5,1.7c2.1,1.4,3.8,3.3,5,5.5C-79.8,358.2-79.3,357.9-79.5,357.6L-79.5,357.6z"/>
		</g>
	</g>
	<g id="XMLID_113_">
		<g id="XMLID_12_">
			<path id="XMLID_16_" class="st0" d="M-78.4,346.9c-2.6-1.2-5.3-1.2-8.2-0.8c-0.7,0.1-3.6,0-3.7,1.2c0,0.4,0.5,0.4,0.6,0
				c0-0.4,4.8-0.8,5.2-0.8c2-0.1,4,0.2,5.8,1C-78.3,347.5-78,347-78.4,346.9L-78.4,346.9z"/>
		</g>
	</g>
</g>
</svg>
