<?xml version="1.0" encoding="utf-8"?>
<!-- Generator: Adobe Illustrator 19.0.0, SVG Export Plug-In . SVG Version: 6.00 Build 0)  -->
<svg version="1.1" id="Layer_1" xmlns="http://www.w3.org/2000/svg" xmlns:xlink="http://www.w3.org/1999/xlink" x="0px" y="0px"
	 viewBox="-205 297 200 200" style="enable-background:new -205 297 200 200;" xml:space="preserve">
<style type="text/css">
	.st0{fill:#E2F2F5;}
</style>
<g id="XMLID_202_">
	<g id="XMLID_16936_">
		<g>
			<path class="st0" d="M-49.6,358.3c-1.2,1.4-2.3,2.8-3.5,4.3c-0.8,0.9-2.5,4-3.5,4.3c-2.2,0.5-4.8-3.2-6.3-4.7
				c-2.1-2-5.8-7.1-9.2-5.8c-3.7,1.5-4.8,9.8-8.8,9.7c-1,0-3.4-2.9-4.4-3.8c-1.5-1.3-2.9-2.5-4.4-3.8c-1.6-1.4-3.6-3.9-5.7-4.7
				c-3.8-1.4-7,3.5-9.3,5.7c-0.7,0.7-1.4,1.3-2.1,2c-1.9-0.3-3.7-0.6-5.6-0.9c-1.1-0.6-2.7-2.6-3.5-3.5c-1.5-1.7-2.7-4.9-4.6-6.1
				c-3-1.9-6.4,2.4-8.6,4c-3.2,2.3-5.3,5.1-9,2.6c-3.1-2.1-5.9-5.1-8.8-7.5c-0.4-0.4-0.9-0.3-1.2,0.2c-3.4,4.5-7.5,8.3-12.3,11.3
				c-0.8,0.5-0.1,1.9,0.8,1.3c4.2-2.6,7.2-6,10.8-9.2c0.2-0.2,0.8-1.3,1.1-1.4c1.4-0.2,2.5,1.2,3.4,2c2.7,2.3,5.4,4.6,8.1,6.9
				c0.2,0.2,0.7,0.3,0.9,0.1c2.9-2,5.7-4.1,8.6-6.1c0.8-0.6,2.8-2.7,3.9-2.8c2.2-0.1,2.6,1.6,3.7,3.1c2.1,2.8,5.8,8,9.5,8.6
				c4.1,0.7,6.7-4.7,9.6-6.8c0.5-0.4,0.9-0.9,1.4-1.3c2.3-0.2,4.2,0.4,5.7,1.8c1.3,0.9,2.4,2.1,3.6,3.1c2.9,2.5,5.8,5,8.7,7.5
				c0.4,0.3,0.9,0.3,1.2-0.2c1.4-2,2.9-4,4.3-6.1c2.5-3.5,3.1-5.2,7.8-1.9c3.5,2.5,6.5,6,9.5,9.1c0.3,0.3,0.8,0.3,1.1,0
				c2.7-3.3,5.4-6.6,8.1-10C-47.9,358.6-49,357.5-49.6,358.3L-49.6,358.3z"/>
		</g>
	</g>
	<g id="XMLID_16928_">
		<g>
			<path class="st0" d="M-47.3,378.2c-1.5,2.2-3.1,4.5-4.6,6.7c-2.1,3-2.4,5.1-5.7,2.3c-4.1-3.6-8-7.4-11.8-11.4
				c-0.4-0.4-1-0.2-1.2,0.2c-1.5,2.2-7.2,11.9-10.6,11.2c-1.5-0.3-3.9-3.5-5-4.6c-2-2-3.9-4.1-5.7-6.3c-0.3-0.3-0.8-0.3-1.1,0
				c-2.4,2.9-4.8,5.8-7.2,8.7c-1.8,2.2-4.1,6.8-7,5.4c-2.7-1.2-5.5-4.8-7.6-6.9c-2.7-2.6-5.2-5.3-7.8-8c-0.3-0.3-0.8-0.3-1.1,0
				c-3.3,3.6-7.5,10.8-13.1,8.6c-3.7-1.5-7.4-6.3-9.9-9.3c-0.2-0.2-0.7-0.3-0.9-0.1c-2.5,1.7-5,3.5-7.5,5.2
				c-0.8,0.6-6.8,5.3-6.9,5.2c0.9,0.5,1.7-0.9,0.8-1.3c-0.1,0-0.2-0.1-0.3-0.1c-0.3-0.2-0.7-0.1-0.9,0.1c-0.5,0.5-0.6,0.7-0.4,1.4
				c0.1,0.4,0.4,0.5,0.7,0.6c1.9,0.2,3.3-1.5,4.7-2.5c1.5-1,3-2.1,4.5-3.1c0.9-0.6,3.3-3.1,4.5-3.1c2.5-0.2,5.4,4.2,7.4,5.8
				c1.8,1.5,4.1,3.7,6.5,4c1.5,0.2,2.2-0.3,3.5-1.3c1.9-1.5,5.5-7.6,7.8-7.6c2,0,6.4,5.8,7.9,7.3c2.9,2.8,5.9,5.4,9,8
				c0.3,0.2,0.8,0.3,1.1,0c2-2.4,4-4.8,6-7.2c1-1.2,4.4-6.8,6-7.2c2-0.5,3.8,2.8,5.2,4.2c2.2,2.2,4.5,4.3,6.9,6.3
				c0.3,0.3,0.8,0.3,1.1,0c2.2-2.1,4.3-4.2,6.2-6.5c1.1-1.3,2.8-4.8,4.4-4.7c1.2,0.1,5.1,5.1,6.1,6.1c2.5,2.4,5.1,4.6,7.8,6.9
				c0.4,0.3,0.9,0.3,1.2-0.2c2.7-4,5.4-8,8.2-12C-45.4,378.2-46.8,377.4-47.3,378.2L-47.3,378.2z"/>
		</g>
	</g>
	<g id="XMLID_16920_">
		<g>
			<path class="st0" d="M-50.4,404.2c-1.3,2.2-5.1,11.5-7.7,11.6c-1,0-4.5-4.3-5.3-5.1c-1.8-1.7-3.5-3.4-5.3-5.1
				c-0.3-0.3-0.8-0.3-1.1,0c-1.6,1.8-3.3,3.5-4.9,5.3c-0.9,0.9-3.7,5.1-4.9,5.3c-2.9,0.4-8.6-8.5-10.5-10.7c-0.3-0.3-0.8-0.3-1.1,0
				c-1.6,1.9-3.2,3.8-4.9,5.7c-0.8,0.9-1.6,1.9-2.4,2.8c-2.4,1.4-4.2,1.2-5.6-0.7c-4.3-2.4-8.2-7.2-11.8-10.4
				c-0.3-0.3-0.8-0.3-1.1,0c-2.6,3.2-10.2,11.6-14.8,9.1c-2.3-1.2-4.3-4-6.2-5.7c-2.5-2.3-5-4.6-7.6-7c-0.3-0.2-0.6-0.3-0.9-0.1
				c-6,3.7-12.1,7.4-18.1,11c-0.9,0.5-0.1,1.9,0.8,1.3c2.7-1.7,5.5-3.3,8.2-5c2.3-1.4,6.6-5.2,9.3-4.9c2.5,0.2,5.4,4,7.2,5.8
				c2.5,2.3,5,4.6,7.6,7c0.2,0.2,0.5,0.3,0.8,0.2c4.7-1.7,8.9-4.2,12.4-7.7c1.5-1.6,1.6-2,3.6-0.9c1.3,0.8,2.5,2.2,3.7,3.3
				c2.6,2.3,5.4,5.7,8.5,7.3c3,1.6,4.6-0.7,6.5-2.9c1.2-1.3,2.3-3.1,3.6-4.3c2.1-1.9,1.8-1.8,3.9,0.2c2.8,2.6,5.2,6.1,7.8,9
				c0.3,0.3,0.8,0.3,1.1,0c1.6-1.8,3.3-3.5,4.9-5.3c1.3-1.4,3.9-5.2,5.7-5.3c1.7-0.1,4.1,3.2,5.3,4.4c2,1.9,3.9,3.8,5.9,5.7
				c0.4,0.3,1,0.3,1.2-0.2c2.5-4.3,5.1-8.7,7.6-13C-48.5,404.1-49.9,403.3-50.4,404.2L-50.4,404.2z"/>
		</g>
	</g>
	<g id="XMLID_203_">
		<g>
			<path class="st0" d="M-45.6,430.6c-1.3,2.3-2.7,4.4-4.4,6.5c-2,2.5-2.1,2.9-4.5,0.9c-3.7-3-6.9-6.9-10.6-10
				c-0.3-0.3-0.8-0.3-1.1,0c-1.7,1.9-3.4,3.8-5.1,5.6c-1.7,1.9-3.6,5-5.7,6.3c-2.4,1.6-3.4-0.5-5.2-2.4c-1.8-1.9-3.7-3.8-5.5-5.8
				c-0.3-0.3-0.8-0.3-1.1,0c-1.8,1.5-3.6,3-5.4,4.6c-1.2,1-3.9,4.3-5.4,4.6c-3,0.6-8.4-5.2-10.7-6.9c-1.9-1.5-2.9-2.5-5.2-1.7
				c-2.7,1-5.7,5-7.9,7c-2.5,2.2-2.8,3.1-5.5,1c-1.4-1.1-2.7-2.7-3.9-4c-2.3-2.3-5.6-7.5-8.9-8.2c-1.4-0.3-2.4,0.2-3.5,0.9
				c-3.9,2.5-7.3,6.8-10.7,10c-0.7,0.7,0.4,1.8,1.1,1.1c2.1-1.9,4.1-3.9,6.2-5.8c0.8-0.8,1.8-2,2.7-2.6c0.7-1,1.7-1.2,3.1-0.8
				c1.6-0.7,2.9-0.3,3.7,1.2c4.3,3.1,8,8.1,11.8,11.9c0.3,0.3,0.8,0.3,1.1,0c2.9-2.6,8.4-9.6,12.2-9.8c2.6-0.1,4.7,2.3,6.7,3.9
				c2.2,1.7,4.4,3.4,6.6,5.1c0.3,0.2,0.7,0.1,0.9-0.1c2.5-2.1,5-4.2,7.5-6.3c0.7-0.6,2.4-2.7,3.4-2.9c1.8-0.2,2.8,1.5,3.9,2.7
				c1.8,1.8,4.3,6.3,7.2,5.9c1.4-0.2,2.5-2.2,3.3-3c2.3-2.5,4.4-5.5,7-7.8c3.1-2.7,4.3-0.6,6.9,2c2.7,2.5,5.2,5.1,7.6,7.9
				c0.3,0.3,0.8,0.3,1.1,0c3-3.2,5.6-6.6,7.8-10.4C-43.8,430.5-45.1,429.8-45.6,430.6L-45.6,430.6z"/>
		</g>
	</g>
</g>
</svg>
