<?xml version="1.0" encoding="utf-8"?>
<!-- Generator: Adobe Illustrator 19.0.0, SVG Export Plug-In . SVG Version: 6.00 Build 0)  -->
<svg version="1.1" id="Layer_1" xmlns="http://www.w3.org/2000/svg" xmlns:xlink="http://www.w3.org/1999/xlink" x="0px" y="0px"
	 viewBox="-205 297 200 200" style="enable-background:new -205 297 200 200;" xml:space="preserve">
<style type="text/css">
	.st0{fill:#EEEEEE;}
</style>
<g>
	<path class="st0" d="M-155.5,414.5c-1.1-2.6-2.3-5.3-3.4-7.8c1.2-1.8,2-3,3.1-4.7c3.9,0.5,7.7,1,11.7,1.5
		c4.1-8.3,4.5-17.9,9.5-25.8c-2.1,7.8-4.2,15.7-6.4,23.5c0.3,0.2,0.6,0.5,0.9,0.7c6.5-3,13.1-5.5,21.1-6c-1.3,0.8-2,1.2-2.6,1.6
		c-4.9,0.1-9.3,2-13.8,3.5c0.1,0.3,0.2,0.6,0.3,1c4.5-1.5,9-3,13.6-4.5c6-0.9,11.9-2,17.9-2.7c7.5-0.8,15.1-1.3,22.6-1.9
		c1.1-0.1,2.2,0.1,3.4,0.2c0,0.3,0,0.7,0,1c-3,0.1-6,0.3-9.1,0.4c0,0.1,0,0.2,0,0.3c6.2,0.3,12.4,0.6,19.2,1
		c-1.5-7.7-4.7-14.9-7.5-22.3c4.5-0.7,11.5,4.8,13.8,10.8c-3.4-3.6-6.6-7.5-11.8-9.9c2.8,8.3,5.4,16.1,8.2,24.4
		c4.3,0.5,8.5,1.1,12.8,1.6c1.9,4.4,0.3,8-1.7,11.7c-1.5,0.6-3.1,1.3-5.3,2.2c-1.3-2.7-2.5-5.3-3.7-7.9c-0.2,0-0.3,0-0.5,0.1
		c0.3,2.3,0.4,4.6,0.8,6.8c0.8,3.6,0,6.8-1.6,10c-1,2.1-1.2,4.7-1.8,7c-0.8,3-1.4,6-2.5,8.9c-1.2,3-3.5,3.9-7.3,3.2
		c0.1-1.3-0.4-2.9,0.3-3.9c3.4-5.5,1.7-11.1,0.7-16.9c-1.5-0.3-2.7-0.7-3.9-0.9c-10.7-1-21.5-1.3-32.3-1.9c-8.1-0.4-15.9,0.2-23.7,2
		c-1.8,0.4-3.5,1.4-5.4,2.1c0.6,8.4,3,15.4,9.5,20.8c-0.3,0.2-0.5,0.4-0.8,0.7c-1.1-0.9-2.4-1.7-3.2-2.7c-3.2-4-5.2-8.5-6.3-13.5
		c-0.5-2.4-1.9-4.5-2.9-6.8c-0.3,0.1-0.5,0.2-0.8,0.3c-0.5-2.9-0.9-5.7-1.4-8.9c-2.4,1.7-4.5,3.3-7.1,5.2
		C-154,416.6-154.7,415.6-155.5,414.5c1,0.3,1.9,0.7,3,1.1c1.2-3,1.1-5.2-0.7-7.2l0,0c-0.6-1.2-1.3-2.4-1.9-3.7
		c-0.4,0.1-0.8,0.1-1.2,0.2c-0.2,1.2-0.6,2.5-0.4,3.7C-156.5,410.6-155.9,412.5-155.5,414.5z M-80.5,406c0.4,0.3,0.8,0.5,1.8,1.3
		c-2.2,1.9-4,3.7-6,5.3c-2.3,1.7-4.8,1.6-6.1-0.5c-2.1-3.2-4.8-6.3-2.9-10.6c0.2-0.5,0-1.2,0-1.8c-4.7-1.1-17.3,0.3-21.6,2.5
		c1.6,2.7,4.1,5.2,2.3,8.7c0.6,0.2,1,0.4,1.4,0.6c0,0.4-0.1,0.7-0.1,1.1c-3.5,0.2-7.1,0.5-10.6,0.5c-4.3,0-5.5-1.2-6.2-5.6
		c-0.1-0.6-0.5-1.1-0.9-2.2c-4.3,1.8-8.3,3.5-12.7,5.3c0.3,3.8,0.6,7.2,0.9,11.2c3.8-1.1,7.3-1.7,10.3-3.2c1.9-1,3.7-1.5,5.8-1.5
		c4.7-0.2,9.5-0.6,14.2-0.7c3.3-0.1,6.7-0.1,10,0.3c12.3,1.5,24.5,3.2,37.5,4.9c-0.5-2.3-0.8-3.7-1-5.2c-0.2-1.4-0.6-2.9-0.3-4.2
		c0.7-3.5-0.3-6.6-1.3-9.8c-5.3-1.1-10.5-2.1-15.7-3.1c-0.1,0.2-0.2,0.5-0.3,0.7c1,1.3,2,2.6,3.1,4C-79.6,404.6-80,405.3-80.5,406
		c-1.4-1.5-3.1-2.1-4.8-0.8c-2,1.6-4.3,3.3-3.8,6.5C-85,412.1-82.7,410.4-80.5,406z M-71.9,439.9c0.4,0.1,0.8,0.2,1.1,0.3
		c3.6-4.9,3.5-10.8,4.7-17c-1.9,0.1-3.3,0.2-4.8,0.4C-71.3,429.3-71.6,434.6-71.9,439.9z M-116,411.9c0.2-1.3,0.4-2.4,0.5-3.2
		c-2.8-2.5-3.8,0.5-5.4,1.2c-0.8-0.8-1.4-1.5-2.3-2.5c-1.2,0.8-2.2,1.5-3.4,2.4C-123.4,413-120,412.2-116,411.9z M-57.5,411
		c3.2-1,4.6-2.5,4.7-5.4c0.1-1-0.3-2.1-0.5-3.7c-1.4,0.9-2.1,1.4-2.9,1.9c0.4,1.1,0.7,1.9,1,2.8c-0.9,0.5-1.8,1-2.8,1.5
		C-57.9,409.2-57.7,410.1-57.5,411z M-97,395.4c0,0.1,0,0.2,0,0.4c0.9,0,1.8,0,2.8,0c0-0.1,0-0.2,0-0.4
		C-95.1,395.4-96.1,395.4-97,395.4z M-143.8,416.3c0.2,0,0.4,0,0.6,0.1c0-0.5-0.1-0.9-0.1-1.4c-0.1,0-0.3,0-0.4,0
		C-143.8,415.4-143.8,415.8-143.8,416.3z M-143.6,411.9c0.1,0,0.1,0,0.2,0c0-0.3,0-0.6,0-0.9c-0.1,0-0.2,0-0.3,0
		C-143.7,411.3-143.7,411.6-143.6,411.9z"/>
	<path class="st0" d="M-147,373.5c1.2-3.1,3.4-5.1,6.3-6.3c3.9-1.6,7.9-3,11.9-4.4c0.9-0.3,1.9-0.7,2.7-1c1-3.8,1.9-7.3,3-11.2
		c2.1,1.9,1.2,3.5,1,5.1c-0.2,1.6-0.3,3.3-0.4,5.6c2.2-0.3,4-0.5,5.7-0.7c0-0.3,0.1-0.6,0.1-0.9c-1.2-0.8-2.4-1.7-4-2.7
		c0.7-1.1,1.3-2.1,2-3.3c2.3,1,4.3,1.9,6.2,2.8c5.6,2.6,9.2,0.9,12.1-3.1c0.4-0.5,0.8-1,1.7-2.1c1.5,1.4,2.9,2.7,4.7,4.3
		c0.4,0,1.2-0.1,2.4-0.3c-0.6-2-1.1-3.8-1.6-5.6c2.7-0.3,2.7-0.3,5.7,7.4c8.4,0.9,15.5,5.3,22.8,9.4c5.9,3.3,8.3,8.9,9.5,15.1
		c0.2,1.3-0.2,2.6-0.4,4c-0.3,0-0.5,0-0.8,0c-0.3-2.2-0.1-4.6-0.9-6.6c-2.4-5.8-6-10.6-11.9-13.6c-6.4-3.3-12.7-6.8-20.4-6.6
		c-4.3,2.1-4.6,1.9-3.9,13.1c0.6,0.6,1.4,1.2,2.2,2c0.1,2.2,0.2,4.5,0.3,6.9c-1.9,0.3-3.7,0.6-5.8,0.9c0,0.1-0.2,0.7-0.4,1.3
		c-3.1,1.2-6.3,2.4-9.3,3.5c-1.5-1.2-2.9-2.3-4.1-3.4c-1.9-0.4-3.7-0.7-5.3-1.1c-1-1.6-1.7-2.9-2.6-4.4c1.1-1,2.2-2,3.7-3.3
		c-0.8-2.5-1.7-5.1-2.5-7.5c-3.3-0.8-6-1.6-8.8-2.3C-133.9,365.2-141.1,367.9-147,373.5L-147,373.5z M-112.4,376.8
		c5.8,1.2,11.4,0.5,16.9-1.5c0-5.5,0-10.7,0-16.1c-1.4-0.4-2.6-0.7-3.6-1c-1.8,1.4-3.2,2.6-4.7,3.7c0.8,3.1,1.5,6.1,2.3,9.5
		c-2.1,0.4-3.7,0.7-5.6,1c-0.3-2.4-0.5-4.3-0.7-6c-0.9-1-1.7-1.8-2.4-2.6c0.3-0.7,0.5-1.2,0.8-1.7c-1.8-0.6-3.2-1.1-4.9-1.7
		c-1,0.5-2.2,1.1-3.4,1.6C-115.9,367.2-114.2,372-112.4,376.8z M-103.2,370.4c-1.1-3.9-2-7.2-2.8-10.4c-0.2,0-0.3,0.1-0.5,0.1
		c0,3.1,0,6.3,0,9.6C-105.5,370-104.8,370.1-103.2,370.4z"/>
	<path class="st0" d="M-147,373.5c-1.1,2.3-2.4,4.6-3.4,6.9c-0.6,1.3-0.9,2.8-1,4.4c5.3-3.8,9.1-9.7,16.4-10.2
		c-7.1,2.8-12.1,8-16.9,14.1c-2.2-3.1-0.9-6.2-1.2-8.7C-150.9,377.7-148.9,375.6-147,373.5C-147,373.5-147,373.5-147,373.5z"/>
	<path class="st0" d="M-133.2,422.7c-0.5,7.1,0.3,14,4.6,20.1C-134.3,439.5-136.4,429.9-133.2,422.7z"/>
	<path class="st0" d="M-86.2,409.5c0.3-0.2,0.6-0.5,0.9-0.7c0.1,0.2,0.4,0.5,0.4,0.5c-0.3,0.3-0.6,0.5-0.9,0.7
		C-85.9,409.8-86,409.7-86.2,409.5z"/>
	<path class="st0" d="M-153.2,408.3c-0.2,0.8-0.3,1.6-0.5,2.7C-155.3,409.3-155.3,409.3-153.2,408.3L-153.2,408.3z"/>
	<path class="st0" d="M-106,375.4c1.3-2.2,2.3-3,4.5-1.4C-103.1,374.5-104.2,374.9-106,375.4z"/>
	<path class="st0" d="M-101,362.7c0,0.3-0.1,0.6-0.1,0.9c-0.1,0-0.3,0-0.4,0.1c-0.1-0.3-0.2-0.7-0.2-1
		C-101.5,362.7-101.3,362.7-101,362.7z"/>
</g>
</svg>
